<svg width="44" height="44" viewBox="0 0 44 44" fill="none" xmlns="http://www.w3.org/2000/svg">
<path d="M42 22C42 33.0457 33.0457 42 22 42C10.9543 42 2 33.0457 2 22C2 10.9543 10.9543 2 22 2C33.0457 2 42 10.9543 42 22ZM4 22C4 31.9411 12.0589 40 22 40C31.9411 40 40 31.9411 40 22C40 12.0589 31.9411 4 22 4C12.0589 4 4 12.0589 4 22Z" fill="#DBB3E8"/>
<path d="M42 22C42 33.0457 33.0457 42 22 42C10.9543 42 2 33.0457 2 22C2 10.9543 10.9543 2 22 2C33.0457 2 42 10.9543 42 22ZM4 22C4 31.9411 12.0589 40 22 40C31.9411 40 40 31.9411 40 22C40 12.0589 31.9411 4 22 4C12.0589 4 4 12.0589 4 22Z" fill="#DBB3E8" stroke="#B666D2" stroke-width="3"/>
<path d="M9.87891 26.9941V19.8516C9.82422 19.8867 9.57031 20 9.11719 20.1914C8.66797 20.3789 8.41406 20.4805 8.35547 20.4961V19.3242C8.44922 19.2812 8.74609 19.1348 9.24609 18.8848C9.74609 18.6309 10.0215 18.4863 10.0723 18.4512H11.3613V26.9941H9.87891ZM15.123 25.6348C15.3457 25.8145 15.6133 25.9043 15.9258 25.9043C16.2383 25.9043 16.5039 25.8145 16.7227 25.6348C16.9453 25.4551 17.1133 25.207 17.2266 24.8906C17.3438 24.5703 17.4277 24.2305 17.4785 23.8711C17.5293 23.5078 17.5547 23.1055 17.5547 22.6641C17.5547 20.5469 17.0117 19.4883 15.9258 19.4883C14.8477 19.4883 14.3008 20.5391 14.2852 22.6406C14.2852 23.0859 14.3105 23.4902 14.3613 23.8535C14.4121 24.2168 14.4961 24.5605 14.6133 24.8848C14.7305 25.2051 14.9004 25.4551 15.123 25.6348ZM17.1738 26.8887C16.8066 27.0449 16.3906 27.123 15.9258 27.123C15.4609 27.123 15.043 27.0449 14.6719 26.8887C14.3008 26.7285 13.9941 26.5137 13.752 26.2441C13.5098 25.9707 13.3066 25.6445 13.1426 25.2656C12.9824 24.8867 12.8672 24.4863 12.7969 24.0645C12.7305 23.6426 12.6973 23.1914 12.6973 22.7109C12.6973 22.2227 12.7324 21.7656 12.8027 21.3398C12.873 20.9102 12.9902 20.5059 13.1543 20.127C13.3184 19.7441 13.5215 19.418 13.7637 19.1484C14.0098 18.8789 14.3164 18.666 14.6836 18.5098C15.0508 18.3496 15.4648 18.2695 15.9258 18.2695C16.3867 18.2695 16.8008 18.3496 17.168 18.5098C17.5352 18.666 17.8398 18.8809 18.082 19.1543C18.3242 19.4238 18.5254 19.75 18.6855 20.1328C18.8496 20.5117 18.9668 20.9141 19.0371 21.3398C19.1074 21.7656 19.1426 22.2227 19.1426 22.7109C19.1426 23.1914 19.1074 23.6426 19.0371 24.0645C18.9707 24.4863 18.8574 24.8887 18.6973 25.2715C18.5371 25.6504 18.3359 25.9746 18.0938 26.2441C17.8516 26.5137 17.5449 26.7285 17.1738 26.8887ZM20.0215 28.1074L23.666 18.2754H24.9434L21.2695 28.1074H20.0215ZM27.0586 26.9941V19.8516C27.0039 19.8867 26.75 20 26.2969 20.1914C25.8477 20.3789 25.5938 20.4805 25.5352 20.4961V19.3242C25.6289 19.2812 25.9258 19.1348 26.4258 18.8848C26.9258 18.6309 27.2012 18.4863 27.252 18.4512H28.541V26.9941H27.0586ZM32.3027 25.6348C32.5254 25.8145 32.793 25.9043 33.1055 25.9043C33.418 25.9043 33.6836 25.8145 33.9023 25.6348C34.125 25.4551 34.293 25.207 34.4062 24.8906C34.5234 24.5703 34.6074 24.2305 34.6582 23.8711C34.709 23.5078 34.7344 23.1055 34.7344 22.6641C34.7344 20.5469 34.1914 19.4883 33.1055 19.4883C32.0273 19.4883 31.4805 20.5391 31.4648 22.6406C31.4648 23.0859 31.4902 23.4902 31.541 23.8535C31.5918 24.2168 31.6758 24.5605 31.793 24.8848C31.9102 25.2051 32.0801 25.4551 32.3027 25.6348ZM34.3535 26.8887C33.9863 27.0449 33.5703 27.123 33.1055 27.123C32.6406 27.123 32.2227 27.0449 31.8516 26.8887C31.4805 26.7285 31.1738 26.5137 30.9316 26.2441C30.6895 25.9707 30.4863 25.6445 30.3223 25.2656C30.1621 24.8867 30.0469 24.4863 29.9766 24.0645C29.9102 23.6426 29.877 23.1914 29.877 22.7109C29.877 22.2227 29.9121 21.7656 29.9824 21.3398C30.0527 20.9102 30.1699 20.5059 30.334 20.127C30.498 19.7441 30.7012 19.418 30.9434 19.1484C31.1895 18.8789 31.4961 18.666 31.8633 18.5098C32.2305 18.3496 32.6445 18.2695 33.1055 18.2695C33.5664 18.2695 33.9805 18.3496 34.3477 18.5098C34.7148 18.666 35.0195 18.8809 35.2617 19.1543C35.5039 19.4238 35.7051 19.75 35.8652 20.1328C36.0293 20.5117 36.1465 20.9141 36.2168 21.3398C36.2871 21.7656 36.3223 22.2227 36.3223 22.7109C36.3223 23.1914 36.2871 23.6426 36.2168 24.0645C36.1504 24.4863 36.0371 24.8887 35.877 25.2715C35.7168 25.6504 35.5156 25.9746 35.2734 26.2441C35.0312 26.5137 34.7246 26.7285 34.3535 26.8887Z" fill="#333333"/>
</svg>
