<svg width="40" height="42" viewBox="0 0 40 42" fill="none" xmlns="http://www.w3.org/2000/svg">
<path d="M40 22C40 33.0457 31.0457 42 20 42C8.9543 42 0 33.0457 0 22C0 10.9543 8.9543 2 20 2C31.0457 2 40 10.9543 40 22ZM2 22C2 31.9411 10.0589 40 20 40C29.9411 40 38 31.9411 38 22C38 12.0589 29.9411 4 20 4C10.0589 4 2 12.0589 2 22Z" fill="#DBB3E8"/>
<path d="M20 3C20 2.44772 20.4481 1.99739 20.9997 2.02499C24.5377 2.20201 27.9659 3.31589 30.9323 5.25229C31.3947 5.55418 31.4925 6.18187 31.1679 6.62868C30.8433 7.07549 30.2193 7.17196 29.7552 6.87264C27.1328 5.18149 24.1151 4.201 20.9995 4.02776C20.4481 3.9971 20 3.55228 20 3Z" fill="#B4B4B4" stroke="#B666D2" stroke-width="3"/>
<path d="M10.2051 27.9932V19.6602C10.1413 19.7012 9.84505 19.8333 9.31641 20.0566C8.79232 20.2754 8.49609 20.3939 8.42773 20.4121V19.0449C8.53711 18.9948 8.88346 18.8239 9.4668 18.5322C10.0501 18.236 10.3714 18.0674 10.4307 18.0264H11.9346V27.9932H10.2051ZM13.1787 29.292L17.4307 17.8213H18.9209L14.6348 29.292H13.1787ZM21.3887 27.9932V19.6602C21.3249 19.7012 21.0286 19.8333 20.5 20.0566C19.9759 20.2754 19.6797 20.3939 19.6113 20.4121V19.0449C19.7207 18.9948 20.0671 18.8239 20.6504 18.5322C21.2337 18.236 21.555 18.0674 21.6143 18.0264H23.1182V27.9932H21.3887ZM27.5068 26.4072C27.7666 26.6169 28.0788 26.7217 28.4434 26.7217C28.8079 26.7217 29.1178 26.6169 29.373 26.4072C29.6328 26.1976 29.8288 25.9082 29.9609 25.5391C30.0977 25.1654 30.1956 24.7689 30.2549 24.3496C30.3141 23.9258 30.3438 23.4564 30.3438 22.9414C30.3438 20.4714 29.7103 19.2363 28.4434 19.2363C27.1855 19.2363 26.5475 20.4622 26.5293 22.9141C26.5293 23.4336 26.5589 23.9053 26.6182 24.3291C26.6774 24.7529 26.7754 25.154 26.9121 25.5322C27.0488 25.9059 27.2471 26.1976 27.5068 26.4072ZM29.8994 27.8701C29.471 28.0524 28.9857 28.1436 28.4434 28.1436C27.901 28.1436 27.4134 28.0524 26.9805 27.8701C26.5475 27.6833 26.1898 27.4326 25.9072 27.1182C25.6247 26.7992 25.3877 26.4186 25.1963 25.9766C25.0094 25.5345 24.875 25.0674 24.793 24.5752C24.7155 24.083 24.6768 23.5566 24.6768 22.9961C24.6768 22.4264 24.7178 21.8932 24.7998 21.3965C24.8818 20.8952 25.0186 20.4235 25.21 19.9814C25.4014 19.5348 25.6383 19.1543 25.9209 18.8398C26.208 18.5254 26.5658 18.277 26.9941 18.0947C27.4225 17.9079 27.9056 17.8145 28.4434 17.8145C28.9811 17.8145 29.4642 17.9079 29.8926 18.0947C30.321 18.277 30.6764 18.5277 30.959 18.8467C31.2415 19.1611 31.4762 19.5417 31.6631 19.9883C31.8545 20.4303 31.9912 20.8997 32.0732 21.3965C32.1553 21.8932 32.1963 22.4264 32.1963 22.9961C32.1963 23.5566 32.1553 24.083 32.0732 24.5752C31.9958 25.0674 31.8636 25.5368 31.6768 25.9834C31.4899 26.4255 31.2552 26.8037 30.9727 27.1182C30.6901 27.4326 30.3324 27.6833 29.8994 27.8701Z" fill="#333333"/>
</svg>
