<svg width="42" height="42" viewBox="0 0 42 42" fill="none" xmlns="http://www.w3.org/2000/svg">
<path d="M40 22C40 33.0457 31.0457 42 20 42C8.9543 42 0 33.0457 0 22C0 10.9543 8.9543 2 20 2C31.0457 2 40 10.9543 40 22ZM2 22C2 31.9411 10.0589 40 20 40C29.9411 40 38 31.9411 38 22C38 12.0589 29.9411 4 20 4C10.0589 4 2 12.0589 2 22Z" fill="#DBB3E8"/>
<path d="M20 3C20 2.44772 20.448 1.99739 20.9996 2.02499C24.1595 2.1831 27.2419 3.08904 29.9909 4.67426C33.0292 6.42626 35.5533 8.94639 37.31 11.9819C39.0668 15.0173 39.9945 18.4614 40 21.9686C40.005 25.1419 39.2548 28.2659 37.8177 31.0845C37.5669 31.5765 36.9532 31.7407 36.4743 31.4655C35.9955 31.1904 35.833 30.5802 36.0811 30.0868C37.3451 27.5735 38.0044 24.7943 38 21.9717C37.995 18.8153 37.1601 15.7156 35.579 12.9837C33.9979 10.2518 31.7262 7.98363 28.9918 6.40683C26.5467 4.99684 23.8085 4.18397 20.9995 4.02777C20.4481 3.9971 20 3.55228 20 3Z" fill="#B4B4B4" stroke="#B666D2" stroke-width="3"/>
<path d="M12.2949 27.9932V19.6602C12.2311 19.7012 11.9349 19.8333 11.4062 20.0566C10.8822 20.2754 10.5859 20.3939 10.5176 20.4121V19.0449C10.627 18.9948 10.9733 18.8239 11.5566 18.5322C12.14 18.236 12.4613 18.0674 12.5205 18.0264H14.0244V27.9932H12.2949ZM15.2686 29.292L19.5205 17.8213H21.0107L16.7246 29.292H15.2686ZM24.7227 28.1436C24.1348 28.1436 23.5811 28.0684 23.0615 27.918C22.5465 27.763 22.1387 27.5557 21.8379 27.2959L22.3301 26.0039C22.5807 26.2135 22.9271 26.3867 23.3691 26.5234C23.8112 26.6556 24.2646 26.7217 24.7295 26.7217C25.2536 26.7217 25.6751 26.5804 25.9941 26.2979C26.3177 26.0153 26.4795 25.6462 26.4795 25.1904C26.4795 24.9079 26.4339 24.6641 26.3428 24.459C26.2562 24.2539 26.14 24.0898 25.9941 23.9668C25.8483 23.8438 25.6523 23.7458 25.4062 23.6729C25.1647 23.5954 24.9163 23.543 24.6611 23.5156C24.4059 23.4883 24.0983 23.4723 23.7383 23.4678C23.7246 23.4678 23.6585 23.4678 23.54 23.4678C23.4215 23.4632 23.3555 23.4609 23.3418 23.4609V22.0801H23.7246C24.1211 22.0801 24.4606 22.0596 24.7432 22.0186C25.0303 21.9775 25.2946 21.9069 25.5361 21.8066C25.7822 21.7064 25.9668 21.5583 26.0898 21.3623C26.2174 21.1663 26.2812 20.9248 26.2812 20.6377C26.2812 20.2503 26.1354 19.9199 25.8438 19.6465C25.5521 19.373 25.1419 19.2363 24.6133 19.2363C23.7565 19.2363 22.9932 19.4505 22.3232 19.8789L21.8311 18.5801C22.6605 18.0697 23.6449 17.8145 24.7842 17.8145C25.7367 17.8145 26.5137 18.0651 27.1152 18.5664C27.7214 19.0677 28.0244 19.7103 28.0244 20.4941C28.0244 21.041 27.8831 21.5081 27.6006 21.8955C27.3226 22.2783 26.917 22.5586 26.3838 22.7363C26.9945 22.8548 27.4661 23.1488 27.7988 23.6182C28.1361 24.0876 28.3047 24.6413 28.3047 25.2793C28.3047 25.8854 28.1429 26.4095 27.8193 26.8516C27.4958 27.2891 27.0674 27.6149 26.5342 27.8291C26.001 28.0387 25.3971 28.1436 24.7227 28.1436Z" fill="#333333"/>
</svg>
