<svg width="43" height="44" viewBox="0 0 43 44" fill="none" xmlns="http://www.w3.org/2000/svg">
<path d="M42 23C42 34.598 32.598 44 21 44C9.40202 44 0 34.598 0 23C0 11.402 9.40202 2 21 2C32.598 2 42 11.402 42 23ZM2.1 23C2.1 33.4382 10.5618 41.9 21 41.9C31.4382 41.9 39.9 33.4382 39.9 23C39.9 12.5618 31.4382 4.1 21 4.1C10.5618 4.1 2.1 12.5618 2.1 23Z" fill="#DBB3E8"/>
<path d="M21 3.05C21 2.4701 21.4705 1.99726 22.0496 2.02624C26.1136 2.22957 30.0394 3.61009 33.3435 6.01064C36.6476 8.4112 39.1737 11.7183 40.6229 15.5205C40.8294 16.0624 40.5251 16.6559 39.9736 16.8351C39.4221 17.0143 38.8325 16.7112 38.6229 16.1704C37.3128 12.7896 35.0544 9.84943 32.1091 7.70958C29.1639 5.56973 25.6697 4.33044 22.0495 4.12915C21.4705 4.09696 21 3.6299 21 3.05Z" fill="#DBB3E8" stroke="#B666D2" stroke-width="3"/>
<path d="M15.1484 27.9941V20.8516C15.0938 20.8867 14.8398 21 14.3867 21.1914C13.9375 21.3789 13.6836 21.4805 13.625 21.4961V20.3242C13.7188 20.2812 14.0156 20.1348 14.5156 19.8848C15.0156 19.6309 15.291 19.4863 15.3418 19.4512H16.6309V27.9941H15.1484ZM17.6973 29.1074L21.3418 19.2754H22.6191L18.9453 29.1074H17.6973ZM26.1348 28.123C25.748 28.123 25.3496 28.0605 24.9395 27.9355C24.5293 27.8066 24.2168 27.6855 24.002 27.5723C23.7871 27.4551 23.6445 27.3652 23.5742 27.3027L24.043 26.2012C24.1172 26.2598 24.2246 26.334 24.3652 26.4238C24.5098 26.5098 24.7402 26.6094 25.0566 26.7227C25.377 26.8359 25.6836 26.8926 25.9766 26.8926C26.5234 26.8926 26.9375 26.7402 27.2188 26.4355C27.5 26.1309 27.6406 25.7324 27.6406 25.2402C27.6406 24.7754 27.5117 24.4023 27.2539 24.1211C27 23.8398 26.6699 23.6992 26.2637 23.6992C25.7793 23.6992 25.3457 23.9102 24.9629 24.332L23.9375 24.1328L24.1602 19.457H28.8242L28.7363 20.6641H25.5195C25.5195 20.7344 25.5059 21.0879 25.4785 21.7246C25.4551 22.3574 25.4414 22.7109 25.4375 22.7852C25.7812 22.6016 26.1426 22.5098 26.5215 22.5098C27.3105 22.5098 27.9453 22.7637 28.4258 23.2715C28.9102 23.7793 29.1523 24.4414 29.1523 25.2578C29.1523 26.125 28.8867 26.8203 28.3555 27.3438C27.8281 27.8633 27.0879 28.123 26.1348 28.123Z" fill="#333333"/>
</svg>
