<svg width="40" height="42" viewBox="0 0 40 42" fill="none" xmlns="http://www.w3.org/2000/svg">
<path d="M40 22C40 33.0457 31.0457 42 20 42C8.9543 42 0 33.0457 0 22C0 10.9543 8.9543 2 20 2C31.0457 2 40 10.9543 40 22ZM2 22C2 31.9411 10.0589 40 20 40C29.9411 40 38 31.9411 38 22C38 12.0589 29.9411 4 20 4C10.0589 4 2 12.0589 2 22Z" fill="#DBB3E8"/>
<path d="M20 3C20 2.44772 20.448 1.99739 20.9996 2.02499C24.1489 2.18257 27.2214 3.08299 29.9637 4.65859C32.706 6.23418 35.0313 8.43516 36.7535 11.0765C37.0551 11.5392 36.8917 12.153 36.4145 12.4312C35.9374 12.7093 35.3275 12.5462 35.0232 12.0853C33.4789 9.74517 31.4064 7.7941 28.9673 6.39273C26.5283 4.99135 23.799 4.18345 20.9995 4.02777C20.4481 3.9971 20 3.55228 20 3Z" fill="#B4B4B4" stroke="#B666D2" stroke-width="3"/>
<path d="M12.3574 27.9932V19.6602C12.2936 19.7012 11.9974 19.8333 11.4688 20.0566C10.9447 20.2754 10.6484 20.3939 10.5801 20.4121V19.0449C10.6895 18.9948 11.0358 18.8239 11.6191 18.5322C12.2025 18.236 12.5238 18.0674 12.583 18.0264H14.0869V27.9932H12.3574ZM15.3311 29.292L19.583 17.8213H21.0732L16.7871 29.292H15.3311ZM25.6738 28.1436C24.5618 28.1436 23.6572 27.8405 22.96 27.2344C22.2627 26.6283 21.9141 25.8285 21.9141 24.835C21.9141 24.516 21.9482 24.2106 22.0166 23.9189C22.085 23.6273 22.1898 23.3424 22.3311 23.0645C22.4723 22.7865 22.6136 22.5404 22.7549 22.3262C22.8962 22.112 23.0785 21.8568 23.3018 21.5605L26.1455 17.9717H28.2646L25.1611 21.8887C25.4938 21.7747 25.7718 21.7178 25.9951 21.7178C26.9749 21.7178 27.777 22.0117 28.4014 22.5996C29.0257 23.1829 29.3379 23.944 29.3379 24.8828C29.3379 25.8581 28.9961 26.6465 28.3125 27.248C27.6289 27.8451 26.7493 28.1436 25.6738 28.1436ZM25.5918 26.7764C26.1934 26.7764 26.6628 26.6055 27 26.2637C27.3418 25.9173 27.5127 25.4639 27.5127 24.9033C27.5127 24.3154 27.3532 23.8529 27.0342 23.5156C26.7152 23.1738 26.2412 23.0029 25.6123 23.0029C24.9743 23.0029 24.5049 23.1738 24.2041 23.5156C23.9033 23.8574 23.7529 24.3245 23.7529 24.917C23.7529 25.4775 23.9124 25.9287 24.2314 26.2705C24.5505 26.6077 25.0039 26.7764 25.5918 26.7764Z" fill="#333333"/>
</svg>
