<svg width="41" height="42" viewBox="0 0 41 42" fill="none" xmlns="http://www.w3.org/2000/svg">
<path d="M40 22C40 33.0457 31.0457 42 20 42C8.9543 42 0 33.0457 0 22C0 10.9543 8.9543 2 20 2C31.0457 2 40 10.9543 40 22ZM2 22C2 31.9411 10.0589 40 20 40C29.9411 40 38 31.9411 38 22C38 12.0589 29.9411 4 20 4C10.0589 4 2 12.0589 2 22Z" fill="#DBB3E8"/>
<path d="M20 3C20 2.44772 20.4481 1.99739 20.9997 2.02499C24.8701 2.21864 28.609 3.53342 31.7557 5.81966C34.9024 8.1059 37.3083 11.2555 38.6884 14.8766C38.8852 15.3927 38.5953 15.958 38.0701 16.1287C37.5448 16.2993 36.9833 16.0106 36.7837 15.4957C35.536 12.2759 33.3851 9.47565 30.5801 7.43769C27.7751 5.39974 24.4473 4.21947 20.9995 4.02776C20.4481 3.9971 20 3.55228 20 3Z" fill="#B4B4B4" stroke="#B666D2" stroke-width="3"/>
<path d="M6.95703 28L6.91602 26.5234L10.0811 22.9414C10.473 22.5221 10.7578 22.137 10.9355 21.7861C11.1178 21.4307 11.209 21.057 11.209 20.665C11.209 20.2321 11.0677 19.888 10.7852 19.6328C10.5026 19.373 10.1312 19.2432 9.6709 19.2432C9.24707 19.2432 8.8278 19.3229 8.41309 19.4824C8.00293 19.6374 7.66569 19.8333 7.40137 20.0703L6.88867 18.7168C7.57227 18.1152 8.53385 17.8145 9.77344 17.8145C10.7578 17.8145 11.5485 18.0628 12.1455 18.5596C12.7471 19.0518 13.0479 19.749 13.0479 20.6514C13.0479 21.2894 12.877 21.8978 12.5352 22.4766C12.1979 23.0553 11.7354 23.6501 11.1475 24.2607L8.8916 26.6533H12.9316L12.8086 28H6.95703ZM13.9365 29.292L18.1885 17.8213H19.6787L15.3926 29.292H13.9365ZM22.1465 27.9932V19.6602C22.0827 19.7012 21.7865 19.8333 21.2578 20.0566C20.7337 20.2754 20.4375 20.3939 20.3691 20.4121V19.0449C20.4785 18.9948 20.8249 18.8239 21.4082 18.5322C21.9915 18.236 22.3128 18.0674 22.3721 18.0264H23.876V27.9932H22.1465ZM28.2646 26.4072C28.5244 26.6169 28.8366 26.7217 29.2012 26.7217C29.5658 26.7217 29.8757 26.6169 30.1309 26.4072C30.3906 26.1976 30.5866 25.9082 30.7188 25.5391C30.8555 25.1654 30.9535 24.7689 31.0127 24.3496C31.0719 23.9258 31.1016 23.4564 31.1016 22.9414C31.1016 20.4714 30.4681 19.2363 29.2012 19.2363C27.9434 19.2363 27.3053 20.4622 27.2871 22.9141C27.2871 23.4336 27.3167 23.9053 27.376 24.3291C27.4352 24.7529 27.5332 25.154 27.6699 25.5322C27.8066 25.9059 28.0049 26.1976 28.2646 26.4072ZM30.6572 27.8701C30.2288 28.0524 29.7435 28.1436 29.2012 28.1436C28.6589 28.1436 28.1712 28.0524 27.7383 27.8701C27.3053 27.6833 26.9476 27.4326 26.665 27.1182C26.3825 26.7992 26.1455 26.4186 25.9541 25.9766C25.7673 25.5345 25.6328 25.0674 25.5508 24.5752C25.4733 24.083 25.4346 23.5566 25.4346 22.9961C25.4346 22.4264 25.4756 21.8932 25.5576 21.3965C25.6396 20.8952 25.7764 20.4235 25.9678 19.9814C26.1592 19.5348 26.3962 19.1543 26.6787 18.8398C26.9658 18.5254 27.3236 18.277 27.752 18.0947C28.1803 17.9079 28.6634 17.8145 29.2012 17.8145C29.7389 17.8145 30.222 17.9079 30.6504 18.0947C31.0788 18.277 31.4342 18.5277 31.7168 18.8467C31.9993 19.1611 32.234 19.5417 32.4209 19.9883C32.6123 20.4303 32.749 20.8997 32.8311 21.3965C32.9131 21.8932 32.9541 22.4264 32.9541 22.9961C32.9541 23.5566 32.9131 24.083 32.8311 24.5752C32.7536 25.0674 32.6214 25.5368 32.4346 25.9834C32.2477 26.4255 32.013 26.8037 31.7305 27.1182C31.4479 27.4326 31.0902 27.6833 30.6572 27.8701Z" fill="#333333"/>
</svg>
