<svg width="42" height="44" viewBox="0 0 42 44" fill="none" xmlns="http://www.w3.org/2000/svg">
<path d="M40 22C40 33.0457 31.0457 42 20 42C8.9543 42 0 33.0457 0 22C0 10.9543 8.9543 2 20 2C31.0457 2 40 10.9543 40 22ZM2 22C2 31.9411 10.0589 40 20 40C29.9411 40 38 31.9411 38 22C38 12.0589 29.9411 4 20 4C10.0589 4 2 12.0589 2 22Z" fill="#DBB3E8"/>
<path d="M20 3C20 2.44772 20.448 1.99739 20.9996 2.02499C24.1595 2.1831 27.2419 3.08904 29.9909 4.67426C33.0292 6.42626 35.5533 8.94639 37.31 11.9819C39.0668 15.0173 39.9945 18.4614 40 21.9686C40.0055 25.4758 39.0886 28.9227 37.3414 31.9637C35.5942 35.0047 33.078 37.5327 30.0453 39.2943C27.0126 41.0558 23.57 41.9889 20.0628 41.9999C16.5557 42.0109 13.1073 41.0995 10.0636 39.357C7.30958 37.7805 4.97453 35.5737 3.24655 32.9235C2.94491 32.4608 3.10833 31.847 3.58546 31.5688C4.06259 31.2907 4.67255 31.4538 4.97676 31.9148C6.52635 34.2628 8.60765 36.219 11.0572 37.6213C13.7965 39.1895 16.9001 40.0098 20.0566 39.9999C23.213 39.99 26.3113 39.1502 29.0408 37.5648C31.7702 35.9795 34.0348 33.7042 35.6073 30.9673C37.1798 28.2304 38.0049 25.1282 38 21.9717C37.995 18.8153 37.1601 15.7156 35.579 12.9837C33.9979 10.2518 31.7262 7.98363 28.9918 6.40683C26.5467 4.99684 23.8085 4.18397 20.9995 4.02777C20.4481 3.9971 20 3.55228 20 3Z" fill="#B4B4B4" stroke="#B666D2" stroke-width="3"/>
<path d="M10.0469 28L10.0059 26.5234L13.1709 22.9414C13.5628 22.5221 13.8477 22.137 14.0254 21.7861C14.2077 21.4307 14.2988 21.057 14.2988 20.665C14.2988 20.2321 14.1576 19.888 13.875 19.6328C13.5924 19.373 13.221 19.2432 12.7607 19.2432C12.3369 19.2432 11.9176 19.3229 11.5029 19.4824C11.0928 19.6374 10.7555 19.8333 10.4912 20.0703L9.97852 18.7168C10.6621 18.1152 11.6237 17.8145 12.8633 17.8145C13.8477 17.8145 14.6383 18.0628 15.2354 18.5596C15.8369 19.0518 16.1377 19.749 16.1377 20.6514C16.1377 21.2894 15.9668 21.8978 15.625 22.4766C15.2878 23.0553 14.8252 23.6501 14.2373 24.2607L11.9814 26.6533H16.0215L15.8984 28H10.0469ZM17.0264 29.292L21.2783 17.8213H22.7686L18.4824 29.292H17.0264ZM26.4805 28.1436C25.8926 28.1436 25.3389 28.0684 24.8193 27.918C24.3044 27.763 23.8965 27.5557 23.5957 27.2959L24.0879 26.0039C24.3385 26.2135 24.6849 26.3867 25.127 26.5234C25.569 26.6556 26.0225 26.7217 26.4873 26.7217C27.0114 26.7217 27.4329 26.5804 27.752 26.2979C28.0755 26.0153 28.2373 25.6462 28.2373 25.1904C28.2373 24.9079 28.1917 24.6641 28.1006 24.459C28.014 24.2539 27.8978 24.0898 27.752 23.9668C27.6061 23.8438 27.4102 23.7458 27.1641 23.6729C26.9225 23.5954 26.6742 23.543 26.4189 23.5156C26.1637 23.4883 25.8561 23.4723 25.4961 23.4678C25.4824 23.4678 25.4163 23.4678 25.2979 23.4678C25.1794 23.4632 25.1133 23.4609 25.0996 23.4609V22.0801H25.4824C25.8789 22.0801 26.2184 22.0596 26.501 22.0186C26.7881 21.9775 27.0524 21.9069 27.2939 21.8066C27.54 21.7064 27.7246 21.5583 27.8477 21.3623C27.9753 21.1663 28.0391 20.9248 28.0391 20.6377C28.0391 20.2503 27.8932 19.9199 27.6016 19.6465C27.3099 19.373 26.8997 19.2363 26.3711 19.2363C25.5143 19.2363 24.751 19.4505 24.0811 19.8789L23.5889 18.5801C24.4183 18.0697 25.4027 17.8145 26.542 17.8145C27.4945 17.8145 28.2715 18.0651 28.873 18.5664C29.4792 19.0677 29.7822 19.7103 29.7822 20.4941C29.7822 21.041 29.641 21.5081 29.3584 21.8955C29.0804 22.2783 28.6748 22.5586 28.1416 22.7363C28.7523 22.8548 29.224 23.1488 29.5566 23.6182C29.8939 24.0876 30.0625 24.6413 30.0625 25.2793C30.0625 25.8854 29.9007 26.4095 29.5771 26.8516C29.2536 27.2891 28.8252 27.6149 28.292 27.8291C27.7588 28.0387 27.1549 28.1436 26.4805 28.1436Z" fill="#333333"/>
</svg>
