<svg width="44" height="44" viewBox="0 0 44 44" fill="none" xmlns="http://www.w3.org/2000/svg">
<path d="M42 23C42 34.598 32.598 44 21 44C9.40202 44 0 34.598 0 23C0 11.402 9.40202 2 21 2C32.598 2 42 11.402 42 23ZM2.1 23C2.1 33.4382 10.5618 41.9 21 41.9C31.4382 41.9 39.9 33.4382 39.9 23C39.9 12.5618 31.4382 4.1 21 4.1C10.5618 4.1 2.1 12.5618 2.1 23Z" fill="#DBB3E8"/>
<path d="M21 3.05C21 2.4701 21.4705 1.99726 22.0496 2.02624C26.1136 2.22957 30.0394 3.61009 33.3435 6.01064C36.9313 8.61733 39.6018 12.2929 40.9722 16.5106C42.3426 20.7284 42.3426 25.2716 40.9722 29.4894C39.7101 33.3735 37.3455 36.798 34.1772 39.3512C33.7257 39.715 33.0672 39.609 32.7263 39.1399C32.3855 38.6707 32.4916 38.0163 32.9411 37.6499C35.7516 35.3592 37.85 32.3028 38.975 28.8404C40.2083 25.0445 40.2083 20.9555 38.975 17.1596C37.7416 13.3636 35.3382 10.0556 32.1091 7.70958C29.1639 5.56973 25.6697 4.33044 22.0495 4.12915C21.4705 4.09696 21 3.6299 21 3.05Z" fill="#DBB3E8" stroke="#B666D2" stroke-width="3"/>
<path d="M12.793 28L12.7578 26.7344L15.4707 23.6641C15.8066 23.3047 16.0508 22.9746 16.2031 22.6738C16.3594 22.3691 16.4375 22.0488 16.4375 21.7129C16.4375 21.3418 16.3164 21.0469 16.0742 20.8281C15.832 20.6055 15.5137 20.4941 15.1191 20.4941C14.7559 20.4941 14.3965 20.5625 14.041 20.6992C13.6895 20.832 13.4004 21 13.1738 21.2031L12.7344 20.043C13.3203 19.5273 14.1445 19.2695 15.207 19.2695C16.0508 19.2695 16.7285 19.4824 17.2402 19.9082C17.7559 20.3301 18.0137 20.9277 18.0137 21.7012C18.0137 22.248 17.8672 22.7695 17.5742 23.2656C17.2852 23.7617 16.8887 24.2715 16.3848 24.7949L14.4512 26.8457H17.9141L17.8086 28H12.793ZM18.7754 29.1074L22.4199 19.2754H23.6973L20.0234 29.1074H18.7754ZM27.2129 28.123C26.8262 28.123 26.4277 28.0605 26.0176 27.9355C25.6074 27.8066 25.2949 27.6855 25.0801 27.5723C24.8652 27.4551 24.7227 27.3652 24.6523 27.3027L25.1211 26.2012C25.1953 26.2598 25.3027 26.334 25.4434 26.4238C25.5879 26.5098 25.8184 26.6094 26.1348 26.7227C26.4551 26.8359 26.7617 26.8926 27.0547 26.8926C27.6016 26.8926 28.0156 26.7402 28.2969 26.4355C28.5781 26.1309 28.7188 25.7324 28.7188 25.2402C28.7188 24.7754 28.5898 24.4023 28.332 24.1211C28.0781 23.8398 27.748 23.6992 27.3418 23.6992C26.8574 23.6992 26.4238 23.9102 26.041 24.332L25.0156 24.1328L25.2383 19.457H29.9023L29.8145 20.6641H26.5977C26.5977 20.7344 26.584 21.0879 26.5566 21.7246C26.5332 22.3574 26.5195 22.7109 26.5156 22.7852C26.8594 22.6016 27.2207 22.5098 27.5996 22.5098C28.3887 22.5098 29.0234 22.7637 29.5039 23.2715C29.9883 23.7793 30.2305 24.4414 30.2305 25.2578C30.2305 26.125 29.9648 26.8203 29.4336 27.3438C28.9062 27.8633 28.166 28.123 27.2129 28.123Z" fill="#333333"/>
</svg>
