<svg width="42" height="42" viewBox="0 0 42 42" fill="none" xmlns="http://www.w3.org/2000/svg">
<path d="M40 22C40 33.0457 31.0457 42 20 42C8.9543 42 0 33.0457 0 22C0 10.9543 8.9543 2 20 2C31.0457 2 40 10.9543 40 22ZM2 22C2 31.9411 10.0589 40 20 40C29.9411 40 38 31.9411 38 22C38 12.0589 29.9411 4 20 4C10.0589 4 2 12.0589 2 22Z" fill="#DBB3E8"/>
<path d="M20 3C20 2.44772 20.448 1.99739 20.9996 2.02499C24.1489 2.18257 27.2214 3.08299 29.9637 4.65859C32.9954 6.40051 35.5175 8.9068 37.2785 11.9275C39.0394 14.9483 39.9776 18.3779 39.9996 21.8743C40.0195 25.0369 39.2891 28.1543 37.8745 30.9724C37.6267 31.466 37.0141 31.6339 36.5335 31.3618C36.0529 31.0897 35.8866 30.4806 36.1316 29.9856C37.3755 27.4729 38.0173 24.6998 37.9996 21.8869C37.9799 18.7401 37.1355 15.6534 35.5506 12.9348C33.9658 10.2161 31.6959 7.96045 28.9673 6.39273C26.5283 4.99135 23.799 4.18345 20.9995 4.02777C20.4481 3.9971 20 3.55228 20 3Z" fill="#B4B4B4" stroke="#B666D2" stroke-width="3"/>
<path d="M9.60938 28L9.56836 26.5234L12.7334 22.9414C13.1253 22.5221 13.4102 22.137 13.5879 21.7861C13.7702 21.4307 13.8613 21.057 13.8613 20.665C13.8613 20.2321 13.7201 19.888 13.4375 19.6328C13.1549 19.373 12.7835 19.2432 12.3232 19.2432C11.8994 19.2432 11.4801 19.3229 11.0654 19.4824C10.6553 19.6374 10.318 19.8333 10.0537 20.0703L9.54102 18.7168C10.2246 18.1152 11.1862 17.8145 12.4258 17.8145C13.4102 17.8145 14.2008 18.0628 14.7979 18.5596C15.3994 19.0518 15.7002 19.749 15.7002 20.6514C15.7002 21.2894 15.5293 21.8978 15.1875 22.4766C14.8503 23.0553 14.3877 23.6501 13.7998 24.2607L11.5439 26.6533H15.584L15.4609 28H9.60938ZM16.5889 29.292L20.8408 17.8213H22.3311L18.0449 29.292H16.5889ZM26.9316 28.1436C25.8197 28.1436 24.915 27.8405 24.2178 27.2344C23.5205 26.6283 23.1719 25.8285 23.1719 24.835C23.1719 24.516 23.2061 24.2106 23.2744 23.9189C23.3428 23.6273 23.4476 23.3424 23.5889 23.0645C23.7301 22.7865 23.8714 22.5404 24.0127 22.3262C24.154 22.112 24.3363 21.8568 24.5596 21.5605L27.4033 17.9717H29.5225L26.4189 21.8887C26.7516 21.7747 27.0296 21.7178 27.2529 21.7178C28.2327 21.7178 29.0348 22.0117 29.6592 22.5996C30.2835 23.1829 30.5957 23.944 30.5957 24.8828C30.5957 25.8581 30.2539 26.6465 29.5703 27.248C28.8867 27.8451 28.0072 28.1436 26.9316 28.1436ZM26.8496 26.7764C27.4512 26.7764 27.9206 26.6055 28.2578 26.2637C28.5996 25.9173 28.7705 25.4639 28.7705 24.9033C28.7705 24.3154 28.611 23.8529 28.292 23.5156C27.973 23.1738 27.499 23.0029 26.8701 23.0029C26.2321 23.0029 25.7627 23.1738 25.4619 23.5156C25.1611 23.8574 25.0107 24.3245 25.0107 24.917C25.0107 25.4775 25.1702 25.9287 25.4893 26.2705C25.8083 26.6077 26.2617 26.7764 26.8496 26.7764Z" fill="#333333"/>
</svg>
