<svg width="42" height="42" viewBox="0 0 42 42" fill="none" xmlns="http://www.w3.org/2000/svg">
<path d="M40 22C40 33.0457 31.0457 42 20 42C8.9543 42 0 33.0457 0 22C0 10.9543 8.9543 2 20 2C31.0457 2 40 10.9543 40 22ZM2 22C2 31.9411 10.0589 40 20 40C29.9411 40 38 31.9411 38 22C38 12.0589 29.9411 4 20 4C10.0589 4 2 12.0589 2 22Z" fill="#DBB3E8"/>
<path d="M20 3C20 2.44772 20.448 1.99739 20.9996 2.02499C23.811 2.16568 26.565 2.89853 29.0798 4.17987C31.892 5.61276 34.3252 7.69087 36.1803 10.2443C38.0355 12.7977 39.26 15.754 39.7538 18.8713C40.1953 21.659 40.0412 24.5047 39.3063 27.2219C39.1621 27.755 38.5953 28.042 38.0701 27.8713C37.5448 27.7007 37.2602 27.1371 37.4015 26.6031C38.0407 24.1868 38.1705 21.6601 37.7784 19.1842C37.334 16.3786 36.232 13.7179 34.5623 11.4199C32.8927 9.12178 30.7028 7.25148 28.1718 5.96188C25.9383 4.82385 23.4951 4.16655 20.9995 4.02777C20.4481 3.9971 20 3.55228 20 3Z" fill="#DBB3E8" stroke="#B666D2" stroke-width="3"/>
<path d="M9.60938 28.1436C9.02148 28.1436 8.46777 28.0684 7.94824 27.918C7.43327 27.763 7.02539 27.5557 6.72461 27.2959L7.2168 26.0039C7.46745 26.2135 7.8138 26.3867 8.25586 26.5234C8.69792 26.6556 9.15137 26.7217 9.61621 26.7217C10.1403 26.7217 10.5618 26.5804 10.8809 26.2979C11.2044 26.0153 11.3662 25.6462 11.3662 25.1904C11.3662 24.9079 11.3206 24.6641 11.2295 24.459C11.1429 24.2539 11.0267 24.0898 10.8809 23.9668C10.735 23.8438 10.5391 23.7458 10.293 23.6729C10.0514 23.5954 9.80306 23.543 9.54785 23.5156C9.29264 23.4883 8.98503 23.4723 8.625 23.4678C8.61133 23.4678 8.54525 23.4678 8.42676 23.4678C8.30827 23.4632 8.24219 23.4609 8.22852 23.4609V22.0801H8.61133C9.00781 22.0801 9.34733 22.0596 9.62988 22.0186C9.91699 21.9775 10.1813 21.9069 10.4229 21.8066C10.6689 21.7064 10.8535 21.5583 10.9766 21.3623C11.1042 21.1663 11.168 20.9248 11.168 20.6377C11.168 20.2503 11.0221 19.9199 10.7305 19.6465C10.4388 19.373 10.0286 19.2363 9.5 19.2363C8.64323 19.2363 7.87988 19.4505 7.20996 19.8789L6.71777 18.5801C7.5472 18.0697 8.53158 17.8145 9.6709 17.8145C10.6234 17.8145 11.4004 18.0651 12.002 18.5664C12.6081 19.0677 12.9111 19.7103 12.9111 20.4941C12.9111 21.041 12.7699 21.5081 12.4873 21.8955C12.2093 22.2783 11.8037 22.5586 11.2705 22.7363C11.8812 22.8548 12.3529 23.1488 12.6855 23.6182C13.0228 24.0876 13.1914 24.6413 13.1914 25.2793C13.1914 25.8854 13.0296 26.4095 12.7061 26.8516C12.3825 27.2891 11.9541 27.6149 11.4209 27.8291C10.8877 28.0387 10.2839 28.1436 9.60938 28.1436ZM14.0186 29.292L18.2705 17.8213H19.7607L15.4746 29.292H14.0186ZM22.2285 27.9932V19.6602C22.1647 19.7012 21.8685 19.8333 21.3398 20.0566C20.8158 20.2754 20.5195 20.3939 20.4512 20.4121V19.0449C20.5605 18.9948 20.9069 18.8239 21.4902 18.5322C22.0736 18.236 22.3949 18.0674 22.4541 18.0264H23.958V27.9932H22.2285ZM28.3467 26.4072C28.6064 26.6169 28.9186 26.7217 29.2832 26.7217C29.6478 26.7217 29.9577 26.6169 30.2129 26.4072C30.4727 26.1976 30.6686 25.9082 30.8008 25.5391C30.9375 25.1654 31.0355 24.7689 31.0947 24.3496C31.154 23.9258 31.1836 23.4564 31.1836 22.9414C31.1836 20.4714 30.5501 19.2363 29.2832 19.2363C28.0254 19.2363 27.3874 20.4622 27.3691 22.9141C27.3691 23.4336 27.3988 23.9053 27.458 24.3291C27.5173 24.7529 27.6152 25.154 27.752 25.5322C27.8887 25.9059 28.0869 26.1976 28.3467 26.4072ZM30.7393 27.8701C30.3109 28.0524 29.8255 28.1436 29.2832 28.1436C28.7409 28.1436 28.2533 28.0524 27.8203 27.8701C27.3874 27.6833 27.0296 27.4326 26.7471 27.1182C26.4645 26.7992 26.2275 26.4186 26.0361 25.9766C25.8493 25.5345 25.7148 25.0674 25.6328 24.5752C25.5553 24.083 25.5166 23.5566 25.5166 22.9961C25.5166 22.4264 25.5576 21.8932 25.6396 21.3965C25.7217 20.8952 25.8584 20.4235 26.0498 19.9814C26.2412 19.5348 26.4782 19.1543 26.7607 18.8398C27.0479 18.5254 27.4056 18.277 27.834 18.0947C28.2624 17.9079 28.7454 17.8145 29.2832 17.8145C29.821 17.8145 30.304 17.9079 30.7324 18.0947C31.1608 18.277 31.5163 18.5277 31.7988 18.8467C32.0814 19.1611 32.3161 19.5417 32.5029 19.9883C32.6943 20.4303 32.8311 20.8997 32.9131 21.3965C32.9951 21.8932 33.0361 22.4264 33.0361 22.9961C33.0361 23.5566 32.9951 24.083 32.9131 24.5752C32.8356 25.0674 32.7035 25.5368 32.5166 25.9834C32.3298 26.4255 32.0951 26.8037 31.8125 27.1182C31.5299 27.4326 31.1722 27.6833 30.7393 27.8701Z" fill="#333333"/>
</svg>
