<svg width="44" height="44" viewBox="0 0 44 44" fill="none" xmlns="http://www.w3.org/2000/svg">
<path d="M42 22C42 33.0457 33.0457 42 22 42C10.9543 42 2 33.0457 2 22C2 10.9543 10.9543 2 22 2C33.0457 2 42 10.9543 42 22ZM4 22C4 31.9411 12.0589 40 22 40C31.9411 40 40 31.9411 40 22C40 12.0589 31.9411 4 22 4C12.0589 4 4 12.0589 4 22Z" fill="#DBB3E8"/>
<path d="M42 22C42 33.0457 33.0457 42 22 42C10.9543 42 2 33.0457 2 22C2 10.9543 10.9543 2 22 2C33.0457 2 42 10.9543 42 22ZM4 22C4 31.9411 12.0589 40 22 40C31.9411 40 40 31.9411 40 22C40 12.0589 31.9411 4 22 4C12.0589 4 4 12.0589 4 22Z" fill="#B4B4B4" stroke="#B666D2" stroke-width="3"/>
<path d="M14.6992 28.1436C14.1113 28.1436 13.5576 28.0684 13.0381 27.918C12.5231 27.763 12.1152 27.5557 11.8145 27.2959L12.3066 26.0039C12.5573 26.2135 12.9036 26.3867 13.3457 26.5234C13.7878 26.6556 14.2412 26.7217 14.7061 26.7217C15.2301 26.7217 15.6517 26.5804 15.9707 26.2979C16.2943 26.0153 16.4561 25.6462 16.4561 25.1904C16.4561 24.9079 16.4105 24.6641 16.3193 24.459C16.2327 24.2539 16.1165 24.0898 15.9707 23.9668C15.8249 23.8438 15.6289 23.7458 15.3828 23.6729C15.1413 23.5954 14.8929 23.543 14.6377 23.5156C14.3825 23.4883 14.0749 23.4723 13.7148 23.4678C13.7012 23.4678 13.6351 23.4678 13.5166 23.4678C13.3981 23.4632 13.332 23.4609 13.3184 23.4609V22.0801H13.7012C14.0977 22.0801 14.4372 22.0596 14.7197 22.0186C15.0068 21.9775 15.2712 21.9069 15.5127 21.8066C15.7588 21.7064 15.9434 21.5583 16.0664 21.3623C16.194 21.1663 16.2578 20.9248 16.2578 20.6377C16.2578 20.2503 16.112 19.9199 15.8203 19.6465C15.5286 19.373 15.1185 19.2363 14.5898 19.2363C13.7331 19.2363 12.9697 19.4505 12.2998 19.8789L11.8076 18.5801C12.637 18.0697 13.6214 17.8145 14.7607 17.8145C15.7132 17.8145 16.4902 18.0651 17.0918 18.5664C17.6979 19.0677 18.001 19.7103 18.001 20.4941C18.001 21.041 17.8597 21.5081 17.5771 21.8955C17.2992 22.2783 16.8936 22.5586 16.3604 22.7363C16.971 22.8548 17.4427 23.1488 17.7754 23.6182C18.1126 24.0876 18.2812 24.6413 18.2812 25.2793C18.2812 25.8854 18.1195 26.4095 17.7959 26.8516C17.4723 27.2891 17.0439 27.6149 16.5107 27.8291C15.9775 28.0387 15.3737 28.1436 14.6992 28.1436ZM19.1084 29.292L23.3604 17.8213H24.8506L20.5645 29.292H19.1084ZM28.5625 28.1436C27.9746 28.1436 27.4209 28.0684 26.9014 27.918C26.3864 27.763 25.9785 27.5557 25.6777 27.2959L26.1699 26.0039C26.4206 26.2135 26.7669 26.3867 27.209 26.5234C27.651 26.6556 28.1045 26.7217 28.5693 26.7217C29.0934 26.7217 29.515 26.5804 29.834 26.2979C30.1576 26.0153 30.3193 25.6462 30.3193 25.1904C30.3193 24.9079 30.2738 24.6641 30.1826 24.459C30.096 24.2539 29.9798 24.0898 29.834 23.9668C29.6882 23.8438 29.4922 23.7458 29.2461 23.6729C29.0046 23.5954 28.7562 23.543 28.501 23.5156C28.2458 23.4883 27.9382 23.4723 27.5781 23.4678C27.5645 23.4678 27.4984 23.4678 27.3799 23.4678C27.2614 23.4632 27.1953 23.4609 27.1816 23.4609V22.0801H27.5645C27.9609 22.0801 28.3005 22.0596 28.583 22.0186C28.8701 21.9775 29.1344 21.9069 29.376 21.8066C29.6221 21.7064 29.8066 21.5583 29.9297 21.3623C30.0573 21.1663 30.1211 20.9248 30.1211 20.6377C30.1211 20.2503 29.9753 19.9199 29.6836 19.6465C29.3919 19.373 28.9818 19.2363 28.4531 19.2363C27.5964 19.2363 26.833 19.4505 26.1631 19.8789L25.6709 18.5801C26.5003 18.0697 27.4847 17.8145 28.624 17.8145C29.5765 17.8145 30.3535 18.0651 30.9551 18.5664C31.5612 19.0677 31.8643 19.7103 31.8643 20.4941C31.8643 21.041 31.723 21.5081 31.4404 21.8955C31.1624 22.2783 30.7568 22.5586 30.2236 22.7363C30.8343 22.8548 31.306 23.1488 31.6387 23.6182C31.9759 24.0876 32.1445 24.6413 32.1445 25.2793C32.1445 25.8854 31.9827 26.4095 31.6592 26.8516C31.3356 27.2891 30.9072 27.6149 30.374 27.8291C29.8408 28.0387 29.237 28.1436 28.5625 28.1436Z" fill="#333333"/>
</svg>
