<svg width="44" height="46" viewBox="0 0 44 46" fill="none" xmlns="http://www.w3.org/2000/svg">
<path d="M42 23C42 34.598 32.598 44 21 44C9.40202 44 0 34.598 0 23C0 11.402 9.40202 2 21 2C32.598 2 42 11.402 42 23ZM2.1 23C2.1 33.4382 10.5618 41.9 21 41.9C31.4382 41.9 39.9 33.4382 39.9 23C39.9 12.5618 31.4382 4.1 21 4.1C10.5618 4.1 2.1 12.5618 2.1 23Z" fill="#DBB3E8"/>
<path d="M21 3.05C21 2.4701 21.4704 1.99726 22.0496 2.02624C25.0015 2.17396 27.8933 2.94345 30.5338 4.28886C33.4866 5.7934 36.0414 7.97541 37.9894 10.6565C39.9373 13.3376 41.223 16.4417 41.7415 19.7149C42.2599 22.9881 41.9963 26.3375 40.9722 29.4894C39.9481 32.6412 38.1926 35.5059 35.8492 37.8492C33.5059 40.1926 30.6412 41.9481 27.4894 42.9722C24.3375 43.9963 20.9881 44.2599 17.7149 43.7415C14.7878 43.2779 11.9961 42.2007 9.52108 40.5851C9.03549 40.2681 8.93283 39.609 9.27369 39.1399C9.61455 38.6707 10.2697 38.5694 10.7571 38.8837C12.9626 40.306 15.4437 41.2556 18.0434 41.6673C20.9893 42.1339 24.0038 41.8966 26.8404 40.975C29.6771 40.0533 32.2553 38.4733 34.3643 36.3643C36.4733 34.2553 38.0533 31.6771 38.975 28.8404C39.8966 26.0038 40.1339 22.9893 39.6673 20.0434C39.2007 17.0975 38.0436 14.3038 36.2904 11.8909C34.5373 9.47787 32.2379 7.51406 29.5804 6.15998C27.2352 4.96504 24.6698 4.27488 22.0495 4.12916C21.4705 4.09696 21 3.6299 21 3.05Z" fill="#DBB3E8" stroke="#B666D2" stroke-width="3"/>
<path d="M15.0664 28.123C14.5625 28.123 14.0879 28.0586 13.6426 27.9297C13.2012 27.7969 12.8516 27.6191 12.5938 27.3965L13.0156 26.2891C13.2305 26.4688 13.5273 26.6172 13.9062 26.7344C14.2852 26.8477 14.6738 26.9043 15.0723 26.9043C15.5215 26.9043 15.8828 26.7832 16.1562 26.541C16.4336 26.2988 16.5723 25.9824 16.5723 25.5918C16.5723 25.3496 16.5332 25.1406 16.4551 24.9648C16.3809 24.7891 16.2812 24.6484 16.1562 24.543C16.0312 24.4375 15.8633 24.3535 15.6523 24.291C15.4453 24.2246 15.2324 24.1797 15.0137 24.1562C14.7949 24.1328 14.5312 24.1191 14.2227 24.1152C14.2109 24.1152 14.1543 24.1152 14.0527 24.1152C13.9512 24.1113 13.8945 24.1094 13.8828 24.1094V22.9258H14.2109C14.5508 22.9258 14.8418 22.9082 15.084 22.873C15.3301 22.8379 15.5566 22.7773 15.7637 22.6914C15.9746 22.6055 16.1328 22.4785 16.2383 22.3105C16.3477 22.1426 16.4023 21.9355 16.4023 21.6895C16.4023 21.3574 16.2773 21.0742 16.0273 20.8398C15.7773 20.6055 15.4258 20.4883 14.9727 20.4883C14.2383 20.4883 13.584 20.6719 13.0098 21.0391L12.5879 19.9258C13.2988 19.4883 14.1426 19.2695 15.1191 19.2695C15.9355 19.2695 16.6016 19.4844 17.1172 19.9141C17.6367 20.3438 17.8965 20.8945 17.8965 21.5664C17.8965 22.0352 17.7754 22.4355 17.5332 22.7676C17.2949 23.0957 16.9473 23.3359 16.4902 23.4883C17.0137 23.5898 17.418 23.8418 17.7031 24.2441C17.9922 24.6465 18.1367 25.1211 18.1367 25.668C18.1367 26.1875 17.998 26.6367 17.7207 27.0156C17.4434 27.3906 17.0762 27.6699 16.6191 27.8535C16.1621 28.0332 15.6445 28.123 15.0664 28.123ZM18.8457 29.1074L22.4902 19.2754H23.7676L20.0938 29.1074H18.8457ZM27.2832 28.123C26.8965 28.123 26.498 28.0605 26.0879 27.9355C25.6777 27.8066 25.3652 27.6855 25.1504 27.5723C24.9355 27.4551 24.793 27.3652 24.7227 27.3027L25.1914 26.2012C25.2656 26.2598 25.373 26.334 25.5137 26.4238C25.6582 26.5098 25.8887 26.6094 26.2051 26.7227C26.5254 26.8359 26.832 26.8926 27.125 26.8926C27.6719 26.8926 28.0859 26.7402 28.3672 26.4355C28.6484 26.1309 28.7891 25.7324 28.7891 25.2402C28.7891 24.7754 28.6602 24.4023 28.4023 24.1211C28.1484 23.8398 27.8184 23.6992 27.4121 23.6992C26.9277 23.6992 26.4941 23.9102 26.1113 24.332L25.0859 24.1328L25.3086 19.457H29.9727L29.8848 20.6641H26.668C26.668 20.7344 26.6543 21.0879 26.627 21.7246C26.6035 22.3574 26.5898 22.7109 26.5859 22.7852C26.9297 22.6016 27.291 22.5098 27.6699 22.5098C28.459 22.5098 29.0938 22.7637 29.5742 23.2715C30.0586 23.7793 30.3008 24.4414 30.3008 25.2578C30.3008 26.125 30.0352 26.8203 29.5039 27.3438C28.9766 27.8633 28.2363 28.123 27.2832 28.123Z" fill="#333333"/>
</svg>
