<svg width="42" height="44" viewBox="0 0 42 44" fill="none" xmlns="http://www.w3.org/2000/svg">
<path d="M40 22C40 33.0457 31.0457 42 20 42C8.9543 42 0 33.0457 0 22C0 10.9543 8.9543 2 20 2C31.0457 2 40 10.9543 40 22ZM2 22C2 31.9411 10.0589 40 20 40C29.9411 40 38 31.9411 38 22C38 12.0589 29.9411 4 20 4C10.0589 4 2 12.0589 2 22Z" fill="#DBB3E8"/>
<path d="M20 3C20 2.44772 20.448 1.99739 20.9996 2.02497C25.9185 2.27094 30.5876 4.32547 34.0976 7.81351C37.8447 11.5371 39.9664 16.5919 39.9996 21.8743C40.0328 27.1568 37.9748 32.2379 34.2748 36.0082C30.8089 39.5401 26.1659 41.6531 21.2505 41.9609C20.6993 41.9954 20.2457 41.5507 20.2388 40.9985C20.2318 40.4463 20.6744 39.9958 21.2254 39.9583C25.6122 39.6591 29.7515 37.7622 32.8473 34.6074C36.1773 31.2141 38.0295 26.6411 37.9996 21.8869C37.9698 17.1327 36.0602 12.5834 32.6879 9.23216C29.5526 6.11655 25.3898 4.27176 20.9996 4.02775C20.4482 3.9971 20 3.55228 20 3Z" fill="#B4B4B4" stroke="#B666D2" stroke-width="3"/>
<path d="M11.7617 28.1436C11.1738 28.1436 10.6201 28.0684 10.1006 27.918C9.58561 27.763 9.17773 27.5557 8.87695 27.2959L9.36914 26.0039C9.61979 26.2135 9.96615 26.3867 10.4082 26.5234C10.8503 26.6556 11.3037 26.7217 11.7686 26.7217C12.2926 26.7217 12.7142 26.5804 13.0332 26.2979C13.3568 26.0153 13.5186 25.6462 13.5186 25.1904C13.5186 24.9079 13.473 24.6641 13.3818 24.459C13.2952 24.2539 13.179 24.0898 13.0332 23.9668C12.8874 23.8438 12.6914 23.7458 12.4453 23.6729C12.2038 23.5954 11.9554 23.543 11.7002 23.5156C11.445 23.4883 11.1374 23.4723 10.7773 23.4678C10.7637 23.4678 10.6976 23.4678 10.5791 23.4678C10.4606 23.4632 10.3945 23.4609 10.3809 23.4609V22.0801H10.7637C11.1602 22.0801 11.4997 22.0596 11.7822 22.0186C12.0693 21.9775 12.3337 21.9069 12.5752 21.8066C12.8213 21.7064 13.0059 21.5583 13.1289 21.3623C13.2565 21.1663 13.3203 20.9248 13.3203 20.6377C13.3203 20.2503 13.1745 19.9199 12.8828 19.6465C12.5911 19.373 12.181 19.2363 11.6523 19.2363C10.7956 19.2363 10.0322 19.4505 9.3623 19.8789L8.87012 18.5801C9.69954 18.0697 10.6839 17.8145 11.8232 17.8145C12.7757 17.8145 13.5527 18.0651 14.1543 18.5664C14.7604 19.0677 15.0635 19.7103 15.0635 20.4941C15.0635 21.041 14.9222 21.5081 14.6396 21.8955C14.3617 22.2783 13.9561 22.5586 13.4229 22.7363C14.0335 22.8548 14.5052 23.1488 14.8379 23.6182C15.1751 24.0876 15.3438 24.6413 15.3438 25.2793C15.3438 25.8854 15.182 26.4095 14.8584 26.8516C14.5348 27.2891 14.1064 27.6149 13.5732 27.8291C13.04 28.0387 12.4362 28.1436 11.7617 28.1436ZM16.1709 29.292L20.4229 17.8213H21.9131L17.627 29.292H16.1709ZM26.5137 28.1436C25.4017 28.1436 24.4971 27.8405 23.7998 27.2344C23.1025 26.6283 22.7539 25.8285 22.7539 24.835C22.7539 24.516 22.7881 24.2106 22.8564 23.9189C22.9248 23.6273 23.0296 23.3424 23.1709 23.0645C23.3122 22.7865 23.4535 22.5404 23.5947 22.3262C23.736 22.112 23.9183 21.8568 24.1416 21.5605L26.9854 17.9717H29.1045L26.001 21.8887C26.3337 21.7747 26.6117 21.7178 26.835 21.7178C27.8148 21.7178 28.6169 22.0117 29.2412 22.5996C29.8656 23.1829 30.1777 23.944 30.1777 24.8828C30.1777 25.8581 29.8359 26.6465 29.1523 27.248C28.4688 27.8451 27.5892 28.1436 26.5137 28.1436ZM26.4316 26.7764C27.0332 26.7764 27.5026 26.6055 27.8398 26.2637C28.1816 25.9173 28.3525 25.4639 28.3525 24.9033C28.3525 24.3154 28.193 23.8529 27.874 23.5156C27.555 23.1738 27.0811 23.0029 26.4521 23.0029C25.8141 23.0029 25.3447 23.1738 25.0439 23.5156C24.7432 23.8574 24.5928 24.3245 24.5928 24.917C24.5928 25.4775 24.7523 25.9287 25.0713 26.2705C25.3903 26.6077 25.8438 26.7764 26.4316 26.7764Z" fill="#333333"/>
</svg>
