<svg width="42" height="42" viewBox="0 0 42 42" fill="none" xmlns="http://www.w3.org/2000/svg">
<path d="M40 22C40 33.0457 31.0457 42 20 42C8.9543 42 0 33.0457 0 22C0 10.9543 8.9543 2 20 2C31.0457 2 40 10.9543 40 22ZM2 22C2 31.9411 10.0589 40 20 40C29.9411 40 38 31.9411 38 22C38 12.0589 29.9411 4 20 4C10.0589 4 2 12.0589 2 22Z" fill="#DBB3E8"/>
<path d="M20 3C20 2.44772 20.4481 1.99739 20.9997 2.02499C24.8701 2.21864 28.609 3.53342 31.7557 5.81966C35.1727 8.30222 37.716 11.8028 39.0211 15.8197C40.3263 19.8365 40.3263 24.1635 39.0211 28.1803C37.8192 31.8796 35.5672 35.1409 32.5498 37.5725C32.1197 37.9191 31.4925 37.8181 31.1679 37.3713C30.8433 36.9245 30.9444 36.3013 31.3725 35.9523C34.0491 33.7707 36.0476 30.8598 37.119 27.5623C38.2937 23.9471 38.2937 20.0529 37.119 16.4377C35.9444 12.8225 33.6554 9.672 30.5801 7.43769C27.7751 5.39974 24.4473 4.21947 20.9995 4.02776C20.4481 3.9971 20 3.55228 20 3Z" fill="#DBB3E8" stroke="#B666D2" stroke-width="3"/>
<path d="M11.3398 28V25.7783H6.82129V24.5615L10.875 18.0332H13.1514V24.4248H14.3818L14.293 25.7783H13.1514V28H11.3398ZM8.59863 24.4316H11.3398V19.7832L8.59863 24.4316ZM15.1201 29.292L19.3721 17.8213H20.8623L16.5762 29.292H15.1201ZM23.3301 27.9932V19.6602C23.2663 19.7012 22.9701 19.8333 22.4414 20.0566C21.9173 20.2754 21.6211 20.3939 21.5527 20.4121V19.0449C21.6621 18.9948 22.0085 18.8239 22.5918 18.5322C23.1751 18.236 23.4964 18.0674 23.5557 18.0264H25.0596V27.9932H23.3301ZM29.4482 26.4072C29.708 26.6169 30.0202 26.7217 30.3848 26.7217C30.7493 26.7217 31.0592 26.6169 31.3145 26.4072C31.5742 26.1976 31.7702 25.9082 31.9023 25.5391C32.0391 25.1654 32.137 24.7689 32.1963 24.3496C32.2555 23.9258 32.2852 23.4564 32.2852 22.9414C32.2852 20.4714 31.6517 19.2363 30.3848 19.2363C29.127 19.2363 28.4889 20.4622 28.4707 22.9141C28.4707 23.4336 28.5003 23.9053 28.5596 24.3291C28.6188 24.7529 28.7168 25.154 28.8535 25.5322C28.9902 25.9059 29.1885 26.1976 29.4482 26.4072ZM31.8408 27.8701C31.4124 28.0524 30.9271 28.1436 30.3848 28.1436C29.8424 28.1436 29.3548 28.0524 28.9219 27.8701C28.4889 27.6833 28.1312 27.4326 27.8486 27.1182C27.5661 26.7992 27.3291 26.4186 27.1377 25.9766C26.9508 25.5345 26.8164 25.0674 26.7344 24.5752C26.6569 24.083 26.6182 23.5566 26.6182 22.9961C26.6182 22.4264 26.6592 21.8932 26.7412 21.3965C26.8232 20.8952 26.96 20.4235 27.1514 19.9814C27.3428 19.5348 27.5798 19.1543 27.8623 18.8398C28.1494 18.5254 28.5072 18.277 28.9355 18.0947C29.3639 17.9079 29.847 17.8145 30.3848 17.8145C30.9225 17.8145 31.4056 17.9079 31.834 18.0947C32.2624 18.277 32.6178 18.5277 32.9004 18.8467C33.1829 19.1611 33.4176 19.5417 33.6045 19.9883C33.7959 20.4303 33.9326 20.8997 34.0146 21.3965C34.0967 21.8932 34.1377 22.4264 34.1377 22.9961C34.1377 23.5566 34.0967 24.083 34.0146 24.5752C33.9372 25.0674 33.805 25.5368 33.6182 25.9834C33.4313 26.4255 33.1966 26.8037 32.9141 27.1182C32.6315 27.4326 32.2738 27.6833 31.8408 27.8701Z" fill="#333333"/>
</svg>
