<svg width="46" height="46" viewBox="0 0 46 46" fill="none" xmlns="http://www.w3.org/2000/svg">
<path d="M44 23C44 34.598 34.598 44 23 44C11.402 44 2 34.598 2 23C2 11.402 11.402 2 23 2C34.598 2 44 11.402 44 23ZM4.1 23C4.1 33.4382 12.5618 41.9 23 41.9C33.4382 41.9 41.9 33.4382 41.9 23C41.9 12.5618 33.4382 4.1 23 4.1C12.5618 4.1 4.1 12.5618 4.1 23Z" fill="#DBB3E8"/>
<path d="M23 3.05C23 2.4701 23.4705 1.99726 24.0496 2.02624C28.1136 2.22957 32.0394 3.61009 35.3435 6.01064C38.9313 8.61733 41.6018 12.2929 42.9722 16.5106C44.3426 20.7284 44.3426 25.2716 42.9722 29.4894C41.6018 33.7071 38.9313 37.3827 35.3435 39.9894C31.7557 42.596 27.4348 44 23 44C18.5652 44 14.2443 42.596 10.6565 39.9894C7.06871 37.3827 4.39823 33.7071 3.02781 29.4894C1.76577 25.6052 1.66597 21.4449 2.72841 17.517C2.87983 16.9572 3.47491 16.6559 4.02642 16.8351C4.57794 17.0143 4.87674 17.6061 4.72844 18.1667C3.80118 21.6719 3.90005 25.3781 5.02503 28.8404C6.25841 32.6364 8.66184 35.9444 11.8909 38.2904C15.1199 40.6364 19.0087 41.9 23 41.9C26.9913 41.9 30.8801 40.6364 34.1091 38.2904C37.3382 35.9444 39.7416 32.6364 40.975 28.8404C42.2083 25.0445 42.2083 20.9555 40.975 17.1596C39.7416 13.3636 37.3382 10.0556 34.1091 7.70958C31.1639 5.56973 27.6697 4.33044 24.0495 4.12915C23.4705 4.09696 23 3.6299 23 3.05Z" fill="#DBB3E8" stroke="#B666D2" stroke-width="3"/>
<path d="M17.6211 28V26.0957H13.748V25.0527L17.2227 19.457H19.1738V24.9355H20.2285L20.1523 26.0957H19.1738V28H17.6211ZM15.2715 24.9414H17.6211V20.957L15.2715 24.9414ZM20.8613 29.1074L24.5059 19.2754H25.7832L22.1094 29.1074H20.8613ZM29.2988 28.123C28.9121 28.123 28.5137 28.0605 28.1035 27.9355C27.6934 27.8066 27.3809 27.6855 27.166 27.5723C26.9512 27.4551 26.8086 27.3652 26.7383 27.3027L27.207 26.2012C27.2812 26.2598 27.3887 26.334 27.5293 26.4238C27.6738 26.5098 27.9043 26.6094 28.2207 26.7227C28.541 26.8359 28.8477 26.8926 29.1406 26.8926C29.6875 26.8926 30.1016 26.7402 30.3828 26.4355C30.6641 26.1309 30.8047 25.7324 30.8047 25.2402C30.8047 24.7754 30.6758 24.4023 30.418 24.1211C30.1641 23.8398 29.834 23.6992 29.4277 23.6992C28.9434 23.6992 28.5098 23.9102 28.127 24.332L27.1016 24.1328L27.3242 19.457H31.9883L31.9004 20.6641H28.6836C28.6836 20.7344 28.6699 21.0879 28.6426 21.7246C28.6191 22.3574 28.6055 22.7109 28.6016 22.7852C28.9453 22.6016 29.3066 22.5098 29.6855 22.5098C30.4746 22.5098 31.1094 22.7637 31.5898 23.2715C32.0742 23.7793 32.3164 24.4414 32.3164 25.2578C32.3164 26.125 32.0508 26.8203 31.5195 27.3438C30.9922 27.8633 30.252 28.123 29.2988 28.123Z" fill="#333333"/>
</svg>
