<svg width="42" height="44" viewBox="0 0 42 44" fill="none" xmlns="http://www.w3.org/2000/svg">
<path d="M40 22C40 33.0457 31.0457 42 20 42C8.9543 42 0 33.0457 0 22C0 10.9543 8.9543 2 20 2C31.0457 2 40 10.9543 40 22ZM2 22C2 31.9411 10.0589 40 20 40C29.9411 40 38 31.9411 38 22C38 12.0589 29.9411 4 20 4C10.0589 4 2 12.0589 2 22Z" fill="#DBB3E8"/>
<path d="M20 3C20 2.44772 20.448 1.99739 20.9996 2.02499C24.1489 2.18257 27.2214 3.08299 29.9637 4.65859C32.9954 6.40051 35.5175 8.9068 37.2785 11.9275C39.0394 14.9483 39.9776 18.3779 39.9996 21.8743C40.0216 25.3708 39.1265 28.8119 37.4037 31.8545C35.6808 34.8972 33.1904 37.435 30.1808 39.2148C27.1712 40.9947 23.7476 41.9545 20.2513 41.9984C16.7551 42.0424 13.3084 41.1689 10.255 39.4652C7.49315 37.9242 5.14038 35.7527 3.38513 33.1331C3.0777 32.6743 3.23339 32.0585 3.70699 31.7743C4.18059 31.4902 4.79255 31.6457 5.10253 32.1027C6.67616 34.4232 8.77304 36.3481 11.2295 37.7187C13.9775 39.252 17.0796 40.0381 20.2262 39.9986C23.3728 39.959 26.4541 39.0952 29.1627 37.4934C31.8714 35.8915 34.1128 33.6075 35.6633 30.8691C37.2139 28.1307 38.0194 25.0337 37.9996 21.8869C37.9799 18.7401 37.1355 15.6534 35.5506 12.9348C33.9658 10.2161 31.6959 7.96045 28.9673 6.39273C26.5283 4.99135 23.799 4.18345 20.9995 4.02777C20.4481 3.9971 20 3.55228 20 3Z" fill="#B4B4B4" stroke="#B666D2" stroke-width="3"/>
<path d="M13.4922 28V25.7783H8.97363V24.5615L13.0273 18.0332H15.3037V24.4248H16.5342L16.4453 25.7783H15.3037V28H13.4922ZM10.751 24.4316H13.4922V19.7832L10.751 24.4316ZM17.2725 29.292L21.5244 17.8213H23.0146L18.7285 29.292H17.2725ZM27.6152 28.1436C26.5033 28.1436 25.5986 27.8405 24.9014 27.2344C24.2041 26.6283 23.8555 25.8285 23.8555 24.835C23.8555 24.516 23.8896 24.2106 23.958 23.9189C24.0264 23.6273 24.1312 23.3424 24.2725 23.0645C24.4137 22.7865 24.555 22.5404 24.6963 22.3262C24.8376 22.112 25.0199 21.8568 25.2432 21.5605L28.0869 17.9717H30.2061L27.1025 21.8887C27.4352 21.7747 27.7132 21.7178 27.9365 21.7178C28.9163 21.7178 29.7184 22.0117 30.3428 22.5996C30.9671 23.1829 31.2793 23.944 31.2793 24.8828C31.2793 25.8581 30.9375 26.6465 30.2539 27.248C29.5703 27.8451 28.6908 28.1436 27.6152 28.1436ZM27.5332 26.7764C28.1348 26.7764 28.6042 26.6055 28.9414 26.2637C29.2832 25.9173 29.4541 25.4639 29.4541 24.9033C29.4541 24.3154 29.2946 23.8529 28.9756 23.5156C28.6566 23.1738 28.1826 23.0029 27.5537 23.0029C26.9157 23.0029 26.4463 23.1738 26.1455 23.5156C25.8447 23.8574 25.6943 24.3245 25.6943 24.917C25.6943 25.4775 25.8538 25.9287 26.1729 26.2705C26.4919 26.6077 26.9453 26.7764 27.5332 26.7764Z" fill="#333333"/>
</svg>
