<svg width="42" height="44" viewBox="0 0 42 44" fill="none" xmlns="http://www.w3.org/2000/svg">
<path d="M40 22C40 33.0457 31.0457 42 20 42C8.9543 42 0 33.0457 0 22C0 10.9543 8.9543 2 20 2C31.0457 2 40 10.9543 40 22ZM2 22C2 31.9411 10.0589 40 20 40C29.9411 40 38 31.9411 38 22C38 12.0589 29.9411 4 20 4C10.0589 4 2 12.0589 2 22Z" fill="#DBB3E8"/>
<path d="M20 3C20 2.44772 20.448 1.99739 20.9996 2.02499C23.2845 2.13933 25.5355 2.64502 27.6537 3.52241C30.0802 4.5275 32.285 6.00069 34.1421 7.85787C35.9993 9.71504 37.4725 11.9198 38.4776 14.3463C39.4827 16.7728 40 19.3736 40 22C40 24.6264 39.4827 27.2272 38.4776 29.6537C37.4725 32.0802 35.9993 34.285 34.1421 36.1421C32.285 37.9993 30.0802 39.4725 27.6537 40.4776C25.5355 41.355 23.2845 41.8607 20.9996 41.975C20.448 42.0026 20 41.5523 20 41C20 40.4477 20.4481 40.0029 20.9995 39.9722C23.0216 39.8598 25.0128 39.4067 26.8883 38.6298C29.0722 37.7253 31.0565 36.3994 32.7279 34.7279C34.3994 33.0565 35.7252 31.0722 36.6298 28.8883C37.5344 26.7044 38 24.3638 38 22C38 19.6362 37.5344 17.2956 36.6298 15.1117C35.7252 12.9278 34.3994 10.9435 32.7279 9.27208C31.0565 7.60062 29.0722 6.27475 26.8883 5.37017C25.0128 4.59331 23.0216 4.14023 20.9995 4.02777C20.4481 3.9971 20 3.55228 20 3Z" fill="#DBB3E8" stroke="#B666D2" stroke-width="3"/>
<path d="M9.79395 28.1436C9.34277 28.1436 8.87793 28.0706 8.39941 27.9248C7.9209 27.7744 7.55632 27.6331 7.30566 27.501C7.05501 27.3643 6.88867 27.2594 6.80664 27.1865L7.35352 25.9014C7.4401 25.9697 7.56543 26.0563 7.72949 26.1611C7.89811 26.2614 8.16699 26.3776 8.53613 26.5098C8.90983 26.6419 9.26758 26.708 9.60938 26.708C10.2474 26.708 10.7305 26.5303 11.0586 26.1748C11.3867 25.8193 11.5508 25.3545 11.5508 24.7803C11.5508 24.238 11.4004 23.8027 11.0996 23.4746C10.8034 23.1465 10.4183 22.9824 9.94434 22.9824C9.37923 22.9824 8.87337 23.2285 8.42676 23.7207L7.23047 23.4883L7.49023 18.0332H12.9316L12.8291 19.4414H9.07617C9.07617 19.5234 9.06022 19.9359 9.02832 20.6787C9.00098 21.417 8.98503 21.8294 8.98047 21.916C9.38151 21.7018 9.80306 21.5947 10.2451 21.5947C11.1657 21.5947 11.9062 21.891 12.4668 22.4834C13.0319 23.0758 13.3145 23.8483 13.3145 24.8008C13.3145 25.8125 13.0046 26.6237 12.3848 27.2344C11.7695 27.8405 10.9059 28.1436 9.79395 28.1436ZM14.2236 29.292L18.4756 17.8213H19.9658L15.6797 29.292H14.2236ZM22.4336 27.9932V19.6602C22.3698 19.7012 22.0736 19.8333 21.5449 20.0566C21.0208 20.2754 20.7246 20.3939 20.6562 20.4121V19.0449C20.7656 18.9948 21.112 18.8239 21.6953 18.5322C22.2786 18.236 22.5999 18.0674 22.6592 18.0264H24.1631V27.9932H22.4336ZM28.5518 26.4072C28.8115 26.6169 29.1237 26.7217 29.4883 26.7217C29.8529 26.7217 30.1628 26.6169 30.418 26.4072C30.6777 26.1976 30.8737 25.9082 31.0059 25.5391C31.1426 25.1654 31.2406 24.7689 31.2998 24.3496C31.359 23.9258 31.3887 23.4564 31.3887 22.9414C31.3887 20.4714 30.7552 19.2363 29.4883 19.2363C28.2305 19.2363 27.5924 20.4622 27.5742 22.9141C27.5742 23.4336 27.6038 23.9053 27.6631 24.3291C27.7223 24.7529 27.8203 25.154 27.957 25.5322C28.0938 25.9059 28.292 26.1976 28.5518 26.4072ZM30.9443 27.8701C30.516 28.0524 30.0306 28.1436 29.4883 28.1436C28.946 28.1436 28.4583 28.0524 28.0254 27.8701C27.5924 27.6833 27.2347 27.4326 26.9521 27.1182C26.6696 26.7992 26.4326 26.4186 26.2412 25.9766C26.0544 25.5345 25.9199 25.0674 25.8379 24.5752C25.7604 24.083 25.7217 23.5566 25.7217 22.9961C25.7217 22.4264 25.7627 21.8932 25.8447 21.3965C25.9268 20.8952 26.0635 20.4235 26.2549 19.9814C26.4463 19.5348 26.6833 19.1543 26.9658 18.8398C27.2529 18.5254 27.6107 18.277 28.0391 18.0947C28.4674 17.9079 28.9505 17.8145 29.4883 17.8145C30.026 17.8145 30.5091 17.9079 30.9375 18.0947C31.3659 18.277 31.7214 18.5277 32.0039 18.8467C32.2865 19.1611 32.5212 19.5417 32.708 19.9883C32.8994 20.4303 33.0361 20.8997 33.1182 21.3965C33.2002 21.8932 33.2412 22.4264 33.2412 22.9961C33.2412 23.5566 33.2002 24.083 33.1182 24.5752C33.0407 25.0674 32.9085 25.5368 32.7217 25.9834C32.5348 26.4255 32.3001 26.8037 32.0176 27.1182C31.735 27.4326 31.3773 27.6833 30.9443 27.8701Z" fill="#333333"/>
</svg>
