<svg width="46" height="46" viewBox="0 0 46 46" fill="none" xmlns="http://www.w3.org/2000/svg">
<path d="M44 23C44 34.598 34.598 44 23 44C11.402 44 2 34.598 2 23C2 11.402 11.402 2 23 2C34.598 2 44 11.402 44 23ZM4.1 23C4.1 33.4382 12.5618 41.9 23 41.9C33.4382 41.9 41.9 33.4382 41.9 23C41.9 12.5618 33.4382 4.1 23 4.1C12.5618 4.1 4.1 12.5618 4.1 23Z" fill="#DBB3E8"/>
<path d="M44 23C44 34.598 34.598 44 23 44C11.402 44 2 34.598 2 23C2 11.402 11.402 2 23 2C34.598 2 44 11.402 44 23ZM4.1 23C4.1 33.4382 12.5618 41.9 23 41.9C33.4382 41.9 41.9 33.4382 41.9 23C41.9 12.5618 33.4382 4.1 23 4.1C12.5618 4.1 4.1 12.5618 4.1 23Z" fill="#DBB3E8" stroke="#B666D2" stroke-width="3"/>
<path d="M17.2246 28.123C16.8379 28.123 16.4395 28.0605 16.0293 27.9355C15.6191 27.8066 15.3066 27.6855 15.0918 27.5723C14.877 27.4551 14.7344 27.3652 14.6641 27.3027L15.1328 26.2012C15.207 26.2598 15.3145 26.334 15.4551 26.4238C15.5996 26.5098 15.8301 26.6094 16.1465 26.7227C16.4668 26.8359 16.7734 26.8926 17.0664 26.8926C17.6133 26.8926 18.0273 26.7402 18.3086 26.4355C18.5898 26.1309 18.7305 25.7324 18.7305 25.2402C18.7305 24.7754 18.6016 24.4023 18.3438 24.1211C18.0898 23.8398 17.7598 23.6992 17.3535 23.6992C16.8691 23.6992 16.4355 23.9102 16.0527 24.332L15.0273 24.1328L15.25 19.457H19.9141L19.8262 20.6641H16.6094C16.6094 20.7344 16.5957 21.0879 16.5684 21.7246C16.5449 22.3574 16.5312 22.7109 16.5273 22.7852C16.8711 22.6016 17.2324 22.5098 17.6113 22.5098C18.4004 22.5098 19.0352 22.7637 19.5156 23.2715C20 23.7793 20.2422 24.4414 20.2422 25.2578C20.2422 26.125 19.9766 26.8203 19.4453 27.3438C18.918 27.8633 18.1777 28.123 17.2246 28.123ZM21.0215 29.1074L24.666 19.2754H25.9434L22.2695 29.1074H21.0215ZM29.459 28.123C29.0723 28.123 28.6738 28.0605 28.2637 27.9355C27.8535 27.8066 27.541 27.6855 27.3262 27.5723C27.1113 27.4551 26.9688 27.3652 26.8984 27.3027L27.3672 26.2012C27.4414 26.2598 27.5488 26.334 27.6895 26.4238C27.834 26.5098 28.0645 26.6094 28.3809 26.7227C28.7012 26.8359 29.0078 26.8926 29.3008 26.8926C29.8477 26.8926 30.2617 26.7402 30.543 26.4355C30.8242 26.1309 30.9648 25.7324 30.9648 25.2402C30.9648 24.7754 30.8359 24.4023 30.5781 24.1211C30.3242 23.8398 29.9941 23.6992 29.5879 23.6992C29.1035 23.6992 28.6699 23.9102 28.2871 24.332L27.2617 24.1328L27.4844 19.457H32.1484L32.0605 20.6641H28.8438C28.8438 20.7344 28.8301 21.0879 28.8027 21.7246C28.7793 22.3574 28.7656 22.7109 28.7617 22.7852C29.1055 22.6016 29.4668 22.5098 29.8457 22.5098C30.6348 22.5098 31.2695 22.7637 31.75 23.2715C32.2344 23.7793 32.4766 24.4414 32.4766 25.2578C32.4766 26.125 32.2109 26.8203 31.6797 27.3438C31.1523 27.8633 30.4121 28.123 29.459 28.123Z" fill="#333333"/>
</svg>
