<svg width="44" height="44" viewBox="0 0 44 44" fill="none" xmlns="http://www.w3.org/2000/svg">
<path d="M42 22C42 33.0457 33.0457 42 22 42C10.9543 42 2 33.0457 2 22C2 10.9543 10.9543 2 22 2C33.0457 2 42 10.9543 42 22ZM4 22C4 31.9411 12.0589 40 22 40C31.9411 40 40 31.9411 40 22C40 12.0589 31.9411 4 22 4C12.0589 4 4 12.0589 4 22Z" fill="#DBB3E8"/>
<path d="M22 3C22 2.44772 22.4481 1.99739 22.9997 2.02499C27.0298 2.22662 30.9135 3.64361 34.1336 6.10111C37.6193 8.76127 40.1341 12.4932 41.2911 16.7225C42.4482 20.9519 42.1832 25.4443 40.5371 29.5083C38.891 33.5724 35.955 36.9828 32.1808 39.2148C28.4067 41.4469 24.0036 42.3767 19.6493 41.8614C15.2949 41.346 11.2306 39.4139 8.08174 36.3625C4.93293 33.3111 2.87416 29.3095 2.22227 24.9734C1.62004 20.9677 2.24934 16.8817 4.01417 13.253C4.25572 12.7563 4.8662 12.5806 5.35018 12.8467C5.83415 13.1127 6.00806 13.7197 5.76927 14.2177C4.2141 17.4611 3.66301 21.1041 4.20004 24.6761C4.78675 28.5785 6.63964 32.18 9.47357 34.9263C12.3075 37.6725 15.9654 39.4114 19.8843 39.8752C23.8033 40.3391 27.766 39.5022 31.1627 37.4934C34.5595 35.4845 37.2019 32.4151 38.6834 28.7575C40.1649 25.0998 40.4034 21.0567 39.362 17.2503C38.3207 13.4439 36.0574 10.0851 32.9203 7.691C30.0488 5.49955 26.5909 4.22745 22.9996 4.02776C22.4481 3.9971 22 3.55228 22 3Z" fill="#B4B4B4" stroke="#B666D2" stroke-width="3"/>
<path d="M13.9463 28.1436C13.4951 28.1436 13.0303 28.0706 12.5518 27.9248C12.0732 27.7744 11.7087 27.6331 11.458 27.501C11.2074 27.3643 11.041 27.2594 10.959 27.1865L11.5059 25.9014C11.5924 25.9697 11.7178 26.0563 11.8818 26.1611C12.0505 26.2614 12.3193 26.3776 12.6885 26.5098C13.0622 26.6419 13.4199 26.708 13.7617 26.708C14.3997 26.708 14.8828 26.5303 15.2109 26.1748C15.5391 25.8193 15.7031 25.3545 15.7031 24.7803C15.7031 24.238 15.5527 23.8027 15.252 23.4746C14.9557 23.1465 14.5706 22.9824 14.0967 22.9824C13.5316 22.9824 13.0257 23.2285 12.5791 23.7207L11.3828 23.4883L11.6426 18.0332H17.084L16.9814 19.4414H13.2285C13.2285 19.5234 13.2126 19.9359 13.1807 20.6787C13.1533 21.417 13.1374 21.8294 13.1328 21.916C13.5339 21.7018 13.9554 21.5947 14.3975 21.5947C15.318 21.5947 16.0586 21.891 16.6191 22.4834C17.1842 23.0758 17.4668 23.8483 17.4668 24.8008C17.4668 25.8125 17.1569 26.6237 16.5371 27.2344C15.9219 27.8405 15.0583 28.1436 13.9463 28.1436ZM18.376 29.292L22.6279 17.8213H24.1182L19.832 29.292H18.376ZM28.7188 28.1436C27.6068 28.1436 26.7021 27.8405 26.0049 27.2344C25.3076 26.6283 24.959 25.8285 24.959 24.835C24.959 24.516 24.9932 24.2106 25.0615 23.9189C25.1299 23.6273 25.2347 23.3424 25.376 23.0645C25.5173 22.7865 25.6585 22.5404 25.7998 22.3262C25.9411 22.112 26.1234 21.8568 26.3467 21.5605L29.1904 17.9717H31.3096L28.2061 21.8887C28.5387 21.7747 28.8167 21.7178 29.04 21.7178C30.0199 21.7178 30.8219 22.0117 31.4463 22.5996C32.0706 23.1829 32.3828 23.944 32.3828 24.8828C32.3828 25.8581 32.041 26.6465 31.3574 27.248C30.6738 27.8451 29.7943 28.1436 28.7188 28.1436ZM28.6367 26.7764C29.2383 26.7764 29.7077 26.6055 30.0449 26.2637C30.3867 25.9173 30.5576 25.4639 30.5576 24.9033C30.5576 24.3154 30.3981 23.8529 30.0791 23.5156C29.7601 23.1738 29.2861 23.0029 28.6572 23.0029C28.0192 23.0029 27.5498 23.1738 27.249 23.5156C26.9482 23.8574 26.7979 24.3245 26.7979 24.917C26.7979 25.4775 26.9574 25.9287 27.2764 26.2705C27.5954 26.6077 28.0488 26.7764 28.6367 26.7764Z" fill="#333333"/>
</svg>
