<svg width="42" height="44" viewBox="0 0 42 44" fill="none" xmlns="http://www.w3.org/2000/svg">
<path d="M40 22C40 33.0457 31.0457 42 20 42C8.9543 42 0 33.0457 0 22C0 10.9543 8.9543 2 20 2C31.0457 2 40 10.9543 40 22ZM2 22C2 31.9411 10.0589 40 20 40C29.9411 40 38 31.9411 38 22C38 12.0589 29.9411 4 20 4C10.0589 4 2 12.0589 2 22Z" fill="#DBB3E8"/>
<path d="M20 3C20 2.44772 20.448 1.99739 20.9996 2.02499C23.811 2.16568 26.565 2.89853 29.0798 4.17987C31.892 5.61276 34.3252 7.69087 36.1803 10.2443C38.0355 12.7977 39.26 15.754 39.7538 18.8713C40.2475 21.9887 39.9965 25.1786 39.0211 28.1803C38.0458 31.1821 36.3739 33.9104 34.1421 36.1421C31.9104 38.3739 29.1821 40.0458 26.1803 41.0211C23.1786 41.9965 19.9887 42.2475 16.8713 41.7538C14.0837 41.3122 11.4248 40.2864 9.0677 38.7477C8.60522 38.4458 8.50746 37.8181 8.83209 37.3713C9.15671 36.9245 9.78067 36.828 10.2448 37.1273C12.3454 38.4819 14.7083 39.3863 17.1842 39.7784C19.9898 40.2228 22.8608 39.9968 25.5623 39.119C28.2639 38.2412 30.7193 36.7365 32.7279 34.7279C34.7365 32.7193 36.2412 30.2639 37.119 27.5623C37.9968 24.8607 38.2228 21.9898 37.7784 19.1842C37.334 16.3786 36.232 13.7179 34.5623 11.4199C32.8927 9.12178 30.7028 7.25148 28.1718 5.96188C25.9383 4.82385 23.4951 4.16655 20.9995 4.02777C20.4481 3.9971 20 3.55228 20 3Z" fill="#DBB3E8" stroke="#B666D2" stroke-width="3"/>
<path d="M10.5605 28.1436C9.44857 28.1436 8.54395 27.8405 7.84668 27.2344C7.14941 26.6283 6.80078 25.8285 6.80078 24.835C6.80078 24.516 6.83496 24.2106 6.90332 23.9189C6.97168 23.6273 7.0765 23.3424 7.21777 23.0645C7.35905 22.7865 7.50033 22.5404 7.6416 22.3262C7.78288 22.112 7.96517 21.8568 8.18848 21.5605L11.0322 17.9717H13.1514L10.0479 21.8887C10.3805 21.7747 10.6585 21.7178 10.8818 21.7178C11.8617 21.7178 12.6637 22.0117 13.2881 22.5996C13.9124 23.1829 14.2246 23.944 14.2246 24.8828C14.2246 25.8581 13.8828 26.6465 13.1992 27.248C12.5156 27.8451 11.6361 28.1436 10.5605 28.1436ZM10.4785 26.7764C11.0801 26.7764 11.5495 26.6055 11.8867 26.2637C12.2285 25.9173 12.3994 25.4639 12.3994 24.9033C12.3994 24.3154 12.2399 23.8529 11.9209 23.5156C11.6019 23.1738 11.1279 23.0029 10.499 23.0029C9.861 23.0029 9.3916 23.1738 9.09082 23.5156C8.79004 23.8574 8.63965 24.3245 8.63965 24.917C8.63965 25.4775 8.79915 25.9287 9.11816 26.2705C9.43717 26.6077 9.89062 26.7764 10.4785 26.7764ZM14.9561 29.292L19.208 17.8213H20.6982L16.4121 29.292H14.9561ZM23.166 27.9932V19.6602C23.1022 19.7012 22.806 19.8333 22.2773 20.0566C21.7533 20.2754 21.457 20.3939 21.3887 20.4121V19.0449C21.498 18.9948 21.8444 18.8239 22.4277 18.5322C23.0111 18.236 23.3324 18.0674 23.3916 18.0264H24.8955V27.9932H23.166ZM29.2842 26.4072C29.5439 26.6169 29.8561 26.7217 30.2207 26.7217C30.5853 26.7217 30.8952 26.6169 31.1504 26.4072C31.4102 26.1976 31.6061 25.9082 31.7383 25.5391C31.875 25.1654 31.973 24.7689 32.0322 24.3496C32.0915 23.9258 32.1211 23.4564 32.1211 22.9414C32.1211 20.4714 31.4876 19.2363 30.2207 19.2363C28.9629 19.2363 28.3249 20.4622 28.3066 22.9141C28.3066 23.4336 28.3363 23.9053 28.3955 24.3291C28.4548 24.7529 28.5527 25.154 28.6895 25.5322C28.8262 25.9059 29.0244 26.1976 29.2842 26.4072ZM31.6768 27.8701C31.2484 28.0524 30.763 28.1436 30.2207 28.1436C29.6784 28.1436 29.1908 28.0524 28.7578 27.8701C28.3249 27.6833 27.9671 27.4326 27.6846 27.1182C27.402 26.7992 27.165 26.4186 26.9736 25.9766C26.7868 25.5345 26.6523 25.0674 26.5703 24.5752C26.4928 24.083 26.4541 23.5566 26.4541 22.9961C26.4541 22.4264 26.4951 21.8932 26.5771 21.3965C26.6592 20.8952 26.7959 20.4235 26.9873 19.9814C27.1787 19.5348 27.4157 19.1543 27.6982 18.8398C27.9854 18.5254 28.3431 18.277 28.7715 18.0947C29.1999 17.9079 29.6829 17.8145 30.2207 17.8145C30.7585 17.8145 31.2415 17.9079 31.6699 18.0947C32.0983 18.277 32.4538 18.5277 32.7363 18.8467C33.0189 19.1611 33.2536 19.5417 33.4404 19.9883C33.6318 20.4303 33.7686 20.8997 33.8506 21.3965C33.9326 21.8932 33.9736 22.4264 33.9736 22.9961C33.9736 23.5566 33.9326 24.083 33.8506 24.5752C33.7731 25.0674 33.641 25.5368 33.4541 25.9834C33.2673 26.4255 33.0326 26.8037 32.75 27.1182C32.4674 27.4326 32.1097 27.6833 31.6768 27.8701Z" fill="#333333"/>
</svg>
