<svg width="44" height="44" viewBox="0 0 44 44" fill="none" xmlns="http://www.w3.org/2000/svg">
<path d="M42 22C42 33.0457 33.0457 42 22 42C10.9543 42 2 33.0457 2 22C2 10.9543 10.9543 2 22 2C33.0457 2 42 10.9543 42 22ZM4 22C4 31.9411 12.0589 40 22 40C31.9411 40 40 31.9411 40 22C40 12.0589 31.9411 4 22 4C12.0589 4 4 12.0589 4 22Z" fill="#DBB3E8"/>
<path d="M42 22C42 33.0457 33.0457 42 22 42C10.9543 42 2 33.0457 2 22C2 10.9543 10.9543 2 22 2C33.0457 2 42 10.9543 42 22ZM4 22C4 31.9411 12.0589 40 22 40C31.9411 40 40 31.9411 40 22C40 12.0589 31.9411 4 22 4C12.0589 4 4 12.0589 4 22Z" fill="#B4B4B4" stroke="#B666D2" stroke-width="3"/>
<path d="M14.2129 28.1436C13.1009 28.1436 12.1963 27.8405 11.499 27.2344C10.8018 26.6283 10.4531 25.8285 10.4531 24.835C10.4531 24.516 10.4873 24.2106 10.5557 23.9189C10.624 23.6273 10.7288 23.3424 10.8701 23.0645C11.0114 22.7865 11.1527 22.5404 11.2939 22.3262C11.4352 22.112 11.6175 21.8568 11.8408 21.5605L14.6846 17.9717H16.8037L13.7002 21.8887C14.0329 21.7747 14.3109 21.7178 14.5342 21.7178C15.514 21.7178 16.3161 22.0117 16.9404 22.5996C17.5648 23.1829 17.877 23.944 17.877 24.8828C17.877 25.8581 17.5352 26.6465 16.8516 27.248C16.168 27.8451 15.2884 28.1436 14.2129 28.1436ZM14.1309 26.7764C14.7324 26.7764 15.2018 26.6055 15.5391 26.2637C15.8809 25.9173 16.0518 25.4639 16.0518 24.9033C16.0518 24.3154 15.8923 23.8529 15.5732 23.5156C15.2542 23.1738 14.7803 23.0029 14.1514 23.0029C13.5133 23.0029 13.0439 23.1738 12.7432 23.5156C12.4424 23.8574 12.292 24.3245 12.292 24.917C12.292 25.4775 12.4515 25.9287 12.7705 26.2705C13.0895 26.6077 13.543 26.7764 14.1309 26.7764ZM18.6084 29.292L22.8604 17.8213H24.3506L20.0645 29.292H18.6084ZM28.9512 28.1436C27.8392 28.1436 26.9346 27.8405 26.2373 27.2344C25.54 26.6283 25.1914 25.8285 25.1914 24.835C25.1914 24.516 25.2256 24.2106 25.2939 23.9189C25.3623 23.6273 25.4671 23.3424 25.6084 23.0645C25.7497 22.7865 25.891 22.5404 26.0322 22.3262C26.1735 22.112 26.3558 21.8568 26.5791 21.5605L29.4229 17.9717H31.542L28.4385 21.8887C28.7712 21.7747 29.0492 21.7178 29.2725 21.7178C30.2523 21.7178 31.0544 22.0117 31.6787 22.5996C32.3031 23.1829 32.6152 23.944 32.6152 24.8828C32.6152 25.8581 32.2734 26.6465 31.5898 27.248C30.9062 27.8451 30.0267 28.1436 28.9512 28.1436ZM28.8691 26.7764C29.4707 26.7764 29.9401 26.6055 30.2773 26.2637C30.6191 25.9173 30.79 25.4639 30.79 24.9033C30.79 24.3154 30.6305 23.8529 30.3115 23.5156C29.9925 23.1738 29.5186 23.0029 28.8896 23.0029C28.2516 23.0029 27.7822 23.1738 27.4814 23.5156C27.1807 23.8574 27.0303 24.3245 27.0303 24.917C27.0303 25.4775 27.1898 25.9287 27.5088 26.2705C27.8278 26.6077 28.2812 26.7764 28.8691 26.7764Z" fill="#333333"/>
</svg>
