<svg width="43" height="44" viewBox="0 0 43 44" fill="none" xmlns="http://www.w3.org/2000/svg">
<path d="M41 22C41 33.0457 32.0457 42 21 42C9.9543 42 1 33.0457 1 22C1 10.9543 9.9543 2 21 2C32.0457 2 41 10.9543 41 22ZM3 22C3 31.9411 11.0589 40 21 40C30.9411 40 39 31.9411 39 22C39 12.0589 30.9411 4 21 4C11.0589 4 3 12.0589 3 22Z" fill="#DBB3E8"/>
<path d="M21 3C21 2.44772 21.448 1.99739 21.9996 2.02499C25.3394 2.1921 28.5897 3.19445 31.45 4.9472C34.5949 6.8744 37.1456 9.63376 38.8201 12.9202C40.4947 16.2066 41.2277 19.8921 40.9383 23.5692C40.649 27.2463 39.3484 30.7717 37.1803 33.7557C35.0123 36.7397 32.0613 39.0661 28.6537 40.4776C25.246 41.8891 21.5143 42.3308 17.8713 41.7538C14.2283 41.1768 10.8158 39.6036 8.01104 37.2081C5.46022 35.0295 3.5025 32.248 2.31154 29.1233C2.11483 28.6072 2.40467 28.042 2.92993 27.8713C3.45518 27.7007 4.0167 27.9894 4.21626 28.5043C5.29136 31.2786 7.03963 33.7483 9.30994 35.6873C11.8342 37.8432 14.9054 39.2591 18.1842 39.7784C21.4629 40.2977 24.8214 39.9002 27.8883 38.6298C30.9552 37.3595 33.6111 35.2657 35.5623 32.5801C37.5135 29.8945 38.6841 26.7216 38.9445 23.4123C39.205 20.1029 38.5452 16.786 37.0381 13.8282C35.531 10.8704 33.2354 8.38696 30.405 6.65248C27.8593 5.09248 24.9702 4.19296 21.9995 4.02777C21.4481 3.9971 21 3.55228 21 3Z" fill="#DBB3E8" stroke="#B666D2" stroke-width="3"/>
<path d="M9.05762 28L12.0791 19.4004H7.9502L7.96387 18.0264H14.1162V19.0996L10.8896 28H9.05762ZM14.875 29.292L19.127 17.8213H20.6172L16.3311 29.292H14.875ZM23.085 27.9932V19.6602C23.0212 19.7012 22.7249 19.8333 22.1963 20.0566C21.6722 20.2754 21.376 20.3939 21.3076 20.4121V19.0449C21.417 18.9948 21.7633 18.8239 22.3467 18.5322C22.93 18.236 23.2513 18.0674 23.3105 18.0264H24.8145V27.9932H23.085ZM29.2031 26.4072C29.4629 26.6169 29.7751 26.7217 30.1396 26.7217C30.5042 26.7217 30.8141 26.6169 31.0693 26.4072C31.3291 26.1976 31.5251 25.9082 31.6572 25.5391C31.7939 25.1654 31.8919 24.7689 31.9512 24.3496C32.0104 23.9258 32.04 23.4564 32.04 22.9414C32.04 20.4714 31.4066 19.2363 30.1396 19.2363C28.8818 19.2363 28.2438 20.4622 28.2256 22.9141C28.2256 23.4336 28.2552 23.9053 28.3145 24.3291C28.3737 24.7529 28.4717 25.154 28.6084 25.5322C28.7451 25.9059 28.9434 26.1976 29.2031 26.4072ZM31.5957 27.8701C31.1673 28.0524 30.682 28.1436 30.1396 28.1436C29.5973 28.1436 29.1097 28.0524 28.6768 27.8701C28.2438 27.6833 27.8861 27.4326 27.6035 27.1182C27.321 26.7992 27.084 26.4186 26.8926 25.9766C26.7057 25.5345 26.5713 25.0674 26.4893 24.5752C26.4118 24.083 26.373 23.5566 26.373 22.9961C26.373 22.4264 26.4141 21.8932 26.4961 21.3965C26.5781 20.8952 26.7148 20.4235 26.9062 19.9814C27.0977 19.5348 27.3346 19.1543 27.6172 18.8398C27.9043 18.5254 28.262 18.277 28.6904 18.0947C29.1188 17.9079 29.6019 17.8145 30.1396 17.8145C30.6774 17.8145 31.1605 17.9079 31.5889 18.0947C32.0173 18.277 32.3727 18.5277 32.6553 18.8467C32.9378 19.1611 33.1725 19.5417 33.3594 19.9883C33.5508 20.4303 33.6875 20.8997 33.7695 21.3965C33.8516 21.8932 33.8926 22.4264 33.8926 22.9961C33.8926 23.5566 33.8516 24.083 33.7695 24.5752C33.6921 25.0674 33.5599 25.5368 33.373 25.9834C33.1862 26.4255 32.9515 26.8037 32.6689 27.1182C32.3864 27.4326 32.0286 27.6833 31.5957 27.8701Z" fill="#333333"/>
</svg>
