<svg width="44" height="44" viewBox="0 0 44 44" fill="none" xmlns="http://www.w3.org/2000/svg">
<path d="M42 22C42 33.0457 33.0457 42 22 42C10.9543 42 2 33.0457 2 22C2 10.9543 10.9543 2 22 2C33.0457 2 42 10.9543 42 22ZM4 22C4 31.9411 12.0589 40 22 40C31.9411 40 40 31.9411 40 22C40 12.0589 31.9411 4 22 4C12.0589 4 4 12.0589 4 22Z" fill="#DBB3E8"/>
<path d="M22 3C22 2.44772 22.4481 1.99739 22.9997 2.02498C27.4035 2.24527 31.6219 3.91614 34.989 6.79188C38.6101 9.88459 41.0088 14.1679 41.7538 18.8713C42.4987 23.5747 41.541 28.3896 39.0528 32.45C36.5646 36.5103 32.7093 39.5496 28.1803 41.0211C23.6513 42.4927 18.7459 42.3 14.3463 40.4776C9.94675 38.6552 6.3418 35.3228 4.17987 31.0798C2.01794 26.8368 1.44092 21.9616 2.5526 17.3311C3.58629 13.0255 6.01697 9.19416 9.45023 6.42746C9.88026 6.08092 10.5075 6.18186 10.8321 6.62867C11.1567 7.07548 11.0556 7.69877 10.6275 8.04769C7.5786 10.5327 5.41985 13.9555 4.49734 17.798C3.49683 21.9654 4.01614 26.3531 5.96188 30.1718C7.90762 33.9906 11.1521 36.9897 15.1117 38.6298C19.0713 40.27 23.4862 40.4434 27.5623 39.119C31.6384 37.7946 35.1082 35.0593 37.3475 31.405C39.5869 27.7507 40.4488 23.4173 39.7784 19.1842C39.1079 14.9511 36.9491 11.0961 33.6901 8.31269C30.6852 5.74628 26.9269 4.2461 22.9996 4.02776C22.4482 3.9971 22 3.55228 22 3Z" fill="#DBB3E8" stroke="#B666D2" stroke-width="3"/>
<path d="M9.9834 28L13.0186 24.0488C12.7132 24.1536 12.4421 24.2061 12.2051 24.2061C11.2253 24.2061 10.4255 23.9121 9.80566 23.3242C9.19043 22.7318 8.88281 21.9661 8.88281 21.0273C8.88281 20.0521 9.22005 19.2728 9.89453 18.6895C10.5736 18.1061 11.4531 17.8145 12.5332 17.8145C13.6497 17.8145 14.5544 18.1152 15.2471 18.7168C15.9398 19.3138 16.2861 20.109 16.2861 21.1025C16.2861 21.6768 16.1768 22.1986 15.958 22.668C15.7393 23.1374 15.418 23.6615 14.9941 24.2402L12.1641 28H9.9834ZM12.5879 22.9482C13.2214 22.9482 13.6885 22.7728 13.9893 22.4219C14.2946 22.071 14.4473 21.597 14.4473 21C14.4473 20.4395 14.29 19.9951 13.9756 19.667C13.6611 19.3389 13.21 19.1748 12.6221 19.1748C12.016 19.1748 11.5397 19.3457 11.1934 19.6875C10.8516 20.0293 10.6807 20.4782 10.6807 21.0342C10.6807 21.6266 10.8402 22.0938 11.1592 22.4355C11.4827 22.7773 11.959 22.9482 12.5879 22.9482ZM16.9902 29.292L21.2422 17.8213H22.7324L18.4463 29.292H16.9902ZM25.2002 27.9932V19.6602C25.1364 19.7012 24.8402 19.8333 24.3115 20.0566C23.7874 20.2754 23.4912 20.3939 23.4229 20.4121V19.0449C23.5322 18.9948 23.8786 18.8239 24.4619 18.5322C25.0452 18.236 25.3665 18.0674 25.4258 18.0264H26.9297V27.9932H25.2002ZM31.3184 26.4072C31.5781 26.6169 31.8903 26.7217 32.2549 26.7217C32.6195 26.7217 32.9294 26.6169 33.1846 26.4072C33.4443 26.1976 33.6403 25.9082 33.7725 25.5391C33.9092 25.1654 34.0072 24.7689 34.0664 24.3496C34.1257 23.9258 34.1553 23.4564 34.1553 22.9414C34.1553 20.4714 33.5218 19.2363 32.2549 19.2363C30.9971 19.2363 30.359 20.4622 30.3408 22.9141C30.3408 23.4336 30.3704 23.9053 30.4297 24.3291C30.4889 24.7529 30.5869 25.154 30.7236 25.5322C30.8604 25.9059 31.0586 26.1976 31.3184 26.4072ZM33.7109 27.8701C33.2826 28.0524 32.7972 28.1436 32.2549 28.1436C31.7126 28.1436 31.2249 28.0524 30.792 27.8701C30.359 27.6833 30.0013 27.4326 29.7188 27.1182C29.4362 26.7992 29.1992 26.4186 29.0078 25.9766C28.821 25.5345 28.6865 25.0674 28.6045 24.5752C28.527 24.083 28.4883 23.5566 28.4883 22.9961C28.4883 22.4264 28.5293 21.8932 28.6113 21.3965C28.6934 20.8952 28.8301 20.4235 29.0215 19.9814C29.2129 19.5348 29.4499 19.1543 29.7324 18.8398C30.0195 18.5254 30.3773 18.277 30.8057 18.0947C31.234 17.9079 31.7171 17.8145 32.2549 17.8145C32.7926 17.8145 33.2757 17.9079 33.7041 18.0947C34.1325 18.277 34.488 18.5277 34.7705 18.8467C35.0531 19.1611 35.2878 19.5417 35.4746 19.9883C35.666 20.4303 35.8027 20.8997 35.8848 21.3965C35.9668 21.8932 36.0078 22.4264 36.0078 22.9961C36.0078 23.5566 35.9668 24.083 35.8848 24.5752C35.8073 25.0674 35.6751 25.5368 35.4883 25.9834C35.3014 26.4255 35.0667 26.8037 34.7842 27.1182C34.5016 27.4326 34.1439 27.6833 33.7109 27.8701Z" fill="#333333"/>
</svg>
