<svg width="138" height="158" viewBox="0 0 138 158" fill="none" xmlns="http://www.w3.org/2000/svg">
<g clip-path="url(#clip0_153_2252)">
<path d="M79.0001 7.77744e-05C97.2842 -0.00514863 115.004 6.32991 129.141 17.9257C143.278 29.5215 152.956 45.6605 156.527 63.5926C160.098 81.5246 157.34 100.14 148.723 116.267C140.107 132.393 126.165 145.033 109.274 152.032C92.3825 159.031 73.5868 159.957 56.0895 154.651C38.5923 149.345 23.4763 138.136 13.3174 122.933C3.15854 107.731 -1.41456 89.4769 0.377393 71.2808C2.16934 53.0847 10.2155 36.073 23.1446 23.1446C30.4695 15.7953 39.1754 9.96694 48.7612 5.99489C58.3471 2.02284 68.6238 -0.0145088 79.0001 7.77744e-05Z" fill="#B666D2"/>
<path fill-rule="evenodd" clip-rule="evenodd" d="M78.9999 11.238C87.899 11.2363 96.7113 12.9878 104.933 16.3926C113.155 19.7974 120.626 24.7886 126.919 31.0812C133.211 37.3739 138.203 44.8446 141.607 53.0666C145.012 61.2886 146.764 70.1009 146.762 79C146.762 79.3986 146.762 79.7843 146.762 80.1829C146.53 67.3514 142.528 54.8717 135.254 44.2985C127.981 33.7253 117.757 25.526 105.856 20.722C93.9555 15.9181 80.9045 14.7218 68.3289 17.2823C55.7533 19.8428 44.2091 26.0469 35.1344 35.1216C26.0597 44.1963 19.8556 55.7406 17.2951 68.3161C14.7346 80.8917 15.9309 93.9427 20.7348 105.843C25.5388 117.744 33.7381 127.968 44.3113 135.242C54.8845 142.515 67.3642 146.517 80.1957 146.749H79.0128C61.0412 146.749 43.8056 139.61 31.0978 126.902C18.3899 114.194 11.2507 96.9587 11.2507 78.9871C11.2507 61.0155 18.3899 43.78 31.0978 31.0721C43.8056 18.3643 61.0412 11.2251 79.0128 11.2251L78.9999 11.238Z" fill="#DBB3E8"/>
<path fill-rule="evenodd" clip-rule="evenodd" d="M81.3658 15.9568C94.3025 15.9568 106.949 19.793 117.705 26.9802C128.462 34.1674 136.845 44.3829 141.796 56.3349C146.747 68.2868 148.042 81.4384 145.518 94.1265C142.994 106.815 136.765 118.469 127.617 127.617C118.469 136.765 106.815 142.994 94.1265 145.518C81.4384 148.042 68.2868 146.747 56.3349 141.796C44.3829 136.845 34.1674 128.462 26.9802 117.705C19.793 106.949 15.9568 94.3025 15.9568 81.3658C15.9568 64.0183 22.8481 47.3812 35.1146 35.1146C47.3812 22.8481 64.0183 15.9568 81.3658 15.9568Z" fill="#F8F0FB"/>
<g filter="url(#filter0_d_153_2252)">
<path d="M87.4643 86.1071H73.5357C59.433 86.1071 48 97.5402 48 111.643C48 114.207 50.0791 116.286 52.6429 116.286H108.357C110.921 116.286 113 114.207 113 111.643C113 97.5402 101.567 86.1071 87.4643 86.1071ZM55.1079 109.321C56.2541 100.166 64.0759 93.0714 73.5357 93.0714H87.4643C96.9183 93.0714 104.744 100.174 105.891 109.321H55.1079ZM80.5 79.1429C90.7564 79.1429 99.0714 70.8278 99.0714 60.5714C99.0714 50.3151 90.7564 42 80.5 42C70.2436 42 61.9286 50.3151 61.9286 60.5714C61.9286 70.8292 70.2422 79.1429 80.5 79.1429ZM80.5 48.9643C86.8999 48.9643 92.1071 54.1715 92.1071 60.5714C92.1071 66.9713 86.8999 72.1786 80.5 72.1786C74.1001 72.1786 68.8929 66.9699 68.8929 60.5714C68.8929 54.1715 74.1016 48.9643 80.5 48.9643Z" fill="#B666D2"/>
</g>
</g>
<defs>
<filter id="filter0_d_153_2252" x="48" y="42" width="66.8881" height="75.2297" filterUnits="userSpaceOnUse" color-interpolation-filters="sRGB">
<feFlood flood-opacity="0" result="BackgroundImageFix"/>
<feColorMatrix in="SourceAlpha" type="matrix" values="0 0 0 0 0 0 0 0 0 0 0 0 0 0 0 0 0 0 127 0" result="hardAlpha"/>
<feOffset dx="1.88806" dy="0.944029"/>
<feComposite in2="hardAlpha" operator="out"/>
<feColorMatrix type="matrix" values="0 0 0 0 0.858824 0 0 0 0 0.701961 0 0 0 0 0.909804 0 0 0 1 0"/>
<feBlend mode="normal" in2="BackgroundImageFix" result="effect1_dropShadow_153_2252"/>
<feBlend mode="normal" in="SourceGraphic" in2="effect1_dropShadow_153_2252" result="shape"/>
</filter>
<clipPath id="clip0_153_2252">
<rect width="158" height="158" fill="white"/>
</clipPath>
</defs>
</svg>
