<svg width="30" height="30" viewBox="0 0 30 30" fill="none" xmlns="http://www.w3.org/2000/svg">
<path d="M19.3066 5.24683H5.36026C4.05164 5.24683 2.98877 6.3097 2.98877 7.61832V27.6286C2.98877 28.9372 4.05164 30.0001 5.36026 30.0001H19.3066C20.6152 30.0001 21.6781 28.9372 21.6781 27.6286V7.61832C21.672 6.3097 20.6091 5.24683 19.3066 5.24683ZM20.0131 27.6224C20.0131 28.0156 19.6937 28.3351 19.3005 28.3351H5.35412C4.96092 28.3351 4.64144 28.0156 4.64144 27.6224V7.61832C4.64144 7.22512 4.96092 6.90564 5.35412 6.90564H19.3005C19.6937 6.90564 20.0131 7.22512 20.0131 7.61832V27.6224Z" fill="#333333"/>
<path d="M24.6396 0H10.6933C9.38465 0 8.32178 1.06287 8.32178 2.37149C8.32178 2.83228 8.6904 3.2009 9.15119 3.2009C9.61197 3.2009 9.98059 2.83228 9.98059 2.37149C9.98059 1.97829 10.3001 1.65882 10.6933 1.65882H24.6396C25.0328 1.65882 25.3523 1.97829 25.3523 2.37149V22.3817C25.3523 22.7749 25.0328 23.0944 24.6396 23.0944C24.1788 23.0944 23.8102 23.463 23.8102 23.9238C23.8102 24.3846 24.1788 24.7532 24.6396 24.7532C25.9482 24.7532 27.0111 23.6904 27.0111 22.3817V2.37149C27.0111 1.06287 25.9482 0 24.6396 0Z" fill="#333333"/>
</svg>
