<svg width="138" height="158" viewBox="0 0 138 158" fill="none" xmlns="http://www.w3.org/2000/svg">
<g clip-path="url(#clip0_151_1097)">
<path d="M79.0001 -1.37783e-05C97.2842 -0.00524019 115.004 6.32982 129.141 17.9256C143.278 29.5214 152.956 45.6605 156.527 63.5925C160.098 81.5245 157.34 100.14 148.723 116.266C140.107 132.393 126.165 145.033 109.274 152.032C92.3825 159.031 73.5868 159.957 56.0895 154.651C38.5923 149.345 23.4763 138.135 13.3174 122.933C3.15854 107.731 -1.41456 89.4768 0.377393 71.2807C2.16934 53.0847 10.2155 36.073 23.1446 23.1445C30.4695 15.7952 39.1754 9.96685 48.7612 5.9948C58.3471 2.02274 68.6238 -0.0146004 79.0001 -1.37783e-05Z" fill="#B666D2"/>
<path fill-rule="evenodd" clip-rule="evenodd" d="M78.9999 11.238C87.899 11.2363 96.7113 12.9878 104.933 16.3926C113.155 19.7974 120.626 24.7886 126.919 31.0812C133.211 37.3739 138.203 44.8446 141.607 53.0666C145.012 61.2886 146.764 70.1009 146.762 79C146.762 79.3986 146.762 79.7843 146.762 80.1829C146.53 67.3514 142.528 54.8717 135.254 44.2985C127.981 33.7253 117.757 25.526 105.856 20.722C93.9555 15.9181 80.9045 14.7218 68.3289 17.2823C55.7533 19.8428 44.2091 26.0469 35.1344 35.1216C26.0597 44.1963 19.8556 55.7406 17.2951 68.3161C14.7346 80.8917 15.9309 93.9427 20.7348 105.843C25.5388 117.744 33.7381 127.968 44.3113 135.242C54.8845 142.515 67.3642 146.517 80.1957 146.749H79.0128C61.0412 146.749 43.8056 139.61 31.0978 126.902C18.3899 114.194 11.2507 96.9587 11.2507 78.9871C11.2507 61.0155 18.3899 43.78 31.0978 31.0721C43.8056 18.3643 61.0412 11.2251 79.0128 11.2251L78.9999 11.238Z" fill="#DBB3E8"/>
<path fill-rule="evenodd" clip-rule="evenodd" d="M81.3658 15.9569C94.3025 15.9569 106.949 19.7931 117.705 26.9803C128.462 34.1675 136.845 44.383 141.796 56.3349C146.747 68.2869 148.042 81.4385 145.518 94.1266C142.994 106.815 136.765 118.469 127.617 127.617C118.469 136.765 106.815 142.994 94.1265 145.518C81.4384 148.042 68.2868 146.747 56.3349 141.796C44.3829 136.845 34.1674 128.462 26.9802 117.705C19.793 106.949 15.9568 94.3026 15.9568 81.3659C15.9568 64.0183 22.8481 47.3813 35.1146 35.1147C47.3812 22.8482 64.0183 15.9569 81.3658 15.9569Z" fill="#F8F0FB"/>
<g clip-path="url(#clip1_151_1097)">
<path fill-rule="evenodd" clip-rule="evenodd" d="M57.9818 88.6892L63.9787 67.6092C64.1982 66.8381 64.8991 66.3359 65.6637 66.3359H91.2299C92.0795 66.3359 92.7875 66.9443 92.9504 67.7436L99.1029 88.7954C99.372 89.722 98.841 90.6841 97.9135 90.9599C97.7506 91.0095 97.5878 91.0307 97.425 91.0307V91.0378H59.6315C58.6615 91.0378 57.8827 90.2526 57.8827 89.2905C57.8756 89.0642 57.911 88.8732 57.9818 88.6892Z" fill="#B666D2"/>
<path fill-rule="evenodd" clip-rule="evenodd" d="M94.3381 41.7046L93.9912 41.9946C96.3135 44.8453 97.2764 48.2054 96.8799 52.0748C96.4834 55.9442 94.855 59.0355 92.0017 61.3557L92.292 61.7023C95.1453 59.3821 98.5083 58.413 102.388 58.8233C106.261 59.2194 109.355 60.8534 111.677 63.6971L112.024 63.4071C109.702 60.5563 108.732 57.1963 109.135 53.3269C109.532 49.4575 111.16 46.3662 114.014 44.046L113.716 43.6923C110.863 46.0125 107.5 46.9746 103.627 46.5784C99.7544 46.1823 96.6533 44.5553 94.3381 41.7046Z" fill="#B666D2"/>
<path fill-rule="evenodd" clip-rule="evenodd" d="M63.0584 39.9999L62.8672 40.1555C64.1345 41.7118 64.6655 43.551 64.446 45.6661C64.2336 47.7811 63.3345 49.4718 61.7769 50.738L61.9326 50.929C63.4902 49.6557 65.3311 49.1322 67.4551 49.3586C69.5791 49.5779 71.2712 50.4692 72.5315 52.0184L72.7227 51.8627C71.4482 50.3065 70.9243 48.4673 71.1438 46.3522C71.3562 44.2371 72.2554 42.5465 73.813 41.2803L73.6572 41.0822C72.0996 42.3484 70.2588 42.879 68.1418 42.6597C66.0249 42.4475 64.3257 41.5562 63.0584 39.9999Z" fill="#B666D2"/>
<path fill-rule="evenodd" clip-rule="evenodd" d="M35.0991 115.768L41.0959 94.6877C41.3154 93.9166 42.0164 93.4073 42.781 93.4073H68.3472C69.2039 93.4073 69.9048 94.0156 70.0676 94.815L76.2202 115.867C76.4893 116.793 75.9583 117.763 75.0308 118.031C74.8679 118.081 74.7051 118.102 74.5422 118.102V118.109H36.7559C35.7859 118.109 35 117.324 35 116.362C35 116.15 35.0354 115.959 35.0991 115.768Z" fill="#B666D2"/>
<path fill-rule="evenodd" clip-rule="evenodd" d="M80.8151 115.768L86.8048 94.6877C87.0243 93.9166 87.7253 93.4073 88.4899 93.4073H114.056C114.906 93.4073 115.614 94.0156 115.777 94.815L121.936 115.867C122.205 116.793 121.674 117.763 120.747 118.031C120.584 118.081 120.421 118.102 120.258 118.102V118.109H82.4648C81.4948 118.109 80.716 117.324 80.716 116.362C80.7089 116.15 80.7443 115.959 80.8151 115.768Z" fill="#B666D2"/>
<path fill-rule="evenodd" clip-rule="evenodd" d="M57.9395 88.7388L63.9363 67.6588C64.1558 66.8877 64.8567 66.3784 65.6214 66.3784H91.1875C92.0371 66.3784 92.7451 66.9867 92.908 67.7861L93.0071 68.1186H68.2976C67.533 68.1186 66.8321 68.6279 66.6126 69.3989L60.6157 90.479C60.5449 90.6629 60.5166 90.861 60.5166 91.0661V91.0802H59.6033C58.6333 91.0802 57.8545 90.295 57.8545 89.333C57.8333 89.1137 57.8687 88.9156 57.9395 88.7388Z" fill="#DBB3E8"/>
<path fill-rule="evenodd" clip-rule="evenodd" d="M35.0991 115.768L41.0959 94.6877C41.3154 93.9166 42.0164 93.4144 42.781 93.4144H68.3472C69.1968 93.4144 69.9048 94.0227 70.0676 94.8221L70.1667 95.1475H45.4573C44.6926 95.1475 43.9917 95.6568 43.7722 96.4207L37.7754 117.501C37.7046 117.685 37.6763 117.883 37.6763 118.088V118.102H36.7488C35.7788 118.102 35 117.317 35 116.355C35 116.143 35.0354 115.952 35.0991 115.768Z" fill="#DBB3E8"/>
<path fill-rule="evenodd" clip-rule="evenodd" d="M35.0991 115.768L41.0959 94.6877C41.3154 93.9166 42.0164 93.4144 42.781 93.4144H68.3472C69.1968 93.4144 69.9048 94.0227 70.0676 94.8221L70.1667 95.1475H45.4573C44.6926 95.1475 43.9917 95.6568 43.7722 96.4207L37.7754 117.501C37.7046 117.685 37.6763 117.883 37.6763 118.088V118.102H36.7488C35.7788 118.102 35 117.317 35 116.355C35 116.143 35.0354 115.952 35.0991 115.768Z" fill="#DBB3E8"/>
<path fill-rule="evenodd" clip-rule="evenodd" d="M80.8151 115.768L86.8119 94.6877C87.0314 93.9166 87.7323 93.4144 88.497 93.4144H114.063C114.92 93.4144 115.621 94.0227 115.784 94.8221L115.883 95.1475H91.1591C90.3944 95.1475 89.6935 95.6568 89.474 96.4207L83.4772 117.501C83.4064 117.685 83.3781 117.883 83.3781 118.088V118.102H82.4648C81.4948 118.102 80.716 117.317 80.716 116.355C80.7089 116.143 80.7443 115.952 80.8151 115.768Z" fill="#DBB3E8"/>
<path fill-rule="evenodd" clip-rule="evenodd" d="M39.772 62.6432L39.5808 62.7988C40.8481 64.3551 41.3792 66.1943 41.1597 68.3093C40.9473 70.4173 40.0481 72.108 38.4905 73.3813L38.6462 73.5723C40.2039 72.299 42.0447 71.7755 44.1687 72.0019C46.2927 72.2212 47.9849 73.1125 49.2451 74.6616L49.4363 74.506C48.1619 72.9498 47.6379 71.1106 47.8574 68.9955C48.0698 66.8804 48.969 65.1898 50.5266 63.9236L50.3708 63.7326C48.8132 64.9988 46.9724 65.5293 44.8555 65.31C42.7314 65.0907 41.0393 64.1994 39.772 62.6432Z" fill="#B666D2"/>
</g>
</g>
<defs>
<clipPath id="clip0_151_1097">
<rect width="158" height="158" fill="white"/>
</clipPath>
<clipPath id="clip1_151_1097">
<rect width="87" height="78.1023" fill="white" transform="translate(35 40)"/>
</clipPath>
</defs>
</svg>
