<svg width="15" height="15" viewBox="0 0 15 15" fill="none" xmlns="http://www.w3.org/2000/svg">
<path d="M7.5 0C3.3645 0 0 3.36455 0 7.50005C0 11.6355 3.3645 15 7.5 15C11.6355 15 15 11.6355 15 7.50005C15 3.36455 11.6355 0 7.5 0ZM7.5 13.6364C4.11636 13.6364 1.36364 10.8836 1.36364 7.50005C1.36364 4.11646 4.11636 1.36364 7.5 1.36364C10.8836 1.36364 13.6364 4.11646 13.6364 7.50005C13.6364 10.8836 10.8836 13.6364 7.5 13.6364Z" fill="#333333"/>
<path d="M7.49973 3.18188C6.99855 3.18188 6.59082 3.58988 6.59082 4.09138C6.59082 4.59243 6.99855 5.00007 7.49973 5.00007C8.00091 5.00007 8.40864 4.59243 8.40864 4.09138C8.40864 3.58988 8.00091 3.18188 7.49973 3.18188Z" fill="#333333"/>
<path d="M7.50018 6.36353C7.12363 6.36353 6.81836 6.6688 6.81836 7.04534V11.1363C6.81836 11.5128 7.12363 11.8181 7.50018 11.8181C7.87672 11.8181 8.182 11.5128 8.182 11.1363V7.04534C8.182 6.6688 7.87672 6.36353 7.50018 6.36353Z" fill="#333333"/>
</svg>
