<svg width="138" height="158" viewBox="0 0 138 158" fill="none" xmlns="http://www.w3.org/2000/svg">
<g clip-path="url(#clip0_151_1071)">
<path d="M79.0001 -4.42959e-05C97.2842 -0.0052707 115.004 6.32979 129.141 17.9256C143.278 29.5214 152.956 45.6604 156.527 63.5924C160.098 81.5245 157.34 100.14 148.723 116.266C140.107 132.393 126.165 145.033 109.274 152.032C92.3825 159.031 73.5868 159.957 56.0895 154.651C38.5923 149.345 23.4763 138.135 13.3174 122.933C3.15854 107.731 -1.41456 89.4767 0.377393 71.2807C2.16934 53.0846 10.2155 36.0729 23.1446 23.1445C30.4695 15.7952 39.1754 9.96682 48.7612 5.99477C58.3471 2.02271 68.6238 -0.0146309 79.0001 -4.42959e-05Z" fill="#B666D2"/>
<path fill-rule="evenodd" clip-rule="evenodd" d="M78.9999 11.238C87.899 11.2363 96.7113 12.9878 104.933 16.3926C113.155 19.7974 120.626 24.7886 126.919 31.0812C133.211 37.3739 138.203 44.8446 141.607 53.0666C145.012 61.2886 146.764 70.1009 146.762 79C146.762 79.3986 146.762 79.7843 146.762 80.1829C146.53 67.3514 142.528 54.8717 135.254 44.2985C127.981 33.7253 117.757 25.526 105.856 20.722C93.9555 15.9181 80.9045 14.7218 68.3289 17.2823C55.7533 19.8428 44.2091 26.0469 35.1344 35.1216C26.0597 44.1963 19.8556 55.7406 17.2951 68.3161C14.7346 80.8917 15.9309 93.9427 20.7348 105.843C25.5388 117.744 33.7381 127.968 44.3113 135.242C54.8845 142.515 67.3642 146.517 80.1957 146.749H79.0128C61.0412 146.749 43.8056 139.61 31.0978 126.902C18.3899 114.194 11.2507 96.9587 11.2507 78.9871C11.2507 61.0155 18.3899 43.78 31.0978 31.0721C43.8056 18.3643 61.0412 11.2251 79.0128 11.2251L78.9999 11.238Z" fill="#DBB3E8"/>
<path fill-rule="evenodd" clip-rule="evenodd" d="M81.3658 15.9569C94.3025 15.9569 106.949 19.7931 117.705 26.9803C128.462 34.1676 136.845 44.383 141.796 56.335C146.747 68.2869 148.042 81.4385 145.518 94.1266C142.994 106.815 136.765 118.469 127.617 127.617C118.469 136.765 106.815 142.994 94.1265 145.518C81.4384 148.042 68.2868 146.747 56.3349 141.796C44.3829 136.845 34.1674 128.462 26.9802 117.705C19.793 106.949 15.9568 94.3026 15.9568 81.3659C15.9568 64.0184 22.8481 47.3813 35.1146 35.1148C47.3812 22.8482 64.0183 15.9569 81.3658 15.9569Z" fill="#F8F0FB"/>
<path d="M99.5653 67.6578L98.164 53.8628C98.1436 53.661 98.1825 53.4577 98.2759 53.2777C98.3694 53.0977 98.5133 52.9488 98.6901 52.8494C105.285 48.6309 108.453 50.3425 111.372 51.9184C113.68 53.1646 115.79 54.3041 120.355 50.425C120.57 50.2431 120.847 50.1525 121.128 50.1724C121.409 50.1923 121.671 50.3212 121.858 50.5316C121.999 50.6966 122.084 50.902 122.1 51.1184L123.502 64.9109C123.518 65.0713 123.496 65.2333 123.438 65.3837C123.38 65.5341 123.287 65.6686 123.167 65.7764C117.884 70.5865 114.682 68.967 111.384 67.2965C108.715 65.9413 105.954 64.5472 101.313 68.3948C101.096 68.5745 100.817 68.6623 100.536 68.6397C100.255 68.6171 99.9936 68.4857 99.8077 68.2736C99.6616 68.1005 99.5764 67.8841 99.5653 67.6578Z" fill="#B666D2"/>
<path d="M99.5387 52.0518L101.934 75.9567C101.961 76.1776 101.943 76.4018 101.883 76.6159C101.822 76.83 101.719 77.0298 101.579 77.2035C101.44 77.3772 101.268 77.5214 101.072 77.6274C100.876 77.7335 100.661 77.7994 100.44 77.8212C100.218 77.843 99.9944 77.8203 99.7817 77.7545C99.5691 77.6886 99.3717 77.5809 99.2013 77.4377C99.0308 77.2945 98.8908 77.1186 98.7892 76.9205C98.6877 76.7224 98.6268 76.506 98.6102 76.284L96.2221 52.4567C95.8207 52.1672 95.5159 51.7634 95.3475 51.2981C95.1791 50.8327 95.155 50.3274 95.2782 49.848C95.4014 49.3687 95.6663 48.9377 96.0383 48.6113C96.4103 48.2848 96.872 48.0781 97.3633 48.0181C97.8545 47.9582 98.3525 48.0477 98.792 48.2751C99.2316 48.5025 99.5924 48.8571 99.8274 49.2927C100.062 49.7283 100.16 50.2246 100.109 50.7168C100.057 51.209 99.8587 51.6743 99.5387 52.0518Z" fill="#DBB3E8"/>
<rect x="49.1772" y="98.0675" width="18.4095" height="3.94489" rx="1.97244" fill="#D6D6D6"/>
<rect x="78.1064" y="98.0675" width="18.4095" height="3.94489" rx="1.97244" fill="#DBB3E8"/>
<circle cx="45.2323" cy="100.04" r="7.23229" fill="#D6D6D6"/>
<rect x="38" y="111.217" width="14.4646" height="2.62993" rx="1.31496" fill="#D6D6D6"/>
<rect x="65.614" y="111.217" width="14.4646" height="2.62993" rx="1.31496" fill="#DBB3E8"/>
<rect x="93.2283" y="111.217" width="14.4646" height="2.62993" rx="1.31496" fill="#B666D2"/>
<rect x="65.7625" y="86.7963" width="14.2372" height="20.6439" rx="4.17109" fill="#DBB3E8"/>
<rect x="93.1692" y="76.1184" width="14.2372" height="31.3218" rx="4.17109" fill="#B666D2"/>
</g>
<defs>
<clipPath id="clip0_151_1071">
<rect width="158" height="158" fill="white"/>
</clipPath>
</defs>
</svg>
