<svg width="24" height="24" viewBox="0 0 24 24" fill="none" xmlns="http://www.w3.org/2000/svg">
<g clip-path="url(#clip0_373_7)">
<path d="M11.9997 0C7.10971 0 3.13135 3.97829 3.13135 8.86834C3.13135 13.6027 11.2162 23.38 11.5603 23.7939C11.6689 23.9244 11.8299 24 11.9997 24C12.1694 24 12.3305 23.9245 12.4391 23.7939C12.7833 23.38 20.868 13.6027 20.868 8.86834C20.868 3.97829 16.8898 0 11.9997 0ZM11.9997 22.5218C11.2828 21.6266 9.79337 19.7194 8.31946 17.5391C5.67306 13.6245 4.27421 10.6262 4.27421 8.86834C4.27421 4.60846 7.73988 1.14286 11.9997 1.14286C16.2595 1.14286 19.7252 4.60846 19.7252 8.86834C19.7252 10.6261 18.3264 13.6245 15.6799 17.5391C14.2059 19.7194 12.7166 21.6266 11.9997 22.5218Z" fill="#B666D2"/>
<path d="M11.9992 4.3811C9.4155 4.3811 7.31348 6.48312 7.31348 9.06682C7.31348 11.6505 9.4155 13.7525 11.9992 13.7525C14.5829 13.7525 16.6849 11.6505 16.6849 9.06682C16.6849 6.48312 14.5829 4.3811 11.9992 4.3811ZM11.9992 12.6097C10.0457 12.6097 8.45633 11.0203 8.45633 9.06682C8.45633 7.11329 10.0457 5.52396 11.9992 5.52396C13.9528 5.52396 15.542 7.11329 15.542 9.06682C15.542 11.0203 13.9528 12.6097 11.9992 12.6097Z" fill="#B666D2"/>
</g>
<defs>
<clipPath id="clip0_373_7">
<rect width="24" height="24" fill="white"/>
</clipPath>
</defs>
</svg>
