<svg width="138" height="158" viewBox="0 0 138 158" fill="none" xmlns="http://www.w3.org/2000/svg">
<g clip-path="url(#clip0_151_1041)">
<path d="M79.0001 1.67392e-05C97.2842 -0.00520967 115.004 6.32985 129.141 17.9257C143.278 29.5215 152.956 45.6605 156.527 63.5925C160.098 81.5245 157.34 100.14 148.723 116.266C140.107 132.393 126.165 145.033 109.274 152.032C92.3825 159.031 73.5868 159.957 56.0895 154.651C38.5923 149.345 23.4763 138.136 13.3174 122.933C3.15854 107.731 -1.41456 89.4768 0.377393 71.2807C2.16934 53.0847 10.2155 36.073 23.1446 23.1445C30.4695 15.7952 39.1754 9.96688 48.7612 5.99483C58.3471 2.02278 68.6238 -0.0145699 79.0001 1.67392e-05Z" fill="#B666D2"/>
<path fill-rule="evenodd" clip-rule="evenodd" d="M78.9999 11.238C87.899 11.2363 96.7113 12.9878 104.933 16.3926C113.155 19.7974 120.626 24.7886 126.919 31.0812C133.211 37.3739 138.203 44.8446 141.607 53.0666C145.012 61.2886 146.764 70.1009 146.762 79C146.762 79.3986 146.762 79.7843 146.762 80.1829C146.53 67.3514 142.528 54.8717 135.254 44.2985C127.981 33.7253 117.757 25.526 105.856 20.722C93.9555 15.9181 80.9045 14.7218 68.3289 17.2823C55.7533 19.8428 44.2091 26.0469 35.1344 35.1216C26.0597 44.1963 19.8556 55.7406 17.2951 68.3161C14.7346 80.8917 15.9309 93.9427 20.7348 105.843C25.5388 117.744 33.7381 127.968 44.3113 135.242C54.8845 142.515 67.3642 146.517 80.1957 146.749H79.0128C61.0412 146.749 43.8056 139.61 31.0978 126.902C18.3899 114.194 11.2507 96.9587 11.2507 78.9871C11.2507 61.0155 18.3899 43.78 31.0978 31.0721C43.8056 18.3643 61.0412 11.2251 79.0128 11.2251L78.9999 11.238Z" fill="#DBB3E8"/>
<path fill-rule="evenodd" clip-rule="evenodd" d="M81.3658 15.9568C94.3025 15.9568 106.949 19.793 117.705 26.9803C128.462 34.1675 136.845 44.383 141.796 56.3349C146.747 68.2869 148.042 81.4384 145.518 94.1265C142.994 106.815 136.765 118.469 127.617 127.617C118.469 136.765 106.815 142.994 94.1265 145.518C81.4384 148.042 68.2868 146.747 56.3349 141.796C44.3829 136.845 34.1674 128.462 26.9802 117.705C19.793 106.949 15.9568 94.3026 15.9568 81.3659C15.9568 64.0183 22.8481 47.3813 35.1146 35.1147C47.3812 22.8481 64.0183 15.9568 81.3658 15.9568Z" fill="#F8F0FB"/>
<g filter="url(#filter0_d_151_1041)">
<path d="M51.0078 71.8253L55.8682 60.8831H74.1909C73.9356 60.0509 73.5256 59.2744 72.9823 58.5943C72.3837 57.8282 71.6573 57.1714 70.835 56.6528C69.9547 56.098 69.003 55.6654 68.0062 55.3669C66.9346 55.0225 65.8144 54.8532 64.6888 54.8655H51.0078L55.8682 43.9104H108.329L103.469 54.8655H90.7907C91.3042 55.2406 91.7743 55.6719 92.1922 56.1513C92.6175 56.6453 93.0004 57.1744 93.3366 57.7328C93.6414 58.2612 93.9162 58.8064 94.1595 59.3658C94.3567 59.8553 94.5032 60.3637 94.5967 60.8831H108.329L103.469 71.8253H93.5295C92.7576 73.7727 91.6573 75.5733 90.2764 77.1485C88.7988 78.849 87.1092 80.3528 85.2489 81.6231C83.2961 82.93 81.2046 84.0167 79.0127 84.8634C76.8202 85.7359 74.533 86.3487 72.1979 86.6892L99.7656 115.118H77.9069L53.3223 88.1165V78.1H64.2902C65.3402 78.1007 66.3831 77.9269 67.3761 77.5857C68.3722 77.2441 69.319 76.7729 70.1921 76.1842C71.0299 75.631 71.7834 74.9597 72.4294 74.1912C73.0077 73.4936 73.4445 72.69 73.7152 71.8253H51.0078Z" fill="#B666D2"/>
</g>
</g>
<defs>
<filter id="filter0_d_151_1041" x="51.0078" y="43.9104" width="59.2093" height="72.152" filterUnits="userSpaceOnUse" color-interpolation-filters="sRGB">
<feFlood flood-opacity="0" result="BackgroundImageFix"/>
<feColorMatrix in="SourceAlpha" type="matrix" values="0 0 0 0 0 0 0 0 0 0 0 0 0 0 0 0 0 0 127 0" result="hardAlpha"/>
<feOffset dx="1.88806" dy="0.944029"/>
<feComposite in2="hardAlpha" operator="out"/>
<feColorMatrix type="matrix" values="0 0 0 0 0.858824 0 0 0 0 0.701961 0 0 0 0 0.909804 0 0 0 1 0"/>
<feBlend mode="normal" in2="BackgroundImageFix" result="effect1_dropShadow_151_1041"/>
<feBlend mode="normal" in="SourceGraphic" in2="effect1_dropShadow_151_1041" result="shape"/>
</filter>
<clipPath id="clip0_151_1041">
<rect width="158" height="158" fill="white"/>
</clipPath>
</defs>
</svg>
