<svg width="21" height="20" viewBox="0 0 21 20" fill="none" xmlns="http://www.w3.org/2000/svg">
<g clip-path="url(#clip0_153_2384)">
<path d="M8.54294 0H8.54568V0.00116862C10.9039 0.00183641 13.0393 0.936235 14.5846 2.4461C16.1273 3.95379 17.083 6.03795 17.0845 8.3398H17.0857V8.34531V8.35199H17.0845C17.0837 9.27971 16.9278 10.1725 16.6412 11.0051C16.5932 11.1448 16.5429 11.2791 16.4913 11.4073V11.4084C16.2442 12.0195 15.9248 12.5971 15.5433 13.1292L20.5134 17.493L20.5165 17.4956L20.5434 17.52L20.5452 17.5218C20.8259 17.7828 20.9786 18.1322 20.9979 18.4868C21.0167 18.8374 20.9052 19.196 20.6597 19.4836L20.6579 19.4863L20.628 19.5202L20.622 19.526L20.597 19.5528L20.5943 19.5563C20.3268 19.8304 19.9698 19.9793 19.6065 19.998C19.2481 20.0165 18.8807 19.9078 18.586 19.6678L18.5835 19.6659L18.5486 19.6367L18.5437 19.6327L13.4602 15.1696C13.3099 15.2731 13.1564 15.3714 13.001 15.4642C12.7903 15.5903 12.5721 15.709 12.3494 15.8173C11.2045 16.3753 9.91082 16.6891 8.54311 16.6891V16.6903H8.54038V16.6891C6.18213 16.6885 4.0464 15.7541 2.50112 14.2442C0.957894 12.7365 0.0027344 10.652 0.0011963 8.35082H0V8.34531V8.34264H0.0011963C0.0018799 6.03895 0.958406 3.95262 2.50402 2.44309C4.04742 0.936235 6.18093 0.00267114 8.5373 0.00116862V0H8.54294ZM8.54568 1.87147V1.87264H8.54294H8.5373V1.87147C6.71107 1.87264 5.05573 2.59768 3.85738 3.76781C2.6592 4.93794 1.9163 6.55665 1.91579 8.34281H1.91698V8.34548V8.35099H1.91579C1.91698 10.135 2.65869 11.7512 3.85704 12.9221C5.05488 14.0928 6.71192 14.8185 8.54021 14.8188V14.8177H8.54294H8.54858V14.8188C10.3748 14.8177 12.0295 14.0929 13.2282 12.9225C14.4263 11.7524 15.1692 10.1341 15.1696 8.34815H15.1686V8.34548V8.33997H15.1696C15.1686 6.55598 14.4262 4.93894 13.2285 3.76831C12.0307 2.59768 10.3741 1.87197 8.54568 1.87147Z" fill="#333333"/>
</g>
<defs>
<clipPath id="clip0_153_2384">
<rect width="21" height="20" fill="white"/>
</clipPath>
</defs>
</svg>
