<svg width="375" height="281" viewBox="0 0 375 281" fill="none" xmlns="http://www.w3.org/2000/svg">
<path d="M163.563 165.292C163.318 165.292 163.073 165.269 162.851 165.247H162.829L162.806 165.225C162.806 165.225 161.805 164.135 162.072 162.043C162.361 159.952 163.741 157.972 163.763 157.95L163.785 157.906L163.83 157.928C165.543 159.085 169.992 161.109 170.037 161.131L170.081 161.154L170.059 161.198C170.037 161.243 167.367 165.292 163.563 165.292Z" fill="#333333"/>
<path d="M147.189 217.883C146.722 214.546 146.41 211.142 146.299 207.761V207.739L146.321 207.716C146.343 207.694 149.369 205.781 152.483 205.558C152.75 205.536 153.017 205.536 153.24 205.536C155.331 205.536 155.999 206.582 156.021 206.604C156.043 206.693 157.267 213.011 147.233 217.905L147.189 217.928V217.883Z" fill="#333333"/>
<path d="M62.4506 216.549C62.3838 216.46 55.0423 206.804 56.8221 200.775V200.753H56.8443C56.8666 200.731 57.6675 200.242 59.1358 200.242C59.7809 200.242 60.4483 200.331 61.138 200.531C65.1424 201.643 68.3238 204.557 68.346 204.58L68.3683 204.602L68.346 204.624C65.2314 211.743 62.5173 216.504 62.4951 216.549L62.4728 216.615L62.4506 216.549Z" fill="#333333"/>
<path d="M42.917 238.373V238.328C42.917 238.306 43.0282 237.172 44.0071 235.503C44.897 233.968 46.7212 231.632 50.3252 229.296C57.0661 224.958 59.6022 221.243 62.4498 216.504C62.4721 216.46 65.1862 211.699 68.3008 204.602L68.323 204.557L91.015 224.179L85.2307 238.373H42.917Z" fill="#DBB3E8"/>
<path d="M120.003 238.373C119.981 238.306 118.312 233.479 117.422 223.89L117.534 220.331L146.388 203.645V207.761C146.499 211.12 146.811 214.524 147.278 217.861C147.278 217.906 147.745 222.844 149.97 226.159C151.216 228.028 152.706 229.407 153.996 230.631C156.288 232.767 158.29 234.613 158.29 238.328V238.373H120.003Z" fill="#DBB3E8"/>
<path d="M90.9267 224.224C90.8822 224.224 87.1224 223.49 81.7832 219.485C79.2915 217.617 76.5329 214.168 74.108 211.12C73.485 210.342 72.9066 209.608 72.3282 208.896C71.1046 207.405 69.7475 205.981 68.3237 204.669C68.3237 204.669 62.2503 198.729 56.7998 200.753C57.6452 197.861 92.1948 159.218 93.6631 157.572L124.497 140.464L142.139 157.572V157.594C150.259 186.159 154.909 202.644 155.977 206.604C155.999 206.671 153.485 204.001 146.233 207.806C144.141 208.985 142.117 210.342 140.226 211.81L139.826 212.122C135.843 215.258 132.395 217.972 126.522 220.798C123.63 222.177 120.56 223.201 117.423 223.868H117.378V223.823C116.666 216.17 116.622 207.65 117.267 198.484C118.735 177.305 116.844 162.8 116.622 161.109L90.9712 224.246L90.9267 224.224Z" fill="#DBB3E8"/>
<path d="M84.9197 221.91C84.8529 221.91 84.7862 221.888 84.7195 221.866C84.497 221.754 84.408 221.487 84.497 221.265L118.958 148.228C119.069 148.006 119.336 147.917 119.558 148.006C119.781 148.117 119.87 148.384 119.781 148.606L85.3201 221.665C85.2534 221.821 85.0754 221.91 84.9197 221.91Z" fill="#333333"/>
<path d="M74.9084 212.344C74.8416 212.344 74.7526 212.322 74.6859 212.277C74.4634 212.166 74.3967 211.877 74.5079 211.677L108.635 150.23C108.746 150.008 109.035 149.941 109.235 150.052C109.458 150.164 109.525 150.453 109.413 150.653L75.2866 212.121C75.2198 212.255 75.0641 212.344 74.9084 212.344Z" fill="#333333"/>
<path d="M64.5189 202.333C64.4299 202.333 64.341 202.31 64.252 202.244C64.0517 202.088 64.0073 201.821 64.163 201.621L102.806 150.631C102.962 150.431 103.229 150.386 103.429 150.542C103.629 150.697 103.674 150.964 103.518 151.165L64.8749 202.155C64.7859 202.266 64.6524 202.333 64.5189 202.333Z" fill="#333333"/>
<path d="M149.236 207.071C149.035 207.071 148.857 206.938 148.791 206.715L137.111 153.234C137.067 152.989 137.2 152.767 137.445 152.7C137.689 152.655 137.912 152.789 137.979 153.033L149.658 206.515C149.703 206.76 149.569 206.982 149.325 207.049C149.302 207.071 149.258 207.071 149.236 207.071Z" fill="#333333"/>
<path d="M137.778 214.057C137.556 214.057 137.355 213.879 137.333 213.656L130.815 148.473C130.793 148.228 130.971 148.006 131.215 147.983C131.46 147.961 131.682 148.139 131.705 148.384L138.223 213.567C138.245 213.812 138.067 214.035 137.823 214.057C137.8 214.057 137.8 214.057 137.778 214.057Z" fill="#333333"/>
<path d="M126.544 221.243C126.299 221.243 126.099 221.042 126.099 220.82L123.674 144.001C123.674 143.756 123.852 143.556 124.097 143.534C124.341 143.512 124.541 143.712 124.564 143.957L126.989 220.775C126.989 221.02 126.811 221.243 126.544 221.243Z" fill="#333333"/>
<path d="M184.853 165.536C181.405 165.536 175.777 163.267 170.193 160.798C170.148 160.775 165.721 158.773 164.03 157.639L164.008 157.616L153.507 151.832L161.16 136.971L174.664 142.822C177.022 144.09 183.274 147.494 184.119 148.184C184.698 148.673 184.965 149.14 184.92 149.541C184.831 150.186 184.008 150.653 183.852 150.742L183.029 151.187L183.874 151.565C184.297 151.743 185.877 152.433 189.125 153.879C190.282 154.391 190.927 154.991 191.038 155.659C191.171 156.415 190.549 157.082 190.437 157.216L190.148 157.505L190.415 157.817C190.86 158.351 191.06 158.884 190.993 159.396C190.882 160.242 190.081 160.864 189.992 160.931L189.792 161.065V161.309C189.814 162.11 189.636 162.711 189.236 163.111C188.747 163.623 188.079 163.645 187.946 163.645H187.59L187.523 164.001C187.456 164.379 187.211 165.536 184.853 165.536Z" fill="white"/>
<path d="M161.382 137.55L174.486 143.223C177.734 144.958 183.118 147.939 183.852 148.54C184.297 148.918 184.519 149.252 184.497 149.496C184.452 149.808 184.03 150.164 183.652 150.364L182.005 151.232L183.718 151.966C184.141 152.144 185.721 152.833 188.969 154.279C189.947 154.724 190.548 155.236 190.615 155.725C190.704 156.282 190.148 156.86 190.125 156.882L189.569 157.461L190.081 158.084C190.459 158.529 190.615 158.929 190.548 159.307C190.459 159.997 189.747 160.509 189.725 160.531L189.347 160.798L189.369 161.265C189.391 161.932 189.236 162.444 188.946 162.755C188.568 163.134 188.034 163.156 187.967 163.156H187.256L187.122 163.868C187.055 164.202 186.877 165.047 184.875 165.047C181.516 165.047 175.932 162.8 170.415 160.353C170.37 160.331 165.965 158.328 164.319 157.216L164.274 157.194L164.23 157.171L154.13 151.61L161.382 137.55ZM160.96 136.415L152.906 152.032L163.785 158.017C165.52 159.196 169.97 161.198 170.014 161.22C175.643 163.69 181.316 165.981 184.853 165.981C186.677 165.981 187.723 165.336 187.967 164.068C188.168 164.068 188.969 164.024 189.569 163.401C190.036 162.911 190.259 162.199 190.237 161.265C190.392 161.154 191.282 160.464 191.416 159.441C191.505 158.796 191.282 158.15 190.748 157.505C190.904 157.349 191.638 156.526 191.483 155.57C191.349 154.747 190.615 154.035 189.325 153.456C186.032 151.988 184.43 151.298 184.074 151.143C184.363 150.987 185.276 150.453 185.387 149.608C185.454 149.029 185.142 148.428 184.43 147.85C183.385 146.982 175.242 142.6 174.886 142.422L160.96 136.415Z" fill="#333333"/>
<path d="M162.851 165.247C159.247 164.758 131.927 146.448 121.56 132.9C115.843 125.425 116.199 116.459 117.511 110.275V110.253L129.592 109.452L129.614 109.474C136.332 115.503 146.188 123.957 155.02 129.963C162.005 134.702 168.502 138.795 174.886 142.466L174.909 142.488V142.511C174.82 143.534 173.218 148.362 169.169 152.099C165.765 155.214 164.119 157.661 163.896 157.995C160.982 162.889 162.851 165.247 162.851 165.247Z" fill="#B666D2"/>
<path d="M182.984 151.721C182.917 151.721 182.873 151.699 182.806 151.676L177.2 149.251C176.977 149.162 176.866 148.895 176.977 148.673C177.066 148.451 177.333 148.339 177.556 148.451L183.162 150.875C183.384 150.964 183.496 151.231 183.384 151.454C183.318 151.61 183.162 151.721 182.984 151.721Z" fill="#333333"/>
<path d="M190.193 158.128C190.148 158.128 190.081 158.128 190.037 158.106C189.97 158.084 183.852 155.814 179.203 153.567C178.98 153.456 178.891 153.189 179.002 152.967C179.114 152.744 179.381 152.655 179.603 152.767C184.208 154.991 190.282 157.238 190.348 157.26C190.571 157.349 190.704 157.594 190.615 157.839C190.549 158.017 190.371 158.128 190.193 158.128Z" fill="#333333"/>
<path d="M189.725 161.621C189.658 161.621 189.614 161.599 189.547 161.576C189.48 161.554 182.072 158.44 177.867 156.482C177.645 156.371 177.556 156.104 177.645 155.881C177.756 155.659 178.023 155.57 178.246 155.659C182.428 157.616 189.814 160.709 189.881 160.753C190.103 160.842 190.214 161.109 190.125 161.332C190.059 161.51 189.903 161.621 189.725 161.621Z" fill="#333333"/>
<path d="M187.522 163.957C187.478 163.957 187.433 163.957 187.389 163.934C187.322 163.912 180.003 161.509 176.043 159.552C175.821 159.441 175.732 159.174 175.843 158.951C175.954 158.729 176.221 158.64 176.443 158.751C180.337 160.664 187.589 163.067 187.656 163.089C187.878 163.156 188.012 163.423 187.945 163.645C187.878 163.845 187.7 163.957 187.522 163.957Z" fill="#333333"/>
<path d="M175.554 160.931C175.487 160.931 175.42 160.909 175.353 160.887C175.131 160.775 175.042 160.509 175.176 160.286L179.514 151.966C179.625 151.743 179.892 151.654 180.114 151.788C180.337 151.899 180.426 152.166 180.292 152.388L175.954 160.686C175.865 160.842 175.709 160.931 175.554 160.931Z" fill="#333333"/>
<path d="M125.632 147.116L93.6406 157.705L113.93 111.432L128.502 109.541V109.585C128.502 109.585 134.597 130.987 141.071 153.79L142.184 157.728L125.632 147.116Z" fill="#B666D2"/>
<path d="M124.519 139.196L129.925 134.101L125.988 117.194H123.029L119.113 134.101L124.519 139.196Z" fill="#333333"/>
<path d="M121.983 114.257L123.029 117.194H125.988L127.033 114.257H121.983Z" fill="#333333"/>
<path d="M125.632 147.116L93.6406 157.705L111.527 116.949L124.519 129.696L131.194 118.907L131.216 118.996C133.596 127.36 137.289 140.33 141.116 153.79L142.228 157.728L125.632 147.116Z" fill="#B666D2"/>
<path d="M93.7074 158.106C93.5294 158.106 93.3514 157.995 93.2847 157.794C93.218 157.572 93.3292 157.305 93.5739 157.238L125.498 146.671C125.632 146.626 125.765 146.649 125.877 146.715L142.384 157.283C142.584 157.416 142.651 157.683 142.517 157.906C142.384 158.106 142.117 158.173 141.894 158.039L125.565 147.583L93.8409 158.084C93.7964 158.106 93.7519 158.106 93.7074 158.106Z" fill="#333333"/>
<path d="M140.093 150.831C139.892 150.831 139.714 150.697 139.67 150.497L134.442 132.143C134.375 131.899 134.509 131.654 134.753 131.587C134.998 131.521 135.243 131.654 135.31 131.899L140.538 150.253C140.604 150.497 140.471 150.742 140.226 150.809C140.182 150.831 140.137 150.831 140.093 150.831Z" fill="#333333"/>
<path d="M121.961 178.929C118.779 178.929 113.484 176.927 105.765 172.833C105.72 172.811 101.16 170.453 98.8682 169.074L91.46 165.069L99.0017 147.338L112.862 154.368C114.53 155.525 116.065 156.526 117.422 157.416L117.444 157.438C120.426 159.396 122.784 160.931 122.984 161.732C123.117 162.244 123.14 163.134 121.961 163.556L120.959 163.912L127.411 167.116C128.501 167.65 129.747 168.54 129.48 169.719C129.347 170.297 128.902 170.764 128.79 170.853L128.479 171.12L128.724 171.454C129.191 172.121 129.369 172.722 129.213 173.234C128.991 174.035 128.056 174.502 127.967 174.546L127.656 174.68L127.7 175.013C127.812 175.636 127.7 176.148 127.389 176.504C126.766 177.26 125.476 177.305 125.32 177.327H125.053L124.942 177.572C124.452 178.484 123.473 178.929 121.961 178.929Z" fill="white"/>
<path d="M99.2245 147.961L112.639 154.769C114.286 155.903 115.843 156.927 117.2 157.817L117.222 157.839C118.802 158.884 120.181 159.774 121.138 160.508C122.384 161.443 122.539 161.799 122.562 161.866C122.806 162.822 122.05 163.089 121.805 163.156L119.825 163.868L121.716 164.802L127.233 167.538C128.19 168.006 129.258 168.762 129.058 169.652C128.969 170.075 128.635 170.453 128.524 170.542L127.879 171.076L128.368 171.743C128.768 172.277 128.902 172.767 128.791 173.145C128.657 173.634 128.079 174.035 127.767 174.168L127.167 174.457L127.278 175.125C127.367 175.614 127.278 175.992 127.055 176.259C126.655 176.749 125.743 176.904 125.32 176.927L124.786 176.949L124.542 177.416C123.963 178.551 122.473 178.551 121.983 178.551C118.869 178.551 113.64 176.571 105.988 172.5C105.943 172.477 101.405 170.119 99.1132 168.762H99.091H99.0687L92.0387 164.958L99.2245 147.961ZM98.7795 146.715L90.8818 165.269L98.6238 169.452C100.937 170.831 105.498 173.189 105.543 173.211C113.329 177.349 118.691 179.374 121.961 179.374C123.629 179.374 124.764 178.818 125.32 177.75C125.543 177.75 126.966 177.661 127.723 176.771C128.123 176.304 128.257 175.681 128.146 174.924C128.346 174.836 129.369 174.302 129.636 173.323C129.814 172.655 129.636 171.943 129.058 171.165C129.236 171.009 129.747 170.475 129.903 169.785C130.081 168.985 129.836 167.783 127.612 166.693L122.094 163.957C122.495 163.823 123.83 163.223 123.407 161.599C123.162 160.642 120.982 159.218 117.689 157.06C116.31 156.148 114.753 155.147 113.084 153.99L98.7795 146.715Z" fill="#333333"/>
<path d="M98.4015 177.349C97.9343 177.349 97.4893 177.283 97.0667 177.171H97.0444V177.149C96.9777 177.06 95.6651 174.969 98.6462 169.385L98.6684 169.34L105.676 173.145L105.654 173.189C105.587 173.256 102.25 177.349 98.4015 177.349Z" fill="#333333"/>
<path d="M97.0443 177.171C91.4158 173.567 86.2768 168.606 82.5393 163.178C78.6461 157.505 76.5993 151.721 76.7995 146.871C76.9553 142.911 78.5126 136.726 84.9864 129.741C91.4826 122.733 101.538 116.348 114.886 110.764H114.909L117.222 112.366L99.7807 144.913C104.097 148.184 109.325 151.743 113.084 153.99L113.129 154.012L113.107 154.057C113.084 154.079 111.349 156.971 107.523 160.108C106.989 160.553 106.477 160.953 106.01 161.332C103.162 163.601 101.093 165.247 98.7351 169.429C95.754 174.858 97.0443 177.171 97.0443 177.171Z" fill="#B666D2"/>
<path d="M120.382 164.112C120.315 164.112 120.248 164.09 120.182 164.068L116.155 162.043C115.932 161.932 115.843 161.665 115.955 161.443C116.066 161.22 116.333 161.131 116.555 161.243L120.582 163.267C120.804 163.378 120.893 163.645 120.782 163.868C120.693 164.023 120.538 164.112 120.382 164.112Z" fill="#333333"/>
<path d="M128.301 171.61C128.257 171.61 128.212 171.61 128.168 171.587C124.163 170.386 119.358 168.161 116.866 166.938C116.644 166.827 116.555 166.56 116.666 166.337C116.777 166.115 117.044 166.026 117.267 166.137C119.736 167.338 124.475 169.563 128.435 170.742C128.679 170.809 128.813 171.054 128.724 171.298C128.679 171.476 128.501 171.61 128.301 171.61Z" fill="#333333"/>
<path d="M127.611 175.125C127.567 175.125 127.522 175.125 127.478 175.103C127.411 175.08 120.626 173.034 115.197 170.52C114.975 170.408 114.886 170.141 114.975 169.919C115.086 169.697 115.353 169.608 115.576 169.697C120.937 172.188 127.656 174.213 127.723 174.235C127.967 174.302 128.101 174.546 128.012 174.791C127.989 174.991 127.812 175.125 127.611 175.125Z" fill="#333333"/>
<path d="M124.831 177.705C124.809 177.705 124.787 177.705 124.742 177.705C124.564 177.683 120.293 176.86 113.819 173.701C113.596 173.59 113.507 173.323 113.619 173.1C113.73 172.878 113.997 172.789 114.219 172.9C120.582 175.992 124.876 176.816 124.92 176.816C125.165 176.86 125.321 177.083 125.276 177.327C125.232 177.55 125.031 177.705 124.831 177.705Z" fill="#333333"/>
<path d="M99.7142 145.358C99.6475 145.358 99.5808 145.336 99.514 145.314C99.2915 145.202 99.2248 144.936 99.336 144.713L106.255 131.832C106.366 131.61 106.633 131.543 106.856 131.654C107.078 131.765 107.145 132.032 107.033 132.255L100.115 145.113C100.026 145.269 99.87 145.358 99.7142 145.358Z" fill="#333333"/>
<path d="M113.284 155.147C113.195 155.147 113.106 155.125 113.017 155.058L95.0415 142.266C94.8413 142.132 94.7968 141.843 94.9303 141.643C95.0638 141.443 95.353 141.398 95.5532 141.532L113.529 154.324C113.729 154.457 113.773 154.747 113.64 154.947C113.551 155.08 113.418 155.147 113.284 155.147Z" fill="#333333"/>
<path d="M125.654 147.516C125.432 147.516 125.231 147.338 125.209 147.094L124.074 129.696C124.052 129.452 124.252 129.229 124.497 129.229C124.742 129.207 124.964 129.407 124.964 129.652L126.099 147.049C126.121 147.294 125.921 147.516 125.676 147.516H125.654Z" fill="#333333"/>
<path d="M124.608 130.386L107.923 114.146C107.745 113.968 107.745 113.701 107.923 113.523C108.101 113.345 108.368 113.345 108.546 113.523L124.43 129.007L134.041 113.612C134.174 113.412 134.441 113.345 134.664 113.478C134.886 113.612 134.931 113.879 134.797 114.101L124.608 130.386Z" fill="#333333"/>
<path d="M119.358 136.282C120.353 136.282 121.16 135.475 121.16 134.48C121.16 133.484 120.353 132.677 119.358 132.677C118.363 132.677 117.556 133.484 117.556 134.48C117.556 135.475 118.363 136.282 119.358 136.282Z" fill="#333333"/>
<path d="M119.358 143.467C120.353 143.467 121.16 142.66 121.16 141.665C121.16 140.67 120.353 139.863 119.358 139.863C118.363 139.863 117.556 140.67 117.556 141.665C117.556 142.66 118.363 143.467 119.358 143.467Z" fill="#333333"/>
<path d="M124.386 114.413C121.717 114.413 119.447 112.5 117.979 109.051C113.552 98.5506 115.309 94.5684 119.559 91.5429C119.581 91.5206 123.341 88.9845 127.723 88.9845C129.458 88.9845 131.06 89.3849 132.506 90.1635C135.91 92.01 136.444 98.6619 133.774 105.647C131.772 110.898 127.99 114.413 124.386 114.413Z" fill="white"/>
<path d="M127.723 89.4516C129.392 89.4516 130.927 89.8298 132.306 90.5862C133.775 91.387 134.709 93.2558 134.976 95.8809C135.243 98.7063 134.687 102.11 133.374 105.514C131.439 110.586 127.812 113.99 124.386 113.99C121.917 113.99 119.781 112.188 118.402 108.895C114.108 98.6841 115.755 94.8353 119.826 91.9432C119.982 91.8097 123.563 89.4516 127.723 89.4516ZM127.723 88.5617C123.163 88.5617 119.314 91.1868 119.314 91.1868C114.553 94.5684 113.307 99.1067 117.579 109.229C119.225 113.122 121.739 114.858 124.386 114.858C128.079 114.858 132.039 111.476 134.197 105.825C137 98.5061 136.289 91.7207 132.729 89.7853C131.061 88.8954 129.348 88.5617 127.723 88.5617Z" fill="#333333"/>
<path d="M119.314 91.1868C115.176 94.1234 113.708 97.9276 116.177 105.514C123.541 102.577 123.274 92.4104 123.274 92.4104C129.414 97.1713 135.932 96.882 135.932 96.882C135.843 93.5005 134.731 90.8976 132.751 89.8075C126.388 86.3592 119.314 91.1868 119.314 91.1868Z" fill="#333333"/>
<path d="M129.569 104.935C129.391 104.935 129.236 104.846 129.169 104.669C129.08 104.446 129.169 104.179 129.391 104.09C129.658 103.979 129.903 103.756 130.059 103.489C130.303 103.067 130.348 101.999 130.17 99.9077C130.148 99.6629 130.326 99.4405 130.57 99.4182C130.815 99.396 131.038 99.574 131.06 99.8187C131.26 102.221 131.193 103.289 130.815 103.934C130.57 104.357 130.17 104.713 129.747 104.891C129.681 104.913 129.636 104.935 129.569 104.935Z" fill="#333333"/>
<path d="M126.966 101.532C126.966 101.532 126.944 101.532 126.966 101.532C126.699 101.532 126.521 101.309 126.521 101.065L126.544 100.508C126.544 100.264 126.766 100.064 127.011 100.086C127.256 100.086 127.456 100.308 127.434 100.553L127.411 101.109C127.411 101.354 127.211 101.532 126.966 101.532Z" fill="#333333"/>
<path d="M133.085 100.419C133.085 100.419 133.062 100.419 133.085 100.419C132.818 100.419 132.64 100.197 132.64 99.9522L132.662 99.4182C132.662 99.1735 132.884 98.9733 133.129 98.9955C133.374 98.9955 133.574 99.218 133.552 99.4627L133.53 99.9967C133.53 100.241 133.329 100.419 133.085 100.419Z" fill="#333333"/>
<path d="M127.745 107.672C126.5 107.672 125.499 106.671 125.499 105.447C125.499 105.202 125.699 105.002 125.943 105.002C126.188 105.002 126.388 105.202 126.388 105.447C126.388 106.181 126.989 106.782 127.745 106.782C127.79 106.782 127.834 106.782 127.879 106.782C127.946 106.782 128.012 106.76 128.079 106.76C128.324 106.76 128.524 106.96 128.524 107.205C128.524 107.449 128.324 107.65 128.079 107.65C128.035 107.65 127.99 107.65 127.946 107.65C127.879 107.672 127.812 107.672 127.745 107.672Z" fill="#333333"/>
<path d="M149.102 225.447C148.947 225.447 148.791 225.358 148.702 225.225C148.613 225.047 148.635 224.824 148.791 224.669L168.279 207.65C168.635 207.316 169.036 207.071 169.369 206.893C170.793 206.115 172.417 205.959 173.975 206.426C175.532 206.893 176.8 207.917 177.556 209.341L177.779 209.763C178.001 210.186 178.157 210.586 178.29 211.009C178.735 212.566 178.535 214.19 177.757 215.592C176.978 216.994 175.688 218.017 174.13 218.44L149.214 225.425C149.191 225.447 149.147 225.447 149.102 225.447ZM172.262 207.049C171.416 207.049 170.593 207.249 169.837 207.672C169.547 207.828 169.191 208.05 168.902 208.317L150.882 224.046L173.908 217.594C175.243 217.216 176.333 216.348 177 215.147C177.668 213.946 177.846 212.566 177.467 211.232C177.378 210.876 177.223 210.52 177.045 210.164L176.822 209.741C176.177 208.54 175.087 207.65 173.752 207.249C173.263 207.116 172.751 207.049 172.262 207.049Z" fill="#333333"/>
<path d="M169.836 233.745C169.658 233.745 169.48 233.634 169.413 233.434C167.856 228.896 164.007 226.159 157.978 225.336C153.596 224.735 149.591 225.425 149.235 225.492L143.54 227.294C143.295 227.361 143.051 227.227 142.984 227.005C142.917 226.782 143.051 226.515 143.273 226.448L148.991 224.646C149.013 224.646 149.035 224.646 149.035 224.624C149.213 224.602 153.351 223.823 158.067 224.469C164.386 225.314 168.59 228.317 170.259 233.145C170.348 233.367 170.214 233.634 169.992 233.701C169.925 233.745 169.881 233.745 169.836 233.745Z" fill="#333333"/>
<path d="M57.2667 223.534C57.2 223.534 57.111 223.512 57.0443 223.467L36.6438 211.921C34.9753 210.987 33.7739 209.452 33.2622 207.605C32.7506 205.759 32.9953 203.823 33.9297 202.177C34.2411 201.621 34.6638 201.065 35.22 200.531L35.6649 200.108C37.0442 198.795 38.8462 198.084 40.7595 198.128C42.6727 198.173 44.4525 198.951 45.765 200.331C46.2322 200.82 46.6327 201.376 46.9664 201.999L57.6449 222.867C57.7339 223.045 57.6894 223.245 57.5559 223.401C57.4892 223.49 57.378 223.534 57.2667 223.534ZM40.6037 199.018C39.0465 199.018 37.4892 199.596 36.2656 200.753L35.8206 201.176C35.3535 201.621 34.9753 202.11 34.7083 202.6C33.8852 204.068 33.6627 205.759 34.1299 207.361C34.5748 208.962 35.6204 210.319 37.0887 211.143L56.1989 221.955L46.1877 202.399C45.8985 201.843 45.5426 201.354 45.1199 200.931C43.8963 199.663 42.2723 199.018 40.6037 199.018Z" fill="#333333"/>
<path d="M56.199 232.922C56.0656 232.922 55.9543 232.878 55.8653 232.767L51.7496 228.073C51.5939 227.895 51.6162 227.605 51.7941 227.45C51.9721 227.294 52.2613 227.316 52.4171 227.494L56.5327 232.188C56.6885 232.366 56.6662 232.655 56.4883 232.811C56.3993 232.878 56.3103 232.922 56.199 232.922Z" fill="#333333"/>
<path d="M147.901 233.39C147.79 233.39 147.656 233.345 147.567 233.234C147.412 233.056 147.412 232.767 147.59 232.611L151.972 228.629C152.15 228.473 152.439 228.473 152.595 228.651C152.751 228.829 152.751 229.118 152.573 229.274L148.19 233.256C148.123 233.345 148.012 233.39 147.901 233.39Z" fill="#333333"/>
<path d="M62.2499 227.539C62.1609 227.539 62.0497 227.516 61.9829 227.45L57.1998 223.712C53.4178 224.869 50.014 224.268 46.9884 223.712C43.1397 223.023 39.8027 222.422 36.4656 225.403C36.2877 225.559 35.9984 225.559 35.8427 225.358C35.687 225.18 35.687 224.891 35.8872 224.736C39.558 221.465 43.251 222.133 47.1664 222.822C50.281 223.378 53.4846 223.957 57.1776 222.778C57.311 222.733 57.4668 222.756 57.6003 222.845L62.5613 226.738C62.7616 226.893 62.7838 227.16 62.6281 227.361C62.5168 227.472 62.3834 227.539 62.2499 227.539Z" fill="#333333"/>
<path d="M72.7509 238.773C72.7064 238.773 72.6396 238.773 72.5951 238.751C72.3727 238.662 72.2392 238.417 72.3282 238.173C74.3749 232.411 81.2047 227.249 89.0579 228.54C89.3026 228.584 89.4583 228.807 89.4138 229.051C89.3694 229.296 89.1469 229.452 88.9022 229.407C81.5162 228.184 75.0868 233.056 73.1513 238.462C73.1068 238.662 72.9288 238.773 72.7509 238.773Z" fill="#333333"/>
<path d="M133.508 238.773C133.307 238.773 133.129 238.64 133.063 238.417C132.15 234.324 129.525 232.01 127.456 230.764C124.52 228.985 120.849 228.34 118.09 229.096C117.846 229.163 117.601 229.029 117.534 228.784C117.467 228.54 117.601 228.295 117.846 228.228C120.805 227.405 124.764 228.117 127.901 230.008C130.104 231.321 132.929 233.835 133.908 238.217C133.952 238.462 133.819 238.684 133.574 238.751C133.574 238.773 133.53 238.773 133.508 238.773Z" fill="#333333"/>
<path d="M310.927 216.549C310.905 216.504 308.191 211.744 305.076 204.624V204.602L305.098 204.58C305.143 204.536 308.658 200.331 312.217 199.619C312.729 199.508 313.196 199.463 313.641 199.463C315.888 199.463 316.622 200.754 316.622 200.754C318.402 206.782 311.083 216.438 310.994 216.527L310.949 216.571L310.927 216.549Z" fill="#333333"/>
<path d="M226.21 217.906C216.177 213.012 217.4 206.671 217.423 206.627C217.445 206.582 217.979 205.603 220.048 205.603C220.292 205.603 220.537 205.603 220.804 205.626C223.919 205.848 227.1 207.694 227.122 207.717L227.145 207.739V207.761C227.033 211.143 226.722 214.547 226.255 217.884V217.95L226.21 217.906Z" fill="#333333"/>
<path d="M215.154 238.373V238.329C215.154 234.613 217.134 232.767 219.447 230.631C220.76 229.43 222.228 228.05 223.496 226.159C225.721 222.845 226.188 217.906 226.188 217.861C226.656 214.524 226.967 211.121 227.078 207.739V203.623L255.933 220.309L256.044 223.868C255.888 225.537 255.71 227.161 255.488 228.718V228.762H255.443C254.909 228.718 254.397 228.718 253.886 228.718C246.233 228.718 238.914 232.322 234.264 238.373L234.242 238.395H215.154V238.373V238.373Z" fill="#FF5573"/>
<path d="M240.916 238.373L239.781 232.989L239.803 232.967C243.941 230.119 248.791 228.607 253.841 228.607H253.886C254.398 228.607 254.909 228.629 255.443 228.651H255.488V228.696C254.598 235.081 253.485 238.284 253.463 238.329V238.351L240.916 238.373Z" fill="#333333"/>
<path d="M308.591 238.373C303.919 232.322 296.577 228.718 288.924 228.718C287.434 228.718 285.943 228.851 284.475 229.118H284.431L281.116 221.021L287.656 202.756L305.12 204.558V204.58C308.235 211.699 310.927 216.438 310.971 216.482C313.819 221.243 316.355 224.936 323.096 229.274C326.7 231.61 328.524 233.924 329.414 235.481C330.393 237.15 330.504 238.306 330.504 238.306V238.351H308.591V238.373Z" fill="#FF5573"/>
<path d="M288.235 238.373L284.408 229.029H284.453C285.921 228.762 287.434 228.629 288.924 228.629H288.969C293.285 228.629 297.556 229.764 301.294 231.922L301.316 231.944L300.76 238.395L288.235 238.373Z" fill="#333333"/>
<path d="M188.924 165.425C186.655 165.425 186.121 164.58 185.921 163.935L185.832 163.623H185.521C185.343 163.623 184.697 163.579 184.23 163.089C183.852 162.689 183.652 162.088 183.674 161.287V161.043L183.474 160.909C183.385 160.842 182.584 160.242 182.473 159.374C182.406 158.863 182.606 158.329 183.051 157.795L183.318 157.483L183.029 157.194C182.962 157.127 182.295 156.415 182.428 155.637C182.539 154.969 183.185 154.369 184.341 153.857C187.567 152.411 189.169 151.721 189.592 151.543L190.437 151.165L189.614 150.72C189.458 150.631 188.635 150.164 188.546 149.519C188.502 149.096 188.746 148.651 189.347 148.162C190.126 147.494 195.665 144.469 198.802 142.778C205.209 139.085 211.728 134.992 218.713 130.253C227.456 124.313 237.2 115.97 243.919 109.941L251.772 115.481C252.973 121.421 252.551 130.876 252.484 132.211C243.407 140.487 229.614 149.341 221.472 153.167C205.788 160.553 194.264 165.425 188.924 165.425Z" fill="white"/>
<path d="M243.941 110.564L251.372 115.792C252.484 121.443 252.128 130.208 252.039 132.055C243.007 140.264 229.347 149.029 221.271 152.811C205.676 160.108 194.197 164.98 188.924 164.98C186.722 164.98 186.455 164.113 186.344 163.801L186.143 163.201L185.498 163.178C185.387 163.178 184.875 163.156 184.519 162.778C184.23 162.466 184.074 161.977 184.097 161.287L184.119 160.82L183.741 160.553C183.719 160.531 183.007 160.019 182.918 159.33C182.873 158.929 183.029 158.529 183.385 158.106L183.896 157.483L183.34 156.905C183.318 156.882 182.762 156.304 182.851 155.748C182.94 155.258 183.518 154.747 184.497 154.302C187.723 152.856 189.325 152.166 189.747 151.988L191.46 151.254L189.814 150.386C189.436 150.186 189.013 149.83 188.969 149.519C188.947 149.274 189.169 148.918 189.614 148.562C190.281 148.006 194.953 145.403 199.002 143.245H199.024H199.047C205.454 139.574 211.972 135.459 218.98 130.698C227.59 124.802 237.223 116.571 243.941 110.564ZM243.874 109.43L243.852 109.452C237.134 115.481 227.278 123.935 218.446 129.941C211.461 134.68 204.964 138.773 198.58 142.444C198.224 142.622 190.081 147.005 189.036 147.872C188.324 148.473 188.012 149.052 188.101 149.63C188.212 150.475 189.125 151.009 189.414 151.165C189.036 151.321 187.456 152.01 184.163 153.479C182.873 154.057 182.139 154.769 182.006 155.592C181.85 156.549 182.562 157.372 182.74 157.528C182.206 158.151 181.983 158.818 182.072 159.463C182.206 160.486 183.118 161.176 183.251 161.287C183.229 162.222 183.452 162.934 183.919 163.423C184.519 164.024 185.298 164.09 185.521 164.09C185.899 165.292 187.033 165.892 188.947 165.892C194.375 165.892 205.966 160.998 221.672 153.634C229.903 149.786 243.852 140.82 252.929 132.5L252.951 132.478V132.455C252.951 132.344 253.552 121.665 252.217 115.281V115.258L243.874 109.43Z" fill="#333333"/>
<path d="M190.459 151.721C190.281 151.721 190.126 151.61 190.059 151.454C189.97 151.232 190.059 150.965 190.281 150.876L195.888 148.451C196.11 148.362 196.377 148.451 196.466 148.673C196.555 148.896 196.466 149.163 196.244 149.252L190.637 151.677C190.571 151.699 190.526 151.721 190.459 151.721Z" fill="#333333"/>
<path d="M183.251 158.128C183.073 158.128 182.895 158.017 182.829 157.839C182.74 157.617 182.873 157.35 183.096 157.261C183.162 157.238 189.236 154.991 193.841 152.767C194.063 152.656 194.33 152.745 194.442 152.967C194.553 153.189 194.464 153.456 194.241 153.568C189.614 155.815 183.474 158.084 183.407 158.106C183.363 158.128 183.296 158.128 183.251 158.128Z" fill="#333333"/>
<path d="M183.718 161.621C183.54 161.621 183.385 161.51 183.318 161.354C183.229 161.132 183.34 160.865 183.563 160.776C183.629 160.753 191.015 157.639 195.198 155.681C195.42 155.57 195.687 155.681 195.798 155.904C195.91 156.126 195.798 156.393 195.576 156.504C191.371 158.462 183.985 161.577 183.896 161.599C183.83 161.621 183.785 161.621 183.718 161.621Z" fill="#333333"/>
<path d="M185.921 163.957C185.743 163.957 185.565 163.846 185.498 163.646C185.431 163.423 185.543 163.156 185.787 163.089C185.854 163.067 193.129 160.664 197 158.751C197.222 158.64 197.489 158.729 197.6 158.951C197.712 159.174 197.623 159.441 197.4 159.552C193.462 161.51 186.143 163.913 186.054 163.935C186.01 163.957 185.965 163.957 185.921 163.957Z" fill="#333333"/>
<path d="M197.89 160.931C197.734 160.931 197.579 160.842 197.49 160.687L193.151 152.366C193.04 152.144 193.129 151.877 193.329 151.766C193.552 151.654 193.819 151.743 193.93 151.944L198.268 160.264C198.38 160.487 198.291 160.753 198.09 160.865C198.024 160.909 197.957 160.931 197.89 160.931Z" fill="#333333"/>
<path d="M242.295 100.776L222.762 117.617C223.163 119.53 224.408 121.176 226.144 122.11C228.346 123.312 229.281 123.912 229.97 125.492L227.723 129.319C227.723 129.319 229.748 136.059 238.291 135.169L245.632 109.83L242.295 100.776Z" fill="#FF5573"/>
<path d="M229.948 125.937C229.859 125.937 229.792 125.915 229.703 125.87C229.503 125.737 229.436 125.47 229.569 125.247L237.645 112.433C237.779 112.233 238.046 112.166 238.268 112.3C238.468 112.433 238.535 112.7 238.402 112.922L230.326 125.737C230.237 125.87 230.103 125.937 229.948 125.937Z" fill="#333333"/>
<path d="M259.514 111.454L244.92 109.563V109.608C244.92 109.608 242.495 118.106 239.091 130.075L250.771 137.661L273.619 133.167C265.632 120.865 259.692 111.743 259.514 111.454Z" fill="white"/>
<path d="M268.568 225.848C258.179 225.848 247.011 221.421 234.397 212.277C232.083 210.631 229.658 209.141 227.144 207.828C219.803 204.358 217.378 206.693 217.4 206.627C218.468 202.667 223.14 186.182 231.26 157.617L232.35 153.79C235.398 143.023 238.379 132.567 240.67 124.535V124.513H240.737C241.382 124.513 247.166 124.736 250.392 132.366C254.019 124.869 261.382 123.757 265.476 123.757C266.744 123.757 267.545 123.868 267.567 123.868H267.589V123.89C282.117 146.271 315.954 198.551 316.622 200.798C314.708 198.907 310.237 199.485 305.098 204.714C304.808 205.025 303.14 206.782 301.093 208.94C293.618 216.794 283.162 225.848 268.568 225.848Z" fill="#F696BB"/>
<path d="M250.281 132.878C250.103 132.878 249.948 132.767 249.881 132.611C246.655 124.914 240.871 124.958 240.626 124.958C240.381 124.958 240.181 124.78 240.181 124.535C240.181 124.291 240.359 124.09 240.604 124.068C240.871 124.068 246.789 123.979 250.326 131.41C253.018 126.538 257.356 124.602 260.626 123.846C264.341 122.978 267.389 123.423 267.523 123.445C267.767 123.49 267.923 123.712 267.901 123.957C267.856 124.202 267.634 124.357 267.389 124.335C267.367 124.335 264.341 123.912 260.804 124.736C256.088 125.826 252.684 128.495 250.704 132.655C250.615 132.789 250.459 132.878 250.281 132.878Z" fill="#333333"/>
<path d="M251.906 178.773C250.215 178.773 249.058 178.351 248.502 177.505L248.368 177.305H248.146C247.612 177.283 246.589 177.105 246.077 176.482C245.766 176.104 245.654 175.614 245.766 174.991L245.81 174.658L245.499 174.524C245.387 174.48 244.475 174.013 244.253 173.212C244.097 172.678 244.275 172.077 244.742 171.432L244.965 171.121L244.675 170.854C244.586 170.765 243.83 170.053 243.941 169.207C244.03 168.451 244.742 167.739 246.033 167.116L252.484 163.913L251.483 163.557C250.971 163.379 250.148 162.889 250.46 161.732C250.66 160.954 253.018 159.396 255.977 157.439C257.356 156.527 258.914 155.525 260.582 154.369C264.542 152.01 272.595 146.671 276.667 143.601L277 143.356L257.201 111.855L259.025 110.03C271.728 115.37 281.717 121.888 288.747 129.43C295.91 137.105 297.201 142.867 297.423 144.446C298.157 149.519 297.468 156.349 285.677 164.068C277.979 169.185 260.159 178.773 251.906 178.773Z" fill="white"/>
<path d="M259.136 110.542C271.639 115.837 281.494 122.266 288.435 129.719C295.51 137.305 296.778 142.956 297 144.513C297.312 146.693 297.468 149.652 295.888 153.056C294.175 156.705 290.682 160.286 285.454 163.712C282.095 165.959 275.71 169.719 268.791 172.989C261.316 176.504 255.465 178.373 251.928 178.373C250.393 178.373 249.37 178.017 248.902 177.305L248.658 176.927L248.213 176.905C247.79 176.883 246.878 176.749 246.478 176.237C246.255 175.97 246.188 175.592 246.255 175.103L246.366 174.435L245.766 174.146C245.454 173.99 244.898 173.612 244.742 173.123C244.631 172.745 244.787 172.255 245.165 171.721L245.632 171.076L245.054 170.542C245.031 170.52 244.386 169.919 244.453 169.274C244.542 168.54 245.499 167.917 246.3 167.517L251.817 164.78L253.708 163.846L251.728 163.134C251.483 163.045 250.727 162.778 250.971 161.844C250.994 161.777 251.149 161.421 252.395 160.486C253.352 159.752 254.731 158.862 256.311 157.817C257.69 156.927 259.225 155.904 260.894 154.747C264.876 152.366 272.929 147.049 277 143.957L277.646 143.468L277.201 142.778L257.801 111.921L259.136 110.542ZM258.914 109.474L256.622 111.766L276.4 143.223C272.351 146.293 264.32 151.61 260.337 153.968C258.669 155.125 257.112 156.148 255.732 157.038C252.44 159.196 250.26 160.62 250.015 161.577C249.592 163.201 250.927 163.801 251.327 163.935L245.81 166.671C244.364 167.383 243.585 168.206 243.474 169.118C243.341 170.164 244.186 170.987 244.342 171.143C243.786 171.921 243.585 172.633 243.786 173.301C244.053 174.28 245.076 174.814 245.276 174.903C245.165 175.659 245.298 176.282 245.699 176.749C246.455 177.639 247.901 177.706 248.102 177.728C248.747 178.685 250.015 179.174 251.884 179.174C260.248 179.174 278.179 169.541 285.921 164.38C297.913 156.527 298.602 149.541 297.846 144.335C297.623 142.711 296.289 136.838 289.058 129.074C281.939 121.443 271.817 114.836 258.936 109.474H258.914Z" fill="#333333"/>
<path d="M253.063 164.113C252.907 164.113 252.751 164.024 252.662 163.868C252.551 163.646 252.64 163.379 252.862 163.267L256.889 161.243C257.112 161.132 257.378 161.221 257.49 161.443C257.601 161.666 257.512 161.933 257.289 162.044L253.263 164.068C253.196 164.09 253.129 164.113 253.063 164.113Z" fill="#333333"/>
<path d="M245.143 171.61C244.942 171.61 244.764 171.476 244.72 171.298C244.653 171.054 244.787 170.809 245.009 170.742C248.969 169.563 253.708 167.361 256.177 166.137C256.4 166.026 256.667 166.115 256.778 166.337C256.889 166.56 256.8 166.827 256.578 166.938C254.086 168.162 249.281 170.386 245.276 171.588C245.232 171.61 245.187 171.61 245.143 171.61Z" fill="#333333"/>
<path d="M245.832 175.125C245.632 175.125 245.454 174.992 245.41 174.814C245.343 174.569 245.477 174.324 245.699 174.257C245.766 174.235 252.484 172.211 257.846 169.719C258.068 169.608 258.335 169.719 258.447 169.942C258.558 170.164 258.447 170.431 258.224 170.542C252.818 173.056 246.01 175.103 245.944 175.125C245.921 175.125 245.877 175.125 245.832 175.125Z" fill="#333333"/>
<path d="M248.613 177.706C248.412 177.706 248.212 177.55 248.168 177.35C248.123 177.105 248.279 176.883 248.524 176.838C248.568 176.838 252.862 176.015 259.224 172.923C259.447 172.811 259.714 172.9 259.825 173.123C259.936 173.345 259.847 173.612 259.625 173.723C253.151 176.883 248.88 177.683 248.702 177.728C248.657 177.706 248.635 177.706 248.613 177.706Z" fill="#333333"/>
<path d="M247.701 166.404C247.545 166.404 247.389 166.315 247.3 166.182L241.939 156.46C241.827 156.237 241.894 155.97 242.117 155.859C242.339 155.748 242.606 155.815 242.717 156.037L248.079 165.759C248.19 165.981 248.123 166.248 247.901 166.36C247.856 166.382 247.767 166.404 247.701 166.404Z" fill="#333333"/>
<path d="M240.716 162.511C240.671 162.511 240.627 162.511 240.582 162.489C240.337 162.422 240.226 162.155 240.293 161.933L242.117 156.148C242.162 156.037 242.228 155.948 242.34 155.881C242.451 155.837 242.562 155.815 242.673 155.859L248.324 157.795C248.547 157.884 248.68 158.128 248.591 158.351C248.502 158.573 248.257 158.707 248.035 158.618L242.807 156.838L241.116 162.177C241.072 162.4 240.894 162.511 240.716 162.511Z" fill="#333333"/>
<path d="M241.693 156.754C246.064 154.672 247.975 149.559 245.963 145.332C243.951 141.106 238.776 139.366 234.405 141.447C230.034 143.529 228.122 148.642 230.135 152.869C232.147 157.095 237.322 158.835 241.693 156.754Z" fill="#FF5573"/>
<path d="M238.046 149.875C238.476 149.875 238.824 149.526 238.824 149.096C238.824 148.666 238.476 148.317 238.046 148.317C237.616 148.317 237.267 148.666 237.267 149.096C237.267 149.526 237.616 149.875 238.046 149.875Z" fill="#333333"/>
<path d="M257.134 98.9736L287.034 112.455C285.387 114.413 284.231 116.704 283.652 119.196C282.384 124.914 280.738 126.159 278.046 127.049L274.664 123.912C269.726 125.937 270.17 132.455 261.628 131.788L254.642 105.959L257.134 98.9736Z" fill="#FF5573"/>
<path d="M224.342 225.448C224.297 225.448 224.253 225.448 224.23 225.425L199.314 218.44C196.11 217.528 194.219 214.191 195.131 210.987C195.243 210.564 195.421 210.164 195.643 209.741L195.865 209.318C197.445 206.382 201.138 205.292 204.052 206.871C204.408 207.072 204.809 207.316 205.165 207.65L224.653 224.669C224.809 224.802 224.853 225.025 224.742 225.225C224.653 225.359 224.497 225.448 224.342 225.448ZM201.183 207.049C199.358 207.049 197.578 208.028 196.644 209.763L196.422 210.186C196.221 210.542 196.088 210.898 195.999 211.254C195.22 213.99 196.822 216.838 199.558 217.594L222.584 224.046L204.586 208.317C204.275 208.028 203.941 207.828 203.63 207.65C202.851 207.25 202.006 207.049 201.183 207.049Z" fill="#333333"/>
<path d="M203.607 233.746C203.563 233.746 203.518 233.746 203.452 233.723C203.229 233.634 203.096 233.39 203.185 233.167C204.853 228.34 209.058 225.336 215.376 224.491C220.092 223.846 224.23 224.624 224.408 224.647C224.43 224.647 224.453 224.647 224.453 224.669L230.17 226.471C230.415 226.538 230.526 226.805 230.459 227.027C230.393 227.272 230.126 227.383 229.903 227.316L224.208 225.514C223.852 225.448 219.848 224.78 215.465 225.359C209.436 226.182 205.587 228.896 204.03 233.456C203.963 233.634 203.785 233.746 203.607 233.746Z" fill="#333333"/>
<path d="M316.177 223.534C316.066 223.534 315.955 223.49 315.866 223.401C315.732 223.268 315.688 223.045 315.777 222.867L326.455 201.999C326.789 201.354 327.212 200.798 327.657 200.309C330.393 197.461 334.909 197.372 337.757 200.086L338.202 200.509C338.736 201.021 339.181 201.577 339.492 202.155C340.426 203.801 340.671 205.737 340.159 207.583C339.648 209.43 338.446 210.965 336.778 211.899L316.377 223.445C316.333 223.512 316.244 223.534 316.177 223.534ZM332.84 199.018C331.194 199.018 329.548 199.663 328.324 200.932C327.924 201.354 327.568 201.866 327.256 202.422L317.267 221.955L336.377 211.143C337.824 210.32 338.891 208.985 339.336 207.361C339.781 205.759 339.581 204.068 338.758 202.6C338.491 202.111 338.113 201.621 337.646 201.176L337.201 200.754C335.955 199.597 334.398 199.018 332.84 199.018Z" fill="#333333"/>
<path d="M317.245 232.923C317.134 232.923 317.045 232.878 316.956 232.811C316.778 232.656 316.756 232.366 316.912 232.189L321.027 227.494C321.183 227.316 321.472 227.294 321.65 227.45C321.828 227.606 321.851 227.895 321.695 228.073L317.579 232.767C317.49 232.878 317.379 232.923 317.245 232.923Z" fill="#333333"/>
<path d="M225.543 233.39C225.431 233.39 225.32 233.345 225.253 233.279L220.871 229.296C220.693 229.141 220.67 228.851 220.848 228.673C221.004 228.495 221.293 228.473 221.471 228.651L225.854 232.633C226.032 232.789 226.054 233.078 225.876 233.256C225.787 233.345 225.654 233.39 225.543 233.39Z" fill="#333333"/>
<path d="M311.194 227.539C311.061 227.539 310.927 227.472 310.838 227.361C310.683 227.161 310.727 226.894 310.905 226.738L315.866 222.845C315.977 222.756 316.133 222.733 316.289 222.778C319.96 223.957 323.185 223.379 326.3 222.822C330.215 222.111 333.908 221.465 337.579 224.736C337.757 224.891 337.779 225.181 337.624 225.359C337.468 225.537 337.179 225.559 337.001 225.403C333.664 222.422 330.327 223.023 326.478 223.712C323.475 224.246 320.071 224.869 316.267 223.712L311.484 227.45C311.395 227.517 311.283 227.539 311.194 227.539Z" fill="#333333"/>
<path d="M253.886 90.6532C258.542 90.6532 262.317 86.8783 262.317 82.2216C262.317 77.565 258.542 73.79 253.886 73.79C249.229 73.79 245.454 77.565 245.454 82.2216C245.454 86.8783 249.229 90.6532 253.886 90.6532Z" fill="#333333"/>
<path d="M258.691 113.323C255.999 113.323 253.796 111.121 253.796 108.429C253.796 105.737 255.999 103.534 258.691 103.534C261.383 103.534 263.585 105.737 263.585 108.429C263.585 111.121 261.383 113.323 258.691 113.323Z" fill="white"/>
<path d="M258.691 103.957C261.138 103.957 263.14 105.959 263.14 108.406C263.14 110.853 261.138 112.856 258.691 112.856C256.244 112.856 254.241 110.853 254.241 108.406C254.241 105.959 256.244 103.957 258.691 103.957ZM258.691 103.067C255.732 103.067 253.352 105.47 253.352 108.406C253.352 111.343 255.754 113.746 258.691 113.746C261.627 113.746 264.03 111.343 264.03 108.406C264.03 105.47 261.65 103.067 258.691 103.067Z" fill="#333333"/>
<path d="M259.514 109.519C259.447 109.519 259.403 109.519 259.336 109.474L255.821 108.028C255.598 107.939 255.487 107.672 255.576 107.45C255.665 107.227 255.932 107.116 256.155 107.205L259.67 108.651C259.892 108.74 260.003 109.007 259.914 109.229C259.848 109.407 259.692 109.519 259.514 109.519Z" fill="#333333"/>
<path d="M249.058 114.413C245.454 114.413 241.672 110.898 239.647 105.67C236.977 98.6844 237.511 92.0325 240.915 90.186C242.361 89.4074 243.963 89.0069 245.698 89.0069C250.081 89.0069 253.818 91.5431 253.863 91.5653C256.332 93.3228 257.6 95.2361 257.934 97.75C258.312 100.575 257.511 104.157 255.442 109.074C253.996 112.522 251.727 114.413 249.058 114.413Z" fill="white"/>
<path d="M245.721 88.562V89.4518C249.881 89.4518 253.485 91.8323 253.641 91.9212C257.712 94.8134 259.381 98.6621 255.065 108.873C253.686 112.144 251.55 113.968 249.081 113.968C245.654 113.968 242.028 110.564 240.093 105.492C238.78 102.11 238.224 98.6843 238.491 95.859C238.736 93.2338 239.692 91.3651 241.161 90.5642C242.54 89.8078 244.075 89.4296 245.743 89.4296L245.721 88.562ZM245.721 88.562C244.097 88.562 242.384 88.8957 240.716 89.8078C237.156 91.7433 236.444 98.5064 239.247 105.848C241.428 111.499 245.365 114.88 249.058 114.88C251.706 114.88 254.22 113.145 255.866 109.252C260.137 99.1293 258.891 94.5909 254.131 91.2093C254.131 91.1871 250.282 88.562 245.721 88.562Z" fill="#333333"/>
<path d="M254.13 91.1871C258.268 94.1237 259.736 97.928 257.267 105.514C249.903 102.578 250.17 92.4107 250.17 92.4107C244.03 97.1716 237.512 96.8824 237.512 96.8824C237.601 93.5008 238.713 90.8979 240.693 89.8078C247.056 86.3595 254.13 91.1871 254.13 91.1871Z" fill="#333333"/>
<path d="M243.874 104.936C243.808 104.936 243.763 104.914 243.696 104.891C243.274 104.713 242.873 104.357 242.628 103.935C242.25 103.289 242.206 102.222 242.384 99.8189C242.406 99.5742 242.628 99.3963 242.873 99.4185C243.118 99.4408 243.296 99.6632 243.274 99.9079C243.096 101.999 243.14 103.067 243.385 103.49C243.541 103.757 243.785 103.979 244.052 104.09C244.275 104.179 244.386 104.446 244.275 104.669C244.208 104.847 244.052 104.936 243.874 104.936Z" fill="#333333"/>
<path d="M246.477 101.532C246.233 101.532 246.032 101.354 246.032 101.109L246.01 100.553C246.01 100.308 246.188 100.108 246.433 100.086C246.678 100.086 246.878 100.264 246.9 100.509L246.922 101.065C246.922 101.309 246.744 101.532 246.477 101.532C246.477 101.532 246.5 101.532 246.477 101.532Z" fill="#333333"/>
<path d="M240.36 100.42C240.115 100.42 239.915 100.242 239.915 99.9969L239.893 99.463C239.893 99.2183 240.071 99.0181 240.315 98.9958C240.56 98.9736 240.76 99.1738 240.782 99.4185L240.805 99.9524C240.805 100.197 240.627 100.42 240.36 100.42C240.36 100.42 240.382 100.42 240.36 100.42Z" fill="#333333"/>
<path d="M245.699 107.672C245.632 107.672 245.565 107.672 245.498 107.65C245.454 107.65 245.409 107.65 245.365 107.65C245.12 107.65 244.92 107.45 244.92 107.205C244.92 106.96 245.12 106.76 245.365 106.76C245.432 106.76 245.498 106.76 245.565 106.782C245.61 106.782 245.654 106.782 245.699 106.782C246.455 106.782 247.056 106.182 247.056 105.447C247.056 105.203 247.256 105.003 247.501 105.003C247.745 105.003 247.946 105.203 247.946 105.447C247.946 106.671 246.944 107.672 245.699 107.672Z" fill="#333333"/>
<path d="M274.464 124.469C274.353 124.469 274.242 124.424 274.153 124.335L264.876 115.481C264.698 115.303 264.698 115.036 264.853 114.858C265.031 114.68 265.298 114.68 265.476 114.836L274.753 123.69C274.931 123.868 274.931 124.135 274.776 124.313C274.687 124.424 274.575 124.469 274.464 124.469Z" fill="#333333"/>
<path d="M276.844 116.571C276.777 116.571 276.711 116.549 276.644 116.526L263.385 109.563C263.162 109.452 263.073 109.185 263.207 108.962C263.34 108.74 263.585 108.651 263.807 108.785L277.067 115.748C277.289 115.859 277.378 116.126 277.245 116.348C277.156 116.482 277 116.571 276.844 116.571Z" fill="#333333"/>
<path d="M256.711 91.543C255.265 91.543 253.596 91.2316 251.572 90.4084C251.349 90.3194 251.238 90.0525 251.327 89.83C251.416 89.6075 251.683 89.4963 251.906 89.5853C256.199 91.3651 258.669 90.5864 261.249 89.741C263.251 89.0959 265.343 88.4062 268.324 88.8511C268.569 88.8956 268.746 89.1181 268.702 89.3628C268.657 89.6075 268.435 89.7855 268.19 89.741C265.409 89.3406 263.429 89.9857 261.516 90.6087C260.07 91.0536 258.557 91.543 256.711 91.543Z" fill="#333333"/>
<path d="M273.574 98.2616C273.485 98.2616 273.374 98.2394 273.285 98.1726C269.992 95.4808 267.323 95.414 264.475 95.325C261.071 95.236 257.223 95.1026 251.861 90.4974C251.683 90.3417 251.661 90.0525 251.817 89.8745C251.972 89.6966 252.261 89.6743 252.439 89.83C257.556 94.2572 261.094 94.3462 264.497 94.4574C267.478 94.5464 270.304 94.6354 273.841 97.5052C274.041 97.661 274.064 97.9502 273.908 98.1282C273.841 98.1949 273.708 98.2616 273.574 98.2616Z" fill="#333333"/>
<path d="M279.314 224.624C279.158 224.624 279.025 224.558 278.936 224.402C277.156 221.443 270.971 220.019 270.904 219.997C270.682 219.953 270.548 219.752 270.548 219.53C270.571 219.307 270.726 219.129 270.949 219.107C271.038 219.107 280.07 218.24 282.495 214.524C283.14 213.545 283.251 212.478 282.829 211.254C282.584 210.52 282.095 210.008 281.338 209.652C277.49 207.872 268.635 211.321 268.546 211.343C268.368 211.41 268.168 211.365 268.035 211.209C267.923 211.054 267.901 210.854 268.012 210.676C268.079 210.587 274.531 200.998 272.951 196.259C272.595 195.169 271.839 194.457 270.66 194.057C269.303 193.612 268.035 193.723 266.789 194.435C261.828 197.261 259.447 208.34 259.403 208.451C259.358 208.651 259.202 208.785 259.002 208.807C258.802 208.829 258.624 208.718 258.557 208.54C258.513 208.451 254.731 199.641 250.593 198.373C249.681 198.084 248.858 198.195 248.034 198.729C246.967 199.396 246.41 200.264 246.299 201.376C245.899 205.581 252.195 211.543 252.261 211.588C252.395 211.721 252.439 211.944 252.35 212.122C252.261 212.3 252.061 212.389 251.861 212.366C245.142 211.098 241.116 212.144 239.558 215.57C239.447 215.792 239.202 215.881 238.958 215.792C238.735 215.681 238.646 215.436 238.735 215.192C240.982 210.297 247.256 210.72 250.637 211.254C248.791 209.296 245.053 204.869 245.387 201.31C245.521 199.93 246.232 198.796 247.545 197.995C248.568 197.35 249.681 197.194 250.838 197.55C254.442 198.662 257.578 204.491 258.824 207.049C259.625 203.957 262.028 196.171 266.322 193.701C267.768 192.878 269.325 192.722 270.904 193.256C272.35 193.746 273.307 194.68 273.774 196.015C275.176 200.197 271.171 207.338 269.458 210.097C272.128 209.185 278.402 207.338 281.716 208.874C282.695 209.318 283.363 210.053 283.674 211.009C284.164 212.478 284.03 213.835 283.229 215.036C281.338 217.95 276.088 219.218 273.129 219.73C275.243 220.442 278.402 221.799 279.692 223.957C279.825 224.157 279.759 224.446 279.536 224.558C279.469 224.602 279.403 224.624 279.314 224.624Z" fill="#333333"/>
<path d="M233.084 211.788C233.04 211.788 232.995 211.788 232.951 211.766C232.706 211.699 232.595 211.432 232.662 211.21C234.085 206.716 224.92 202.8 224.808 202.756C224.608 202.667 224.497 202.444 224.541 202.222C224.608 201.999 224.808 201.866 225.031 201.888C225.12 201.888 233.752 202.934 236.911 199.886C237.756 199.063 238.134 198.039 238.001 196.727C237.89 195.481 237.378 194.502 236.421 193.768C233.396 191.41 227.122 192.411 227.055 192.411C226.855 192.433 226.655 192.344 226.588 192.166C226.499 191.988 226.566 191.766 226.699 191.632C226.766 191.588 232.884 186.493 233.329 181.821C233.463 180.509 233.107 179.33 232.283 178.329C231.438 177.305 230.303 177.127 229.48 177.15C227.968 177.194 226.299 177.995 225.498 179.063C225.342 179.263 225.075 179.307 224.875 179.152C224.675 178.996 224.63 178.729 224.786 178.529C225.743 177.239 227.656 176.304 229.458 176.237C230.904 176.193 232.128 176.727 232.973 177.75C233.952 178.929 234.375 180.331 234.219 181.888C233.863 185.715 230.192 189.608 228.323 191.365C230.459 191.187 234.53 191.165 236.955 193.056C238.09 193.946 238.757 195.147 238.891 196.638C239.024 198.195 238.579 199.508 237.534 200.509C235.131 202.823 230.17 203.023 227.233 202.912C230.081 204.469 234.686 207.65 233.485 211.41C233.44 211.677 233.285 211.788 233.084 211.788Z" fill="#333333"/>
<path d="M292.195 217.417C292.084 217.417 291.972 217.372 291.883 217.283C289.992 215.459 289.192 213.457 289.458 211.321C290.015 207.027 294.82 203.445 296.889 202.088C293.396 201.221 282.718 198.062 283.63 192.211C283.874 190.698 284.631 189.541 285.899 188.74C289.169 186.693 295.02 187.672 298.046 188.362C294.931 185.581 288.391 178.885 291.372 173.79C291.883 172.923 293.908 170.231 298.98 172.055C299.203 172.144 299.336 172.389 299.247 172.633C299.158 172.856 298.913 172.989 298.669 172.9C295.688 171.81 293.24 172.322 292.128 174.235C288.769 180.042 300.004 188.851 300.115 188.94C300.293 189.074 300.337 189.296 300.226 189.497C300.137 189.697 299.915 189.786 299.692 189.719C299.603 189.697 290.437 186.916 286.344 189.497C285.298 190.164 284.698 191.098 284.497 192.344C284.03 195.414 287.679 197.706 290.838 199.107C294.375 200.665 298.09 201.443 298.113 201.465C298.29 201.51 298.424 201.643 298.468 201.821C298.491 201.999 298.402 202.177 298.246 202.266C298.179 202.311 290.949 206.471 290.326 211.41C290.081 213.256 290.816 215.014 292.484 216.616C292.662 216.794 292.662 217.061 292.484 217.239C292.417 217.372 292.306 217.417 292.195 217.417Z" fill="#333333"/>
<path d="M276.021 144.602C275.887 144.602 275.754 144.535 275.665 144.424C275.509 144.224 275.554 143.957 275.754 143.801L280.915 139.975C281.115 139.819 281.382 139.863 281.538 140.064C281.694 140.264 281.649 140.531 281.449 140.687L276.288 144.513C276.199 144.58 276.11 144.602 276.021 144.602Z" fill="#333333"/>
<path d="M186.7 77.3271C184.119 65.4472 167.278 68.4728 173.085 82.3994C178.446 93.5896 185.276 106.426 186.589 108.873C186.633 108.962 186.678 109.029 186.7 109.074C186.722 109.007 186.767 108.94 186.811 108.873C188.124 106.426 194.954 93.5896 200.315 82.3994C206.099 68.4728 189.281 65.4472 186.7 77.3271Z" fill="#FF5573"/>
<path d="M210.059 70.3638L198.157 52.9889C197.133 51.4983 198.379 49.4516 200.159 49.7631C200.871 49.8743 201.65 50.2748 202.45 51.1424C202.45 51.1424 204.987 48.7842 207.945 52.3882C207.945 52.3882 210.815 51.0756 213.618 54.7909C216.199 58.1947 217.311 59.9077 217.311 59.9077L210.059 70.3638Z" fill="#B666D2"/>
<path d="M212.618 66.2925C212.484 66.2925 212.328 66.2258 212.262 66.0923L202.095 51.3426C201.961 51.1423 202.006 50.8531 202.206 50.7196C202.406 50.5862 202.696 50.6307 202.829 50.8309L212.996 65.5806C213.129 65.7808 213.085 66.0701 212.885 66.2035C212.796 66.2703 212.707 66.2925 212.618 66.2925Z" fill="#333333"/>
<path d="M214.62 62.4883C214.487 62.4883 214.331 62.4216 214.264 62.2881L207.568 52.5662C207.435 52.366 207.479 52.0768 207.679 51.9433C207.879 51.8098 208.169 51.8543 208.302 52.0545L214.998 61.7764C215.132 61.9767 215.087 62.2659 214.887 62.3994C214.798 62.4661 214.709 62.4883 214.62 62.4883Z" fill="#333333"/>
<path d="M206.322 74.6574C205.121 74.6574 204.031 73.9455 203.564 72.8332C202.963 71.3871 203.519 69.7631 204.899 69.0067L210.75 65.8476L212.685 44.9354C212.774 43.9566 213.619 43.4227 214.354 43.4227C214.665 43.4227 215.132 43.5116 215.51 43.9566C215.978 44.4905 216.245 45.2469 216.289 46.2035L216.311 46.6485L216.756 46.6262H216.801C217.29 46.6262 219.737 46.8264 219.737 50.6529V50.9866L220.071 51.0756C220.182 51.0979 222.763 51.8765 222.585 56.1034C222.541 57.0156 222.496 57.9054 222.452 58.7508L222.407 59.5517L233.419 53.634C233.753 53.456 234.131 53.3671 234.509 53.3671C235.132 53.3671 235.711 53.6118 236.133 54.0345L238.514 56.4149C238.736 56.6374 238.892 56.9043 238.937 57.2158C239.115 58.0612 238.558 58.8843 237.713 59.0623L230.394 60.5083C229.281 60.7308 228.414 61.5539 228.124 62.644C228.013 63.0667 227.902 63.5339 227.791 64.0456C227.146 66.96 226.256 70.9867 222.207 73.1891C220.805 73.9678 219.07 74.346 217.068 74.346C215.266 74.346 213.642 74.0345 212.574 73.7675C212.084 73.634 211.595 73.5896 211.083 73.5896C210.483 73.5896 209.904 73.6785 209.326 73.8565L207.19 74.5017C206.923 74.6129 206.634 74.6574 206.322 74.6574Z" fill="white"/>
<path d="M214.376 43.8899C214.598 43.8899 214.932 43.9566 215.199 44.2681C215.599 44.7353 215.822 45.4027 215.866 46.2481L215.888 47.1379L216.778 47.0934H216.801C216.912 47.0934 217.557 47.1157 218.135 47.5384C218.892 48.0946 219.292 49.1624 219.292 50.653V51.3426L219.96 51.5206C219.982 51.5206 222.318 52.188 222.14 56.1035C222.095 57.0156 222.051 57.9055 222.006 58.7509L221.917 60.3304L223.319 59.574L233.619 54.0345C233.886 53.8788 234.198 53.812 234.487 53.812C234.976 53.812 235.444 54.0123 235.799 54.346L238.18 56.7264C238.336 56.8821 238.447 57.0823 238.491 57.3048C238.558 57.594 238.491 57.9055 238.313 58.1502C238.135 58.3949 237.891 58.5729 237.601 58.6174L230.282 60.0634C229.014 60.3081 228.013 61.2648 227.657 62.5106C227.546 62.9333 227.435 63.4227 227.323 63.9344C226.7 66.782 225.833 70.6752 221.962 72.7887C220.605 73.5229 218.959 73.9011 217.045 73.9011C215.31 73.9011 213.686 73.5896 212.663 73.3226C212.129 73.1891 211.595 73.1224 211.061 73.1224C210.416 73.1224 209.793 73.2114 209.17 73.4116L207.034 74.0568C206.789 74.1235 206.545 74.168 206.3 74.168C205.277 74.168 204.365 73.5673 203.942 72.6107C203.43 71.3871 203.92 69.9856 205.076 69.3627L210.727 66.3148L211.15 66.0924L211.194 65.6252L213.108 44.9577C213.219 44.2681 213.842 43.8899 214.376 43.8899ZM214.376 43C213.375 43 212.373 43.7342 212.262 44.9132L210.349 65.5807L204.698 68.6285C203.141 69.4739 202.474 71.3649 203.163 73.0112C203.719 74.3015 204.987 75.1024 206.322 75.1024C206.656 75.1024 206.99 75.0579 207.323 74.9467L209.459 74.3015C209.993 74.1458 210.549 74.0568 211.083 74.0568C211.55 74.0568 212.017 74.1235 212.462 74.2348C213.575 74.524 215.243 74.8354 217.068 74.8354C218.825 74.8354 220.738 74.5462 222.407 73.6118C227.346 70.8977 227.791 65.5584 228.525 62.7998C228.769 61.8877 229.526 61.1758 230.46 60.9978L237.779 59.5518C238.87 59.3293 239.581 58.2837 239.359 57.1936C239.292 56.7931 239.092 56.4372 238.803 56.1702L236.422 53.7898C235.888 53.2559 235.199 52.9889 234.487 52.9889C234.042 52.9889 233.597 53.1001 233.197 53.3226L222.896 58.8621C222.941 58.1057 222.985 57.2158 223.03 56.1925C223.23 51.5206 220.182 50.7197 220.182 50.7197C220.182 46.426 217.268 46.2481 216.801 46.2481C216.756 46.2481 216.734 46.2481 216.734 46.2481C216.667 45.069 216.333 44.2681 215.866 43.7342C215.466 43.2225 214.91 43 214.376 43Z" fill="#333333"/>
<path d="M215.287 59.8187C215.265 59.8187 215.265 59.8187 215.243 59.8187C214.998 59.7964 214.82 59.5739 214.842 59.3292L215.932 46.4705C215.955 46.2258 216.177 46.0478 216.422 46.07C216.666 46.0923 216.844 46.3147 216.822 46.5595L215.732 59.4182C215.71 59.6407 215.51 59.8187 215.287 59.8187Z" fill="#333333"/>
<path d="M219.158 58.0612C219.136 58.0612 219.136 58.0612 219.114 58.0612C218.869 58.0389 218.691 57.8165 218.713 57.5717L219.314 50.8087C219.336 50.5639 219.559 50.386 219.803 50.4082C220.048 50.4305 220.226 50.6529 220.204 50.8977L219.603 57.6607C219.581 57.8832 219.381 58.0612 219.158 58.0612Z" fill="#333333"/>
<path d="M201.539 76.6819C201.45 76.6819 201.383 76.6597 201.294 76.6152C201.094 76.4817 201.027 76.2147 201.16 75.9922L202.384 74.1012L199.403 74.8354C199.158 74.9021 198.914 74.7464 198.869 74.5017C198.802 74.257 198.958 74.0123 199.203 73.9678L203.274 72.9667C203.452 72.9222 203.63 72.9889 203.741 73.1446C203.852 73.3004 203.852 73.5006 203.763 73.6341L201.939 76.4594C201.828 76.6152 201.694 76.6819 201.539 76.6819Z" fill="#333333"/>
<path d="M206.344 71.5429C206.166 71.5429 206.01 71.4317 205.921 71.2537L205.788 70.92C205.699 70.6975 205.81 70.4306 206.032 70.3416C206.255 70.2526 206.522 70.3638 206.611 70.5863L206.744 70.92C206.833 71.1425 206.722 71.4094 206.499 71.4984C206.455 71.5429 206.388 71.5429 206.344 71.5429Z" fill="#333333"/>
<path d="M222.14 64.0234H222.118C221.873 64.0012 221.695 63.8009 221.695 63.5562L221.984 59.2626C222.006 59.0178 222.206 58.8399 222.451 58.8399C222.696 58.8621 222.874 59.0623 222.874 59.307L222.585 63.6007C222.562 63.8454 222.362 64.0234 222.14 64.0234Z" fill="#333333"/>
<path d="M233.396 57.0156C233.219 57.0156 233.041 56.9044 232.974 56.7264C232.885 56.5039 232.996 56.237 233.241 56.148L236.978 54.7242C237.201 54.6352 237.468 54.7464 237.557 54.9911C237.646 55.2136 237.534 55.4806 237.29 55.5696L233.552 56.9934C233.508 57.0156 233.441 57.0156 233.396 57.0156Z" fill="#333333"/>
<path d="M163.34 70.3638L175.242 52.9889C176.265 51.4983 175.02 49.4516 173.24 49.7631C172.528 49.8743 171.749 50.2748 170.948 51.1424C170.948 51.1424 168.412 48.7842 165.453 52.3882C165.453 52.3882 162.584 51.0756 159.78 54.7909C157.2 58.1947 156.087 59.9077 156.087 59.9077L163.34 70.3638Z" fill="#B666D2"/>
<path d="M160.782 66.2925C160.693 66.2925 160.604 66.2703 160.537 66.2035C160.337 66.0701 160.292 65.7808 160.426 65.5806L170.571 50.8309C170.704 50.6307 170.993 50.5862 171.193 50.7196C171.394 50.8531 171.438 51.1423 171.305 51.3426L161.138 66.0923C161.071 66.2258 160.915 66.2925 160.782 66.2925Z" fill="#333333"/>
<path d="M158.757 62.4883C158.668 62.4883 158.579 62.4661 158.513 62.3994C158.313 62.2659 158.268 61.9767 158.401 61.7764L165.098 52.0545C165.231 51.8543 165.521 51.8098 165.721 51.9433C165.921 52.0768 165.965 52.366 165.832 52.5662L159.136 62.2881C159.047 62.4216 158.891 62.4883 158.757 62.4883Z" fill="#333333"/>
<path d="M167.055 74.6574C166.766 74.6574 166.477 74.6129 166.188 74.5239L164.052 73.8788C163.474 73.7008 162.895 73.6118 162.295 73.6118C161.783 73.6118 161.294 73.6786 160.804 73.7898C159.736 74.0568 158.09 74.3682 156.31 74.3682C154.308 74.3682 152.595 73.9678 151.171 73.2114C147.144 71.0089 146.255 66.9822 145.587 64.0679C145.476 63.5562 145.365 63.089 145.253 62.6663C144.964 61.5762 144.097 60.7531 142.984 60.5306L135.665 59.0845C134.82 58.9066 134.263 58.0834 134.441 57.238C134.508 56.9266 134.642 56.6596 134.864 56.4371L137.245 54.0567C137.689 53.634 138.246 53.3893 138.869 53.3893C139.247 53.3893 139.625 53.4783 139.959 53.6563L150.971 59.574L150.926 58.7731C150.882 57.9277 150.837 57.0378 150.793 56.1257C150.615 51.8988 153.196 51.1201 153.307 51.0979L153.641 51.0089V50.6752C153.641 46.8487 156.088 46.6485 156.577 46.6485H156.622L157.067 46.6707L157.089 46.2258C157.133 45.2692 157.4 44.5128 157.867 43.9788C158.246 43.5339 158.713 43.4449 159.024 43.4449C159.758 43.4449 160.604 43.9788 160.693 44.9577L162.628 65.8699L168.479 69.0289C169.859 69.7631 170.437 71.4094 169.814 72.8332C169.347 73.9233 168.257 74.6574 167.055 74.6574Z" fill="white"/>
<path d="M159.002 43.8899C159.536 43.8899 160.159 44.2681 160.226 44.98L162.139 65.6474L162.184 66.1146L162.606 66.3371L168.257 69.3849C169.436 70.0078 169.926 71.4094 169.392 72.633C168.991 73.5674 168.057 74.1903 167.034 74.1903C166.789 74.1903 166.544 74.1458 166.299 74.079L164.164 73.4339C163.541 73.2559 162.918 73.1447 162.273 73.1447C161.739 73.1447 161.205 73.2114 160.671 73.3449C159.625 73.6118 158.024 73.9233 156.288 73.9233C154.375 73.9233 152.706 73.5451 151.372 72.811C147.523 70.6975 146.655 66.8043 146.01 63.9567C145.899 63.445 145.788 62.9555 145.676 62.5328C145.343 61.2648 144.342 60.3304 143.051 60.0857L135.732 58.6396C135.443 58.5729 135.176 58.4172 135.02 58.1724C134.864 57.9277 134.798 57.6163 134.842 57.3271C134.887 57.1046 134.998 56.9044 135.154 56.7486L137.534 54.3682C137.89 54.0123 138.357 53.8343 138.847 53.8343C139.158 53.8343 139.447 53.901 139.714 54.0567L150.015 59.5962L151.416 60.3526L151.327 58.7731C151.283 57.9277 151.238 57.0378 151.194 56.1257C151.127 54.4794 151.483 53.2114 152.239 52.3437C152.773 51.7431 153.307 51.5651 153.396 51.5428L154.041 51.3871V50.6752C154.041 47.3604 155.955 47.0934 156.533 47.0934L157.423 47.1379L157.467 46.2481C157.512 45.4027 157.734 44.7353 158.135 44.2681C158.468 43.9566 158.78 43.8899 159.002 43.8899ZM159.002 43C158.468 43 157.912 43.2225 157.512 43.6897C157.045 44.2458 156.689 45.0467 156.644 46.2036C156.644 46.2036 156.622 46.2036 156.577 46.2036C156.11 46.2036 153.196 46.3815 153.196 50.6752C153.196 50.6752 150.148 51.4761 150.348 56.148C150.393 57.1713 150.437 58.039 150.482 58.8176L140.181 53.2781C139.781 53.0556 139.336 52.9444 138.891 52.9444C138.179 52.9444 137.49 53.2114 136.956 53.7453L134.553 56.1257C134.264 56.4149 134.086 56.7709 133.997 57.1491C133.774 58.2392 134.486 59.2848 135.576 59.5073L142.896 60.9533C143.83 61.1313 144.586 61.8432 144.831 62.7553C145.587 65.5139 146.01 70.8755 150.949 73.5673C152.64 74.4795 154.531 74.7909 156.288 74.7909C158.113 74.7909 159.781 74.4795 160.893 74.1903C161.338 74.079 161.805 74.0123 162.273 74.0123C162.829 74.0123 163.363 74.1013 163.897 74.257L166.032 74.9022C166.366 75.0134 166.7 75.0579 167.034 75.0579C168.391 75.0579 169.659 74.257 170.193 72.9667C170.882 71.3204 170.215 69.4294 168.658 68.584L163.007 65.5362L161.094 44.8687C161.005 43.7341 160.003 43 159.002 43Z" fill="#333333"/>
<path d="M158.09 59.8187C157.867 59.8187 157.667 59.6407 157.645 59.4182L156.577 46.5595C156.555 46.3147 156.733 46.0923 156.978 46.07C157.222 46.0478 157.445 46.2258 157.467 46.4705L158.535 59.3292C158.557 59.5739 158.379 59.7964 158.134 59.8187C158.112 59.8187 158.112 59.8187 158.09 59.8187Z" fill="#333333"/>
<path d="M154.242 58.0612C154.019 58.0612 153.819 57.8832 153.797 57.6607L153.174 50.8977C153.152 50.6529 153.329 50.4305 153.574 50.4082C153.819 50.386 154.041 50.5639 154.064 50.8087L154.687 57.5717C154.709 57.8165 154.531 58.0389 154.286 58.0612C154.264 58.0612 154.264 58.0612 154.242 58.0612Z" fill="#333333"/>
<path d="M171.861 76.6819C171.706 76.6819 171.572 76.6152 171.483 76.4817L169.659 73.6563C169.57 73.5006 169.57 73.3004 169.681 73.1669C169.792 73.0112 169.97 72.9444 170.148 72.9889L174.197 73.99C174.442 74.0568 174.576 74.2792 174.531 74.524C174.487 74.7687 174.242 74.9021 173.997 74.8577L171.038 74.1235L172.262 76.0145C172.395 76.2147 172.329 76.5039 172.128 76.6374C172.017 76.6597 171.95 76.6819 171.861 76.6819Z" fill="#333333"/>
<path d="M167.056 71.5429C167.011 71.5429 166.944 71.5429 166.9 71.5206C166.677 71.4316 166.566 71.1647 166.655 70.9422L166.789 70.6085C166.878 70.386 167.145 70.2748 167.367 70.3638C167.59 70.4528 167.701 70.7197 167.612 70.9422L167.478 71.2759C167.389 71.4316 167.234 71.5429 167.056 71.5429Z" fill="#333333"/>
<path d="M151.237 64.0234C151.015 64.0234 150.815 63.8454 150.792 63.6007L150.503 59.307C150.481 59.0623 150.681 58.8398 150.926 58.8398C151.171 58.8176 151.393 59.0178 151.393 59.2625L151.682 63.5562C151.704 63.8009 151.504 64.0234 151.26 64.0234H151.237Z" fill="#333333"/>
<path d="M140.003 57.0156C139.959 57.0156 139.892 57.0156 139.847 56.9933L136.11 55.5695C135.887 55.4805 135.754 55.2358 135.843 54.9911C135.932 54.7686 136.177 54.6351 136.421 54.7241L140.159 56.1479C140.381 56.2369 140.515 56.4816 140.426 56.7264C140.359 56.9043 140.181 57.0156 140.003 57.0156Z" fill="#333333"/>
</svg>
