<svg width="375" height="285" viewBox="0 0 375 285" fill="none" xmlns="http://www.w3.org/2000/svg">
<path d="M404.5 56.7833C437.09 84.7536 346.239 45.1733 386.418 52.6505C426.597 60.1278 455.615 75.9129 473.472 100.006C491.329 124.099 493.785 148.747 480.838 173.948C467.892 199.149 447.579 220.196 419.9 237.089C392.221 253.981 425.465 237.356 396 253.418C366.535 269.48 271.232 287.485 231.5 284.716C191.768 281.947 113.5 272.644 113.5 272.644C74 264.149 46.013 261.182 -5.32667 248.72C-56.6664 236.258 -71.1754 214.795 -48.8538 184.333C-26.5322 153.87 -20.2821 122.161 -30.1037 89.2057C-39.9252 56.2506 -118.5 -24.291 77.5 9.24227C77.5 9.24227 150.5 12.8191 256.5 0.747179C373 -5.51238 371.91 28.8129 404.5 56.7833Z" fill="#F8F0FB"/>
<path d="M196.228 145.23C194.351 145.23 192.702 144.495 191.56 143.201C190.418 141.856 189.962 140.055 190.266 138.152L200.363 74.3239C200.997 70.3156 204.752 67.0684 208.76 67.0684H305.721C307.598 67.0684 309.247 67.8041 310.389 69.0979C311.53 70.4424 311.987 72.2436 311.683 74.1463L301.586 138C300.952 142.009 297.197 145.256 293.189 145.256L196.228 145.23Z" fill="white"/>
<path d="M305.721 67.6009C307.446 67.6009 308.968 68.2605 309.983 69.4529C311.023 70.6706 311.454 72.3196 311.175 74.0954L301.078 137.899C300.495 141.653 296.943 144.723 293.188 144.723H196.228C194.503 144.723 192.981 144.063 191.966 142.871C190.926 141.653 190.494 140.004 190.774 138.228L200.87 74.4252C201.454 70.6706 205.006 67.6009 208.76 67.6009H305.721ZM305.721 66.5862H208.76C204.524 66.5862 200.541 70.0364 199.856 74.273L189.759 138.076C189.099 142.313 191.991 145.763 196.228 145.763H293.188C297.425 145.763 301.408 142.313 302.093 138.076L312.19 74.273C312.875 70.011 309.983 66.5862 305.721 66.5862Z" fill="#333333"/>
<path d="M301.002 82.3655C300.85 82.3655 300.723 82.3148 300.622 82.1879L295.396 75.8457C295.218 75.6173 295.244 75.3129 295.472 75.1353C295.7 74.9578 296.005 74.9831 296.182 75.2114L301.408 81.5537C301.586 81.782 301.56 82.0865 301.332 82.264C301.231 82.3401 301.104 82.3655 301.002 82.3655Z" fill="#333333"/>
<path d="M294.659 82.3658C294.507 82.3658 294.38 82.315 294.279 82.1882C294.101 81.9852 294.126 81.6555 294.329 81.4779L301.788 75.1356C301.991 74.958 302.321 74.9834 302.498 75.1863C302.676 75.3893 302.65 75.7191 302.448 75.8967L294.989 82.2389C294.888 82.3151 294.786 82.3658 294.659 82.3658Z" fill="#333333"/>
<path d="M216.396 162.989L212.057 242.521H216.396L222.966 195.817H265.789L291.716 242.521H296.384L261.02 162.989H216.396Z" fill="#B666D2"/>
<path d="M267.945 163.496H208.226C207.947 163.496 207.719 163.268 207.719 162.989C207.719 162.71 207.947 162.482 208.226 162.482H267.945C268.224 162.482 268.453 162.71 268.453 162.989C268.453 163.268 268.224 163.496 267.945 163.496Z" fill="#333333"/>
<path d="M222.966 196.323H214.595C214.315 196.323 214.087 196.095 214.087 195.815C214.087 195.536 214.315 195.308 214.595 195.308H222.966C223.245 195.308 223.474 195.536 223.474 195.815C223.474 196.095 223.245 196.323 222.966 196.323Z" fill="#333333"/>
<path d="M275.607 196.323H265.891C265.612 196.323 265.384 196.095 265.384 195.815C265.384 195.536 265.612 195.308 265.891 195.308H275.607C275.886 195.308 276.115 195.536 276.115 195.815C276.115 196.095 275.886 196.323 275.607 196.323Z" fill="#333333"/>
<path d="M240.446 182.548C242.085 182.548 243.414 181.219 243.414 179.58C243.414 177.94 242.085 176.612 240.446 176.612C238.806 176.612 237.477 177.94 237.477 179.58C237.477 181.219 238.806 182.548 240.446 182.548Z" fill="#333333"/>
<path d="M102.413 219.283C102.311 219.232 92.1637 213.854 90.8952 208.324C90.5654 206.903 90.8445 205.559 91.7324 204.341C91.7578 204.315 93.1784 203.199 96.6033 203.199C99.8251 203.199 103.833 204.011 108.298 205.914L108.222 206.091L108.197 206.142C105.508 211.292 102.54 219.182 102.489 219.258L102.464 219.309L102.413 219.283Z" fill="#333333"/>
<path d="M180.423 212.053C180.423 212.027 179.992 208.679 179.941 200.18V200.155L179.966 198.506C182.985 196.933 186.613 194.929 192.219 195.335C195.492 195.563 196.837 197.846 196.862 197.872C197.471 199.394 197.42 200.916 196.684 202.413C193.716 208.4 180.626 212.053 180.499 212.104L180.448 212.129L180.423 212.053Z" fill="#333333"/>
<path d="M135.012 229.887C134.809 229.887 134.606 229.761 134.53 229.558C134.454 229.329 134.53 229.076 134.733 228.949L159.595 213.55C162.867 211.546 167.18 212.56 169.209 215.808C169.463 216.239 169.691 216.695 169.869 217.177C170.478 218.928 170.376 220.831 169.565 222.505C168.753 224.205 167.332 225.448 165.556 226.057C165.125 226.209 164.643 226.31 164.11 226.412L135.037 229.862C135.063 229.887 135.037 229.887 135.012 229.887ZM163.273 213.524C162.208 213.524 161.117 213.803 160.153 214.412L137.244 228.594L164.009 225.422C164.491 225.346 164.897 225.245 165.277 225.118C166.774 224.611 167.992 223.52 168.702 222.074C169.387 220.628 169.489 219.029 168.956 217.533C168.804 217.127 168.626 216.721 168.398 216.366C167.231 214.539 165.277 213.524 163.273 213.524Z" fill="#333333"/>
<path d="M154.216 239.071C154.064 239.071 153.937 239.02 153.836 238.893C149.929 234.479 146.834 233.997 143.561 233.515C140.771 233.109 137.904 232.678 134.632 229.684C134.429 229.507 134.403 229.177 134.606 228.974C134.809 228.771 135.114 228.746 135.317 228.948C138.361 231.714 140.948 232.094 143.714 232.526C147.037 233.008 150.462 233.54 154.597 238.234C154.775 238.437 154.775 238.766 154.546 238.944C154.445 239.02 154.343 239.071 154.216 239.071Z" fill="#333333"/>
<path d="M173.015 242.572C166.444 228.746 154.318 225.422 147.646 224.687H147.621V224.661C147.062 222.15 146.58 219.638 146.175 217.228V217.203L146.2 217.177C147.544 216.492 178.926 200.155 179.966 200.155C180.017 200.155 180.042 200.206 180.042 200.231C180.093 208.704 180.524 212.053 180.524 212.078C180.524 212.205 181.133 223.545 189.911 230.623C196.684 236.077 196.887 239.071 197.116 242.546V242.597H173.015V242.572V242.572Z" fill="#FF5573"/>
<path d="M152.948 242.572C150.792 236.737 148.991 230.699 147.646 224.636L147.621 224.56H147.697C152.238 225.067 158.859 226.716 164.796 231.613L164.821 231.638L164.441 242.572H152.948Z" fill="#333333"/>
<path d="M91.7325 204.341C91.8087 204.265 99.0896 196.578 133.871 167.657C139.731 162.913 144.678 160.503 148.559 160.503C154.039 160.503 155.485 165.399 155.51 165.45L148.077 206.117C144.12 211.013 141.481 214.438 139.477 217.228L139.452 217.254H139.426C139.426 217.254 139.325 217.254 139.147 217.254C137.676 217.254 129.862 217.025 120.755 212.357C112.637 208.197 108.654 206.294 108.222 206.091C94.9798 201.855 91.7325 204.341 91.7325 204.341Z" fill="#F696BB"/>
<path d="M84.8325 133.054L84.8579 132.978C85.3653 131.303 85.9488 129.502 86.5576 127.498C86.9889 126.153 87.4202 124.733 87.9022 123.211V123.185L121.288 123.058L122.683 133.079H84.8325V133.054Z" fill="#FF5573"/>
<path d="M146.175 217.203C142.014 192.544 145.515 173.517 145.743 172.299H104.265C95.8931 172.299 89.3733 169.94 85.4157 165.45C81.6357 161.162 80.1897 155.175 81.1283 147.641C81.585 143.987 82.7519 139.852 84.8576 133.003V132.977H122.657L122.911 134.855C123.85 134.931 140.264 136.427 153.202 138.685C159.772 139.827 165.049 141.172 169.438 143.937C173.903 146.753 177.15 150.888 179.992 157.306C183.797 165.881 190.241 181.432 196.837 197.947C195.644 196.958 189.86 195.132 179.89 200.307C176.567 202.057 174.309 203.681 171.924 205.381C169.032 207.436 166.039 209.567 160.889 212.129C156.246 214.488 151.299 216.239 146.2 217.279H146.149L146.175 217.203Z" fill="#F696BB"/>
<path d="M93.2543 72.9039C99.4051 72.9039 104.391 67.9177 104.391 61.7669C104.391 55.6161 99.4051 50.6299 93.2543 50.6299C87.1035 50.6299 82.1173 55.6161 82.1173 61.7669C82.1173 67.9177 87.1035 72.9039 93.2543 72.9039Z" fill="#333333"/>
<path d="M73.137 64.1005C79.2878 64.1005 84.274 59.1142 84.274 52.9634C84.274 46.8126 79.2878 41.8264 73.137 41.8264C66.9862 41.8264 62 46.8126 62 52.9634C62 59.1142 66.9862 64.1005 73.137 64.1005Z" fill="#333333"/>
<path d="M102.108 88.3276C98.9372 88.3276 96.3496 85.74 96.3496 82.5688C96.3496 79.3977 98.9372 76.8101 102.108 76.8101C105.28 76.8101 107.867 79.3977 107.867 82.5688C107.867 85.74 105.28 88.3276 102.108 88.3276Z" fill="white"/>
<path d="M102.108 77.3175C105.001 77.3175 107.36 79.6768 107.36 82.5689C107.36 85.461 105.001 87.8203 102.108 87.8203C99.2164 87.8203 96.857 85.461 96.857 82.5689C96.857 79.6768 99.191 77.3175 102.108 77.3175ZM102.108 76.3027C98.6329 76.3027 95.8423 79.1187 95.8423 82.5689C95.8423 86.0191 98.6582 88.8351 102.108 88.8351C105.559 88.8351 108.375 86.0191 108.375 82.5689C108.375 79.1187 105.559 76.3027 102.108 76.3027Z" fill="#333333"/>
<path d="M101.322 84.0404C101.17 84.0404 100.992 83.9643 100.891 83.8121C100.739 83.5838 100.789 83.254 101.018 83.1017L104.721 80.6156C104.95 80.4634 105.28 80.5141 105.432 80.7424C105.584 80.9707 105.533 81.3005 105.305 81.4528L101.601 83.9389C101.525 84.015 101.423 84.0404 101.322 84.0404Z" fill="#333333"/>
<path d="M113.423 88.2017C110.759 88.2017 108.197 86.5273 106.066 83.3562C98.5564 72.2699 99.6726 67.2722 103.884 62.8072C103.935 62.7565 108.907 57.7588 115.122 57.7588C116.264 57.7588 117.406 57.9364 118.496 58.2662C122.835 59.6107 124.991 67.1707 123.52 75.8216C122.251 83.1025 118.091 88.2017 113.423 88.2017Z" fill="white"/>
<path d="M115.122 58.2655C116.213 58.2655 117.304 58.4177 118.344 58.7475C120.221 59.331 121.744 61.2844 122.657 64.2526C123.621 67.4491 123.748 71.5081 123.012 75.7194C122.403 79.2965 121.084 82.3407 119.232 84.5225C117.532 86.552 115.452 87.6682 113.423 87.6682C110.936 87.6682 108.526 86.07 106.471 83.0511C99.1651 72.2692 100.205 67.4237 104.239 63.1617C104.416 62.9841 109.211 58.2655 115.122 58.2655ZM115.122 57.2507C108.602 57.2507 103.503 62.4768 103.503 62.4768C98.8099 67.4491 98.404 72.9542 105.634 83.6346C108.019 87.1355 110.759 88.683 113.423 88.683C118.217 88.683 122.682 83.6346 124.001 75.897C125.574 66.8149 123.19 59.1788 118.649 57.7835C117.431 57.4029 116.264 57.2507 115.122 57.2507Z" fill="#333333"/>
<path d="M103.504 62.4767C99.42 66.7895 98.5828 71.5335 103.175 79.677C110.963 74.6032 108.35 62.9588 108.35 62.9588C116.493 67.0432 123.952 65.1912 123.952 65.1912C123.089 61.3351 121.212 58.5699 118.65 57.7835C110.557 55.2719 103.504 62.4767 103.504 62.4767Z" fill="#333333"/>
<path d="M118.37 75.9988C118.218 75.9988 118.066 75.9227 117.964 75.7958C117.787 75.5675 117.812 75.2631 118.04 75.0855C118.345 74.8318 118.573 74.5274 118.7 74.1976C118.878 73.6394 118.675 72.4217 118.015 70.0117C117.939 69.7326 118.091 69.4535 118.37 69.3774C118.649 69.3013 118.928 69.4535 119.004 69.7326C119.766 72.4471 119.943 73.6902 119.689 74.5274C119.512 75.0601 119.157 75.5168 118.7 75.8719C118.599 75.9734 118.472 75.9988 118.37 75.9988Z" fill="#333333"/>
<path d="M114.591 72.6248C114.337 72.6248 114.134 72.4472 114.083 72.1935L113.982 71.5339C113.931 71.2549 114.134 71.0012 114.413 70.9504C114.692 70.8997 114.946 71.1026 114.997 71.3817L115.098 72.0413C115.149 72.3204 114.946 72.574 114.667 72.6248C114.641 72.6248 114.616 72.6248 114.591 72.6248Z" fill="#333333"/>
<path d="M121.389 69.9356C121.135 69.9356 120.932 69.758 120.881 69.5043L120.78 68.8701C120.729 68.591 120.932 68.3373 121.211 68.2866C121.49 68.2359 121.744 68.4388 121.795 68.7179L121.896 69.3521C121.947 69.6312 121.744 69.8849 121.465 69.9356C121.439 69.9356 121.414 69.9356 121.389 69.9356Z" fill="#333333"/>
<path d="M116.467 79.5752C115.96 79.5752 115.478 79.423 115.047 79.1439C114.463 78.7634 114.057 78.1545 113.93 77.4695C113.88 77.1905 114.057 76.9368 114.336 76.8607C114.615 76.81 114.869 76.9875 114.945 77.2666C115.021 77.6979 115.275 78.053 115.63 78.2814C115.985 78.5097 116.391 78.6112 116.797 78.5097C116.873 78.4843 116.975 78.4589 117.102 78.4082C117.355 78.3067 117.66 78.4336 117.761 78.6873C117.863 78.941 117.736 79.2454 117.482 79.3469C117.355 79.3976 117.178 79.4737 117 79.4991C116.797 79.5498 116.62 79.5752 116.467 79.5752Z" fill="#333333"/>
<path d="M133.312 142.06C127.579 142.06 123.647 140.233 121.338 138.711C118.852 137.062 117.685 135.362 117.685 135.337L117.66 135.311C117.609 135.235 111.952 128.081 107.664 116.919C107.664 116.919 107.664 116.893 107.639 116.893L103.478 108.014L124.484 97.6636L131.181 107.329C132.247 109.587 133.617 112.631 133.642 112.657C133.718 112.834 133.87 112.936 134.048 112.961C134.073 112.961 134.073 112.961 134.099 112.961C134.276 112.961 134.429 112.885 134.53 112.733C134.682 112.505 150.487 89.3679 158.047 82.0617C159.671 80.5141 160.762 80.1843 161.396 80.1843C162.436 80.1843 162.918 81.0976 163.146 81.8587C163.197 82.0109 163.299 82.1124 163.425 82.1885C163.501 82.2139 163.552 82.2392 163.628 82.2392C163.704 82.2392 163.781 82.2139 163.857 82.1885C163.882 82.1631 167.307 80.4634 170.427 79.7531C170.782 79.677 171.087 79.6262 171.391 79.6262C173.294 79.6262 173.751 81.2752 173.776 81.3513C173.827 81.5543 173.979 81.6811 174.182 81.7319C175.019 81.8841 175.577 82.2139 175.882 82.7213C176.338 83.5077 176.034 84.5224 176.034 84.5478C175.983 84.7 176.008 84.8523 176.085 84.9791C176.161 85.1059 176.313 85.182 176.44 85.2074C177.201 85.3089 177.734 85.588 178.013 86.07C178.342 86.6027 178.317 87.3638 178.013 88.2517C177.911 88.5054 178.038 88.7591 178.266 88.8859C178.266 88.8859 179.18 89.3679 179.256 90.2305C179.332 91.0677 178.621 92.1078 177.175 93.224C176.744 93.5792 176.287 93.909 175.882 94.2134C172 97.1562 168.651 99.7185 163.907 108.75C163.4 109.739 162.867 110.754 162.335 111.769C158.783 118.593 154.775 126.331 150.031 132.191C144.678 138.838 139.198 142.06 133.312 142.06Z" fill="white"/>
<path d="M171.391 80.1341C172.837 80.1341 173.218 81.2758 173.294 81.4787C173.37 81.8846 173.7 82.1637 174.105 82.2398C174.79 82.3666 175.222 82.6203 175.45 82.9755C175.754 83.4575 175.628 84.1678 175.552 84.3962C175.45 84.6752 175.501 85.005 175.653 85.2587C175.805 85.5124 176.084 85.69 176.389 85.7153C176.795 85.7661 177.353 85.9183 177.606 86.3242C177.835 86.7301 177.835 87.339 177.556 88.0493C177.378 88.5313 177.581 89.0641 178.038 89.3178C178.038 89.3178 178.723 89.6729 178.773 90.2564C178.824 90.916 178.139 91.8293 176.896 92.8187C176.465 93.1738 176.008 93.5036 175.602 93.8081C171.67 96.8016 168.271 99.3893 163.501 108.497C162.994 109.486 162.461 110.501 161.928 111.516C158.402 118.315 154.394 126.027 149.675 131.862C144.398 138.382 139.071 141.553 133.337 141.553C127.756 141.553 123.925 139.802 121.693 138.305C119.258 136.707 118.141 135.058 118.116 135.058C118.091 135.033 118.091 135.007 118.065 134.982C118.014 134.906 112.383 127.803 108.146 116.742C108.146 116.716 108.121 116.691 108.121 116.666L104.163 108.243L124.331 98.2984L130.75 107.583C131.815 109.841 133.16 112.835 133.185 112.886C133.337 113.215 133.667 113.444 134.022 113.469C134.048 113.469 134.073 113.469 134.124 113.469C134.454 113.469 134.783 113.317 134.961 113.038C135.113 112.81 150.893 89.7237 158.427 82.4427C160 80.9206 160.964 80.6923 161.421 80.6923C161.649 80.6923 162.309 80.6923 162.689 81.9861C162.766 82.2652 162.994 82.5188 163.248 82.6203C163.374 82.6711 163.501 82.6964 163.653 82.6964C163.806 82.6964 163.958 82.6711 164.11 82.595C164.135 82.5696 167.51 80.8952 170.579 80.2103C170.858 80.1595 171.137 80.1341 171.391 80.1341ZM171.391 79.1194C171.061 79.1194 170.706 79.1701 170.3 79.2462C167.078 79.9819 163.603 81.7324 163.603 81.7324C163.222 80.4386 162.436 79.7029 161.345 79.7029C160.355 79.7029 159.087 80.3371 157.641 81.7324C149.954 89.1655 134.048 112.48 134.048 112.48C134.048 112.48 132.652 109.385 131.562 107.101L124.585 97.0299L102.742 107.812L107.106 117.122C111.469 128.488 117.177 135.642 117.177 135.642C117.177 135.642 121.845 142.593 133.236 142.593C147.823 142.593 156.728 123.414 164.288 109.004C169.488 99.0848 172.964 97.1061 177.429 93.6305C181.894 90.1549 178.418 88.4298 178.418 88.4298C179.154 86.451 178.418 84.9543 176.439 84.726C176.439 84.726 177.403 81.8339 174.207 81.2504C174.283 81.225 173.75 79.1194 171.391 79.1194Z" fill="#333333"/>
<path d="M149.244 92.8943C149.118 92.8943 148.991 92.8435 148.889 92.7421C148.686 92.5391 148.686 92.2347 148.864 92.0317C154.826 85.8163 163.071 82.0363 163.147 82.0109C163.4 81.8841 163.705 82.0109 163.806 82.2646C163.933 82.5183 163.806 82.8228 163.553 82.9242C163.476 82.9496 155.409 86.6535 149.574 92.7421C149.523 92.8435 149.371 92.8943 149.244 92.8943Z" fill="#333333"/>
<path d="M87.3186 125.367C87.2425 125.341 82.0672 123.794 81.3315 118.137C80.7481 113.621 81.7882 109.613 89.0945 100.175C96.553 90.5858 102.87 83.2288 110.709 83.2288C110.988 83.2288 111.267 83.2288 111.546 83.2541C117.28 83.66 121.795 87.0849 124.992 93.4779C127.529 98.5263 129.761 103.118 131.689 107.152L131.715 107.203L107.233 117.147C108.299 119.912 109.542 122.678 110.912 125.316L110.963 125.392L87.3186 125.367Z" fill="#FF5573"/>
<path d="M111.089 125.824H87.3184C87.0394 125.824 86.811 125.595 86.811 125.316C86.811 125.037 87.0394 124.809 87.3184 124.809H111.089C111.368 124.809 111.597 125.037 111.597 125.316C111.597 125.595 111.368 125.824 111.089 125.824Z" fill="#333333"/>
<path d="M115.808 133.511H84.8321C84.553 133.511 84.3247 133.282 84.3247 133.003C84.3247 132.724 84.553 132.496 84.8321 132.496H115.808C116.087 132.496 116.315 132.724 116.315 133.003C116.315 133.282 116.087 133.511 115.808 133.511Z" fill="#333333"/>
<path d="M108.121 118.644C107.918 118.644 107.741 118.542 107.665 118.339C106.244 115.042 104.443 110.171 103.682 107.887C103.606 107.634 103.732 107.329 104.011 107.253C104.265 107.177 104.57 107.304 104.646 107.583C105.381 109.841 107.157 114.686 108.578 117.934C108.679 118.187 108.578 118.492 108.324 118.593C108.248 118.619 108.197 118.644 108.121 118.644Z" fill="#333333"/>
<path d="M90.7436 133.51C90.7182 133.51 90.6928 133.51 90.6675 133.51C90.3884 133.46 90.2108 133.206 90.2616 132.927L91.53 125.24C91.5808 124.961 91.8344 124.783 92.1135 124.834C92.3926 124.885 92.5702 125.139 92.5194 125.418L91.251 133.104C91.2002 133.333 90.9973 133.51 90.7436 133.51Z" fill="#333333"/>
<path d="M98.7088 133.51H98.6834C98.4044 133.485 98.2014 133.256 98.2014 132.977L98.7342 125.291C98.7595 125.012 98.9879 124.809 99.2669 124.809C99.546 124.834 99.7489 125.062 99.7489 125.341L99.2162 133.028C99.1908 133.307 98.9625 133.51 98.7088 133.51Z" fill="#333333"/>
<path d="M106.954 133.51C106.675 133.51 106.446 133.282 106.446 133.003L106.37 125.316C106.37 125.037 106.599 124.809 106.878 124.809C107.157 124.809 107.385 125.037 107.385 125.316L107.461 133.003C107.461 133.282 107.233 133.51 106.954 133.51Z" fill="#333333"/>
<path d="M158.656 90.1544C158.504 90.1544 158.352 90.0782 158.25 89.9514C158.098 89.7231 158.149 89.4186 158.377 89.2411C163.781 85.385 169.21 82.4675 173.624 80.9961C173.878 80.92 174.182 81.0469 174.258 81.3259C174.334 81.605 174.208 81.884 173.929 81.9601C169.59 83.3808 164.263 86.2729 158.935 90.0529C158.859 90.129 158.758 90.1544 158.656 90.1544Z" fill="#333333"/>
<path d="M161.65 93.6055C161.498 93.6055 161.346 93.5294 161.244 93.4026C161.092 93.1743 161.143 92.8698 161.371 92.6922C167.358 88.3541 172.305 85.5128 175.654 84.4473C175.933 84.3712 176.212 84.498 176.288 84.7771C176.364 85.0562 176.237 85.3352 175.958 85.4113C172.711 86.4514 167.891 89.242 161.98 93.5041C161.853 93.5802 161.751 93.6055 161.65 93.6055Z" fill="#333333"/>
<path d="M164.314 97.537C164.187 97.537 164.035 97.4863 163.959 97.3848C163.756 97.1819 163.781 96.8521 163.984 96.6745C167.13 93.6556 174.233 89.4697 177.836 88.2012C178.089 88.0997 178.394 88.252 178.495 88.5056C178.597 88.7593 178.444 89.0638 178.191 89.1652C174.69 90.4083 167.764 94.4674 164.694 97.4356C164.568 97.4863 164.441 97.537 164.314 97.537Z" fill="#333333"/>
<path d="M136.128 118.643C135.925 118.643 135.748 118.542 135.672 118.339L133.439 113.392C133.312 113.138 133.439 112.834 133.693 112.732C133.946 112.605 134.251 112.732 134.352 112.986L136.585 117.933C136.712 118.186 136.585 118.491 136.331 118.592C136.28 118.618 136.204 118.643 136.128 118.643Z" fill="#333333"/>
<path d="M146.326 217.659C146.073 217.659 145.87 217.481 145.819 217.228C141.506 191.783 145.362 172.274 145.388 172.096C145.439 171.817 145.718 171.64 145.997 171.69C146.276 171.741 146.453 172.02 146.403 172.299C146.352 172.502 142.572 191.808 146.834 217.076C146.885 217.355 146.707 217.608 146.428 217.659C146.377 217.659 146.352 217.659 146.326 217.659Z" fill="#333333"/>
<path d="M154.216 172.731H128.441C128.162 172.731 127.934 172.503 127.934 172.223C127.934 171.944 128.162 171.716 128.441 171.716H154.216C154.495 171.716 154.723 171.944 154.723 172.223C154.723 172.503 154.495 172.731 154.216 172.731Z" fill="#333333"/>
<path d="M95.6899 242.572V242.521C95.7153 242.445 97.2121 234.733 100.535 224.636L100.561 224.585H100.612C105.99 225.676 109.744 229.253 111.952 232.044L111.977 232.069L108.197 242.572H95.6899V242.572Z" fill="#333333"/>
<path d="M116.645 242.572V242.521C116.188 239.299 114.336 235.291 111.85 232.12C109.668 229.329 105.939 225.778 100.586 224.687H100.535L100.561 224.636C101.119 222.936 101.753 221.11 102.412 219.232C102.438 219.131 106.142 209.516 108.121 206.091L108.146 206.066L139.502 217.152L139.451 217.203C136.661 221.11 135.189 223.799 134.936 225.423C134.454 228.594 135.392 230.877 138.639 234.555C140.441 236.585 141.126 238.64 141.354 240.01C141.608 241.481 141.43 242.521 141.43 242.521V242.572H116.645Z" fill="#FF5573"/>
<path d="M174.081 204.239C173.903 204.239 173.725 204.138 173.624 203.96C173.04 202.793 172.178 202.058 171.011 201.702C167.611 200.713 162.918 203.504 162.867 203.529C162.664 203.656 162.436 203.63 162.259 203.453C162.081 203.301 162.056 203.047 162.157 202.844C162.233 202.717 168.753 189.754 167.079 184.731C166.825 183.995 166.444 183.513 165.861 183.208C165.049 182.802 164.212 182.777 163.299 183.158C161.092 184.071 158.58 187.293 156.068 192.493C154.14 196.476 152.872 200.231 152.847 200.282C152.77 200.51 152.542 200.662 152.288 200.612C152.035 200.586 151.857 200.383 151.857 200.13C151.857 200.003 151.35 186.532 147.189 183.082C146.428 182.447 145.642 182.219 144.728 182.346C144.449 182.397 144.196 182.194 144.145 181.915C144.094 181.635 144.297 181.382 144.576 181.331C145.769 181.153 146.859 181.483 147.824 182.27C151.223 185.086 152.339 193.457 152.694 197.643C154.369 193.28 158.377 184.046 162.893 182.194C164.06 181.712 165.227 181.737 166.292 182.27C167.104 182.676 167.687 183.386 168.017 184.375C169.489 188.84 165.379 198.303 163.705 201.88C165.48 201.043 168.626 199.901 171.265 200.662C172.711 201.094 173.801 202.007 174.512 203.428C174.639 203.681 174.537 203.986 174.283 204.112C174.233 204.214 174.157 204.239 174.081 204.239Z" fill="#333333"/>
<path d="M151.578 216.315C151.375 216.315 151.172 216.188 151.096 215.96C150.589 214.412 150.842 212.56 151.705 211.139C152.415 209.998 153.455 209.262 154.622 209.059C156.221 208.78 157.235 209.44 157.793 210.023C158.758 211.013 159.087 212.484 158.884 213.372C158.834 213.651 158.555 213.829 158.276 213.752C157.996 213.702 157.819 213.423 157.87 213.144C157.971 212.611 157.743 211.444 157.032 210.708C156.449 210.099 155.688 209.871 154.749 210.049C153.861 210.201 153.075 210.759 152.517 211.647C151.781 212.839 151.578 214.361 152.009 215.63C152.085 215.909 151.959 216.188 151.68 216.264C151.68 216.315 151.629 216.315 151.578 216.315Z" fill="#333333"/>
<path d="M193.59 190.413C193.564 190.413 193.539 190.413 193.514 190.413C192.296 190.236 188.009 189.576 183.417 188.105C179.129 186.709 176.288 185.137 175.02 183.411C174.385 182.549 174.132 181.661 174.259 180.748C174.461 179.505 175.299 178.439 176.745 177.678C179.941 176.004 185.37 176.08 189.125 177.881C189.378 178.008 189.48 178.312 189.353 178.566C189.226 178.82 188.922 178.921 188.668 178.794C185.243 177.145 180.093 177.069 177.201 178.591C176.415 178.997 175.425 179.758 175.248 180.9C175.146 181.534 175.349 182.168 175.831 182.803C178.343 186.151 188.11 188.638 193.64 189.399C193.92 189.449 194.122 189.703 194.072 189.982C194.046 190.236 193.843 190.413 193.59 190.413Z" fill="#333333"/>
<path d="M160.965 169.433C160.407 169.433 159.849 169.357 159.291 169.205C158.073 168.849 157.16 168.088 156.627 166.896C154.724 162.761 157.743 154.592 159.113 151.319C155.46 153.273 145.414 158.144 141.735 154.465C140.721 153.45 140.315 152.106 140.594 150.584C140.974 148.3 143.232 143.709 154.039 138.457C154.293 138.33 154.598 138.432 154.724 138.686C154.851 138.939 154.75 139.244 154.496 139.37C146.911 143.049 142.217 147.21 141.609 150.736C141.406 151.928 141.71 152.968 142.471 153.755C145.693 156.977 156.17 151.928 159.95 149.721C160.153 149.62 160.382 149.645 160.559 149.772C160.712 149.924 160.762 150.152 160.686 150.355C160.635 150.457 155.46 161.771 157.616 166.465C158.048 167.378 158.707 167.961 159.646 168.215C166.039 170.042 169.641 158.752 169.667 158.626C169.743 158.423 169.946 158.27 170.149 158.27C170.377 158.27 170.58 158.423 170.631 158.651C170.631 158.702 171.925 163.141 175.451 164.663C177.531 165.551 179.992 165.272 182.808 163.801C183.062 163.674 183.366 163.776 183.493 164.004C183.62 164.258 183.518 164.562 183.29 164.689C180.195 166.312 177.43 166.617 175.045 165.577C172.356 164.41 170.859 161.847 170.174 160.249C169.718 161.391 168.956 163.116 167.866 164.765C165.76 167.835 163.426 169.433 160.965 169.433Z" fill="#333333"/>
<path d="M136.458 172.68C136.331 172.68 136.204 172.63 136.103 172.528C135.9 172.325 135.9 172.021 136.103 171.818C136.128 171.793 139.426 168.292 137.473 165.171C134.429 160.199 123.063 165.349 122.936 165.4C122.733 165.501 122.48 165.45 122.328 165.273C122.175 165.095 122.175 164.841 122.302 164.664C122.378 164.562 129.406 153.907 127.604 148.732C127.198 147.565 126.361 146.779 125.067 146.347C123.571 145.865 122.175 146.018 120.831 146.804C115.402 149.975 112.865 162.203 112.84 162.33C112.789 162.533 112.611 162.71 112.408 162.736C112.18 162.761 111.977 162.634 111.901 162.457C111.85 162.355 106.624 151.193 101.703 149.924C100.713 149.671 99.8506 149.848 99.0134 150.457C97.9732 151.244 97.4151 152.208 97.3644 153.451C97.1107 158.525 104.95 165.729 105.026 165.805C105.203 165.958 105.229 166.211 105.127 166.414C105.026 166.617 104.798 166.719 104.595 166.693L104.163 166.617C99.9267 165.882 93.5083 164.74 91.3012 169.687C91.1743 169.941 90.8953 170.067 90.6416 169.941C90.3879 169.814 90.2611 169.535 90.3879 169.281C92.6965 164.131 98.8612 164.715 103.174 165.425C100.891 163.091 96.1467 157.738 96.375 153.425C96.4511 151.878 97.1361 150.609 98.4299 149.671C99.4954 148.884 100.688 148.631 101.982 148.96C106.345 150.077 110.632 157.662 112.205 160.757C113.068 157.332 115.63 148.732 120.349 145.967C121.947 145.028 123.647 144.851 125.423 145.409C127.021 145.916 128.112 146.931 128.619 148.428C130.192 152.969 125.955 160.757 124.053 163.903C127.427 162.609 135.57 160.097 138.386 164.689C140.745 168.469 137.042 172.401 136.864 172.554C136.712 172.63 136.585 172.68 136.458 172.68Z" fill="#333333"/>
<path d="M108.908 145.586C108.07 145.586 107.259 145.332 106.472 144.825C103.935 143.15 101.982 138.634 101.424 133.053C101.398 132.774 101.601 132.521 101.88 132.495C102.159 132.47 102.413 132.673 102.438 132.952C102.971 138.254 104.747 142.465 107.03 143.987C107.944 144.596 108.933 144.723 109.948 144.419C110.633 144.216 111.115 143.759 111.47 143.074C113.017 139.954 110.633 133.231 110.633 133.18C110.531 132.926 110.683 132.622 110.937 132.521C111.191 132.419 111.495 132.571 111.597 132.825C111.698 133.104 114.134 140.004 112.408 143.531C111.952 144.469 111.241 145.078 110.303 145.383C109.795 145.535 109.339 145.586 108.908 145.586Z" fill="#333333"/>
<path d="M82.1682 147.159C81.8891 147.159 81.5847 147.159 81.3056 147.134C81.0266 147.108 80.8236 146.88 80.8236 146.601C80.849 146.322 81.0773 146.119 81.3564 146.119C85.5423 146.373 91.5294 144.597 91.7577 141.147C91.8084 140.208 91.4786 139.447 90.7429 138.914C89.1954 137.772 86.1765 137.696 83.5127 138.686C83.259 138.787 82.9546 138.66 82.8531 138.381C82.7517 138.128 82.8785 137.823 83.1576 137.722C86.1511 136.58 89.5252 136.732 91.3264 138.077C92.3412 138.838 92.8485 139.903 92.7724 141.197C92.6456 143.201 91.1742 144.825 88.4851 145.941C86.6585 146.702 84.2992 147.159 82.1682 147.159Z" fill="#333333"/>
<path d="M85.822 160.503C83.9194 160.503 81.9406 159.768 81.8137 159.717C81.56 159.615 81.4078 159.336 81.5093 159.057C81.6108 158.803 81.8898 158.651 82.1689 158.753C83.1583 159.133 86.0504 159.92 87.471 159.133C87.9277 158.88 88.1814 158.499 88.2828 157.941C88.7395 155.429 85.4161 152.461 80.7482 151.193C80.4692 151.117 80.317 150.838 80.3931 150.559C80.4692 150.279 80.7482 150.127 81.0273 150.203C86.2787 151.624 89.8304 155.023 89.2722 158.119C89.12 158.981 88.6887 159.615 87.953 160.021C87.3949 160.376 86.6085 160.503 85.822 160.503Z" fill="#333333"/>
<path d="M171.417 149.112C169.615 149.112 168.093 148.173 167.18 146.956C166.013 145.383 166.038 143.582 167.205 142.491C167.408 142.288 167.738 142.313 167.916 142.516C168.119 142.719 168.093 143.049 167.89 143.226C166.977 144.064 167.282 145.408 167.992 146.347C169.565 148.478 172.127 148.376 173.827 147.387C174.08 147.235 174.385 147.336 174.512 147.565C174.639 147.793 174.562 148.123 174.334 148.249C173.345 148.858 172.355 149.112 171.417 149.112Z" fill="#333333"/>
<path d="M110.886 172.73H110.861C110.582 172.705 110.379 172.476 110.379 172.197C110.531 170.066 112.637 168.798 114.489 168.874C116.341 168.95 117.558 170.244 117.558 172.197C117.558 172.476 117.33 172.705 117.051 172.705C116.772 172.705 116.543 172.476 116.543 172.197C116.543 170.193 115.097 169.914 114.463 169.889C113.068 169.838 111.495 170.777 111.394 172.274C111.368 172.527 111.14 172.73 110.886 172.73Z" fill="#333333"/>
<path d="M145.033 178.363C144.982 178.363 144.906 178.363 144.855 178.338C141.304 176.892 134.758 177.374 134.682 177.374C134.429 177.399 134.2 177.221 134.15 176.993C134.099 176.765 134.2 176.511 134.429 176.41C134.479 176.384 138.259 174.71 139.756 172.351C139.908 172.122 140.213 172.046 140.466 172.198C140.695 172.351 140.771 172.655 140.619 172.909C139.705 174.355 138.107 175.522 136.839 176.308C139.173 176.283 142.8 176.435 145.236 177.424C145.489 177.526 145.616 177.83 145.515 178.084C145.413 178.236 145.236 178.363 145.033 178.363Z" fill="#333333"/>
<path d="M128.645 203.326C127.224 203.326 125.93 202.895 124.763 202.032C120.958 199.241 119.588 192.722 119.182 190.007C118.193 191.174 116.29 193.254 113.829 195.005C108.958 198.48 104.29 199.038 100.308 196.578C100.079 196.425 100.003 196.121 100.13 195.867C100.282 195.639 100.587 195.563 100.84 195.69C109.618 201.119 119.03 188.561 119.106 188.434C119.233 188.257 119.436 188.181 119.639 188.257C119.842 188.307 119.994 188.485 120.019 188.688C120.019 188.789 120.958 197.973 125.347 201.195C126.717 202.184 128.29 202.514 130.065 202.134C131.359 201.854 132.247 201.195 132.755 200.079C134.987 195.385 129.761 184.908 129.71 184.806C129.609 184.578 129.66 184.299 129.863 184.172C130.065 184.02 130.345 184.045 130.522 184.223C130.547 184.248 132.247 185.999 134.809 187.546C137.118 188.942 140.644 190.464 144.196 189.753C144.475 189.703 144.729 189.88 144.805 190.159C144.881 190.438 144.678 190.692 144.399 190.768C141.329 191.402 137.828 190.591 134.277 188.434C133.237 187.8 132.349 187.14 131.638 186.582C133.11 190.058 135.494 196.755 133.693 200.561C133.034 201.931 131.892 202.818 130.294 203.174C129.736 203.25 129.178 203.326 128.645 203.326Z" fill="#333333"/>
<path d="M132.805 215.402C132.729 215.402 132.627 215.376 132.551 215.326C132.297 215.173 132.221 214.869 132.373 214.641C132.399 214.615 133.794 212.205 133.185 210.328C132.932 209.541 132.373 208.958 131.486 208.577C127.503 206.802 122.632 209.161 120.12 210.734C119.892 210.886 119.562 210.81 119.41 210.556C119.258 210.328 119.334 209.998 119.587 209.846C122.302 208.171 127.477 205.685 131.917 207.639C133.084 208.146 133.845 208.958 134.175 210.023C134.91 212.332 133.338 215.046 133.287 215.173C133.16 215.3 132.982 215.402 132.805 215.402Z" fill="#333333"/>
<path d="M119.714 182.701C118.928 182.701 118.167 182.396 117.583 181.711C117.406 181.483 117.431 181.179 117.659 181.001C117.888 180.824 118.192 180.849 118.37 181.077C119.105 181.965 120.272 181.813 121.059 181.28C121.896 180.722 122.581 179.53 121.794 178.033C121.668 177.779 121.769 177.475 121.997 177.348C122.251 177.221 122.556 177.323 122.682 177.551C123.723 179.53 122.885 181.28 121.592 182.117C121.059 182.473 120.399 182.701 119.714 182.701Z" fill="#333333"/>
<path d="M135.139 225.143H127.935C127.655 225.143 127.427 224.915 127.427 224.636C127.427 224.357 127.655 224.128 127.935 224.128H135.139C135.418 224.128 135.647 224.357 135.647 224.636C135.647 224.915 135.418 225.143 135.139 225.143Z" fill="#333333"/>
<path d="M128.949 232.881C128.772 232.881 128.594 232.779 128.493 232.602C128.366 232.348 128.467 232.044 128.721 231.917L134.911 228.847C135.165 228.72 135.469 228.822 135.596 229.075C135.723 229.329 135.622 229.634 135.368 229.76L129.178 232.83C129.102 232.855 129.026 232.881 128.949 232.881Z" fill="#333333"/>
<path d="M175.4 220.197C175.171 220.197 174.943 220.019 174.892 219.791C174.842 219.512 175.019 219.258 175.298 219.207L181.767 218.015C182.047 217.964 182.3 218.142 182.351 218.421C182.402 218.7 182.224 218.954 181.945 219.004L175.476 220.197C175.451 220.197 175.425 220.197 175.4 220.197Z" fill="#333333"/>
<path d="M178.494 227.655C178.317 227.655 178.139 227.554 178.038 227.376C177.911 227.123 178.012 226.818 178.266 226.691L184.202 223.723C184.456 223.596 184.761 223.698 184.887 223.951C185.014 224.205 184.913 224.51 184.659 224.636L178.723 227.605C178.647 227.63 178.571 227.655 178.494 227.655Z" fill="#333333"/>
<path d="M184.329 224.814C184.152 224.814 183.974 224.712 183.898 224.56C183.771 224.357 183.822 224.103 184 223.926L205.563 204.189C205.944 203.834 206.35 203.529 206.806 203.275C208.405 202.337 210.282 202.083 212.109 202.565C213.91 203.047 215.406 204.189 216.345 205.812C216.573 206.218 216.776 206.675 216.954 207.208C217.512 208.983 217.335 210.886 216.472 212.535C215.609 214.184 214.163 215.402 212.388 215.96L184.507 224.763C184.431 224.814 184.38 224.814 184.329 224.814ZM210.282 203.352C209.242 203.352 208.227 203.631 207.314 204.163C206.933 204.366 206.578 204.645 206.274 204.924L186.41 223.114L212.109 214.996C213.631 214.514 214.874 213.474 215.609 212.053C216.345 210.632 216.497 209.009 216.015 207.512C215.863 207.055 215.686 206.649 215.508 206.32C214.696 204.95 213.428 203.96 211.88 203.554C211.297 203.428 210.789 203.352 210.282 203.352Z" fill="#333333"/>
<path d="M201.657 231.384C201.124 231.384 200.591 231.282 200.084 231.079L184.127 224.813C183.898 224.737 183.772 224.509 183.822 224.255C183.848 224.027 184.051 223.849 184.304 223.824L201.403 222.758H201.428C201.733 222.758 202.037 222.758 202.367 222.809C203.509 222.986 204.498 223.595 205.183 224.509C205.868 225.447 206.147 226.563 205.944 227.705C205.893 227.933 205.817 228.263 205.69 228.593C205.284 229.658 204.473 230.496 203.407 230.978C202.849 231.282 202.266 231.384 201.657 231.384ZM186.638 224.711L200.464 230.14C201.276 230.47 202.189 230.445 202.976 230.09C203.788 229.735 204.397 229.1 204.726 228.263C204.828 228.009 204.904 227.73 204.929 227.553C205.056 226.69 204.853 225.828 204.346 225.117C203.838 224.407 203.052 223.95 202.189 223.798C201.961 223.747 201.707 223.747 201.454 223.747L186.638 224.711Z" fill="#333333"/>
<path d="M184.33 224.864C184.076 224.864 183.848 224.661 183.823 224.382C183.544 220.272 184.914 217.152 186.233 214.133C187.78 210.581 189.252 207.233 187.932 202.514C187.856 202.235 188.009 201.956 188.288 201.88C188.567 201.804 188.846 201.956 188.922 202.235C190.317 207.283 188.719 210.962 187.171 214.513C185.903 217.431 184.584 220.45 184.863 224.306C184.888 224.585 184.66 224.839 184.381 224.839C184.355 224.864 184.33 224.864 184.33 224.864Z" fill="#333333"/>
<path d="M187.222 99.1596C185.903 99.1596 185.395 98.3732 185.395 98.3478V98.3224C183.924 92.9188 192.27 83.7606 192.346 83.6591L192.423 83.583L192.448 83.6845C192.473 83.7606 194.325 91.3206 195.644 95.7348V95.7602L195.619 95.7855C193.919 97.054 191.941 98.4493 189.86 98.9059C188.769 99.1342 188.643 99.1596 187.856 99.1596C187.856 99.1596 187.222 99.1596 187.222 99.1596Z" fill="#333333"/>
<path d="M196.05 95.5821C194.731 91.1933 192.879 83.6587 192.854 83.5826C191.357 77.3418 187.501 60.5728 187.907 58.0106C188.135 56.6153 188.744 55.8796 189.784 55.8796C190.063 55.8796 190.241 55.9303 190.241 55.9303C190.292 55.9557 190.342 55.9557 190.393 55.9557C190.52 55.9557 190.621 55.9049 190.723 55.8288C190.85 55.7273 190.926 55.5498 190.9 55.3722C190.571 52.9875 191.002 51.922 191.408 51.4653C191.763 51.0594 192.194 50.9833 192.448 50.9833C192.499 50.9833 192.549 50.9833 192.549 50.9833C192.575 50.9833 192.6 50.9833 192.625 50.9833C192.879 50.9833 193.082 50.8057 193.133 50.5521C193.412 48.827 194.3 48.4718 195.01 48.4718C195.162 48.4718 195.264 48.4972 195.264 48.4972C195.289 48.4972 195.34 48.4972 195.365 48.4972C195.594 48.4972 195.797 48.3449 195.847 48.142C196.101 47.3048 196.583 46.8735 197.243 46.8735C197.902 46.8735 198.587 47.3302 198.866 47.939C199.602 49.6388 202.063 56.5138 202.088 56.5899C202.164 56.7928 202.367 56.9197 202.57 56.9197C202.596 56.9197 202.646 56.9197 202.672 56.9197C202.824 56.8943 202.976 56.869 203.128 56.869C204.752 56.869 206.02 59.0507 207.568 62.577C208.227 64.0484 210.358 69.0968 213.935 77.5194L217.36 87.7177L199.095 104.309L196.05 95.5821Z" fill="white"/>
<path d="M197.217 47.4066C197.674 47.4066 198.182 47.7364 198.359 48.1677C199.069 49.842 201.53 56.7171 201.556 56.7932C201.708 57.1991 202.088 57.4781 202.52 57.4781C202.596 57.4781 202.672 57.4781 202.748 57.4528C202.875 57.4274 202.976 57.402 203.078 57.402C204.498 57.402 205.818 59.9897 207.035 62.8056C207.67 64.277 209.826 69.3001 213.403 77.748L216.726 87.6166L199.272 103.472L196.533 95.4303C195.213 91.0414 193.361 83.5322 193.361 83.4561C191.281 74.8052 188.085 60.2941 188.414 58.087C188.668 56.4126 189.505 56.3873 189.784 56.3873C189.937 56.3873 190.063 56.4126 190.089 56.4126C190.19 56.438 190.292 56.4634 190.393 56.4634C190.622 56.4634 190.85 56.3873 191.027 56.2351C191.306 56.0067 191.408 55.6516 191.383 55.3218C191.078 53.0132 191.484 52.1253 191.763 51.7955C191.991 51.5418 192.245 51.491 192.397 51.491C192.423 51.491 192.423 51.491 192.423 51.491C192.499 51.5164 192.55 51.5164 192.626 51.5164C192.829 51.5164 193.006 51.4657 193.184 51.3388C193.412 51.1866 193.539 50.9329 193.59 50.6539C193.767 49.563 194.224 49.0049 194.96 49.0049C195.036 49.0049 195.086 49.0049 195.112 49.0049C195.188 49.0302 195.264 49.0302 195.366 49.0302C195.797 49.0302 196.177 48.7258 196.304 48.2945C196.507 47.711 196.812 47.4066 197.217 47.4066ZM197.217 46.3918C196.456 46.3918 195.695 46.8485 195.34 48.0155C195.34 48.0155 195.213 47.9901 194.985 47.9901C194.325 47.9901 192.981 48.2692 192.626 50.5016C192.626 50.5016 192.55 50.5016 192.448 50.5016C191.814 50.5016 189.784 50.8568 190.393 55.474C190.393 55.474 190.14 55.3979 189.784 55.3979C189.023 55.3979 187.755 55.753 187.4 57.9601C186.892 61.182 192.347 83.7351 192.347 83.7351C192.347 83.7351 194.199 91.3205 195.543 95.7854L198.79 105.299L217.868 87.9464L214.367 77.3675C211.5 70.6193 208.76 64.1248 207.999 62.3997C206.401 58.772 205.031 56.3873 203.103 56.3873C202.926 56.3873 202.748 56.4126 202.545 56.438C202.545 56.438 200.059 49.5122 199.323 47.7618C198.968 46.9753 198.08 46.3918 197.217 46.3918Z" fill="#333333"/>
<path d="M214.951 127.37C210.46 127.37 203.458 125.467 195.645 116.436C190.241 110.195 186.588 102.838 185.37 98.3479C185.37 98.3479 189.455 100.428 195.569 95.6841C198.182 93.4263 199.78 91.3714 201.632 88.9867C202.926 87.3123 204.397 85.435 206.427 83.2025C211.272 77.875 214.291 77.3677 214.316 77.3423H214.367L214.392 77.3677C217.893 85.638 221.572 94.3142 221.876 95.0499L255.44 77.9258L257.951 80.7925L240.472 117.933C240.396 118.034 232.81 126.634 215.661 127.37C215.433 127.37 215.204 127.37 214.951 127.37Z" fill="#B666D2"/>
<path d="M197.547 79.2451C197.293 79.2451 197.065 79.0422 197.04 78.7631C196.608 72.2179 200.667 68.2857 201.708 67.3978C201.657 67.1187 201.606 66.8397 201.555 66.5352C200.896 62.7299 199.957 57.5292 202.316 56.4891C202.57 56.3876 202.875 56.4891 202.976 56.7428C203.077 56.9965 202.976 57.3009 202.722 57.4024C201.124 58.1127 202.088 63.6685 202.57 66.3323C202.646 66.7636 202.722 67.1695 202.773 67.4993C202.798 67.6768 202.722 67.8798 202.57 67.9813C202.519 68.0066 197.598 71.8627 198.054 78.687C198.08 78.9661 197.851 79.2198 197.572 79.2198C197.572 79.2451 197.547 79.2451 197.547 79.2451Z" fill="#333333"/>
<path d="M198.816 62.9076C198.613 62.9076 198.41 62.7807 198.334 62.5524C197.953 61.3347 194.579 50.6797 195.366 48.1174C195.442 47.8384 195.721 47.7115 196 47.7876C196.279 47.8637 196.431 48.1428 196.33 48.4218C195.797 50.1216 197.827 57.6308 199.298 62.248C199.374 62.5271 199.247 62.8061 198.968 62.8822C198.917 62.9076 198.867 62.9076 198.816 62.9076Z" fill="#333333"/>
<path d="M196.076 64.887C195.847 64.887 195.67 64.7601 195.593 64.5318C192.879 55.9063 192.625 50.9847 192.6 50.7818C192.575 50.5027 192.803 50.2744 193.082 50.249C193.361 50.249 193.589 50.452 193.615 50.731C193.615 50.7818 193.894 55.7287 196.558 64.2274C196.634 64.5064 196.481 64.7855 196.228 64.8616C196.177 64.887 196.126 64.887 196.076 64.887Z" fill="#333333"/>
<path d="M193.361 67.3474C193.133 67.3474 192.93 67.1952 192.879 66.9669C191.382 61.5887 190.393 55.8299 190.393 55.7791C190.342 55.5001 190.52 55.2464 190.799 55.1957C191.078 55.1449 191.332 55.3225 191.382 55.6016C191.382 55.6523 192.397 61.3603 193.868 66.6878C193.945 66.9669 193.792 67.246 193.513 67.3221C193.463 67.3474 193.412 67.3474 193.361 67.3474Z" fill="#333333"/>
<path d="M191.865 68.5902C191.713 68.5902 191.561 68.5141 191.459 68.3873C191.282 68.159 191.332 67.8545 191.561 67.6769L199.248 61.7406C199.476 61.563 199.78 61.6137 199.958 61.8421C200.136 62.0704 200.085 62.3748 199.856 62.5524L192.17 68.4888C192.094 68.5649 191.967 68.5902 191.865 68.5902Z" fill="#333333"/>
<path d="M224.083 101.062C223.88 101.062 223.702 100.935 223.601 100.758L221.369 95.3035C221.267 95.0498 221.394 94.7454 221.648 94.6439C221.901 94.5424 222.206 94.6693 222.307 94.923L224.54 100.377C224.641 100.631 224.514 100.935 224.261 101.037C224.21 101.062 224.159 101.062 224.083 101.062Z" fill="#333333"/>
<path d="M193.615 111.59C192.829 111.59 192.093 111.514 191.433 111.362C191.154 111.311 190.977 111.032 191.053 110.753C191.104 110.474 191.383 110.297 191.662 110.373C195.112 111.108 200.465 110.22 206.224 101.747C210.587 95.3796 215.991 90.3565 219.669 89.2656C219.948 89.1895 220.227 89.3417 220.303 89.6208C220.379 89.8998 220.227 90.1789 219.948 90.255C216.473 91.2698 211.297 96.1406 207.061 102.331C202.038 109.662 197.243 111.59 193.615 111.59Z" fill="#333333"/>
<path d="M224.261 145.687L257.748 77.6975L272.462 76.8604L294.026 145.687H224.261Z" fill="#B666D2"/>
<path d="M254.323 129.806C254.298 129.806 254.273 129.806 254.222 129.806C253.943 129.755 253.765 129.476 253.816 129.222L261.477 88.5808C261.528 88.3017 261.807 88.1242 262.061 88.1749C262.34 88.2256 262.518 88.5047 262.467 88.7584L254.805 129.4C254.78 129.628 254.552 129.806 254.323 129.806Z" fill="#333333"/>
<path d="M236.362 121.738C236.286 121.738 236.209 121.713 236.133 121.688C235.88 121.561 235.778 121.256 235.905 121.003L255.084 82.2387C255.211 81.9851 255.515 81.8836 255.769 82.0104C256.023 82.1373 256.124 82.4417 255.997 82.6954L236.818 121.459C236.717 121.637 236.539 121.738 236.362 121.738Z" fill="#333333"/>
<path d="M213.682 93.6295C213.479 93.6295 213.301 93.528 213.225 93.325L208.025 81.3762C207.923 81.1225 208.025 80.8181 208.278 80.7166C208.532 80.6151 208.836 80.7166 208.938 80.9703L214.139 92.9191C214.24 93.1728 214.139 93.4773 213.885 93.5787C213.809 93.6041 213.758 93.6295 213.682 93.6295Z" fill="#333333"/>
<path d="M206.071 103.27C205.893 103.27 205.716 103.168 205.614 102.991L199.754 91.0926C199.627 90.8389 199.729 90.5345 199.982 90.4076C200.236 90.2808 200.54 90.3823 200.667 90.636L206.527 102.534C206.654 102.788 206.553 103.092 206.299 103.219C206.223 103.244 206.147 103.27 206.071 103.27Z" fill="#333333"/>
<path d="M197.572 110.475C197.395 110.475 197.242 110.398 197.141 110.221L197.065 110.094C195.111 106.898 192.651 102.915 190.672 97.993C190.57 97.7393 190.697 97.4348 190.951 97.3334C191.205 97.2319 191.509 97.3587 191.611 97.6124C193.564 102.458 195.999 106.39 197.927 109.561L198.004 109.688C198.156 109.916 198.08 110.246 197.826 110.398C197.75 110.449 197.674 110.475 197.572 110.475Z" fill="#333333"/>
<path d="M277.84 173.999C276.115 173.999 274.01 172.223 272.538 170.726C270.915 169.052 269.19 166.82 268.149 164.993L268.124 164.942L268.175 164.917C268.226 164.892 273.046 163.04 277.866 160.807L277.917 160.782L277.942 160.832C277.967 160.883 281.088 165.221 280.834 169.407C280.606 173.111 278.424 173.948 278.348 173.948C278.196 173.974 278.018 173.999 277.84 173.999Z" fill="#333333"/>
<path d="M260.741 128.157C241.309 126.153 214.417 137.924 209.47 140.639C207.416 141.755 205.995 143.252 206.401 145.738H229.106C226.214 151.877 225.377 156.976 229.411 157.255C234.687 157.611 240.091 150.203 242.856 145.738H276.597C276.622 145.738 280.073 130.136 260.741 128.157Z" fill="#DBB3E8"/>
<path d="M231.237 118.694H240.268C240.268 118.694 247.727 111.49 249.554 113.012C252.649 115.599 246.712 140.131 228.903 138.33C212.464 136.656 223.474 110.728 227.863 111.236C229.943 111.464 231.237 118.694 231.237 118.694Z" fill="#DBB3E8"/>
<path d="M230.705 138.914C230.096 138.914 229.487 138.889 228.853 138.813C225.809 138.508 223.5 137.392 221.927 135.464C221.749 135.236 221.775 134.931 222.003 134.754C222.232 134.576 222.536 134.601 222.714 134.83C224.083 136.529 226.189 137.544 228.929 137.823C233.724 138.305 240.523 137.088 245.799 128.462C245.952 128.234 246.256 128.158 246.51 128.284C246.738 128.437 246.814 128.741 246.687 128.995C242.73 135.439 237.123 138.914 230.705 138.914Z" fill="#333333"/>
<path d="M232.911 127.98H229.943C229.664 127.98 229.436 127.752 229.436 127.473C229.436 127.194 229.664 126.965 229.943 126.965H232.911C233.19 126.965 233.419 127.194 233.419 127.473C233.419 127.752 233.19 127.98 232.911 127.98Z" fill="#333333"/>
<path d="M230.704 131.582C230.679 131.582 230.628 131.582 230.603 131.582C230.324 131.531 230.146 131.252 230.197 130.999L230.907 127.396C230.958 127.117 231.237 126.94 231.491 126.99C231.77 127.041 231.947 127.32 231.897 127.574L231.186 131.176C231.161 131.405 230.933 131.582 230.704 131.582Z" fill="#333333"/>
<path d="M230.932 131.836C229.588 131.836 228.294 131.328 227.482 130.364C227.304 130.161 227.33 129.831 227.558 129.654C227.761 129.476 228.091 129.502 228.268 129.73C229.309 130.973 231.82 131.354 233.774 129.908C234.002 129.73 234.306 129.781 234.484 130.009C234.661 130.237 234.611 130.542 234.382 130.719C233.342 131.455 232.099 131.836 230.932 131.836Z" fill="#333333"/>
<path d="M238.721 126.686C238.645 126.686 238.569 126.661 238.493 126.635C238.239 126.509 238.138 126.204 238.264 125.95L238.518 125.418C238.645 125.164 238.949 125.063 239.203 125.189C239.457 125.316 239.558 125.621 239.431 125.874L239.178 126.407C239.102 126.585 238.899 126.686 238.721 126.686Z" fill="#333333"/>
<path d="M245.165 120.749C245.089 120.749 244.987 120.724 244.911 120.673C244.657 120.546 244.581 120.217 244.708 119.988L246.002 117.654C246.129 117.401 246.459 117.325 246.687 117.451C246.941 117.578 247.017 117.908 246.89 118.136L245.596 120.47C245.52 120.648 245.342 120.749 245.165 120.749Z" fill="#333333"/>
<path d="M226.848 120.217C226.569 120.217 226.341 119.989 226.341 119.71V117.148C226.341 116.868 226.569 116.64 226.848 116.64C227.127 116.64 227.356 116.868 227.356 117.148V119.71C227.356 119.989 227.127 120.217 226.848 120.217Z" fill="#333333"/>
<path d="M226.062 126.686C225.986 126.686 225.91 126.661 225.834 126.635C225.58 126.509 225.479 126.204 225.606 125.95L225.859 125.418C225.986 125.164 226.291 125.063 226.544 125.189C226.798 125.316 226.9 125.621 226.773 125.874L226.519 126.407C226.443 126.585 226.24 126.686 226.062 126.686Z" fill="#333333"/>
<path d="M242.882 146.246C242.805 146.246 242.729 146.221 242.628 146.195C242.374 146.068 242.298 145.764 242.425 145.51L243.693 143.176C243.82 142.923 244.125 142.846 244.378 142.973C244.632 143.1 244.708 143.405 244.581 143.658L243.313 145.992C243.237 146.144 243.059 146.246 242.882 146.246Z" fill="#333333"/>
<path d="M229.106 146.246C229.03 146.246 228.954 146.22 228.878 146.195C228.624 146.068 228.548 145.764 228.675 145.51L230.831 141.451C230.958 141.197 231.263 141.121 231.516 141.248C231.77 141.375 231.846 141.679 231.719 141.933L229.563 145.992C229.461 146.144 229.284 146.246 229.106 146.246Z" fill="#333333"/>
<path d="M228.041 157.053C227.762 157.053 227.534 156.825 227.534 156.546C227.534 155.708 227.711 154.897 228.092 154.11C228.219 153.857 228.523 153.755 228.777 153.857C229.03 153.983 229.132 154.288 229.03 154.541C228.726 155.201 228.574 155.886 228.574 156.571C228.548 156.825 228.32 157.053 228.041 157.053Z" fill="#333333"/>
<path d="M230.526 157.561C230.247 157.561 230.019 157.333 230.019 157.053C230.019 156.216 230.197 155.404 230.577 154.618C230.704 154.364 231.008 154.263 231.262 154.364C231.516 154.491 231.617 154.796 231.516 155.049C231.211 155.709 231.059 156.394 231.059 157.079C231.034 157.333 230.805 157.561 230.526 157.561Z" fill="#333333"/>
<path d="M209.039 146.246C208.786 146.246 208.557 146.043 208.532 145.764C208.532 145.714 208.456 144.496 209.014 143.633C209.166 143.405 209.47 143.329 209.724 143.481C209.952 143.633 210.029 143.938 209.876 144.191C209.572 144.673 209.547 145.46 209.547 145.714C209.572 145.993 209.344 146.246 209.065 146.246H209.039Z" fill="#333333"/>
<path d="M211.525 146.246C211.271 146.246 211.043 146.043 211.018 145.764C211.018 145.714 210.942 144.496 211.5 143.633C211.652 143.405 211.956 143.329 212.21 143.481C212.438 143.633 212.514 143.938 212.362 144.191C212.058 144.673 212.032 145.46 212.032 145.714C212.058 145.993 211.829 146.246 211.55 146.246H211.525Z" fill="#333333"/>
<path d="M251.584 168.494C247.905 168.494 247.372 167.048 247.372 167.048C247.322 166.82 247.119 166.693 246.89 166.693C246.865 166.693 245.089 166.668 244.201 165.704C243.795 165.272 243.643 164.714 243.694 164.029C243.719 163.826 243.592 163.623 243.415 163.547C243.415 163.547 242.349 162.989 242.146 162.051C242.019 161.467 242.248 160.807 242.831 160.097C242.907 159.996 242.958 159.843 242.933 159.717C242.907 159.59 242.857 159.463 242.73 159.361C242.73 159.361 241.893 158.702 241.893 157.738C241.918 156.926 242.527 156.089 243.694 155.226C245.368 154.034 251.254 151.091 251.305 151.066C251.482 150.99 251.584 150.787 251.584 150.584C251.584 150.381 251.457 150.203 251.279 150.127C251.279 150.127 250.214 149.67 249.96 148.782C249.808 148.25 249.985 147.616 250.493 146.931C251.533 145.485 255.059 143.582 259.93 140.943C261.122 140.284 262.391 139.599 263.735 138.863L277.333 132.698L286.618 154.617L277.638 160.402C272.817 162.634 268.048 164.486 267.997 164.486C267.921 164.511 261.3 167.124 254.958 168.164C253.715 168.393 252.573 168.494 251.584 168.494Z" fill="white"/>
<path d="M277.079 133.358L286.009 154.415L277.409 159.945C272.614 162.152 267.87 163.979 267.82 164.004C267.744 164.029 261.173 166.617 254.907 167.657C253.664 167.86 252.573 167.962 251.583 167.962C248.666 167.962 247.956 167.048 247.854 166.871C247.778 166.389 247.372 166.16 246.89 166.16C246.459 166.16 245.165 166.008 244.556 165.323C244.252 164.993 244.15 164.588 244.176 164.029C244.201 163.624 243.998 163.243 243.618 163.04C243.389 162.913 242.73 162.482 242.628 161.898C242.552 161.467 242.73 160.96 243.212 160.376C243.389 160.173 243.465 159.894 243.44 159.615C243.415 159.336 243.262 159.108 243.059 158.93C243.059 158.93 242.4 158.398 242.425 157.713C242.451 157.078 242.983 156.343 244.023 155.607C245.672 154.44 251.507 151.497 251.558 151.472C251.913 151.294 252.142 150.939 252.116 150.533C252.091 150.127 251.862 149.797 251.507 149.645C251.279 149.544 250.619 149.163 250.493 148.63C250.391 148.25 250.543 147.768 250.949 147.21C251.939 145.865 255.592 143.886 260.209 141.375C261.427 140.715 262.67 140.03 264.014 139.295L277.079 133.358ZM277.612 132.014L263.532 138.407C256.607 142.237 251.507 144.724 250.112 146.626C248.133 149.341 251.101 150.584 251.101 150.584C251.101 150.584 245.165 153.552 243.415 154.795C239.533 157.56 242.425 159.742 242.425 159.742C240.193 162.457 243.161 163.953 243.161 163.953C242.907 167.175 246.865 167.175 246.865 167.175C246.865 167.175 247.347 168.976 251.558 168.976C252.522 168.976 253.664 168.875 255.034 168.647C261.503 167.556 268.175 164.943 268.175 164.943C268.175 164.943 272.97 163.091 277.866 160.833L287.252 154.795L277.612 132.014Z" fill="#333333"/>
<path d="M310.617 123.819C309.704 118.162 307.167 112.073 303.032 105.756C299.734 100.708 295.421 95.4818 290.246 90.2304C281.392 81.3005 272.944 75.3134 272.843 75.2373L272.792 75.2119L267.388 82.1884L284.741 125.037C277.029 130.669 269.671 134.931 263.507 138.33L263.481 138.356V138.381C263.481 138.432 264.471 142.44 266.932 145.89C268.479 148.047 269.9 149.797 271.27 151.471C273.528 154.262 275.659 156.875 277.84 160.782C281.671 168.164 280.352 173.162 278.373 173.898C279.87 173.517 288.876 167.251 297.095 157.864C301.763 152.537 305.315 147.184 307.674 141.983C310.516 135.641 311.505 129.527 310.617 123.819Z" fill="#B666D2"/>
<path d="M284.792 125.595C284.589 125.595 284.412 125.468 284.31 125.265L274.087 99.9722C273.985 99.7185 274.112 99.4141 274.366 99.3126C274.619 99.2111 274.924 99.338 275.025 99.5917L285.249 124.885C285.35 125.138 285.224 125.443 284.97 125.544C284.919 125.595 284.868 125.595 284.792 125.595Z" fill="#333333"/>
<path d="M272.868 133.51C272.691 133.51 272.538 133.434 272.437 133.257C272.285 133.028 272.361 132.698 272.614 132.572C277.029 129.882 280.91 127.295 284.487 124.682L287.709 122.196C287.937 122.018 288.242 122.069 288.419 122.297C288.597 122.525 288.546 122.83 288.318 123.007L285.096 125.494C281.494 128.132 277.587 130.72 273.147 133.434C273.046 133.485 272.97 133.51 272.868 133.51Z" fill="#333333"/>
<path d="M292.732 162.862C292.732 162.862 292.707 162.862 292.732 162.862C292.428 162.836 292.199 162.608 292.225 162.329C292.301 160.528 291.92 158.473 291.032 156.24C289.891 153.323 287.151 149.797 284.233 146.067C280.453 141.196 276.521 136.173 275.405 131.582C275.329 131.303 275.506 131.023 275.786 130.973C276.065 130.897 276.344 131.074 276.394 131.353C277.46 135.717 281.316 140.664 285.045 145.459C287.988 149.238 290.804 152.841 291.971 155.885C292.884 158.27 293.316 160.452 293.214 162.38C293.214 162.659 293.011 162.862 292.732 162.862Z" fill="#333333"/>
<path d="M248.692 98.2983C250.205 98.2983 251.432 97.0717 251.432 95.5585C251.432 94.0453 250.205 92.8186 248.692 92.8186C247.179 92.8186 245.952 94.0453 245.952 95.5585C245.952 97.0717 247.179 98.2983 248.692 98.2983Z" fill="#333333"/>
<path d="M251.66 102.763C253.173 102.763 254.4 101.536 254.4 100.023C254.4 98.5099 253.173 97.2832 251.66 97.2832C250.147 97.2832 248.92 98.5099 248.92 100.023C248.92 101.536 250.147 102.763 251.66 102.763Z" fill="#333333"/>
<path d="M255.77 106.137C257.283 106.137 258.51 104.91 258.51 103.397C258.51 101.884 257.283 100.657 255.77 100.657C254.257 100.657 253.03 101.884 253.03 103.397C253.03 104.91 254.257 106.137 255.77 106.137Z" fill="#333333"/>
<path d="M260.971 107.203C262.484 107.203 263.711 105.976 263.711 104.463C263.711 102.95 262.484 101.723 260.971 101.723C259.458 101.723 258.231 102.95 258.231 104.463C258.231 105.976 259.458 107.203 260.971 107.203Z" fill="#333333"/>
<path d="M266.197 106.416C267.71 106.416 268.936 105.19 268.936 103.676C268.936 102.163 267.71 100.937 266.197 100.937C264.683 100.937 263.457 102.163 263.457 103.676C263.457 105.19 264.683 106.416 266.197 106.416Z" fill="#333333"/>
<path d="M270.94 104.538C272.453 104.538 273.68 103.312 273.68 101.798C273.68 100.285 272.453 99.0586 270.94 99.0586C269.427 99.0586 268.2 100.285 268.2 101.798C268.2 103.312 269.427 104.538 270.94 104.538Z" fill="#333333"/>
<path d="M275.583 102.053C277.096 102.053 278.323 100.826 278.323 99.3131C278.323 97.7999 277.096 96.5732 275.583 96.5732C274.07 96.5732 272.843 97.7999 272.843 99.3131C272.843 100.826 274.07 102.053 275.583 102.053Z" fill="#333333"/>
<path d="M279.692 98.6531C281.206 98.6531 282.432 97.4264 282.432 95.9132C282.432 94.4 281.206 93.1733 279.692 93.1733C278.179 93.1733 276.953 94.4 276.953 95.9132C276.953 97.4264 278.179 98.6531 279.692 98.6531Z" fill="#333333"/>
<path d="M283.194 94.7715C284.707 94.7715 285.934 93.5448 285.934 92.0316C285.934 90.5184 284.707 89.2917 283.194 89.2917C281.681 89.2917 280.454 90.5184 280.454 92.0316C280.454 93.5448 281.681 94.7715 283.194 94.7715Z" fill="#333333"/>
<path d="M286.822 91.1184C288.335 91.1184 289.562 89.8917 289.562 88.3785C289.562 86.8653 288.335 85.6387 286.822 85.6387C285.309 85.6387 284.082 86.8653 284.082 88.3785C284.082 89.8917 285.309 91.1184 286.822 91.1184Z" fill="#333333"/>
<path d="M266.957 146.398C266.78 146.398 266.602 146.296 266.526 146.144C266.374 145.89 266.475 145.586 266.704 145.459L279.084 138.279C279.338 138.127 279.642 138.229 279.769 138.457C279.921 138.711 279.82 139.015 279.591 139.142L267.211 146.321C267.135 146.372 267.034 146.398 266.957 146.398Z" fill="#333333"/>
<path d="M274.34 156.012C274.162 156.012 274.01 155.936 273.908 155.784C273.756 155.555 273.832 155.226 274.061 155.073L286.035 147.564C286.263 147.412 286.593 147.488 286.745 147.716C286.897 147.945 286.821 148.274 286.593 148.427L274.619 155.936C274.517 155.987 274.441 156.012 274.34 156.012Z" fill="#333333"/>
<path d="M279.591 166.719C279.413 166.719 279.261 166.642 279.16 166.49C279.007 166.262 279.084 165.932 279.312 165.78C284.081 162.786 290.703 157.586 291.362 156.926C291.565 156.723 291.87 156.723 292.072 156.926C292.275 157.129 292.275 157.434 292.072 157.636C291.235 158.474 284.538 163.674 279.845 166.643C279.769 166.693 279.692 166.719 279.591 166.719Z" fill="#333333"/>
<path d="M251.584 151.345C251.381 151.345 251.203 151.243 251.127 151.066C251 150.812 251.127 150.507 251.381 150.381L259.803 146.423C260.057 146.296 260.361 146.423 260.488 146.677C260.615 146.93 260.488 147.235 260.235 147.362L251.812 151.319C251.736 151.319 251.66 151.345 251.584 151.345Z" fill="#333333"/>
<path d="M242.882 160.172C242.653 160.172 242.45 160.02 242.4 159.792C242.324 159.513 242.501 159.234 242.755 159.183C242.806 159.158 249.072 157.509 259.321 152.866C259.574 152.739 259.879 152.866 259.98 153.12C260.107 153.374 259.98 153.678 259.727 153.779C249.401 158.473 243.059 160.122 243.008 160.147C242.958 160.172 242.932 160.172 242.882 160.172Z" fill="#333333"/>
<path d="M243.896 164.232C243.668 164.232 243.44 164.054 243.389 163.826C243.338 163.547 243.516 163.293 243.795 163.217C252.065 161.517 261.68 157.103 261.782 157.052C262.035 156.926 262.34 157.052 262.467 157.306C262.593 157.56 262.467 157.864 262.213 157.991C262.111 158.042 252.395 162.507 244.023 164.207C243.972 164.232 243.922 164.232 243.896 164.232Z" fill="#333333"/>
<path d="M247.625 167.2C247.372 167.2 247.169 167.023 247.118 166.769C247.067 166.49 247.27 166.236 247.549 166.186C247.6 166.186 253.815 165.145 264.141 161.137C264.394 161.036 264.699 161.162 264.8 161.416C264.902 161.67 264.775 161.974 264.521 162.076C254.095 166.135 247.778 167.175 247.727 167.175C247.676 167.2 247.651 167.2 247.625 167.2Z" fill="#333333"/>
<path d="M281.316 62.9835C280.047 62.9835 278.906 62.882 277.967 62.7552C274.847 62.2985 272.056 61.233 270.356 59.8377C270.052 59.584 269.747 59.3557 269.418 59.102C266.526 56.8695 262.898 54.0789 262.238 45.6057C262.213 45.3266 262.416 45.0729 262.695 45.0476C262.974 45.0222 263.228 45.2251 263.253 45.5042C263.887 53.5208 267.16 56.0577 270.052 58.2902C270.382 58.5439 270.686 58.7976 271.016 59.0513C274.136 61.6389 281.468 63.085 287.886 60.954C288.165 60.8778 288.444 61.0047 288.521 61.2838C288.597 61.5374 288.47 61.8419 288.191 61.918C285.73 62.7044 283.345 62.9835 281.316 62.9835Z" fill="#333333"/>
<path d="M277.637 84.7755C281.014 84.7755 283.751 82.0382 283.751 78.6616C283.751 75.2849 281.014 72.5476 277.637 72.5476C274.26 72.5476 271.523 75.2849 271.523 78.6616C271.523 82.0382 274.26 84.7755 277.637 84.7755Z" fill="white"/>
<path d="M277.637 73.055C280.732 73.055 283.244 75.5666 283.244 78.6616C283.244 81.7566 280.732 84.2682 277.637 84.2682C274.542 84.2682 272.031 81.7566 272.031 78.6616C272.031 75.5666 274.542 73.055 277.637 73.055ZM277.637 72.0403C273.984 72.0403 271.016 75.0085 271.016 78.6616C271.016 82.3148 273.984 85.2829 277.637 85.2829C281.29 85.2829 284.259 82.3148 284.259 78.6616C284.259 75.0085 281.316 72.0403 277.637 72.0403Z" fill="#333333"/>
<path d="M264.267 88.5303C264.14 88.5303 264.013 88.5303 263.887 88.5303C259.168 88.2766 254.754 83.2789 252.952 76.1248C250.644 66.9919 252.318 58.747 256.885 56.9204C258.331 56.3369 259.853 56.0579 261.426 56.0579C267.641 56.0579 272.842 60.5228 272.893 60.5736C275.734 63.1358 277.028 65.7235 277.053 68.9453C277.104 72.5224 275.582 76.9112 272.258 82.7208C270.127 86.5261 267.362 88.5303 264.267 88.5303Z" fill="white"/>
<path d="M261.451 56.5653C267.387 56.5653 272.411 60.8019 272.588 60.9541C277.281 65.2162 278.778 70.29 271.852 82.4671C269.772 86.0949 267.159 88.0229 264.292 88.0229C264.191 88.0229 264.064 88.0229 263.963 88.0229C259.447 87.7693 255.261 82.9491 253.485 75.998C252.369 71.5584 252.166 67.1949 252.927 63.694C253.637 60.4214 255.134 58.1889 257.113 57.4025C258.458 56.8444 259.929 56.5653 261.451 56.5653ZM261.451 55.5505C259.929 55.5505 258.331 55.8042 256.707 56.4385C251.963 58.3158 250.06 66.6622 252.47 76.2263C254.398 83.8624 259.066 88.7587 263.861 89.0123C263.988 89.0123 264.115 89.0123 264.267 89.0123C267.286 89.0123 270.33 87.1604 272.715 82.9491C279.539 70.9496 278.677 65.0893 273.248 60.1677C273.248 60.1931 267.946 55.5505 261.451 55.5505Z" fill="#333333"/>
<path d="M273.248 60.1938C278.246 64.7095 279.387 70.0117 274.238 80.1593C266.931 72.0666 269.417 60.9042 269.417 60.9042C269.417 60.9042 260.259 68.591 251.76 64.2275C252.445 60.3207 254.171 57.454 256.707 56.4392C265.13 53.0905 273.248 60.1938 273.248 60.1938Z" fill="#333333"/>
<path d="M258.458 75.7948C258.356 75.7948 258.28 75.7694 258.179 75.7187C257.671 75.3889 257.265 74.9323 257.037 74.3741C256.885 73.9936 256.809 73.4609 256.834 72.7252C256.834 72.4461 257.088 72.2178 257.367 72.2431C257.646 72.2431 257.874 72.4968 257.849 72.7759C257.824 73.334 257.874 73.7399 257.95 73.9936C258.103 74.3488 258.382 74.6532 258.711 74.8815C258.94 75.0337 259.016 75.3382 258.864 75.5919C258.788 75.7187 258.635 75.7948 258.458 75.7948Z" fill="#333333"/>
<path d="M262.721 71.4067H262.695C262.416 71.3814 262.213 71.153 262.239 70.874L262.289 70.189C262.315 69.91 262.543 69.707 262.822 69.7324C263.101 69.7577 263.304 69.9861 263.279 70.2651L263.228 70.9501C263.203 71.2038 262.974 71.4067 262.721 71.4067Z" fill="#333333"/>
<path d="M254.247 70.1133H254.221C253.942 70.0879 253.739 69.8596 253.765 69.5805L253.815 68.8956C253.841 68.6165 254.069 68.4135 254.348 68.4389C254.627 68.4643 254.83 68.6926 254.805 68.9717L254.754 69.6566C254.729 69.9103 254.5 70.1133 254.247 70.1133Z" fill="#333333"/>
<path d="M260.996 81.2754C260.108 81.2754 259.068 80.7426 258.535 79.1444C258.484 79.0175 258.509 78.8653 258.56 78.7638C258.611 78.637 258.738 78.5609 258.865 78.5102L262.822 77.2671C262.974 77.2163 263.127 77.2417 263.254 77.3432C263.38 77.4446 263.456 77.5715 263.482 77.7237C263.659 79.8293 262.518 81.0217 261.402 81.25C261.275 81.25 261.122 81.2754 260.996 81.2754ZM259.702 79.322C260.057 80.0069 260.615 80.3621 261.199 80.2606C261.782 80.1338 262.366 79.5249 262.467 78.4594L259.702 79.322Z" fill="#333333"/>
<path d="M278.677 79.9811C278.601 79.9811 278.55 79.9558 278.474 79.9304L274.897 78.4083C274.644 78.3068 274.517 78.0024 274.618 77.7487C274.72 77.495 275.024 77.3681 275.278 77.4696L278.855 78.9917C279.108 79.0932 279.235 79.3977 279.134 79.6513C279.058 79.8543 278.88 79.9811 278.677 79.9811Z" fill="#333333"/>
<path d="M276.242 61.2844C281.888 61.2844 286.465 56.7071 286.465 51.0606C286.465 45.4142 281.888 40.8369 276.242 40.8369C270.595 40.8369 266.018 45.4142 266.018 51.0606C266.018 56.7071 270.595 61.2844 276.242 61.2844Z" fill="#333333"/>
<path d="M258.203 67.4135C258.447 63.6105 256.197 60.3703 253.177 60.1763C250.157 59.9824 247.511 62.9081 247.266 66.711C247.022 70.514 249.272 73.7542 252.292 73.9481C255.312 74.1421 257.959 71.2164 258.203 67.4135Z" stroke="#333333" stroke-width="3.9998" stroke-miterlimit="3.9998" stroke-linecap="round" stroke-linejoin="round"/>
<path d="M270.84 68.4884C271.084 64.6854 268.834 61.4453 265.814 61.2513C262.794 61.0574 260.148 63.983 259.904 67.786C259.66 71.589 261.91 74.8291 264.93 75.0231C267.95 75.2171 270.596 72.2914 270.84 68.4884Z" stroke="#333333" stroke-width="3.9998" stroke-miterlimit="3.9998" stroke-linecap="round" stroke-linejoin="round"/>
</svg>
