<svg width="282" height="228" viewBox="0 0 282 228" fill="none" xmlns="http://www.w3.org/2000/svg">
<path d="M151.234 118.058C149.119 118.058 147.261 117.229 145.974 115.771C144.688 114.257 144.174 112.227 144.517 110.083L155.893 38.1682C156.607 33.6521 160.838 29.9935 165.354 29.9935H274.598C276.714 29.9935 278.572 30.8224 279.858 32.2801C281.144 33.795 281.659 35.8244 281.316 37.9682L269.939 109.912C269.225 114.428 264.995 118.087 260.478 118.087L151.234 118.058Z" fill="white"/>
<path d="M274.598 30.5934C276.542 30.5934 278.257 31.3366 279.4 32.68C280.572 34.052 281.058 35.9099 280.744 37.9107L269.368 109.797C268.71 114.028 264.709 117.486 260.478 117.486H151.234C149.29 117.486 147.575 116.743 146.432 115.4C145.26 114.028 144.774 112.17 145.088 110.169L156.464 38.2823C157.122 34.052 161.123 30.5934 165.354 30.5934H274.598ZM274.598 29.4501H165.354C160.58 29.4501 156.093 33.3374 155.321 38.1108L143.945 109.997C143.202 114.771 146.46 118.658 151.234 118.658H260.478C265.252 118.658 269.739 114.771 270.511 109.997L281.887 38.1108C282.659 33.3088 279.4 29.4501 274.598 29.4501Z" fill="#333333"/>
<path d="M269.282 47.2287C269.111 47.2287 268.968 47.1715 268.853 47.0286L262.965 39.8828C262.765 39.6256 262.794 39.2826 263.051 39.0825C263.308 38.8824 263.651 38.911 263.851 39.1682L269.74 46.314C269.94 46.5713 269.911 46.9142 269.654 47.1143C269.539 47.2001 269.397 47.2287 269.282 47.2287Z" fill="#333333"/>
<path d="M262.135 47.229C261.964 47.229 261.821 47.1718 261.707 47.0289C261.506 46.8002 261.535 46.4286 261.764 46.2286L270.167 39.0828C270.396 38.8827 270.767 38.9113 270.967 39.1399C271.168 39.3686 271.139 39.7402 270.91 39.9403L262.507 47.0861C262.393 47.1718 262.278 47.229 262.135 47.229Z" fill="#333333"/>
<path d="M173.957 138.066L169.069 227.674H173.957L181.36 175.053H229.608L258.82 227.674H264.079L224.234 138.066H173.957Z" fill="#B666D2"/>
<path d="M232.037 138.638H164.752C164.438 138.638 164.181 138.381 164.181 138.066C164.181 137.752 164.438 137.495 164.752 137.495H232.037C232.351 137.495 232.609 137.752 232.609 138.066C232.609 138.381 232.351 138.638 232.037 138.638Z" fill="#333333"/>
<path d="M181.36 175.623H171.927C171.613 175.623 171.355 175.366 171.355 175.052C171.355 174.737 171.613 174.48 171.927 174.48H181.36C181.674 174.48 181.931 174.737 181.931 175.052C181.931 175.366 181.674 175.623 181.36 175.623Z" fill="#333333"/>
<path d="M240.67 175.623H229.723C229.408 175.623 229.151 175.366 229.151 175.052C229.151 174.737 229.408 174.48 229.723 174.48H240.67C240.984 174.48 241.242 174.737 241.242 175.052C241.242 175.366 240.984 175.623 240.67 175.623Z" fill="#333333"/>
<path d="M201.053 160.103C202.9 160.103 204.397 158.606 204.397 156.759C204.397 154.912 202.9 153.415 201.053 153.415C199.206 153.415 197.709 154.912 197.709 156.759C197.709 158.606 199.206 160.103 201.053 160.103Z" fill="#333333"/>
<path d="M45.533 201.493C45.4186 201.435 33.9854 195.376 32.5562 189.145C32.1846 187.544 32.4991 186.029 33.4995 184.657C33.5281 184.629 35.1287 183.371 38.9874 183.371C42.6175 183.371 47.1336 184.286 52.1643 186.429L52.0785 186.629L52.0499 186.686C49.0201 192.489 45.6759 201.378 45.6187 201.464L45.5901 201.521L45.533 201.493Z" fill="#333333"/>
<path d="M133.426 193.346C133.426 193.318 132.94 189.545 132.883 179.969V179.941L132.911 178.083C136.313 176.311 140.4 174.053 146.717 174.51C150.404 174.767 151.919 177.34 151.948 177.368C152.634 179.083 152.577 180.798 151.748 182.485C148.403 189.23 133.655 193.346 133.512 193.403L133.454 193.432L133.426 193.346Z" fill="#333333"/>
<path d="M82.2617 213.44C82.0331 213.44 81.8044 213.297 81.7187 213.069C81.6329 212.811 81.7187 212.526 81.9473 212.383L109.959 195.033C113.646 192.775 118.505 193.918 120.792 197.577C121.078 198.062 121.335 198.577 121.535 199.12C122.221 201.092 122.107 203.236 121.192 205.122C120.277 207.038 118.677 208.438 116.676 209.124C116.19 209.296 115.647 209.41 115.047 209.524L82.2903 213.412C82.3189 213.44 82.2903 213.44 82.2617 213.44ZM114.103 195.004C112.903 195.004 111.674 195.318 110.588 196.004L84.777 211.982L114.932 208.41C115.475 208.324 115.933 208.209 116.361 208.067C118.048 207.495 119.42 206.266 120.22 204.637C120.992 203.007 121.106 201.207 120.506 199.52C120.334 199.063 120.134 198.606 119.877 198.205C118.562 196.147 116.361 195.004 114.103 195.004Z" fill="#333333"/>
<path d="M103.9 223.787C103.728 223.787 103.585 223.73 103.471 223.587C99.0691 218.613 95.5819 218.07 91.8947 217.527C88.7505 217.07 85.5207 216.584 81.8334 213.211C81.6048 213.011 81.5762 212.64 81.8049 212.411C82.0335 212.182 82.3765 212.154 82.6052 212.382C86.0352 215.498 88.9506 215.927 92.0662 216.413C95.8106 216.956 99.6693 217.556 104.328 222.844C104.528 223.072 104.528 223.444 104.271 223.644C104.157 223.73 104.043 223.787 103.9 223.787Z" fill="#333333"/>
<path d="M125.08 227.732C117.677 212.154 104.014 208.41 96.4967 207.581H96.4681V207.552C95.8393 204.722 95.2962 201.893 94.8389 199.177V199.149L94.8674 199.12C96.3823 198.348 131.74 179.941 132.912 179.941C132.969 179.941 132.997 179.998 132.997 180.026C133.055 189.573 133.54 193.346 133.54 193.375C133.54 193.518 134.226 206.294 144.116 214.269C151.748 220.414 151.977 223.787 152.234 227.703V227.76H125.08V227.732Z" fill="#FF5573"/>
<path d="M102.471 227.732C100.041 221.158 98.0117 214.355 96.4968 207.524L96.4683 207.438H96.554C101.67 208.01 109.131 209.868 115.819 215.384L115.848 215.413L115.419 227.732H102.471Z" fill="#333333"/>
<path d="M33.4995 184.657C33.5853 184.571 41.7886 175.911 80.9761 143.326C87.5788 137.981 93.1525 135.265 97.5257 135.265C103.7 135.265 105.329 140.782 105.357 140.839L96.9826 186.658C92.5237 192.174 89.551 196.033 87.293 199.177L87.2644 199.206H87.2358C87.2358 199.206 87.1215 199.206 86.9214 199.206C85.2636 199.206 76.46 198.949 66.1986 193.689C57.052 189.002 52.5645 186.858 52.0785 186.629C37.1582 181.856 33.4995 184.657 33.4995 184.657Z" fill="#F696BB"/>
<path d="M25.7251 104.339L25.7537 104.253C26.3253 102.366 26.9828 100.337 27.6687 98.0788C28.1547 96.5639 28.6406 94.9633 29.1836 93.2483V93.2197L66.799 93.0768L68.3711 104.367H25.7251V104.339Z" fill="#FF5573"/>
<path d="M94.8391 199.148C90.1514 171.366 94.0959 149.928 94.3531 148.556H47.6197C38.1873 148.556 30.8414 145.898 26.3825 140.839C22.1236 136.008 20.4943 129.263 21.5519 120.773C22.0664 116.657 23.3812 111.998 25.7536 104.281V104.252H68.3425L68.6283 106.368C69.6859 106.453 88.1792 108.14 102.757 110.684C110.16 111.97 116.105 113.485 121.05 116.6C126.08 119.773 129.739 124.432 132.94 131.664C137.228 141.325 144.488 158.846 151.92 177.454C150.576 176.339 144.059 174.281 132.826 180.112C129.082 182.084 126.538 183.914 123.851 185.829C120.592 188.144 117.22 190.545 111.417 193.432C106.187 196.09 100.613 198.062 94.8676 199.234H94.8105L94.8391 199.148Z" fill="#F696BB"/>
<path d="M35.214 36.5682C42.1441 36.5682 47.762 30.9503 47.762 24.0202C47.762 17.0902 42.1441 11.4722 35.214 11.4722C28.2839 11.4722 22.666 17.0902 22.666 24.0202C22.666 30.9503 28.2839 36.5682 35.214 36.5682Z" fill="#333333"/>
<path d="M12.548 26.6495C19.4781 26.6495 25.096 21.0315 25.096 14.1015C25.096 7.17139 19.4781 1.55347 12.548 1.55347C5.61793 1.55347 0 7.17139 0 14.1015C0 21.0315 5.61793 26.6495 12.548 26.6495Z" fill="#333333"/>
<path d="M45.19 53.9459C41.6171 53.9459 38.7017 51.0304 38.7017 47.4576C38.7017 43.8847 41.6171 40.9692 45.19 40.9692C48.7629 40.9692 51.6784 43.8847 51.6784 47.4576C51.6784 51.0304 48.7629 53.9459 45.19 53.9459Z" fill="white"/>
<path d="M45.1899 41.541C48.4484 41.541 51.1066 44.1992 51.1066 47.4577C51.1066 50.7162 48.4484 53.3744 45.1899 53.3744C41.9314 53.3744 39.2732 50.7162 39.2732 47.4577C39.2732 44.1992 41.9028 41.541 45.1899 41.541ZM45.1899 40.3976C41.274 40.3976 38.1299 43.5704 38.1299 47.4577C38.1299 51.345 41.3026 54.5177 45.1899 54.5177C49.0772 54.5177 52.2499 51.345 52.2499 47.4577C52.2499 43.5704 49.0772 40.3976 45.1899 40.3976Z" fill="#333333"/>
<path d="M44.3037 49.1156C44.1322 49.1156 43.9321 49.0298 43.8178 48.8583C43.6463 48.6011 43.7034 48.2295 43.9607 48.058L48.1338 45.2568C48.3911 45.0853 48.7626 45.1425 48.9341 45.3998C49.1056 45.657 49.0485 46.0286 48.7912 46.2001L44.6181 49.0012C44.5323 49.087 44.418 49.1156 44.3037 49.1156Z" fill="#333333"/>
<path d="M57.9375 53.8041C54.9363 53.8041 52.0494 51.9176 49.6484 48.3447C41.1878 35.8539 42.4455 30.223 47.1903 25.1924C47.2475 25.1352 52.8497 19.5043 59.8526 19.5043C61.1389 19.5043 62.4251 19.7044 63.6542 20.076C68.5419 21.5909 70.9715 30.1087 69.3136 39.8555C67.8845 48.0589 63.1968 53.8041 57.9375 53.8041Z" fill="white"/>
<path d="M59.8524 20.0752C61.0814 20.0752 62.3105 20.2467 63.4824 20.6183C65.5976 21.2757 67.3126 23.4766 68.3415 26.8208C69.4277 30.4223 69.5706 34.9956 68.7417 39.7404C68.0557 43.7706 66.5694 47.2006 64.4828 49.6588C62.5678 51.9454 60.2239 53.2031 57.9373 53.2031C55.1361 53.2031 52.4207 51.4023 50.1055 48.0009C41.8736 35.8531 43.0455 30.3937 47.5902 25.5918C47.7903 25.3917 53.1925 20.0752 59.8524 20.0752ZM59.8524 18.9319C52.5065 18.9319 46.7613 24.82 46.7613 24.82C41.4734 30.4223 41.0161 36.6248 49.1623 48.6583C51.8491 52.6028 54.9361 54.3464 57.9373 54.3464C63.3395 54.3464 68.3701 48.6583 69.8564 39.9405C71.6286 29.7077 68.9418 21.1042 63.8254 19.5321C62.4534 19.1034 61.1386 18.9319 59.8524 18.9319Z" fill="#333333"/>
<path d="M46.7626 24.82C42.1607 29.6791 41.2175 35.0242 46.391 44.1994C55.166 38.4827 52.222 25.3631 52.222 25.3631C61.3972 29.965 69.8006 27.8784 69.8006 27.8784C68.8288 23.5338 66.7136 20.4182 63.8267 19.5321C54.7087 16.7024 46.7626 24.82 46.7626 24.82Z" fill="#333333"/>
<path d="M63.512 40.0551C63.3405 40.0551 63.169 39.9694 63.0546 39.8265C62.8546 39.5692 62.8831 39.2262 63.1404 39.0261C63.4834 38.7403 63.7406 38.3973 63.8836 38.0257C64.0836 37.3969 63.855 36.0249 63.1118 33.3095C63.0261 32.9951 63.1976 32.6807 63.512 32.5949C63.8264 32.5092 64.1408 32.6807 64.2266 32.9951C65.0841 36.0535 65.2841 37.4541 64.9983 38.3973C64.7982 38.9976 64.3981 39.5121 63.8836 39.9122C63.7692 40.0266 63.6263 40.0551 63.512 40.0551Z" fill="#333333"/>
<path d="M59.2534 36.2537C58.9675 36.2537 58.7389 36.0536 58.6817 35.7678L58.5674 35.0247C58.5102 34.7102 58.7389 34.4244 59.0533 34.3672C59.3677 34.3101 59.6535 34.5387 59.7107 34.8532L59.825 35.5963C59.8822 35.9107 59.6535 36.1966 59.3391 36.2537C59.3105 36.2537 59.282 36.2537 59.2534 36.2537Z" fill="#333333"/>
<path d="M66.9125 33.2238C66.6267 33.2238 66.398 33.0237 66.3409 32.7379L66.2266 32.0233C66.1694 31.7089 66.398 31.4231 66.7125 31.3659C67.0269 31.3087 67.3127 31.5374 67.3699 31.8518L67.4842 32.5664C67.5414 32.8808 67.3127 33.1666 66.9983 33.2238C66.9697 33.2238 66.9411 33.2238 66.9125 33.2238Z" fill="#333333"/>
<path d="M61.3681 44.0847C60.7964 44.0847 60.2533 43.9132 59.7674 43.5988C59.11 43.17 58.6526 42.484 58.5097 41.7123C58.4526 41.3979 58.6527 41.112 58.9671 41.0263C59.2815 40.9691 59.5673 41.1692 59.6531 41.4836C59.7388 41.9695 60.0246 42.3697 60.4248 42.6269C60.825 42.8842 61.2823 42.9985 61.7396 42.8842C61.8254 42.8556 61.9397 42.827 62.0826 42.7698C62.3685 42.6555 62.7115 42.7984 62.8258 43.0843C62.9401 43.3701 62.7972 43.7131 62.5114 43.8274C62.3685 43.8846 62.1684 43.9703 61.9683 43.9989C61.7396 44.0561 61.5396 44.0847 61.3681 44.0847Z" fill="#333333"/>
<path d="M80.3467 114.485C73.8869 114.485 69.4565 112.427 66.8554 110.712C64.0543 108.854 62.7395 106.939 62.7395 106.911L62.7109 106.882C62.6537 106.796 56.2797 98.736 51.4491 86.1594C51.4491 86.1594 51.4491 86.1308 51.4205 86.1308L46.7329 76.1267L70.3997 64.4648L77.9457 75.355C79.1462 77.8989 80.6897 81.3289 80.7182 81.3574C80.804 81.5575 80.9755 81.6719 81.1756 81.7004C81.2042 81.7004 81.2042 81.7004 81.2327 81.7004C81.4328 81.7004 81.6043 81.6147 81.7186 81.4432C81.8901 81.1859 99.6974 55.1181 108.215 46.8862C110.045 45.1426 111.274 44.771 111.988 44.771C113.16 44.771 113.703 45.8 113.96 46.6575C114.018 46.829 114.132 46.9434 114.275 47.0291C114.361 47.0577 114.418 47.0863 114.503 47.0863C114.589 47.0863 114.675 47.0577 114.761 47.0291C114.789 47.0005 118.648 45.0855 122.164 44.2851C122.564 44.1994 122.907 44.1422 123.25 44.1422C125.394 44.1422 125.908 46.0001 125.937 46.0859C125.994 46.3145 126.165 46.4575 126.394 46.5146C127.337 46.6861 127.966 47.0577 128.309 47.6294C128.824 48.5154 128.481 49.6588 128.481 49.6873C128.423 49.8588 128.452 50.0303 128.538 50.1733C128.624 50.3162 128.795 50.4019 128.938 50.4305C129.795 50.5448 130.396 50.8592 130.71 51.4023C131.082 52.0026 131.053 52.8601 130.71 53.8605C130.596 54.1463 130.739 54.4321 130.996 54.5751C130.996 54.5751 132.025 55.1181 132.111 56.09C132.196 57.0332 131.396 58.2051 129.767 59.4628C129.281 59.8629 128.766 60.2345 128.309 60.5775C123.936 63.8932 120.163 66.7801 114.818 76.9556C114.246 78.0704 113.646 79.2137 113.046 80.357C109.044 88.0459 104.528 96.7637 99.1829 103.366C93.1519 110.855 86.9779 114.485 80.3467 114.485Z" fill="white"/>
<path d="M123.25 44.7144C124.879 44.7144 125.308 46.0007 125.393 46.2293C125.479 46.6867 125.851 47.0011 126.308 47.0868C127.08 47.2298 127.566 47.5156 127.823 47.9157C128.166 48.4588 128.023 49.2592 127.937 49.5164C127.823 49.8308 127.88 50.2024 128.052 50.4882C128.223 50.7741 128.538 50.9741 128.881 51.0027C129.338 51.0599 129.967 51.2314 130.253 51.6887C130.51 52.146 130.51 52.832 130.195 53.6324C129.995 54.1754 130.224 54.7757 130.739 55.0615C130.739 55.0615 131.51 55.4617 131.567 56.1191C131.625 56.8623 130.853 57.8913 129.452 59.006C128.966 59.4062 128.452 59.7777 127.995 60.1207C123.564 63.4935 119.734 66.409 114.36 76.6704C113.789 77.7851 113.188 78.9284 112.588 80.0718C108.615 87.732 104.099 96.4213 98.7826 102.995C92.8373 110.341 86.8349 113.914 80.3751 113.914C74.0868 113.914 69.7707 111.942 67.2554 110.256C64.5114 108.455 63.2538 106.597 63.2252 106.597C63.1966 106.568 63.1966 106.54 63.168 106.511C63.1109 106.425 56.7654 98.4221 51.992 85.9599C51.992 85.9313 51.9634 85.9027 51.9634 85.8741L47.5045 76.3845L70.2281 65.18L77.4596 75.6414C78.6601 78.1853 80.175 81.5581 80.2036 81.6152C80.3751 81.9868 80.7466 82.2441 81.1468 82.2727C81.1754 82.2727 81.204 82.2727 81.2611 82.2727C81.6327 82.2727 82.0043 82.1012 82.2044 81.7868C82.3759 81.5295 100.155 55.5189 108.644 47.3155C110.416 45.6005 111.502 45.3433 112.017 45.3433C112.274 45.3433 113.017 45.3433 113.446 46.801C113.531 47.1154 113.789 47.4013 114.075 47.5156C114.217 47.5727 114.36 47.6013 114.532 47.6013C114.703 47.6013 114.875 47.5727 115.046 47.487C115.075 47.4584 118.877 45.5719 122.335 44.8002C122.65 44.743 122.964 44.7144 123.25 44.7144ZM123.25 43.5711C122.878 43.5711 122.478 43.6283 122.021 43.714C118.391 44.5429 114.475 46.5152 114.475 46.5152C114.046 45.0574 113.16 44.2285 111.931 44.2285C110.816 44.2285 109.387 44.9431 107.758 46.5152C99.097 54.89 81.1754 81.1579 81.1754 81.1579C81.1754 81.1579 79.6033 77.6708 78.3743 75.0983L70.5139 63.7508L45.9038 75.8986L50.8201 86.3886C55.7364 99.1939 62.1676 107.254 62.1676 107.254C62.1676 107.254 67.4269 115.086 80.2607 115.086C96.696 115.086 106.729 93.4773 115.246 77.242C121.106 66.066 125.022 63.8365 130.053 59.9207C135.083 56.0048 131.167 54.0611 131.167 54.0611C131.996 51.8316 131.167 50.1452 128.938 49.888C128.938 49.888 130.024 46.6295 126.422 45.9721C126.508 45.9435 125.908 43.5711 123.25 43.5711Z" fill="#333333"/>
<path d="M98.2976 59.0912C98.1547 59.0912 98.0118 59.034 97.8974 58.9197C97.6688 58.691 97.6687 58.348 97.8688 58.1193C104.586 51.1165 113.875 46.8576 113.961 46.829C114.247 46.6861 114.59 46.829 114.704 47.1148C114.847 47.4007 114.704 47.7437 114.418 47.858C114.333 47.8866 105.243 52.0597 98.6692 58.9197C98.612 59.034 98.4405 59.0912 98.2976 59.0912Z" fill="#333333"/>
<path d="M28.5263 95.6777C28.4406 95.6491 22.6096 93.9055 21.7807 87.5315C21.1233 82.4437 22.2952 77.9276 30.5271 67.2946C38.9306 56.4902 46.0478 48.2011 54.88 48.2011C55.1944 48.2011 55.5088 48.2011 55.8232 48.2297C62.283 48.687 67.3708 52.5457 70.9723 59.7487C73.8306 65.4367 76.3459 70.6103 78.5182 75.155L78.5468 75.2122L50.9641 86.4167C52.1646 89.5323 53.5651 92.6479 55.1086 95.6205L55.1658 95.7063L28.5263 95.6777Z" fill="#FF5573"/>
<path d="M55.3086 96.1924H28.5263C28.2118 96.1924 27.9546 95.9351 27.9546 95.6207C27.9546 95.3063 28.2118 95.0491 28.5263 95.0491H55.3086C55.6231 95.0491 55.8803 95.3063 55.8803 95.6207C55.8803 95.9351 55.6231 96.1924 55.3086 96.1924Z" fill="#333333"/>
<path d="M60.6245 104.853H25.7245C25.4101 104.853 25.1528 104.596 25.1528 104.282C25.1528 103.967 25.4101 103.71 25.7245 103.71H60.6245C60.9389 103.71 61.1961 103.967 61.1961 104.282C61.1961 104.596 60.9389 104.853 60.6245 104.853Z" fill="#333333"/>
<path d="M51.9645 88.1031C51.7359 88.1031 51.5358 87.9888 51.4501 87.7601C49.8494 84.0443 47.82 78.5563 46.9625 75.9838C46.8767 75.698 47.0197 75.355 47.3341 75.2693C47.6199 75.1835 47.9629 75.3264 48.0487 75.6408C48.8776 78.1847 50.8784 83.6441 52.479 87.3028C52.5934 87.5886 52.479 87.9316 52.1932 88.0459C52.1075 88.0745 52.0503 88.1031 51.9645 88.1031Z" fill="#333333"/>
<path d="M32.3853 104.853C32.3567 104.853 32.3282 104.853 32.2996 104.853C31.9852 104.796 31.7851 104.51 31.8423 104.196L33.2714 95.5348C33.3286 95.2204 33.6144 95.0203 33.9288 95.0775C34.2432 95.1346 34.4433 95.4205 34.3861 95.7349L32.957 104.396C32.8998 104.653 32.6712 104.853 32.3853 104.853Z" fill="#333333"/>
<path d="M41.3597 104.853H41.3312C41.0167 104.824 40.7881 104.567 40.7881 104.253L41.3883 95.5919C41.4169 95.2775 41.6742 95.0488 41.9886 95.0488C42.303 95.0774 42.5317 95.3347 42.5317 95.6491L41.9314 104.31C41.9028 104.624 41.6456 104.853 41.3597 104.853Z" fill="#333333"/>
<path d="M50.6491 104.853C50.3347 104.853 50.0774 104.596 50.0774 104.281L49.9917 95.6205C49.9917 95.3061 50.2489 95.0488 50.5634 95.0488C50.8778 95.0488 51.135 95.3061 51.135 95.6205L51.2208 104.281C51.2208 104.596 50.9635 104.853 50.6491 104.853Z" fill="#333333"/>
<path d="M108.902 56.0042C108.731 56.0042 108.559 55.9184 108.445 55.7755C108.273 55.5182 108.33 55.1752 108.588 54.9752C114.676 50.6305 120.793 47.3435 125.766 45.6856C126.052 45.5999 126.395 45.7428 126.481 46.0572C126.566 46.3716 126.424 46.6861 126.109 46.7718C121.221 48.3725 115.219 51.6309 109.216 55.8898C109.131 55.9756 109.016 56.0042 108.902 56.0042Z" fill="#333333"/>
<path d="M112.275 59.8926C112.104 59.8926 111.932 59.8068 111.818 59.6639C111.646 59.4067 111.703 59.0637 111.961 58.8636C118.706 53.9759 124.28 50.7746 128.053 49.5741C128.367 49.4883 128.682 49.6312 128.768 49.9457C128.853 50.2601 128.71 50.5745 128.396 50.6602C124.737 51.8321 119.307 54.9763 112.647 59.7782C112.504 59.864 112.389 59.8926 112.275 59.8926Z" fill="#333333"/>
<path d="M115.276 64.3222C115.133 64.3222 114.962 64.265 114.876 64.1507C114.647 63.922 114.676 63.5504 114.905 63.3503C118.449 59.9489 126.452 55.2327 130.511 53.8036C130.797 53.6892 131.14 53.8607 131.254 54.1466C131.369 54.4324 131.197 54.7754 130.911 54.8897C126.967 56.2903 119.164 60.8636 115.705 64.2078C115.562 64.265 115.419 64.3222 115.276 64.3222Z" fill="#333333"/>
<path d="M83.5195 88.1022C83.2908 88.1022 83.0907 87.9879 83.005 87.7592L80.4897 82.1855C80.3467 81.8997 80.4897 81.5567 80.7755 81.4424C81.0613 81.2994 81.4043 81.4424 81.5187 81.7282L84.034 87.3019C84.1769 87.5877 84.034 87.9307 83.7481 88.0451C83.691 88.0736 83.6052 88.1022 83.5195 88.1022Z" fill="#333333"/>
<path d="M95.0101 199.663C94.7243 199.663 94.4956 199.463 94.4384 199.177C89.5793 170.508 93.924 148.527 93.9525 148.327C94.0097 148.013 94.3241 147.813 94.6385 147.87C94.9529 147.927 95.153 148.242 95.0959 148.556C95.0387 148.785 90.7798 170.536 95.5818 199.005C95.6389 199.32 95.4389 199.605 95.1244 199.663C95.0673 199.663 95.0387 199.663 95.0101 199.663Z" fill="#333333"/>
<path d="M103.899 149.042H74.8583C74.5439 149.042 74.2866 148.785 74.2866 148.471C74.2866 148.156 74.5439 147.899 74.8583 147.899H103.899C104.213 147.899 104.47 148.156 104.47 148.471C104.47 148.785 104.213 149.042 103.899 149.042Z" fill="#333333"/>
<path d="M37.958 227.732V227.675C37.9866 227.589 39.673 218.9 43.4174 207.524L43.446 207.467H43.5031C49.5628 208.696 53.7931 212.726 56.2798 215.87L56.3084 215.899L52.0495 227.732H37.958Z" fill="#333333"/>
<path d="M61.5678 227.732V227.675C61.0533 224.045 58.9667 219.529 56.1656 215.956C53.7074 212.812 49.5057 208.81 43.4746 207.581H43.4175L43.4461 207.524C44.0749 205.609 44.7895 203.551 45.5326 201.435C45.5612 201.321 49.7344 190.488 51.9638 186.629L51.9924 186.601L87.3212 199.092L87.264 199.149C84.1199 203.551 82.462 206.58 82.1762 208.41C81.6331 211.983 82.6907 214.555 86.3493 218.7C88.3787 220.986 89.1505 223.302 89.4077 224.845C89.6936 226.503 89.4935 227.675 89.4935 227.675V227.732H61.5678Z" fill="#FF5573"/>
<path d="M126.28 184.543C126.08 184.543 125.88 184.428 125.766 184.228C125.108 182.914 124.137 182.085 122.822 181.684C118.992 180.57 113.704 183.714 113.647 183.742C113.418 183.885 113.161 183.857 112.961 183.657C112.761 183.485 112.732 183.199 112.846 182.971C112.932 182.828 120.278 168.222 118.391 162.562C118.106 161.733 117.677 161.19 117.019 160.847C116.105 160.39 115.161 160.361 114.133 160.79C111.646 161.819 108.816 165.449 105.986 171.309C103.814 175.796 102.385 180.027 102.356 180.084C102.271 180.341 102.013 180.513 101.727 180.455C101.442 180.427 101.242 180.198 101.242 179.912C101.242 179.769 100.67 164.592 95.9822 160.704C95.1247 159.99 94.2386 159.733 93.2097 159.876C92.8952 159.933 92.6094 159.704 92.5522 159.39C92.4951 159.075 92.7237 158.789 93.0382 158.732C94.3816 158.532 95.6106 158.904 96.6968 159.79C100.527 162.963 101.785 172.395 102.185 177.111C104.071 172.195 108.587 161.791 113.675 159.704C114.99 159.161 116.305 159.19 117.505 159.79C118.42 160.247 119.077 161.047 119.449 162.162C121.107 167.193 116.476 177.854 114.59 181.885C116.591 180.941 120.135 179.655 123.108 180.513C124.737 180.998 125.966 182.027 126.766 183.628C126.909 183.914 126.795 184.257 126.509 184.4C126.452 184.514 126.366 184.543 126.28 184.543Z" fill="#333333"/>
<path d="M100.927 198.148C100.698 198.148 100.47 198.005 100.384 197.748C99.8122 196.004 100.098 193.918 101.07 192.317C101.87 191.031 103.042 190.202 104.357 189.973C106.158 189.659 107.301 190.402 107.93 191.059C109.016 192.174 109.388 193.832 109.159 194.832C109.102 195.147 108.787 195.347 108.473 195.261C108.158 195.204 107.958 194.89 108.016 194.575C108.13 193.975 107.873 192.66 107.072 191.831C106.415 191.145 105.557 190.888 104.5 191.088C103.499 191.26 102.613 191.888 101.984 192.889C101.156 194.232 100.927 195.947 101.413 197.376C101.499 197.691 101.356 198.005 101.041 198.091C101.041 198.148 100.984 198.148 100.927 198.148Z" fill="#333333"/>
<path d="M148.261 168.965C148.232 168.965 148.204 168.965 148.175 168.965C146.803 168.765 141.973 168.022 136.799 166.364C131.969 164.792 128.767 163.02 127.338 161.076C126.623 160.104 126.338 159.104 126.481 158.075C126.709 156.674 127.652 155.474 129.282 154.616C132.883 152.73 139 152.816 143.23 154.845C143.516 154.988 143.63 155.331 143.488 155.617C143.345 155.903 143.002 156.017 142.716 155.874C138.857 154.016 133.055 153.93 129.796 155.645C128.91 156.103 127.795 156.96 127.595 158.246C127.481 158.961 127.71 159.676 128.253 160.39C131.082 164.163 142.087 166.964 148.318 167.822C148.632 167.879 148.861 168.165 148.804 168.479C148.775 168.765 148.547 168.965 148.261 168.965Z" fill="#333333"/>
<path d="M111.504 145.327C110.875 145.327 110.246 145.241 109.617 145.069C108.245 144.669 107.216 143.812 106.616 142.468C104.472 137.809 107.874 128.605 109.417 124.918C105.301 127.119 93.9822 132.607 89.8376 128.463C88.6943 127.319 88.237 125.804 88.5514 124.089C88.9801 121.517 91.524 116.343 103.7 110.427C103.986 110.284 104.329 110.398 104.472 110.684C104.615 110.97 104.501 111.313 104.215 111.456C95.6686 115.6 90.3807 120.288 89.6947 124.261C89.4661 125.604 89.8091 126.776 90.6666 127.662C94.2966 131.292 106.101 125.604 110.36 123.117C110.589 123.003 110.846 123.032 111.046 123.175C111.218 123.346 111.275 123.603 111.189 123.832C111.132 123.946 105.301 136.694 107.731 141.982C108.217 143.011 108.96 143.669 110.017 143.955C117.22 146.013 121.279 133.293 121.308 133.15C121.393 132.921 121.622 132.75 121.851 132.75C122.108 132.75 122.337 132.922 122.394 133.179C122.394 133.236 123.852 138.238 127.825 139.953C130.168 140.953 132.941 140.639 136.114 138.981C136.4 138.838 136.743 138.953 136.885 139.21C137.028 139.496 136.914 139.839 136.657 139.982C133.17 141.811 130.054 142.154 127.367 140.982C124.337 139.667 122.651 136.78 121.879 134.979C121.365 136.266 120.507 138.209 119.278 140.067C116.906 143.526 114.276 145.327 111.504 145.327Z" fill="#333333"/>
<path d="M83.8913 148.986C83.7483 148.986 83.6054 148.928 83.4911 148.814C83.2624 148.585 83.2624 148.242 83.4911 148.014C83.5197 147.985 87.2355 144.041 85.0346 140.525C81.6046 134.923 68.7994 140.725 68.6564 140.782C68.4278 140.897 68.1419 140.839 67.9704 140.639C67.7989 140.439 67.799 140.153 67.9419 139.953C68.0276 139.839 75.9451 127.834 73.9157 122.003C73.4584 120.688 72.5152 119.802 71.0574 119.316C69.371 118.773 67.7989 118.945 66.284 119.831C60.1672 123.404 57.3089 137.181 57.2804 137.324C57.2232 137.552 57.0231 137.752 56.7944 137.781C56.5372 137.81 56.3085 137.667 56.2228 137.467C56.1656 137.352 50.2775 124.776 44.7324 123.347C43.6176 123.061 42.6458 123.261 41.7026 123.947C40.5306 124.833 39.9018 125.919 39.8446 127.32C39.5588 133.036 48.391 141.154 48.4767 141.24C48.6768 141.411 48.7054 141.697 48.5911 141.926C48.4768 142.154 48.2195 142.269 47.9908 142.24L47.5049 142.154C42.7315 141.325 35.5 140.039 33.0133 145.613C32.8704 145.899 32.556 146.042 32.2701 145.899C31.9843 145.756 31.8414 145.441 31.9843 145.155C34.5854 139.353 41.5311 140.011 46.3902 140.811C43.8177 138.181 38.4727 132.15 38.7299 127.291C38.8157 125.547 39.5874 124.118 41.0451 123.061C42.2456 122.175 43.589 121.889 45.0468 122.26C49.9631 123.518 54.7936 132.064 56.5658 135.552C57.5376 131.693 60.4245 122.003 65.741 118.888C67.5417 117.83 69.4568 117.63 71.4576 118.259C73.2583 118.83 74.4874 119.974 75.0591 121.66C76.8312 126.777 72.0578 135.552 69.9141 139.096C73.7156 137.638 82.8908 134.808 86.0636 139.982C88.7218 144.241 84.5487 148.671 84.3486 148.843C84.1771 148.928 84.0342 148.986 83.8913 148.986Z" fill="#333333"/>
<path d="M52.85 118.458C51.9067 118.458 50.9921 118.172 50.106 117.601C47.2477 115.714 45.0468 110.626 44.4179 104.338C44.3894 104.024 44.618 103.738 44.9324 103.709C45.2468 103.681 45.5327 103.909 45.5613 104.224C46.1615 110.198 48.1623 114.942 50.7348 116.657C51.7638 117.343 52.8785 117.486 54.0219 117.143C54.7936 116.915 55.3367 116.4 55.7369 115.628C57.4804 112.113 54.7936 104.538 54.7936 104.481C54.6793 104.195 54.8508 103.852 55.1366 103.738C55.4224 103.623 55.7654 103.795 55.8798 104.081C55.9941 104.395 58.7381 112.17 56.7944 116.143C56.2799 117.2 55.4796 117.886 54.422 118.229C53.8504 118.401 53.3359 118.458 52.85 118.458Z" fill="#333333"/>
<path d="M22.7234 120.231C22.409 120.231 22.066 120.231 21.7516 120.202C21.4372 120.174 21.2085 119.916 21.2085 119.602C21.2371 119.288 21.4943 119.059 21.8087 119.059C26.525 119.345 33.2706 117.344 33.5278 113.457C33.585 112.399 33.2134 111.542 32.3845 110.941C30.6409 109.655 27.2395 109.569 24.2383 110.684C23.9525 110.798 23.6095 110.655 23.4951 110.341C23.3808 110.055 23.5237 109.712 23.8381 109.598C27.211 108.312 31.0125 108.483 33.0419 109.998C34.1852 110.856 34.7569 112.056 34.6711 113.514C34.5282 115.772 32.8704 117.601 29.8406 118.859C27.7826 119.716 25.1244 120.231 22.7234 120.231Z" fill="#333333"/>
<path d="M26.84 135.266C24.6962 135.266 22.4667 134.437 22.3238 134.38C22.038 134.265 21.8665 133.951 21.9808 133.636C22.0952 133.351 22.4096 133.179 22.724 133.293C23.8387 133.722 27.0972 134.608 28.6979 133.722C29.2124 133.436 29.4982 133.008 29.6125 132.379C30.127 129.549 26.3826 126.205 21.1233 124.776C20.8089 124.69 20.6374 124.375 20.7232 124.061C20.8089 123.747 21.1233 123.575 21.4377 123.661C27.3545 125.262 31.3561 129.092 30.7273 132.579C30.5558 133.551 30.0698 134.265 29.2409 134.723C28.6121 135.123 27.726 135.266 26.84 135.266Z" fill="#333333"/>
<path d="M123.279 122.431C121.25 122.431 119.535 121.374 118.506 120.002C117.191 118.23 117.219 116.2 118.534 114.971C118.763 114.742 119.134 114.771 119.335 115C119.563 115.228 119.535 115.6 119.306 115.8C118.277 116.743 118.62 118.258 119.42 119.316C121.192 121.717 124.079 121.602 125.994 120.488C126.28 120.316 126.623 120.43 126.766 120.688C126.909 120.945 126.823 121.317 126.566 121.459C125.451 122.145 124.337 122.431 123.279 122.431Z" fill="#333333"/>
<path d="M55.0795 149.042H55.0509C54.7365 149.013 54.5078 148.756 54.5078 148.441C54.6793 146.04 57.0517 144.611 59.1383 144.697C61.2248 144.783 62.5968 146.24 62.5968 148.441C62.5968 148.756 62.3396 149.013 62.0252 149.013C61.7108 149.013 61.4535 148.756 61.4535 148.441C61.4535 146.183 59.8243 145.869 59.1097 145.84C57.5376 145.783 55.7655 146.841 55.6511 148.527C55.6226 148.813 55.3653 149.042 55.0795 149.042Z" fill="#333333"/>
<path d="M93.5525 155.388C93.4953 155.388 93.4096 155.388 93.3524 155.36C89.3507 153.73 81.9763 154.273 81.8906 154.273C81.6047 154.302 81.3475 154.102 81.2903 153.845C81.2331 153.587 81.3475 153.302 81.6047 153.187C81.6619 153.159 85.9208 151.272 87.6072 148.614C87.7787 148.357 88.1217 148.271 88.4075 148.442C88.6648 148.614 88.7505 148.957 88.579 149.243C87.55 150.872 85.7493 152.187 84.3201 153.073C86.9498 153.044 91.0372 153.216 93.7811 154.331C94.067 154.445 94.2099 154.788 94.0956 155.074C93.9812 155.245 93.7811 155.388 93.5525 155.388Z" fill="#333333"/>
<path d="M75.0884 183.514C73.4877 183.514 72.03 183.028 70.7151 182.056C66.4277 178.912 64.8842 171.566 64.4269 168.507C63.3121 169.822 61.1684 172.166 58.3958 174.138C52.9079 178.054 47.6486 178.683 43.161 175.91C42.9038 175.739 42.818 175.396 42.9609 175.11C43.1324 174.853 43.4754 174.767 43.7613 174.91C53.651 181.027 64.2554 166.878 64.3411 166.735C64.484 166.535 64.7127 166.449 64.9414 166.535C65.17 166.592 65.3415 166.792 65.3701 167.021C65.3701 167.135 66.4277 177.483 71.3726 181.113C72.9161 182.227 74.6882 182.599 76.689 182.17C78.1468 181.856 79.1472 181.113 79.7188 179.855C82.2341 174.567 76.346 162.762 76.2889 162.648C76.1745 162.391 76.2317 162.076 76.4604 161.933C76.689 161.762 77.0034 161.79 77.2035 161.99C77.2321 162.019 79.1472 163.991 82.0341 165.735C84.6351 167.307 88.6082 169.022 92.6098 168.222C92.9243 168.164 93.2101 168.364 93.2958 168.679C93.3816 168.993 93.1529 169.279 92.8385 169.365C89.3799 170.079 85.4355 169.165 81.4338 166.735C80.2619 166.021 79.2615 165.278 78.4612 164.649C80.119 168.565 82.8058 176.111 80.7764 180.398C80.0333 181.941 78.747 182.942 76.9463 183.342C76.3175 183.428 75.6886 183.514 75.0884 183.514Z" fill="#333333"/>
<path d="M79.7751 197.119C79.6893 197.119 79.575 197.091 79.4893 197.033C79.2034 196.862 79.1177 196.519 79.2892 196.262C79.3178 196.233 80.8898 193.518 80.2038 191.403C79.918 190.517 79.2892 189.859 78.2888 189.43C73.8012 187.43 68.3133 190.088 65.4835 191.86C65.2263 192.031 64.8547 191.946 64.6832 191.66C64.5117 191.403 64.5975 191.031 64.8833 190.86C67.9417 188.973 73.7726 186.172 78.7747 188.373C80.0895 188.944 80.947 189.859 81.3186 191.06C82.1475 193.661 80.3753 196.719 80.3182 196.862C80.1753 197.005 79.9752 197.119 79.7751 197.119Z" fill="#333333"/>
<path d="M65.0264 160.276C64.1404 160.276 63.2829 159.933 62.6254 159.161C62.4254 158.904 62.4539 158.561 62.7112 158.36C62.9684 158.16 63.3115 158.189 63.5115 158.446C64.3404 159.447 65.6553 159.275 66.5413 158.675C67.4846 158.046 68.2563 156.703 67.3703 155.016C67.2273 154.73 67.3417 154.387 67.5989 154.245C67.8847 154.102 68.2277 154.216 68.3707 154.473C69.5426 156.703 68.5993 158.675 67.1416 159.618C66.5413 160.018 65.7982 160.276 65.0264 160.276Z" fill="#333333"/>
<path d="M82.4056 208.095H74.288C73.9736 208.095 73.7163 207.838 73.7163 207.523C73.7163 207.209 73.9736 206.952 74.288 206.952H82.4056C82.72 206.952 82.9772 207.209 82.9772 207.523C82.9772 207.838 82.72 208.095 82.4056 208.095Z" fill="#333333"/>
<path d="M75.4315 216.813C75.2314 216.813 75.0313 216.699 74.917 216.498C74.7741 216.213 74.8884 215.87 75.1742 215.727L82.1485 212.268C82.4344 212.125 82.7774 212.24 82.9203 212.525C83.0632 212.811 82.9489 213.154 82.663 213.297L75.6887 216.756C75.603 216.784 75.5172 216.813 75.4315 216.813Z" fill="#333333"/>
<path d="M127.766 202.522C127.509 202.522 127.252 202.322 127.195 202.065C127.138 201.75 127.338 201.464 127.652 201.407L134.941 200.064C135.255 200.007 135.541 200.207 135.598 200.521C135.655 200.835 135.455 201.121 135.141 201.178L127.852 202.522C127.824 202.522 127.795 202.522 127.766 202.522Z" fill="#333333"/>
<path d="M131.253 210.925C131.053 210.925 130.853 210.811 130.739 210.611C130.596 210.325 130.71 209.982 130.996 209.839L137.684 206.495C137.97 206.352 138.313 206.466 138.456 206.752C138.599 207.038 138.485 207.381 138.199 207.524L131.511 210.868C131.425 210.897 131.339 210.925 131.253 210.925Z" fill="#333333"/>
<path d="M137.828 207.724C137.627 207.724 137.427 207.609 137.342 207.438C137.199 207.209 137.256 206.923 137.456 206.723L161.752 184.486C162.18 184.086 162.638 183.743 163.152 183.457C164.953 182.399 167.068 182.113 169.126 182.656C171.155 183.199 172.842 184.486 173.899 186.315C174.157 186.772 174.385 187.287 174.585 187.887C175.214 189.888 175.014 192.032 174.042 193.89C173.07 195.747 171.441 197.119 169.44 197.748L138.028 207.667C137.942 207.724 137.885 207.724 137.828 207.724ZM167.068 183.542C165.896 183.542 164.753 183.857 163.724 184.457C163.295 184.686 162.895 185 162.552 185.315L140.171 205.809L169.126 196.662C170.841 196.119 172.242 194.947 173.071 193.347C173.899 191.746 174.071 189.917 173.528 188.23C173.356 187.716 173.156 187.258 172.956 186.887C172.042 185.343 170.612 184.228 168.869 183.771C168.211 183.628 167.64 183.542 167.068 183.542Z" fill="#333333"/>
<path d="M157.35 215.126C156.75 215.126 156.15 215.012 155.578 214.783L137.599 207.723C137.342 207.637 137.199 207.38 137.256 207.094C137.285 206.837 137.513 206.637 137.799 206.608L157.064 205.408H157.093C157.436 205.408 157.779 205.408 158.15 205.465C159.437 205.665 160.551 206.351 161.323 207.38C162.095 208.437 162.409 209.695 162.181 210.981C162.123 211.239 162.038 211.61 161.895 211.982C161.437 213.182 160.523 214.126 159.322 214.669C158.693 215.012 158.036 215.126 157.35 215.126ZM140.429 207.609L156.007 213.725C156.921 214.097 157.95 214.068 158.836 213.668C159.751 213.268 160.437 212.553 160.809 211.61C160.923 211.324 161.009 211.01 161.037 210.81C161.18 209.838 160.952 208.866 160.38 208.066C159.808 207.266 158.922 206.751 157.95 206.58C157.693 206.522 157.407 206.522 157.121 206.522L140.429 207.609Z" fill="#333333"/>
<path d="M137.828 207.78C137.542 207.78 137.285 207.552 137.256 207.237C136.942 202.607 138.486 199.091 139.972 195.69C141.715 191.688 143.373 187.915 141.887 182.599C141.801 182.284 141.973 181.97 142.287 181.884C142.602 181.798 142.916 181.97 143.002 182.284C144.574 187.972 142.773 192.117 141.029 196.119C139.6 199.406 138.114 202.807 138.428 207.152C138.457 207.466 138.2 207.752 137.885 207.752C137.857 207.78 137.828 207.78 137.828 207.78Z" fill="#333333"/>
<path d="M141.086 66.1504C139.6 66.1504 139.028 65.2644 139.028 65.2358V65.2072C137.371 59.119 146.775 48.8005 146.86 48.6861L146.946 48.6004L146.975 48.7147C147.003 48.8005 149.09 57.3183 150.576 62.2917V62.3203L150.547 62.3489C148.632 63.778 146.403 65.3501 144.059 65.8646C142.83 66.1219 142.687 66.1504 141.801 66.1504H141.086Z" fill="#333333"/>
<path d="M151.034 62.1197C149.548 57.1748 147.461 48.6856 147.432 48.5999C145.746 41.5684 141.401 22.675 141.859 19.7881C142.116 18.216 142.802 17.3871 143.974 17.3871C144.288 17.3871 144.488 17.4443 144.488 17.4443C144.546 17.4729 144.603 17.4729 144.66 17.4729C144.803 17.4729 144.917 17.4157 145.031 17.33C145.174 17.2156 145.26 17.0155 145.232 16.8155C144.86 14.1286 145.346 12.9282 145.803 12.4137C146.203 11.9563 146.689 11.8706 146.975 11.8706C147.032 11.8706 147.089 11.8706 147.089 11.8706C147.118 11.8706 147.147 11.8706 147.175 11.8706C147.461 11.8706 147.69 11.6705 147.747 11.3847C148.061 9.44101 149.062 9.04085 149.862 9.04085C150.033 9.04085 150.148 9.06943 150.148 9.06943C150.176 9.06943 150.234 9.06943 150.262 9.06943C150.519 9.06943 150.748 8.89793 150.805 8.66927C151.091 7.72603 151.634 7.24011 152.377 7.24011C153.12 7.24011 153.892 7.75461 154.207 8.4406C155.036 10.3557 157.808 18.1017 157.837 18.1875C157.922 18.4161 158.151 18.559 158.38 18.559C158.408 18.559 158.466 18.559 158.494 18.559C158.666 18.5304 158.837 18.5019 159.009 18.5019C160.838 18.5019 162.267 20.96 164.011 24.9331C164.754 26.5909 167.155 32.2789 171.185 41.7685L175.044 53.2589L154.464 71.9523L151.034 62.1197Z" fill="white"/>
<path d="M152.349 7.84071C152.863 7.84071 153.435 8.21229 153.635 8.69821C154.435 10.5847 157.208 18.3307 157.236 18.4165C157.408 18.8738 157.837 19.1882 158.323 19.1882C158.408 19.1882 158.494 19.1882 158.58 19.1596C158.723 19.1311 158.837 19.1025 158.951 19.1025C160.552 19.1025 162.038 22.0179 163.41 25.1907C164.125 26.8485 166.555 32.508 170.585 42.0261L174.329 53.145L154.664 71.0094L151.577 61.9486C150.091 57.0037 148.004 48.5431 148.004 48.4573C145.66 38.7105 142.059 22.3609 142.43 19.8742C142.716 17.9877 143.659 17.9591 143.974 17.9591C144.145 17.9591 144.288 17.9877 144.317 17.9877C144.431 18.0163 144.546 18.0449 144.66 18.0449C144.917 18.0449 145.174 17.9591 145.374 17.7876C145.689 17.5304 145.803 17.1302 145.775 16.7587C145.432 14.1576 145.889 13.1572 146.203 12.7856C146.461 12.4998 146.746 12.4426 146.918 12.4426C146.947 12.4426 146.947 12.4426 146.947 12.4426C147.032 12.4712 147.089 12.4712 147.175 12.4712C147.404 12.4712 147.604 12.414 147.804 12.2711C148.061 12.0996 148.204 11.8138 148.261 11.4994C148.461 10.2703 148.976 9.64145 149.805 9.64145C149.891 9.64145 149.948 9.64145 149.976 9.64145C150.062 9.67003 150.148 9.67004 150.262 9.67004C150.748 9.67004 151.177 9.32704 151.32 8.84112C151.548 8.18371 151.891 7.84071 152.349 7.84071ZM152.349 6.69739C151.491 6.69739 150.634 7.21189 150.234 8.52671C150.234 8.52671 150.091 8.49813 149.833 8.49813C149.09 8.49813 147.575 8.81254 147.175 11.3279C147.175 11.3279 147.089 11.3279 146.975 11.3279C146.261 11.3279 143.974 11.728 144.66 16.9302C144.66 16.9302 144.374 16.8444 143.974 16.8444C143.116 16.8444 141.687 17.2446 141.287 19.7313C140.715 23.3614 146.861 48.7718 146.861 48.7718C146.861 48.7718 148.947 57.3181 150.462 62.3487L154.121 73.0674L175.615 53.5166L171.671 41.5974C168.441 33.9943 165.354 26.677 164.497 24.7333C162.696 20.646 161.152 17.9591 158.98 17.9591C158.78 17.9591 158.58 17.9877 158.351 18.0163C158.351 18.0163 155.55 10.2131 154.721 8.24088C154.321 7.3548 153.321 6.69739 152.349 6.69739Z" fill="#333333"/>
<path d="M172.328 97.9349C167.269 97.9349 159.38 95.7912 150.576 85.6156C144.488 78.5842 140.372 70.2951 139 65.2359C139 65.2359 143.602 67.5797 150.49 62.2346C153.434 59.6907 155.235 57.3755 157.322 54.6887C158.78 52.8022 160.437 50.687 162.724 48.1717C168.183 42.1693 171.585 41.5976 171.613 41.569H171.671L171.699 41.5976C175.644 50.9157 179.788 60.6911 180.131 61.5201L217.947 42.2264L220.776 45.4563L201.083 87.302C200.997 87.4164 192.45 97.106 173.128 97.9349C172.871 97.9349 172.614 97.9349 172.328 97.9349Z" fill="#B666D2"/>
<path d="M152.72 43.7129C152.434 43.7129 152.177 43.4842 152.148 43.1698C151.662 35.7954 156.236 31.365 157.408 30.3646C157.35 30.0502 157.293 29.7358 157.236 29.3928C156.493 25.1053 155.435 19.2458 158.094 18.0738C158.379 17.9595 158.722 18.0738 158.837 18.3597C158.951 18.6455 158.837 18.9885 158.551 19.1028C156.75 19.9032 157.836 26.1629 158.379 29.1641C158.465 29.65 158.551 30.1073 158.608 30.4789C158.637 30.679 158.551 30.9077 158.379 31.022C158.322 31.0506 152.777 35.3952 153.292 43.0841C153.32 43.3985 153.063 43.6843 152.749 43.6843C152.749 43.7129 152.72 43.7129 152.72 43.7129Z" fill="#333333"/>
<path d="M154.15 25.3055C153.921 25.3055 153.692 25.1626 153.607 24.9054C153.178 23.5334 149.376 11.5285 150.262 8.64157C150.348 8.32716 150.662 8.18424 150.977 8.26999C151.291 8.35574 151.463 8.67015 151.348 8.98457C150.748 10.8996 153.035 19.3602 154.693 24.5624C154.778 24.8768 154.636 25.1912 154.321 25.277C154.264 25.3055 154.207 25.3055 154.15 25.3055Z" fill="#333333"/>
<path d="M151.062 27.5357C150.804 27.5357 150.604 27.3928 150.519 27.1356C147.46 17.4173 147.174 11.8722 147.146 11.6435C147.117 11.3291 147.374 11.0719 147.689 11.0433C148.003 11.0433 148.26 11.2719 148.289 11.5864C148.289 11.6435 148.603 17.2172 151.605 26.7926C151.69 27.107 151.519 27.4214 151.233 27.5072C151.176 27.5357 151.119 27.5357 151.062 27.5357Z" fill="#333333"/>
<path d="M148.003 30.3079C147.746 30.3079 147.517 30.1364 147.46 29.8791C145.774 23.8195 144.659 17.3311 144.659 17.274C144.602 16.9595 144.802 16.6737 145.116 16.6165C145.431 16.5594 145.717 16.7595 145.774 17.0739C145.774 17.131 146.917 23.5622 148.575 29.5647C148.661 29.8791 148.489 30.1935 148.175 30.2793C148.118 30.3079 148.061 30.3079 148.003 30.3079Z" fill="#333333"/>
<path d="M146.318 31.7081C146.146 31.7081 145.975 31.6224 145.861 31.4795C145.66 31.2222 145.718 30.8792 145.975 30.6791L154.636 23.9907C154.893 23.7906 155.236 23.8478 155.436 24.105C155.636 24.3623 155.579 24.7053 155.322 24.9053L146.661 31.5938C146.575 31.6795 146.432 31.7081 146.318 31.7081Z" fill="#333333"/>
<path d="M182.617 68.2941C182.389 68.2941 182.189 68.1512 182.074 67.9511L179.559 61.8058C179.445 61.5199 179.588 61.1769 179.873 61.0626C180.159 60.9483 180.502 61.0912 180.617 61.377L183.132 67.5224C183.246 67.8082 183.103 68.1512 182.817 68.2655C182.76 68.2941 182.703 68.2941 182.617 68.2941Z" fill="#333333"/>
<path d="M148.29 80.1561C147.404 80.1561 146.575 80.0704 145.831 79.8989C145.517 79.8417 145.317 79.5273 145.403 79.2129C145.46 78.8985 145.774 78.6984 146.089 78.7841C149.976 79.613 156.007 78.6126 162.495 69.0659C167.412 61.8915 173.5 56.232 177.644 55.003C177.959 54.9172 178.273 55.0887 178.359 55.4031C178.445 55.7175 178.273 56.0319 177.959 56.1177C174.043 57.261 168.212 62.749 163.439 69.7233C157.779 77.9838 152.377 80.1561 148.29 80.1561Z" fill="#333333"/>
<path d="M182.818 118.572L220.548 41.9692L237.126 41.026L261.421 118.572H182.818Z" fill="#B666D2"/>
<path d="M216.689 100.679C216.661 100.679 216.632 100.679 216.575 100.679C216.261 100.622 216.06 100.307 216.118 100.022L224.75 54.2313C224.807 53.9169 225.121 53.7168 225.407 53.774C225.722 53.8312 225.922 54.1456 225.864 54.4314L217.232 100.222C217.204 100.479 216.947 100.679 216.689 100.679Z" fill="#333333"/>
<path d="M196.452 91.5897C196.366 91.5897 196.28 91.5612 196.195 91.5326C195.909 91.3897 195.795 91.0467 195.938 90.7608L217.546 47.0858C217.689 46.8 218.032 46.6856 218.318 46.8286C218.604 46.9715 218.718 47.3145 218.575 47.6003L196.966 91.2753C196.852 91.4754 196.652 91.5897 196.452 91.5897Z" fill="#333333"/>
<path d="M170.899 59.9196C170.67 59.9196 170.47 59.8053 170.384 59.5766L164.525 46.114C164.41 45.8282 164.525 45.4852 164.811 45.3708C165.096 45.2565 165.439 45.3708 165.554 45.6567L171.413 59.1193C171.528 59.4051 171.413 59.7481 171.127 59.8625C171.042 59.8911 170.985 59.9196 170.899 59.9196Z" fill="#333333"/>
<path d="M162.324 70.7813C162.124 70.7813 161.924 70.6669 161.809 70.4668L155.207 57.0614C155.064 56.7755 155.178 56.4325 155.464 56.2896C155.75 56.1467 156.093 56.261 156.236 56.5469L162.838 69.9524C162.981 70.2382 162.867 70.5812 162.581 70.7241C162.495 70.7527 162.409 70.7813 162.324 70.7813Z" fill="#333333"/>
<path d="M152.748 78.8989C152.548 78.8989 152.377 78.8131 152.262 78.613L152.176 78.4701C149.976 74.8687 147.203 70.3811 144.974 64.836C144.859 64.5501 145.002 64.2071 145.288 64.0928C145.574 63.9785 145.917 64.1214 146.031 64.4072C148.232 69.8666 150.976 74.297 153.148 77.8699L153.234 78.0128C153.406 78.27 153.32 78.6416 153.034 78.8131C152.948 78.8703 152.862 78.8989 152.748 78.8989Z" fill="#333333"/>
<path d="M243.186 150.471C241.242 150.471 238.87 148.471 237.212 146.784C235.382 144.898 233.439 142.382 232.267 140.324L232.238 140.267L232.295 140.239C232.353 140.21 237.783 138.123 243.214 135.608L243.271 135.58L243.3 135.637C243.329 135.694 246.844 140.582 246.558 145.298C246.301 149.471 243.843 150.414 243.757 150.414C243.586 150.443 243.386 150.471 243.186 150.471Z" fill="#333333"/>
<path d="M223.92 98.8215C202.025 96.5635 171.727 109.826 166.153 112.884C163.838 114.142 162.238 115.828 162.695 118.63H188.277C185.018 125.547 184.075 131.292 188.62 131.606C194.565 132.007 200.653 123.66 203.769 118.63H241.784C241.813 118.63 245.7 101.051 223.92 98.8215Z" fill="#DBB3E8"/>
<path d="M190.677 88.16H200.853C200.853 88.16 209.257 80.0423 211.315 81.7573C214.802 84.6728 208.113 112.313 188.048 110.283C169.526 108.397 181.931 79.1848 186.876 79.7565C189.22 80.0138 190.677 88.16 190.677 88.16Z" fill="#DBB3E8"/>
<path d="M190.078 110.941C189.392 110.941 188.706 110.913 187.991 110.827C184.561 110.484 181.96 109.226 180.188 107.054C179.988 106.797 180.016 106.454 180.274 106.254C180.531 106.054 180.874 106.082 181.074 106.34C182.618 108.255 184.99 109.398 188.077 109.712C193.479 110.255 201.139 108.883 207.085 99.1652C207.256 98.9079 207.599 98.8222 207.885 98.9651C208.142 99.1366 208.228 99.4796 208.085 99.7654C203.626 107.026 197.309 110.941 190.078 110.941Z" fill="#333333"/>
<path d="M192.564 98.6221H189.22C188.905 98.6221 188.648 98.3648 188.648 98.0504C188.648 97.736 188.905 97.4788 189.22 97.4788H192.564C192.878 97.4788 193.136 97.736 193.136 98.0504C193.136 98.3648 192.878 98.6221 192.564 98.6221Z" fill="#333333"/>
<path d="M190.077 102.68C190.048 102.68 189.991 102.68 189.963 102.68C189.648 102.623 189.448 102.309 189.505 102.023L190.306 97.9643C190.363 97.6499 190.677 97.4498 190.963 97.5069C191.277 97.5641 191.478 97.8785 191.42 98.1644L190.62 102.223C190.591 102.48 190.334 102.68 190.077 102.68Z" fill="#333333"/>
<path d="M190.334 102.966C188.819 102.966 187.361 102.394 186.447 101.308C186.247 101.08 186.275 100.708 186.532 100.508C186.761 100.308 187.133 100.336 187.333 100.594C188.505 101.994 191.334 102.423 193.535 100.794C193.793 100.594 194.136 100.651 194.336 100.908C194.536 101.165 194.479 101.508 194.221 101.708C193.049 102.537 191.649 102.966 190.334 102.966Z" fill="#333333"/>
<path d="M199.11 97.1642C199.024 97.1642 198.938 97.1356 198.852 97.107C198.567 96.9641 198.452 96.6211 198.595 96.3353L198.881 95.735C199.024 95.4492 199.367 95.3349 199.653 95.4778C199.939 95.6207 200.053 95.9637 199.91 96.2495L199.624 96.8498C199.538 97.0499 199.31 97.1642 199.11 97.1642Z" fill="#333333"/>
<path d="M206.369 90.4753C206.284 90.4753 206.169 90.4467 206.084 90.3895C205.798 90.2466 205.712 89.875 205.855 89.6178L207.313 86.9881C207.456 86.7023 207.827 86.6166 208.084 86.7595C208.37 86.9024 208.456 87.274 208.313 87.5312L206.855 90.1609C206.77 90.361 206.57 90.4753 206.369 90.4753Z" fill="#333333"/>
<path d="M185.733 89.8757C185.418 89.8757 185.161 89.6184 185.161 89.304V86.4171C185.161 86.1027 185.418 85.8455 185.733 85.8455C186.047 85.8455 186.304 86.1027 186.304 86.4171V89.304C186.304 89.6184 186.047 89.8757 185.733 89.8757Z" fill="#333333"/>
<path d="M184.848 97.1642C184.762 97.1642 184.676 97.1356 184.59 97.107C184.304 96.9641 184.19 96.6211 184.333 96.3353L184.619 95.735C184.762 95.4492 185.105 95.3349 185.391 95.4778C185.676 95.6207 185.791 95.9637 185.648 96.2495L185.362 96.8498C185.276 97.0499 185.048 97.1642 184.848 97.1642Z" fill="#333333"/>
<path d="M203.797 119.202C203.711 119.202 203.626 119.173 203.511 119.145C203.226 119.002 203.14 118.659 203.283 118.373L204.712 115.744C204.855 115.458 205.198 115.372 205.484 115.515C205.769 115.658 205.855 116.001 205.712 116.287L204.283 118.916C204.197 119.088 203.997 119.202 203.797 119.202Z" fill="#333333"/>
<path d="M188.277 119.202C188.191 119.202 188.105 119.173 188.02 119.145C187.734 119.002 187.648 118.659 187.791 118.373L190.221 113.8C190.364 113.514 190.707 113.428 190.992 113.571C191.278 113.714 191.364 114.057 191.221 114.343L188.791 118.916C188.677 119.087 188.477 119.202 188.277 119.202Z" fill="#333333"/>
<path d="M187.077 131.378C186.762 131.378 186.505 131.121 186.505 130.807C186.505 129.863 186.705 128.949 187.134 128.063C187.277 127.777 187.62 127.663 187.905 127.777C188.191 127.92 188.306 128.263 188.191 128.549C187.848 129.292 187.677 130.063 187.677 130.835C187.648 131.121 187.391 131.378 187.077 131.378Z" fill="#333333"/>
<path d="M189.877 131.95C189.562 131.95 189.305 131.693 189.305 131.379C189.305 130.436 189.505 129.521 189.934 128.635C190.077 128.349 190.42 128.235 190.706 128.349C190.992 128.492 191.106 128.835 190.992 129.121C190.649 129.864 190.477 130.636 190.477 131.407C190.448 131.693 190.191 131.95 189.877 131.95Z" fill="#333333"/>
<path d="M165.667 119.202C165.382 119.202 165.124 118.974 165.096 118.659C165.096 118.602 165.01 117.23 165.639 116.258C165.81 116.001 166.153 115.915 166.439 116.087C166.696 116.258 166.782 116.601 166.611 116.887C166.268 117.43 166.239 118.316 166.239 118.602C166.268 118.917 166.01 119.202 165.696 119.202H165.667Z" fill="#333333"/>
<path d="M168.468 119.202C168.182 119.202 167.925 118.974 167.897 118.659C167.897 118.602 167.811 117.23 168.44 116.258C168.611 116.001 168.954 115.915 169.24 116.087C169.497 116.258 169.583 116.601 169.411 116.887C169.068 117.43 169.04 118.316 169.04 118.602C169.068 118.917 168.811 119.202 168.497 119.202H168.468Z" fill="#333333"/>
<path d="M213.601 144.269C209.457 144.269 208.857 142.64 208.857 142.64C208.799 142.383 208.571 142.24 208.313 142.24C208.285 142.24 206.284 142.211 205.284 141.125C204.826 140.639 204.655 140.01 204.712 139.238C204.741 139.01 204.598 138.781 204.398 138.695C204.398 138.695 203.197 138.067 202.968 137.009C202.826 136.352 203.083 135.608 203.74 134.808C203.826 134.694 203.883 134.522 203.855 134.379C203.826 134.236 203.769 134.094 203.626 133.979C203.626 133.979 202.683 133.236 202.683 132.15C202.711 131.235 203.397 130.292 204.712 129.32C206.599 127.977 213.23 124.661 213.287 124.632C213.487 124.547 213.601 124.318 213.601 124.089C213.601 123.861 213.458 123.661 213.258 123.575C213.258 123.575 212.058 123.06 211.772 122.06C211.601 121.46 211.801 120.745 212.372 119.973C213.544 118.344 217.517 116.2 223.005 113.228C224.349 112.485 225.778 111.713 227.293 110.884L242.613 103.938L253.075 128.634L242.956 135.151C237.525 137.666 232.152 139.753 232.095 139.753C232.009 139.782 224.549 142.726 217.403 143.898C216.002 144.155 214.716 144.269 213.601 144.269Z" fill="white"/>
<path d="M242.328 104.682L252.389 128.406L242.699 134.637C237.297 137.123 231.952 139.181 231.895 139.21C231.809 139.239 224.406 142.154 217.346 143.326C215.945 143.555 214.716 143.669 213.602 143.669C210.315 143.669 209.514 142.64 209.4 142.44C209.314 141.897 208.857 141.64 208.314 141.64C207.828 141.64 206.37 141.468 205.684 140.696C205.341 140.325 205.227 139.867 205.255 139.239C205.284 138.781 205.055 138.353 204.627 138.124C204.369 137.981 203.626 137.495 203.512 136.838C203.426 136.352 203.626 135.78 204.169 135.123C204.369 134.894 204.455 134.58 204.426 134.265C204.398 133.951 204.226 133.694 203.998 133.493C203.998 133.493 203.255 132.893 203.283 132.121C203.312 131.407 203.912 130.578 205.084 129.749C206.942 128.434 213.516 125.119 213.573 125.09C213.973 124.89 214.23 124.49 214.202 124.032C214.173 123.575 213.916 123.204 213.516 123.032C213.259 122.918 212.515 122.489 212.373 121.889C212.258 121.46 212.43 120.917 212.887 120.288C214.002 118.773 218.118 116.544 223.32 113.714C224.692 112.971 226.092 112.199 227.607 111.37L242.328 104.682ZM242.928 103.167L227.064 110.37C219.261 114.686 213.516 117.487 211.944 119.631C209.714 122.689 213.059 124.09 213.059 124.09C213.059 124.09 206.37 127.434 204.398 128.834C200.025 131.95 203.283 134.408 203.283 134.408C200.768 137.466 204.112 139.153 204.112 139.153C203.826 142.783 208.285 142.783 208.285 142.783C208.285 142.783 208.828 144.812 213.573 144.812C214.659 144.812 215.945 144.698 217.489 144.441C224.778 143.212 232.295 140.268 232.295 140.268C232.295 140.268 237.697 138.181 243.214 135.637L253.789 128.834L242.928 103.167Z" fill="#333333"/>
<path d="M280.115 93.934C279.086 87.5599 276.227 80.7 271.568 73.5828C267.853 67.8947 262.993 62.0066 257.163 56.0899C247.187 46.0287 237.669 39.283 237.555 39.1973L237.497 39.1687L231.409 47.0291L250.96 95.306C242.271 101.651 233.982 106.453 227.036 110.284L227.007 110.312V110.341C227.007 110.398 228.122 114.914 230.895 118.801C232.638 121.231 234.239 123.203 235.782 125.09C238.326 128.234 240.727 131.178 243.185 135.58C247.501 143.897 246.015 149.528 243.786 150.357C245.472 149.928 255.619 142.868 264.88 132.293C270.139 126.29 274.141 120.259 276.799 114.399C280 107.254 281.115 100.365 280.115 93.934Z" fill="#B666D2"/>
<path d="M251.018 95.9348C250.789 95.9348 250.589 95.7919 250.474 95.5633L238.955 67.0659C238.841 66.7801 238.984 66.4371 239.27 66.3227C239.556 66.2084 239.899 66.3513 240.013 66.6371L251.532 95.1345C251.646 95.4204 251.503 95.7634 251.218 95.8777C251.16 95.9349 251.103 95.9348 251.018 95.9348Z" fill="#333333"/>
<path d="M237.583 104.853C237.383 104.853 237.212 104.767 237.097 104.567C236.926 104.31 237.012 103.938 237.297 103.795C242.271 100.766 246.644 97.8501 250.674 94.906L254.304 92.1049C254.562 91.9048 254.905 91.962 255.105 92.2192C255.305 92.4764 255.248 92.8195 254.99 93.0195L251.36 95.8207C247.301 98.7933 242.9 101.709 237.898 104.767C237.783 104.824 237.698 104.853 237.583 104.853Z" fill="#333333"/>
<path d="M259.964 137.923C259.964 137.923 259.935 137.923 259.964 137.923C259.621 137.894 259.363 137.637 259.392 137.323C259.478 135.293 259.049 132.978 258.049 130.463C256.762 127.176 253.675 123.203 250.388 119.001C246.129 113.513 241.699 107.854 240.441 102.68C240.356 102.366 240.556 102.051 240.87 101.994C241.184 101.908 241.499 102.108 241.556 102.423C242.757 107.339 247.101 112.913 251.303 118.315C254.619 122.574 257.791 126.633 259.106 130.063C260.135 132.749 260.621 135.208 260.507 137.38C260.507 137.694 260.278 137.923 259.964 137.923Z" fill="#333333"/>
<path d="M210.344 65.1801C212.049 65.1801 213.431 63.798 213.431 62.0931C213.431 60.3882 212.049 59.0061 210.344 59.0061C208.639 59.0061 207.257 60.3882 207.257 62.0931C207.257 63.798 208.639 65.1801 210.344 65.1801Z" fill="#333333"/>
<path d="M213.688 70.2103C215.393 70.2103 216.775 68.8282 216.775 67.1233C216.775 65.4184 215.393 64.0363 213.688 64.0363C211.983 64.0363 210.601 65.4184 210.601 67.1233C210.601 68.8282 211.983 70.2103 213.688 70.2103Z" fill="#333333"/>
<path d="M218.319 74.0115C220.024 74.0115 221.406 72.6294 221.406 70.9245C221.406 69.2196 220.024 67.8375 218.319 67.8375C216.614 67.8375 215.232 69.2196 215.232 70.9245C215.232 72.6294 216.614 74.0115 218.319 74.0115Z" fill="#333333"/>
<path d="M224.178 75.2125C225.883 75.2125 227.265 73.8304 227.265 72.1255C227.265 70.4206 225.883 69.0385 224.178 69.0385C222.473 69.0385 221.091 70.4206 221.091 72.1255C221.091 73.8304 222.473 75.2125 224.178 75.2125Z" fill="#333333"/>
<path d="M230.066 74.3265C231.771 74.3265 233.153 72.9444 233.153 71.2395C233.153 69.5346 231.771 68.1525 230.066 68.1525C228.361 68.1525 226.979 69.5346 226.979 71.2395C226.979 72.9444 228.361 74.3265 230.066 74.3265Z" fill="#333333"/>
<path d="M235.411 72.2106C237.116 72.2106 238.498 70.8285 238.498 69.1237C238.498 67.4188 237.116 66.0367 235.411 66.0367C233.706 66.0367 232.324 67.4188 232.324 69.1237C232.324 70.8285 233.706 72.2106 235.411 72.2106Z" fill="#333333"/>
<path d="M240.642 69.4104C242.347 69.4104 243.729 68.0283 243.729 66.3234C243.729 64.6185 242.347 63.2365 240.642 63.2365C238.937 63.2365 237.555 64.6185 237.555 66.3234C237.555 68.0283 238.937 69.4104 240.642 69.4104Z" fill="#333333"/>
<path d="M245.272 65.5797C246.977 65.5797 248.359 64.1976 248.359 62.4927C248.359 60.7879 246.977 59.4058 245.272 59.4058C243.567 59.4058 242.185 60.7879 242.185 62.4927C242.185 64.1976 243.567 65.5797 245.272 65.5797Z" fill="#333333"/>
<path d="M249.217 61.2064C250.922 61.2064 252.304 59.8243 252.304 58.1194C252.304 56.4145 250.922 55.0324 249.217 55.0324C247.512 55.0324 246.13 56.4145 246.13 58.1194C246.13 59.8243 247.512 61.2064 249.217 61.2064Z" fill="#333333"/>
<path d="M253.304 57.0905C255.009 57.0905 256.391 55.7084 256.391 54.0035C256.391 52.2986 255.009 50.9166 253.304 50.9166C251.599 50.9166 250.217 52.2986 250.217 54.0035C250.217 55.7084 251.599 57.0905 253.304 57.0905Z" fill="#333333"/>
<path d="M230.923 119.373C230.723 119.373 230.523 119.259 230.438 119.087C230.266 118.801 230.38 118.458 230.638 118.315L244.586 110.226C244.872 110.055 245.215 110.169 245.358 110.426C245.529 110.712 245.415 111.055 245.158 111.198L231.209 119.287C231.123 119.344 231.009 119.373 230.923 119.373Z" fill="#333333"/>
<path d="M239.241 130.205C239.041 130.205 238.87 130.12 238.755 129.948C238.584 129.691 238.669 129.319 238.927 129.148L252.418 120.687C252.675 120.516 253.047 120.601 253.218 120.859C253.39 121.116 253.304 121.488 253.047 121.659L239.556 130.12C239.441 130.177 239.355 130.205 239.241 130.205Z" fill="#333333"/>
<path d="M245.158 142.269C244.958 142.269 244.786 142.183 244.672 142.011C244.5 141.754 244.586 141.382 244.843 141.211C250.217 137.838 257.677 131.979 258.42 131.235C258.649 131.007 258.992 131.007 259.221 131.235C259.449 131.464 259.449 131.807 259.221 132.036C258.277 132.979 250.731 138.839 245.444 142.183C245.358 142.24 245.272 142.269 245.158 142.269Z" fill="#333333"/>
<path d="M213.602 124.947C213.373 124.947 213.173 124.832 213.087 124.632C212.944 124.347 213.087 124.004 213.373 123.861L222.863 119.402C223.149 119.259 223.492 119.402 223.634 119.688C223.777 119.973 223.634 120.316 223.349 120.459L213.859 124.918C213.773 124.918 213.688 124.947 213.602 124.947Z" fill="#333333"/>
<path d="M203.797 134.893C203.54 134.893 203.312 134.722 203.254 134.464C203.169 134.15 203.369 133.835 203.655 133.778C203.712 133.75 210.772 131.892 222.319 126.661C222.605 126.518 222.948 126.661 223.063 126.947C223.205 127.233 223.063 127.576 222.777 127.69C211.143 132.978 203.998 134.836 203.94 134.864C203.883 134.893 203.855 134.893 203.797 134.893Z" fill="#333333"/>
<path d="M204.941 139.467C204.684 139.467 204.426 139.267 204.369 139.009C204.312 138.695 204.512 138.409 204.826 138.323C214.145 136.408 224.978 131.435 225.092 131.378C225.378 131.235 225.721 131.378 225.864 131.664C226.007 131.949 225.864 132.292 225.578 132.435C225.463 132.492 214.516 137.523 205.084 139.438C205.027 139.467 204.969 139.467 204.941 139.467Z" fill="#333333"/>
<path d="M209.142 142.811C208.857 142.811 208.628 142.611 208.571 142.325C208.514 142.011 208.742 141.725 209.057 141.668C209.114 141.668 216.117 140.496 227.75 135.98C228.036 135.866 228.379 136.008 228.493 136.294C228.608 136.58 228.465 136.923 228.179 137.037C216.431 141.611 209.314 142.783 209.257 142.783C209.2 142.811 209.171 142.811 209.142 142.811Z" fill="#333333"/>
<path d="M247.101 25.3912C245.672 25.3912 244.386 25.2768 243.328 25.1339C239.813 24.6194 236.669 23.4189 234.754 21.8469C234.411 21.561 234.068 21.3038 233.696 21.0179C230.437 18.5026 226.35 15.3585 225.607 5.81172C225.578 5.49731 225.807 5.21148 226.121 5.18289C226.436 5.15431 226.722 5.38297 226.75 5.69739C227.465 14.7297 231.152 17.588 234.411 20.1033C234.782 20.3891 235.125 20.6749 235.497 20.9608C239.012 23.8763 247.273 25.5055 254.504 23.1045C254.819 23.0188 255.133 23.1617 255.219 23.4761C255.305 23.7619 255.162 24.1049 254.847 24.1907C252.075 25.0767 249.388 25.3912 247.101 25.3912Z" fill="#333333"/>
<path d="M242.956 49.944C246.76 49.944 249.844 46.8599 249.844 43.0555C249.844 39.251 246.76 36.1669 242.956 36.1669C239.151 36.1669 236.067 39.251 236.067 43.0555C236.067 46.8599 239.151 49.944 242.956 49.944Z" fill="white"/>
<path d="M242.956 36.7387C246.443 36.7387 249.273 39.5685 249.273 43.0556C249.273 46.5427 246.443 49.3725 242.956 49.3725C239.469 49.3725 236.639 46.5427 236.639 43.0556C236.639 39.5685 239.469 36.7387 242.956 36.7387ZM242.956 35.5954C238.84 35.5954 235.496 38.9396 235.496 43.0556C235.496 47.1716 238.84 50.5158 242.956 50.5158C247.072 50.5158 250.417 47.1716 250.417 43.0556C250.417 38.9396 247.101 35.5954 242.956 35.5954Z" fill="#333333"/>
<path d="M227.893 54.1745C227.75 54.1745 227.607 54.1745 227.464 54.1745C222.147 53.8886 217.174 48.2578 215.145 40.1973C212.543 29.9074 214.43 20.6179 219.575 18.5599C221.204 17.9025 222.919 17.5881 224.691 17.5881C231.694 17.5881 237.554 22.6187 237.611 22.6759C240.812 25.5628 242.27 28.4782 242.298 32.1083C242.356 36.1385 240.641 41.0834 236.896 47.6289C234.495 51.9164 231.38 54.1745 227.893 54.1745Z" fill="white"/>
<path d="M224.72 18.1599C231.408 18.1599 237.068 22.9332 237.268 23.1047C242.556 27.9067 244.242 33.6233 236.439 47.3432C234.095 51.4306 231.151 53.6029 227.921 53.6029C227.807 53.6029 227.664 53.6029 227.55 53.6029C222.462 53.3171 217.746 47.8863 215.745 40.0545C214.487 35.0525 214.258 30.1362 215.116 26.1917C215.916 22.5045 217.603 19.9892 219.832 19.1031C221.347 18.4743 223.005 18.1599 224.72 18.1599ZM224.72 17.0165C223.005 17.0165 221.204 17.3024 219.375 18.017C214.03 20.1321 211.886 29.536 214.601 40.3118C216.774 48.9153 222.033 54.4319 227.435 54.7177C227.578 54.7177 227.721 54.7177 227.893 54.7177C231.294 54.7177 234.724 52.6311 237.411 47.8863C245.1 34.3665 244.128 27.7638 238.011 22.2187C238.011 22.2473 232.037 17.0165 224.72 17.0165Z" fill="#333333"/>
<path d="M238.011 22.2481C243.642 27.3359 244.928 33.3098 239.126 44.743C230.894 35.625 233.695 23.0484 233.695 23.0484C233.695 23.0484 223.377 31.7091 213.801 26.7928C214.573 22.391 216.517 19.1611 219.375 18.0178C228.865 14.2448 238.011 22.2481 238.011 22.2481Z" fill="#333333"/>
<path d="M221.347 39.8256C221.233 39.8256 221.147 39.797 221.033 39.7398C220.461 39.3683 220.004 38.8538 219.746 38.2249C219.575 37.7962 219.489 37.1959 219.518 36.367C219.518 36.0526 219.803 35.7954 220.118 35.824C220.432 35.824 220.69 36.1098 220.661 36.4242C220.632 37.053 220.69 37.5104 220.775 37.7962C220.947 38.1964 221.261 38.5394 221.633 38.7966C221.89 38.9681 221.976 39.3111 221.804 39.5969C221.719 39.7398 221.547 39.8256 221.347 39.8256Z" fill="#333333"/>
<path d="M226.15 34.8816H226.121C225.807 34.853 225.578 34.5957 225.607 34.2813L225.664 33.5096C225.693 33.1952 225.95 32.9665 226.264 32.9951C226.579 33.0237 226.807 33.2809 226.779 33.5953L226.722 34.3671C226.693 34.6529 226.436 34.8816 226.15 34.8816Z" fill="#333333"/>
<path d="M216.603 33.4242H216.574C216.26 33.3957 216.031 33.1384 216.06 32.824L216.117 32.0523C216.145 31.7378 216.403 31.5092 216.717 31.5378C217.031 31.5663 217.26 31.8236 217.231 32.138L217.174 32.9097C217.146 33.1956 216.888 33.4242 216.603 33.4242Z" fill="#333333"/>
<path d="M224.207 46.0005C223.206 46.0005 222.034 45.4003 221.434 43.5995C221.377 43.4566 221.405 43.2851 221.463 43.1708C221.52 43.0279 221.663 42.9421 221.806 42.885L226.265 41.4844C226.436 41.4272 226.608 41.4558 226.75 41.5701C226.893 41.6845 226.979 41.8274 227.008 41.9989C227.208 44.3713 225.922 45.7147 224.664 45.9719C224.521 45.9719 224.349 46.0005 224.207 46.0005ZM222.749 43.7996C223.149 44.5714 223.778 44.9715 224.435 44.8572C225.093 44.7143 225.75 44.0283 225.864 42.8278L222.749 43.7996Z" fill="#333333"/>
<path d="M244.128 44.5423C244.043 44.5423 243.985 44.5137 243.9 44.4851L239.87 42.7701C239.584 42.6558 239.441 42.3128 239.555 42.027C239.669 41.7411 240.012 41.5982 240.298 41.7126L244.328 43.4276C244.614 43.5419 244.757 43.8849 244.643 44.1707C244.557 44.3994 244.357 44.5423 244.128 44.5423Z" fill="#333333"/>
<path d="M241.384 23.4768C247.745 23.4768 252.903 18.3196 252.903 11.9578C252.903 5.59608 247.745 0.438843 241.384 0.438843C235.022 0.438843 229.865 5.59608 229.865 11.9578C229.865 18.3196 235.022 23.4768 241.384 23.4768Z" fill="#333333"/>
<path d="M221.06 30.3824C221.335 26.0976 218.8 22.4469 215.397 22.2284C211.995 22.0098 209.013 25.3062 208.738 29.591C208.463 33.8758 210.998 37.5264 214.401 37.745C217.803 37.9635 220.785 34.6672 221.06 30.3824Z" stroke="#333333" stroke-width="4.50654" stroke-miterlimit="3.9998" stroke-linecap="round" stroke-linejoin="round"/>
<path d="M235.298 31.5936C235.574 27.3088 233.038 23.6581 229.636 23.4396C226.233 23.221 223.252 26.5174 222.976 30.8022C222.701 35.0869 225.236 38.7376 228.639 38.9561C232.042 39.1747 235.023 35.8783 235.298 31.5936Z" stroke="#333333" stroke-width="4.50654" stroke-miterlimit="3.9998" stroke-linecap="round" stroke-linejoin="round"/>
</svg>
