<svg width="375" height="281" viewBox="0 0 375 281" fill="none" xmlns="http://www.w3.org/2000/svg">
<path d="M250.691 170.593H123.672C117.313 170.593 112.153 165.433 112.153 159.074V82.5185C112.153 76.1596 117.313 71 123.672 71H250.691C257.05 71 262.21 76.1596 262.21 82.5185V159.074C262.21 165.433 257.05 170.593 250.691 170.593ZM123.672 71.9052C117.811 71.9052 113.059 76.6574 113.059 82.5185V159.074C113.059 164.935 117.811 169.687 123.672 169.687H250.691C256.552 169.687 261.304 164.935 261.304 159.074V82.5185C261.304 76.6574 256.552 71.9052 250.691 71.9052H123.672Z" fill="#333333"/>
<path d="M187.17 132.19C178.005 132.19 170.538 124.722 170.538 115.557C170.538 106.393 178.005 98.9248 187.17 98.9248C196.335 98.9248 203.803 106.393 203.803 115.557C203.803 124.722 196.335 132.19 187.17 132.19ZM187.17 99.83C178.503 99.83 171.443 106.89 171.443 115.557C171.443 124.225 178.503 131.285 187.17 131.285C195.837 131.285 202.898 124.225 202.898 115.557C202.898 106.89 195.837 99.83 187.17 99.83Z" fill="#333333"/>
<path d="M185.36 121.758C183.935 121.758 182.758 120.581 182.758 119.156V112.005C182.758 111.575 182.871 111.145 183.097 110.715C183.799 109.47 185.405 109.04 186.65 109.742L192.851 113.317C193.258 113.544 193.597 113.883 193.824 114.29C194.163 114.879 194.254 115.58 194.073 116.259C193.892 116.938 193.462 117.481 192.851 117.821L186.65 121.396C186.288 121.645 185.835 121.758 185.36 121.758ZM185.36 110.285C184.772 110.285 184.206 110.579 183.889 111.122C183.731 111.416 183.663 111.711 183.663 111.982V119.133C183.663 120.061 184.432 120.83 185.36 120.83C185.677 120.83 185.949 120.762 186.22 120.604L192.421 117.028C192.805 116.802 193.099 116.44 193.213 116.01C193.326 115.558 193.281 115.105 193.054 114.698C192.918 114.426 192.692 114.222 192.443 114.087C192.443 114.087 192.443 114.087 192.421 114.087L186.22 110.511C185.949 110.375 185.654 110.285 185.36 110.285Z" fill="#333333"/>
<path d="M318.761 141.445H295.452V164.528H318.761V141.445Z" fill="white"/>
<path d="M318.308 141.898V164.075H295.905V141.898H318.308ZM319.214 140.993H295V164.98H319.214V140.993Z" fill="#333333"/>
<path d="M307.106 153.213C313.543 153.213 318.761 147.995 318.761 141.558C318.761 135.122 313.543 129.904 307.106 129.904C300.67 129.904 295.452 135.122 295.452 141.558C295.452 147.995 300.67 153.213 307.106 153.213Z" fill="white"/>
<path d="M307.107 130.357C313.285 130.357 318.308 135.381 318.308 141.559C318.308 147.736 313.285 152.76 307.107 152.76C300.929 152.76 295.905 147.736 295.905 141.559C295.905 135.381 300.929 130.357 307.107 130.357ZM307.107 129.452C300.431 129.452 295 134.883 295 141.559C295 148.234 300.431 153.665 307.107 153.665C313.782 153.665 319.214 148.234 319.214 141.559C319.214 134.883 313.782 129.452 307.107 129.452Z" fill="#333333"/>
<path d="M313.33 164.754C313.081 164.754 312.877 164.55 312.877 164.301V151.629C312.877 151.38 313.081 151.176 313.33 151.176C313.579 151.176 313.783 151.38 313.783 151.629V164.301C313.783 164.55 313.579 164.754 313.33 164.754Z" fill="#333333"/>
<path d="M306.994 164.754C306.745 164.754 306.541 164.55 306.541 164.302V153.213C306.541 152.964 306.745 152.76 306.994 152.76C307.243 152.76 307.446 152.964 307.446 153.213V164.302C307.446 164.55 307.243 164.754 306.994 164.754Z" fill="#333333"/>
<path d="M301.11 164.754C300.861 164.754 300.657 164.55 300.657 164.301V151.629C300.657 151.38 300.861 151.176 301.11 151.176C301.359 151.176 301.562 151.38 301.562 151.629V164.301C301.562 164.55 301.359 164.754 301.11 164.754Z" fill="#333333"/>
<path d="M322.291 104.378C315.05 99.1736 311.044 108.474 317.562 111.552C310.365 111.461 309.868 121.554 318.671 120.061C325.844 118.477 335.869 115.784 335.869 115.784C335.869 115.784 328.017 108.972 322.291 104.378Z" fill="white"/>
<path d="M316.973 120.672C314.348 120.672 313.058 119.517 312.47 118.725C311.497 117.39 311.383 115.603 312.198 114.019C312.945 112.548 314.371 111.552 316.136 111.235C314.71 110.172 313.873 108.655 313.827 107.003C313.782 105.238 314.665 103.654 316.136 102.885C317.177 102.342 319.394 101.753 322.562 104.016C322.562 104.016 322.585 104.016 322.585 104.039C328.242 108.587 336.095 115.376 336.185 115.444C336.321 115.557 336.366 115.716 336.321 115.897C336.276 116.078 336.163 116.191 336.004 116.236C335.914 116.259 325.889 118.952 318.783 120.513C318.104 120.604 317.516 120.672 316.973 120.672ZM317.471 112.004C315.434 112.004 313.805 112.887 313.013 114.426C312.357 115.693 312.447 117.119 313.216 118.182C314.212 119.54 316.113 120.038 318.602 119.608C324.486 118.318 332.384 116.236 334.941 115.557C332.949 113.837 326.726 108.497 322.042 104.74C320.005 103.269 318.059 102.885 316.588 103.677C315.434 104.288 314.733 105.555 314.755 106.981C314.801 108.746 315.887 110.262 317.788 111.145C317.991 111.235 318.082 111.439 318.037 111.665C317.991 111.869 317.81 112.027 317.607 112.027C317.516 112.004 317.493 112.004 317.471 112.004Z" fill="#333333"/>
<path d="M335.847 116.259C335.801 116.259 335.779 116.259 335.733 116.236L317.426 111.982C317.177 111.937 317.041 111.688 317.087 111.439C317.132 111.19 317.381 111.054 317.63 111.099L335.937 115.354C336.186 115.399 336.322 115.648 336.277 115.897C336.231 116.123 336.05 116.259 335.847 116.259Z" fill="#333333"/>
<path d="M306.994 142.124C306.745 142.124 306.541 141.921 306.541 141.672V84.4191C306.541 84.1702 306.745 83.9666 306.994 83.9666C307.243 83.9666 307.446 84.1702 307.446 84.4191V141.672C307.446 141.921 307.243 142.124 306.994 142.124Z" fill="#333333"/>
<path d="M297.263 125.899C306.948 124.021 302.513 113.77 295.09 116.666C300.634 110.963 292.895 102.885 287.419 111.077C283.255 118.046 277.801 128.139 277.801 128.139C277.801 128.139 289.229 127.03 297.263 125.899Z" fill="white"/>
<path d="M277.801 128.592C277.643 128.592 277.507 128.524 277.417 128.388C277.326 128.253 277.326 128.072 277.394 127.913C277.439 127.823 282.893 117.73 287.012 110.828C287.012 110.828 287.012 110.805 287.034 110.805C289.41 107.252 291.9 107.003 293.19 107.162C294.977 107.388 296.493 108.678 297.15 110.511C297.761 112.254 297.466 114.154 296.358 115.829C298.326 115.444 300.205 115.919 301.585 117.164C303.011 118.454 303.599 120.355 303.124 122.075C302.784 123.319 301.562 125.514 297.353 126.329H297.331C289.388 127.438 277.96 128.569 277.847 128.569C277.824 128.592 277.824 128.592 277.801 128.592ZM287.804 111.326C284.341 117.119 279.951 125.152 278.616 127.619C281.422 127.347 290.519 126.397 297.195 125.469C299.956 124.926 301.743 123.659 302.241 121.848C302.626 120.445 302.151 118.907 300.974 117.843C299.526 116.53 297.444 116.259 295.271 117.096C295.068 117.164 294.841 117.096 294.728 116.915C294.615 116.734 294.638 116.508 294.774 116.349C296.38 114.675 296.946 112.661 296.29 110.805C295.769 109.312 294.525 108.248 293.076 108.067C291.243 107.841 289.365 108.995 287.804 111.326Z" fill="#333333"/>
<path d="M277.801 128.592C277.666 128.592 277.507 128.524 277.417 128.388C277.281 128.185 277.326 127.891 277.552 127.755L294.841 116.282C295.045 116.146 295.339 116.191 295.475 116.417C295.611 116.621 295.566 116.915 295.339 117.051L278.05 128.524C277.982 128.569 277.892 128.592 277.801 128.592Z" fill="#333333"/>
<path d="M321.634 121.396C316.543 111.823 307.197 119.789 312.605 126.646C304.82 122.663 298.846 133.389 309.211 136.512C317.878 138.639 330.233 141.106 330.233 141.106C330.233 141.106 325.413 129.475 321.634 121.396Z" fill="white"/>
<path d="M330.234 141.559C330.211 141.559 330.166 141.559 330.143 141.559C330.03 141.536 317.674 139.069 309.098 136.965H309.075C304.595 135.607 303.531 133.095 303.282 131.692C302.943 129.746 303.803 127.777 305.5 126.51C307.152 125.288 309.279 125.016 311.406 125.673C310.343 123.704 310.207 121.554 311.089 119.699C311.994 117.798 313.76 116.576 315.728 116.53C317.131 116.485 319.824 117.051 322.019 121.192V121.215C325.753 129.203 330.573 140.835 330.619 140.948C330.686 141.106 330.664 141.287 330.551 141.4C330.505 141.491 330.37 141.559 330.234 141.559ZM309.324 136.082C316.588 137.87 326.568 139.907 329.487 140.495C328.333 137.757 324.395 128.366 321.227 121.599C319.779 118.861 317.833 117.39 315.774 117.436C314.144 117.481 312.673 118.499 311.927 120.083C310.999 122.052 311.383 124.338 312.968 126.352C313.103 126.51 313.103 126.759 312.968 126.917C312.832 127.076 312.605 127.121 312.402 127.031C310.116 125.854 307.808 125.922 306.043 127.212C304.617 128.253 303.916 129.904 304.187 131.511C304.549 133.57 306.36 135.177 309.324 136.082Z" fill="#333333"/>
<path d="M330.257 141.581C330.166 141.581 330.053 141.559 329.962 141.468L312.334 127.008C312.13 126.85 312.108 126.555 312.266 126.374C312.424 126.171 312.719 126.148 312.9 126.306L330.528 140.767C330.732 140.925 330.754 141.219 330.596 141.4C330.528 141.536 330.392 141.581 330.257 141.581Z" fill="#333333"/>
<path d="M299.911 98.0194C296.878 105.125 305.478 106.754 306.858 100.69L307.016 84.4191C306.994 84.4191 302.694 92.3168 299.911 98.0194Z" fill="white"/>
<path d="M302.694 104.876C301.54 104.876 300.476 104.401 299.752 103.541C299.073 102.749 298.168 100.962 299.503 97.8386V97.816C300.974 94.8063 302.807 91.2987 304.097 88.8547C304.934 87.2933 305.568 86.0939 305.885 85.5056C306.722 83.9441 306.722 83.9441 307.016 83.9441C307.13 83.9441 307.243 83.9894 307.333 84.0799C307.424 84.1704 307.469 84.2836 307.469 84.3967L307.311 100.667C307.311 100.69 307.311 100.735 307.311 100.758C306.835 102.795 305.5 104.288 303.735 104.718C303.373 104.831 303.034 104.876 302.694 104.876ZM300.318 98.2007C299.481 100.192 299.503 101.867 300.431 102.953C301.155 103.79 302.332 104.152 303.509 103.858C304.957 103.496 305.998 102.319 306.405 100.622L306.541 86.2071C305.161 88.7868 302.355 94.0369 300.318 98.2007Z" fill="#333333"/>
<path d="M295.158 117.074C295.022 117.074 294.864 117.006 294.773 116.87C294.637 116.666 294.683 116.372 294.909 116.236L298.484 113.86C300.634 112.412 303.486 112.525 305.545 114.154L307.265 115.512C307.468 115.671 307.491 115.942 307.333 116.146C307.174 116.349 306.903 116.372 306.699 116.214L304.979 114.856C303.214 113.475 300.815 113.385 298.982 114.607L295.407 116.983C295.339 117.051 295.248 117.074 295.158 117.074Z" fill="#333333"/>
<path d="M306.994 113.159C306.858 113.159 306.722 113.091 306.632 112.978C306.473 112.774 306.519 112.502 306.722 112.344L308.103 111.326C309.664 110.149 311.656 109.742 313.557 110.194L316.815 110.941C317.064 110.986 317.222 111.235 317.155 111.484C317.109 111.733 316.86 111.869 316.611 111.823L313.353 111.077C311.701 110.692 309.981 111.054 308.623 112.072L307.243 113.091C307.175 113.136 307.084 113.159 306.994 113.159Z" fill="#333333"/>
<path d="M312.651 127.076C312.56 127.076 312.447 127.053 312.357 126.963L306.835 122.459C306.631 122.301 306.609 122.007 306.767 121.826C306.925 121.622 307.22 121.599 307.401 121.758L312.922 126.261C313.126 126.42 313.149 126.714 312.99 126.895C312.922 127.008 312.786 127.076 312.651 127.076Z" fill="#333333"/>
<path d="M327.134 164.98H287.08C286.831 164.98 286.627 164.777 286.627 164.528C286.627 164.279 286.831 164.075 287.08 164.075H327.134C327.383 164.075 327.586 164.279 327.586 164.528C327.586 164.777 327.383 164.98 327.134 164.98Z" fill="#333333"/>
<path d="M43.6999 226.691L39.2871 221.916L41.188 214.924L45.1708 214.2C46.076 214.132 46.9585 214.019 47.8184 213.883C55.4446 212.57 59.6537 208.565 59.6989 208.52C59.6989 208.52 62.0298 206.415 66.9178 200.848L72.8014 197.273L83.5957 222.391C82.419 223.659 81.3101 224.926 80.4728 225.899C79.3866 227.189 79.0245 227.709 78.9567 228.026C72.1904 233.118 65.6505 237.123 59.5405 239.952L43.6999 226.691Z" fill="white"/>
<path d="M72.6204 197.906L83.0978 222.278C81.989 223.478 81.4232 225.016 80.6312 225.944C79.8165 226.782 78.5946 227.709 78.5946 227.709C71.9867 232.665 65.6052 236.603 59.631 239.386L44.0166 226.352L39.8076 221.78L41.5727 215.286L45.2613 214.629C46.1665 214.562 47.049 214.448 47.9089 214.29C55.4219 213 59.7215 209.108 60.0157 208.836C60.1968 208.678 62.5276 206.528 67.2345 201.188L72.6204 197.906ZM73.0277 196.594L66.6462 200.486C61.7356 206.076 59.4274 208.157 59.4047 208.18C59.3595 208.225 55.2183 212.14 47.7505 213.408C46.9132 213.543 46.0307 213.656 45.1255 213.724L40.8259 214.494L38.7666 222.007L43.3604 227.008L59.4726 240.45L59.4952 240.427C65.7862 237.553 72.4846 233.435 79.4318 228.185L79.4771 228.162L79.4092 228.094C79.2734 227.845 81.7174 225.016 84.0935 222.459L84.1162 222.437L73.0277 196.594Z" fill="#333333"/>
<path d="M59.4045 208.225C59.3366 208.135 53.6566 198.11 58.3862 194.24L58.4541 194.195C58.4541 194.195 58.5446 194.127 58.6577 194.127C59.1103 194.127 60.6491 194.353 62.6405 195.756C64.8809 197.318 66.7138 200.486 66.7365 200.531L66.7591 200.554L66.7365 200.576C61.8032 206.166 59.5177 208.248 59.495 208.271L59.4498 208.316L59.4045 208.225Z" fill="#333333"/>
<path d="M79.3859 228.185C78.9333 227.732 74.9732 223.681 72.7555 218.183C71.5787 215.286 70.6736 212.118 69.8815 209.312C68.8406 205.646 67.9354 202.478 66.6908 200.577C62.8211 193.924 58.3857 194.24 58.3857 194.24C58.6347 194.037 58.9288 193.833 59.223 193.675C63.7037 191.208 102.966 173.263 103.351 173.082L103.418 173.059L99.5715 210.036C94.2988 215.897 86.8084 222.686 79.5217 228.207L79.4991 228.23L79.3859 228.185Z" fill="#FFA8C9"/>
<path d="M99.4808 215.49C99.3903 215.467 89.2749 212.299 86.8309 207.388C86.2199 206.144 86.1294 204.899 86.5594 203.654C86.6046 203.586 87.5098 202.613 89.8633 202.613C91.221 202.613 92.8051 202.953 94.5476 203.632C96.539 204.401 98.4399 205.397 100.205 206.551L100.228 206.574V206.596C100.182 212.842 99.5487 215.422 99.5487 215.444L99.5261 215.49H99.4808Z" fill="#333333"/>
<path d="M32 217.504C32.0453 217.436 33.7198 213.838 42.9301 213.838C43.6542 213.838 44.3783 213.792 45.1251 213.724H45.1704L45.193 213.792C46.2113 218.273 45.6003 222.957 43.4732 227.031L43.4505 227.076L32 217.504Z" fill="#FF5573"/>
<path d="M148.836 148.71L145.419 164.302H181.626C181.626 164.302 169.406 140.767 167.822 139.183C165.514 136.875 148.836 148.71 148.836 148.71Z" fill="#333333"/>
<path d="M171.466 154.865C168.705 154.865 166.487 152.625 166.487 149.887C166.487 147.126 168.728 144.908 171.466 144.908C174.204 144.908 176.444 147.148 176.444 149.887C176.467 152.647 174.227 154.865 171.466 154.865Z" fill="white"/>
<path d="M171.466 145.361C173.978 145.361 175.992 147.397 175.992 149.887C175.992 152.376 173.955 154.412 171.466 154.412C168.977 154.412 166.94 152.376 166.94 149.887C166.94 147.397 168.977 145.361 171.466 145.361ZM171.466 144.456C168.456 144.456 166.035 146.899 166.035 149.887C166.035 152.874 168.479 155.318 171.466 155.318C174.453 155.318 176.897 152.874 176.897 149.887C176.897 146.899 174.475 144.456 171.466 144.456Z" fill="#333333"/>
<path d="M161.644 160.59C158.137 160.59 154.267 157.807 151.552 153.304C147.546 146.696 146.89 139.839 150.013 137.327C151.891 135.811 154.245 135.064 156.96 135.064C160.49 135.064 163.409 136.354 163.432 136.377C166.261 137.712 167.89 139.432 168.682 141.921C169.565 144.727 169.429 148.529 168.23 153.892C167.302 158.146 164.903 160.59 161.644 160.59Z" fill="white"/>
<path d="M156.983 134.611V135.517C160.332 135.517 163.138 136.716 163.274 136.784C167.958 138.979 170.334 142.6 167.822 153.779C166.895 157.875 164.699 160.137 161.667 160.137C158.318 160.137 154.607 157.422 151.959 153.077C150.013 149.864 148.814 146.492 148.587 143.573C148.361 140.857 148.995 138.775 150.33 137.689C152.14 136.241 154.38 135.517 157.005 135.517L156.983 134.611ZM156.983 134.611C154.629 134.611 152.027 135.154 149.741 136.987C146.483 139.59 146.981 146.628 151.167 153.552C154.086 158.372 158.114 161.043 161.645 161.043C164.835 161.043 167.596 158.825 168.705 153.982C171.194 142.916 169.112 138.526 163.659 135.969C163.659 135.947 160.649 134.611 156.983 134.611Z" fill="#333333"/>
<path d="M163.658 135.947C168.773 138.368 170.945 142.373 169.112 152.036C161.282 148.687 160.603 138.051 160.603 138.051C160.603 138.051 155.625 144.387 147.704 143.98C147.388 140.88 148.066 138.345 149.764 136.987C155.579 132.326 163.658 135.947 163.658 135.947Z" fill="#333333"/>
<path d="M155.648 151.81C155.602 151.81 155.58 151.81 155.534 151.787C155.059 151.674 154.607 151.403 154.267 151.018C153.792 150.43 153.52 149.298 153.271 146.877C153.249 146.628 153.43 146.401 153.679 146.379C153.928 146.356 154.154 146.537 154.177 146.786C154.38 148.936 154.629 150.022 154.969 150.43C155.172 150.678 155.444 150.837 155.738 150.905C155.987 150.973 156.123 151.199 156.078 151.448C156.032 151.674 155.851 151.81 155.648 151.81Z" fill="#333333"/>
<path d="M157.662 147.85C157.458 147.85 157.254 147.714 157.209 147.488L157.096 146.945C157.051 146.696 157.209 146.469 157.458 146.401C157.707 146.356 157.933 146.515 158.001 146.763L158.114 147.307C158.16 147.556 158.001 147.782 157.752 147.85C157.73 147.85 157.684 147.85 157.662 147.85Z" fill="#333333"/>
<path d="M151.258 147.85C151.054 147.85 150.873 147.714 150.828 147.51L150.692 146.944C150.624 146.696 150.783 146.447 151.031 146.401C151.28 146.333 151.529 146.492 151.575 146.741L151.71 147.307C151.778 147.555 151.62 147.804 151.371 147.85C151.326 147.85 151.303 147.85 151.258 147.85Z" fill="#333333"/>
<path d="M157.685 154.277C157.436 154.277 157.232 154.073 157.232 153.824C157.232 153.575 157.436 153.371 157.685 153.371C157.775 153.371 157.866 153.371 157.933 153.349C158.68 153.213 159.201 152.466 159.065 151.72C159.02 151.471 159.178 151.244 159.427 151.199C159.676 151.154 159.902 151.312 159.947 151.561C160.174 152.806 159.336 154.005 158.092 154.231C157.956 154.277 157.82 154.277 157.685 154.277Z" fill="#333333"/>
<path d="M172.009 150.498C171.986 150.498 171.986 150.498 171.963 150.498L169.293 150.249C169.044 150.226 168.863 150 168.886 149.751C168.908 149.502 169.135 149.321 169.384 149.343L172.054 149.592C172.303 149.615 172.484 149.841 172.461 150.09C172.439 150.317 172.235 150.498 172.009 150.498Z" fill="#333333"/>
<path d="M94.1177 239.997C93.3936 237.938 92.2168 231.828 92.0132 230.697L93.3483 228.796C95.8602 226.193 98.3721 222.776 99.8883 215.512C99.8883 215.467 100.567 212.027 100.567 206.574C100.567 206.483 100.092 199.332 99.9335 196.933L126.229 212.48L126.139 221.486C124.984 228.23 123.287 234.453 121.115 239.975L94.1177 239.997Z" fill="white"/>
<path d="M100.454 197.77L125.776 212.751L125.686 221.463C124.554 228.049 122.925 234.136 120.798 239.544H94.4343C93.846 237.666 92.9408 233.321 92.4656 230.809L93.6876 229.112C96.2221 226.465 98.8018 222.98 100.318 215.625C100.318 215.58 101.02 212.095 101.02 206.619V206.596V206.573C101.02 206.483 100.635 200.69 100.454 197.77ZM99.4355 196.118V196.209C99.4355 196.322 100.114 206.505 100.114 206.596C100.114 211.982 99.4355 215.399 99.4355 215.444C97.9419 222.618 95.4527 225.967 92.9861 228.524L91.5151 230.606V230.628C91.5378 230.696 92.9861 238.458 93.7781 240.427L93.8007 240.45H121.431L121.454 240.427C123.694 234.815 125.437 228.456 126.614 221.554L126.704 212.253L99.4355 196.118Z" fill="#333333"/>
<path d="M84.7494 240.405C84.7494 240.382 84.5684 237.101 88.3928 233.05C89.23 232.167 90.09 231.353 90.9046 230.561C91.6288 229.859 92.3303 229.203 93.0092 228.501L93.0318 228.456L93.0544 228.501C96.1999 231.828 98.4403 235.924 99.5038 240.382V240.45L84.7494 240.427V240.405Z" fill="#FF5573"/>
<path d="M166.011 240.382C161.169 240.382 155.896 240.043 149.696 236.082C142.092 231.217 135.009 222.097 128.039 208.158C128.017 209.198 127.79 214.539 126.591 221.554V221.599H126.546C126.5 221.599 121.115 221.102 115.072 217.3C111.95 215.331 109.958 213.792 107.854 212.14C105.749 210.511 103.599 208.836 100.205 206.687C90.5647 200.645 86.5366 203.654 86.5366 203.654C88.0754 199.287 93.3255 186.071 102.151 167.221C104.188 162.876 108.94 159.957 113.964 159.957C123.445 159.957 134.036 168.149 141.232 175.028C148.858 182.292 154.403 189.647 154.719 190.054H182.327V190.077C185.744 200.486 187.351 209.515 187.08 216.938C186.853 223.206 185.314 228.366 182.486 232.281C177.077 239.794 168.523 240.382 166.011 240.382Z" fill="#FFA8C9"/>
<path d="M127.994 208.429C127.994 208.429 127.971 208.429 127.994 208.429C127.723 208.429 127.541 208.203 127.541 207.954C127.994 197.703 126.206 186.049 126.184 185.935C126.138 185.687 126.319 185.46 126.568 185.415C126.817 185.37 127.044 185.551 127.089 185.8C127.112 185.913 128.899 197.658 128.447 207.999C128.447 208.248 128.243 208.429 127.994 208.429Z" fill="#333333"/>
<path d="M161.576 201.188C161.418 201.188 161.282 201.12 161.192 200.961C159.019 197.318 156.643 193.652 154.335 190.348C154.199 190.144 154.244 189.85 154.448 189.715C154.652 189.579 154.946 189.624 155.082 189.828C157.413 193.154 159.789 196.843 161.984 200.486C162.119 200.69 162.052 200.984 161.825 201.097C161.735 201.165 161.667 201.188 161.576 201.188Z" fill="#333333"/>
<path d="M84.0933 194.399L84.0028 194.354C82.8713 193.81 77.0102 190.959 72.1223 188.334C71.896 188.198 71.647 188.04 71.4434 187.881L71.3755 187.836L71.4434 187.814C74.521 186.365 78.1643 184.668 82.2829 182.767L82.3282 182.745V182.812C83.2107 187.881 83.9801 193.245 84.1159 194.286L84.1385 194.467L84.0933 194.399Z" fill="#FF5573"/>
<path d="M71.7599 215.512C71.1262 213.634 70.5605 211.733 70.1079 210.104V210.081V210.058C71.4431 207.909 72.6424 205.985 73.706 204.333C74.7696 202.862 76.0368 202.07 77.3041 202.07C78.5261 202.07 79.6123 202.84 80.0875 204.039C80.3138 204.582 80.8569 206.438 79.0466 208.293C79.5444 208.135 80.0196 208.067 80.4722 208.067C82.6673 208.067 83.9798 209.651 84.093 211.167C84.2061 212.638 83.2104 214.381 80.1102 214.856C77.7567 215.105 74.9506 215.331 71.8051 215.557H71.7825L71.7599 215.512Z" fill="#FF5573"/>
<path d="M160.558 219.653C159.449 219.653 158.408 218.997 157.842 217.979C157.186 216.779 157.254 215.331 158.046 213.951C157.299 214.403 156.507 214.652 155.738 214.652C154.086 214.652 152.683 213.566 152.366 212.072C152.026 210.398 153.158 208.836 155.421 207.886C160.648 205.985 166.871 204.039 168.071 203.677L168.252 203.609L168.207 203.79C167.845 204.989 165.989 211.235 164.179 216.508C163.364 218.499 162.051 219.653 160.558 219.653Z" fill="#FF5573"/>
<path d="M120.526 171.407C119.123 171.407 117.992 170.502 117.63 169.122C117.313 167.877 117.652 166.044 119.644 164.845C119.576 164.845 119.485 164.845 119.417 164.845C117.924 164.845 116.679 164.211 115.978 163.102C115.367 162.152 115.276 161.02 115.729 160.07L115.751 160.047H115.774C119.734 160.455 124.147 162.174 128.899 165.161L128.944 165.184L128.899 165.229C126.998 167.04 125.279 168.646 123.785 170.004C122.676 170.932 121.545 171.407 120.526 171.407Z" fill="#FF5573"/>
<path d="M178.866 224.225C176.444 224.225 175.335 222.731 175.313 221.238C175.267 219.54 176.557 217.753 179.092 217.549C176.987 216.621 176.331 214.788 176.603 213.362C176.897 211.869 178.073 210.918 179.59 210.918C180.517 210.918 181.513 211.258 182.577 211.937C183.935 212.887 185.451 214.019 187.125 215.241L187.148 215.263V215.286C187.171 217.594 186.967 219.925 186.582 222.211V222.233H186.56C184.319 222.935 182.283 223.546 180.495 224.044C179.906 224.157 179.363 224.225 178.866 224.225Z" fill="#FF5573"/>
<path d="M137.25 223.682C136.005 221.984 134.738 220.061 133.471 218.002V217.979C133.516 216.101 133.561 214.381 133.629 212.865C133.923 209.787 135.575 208.678 137.024 208.678C138.019 208.678 138.992 209.176 139.626 210.013C140.35 210.964 140.554 212.208 140.237 213.544C141.097 212.593 142.183 212.073 143.315 212.073C144.718 212.073 145.962 212.887 146.392 214.132C146.913 215.58 146.211 217.232 144.491 218.635C142.5 220.106 140.079 221.803 137.34 223.704L137.295 223.727L137.25 223.682Z" fill="#FF5573"/>
<path d="M111.52 214.901C110.185 213.928 109.031 213.068 107.832 212.118L107.243 211.665L107.266 211.643C108.578 208.655 109.778 206.03 110.841 203.813C111.814 202.048 113.104 201.075 114.485 201.075C115.639 201.075 116.702 201.776 117.223 202.885C117.834 204.175 117.63 205.714 116.634 207.026C117.291 206.732 117.924 206.574 118.558 206.574C120.3 206.574 121.817 207.773 122.043 209.38C122.337 211.484 120.436 212.819 118.558 213.362C116.544 213.838 114.213 214.358 111.565 214.901H111.52Z" fill="#FF5573"/>
<path d="M101.54 194.625C100.295 194.625 99.0282 193.833 97.9646 192.362C96.7426 190.507 95.3622 188.311 93.8234 185.822L93.8008 185.8V185.777C94.4344 184.306 95.1133 182.767 95.7922 181.206L95.8148 181.183H95.8374C99.0056 181.387 101.925 181.613 104.301 181.862C107.401 182.337 108.397 184.057 108.284 185.528C108.171 187.022 106.858 188.628 104.663 188.628C104.21 188.628 103.735 188.56 103.237 188.402C105.07 190.235 104.527 192.113 104.301 192.656C103.848 193.856 102.739 194.625 101.54 194.625Z" fill="#FF5573"/>
<path d="M165.039 240.382C163.206 240.382 161.351 240.224 159.518 239.929H159.495V239.907C158.069 237.757 156.825 235.788 155.784 234.114C154.833 232.394 154.698 230.81 155.376 229.656C155.92 228.75 156.893 228.207 158.024 228.207C159.291 228.207 160.875 228.932 161.622 230.968C161.962 228.524 163.727 227.415 165.266 227.415C166.216 227.415 167.099 227.845 167.642 228.569C168.162 229.271 168.66 230.561 168.004 232.779C167.234 234.951 166.284 237.485 165.198 240.337L165.175 240.382H165.039Z" fill="#FF5573"/>
<path d="M86.6951 204.062C86.6499 204.062 86.6046 204.062 86.5367 204.039C86.3104 203.948 86.1747 203.7 86.2652 203.451C87.985 198.608 92.3299 187.995 98.1457 175.141C98.2588 174.915 98.5077 174.802 98.734 174.915C98.9603 175.028 99.0735 175.277 98.9603 175.503C93.1672 188.357 88.8223 198.947 87.1251 203.767C87.0572 203.948 86.8762 204.062 86.6951 204.062Z" fill="#333333"/>
<path d="M184.342 197.34H159.223C158.974 197.34 158.771 197.137 158.771 196.888C158.771 196.639 158.974 196.435 159.223 196.435H184.342C184.591 196.435 184.794 196.639 184.794 196.888C184.794 197.137 184.591 197.34 184.342 197.34Z" fill="#333333"/>
<path d="M117.653 191.819C115.571 190.348 113.353 188.787 111.045 187.452C103.804 183.197 101.292 183.061 98.6216 182.88C97.8748 182.835 97.0827 182.79 96.1776 182.632C95.0008 182.428 94.2767 182.043 94.0051 181.455C93.6204 180.663 94.1862 179.69 94.1862 179.667L94.3446 179.396L94.1635 179.147C92.9415 177.563 94.4125 176.318 94.5709 176.182L94.8877 175.933L94.684 175.594C94.3672 175.051 94.2767 174.553 94.4125 174.123C94.6614 173.308 95.6118 172.856 95.6345 172.856L95.906 172.742V172.448C95.906 170.502 98.7573 169.303 103.374 169.303C106.474 169.303 110.027 169.846 113.67 170.842C116.34 171.588 119.939 172.833 124.397 174.553L133.562 178.988L125.528 196.028L117.653 191.819Z" fill="white"/>
<path d="M103.328 169.755C106.383 169.755 109.89 170.276 113.488 171.294C116.136 172.041 119.734 173.263 124.17 174.983L132.905 179.214L125.324 195.417L117.879 191.434C115.797 189.963 113.579 188.402 111.248 187.067C103.916 182.767 101.336 182.609 98.6435 182.45C97.8967 182.405 97.1273 182.36 96.2448 182.202C95.5433 182.088 94.6607 181.839 94.4118 181.274C94.1402 180.708 94.5702 179.916 94.5702 179.916L94.887 179.395L94.5249 178.898C94.1176 178.355 94.0271 177.857 94.276 177.336C94.4797 176.884 94.8644 176.567 94.8644 176.567L95.498 176.069L95.0907 175.39C94.8418 174.96 94.7512 174.598 94.8644 174.281C95.0228 173.761 95.6112 173.376 95.8375 173.286L96.3579 173.037V172.448C96.3127 170.819 99.0735 169.755 103.328 169.755ZM103.328 168.85C98.6209 168.85 95.4075 170.095 95.4075 172.448C95.4075 172.448 92.9183 173.58 94.276 175.843C94.276 175.843 92.2394 177.427 93.7782 179.441C93.7782 179.441 92.0131 182.405 96.0864 183.084C100.16 183.763 101.517 182.405 110.796 187.836C113.059 189.171 115.231 190.665 117.403 192.204L125.731 196.662L134.104 178.784L124.532 174.145C120.617 172.629 116.747 171.271 113.737 170.412C109.958 169.348 106.338 168.85 103.328 168.85Z" fill="#333333"/>
<path d="M141.097 202.591C140.78 202.591 140.441 202.591 140.124 202.568C131.185 202.047 124.577 197.363 118.218 192.837L117.358 192.226L124.532 174.077L124.577 174.1C132.928 177.313 141.595 181.16 142.251 181.455C142.5 180.911 145.328 175.118 149.696 167.469C154.448 159.164 157.888 156.358 163.319 156.358C166.012 156.358 169.203 156.969 175.788 164.301C182.712 172.018 186.854 178.535 187.125 182.201C187.352 185.483 186.039 187.474 184.908 188.583C183.663 189.76 182.35 190.167 182.35 190.167H160.422C160.015 190.733 152.525 202.591 141.097 202.591Z" fill="#FF5573"/>
<path d="M160.355 190.552C160.264 190.552 160.196 190.529 160.128 190.484C159.925 190.348 159.857 190.077 159.97 189.85C161.667 187.112 164.224 182.948 167.415 175.209C167.506 174.983 167.777 174.87 168.004 174.96C168.23 175.051 168.343 175.322 168.252 175.548C165.039 183.356 162.459 187.542 160.762 190.326C160.649 190.484 160.513 190.552 160.355 190.552Z" fill="#333333"/>
<path d="M109.913 173.58C109.868 173.58 109.845 173.58 109.8 173.557C109.732 173.534 101.97 171.566 95.8151 173.331C95.5662 173.399 95.3172 173.263 95.2494 173.014C95.1815 172.765 95.3172 172.516 95.5662 172.448C101.948 170.615 109.687 172.584 110.026 172.674C110.275 172.742 110.411 172.991 110.343 173.218C110.298 173.444 110.117 173.58 109.913 173.58Z" fill="#333333"/>
<path d="M108.827 176.974C108.782 176.974 108.759 176.974 108.714 176.952C108.646 176.929 101.925 175.187 94.8876 176.499C94.6386 176.544 94.4123 176.386 94.3671 176.137C94.3218 175.888 94.4802 175.662 94.7292 175.616C101.993 174.259 108.669 176.001 108.963 176.069C109.212 176.137 109.348 176.386 109.28 176.612C109.212 176.838 109.031 176.974 108.827 176.974Z" fill="#333333"/>
<path d="M107.696 180.369C107.673 180.369 107.651 180.369 107.628 180.369C100.568 179.192 96.8565 179.509 94.4352 179.916C94.1863 179.961 93.96 179.78 93.9147 179.554C93.8694 179.305 94.0505 179.079 94.2768 179.033C96.7886 178.626 100.59 178.287 107.787 179.486C108.036 179.531 108.194 179.758 108.149 180.007C108.103 180.21 107.922 180.369 107.696 180.369Z" fill="#333333"/>
<path d="M79.5672 105.329C79.4541 105.329 79.3409 105.284 79.2504 105.193L71.2169 96.8883L63.1835 105.193C63.0024 105.374 62.7309 105.374 62.5498 105.193C62.3688 105.012 62.3688 104.741 62.5498 104.56L70.9001 95.9152C71.0812 95.7342 71.3754 95.7342 71.5564 95.9152L79.9067 104.56C80.0877 104.741 80.0651 105.035 79.9067 105.193C79.7935 105.284 79.6804 105.329 79.5672 105.329Z" fill="#333333"/>
<path d="M90.6783 104.265H51.7329V147.556H90.6783V104.265Z" fill="white"/>
<path d="M90.6783 148.008H51.7329C51.4839 148.008 51.2803 147.805 51.2803 147.556V104.265C51.2803 104.016 51.4839 103.813 51.7329 103.813H90.6783C90.9272 103.813 91.1309 104.016 91.1309 104.265V147.556C91.1309 147.805 90.9272 148.008 90.6783 148.008ZM52.1855 147.103H90.2257V104.718H52.1855V147.103Z" fill="#333333"/>
<path d="M81.6035 113.815C81.4903 113.815 81.3772 113.77 81.2867 113.679C81.1056 113.498 81.1056 113.227 81.2867 113.046L89.7275 104.605C89.9085 104.424 90.1801 104.424 90.3611 104.605C90.5421 104.786 90.5421 105.058 90.3611 105.239L81.9203 113.679C81.8298 113.77 81.7166 113.815 81.6035 113.815Z" fill="#333333"/>
<path d="M60.8304 113.815C60.7173 113.815 60.6041 113.77 60.5136 113.679L52.0728 105.239C51.8918 105.058 51.8918 104.786 52.0728 104.605C52.2538 104.424 52.5254 104.424 52.7064 104.605L61.1472 113.046C61.3283 113.227 61.3283 113.498 61.1472 113.679C61.0567 113.77 60.9436 113.815 60.8304 113.815Z" fill="#333333"/>
<path d="M71.217 99.7396C72.7543 99.7396 74.0005 98.4934 74.0005 96.9562C74.0005 95.4189 72.7543 94.1727 71.217 94.1727C69.6798 94.1727 68.4336 95.4189 68.4336 96.9562C68.4336 98.4934 69.6798 99.7396 71.217 99.7396Z" fill="white"/>
<path d="M71.217 100.192C69.4292 100.192 67.981 98.7439 67.981 96.9562C67.981 95.1684 69.4292 93.7202 71.217 93.7202C73.0047 93.7202 74.453 95.1684 74.453 96.9562C74.453 98.7439 73.0047 100.192 71.217 100.192ZM71.217 94.6253C69.9271 94.6253 68.8861 95.6663 68.8861 96.9562C68.8861 98.2461 69.9271 99.287 71.217 99.287C72.5069 99.287 73.5478 98.2461 73.5478 96.9562C73.5478 95.6663 72.5069 94.6253 71.217 94.6253Z" fill="#333333"/>
<path d="M52.3896 147.352C52.2765 147.352 52.1633 147.307 52.0728 147.216C51.8918 147.035 51.8918 146.764 52.0728 146.583L60.5136 138.142C60.6946 137.961 60.9662 137.961 61.1472 138.142C61.3283 138.323 61.3283 138.595 61.1472 138.776L52.7064 147.216C52.6159 147.307 52.5028 147.352 52.3896 147.352Z" fill="#333333"/>
<path d="M90.0443 147.352C89.9311 147.352 89.818 147.307 89.7275 147.216L81.2867 138.776C81.1056 138.595 81.1056 138.323 81.2867 138.142C81.4677 137.961 81.7392 137.961 81.9203 138.142L90.3611 146.583C90.5421 146.764 90.5421 147.035 90.3611 147.216C90.2706 147.307 90.1574 147.352 90.0443 147.352Z" fill="#333333"/>
<path d="M81.5817 113.385H60.853V138.459H81.5817V113.385Z" fill="white"/>
<path d="M81.129 113.838V138.006H61.3056V113.838H81.129ZM82.0342 112.933H60.4004V138.911H82.0342V112.933Z" fill="#333333"/>
<path d="M315.842 194.24C315.593 194.036 315.299 193.833 315.005 193.674C310.524 191.208 271.284 173.263 270.877 173.082L270.809 173.059L274.656 210.036C279.906 215.897 287.419 222.708 294.706 228.207L294.796 228.23L294.842 228.184C295.272 227.754 299.232 223.681 301.472 218.182C302.649 215.263 303.554 212.095 304.346 209.311C305.387 205.645 306.292 202.477 307.537 200.576C310.547 195.621 314.054 194.24 315.842 194.24Z" fill="#B666D2"/>
<path d="M273.955 206.596L273.978 206.551C275.743 205.374 277.666 204.401 279.635 203.631C281.378 202.952 282.962 202.613 284.319 202.613C286.65 202.613 287.578 203.586 287.601 203.631C288.053 204.876 287.963 206.143 287.329 207.388C284.863 212.276 274.77 215.444 274.679 215.489L274.634 215.512C274.634 215.512 274 212.819 273.955 206.596Z" fill="#333333"/>
<path d="M314.711 208.225C314.688 208.203 312.38 206.121 307.469 200.531L307.447 200.509L307.469 200.486C307.492 200.463 309.325 197.544 311.316 195.96C313.376 194.308 315.344 194.24 315.729 194.24C315.774 194.24 315.797 194.24 315.797 194.24H315.842C320.572 198.11 314.847 208.135 314.801 208.225L314.779 208.271L314.711 208.225Z" fill="#333333"/>
<path d="M237.974 166.338H249.289L252.231 144.387H235.032L237.974 166.338Z" fill="#B666D2"/>
<path d="M243.631 150.95C248.381 150.95 252.231 147.91 252.231 144.161C252.231 140.412 248.381 137.372 243.631 137.372C238.882 137.372 235.032 140.412 235.032 144.161C235.032 147.91 238.882 150.95 243.631 150.95Z" fill="#DBB3E8"/>
<path d="M243.631 144.387C243.382 144.387 243.179 144.184 243.179 143.935V131.941C243.179 131.692 243.382 131.488 243.631 131.488C243.88 131.488 244.084 131.692 244.084 131.941V143.935C244.084 144.184 243.88 144.387 243.631 144.387Z" fill="#333333"/>
<path d="M249.266 166.655C248.723 166.655 248.293 166.451 248.089 166.044C247.863 165.614 247.953 165.048 248.316 164.55L248.587 164.188L248.202 163.917C248.202 163.917 247.433 163.374 247.433 162.649C247.433 162.197 247.75 161.722 248.361 161.246L249.017 160.771L248.27 160.477C248.27 160.477 247.433 160.138 247.32 159.459C247.207 158.893 247.614 158.169 248.474 157.377L248.859 157.015L248.451 156.675C248.451 156.675 247.614 155.996 247.614 155.136C247.614 154.661 247.886 154.186 248.451 153.756C248.949 153.349 250.76 152.308 251.416 151.946L251.597 151.833L251.868 150.362C252.547 150.701 252.977 151.244 253.158 151.968C253.43 153.077 253 154.277 252.615 154.684L252.185 155.114L252.706 155.408C252.728 155.408 253.226 155.725 253.385 156.381C253.566 157.06 253.339 157.875 252.751 158.848L252.525 159.21L252.864 159.459C252.864 159.459 253.385 159.866 253.475 160.568C253.543 161.133 253.317 161.767 252.774 162.423L252.547 162.695L252.774 162.966C252.796 162.989 253.181 163.509 253 164.211C252.796 165.003 251.914 165.727 250.465 166.338C250.035 166.564 249.628 166.655 249.266 166.655Z" fill="white"/>
<path d="M252.185 151.176C252.434 151.425 252.615 151.742 252.706 152.104C252.932 153.077 252.547 154.096 252.276 154.39L251.439 155.227L252.48 155.815C252.48 155.815 252.819 156.042 252.955 156.494C253.091 157.037 252.91 157.784 252.389 158.621L251.914 159.323L252.615 159.798C252.661 159.821 252.91 160.047 253 160.409C253.158 160.907 252.977 161.495 252.457 162.129L251.959 162.695L252.457 163.26C252.502 163.328 252.729 163.668 252.615 164.12C252.434 164.754 251.642 165.388 250.33 165.931C249.945 166.089 249.583 166.18 249.289 166.18C249.063 166.18 248.678 166.134 248.519 165.818C248.384 165.546 248.452 165.161 248.7 164.799L249.244 164.053L248.497 163.532C248.338 163.419 247.908 163.034 247.908 162.627C247.908 162.242 248.316 161.857 248.655 161.586L249.945 160.613L248.429 160.024C248.338 159.979 247.818 159.708 247.75 159.346C247.682 158.961 248.044 158.35 248.768 157.671L249.538 156.969L248.723 156.313C248.542 156.155 248.044 155.634 248.044 155.136C248.044 154.797 248.271 154.458 248.7 154.096C249.13 153.756 250.714 152.828 251.597 152.33L251.982 152.127L252.05 151.697L252.185 151.176ZM251.507 149.773L251.19 151.584C251.19 151.584 248.791 152.919 248.157 153.439C245.894 155.25 248.157 157.06 248.157 157.06C245.216 159.776 248.089 160.907 248.089 160.907C245.668 162.717 247.931 164.301 247.931 164.301C247.026 165.569 247.637 167.107 249.244 167.107C249.651 167.107 250.126 167.017 250.647 166.791C254.946 164.98 253.136 162.717 253.136 162.717C254.946 160.454 253.136 159.097 253.136 159.097C254.946 156.155 252.91 155.023 252.91 155.023C253.815 154.118 254.494 150.724 251.507 149.773Z" fill="#333333"/>
<path d="M248.859 157.513C248.678 157.513 248.496 157.399 248.429 157.196C248.361 156.969 248.474 156.698 248.723 156.63C248.745 156.63 250.918 155.906 252.049 154.639C252.208 154.458 252.502 154.435 252.683 154.616C252.864 154.774 252.887 155.069 252.706 155.25C251.393 156.675 249.085 157.445 248.972 157.467C248.949 157.513 248.904 157.513 248.859 157.513Z" fill="#333333"/>
<path d="M248.609 161.36C248.406 161.36 248.225 161.224 248.18 161.02C248.112 160.771 248.247 160.522 248.496 160.454C249.334 160.205 251.664 159.413 252.343 158.576C252.502 158.372 252.796 158.35 252.977 158.508C253.181 158.667 253.203 158.938 253.045 159.142C252.072 160.341 249.085 161.224 248.745 161.337C248.7 161.36 248.655 161.36 248.609 161.36Z" fill="#333333"/>
<path d="M248.609 164.822C248.406 164.822 248.225 164.686 248.18 164.482C248.112 164.233 248.247 163.985 248.496 163.917C248.519 163.917 251.144 163.193 252.389 162.129C252.57 161.971 252.864 161.993 253.022 162.197C253.181 162.4 253.158 162.672 252.954 162.83C251.529 164.007 248.836 164.777 248.7 164.799C248.7 164.822 248.655 164.822 248.609 164.822Z" fill="#333333"/>
<path d="M302.944 233.978C300.228 232.235 297.467 230.289 294.706 228.23L294.661 228.207L294.729 228.139C295.182 227.687 299.119 223.636 301.337 218.16C302.514 215.263 303.419 212.095 304.211 209.311C305.274 205.623 306.18 202.409 307.447 200.509L307.469 200.463L307.515 200.509C312.425 206.098 314.733 208.18 314.756 208.203C314.824 208.27 320.753 213.837 331.253 213.837C336.051 213.837 338.766 214.833 340.192 215.648C341.753 216.553 342.138 217.435 342.16 217.481L342.183 217.503L324.442 232.326L324.419 232.303C321.658 230.085 318.173 228.863 314.62 228.863H314.575C310.185 228.863 305.953 230.719 303.011 233.978L302.989 234L302.944 233.978Z" fill="#DBB3E8"/>
<path d="M314.643 240.45C310.615 238.571 306.677 236.399 302.943 233.978L302.898 233.955L302.943 233.91C305.93 230.628 310.185 228.75 314.597 228.75C318.173 228.75 321.68 229.972 324.464 232.213L324.509 232.258L314.688 240.472L314.643 240.45Z" fill="#B666D2"/>
<path d="M265.695 240.45C263.839 233.616 257.616 228.864 250.556 228.841C250.103 228.841 249.628 228.864 249.13 228.909H249.108L249.085 228.864C248.497 226.487 247.999 224.021 247.569 221.554V221.532L247.591 221.509C251.982 219.02 273.819 206.551 274 206.551H274.045V206.596C274.045 211.982 274.724 215.399 274.724 215.444C276.218 222.618 278.707 225.967 281.174 228.524C281.853 229.248 282.554 229.904 283.301 230.583C284.115 231.353 284.975 232.167 285.813 233.073C289.637 237.123 289.456 240.382 289.456 240.427V240.472H265.695V240.45Z" fill="#DBB3E8"/>
<path d="M252.728 240.45C251.258 236.67 250.013 232.801 249.085 228.886L249.062 228.841H249.108C249.606 228.795 250.081 228.773 250.556 228.773C257.662 228.773 263.907 233.57 265.786 240.404L265.808 240.472H252.728V240.45Z" fill="#B666D2"/>
<path d="M220.323 200.509C215.661 200.509 211.792 197.68 208.533 191.842C205.365 186.184 203.238 178.445 201.744 172.335C201.337 170.638 201.427 169.371 202.061 168.579C202.649 167.832 203.758 167.447 205.342 167.447C211.022 167.447 220.708 172.335 220.798 172.403L221.183 172.584L221.409 172.222C224.464 167.108 228.741 161.247 232.837 156.494C237.567 151.041 240.259 149.095 241.142 149.095C241.187 149.095 241.21 149.095 241.233 149.117C241.481 149.208 241.64 149.366 241.73 149.592C241.979 150.294 241.64 151.674 240.78 153.462C240.101 154.91 239.309 156.11 239.309 156.132L239.218 156.291L239.241 156.472C239.241 156.517 239.965 161.066 237.408 164.256L237.295 164.415L237.589 166.813H246.845C245.08 171.385 233.493 200.509 220.323 200.509Z" fill="white"/>
<path d="M241.12 149.547C241.21 149.592 241.255 149.638 241.301 149.728C241.685 150.814 240.101 154.028 238.924 155.861L238.743 156.155L238.789 156.494C238.789 156.54 239.468 160.907 237.046 163.917L236.797 164.211L236.843 164.596L237.069 166.406L237.159 167.198H237.951H246.143C245.102 169.868 242.387 176.567 238.585 183.174C234.195 190.846 227.451 200.011 220.278 200.011C215.774 200.011 212.063 197.25 208.895 191.57C205.75 185.958 203.645 178.264 202.152 172.177C201.767 170.615 201.835 169.484 202.378 168.805C202.876 168.171 203.871 167.854 205.297 167.854C210.864 167.854 220.459 172.697 220.549 172.742L221.296 173.127L221.726 172.403C224.781 167.311 229.035 161.45 233.109 156.743C237.725 151.538 240.418 149.592 241.12 149.547ZM241.142 148.642C238.336 148.642 227.587 160.998 221.002 171.996C221.002 171.996 211.203 166.994 205.342 166.994C202.287 166.994 200.319 168.352 201.314 172.448C204.822 186.727 209.687 200.961 220.323 200.961C235.032 200.961 247.478 166.338 247.478 166.338H237.974L237.748 164.528C240.463 161.133 239.671 156.381 239.671 156.381C239.671 156.381 244.084 149.592 241.368 148.687C241.301 148.664 241.233 148.642 241.142 148.642Z" fill="#333333"/>
<path d="M202.695 154.865C199.934 154.865 197.716 152.624 197.716 149.886C197.716 147.125 199.957 144.908 202.695 144.908C205.456 144.908 207.673 147.148 207.673 149.886C207.673 152.647 205.433 154.865 202.695 154.865Z" fill="white"/>
<path d="M202.695 145.36C205.207 145.36 207.221 147.397 207.221 149.886C207.221 152.375 205.184 154.412 202.695 154.412C200.206 154.412 198.169 152.375 198.169 149.886C198.169 147.397 200.183 145.36 202.695 145.36ZM202.695 144.455C199.685 144.455 197.264 146.899 197.264 149.886C197.264 152.873 199.708 155.317 202.695 155.317C205.682 155.317 208.126 152.873 208.126 149.886C208.126 146.899 205.704 144.455 202.695 144.455Z" fill="#333333"/>
<path d="M212.516 160.59C209.28 160.59 206.858 158.146 205.908 153.869C203.328 142.396 205.84 138.662 210.706 136.354C210.728 136.354 213.647 135.042 217.178 135.042C219.916 135.042 222.247 135.811 224.125 137.305C227.248 139.794 226.591 146.673 222.586 153.281C219.87 157.784 216.001 160.59 212.516 160.59Z" fill="white"/>
<path d="M217.178 135.517C219.803 135.517 222.043 136.241 223.853 137.689C225.211 138.775 225.822 140.857 225.596 143.573C225.347 146.492 224.148 149.864 222.224 153.077C219.599 157.445 215.865 160.137 212.516 160.137C209.461 160.137 207.266 157.875 206.361 153.779C203.849 142.6 206.225 138.979 210.909 136.784C211.023 136.716 213.806 135.517 217.178 135.517ZM217.178 134.611C213.512 134.611 210.525 135.969 210.525 135.969C205.071 138.526 202.989 142.916 205.478 153.982C206.565 158.825 209.325 161.043 212.539 161.043C216.069 161.043 220.097 158.35 223.016 153.552C227.203 146.628 227.7 139.612 224.442 136.987C222.134 135.154 219.509 134.611 217.178 134.611Z" fill="#333333"/>
<path d="M218.513 151.81C218.309 151.81 218.128 151.674 218.083 151.47C218.015 151.222 218.173 150.973 218.422 150.927C218.716 150.859 218.988 150.678 219.192 150.429C219.531 150.022 219.757 148.936 219.961 146.786C219.984 146.537 220.21 146.356 220.459 146.379C220.708 146.401 220.889 146.628 220.866 146.877C220.617 149.321 220.368 150.429 219.893 151.018C219.554 151.425 219.101 151.697 218.626 151.81C218.581 151.81 218.558 151.81 218.513 151.81Z" fill="#333333"/>
<path d="M216.498 147.849C216.476 147.849 216.431 147.849 216.408 147.849C216.159 147.804 216.001 147.555 216.069 147.306L216.182 146.763C216.227 146.514 216.476 146.356 216.725 146.401C216.974 146.446 217.132 146.695 217.064 146.944L216.951 147.487C216.906 147.714 216.702 147.849 216.498 147.849Z" fill="#333333"/>
<path d="M222.903 147.85C222.857 147.85 222.835 147.85 222.789 147.827C222.541 147.759 222.405 147.533 222.45 147.284L222.586 146.718C222.654 146.469 222.88 146.334 223.129 146.379C223.378 146.447 223.514 146.673 223.468 146.922L223.333 147.488C223.287 147.714 223.106 147.85 222.903 147.85Z" fill="#333333"/>
<path d="M216.476 154.277C216.34 154.277 216.204 154.277 216.046 154.254C214.801 154.028 213.964 152.828 214.19 151.584C214.236 151.335 214.462 151.176 214.711 151.222C214.96 151.267 215.118 151.493 215.073 151.742C215.005 152.104 215.095 152.466 215.299 152.783C215.525 153.1 215.842 153.304 216.204 153.371C216.272 153.394 216.363 153.394 216.453 153.394C216.702 153.394 216.906 153.598 216.906 153.847C216.906 154.096 216.725 154.277 216.476 154.277Z" fill="#333333"/>
<path d="M202.152 150.498C201.925 150.498 201.722 150.316 201.699 150.09C201.677 149.841 201.858 149.615 202.107 149.592L204.777 149.343C205.026 149.321 205.252 149.502 205.275 149.751C205.297 150 205.116 150.226 204.867 150.249L202.197 150.498C202.174 150.498 202.174 150.498 202.152 150.498Z" fill="#333333"/>
<path d="M232.09 135.336C230.28 132.53 224.487 132.213 221.658 135.403C216.34 133.344 210.501 135.947 210.501 135.947C205.387 138.368 203.215 142.373 205.048 152.036C212.878 148.687 213.556 138.051 213.556 138.051C213.556 138.051 218.309 144.093 225.912 143.98C225.935 143.98 225.957 143.98 225.957 143.98C226.116 143.98 226.274 143.98 226.433 143.957V143.935C231.818 143.414 234.511 139.069 232.09 135.336Z" fill="#333333"/>
<path d="M208.148 240.382C205.659 240.382 197.082 239.794 191.651 232.281C188.822 228.388 187.284 223.229 187.057 216.938C186.786 209.515 188.392 200.486 191.81 190.077V190.054H219.418C219.734 189.647 225.279 182.269 232.905 175.028C240.101 168.149 250.691 159.957 260.173 159.957C265.197 159.957 269.949 162.876 271.986 167.221C280.811 186.071 286.061 199.309 287.6 203.654C287.6 203.654 283.233 200.645 273.932 206.687C270.56 208.836 268.388 210.534 266.283 212.14C264.156 213.792 262.165 215.331 259.064 217.3C253.022 221.102 247.637 221.599 247.591 221.599H247.546V221.554C246.347 214.539 246.143 209.198 246.098 208.158C239.128 222.075 232.022 231.217 224.441 236.082C218.241 240.043 212.991 240.382 208.148 240.382Z" fill="#B666D2"/>
<path d="M246.211 208.429C245.962 208.429 245.781 208.248 245.758 207.999C245.305 197.657 247.093 185.913 247.116 185.799C247.161 185.55 247.387 185.392 247.636 185.415C247.885 185.46 248.044 185.686 248.021 185.935C247.998 186.048 246.233 197.703 246.663 207.954C246.663 208.203 246.482 208.429 246.211 208.429C246.233 208.429 246.211 208.429 246.211 208.429Z" fill="#333333"/>
<path d="M212.628 201.188C212.561 201.188 212.47 201.165 212.402 201.12C212.199 200.984 212.108 200.712 212.244 200.509C214.416 196.865 216.815 193.177 219.146 189.85C219.282 189.647 219.576 189.601 219.779 189.737C219.983 189.873 220.028 190.167 219.893 190.371C217.584 193.675 215.208 197.341 213.036 200.984C212.923 201.12 212.787 201.188 212.628 201.188Z" fill="#333333"/>
<path d="M287.51 204.061C287.329 204.061 287.148 203.948 287.08 203.767C285.36 198.947 281.038 188.357 275.245 175.548C275.131 175.322 275.245 175.05 275.471 174.96C275.697 174.847 275.969 174.96 276.059 175.186C281.875 188.04 286.22 198.653 287.94 203.496C288.03 203.722 287.894 203.994 287.668 204.084C287.6 204.061 287.555 204.061 287.51 204.061Z" fill="#333333"/>
<path d="M214.892 197.34H189.773C189.524 197.34 189.32 197.137 189.32 196.888C189.32 196.639 189.524 196.435 189.773 196.435H214.892C215.141 196.435 215.344 196.639 215.344 196.888C215.344 197.137 215.141 197.34 214.892 197.34Z" fill="#333333"/>
<path d="M211.859 222.527C211.543 222.527 211.248 222.505 210.954 222.437C204.618 221.237 205.817 208.859 206.7 199.83C206.813 198.766 206.903 197.77 206.971 196.865C206.994 196.616 207.198 196.435 207.469 196.458C207.718 196.481 207.899 196.707 207.877 196.956C207.809 197.861 207.696 198.879 207.605 199.943C206.813 208.135 205.614 220.536 211.135 221.577C211.384 221.622 211.633 221.645 211.882 221.645C218.512 221.645 228.107 206.347 234.534 196.096C235.982 193.788 237.34 191.615 238.517 189.873C243.45 182.473 249.786 174.055 255.014 174.643C257.254 174.892 259.042 176.77 260.354 180.233C262.142 184.94 269.565 209.425 269.633 209.674C269.7 209.923 269.565 210.171 269.338 210.239C269.089 210.307 268.84 210.171 268.773 209.945C268.705 209.696 261.282 185.234 259.494 180.549C258.318 177.449 256.756 175.752 254.901 175.548C250.103 175.005 243.676 183.74 239.264 190.371C238.11 192.113 236.752 194.286 235.304 196.571C228.379 207.592 219.01 222.527 211.859 222.527Z" fill="#333333"/>
<path d="M304.052 210.239C303.962 210.239 303.871 210.217 303.781 210.149L284.546 196.571C284.342 196.435 284.297 196.141 284.433 195.937C284.568 195.734 284.863 195.688 285.066 195.824L304.301 209.402C304.505 209.538 304.55 209.832 304.414 210.036C304.324 210.171 304.188 210.239 304.052 210.239Z" fill="#333333"/>
<path d="M233.064 202.093C227.135 202.093 222.315 198.766 219.328 195.983C216.069 192.95 214.191 189.895 214.191 189.873C212.584 187.384 211.226 184.759 210.117 182.02L207.809 176.34L224.283 169.846L227.18 173.353C229.873 178.354 231.48 181.681 231.502 181.726L231.683 182.134L232.091 181.953C232.272 181.862 250.964 173.557 260.536 170.887C264.157 169.868 267.732 169.348 270.832 169.348C275.449 169.348 278.3 170.547 278.3 172.493V172.788L278.572 172.901C278.572 172.901 279.522 173.353 279.771 174.168C279.907 174.621 279.816 175.118 279.499 175.639L279.296 175.978L279.613 176.227C279.794 176.363 281.242 177.585 280.02 179.192L279.839 179.441L279.997 179.712C279.997 179.712 280.563 180.685 280.178 181.5C279.907 182.088 279.16 182.496 278.006 182.677C277.101 182.835 276.309 182.88 275.562 182.926C272.914 183.084 270.402 183.242 263.138 187.497C260.558 188.99 258.092 190.755 255.671 192.475C249.357 196.956 242.817 201.595 234.014 202.115C233.697 202.07 233.38 202.093 233.064 202.093Z" fill="white"/>
<path d="M270.832 169.755C275.086 169.755 277.847 170.819 277.847 172.448V173.036L278.367 173.285C278.594 173.398 279.182 173.761 279.34 174.281C279.431 174.598 279.363 174.96 279.114 175.39L278.707 176.069L279.34 176.567C279.34 176.567 279.725 176.883 279.929 177.336C280.178 177.856 280.087 178.354 279.68 178.897L279.295 179.373L279.612 179.893C279.612 179.893 280.042 180.685 279.77 181.251C279.499 181.817 278.616 182.066 277.937 182.179C277.055 182.337 276.286 182.382 275.539 182.428C272.823 182.586 270.266 182.744 262.934 187.044C260.354 188.56 257.842 190.325 255.444 192.045C249.175 196.503 242.703 201.097 234.036 201.595C233.742 201.617 233.425 201.617 233.108 201.617C227.338 201.617 222.654 198.381 219.712 195.666C216.476 192.679 214.62 189.646 214.62 189.601V189.579V189.556C213.036 187.112 211.678 184.487 210.592 181.794L208.442 176.521L224.17 170.298L226.84 173.512C229.51 178.467 231.117 181.794 231.117 181.817L231.502 182.609L232.316 182.247C232.497 182.156 251.144 173.874 260.694 171.203C264.247 170.276 267.754 169.755 270.832 169.755ZM270.832 168.85C267.822 168.85 264.201 169.348 260.422 170.411C250.692 173.127 231.909 181.5 231.909 181.5C231.909 181.5 230.302 178.151 227.564 173.082L224.419 169.28L207.22 176.069L209.709 182.179C210.818 184.94 212.199 187.587 213.805 190.099C213.805 190.099 221.318 202.545 233.086 202.545C233.403 202.545 233.719 202.545 234.059 202.523C246.369 201.799 254.109 193.29 263.387 187.859C272.665 182.428 274.023 183.785 278.096 183.107C282.169 182.428 280.404 179.463 280.404 179.463C281.943 177.449 279.906 175.865 279.906 175.865C281.264 173.602 278.775 172.471 278.775 172.471C278.752 170.095 275.539 168.85 270.832 168.85Z" fill="#333333"/>
<path d="M191.855 190.144C191.787 190.122 186.605 188.47 187.057 182.179C187.329 178.513 191.447 171.973 198.395 164.279C204.98 156.947 208.171 156.336 210.864 156.336C216.295 156.336 219.734 159.142 224.487 167.447C225.55 169.302 226.591 171.181 227.609 173.059L227.632 173.104L209.777 182.201C210.886 184.939 212.221 187.587 213.828 190.076L213.873 190.144H191.855Z" fill="#DBB3E8"/>
<path d="M264.269 173.579C264.065 173.579 263.884 173.444 263.839 173.24C263.771 172.991 263.93 172.742 264.156 172.697C264.473 172.606 272.212 170.66 278.616 172.47C278.865 172.538 279.001 172.787 278.933 173.036C278.865 173.285 278.616 173.421 278.367 173.353C272.212 171.588 264.473 173.557 264.382 173.579C264.337 173.579 264.314 173.579 264.269 173.579Z" fill="#333333"/>
<path d="M265.355 176.974C265.152 176.974 264.971 176.838 264.926 176.635C264.858 176.386 265.016 176.137 265.242 176.091C265.514 176.024 272.212 174.281 279.476 175.639C279.725 175.684 279.884 175.91 279.838 176.159C279.793 176.408 279.544 176.567 279.318 176.521C272.257 175.209 265.559 176.951 265.491 176.974C265.423 176.974 265.401 176.974 265.355 176.974Z" fill="#333333"/>
<path d="M266.487 180.368C266.261 180.368 266.08 180.21 266.034 179.984C265.989 179.735 266.17 179.508 266.396 179.463C273.593 178.264 277.394 178.603 279.906 179.011C280.155 179.056 280.314 179.282 280.268 179.531C280.223 179.78 279.997 179.938 279.748 179.893C277.304 179.486 273.593 179.169 266.555 180.346C266.532 180.368 266.51 180.368 266.487 180.368Z" fill="#333333"/>
<path d="M257.141 192.385C256.96 192.385 256.801 192.271 256.734 192.113L249.311 174.281C249.221 174.055 249.334 173.783 249.56 173.693C249.786 173.602 250.058 173.715 250.148 173.941L257.571 191.774C257.661 192 257.548 192.271 257.322 192.362C257.254 192.385 257.209 192.385 257.141 192.385Z" fill="#333333"/>
<path d="M210.365 182.88C210.184 182.88 210.026 182.79 209.958 182.609C208.985 180.436 207.673 177.313 207.016 175.548C206.926 175.322 207.039 175.05 207.288 174.96C207.514 174.869 207.786 174.982 207.876 175.231C208.533 176.974 209.845 180.074 210.818 182.246C210.909 182.473 210.818 182.744 210.592 182.835C210.479 182.857 210.433 182.88 210.365 182.88Z" fill="#333333"/>
<path d="M253.362 187.61C255.987 187.61 258.114 185.482 258.114 182.858C258.114 180.233 255.987 178.105 253.362 178.105C250.737 178.105 248.61 180.233 248.61 182.858C248.61 185.482 250.737 187.61 253.362 187.61Z" fill="white"/>
<path d="M253.362 188.062C250.488 188.062 248.157 185.731 248.157 182.857C248.157 179.983 250.488 177.653 253.362 177.653C256.236 177.653 258.567 179.983 258.567 182.857C258.567 185.731 256.236 188.062 253.362 188.062ZM253.362 178.558C250.986 178.558 249.062 180.481 249.062 182.857C249.062 185.234 250.986 187.157 253.362 187.157C255.738 187.157 257.662 185.234 257.662 182.857C257.662 180.481 255.738 178.558 253.362 178.558Z" fill="#333333"/>
<path d="M177.305 212.729C177.101 212.729 176.875 212.706 176.671 212.683C175.721 212.525 174.883 211.982 174.34 211.19C173.797 210.398 173.571 209.447 173.729 208.497C174.023 206.755 175.54 205.51 177.282 205.51C177.486 205.51 177.712 205.533 177.916 205.555L178.391 205.646L178.436 205.148C178.459 204.876 178.527 204.627 178.595 204.356C179.092 202.862 180.473 201.867 182.034 201.867C182.419 201.867 182.804 201.934 183.166 202.048L183.528 202.161L183.709 201.821C184.071 201.12 184.659 200.531 185.361 200.192C185.859 199.943 186.379 199.83 186.945 199.83C188.348 199.83 189.593 200.599 190.204 201.867L190.385 202.229L190.769 202.093C191.063 201.98 191.38 201.912 191.697 201.889C191.81 201.889 191.923 201.867 192.037 201.867C193.915 201.867 195.454 203.27 195.635 205.148L195.68 205.646L196.155 205.555C196.359 205.51 196.562 205.51 196.766 205.487C198.757 205.487 200.387 207.117 200.387 209.108C200.387 211.099 198.757 212.729 196.766 212.729H177.305Z" fill="white"/>
<path d="M186.945 200.282C188.167 200.282 189.253 200.961 189.796 202.07L190.158 202.817L190.927 202.523C191.176 202.432 191.448 202.364 191.742 202.342C191.832 202.342 191.946 202.319 192.036 202.319C193.665 202.319 195.023 203.541 195.182 205.193L195.272 206.166L196.245 205.985C196.426 205.962 196.607 205.94 196.788 205.94C198.531 205.94 199.956 207.365 199.956 209.108C199.956 210.85 198.531 212.276 196.788 212.276H177.327C177.146 212.276 176.965 212.253 176.784 212.231C175.947 212.095 175.222 211.62 174.747 210.941C174.272 210.239 174.068 209.402 174.227 208.565C174.498 207.049 175.811 205.94 177.35 205.94C177.531 205.94 177.712 205.962 177.893 205.985L178.866 206.143L178.956 205.17C178.979 204.944 179.024 204.718 179.092 204.492C179.522 203.179 180.721 202.319 182.102 202.319C182.441 202.319 182.758 202.364 183.075 202.478L183.822 202.726L184.161 202.025C184.478 201.414 184.976 200.893 185.609 200.599C185.994 200.396 186.447 200.282 186.945 200.282ZM186.945 199.377C186.356 199.377 185.745 199.513 185.179 199.785C184.387 200.169 183.731 200.826 183.324 201.618C182.894 201.482 182.486 201.414 182.057 201.414C180.337 201.414 178.753 202.5 178.187 204.22C178.096 204.514 178.028 204.808 178.006 205.103C177.78 205.057 177.531 205.035 177.304 205.035C175.358 205.035 173.638 206.438 173.299 208.406C172.914 210.624 174.385 212.729 176.603 213.113C176.829 213.159 177.078 213.181 177.304 213.181H196.766C199.006 213.181 200.839 211.348 200.839 209.108C200.839 206.868 199.006 205.035 196.766 205.035C196.539 205.035 196.291 205.057 196.064 205.103C195.861 202.998 194.095 201.414 192.014 201.414C191.878 201.414 191.765 201.414 191.629 201.437C191.267 201.459 190.927 201.55 190.588 201.663C189.886 200.215 188.438 199.377 186.945 199.377Z" fill="#333333"/>
<path d="M177.1 239.884L170.493 209.719H203.554L196.947 239.884H177.1Z" fill="white"/>
<path d="M202.989 210.171L196.585 239.431H177.44L171.036 210.171H202.989ZM204.12 209.266H169.95L176.739 240.337H197.331L204.12 209.266Z" fill="#333333"/>
<path d="M183.663 239.884L180.178 209.719H193.869L190.384 239.884H183.663Z" fill="white"/>
<path d="M193.372 210.171L189.977 239.431H184.093L180.699 210.171H193.372ZM194.39 209.266H179.681L183.279 240.337H190.792L194.39 209.266Z" fill="#333333"/>
</svg>
