<svg width="420" height="268" viewBox="0 0 420 268" fill="none" xmlns="http://www.w3.org/2000/svg">
<path d="M178.375 167.075C178.041 167.075 177.706 167.045 177.402 167.014H177.372L177.342 166.984C177.342 166.984 175.974 165.494 176.339 162.637C176.734 159.78 178.618 157.075 178.649 157.045L178.679 156.984L178.74 157.015C181.08 158.595 187.159 161.361 187.22 161.391L187.28 161.422L187.25 161.482C187.22 161.543 183.572 167.075 178.375 167.075Z" fill="#333333"/>
<path d="M156.005 238.926C155.367 234.367 154.942 229.717 154.79 225.097V225.066L154.82 225.036C154.85 225.006 158.984 222.392 163.239 222.088C163.604 222.057 163.969 222.057 164.272 222.057C167.129 222.057 168.041 223.486 168.072 223.516C168.102 223.638 169.774 232.27 156.066 238.956L156.005 238.987V238.926Z" fill="#333333"/>
<path d="M40.2351 237.102C40.144 236.981 30.114 223.79 32.5455 215.553V215.523H32.5759C32.6063 215.492 33.7005 214.824 35.7065 214.824C36.5879 214.824 37.4997 214.945 38.4419 215.219C43.9128 216.739 48.2591 220.72 48.2895 220.751L48.3199 220.781L48.2895 220.811C44.0344 230.537 40.3263 237.042 40.2959 237.102L40.2655 237.194L40.2351 237.102Z" fill="#333333"/>
<path d="M13.5488 266.919V266.858C13.5488 266.828 13.7008 265.278 15.0381 262.998C16.2539 260.901 18.7462 257.71 23.67 254.518C32.8793 248.591 36.3442 243.516 40.2346 237.042C40.265 236.981 43.9731 230.477 48.2282 220.781L48.2586 220.72L79.2604 247.528L71.358 266.919H13.5488Z" fill="#DBB3E8"/>
<path d="M118.864 266.919C118.833 266.828 116.554 260.232 115.338 247.132L115.49 242.269L154.911 219.474V225.097C155.063 229.686 155.488 234.337 156.126 238.896C156.126 238.956 156.765 245.704 159.804 250.233C161.506 252.786 163.543 254.67 165.305 256.342C168.436 259.26 171.171 261.782 171.171 266.858V266.919H118.864Z" fill="#DBB3E8"/>
<path d="M79.1393 247.588C79.0785 247.588 73.942 246.585 66.6474 241.114C63.2433 238.561 59.4745 233.85 56.1616 229.686C55.3105 228.623 54.5203 227.62 53.7301 226.647C52.0584 224.611 50.2044 222.665 48.2592 220.872C48.2592 220.872 39.9616 212.757 32.5151 215.523C33.6701 211.572 80.8718 158.777 82.8778 156.528L125.004 133.155L149.106 156.528V156.559C160.2 195.584 166.552 218.106 168.011 223.516C168.041 223.608 164.607 219.96 154.699 225.158C151.841 226.769 149.076 228.623 146.492 230.629L145.945 231.054C140.505 235.34 135.794 239.048 127.77 242.908C123.818 244.792 119.624 246.19 115.338 247.102H115.278V247.041C114.305 236.586 114.244 224.945 115.126 212.423C117.132 183.488 114.548 163.671 114.244 161.361L79.2001 247.619L79.1393 247.588Z" fill="#DBB3E8"/>
<path d="M70.9327 244.427C70.8415 244.427 70.7503 244.397 70.6591 244.367C70.3552 244.215 70.2336 243.85 70.3552 243.546L117.435 143.763C117.587 143.459 117.952 143.337 118.256 143.459C118.56 143.611 118.681 143.976 118.56 144.28L71.4798 244.093C71.3886 244.306 71.1454 244.427 70.9327 244.427Z" fill="#333333"/>
<path d="M57.2555 231.358C57.1643 231.358 57.0428 231.328 56.9516 231.267C56.6476 231.115 56.5565 230.72 56.7084 230.446L103.333 146.498C103.485 146.194 103.88 146.103 104.153 146.255C104.457 146.407 104.548 146.802 104.396 147.076L57.7722 231.054C57.681 231.237 57.4683 231.358 57.2555 231.358Z" fill="#333333"/>
<path d="M43.0615 217.681C42.9399 217.681 42.8184 217.65 42.6968 217.559C42.4232 217.346 42.3624 216.982 42.5752 216.708L95.3694 147.045C95.5821 146.772 95.9468 146.711 96.2204 146.924C96.4939 147.137 96.5547 147.501 96.342 147.775L43.5478 217.438C43.4262 217.59 43.2439 217.681 43.0615 217.681Z" fill="#333333"/>
<path d="M158.801 224.155C158.528 224.155 158.285 223.972 158.193 223.669L142.237 150.602C142.176 150.267 142.358 149.963 142.693 149.872C143.027 149.811 143.331 149.994 143.422 150.328L159.379 223.395C159.44 223.729 159.257 224.033 158.923 224.124C158.893 224.155 158.832 224.155 158.801 224.155Z" fill="#333333"/>
<path d="M143.149 233.698C142.845 233.698 142.571 233.455 142.541 233.151L133.635 144.097C133.605 143.763 133.848 143.459 134.182 143.429C134.517 143.398 134.821 143.641 134.851 143.976L143.757 233.03C143.787 233.364 143.544 233.668 143.209 233.698C143.179 233.698 143.179 233.698 143.149 233.698Z" fill="#333333"/>
<path d="M127.8 243.516C127.465 243.516 127.192 243.242 127.192 242.938L123.879 137.988C123.879 137.654 124.122 137.38 124.456 137.35C124.791 137.319 125.064 137.593 125.095 137.927L128.408 242.877C128.408 243.212 128.164 243.516 127.8 243.516Z" fill="#333333"/>
<path d="M207.462 167.409C202.751 167.409 195.061 164.309 187.433 160.935C187.372 160.905 181.323 158.17 179.014 156.619L178.983 156.589L164.637 148.687L175.093 128.384L193.542 136.377C196.764 138.11 205.304 142.76 206.459 143.702C207.249 144.371 207.614 145.009 207.553 145.556C207.432 146.438 206.307 147.076 206.094 147.197L204.97 147.805L206.125 148.322C206.702 148.565 208.86 149.507 213.298 151.483C214.878 152.182 215.76 153.003 215.912 153.914C216.094 154.948 215.243 155.86 215.091 156.042L214.696 156.437L215.061 156.863C215.669 157.592 215.942 158.322 215.851 159.021C215.699 160.176 214.605 161.027 214.483 161.118L214.21 161.3V161.634C214.24 162.729 213.997 163.549 213.45 164.096C212.781 164.795 211.869 164.826 211.687 164.826H211.201L211.109 165.312C211.018 165.829 210.684 167.409 207.462 167.409Z" fill="white"/>
<path d="M175.396 129.174L193.298 136.924C197.736 139.295 205.091 143.368 206.094 144.189C206.702 144.705 207.006 145.161 206.976 145.495C206.915 145.921 206.337 146.407 205.821 146.681L203.572 147.866L205.912 148.869C206.489 149.112 208.647 150.055 213.085 152.03C214.422 152.638 215.243 153.337 215.334 154.006C215.456 154.766 214.696 155.556 214.665 155.586L213.905 156.376L214.605 157.228C215.121 157.835 215.334 158.382 215.243 158.899C215.121 159.841 214.149 160.54 214.118 160.571L213.602 160.936L213.632 161.574C213.662 162.486 213.45 163.185 213.054 163.61C212.538 164.127 211.808 164.157 211.717 164.157H210.745L210.562 165.13C210.471 165.586 210.228 166.741 207.492 166.741C202.903 166.741 195.274 163.671 187.736 160.328C187.676 160.297 181.658 157.562 179.408 156.042L179.348 156.012L179.287 155.981L165.488 148.383L175.396 129.174ZM174.819 127.624L163.816 148.96L178.679 157.136C181.05 158.747 187.129 161.483 187.189 161.513C194.879 164.887 202.629 168.017 207.462 168.017C209.954 168.017 211.383 167.136 211.717 165.403C211.991 165.403 213.085 165.343 213.905 164.492C214.544 163.823 214.848 162.85 214.817 161.574C215.03 161.422 216.246 160.48 216.428 159.082C216.55 158.2 216.246 157.319 215.516 156.437C215.729 156.225 216.732 155.1 216.519 153.793C216.337 152.668 215.334 151.696 213.571 150.906C209.073 148.9 206.885 147.957 206.398 147.745C206.793 147.532 208.039 146.802 208.191 145.647C208.283 144.857 207.857 144.037 206.885 143.246C205.456 142.061 194.332 136.073 193.846 135.83L174.819 127.624Z" fill="#333333"/>
<path d="M177.403 167.014C172.479 166.346 135.155 141.331 120.992 122.822C113.18 112.609 113.667 100.361 115.46 91.9111V91.8807L131.964 90.7865L131.994 90.8169C141.173 99.0536 154.638 110.603 166.704 118.81C176.248 125.284 185.123 130.876 193.846 135.891L193.876 135.921V135.952C193.755 137.35 191.566 143.945 186.034 149.052C181.384 153.307 179.135 156.65 178.831 157.106C174.85 163.793 177.403 167.014 177.403 167.014Z" fill="#B666D2"/>
<path d="M204.909 148.535C204.818 148.535 204.757 148.504 204.666 148.474L197.007 145.161C196.703 145.039 196.551 144.675 196.703 144.371C196.824 144.067 197.189 143.915 197.493 144.067L205.152 147.38C205.456 147.501 205.608 147.866 205.456 148.17C205.365 148.383 205.152 148.535 204.909 148.535Z" fill="#333333"/>
<path d="M214.757 157.288C214.696 157.288 214.605 157.288 214.544 157.258C214.453 157.227 206.095 154.127 199.742 151.057C199.438 150.906 199.317 150.541 199.469 150.237C199.621 149.933 199.985 149.811 200.289 149.963C206.581 153.003 214.878 156.072 214.97 156.103C215.274 156.224 215.456 156.559 215.334 156.893C215.243 157.136 215 157.288 214.757 157.288Z" fill="#333333"/>
<path d="M214.118 162.06C214.027 162.06 213.966 162.03 213.875 161.999C213.784 161.969 203.663 157.714 197.918 155.039C197.614 154.887 197.493 154.522 197.614 154.218C197.766 153.915 198.131 153.793 198.435 153.915C204.149 156.589 214.24 160.814 214.331 160.875C214.635 160.996 214.787 161.361 214.665 161.665C214.574 161.908 214.361 162.06 214.118 162.06Z" fill="#333333"/>
<path d="M211.109 165.251C211.048 165.251 210.988 165.251 210.927 165.221C210.836 165.19 200.836 161.908 195.426 159.233C195.122 159.081 195 158.717 195.152 158.413C195.304 158.109 195.669 157.987 195.973 158.139C201.292 160.753 211.2 164.036 211.291 164.066C211.595 164.157 211.778 164.522 211.687 164.826C211.595 165.099 211.352 165.251 211.109 165.251Z" fill="#333333"/>
<path d="M194.757 161.118C194.666 161.118 194.575 161.087 194.484 161.057C194.18 160.905 194.058 160.54 194.24 160.236L200.167 148.869C200.319 148.565 200.684 148.444 200.988 148.626C201.292 148.778 201.413 149.143 201.231 149.447L195.304 160.784C195.183 160.996 194.97 161.118 194.757 161.118Z" fill="#333333"/>
<path d="M126.554 142.243L82.8472 156.711L110.566 93.4914L130.474 90.908V90.9687C130.474 90.9687 138.802 120.208 147.647 151.361L149.167 156.741L126.554 142.243Z" fill="#B666D2"/>
<path d="M125.034 131.423L132.42 124.463L127.04 101.363H122.998L117.648 124.463L125.034 131.423Z" fill="#333333"/>
<path d="M121.569 97.3514L122.998 101.363H127.04L128.469 97.3514H121.569Z" fill="#333333"/>
<path d="M126.554 142.243L82.8472 156.711L107.284 101.029L125.034 118.445L134.152 103.704L134.182 103.825C137.435 115.253 142.48 132.973 147.708 151.361L149.227 156.741L126.554 142.243Z" fill="#B666D2"/>
<path d="M82.938 157.258C82.6949 157.258 82.4517 157.106 82.3605 156.832C82.2694 156.528 82.4213 156.164 82.7556 156.072L126.371 141.635C126.553 141.574 126.736 141.605 126.888 141.696L149.44 156.133C149.713 156.316 149.805 156.68 149.622 156.984C149.44 157.258 149.075 157.349 148.771 157.167L126.462 142.881L83.1204 157.227C83.0596 157.258 82.9988 157.258 82.938 157.258Z" fill="#333333"/>
<path d="M146.31 147.319C146.036 147.319 145.793 147.137 145.732 146.863L138.59 121.788C138.499 121.454 138.681 121.119 139.015 121.028C139.35 120.937 139.684 121.119 139.775 121.454L146.918 146.529C147.009 146.863 146.827 147.197 146.492 147.289C146.431 147.319 146.371 147.319 146.31 147.319Z" fill="#333333"/>
<path d="M121.539 185.706C117.192 185.706 109.959 182.971 99.4119 177.378C99.3511 177.348 93.1204 174.126 89.9898 172.242L79.8687 166.771L90.1722 142.547L109.108 152.152C111.387 153.732 113.484 155.1 115.338 156.316L115.369 156.346C119.441 159.021 122.663 161.118 122.937 162.212C123.119 162.911 123.15 164.127 121.539 164.704L120.171 165.191L128.985 169.567C130.474 170.297 132.177 171.512 131.812 173.123C131.629 173.914 131.022 174.552 130.87 174.673L130.444 175.038L130.778 175.494C131.417 176.406 131.66 177.227 131.447 177.926C131.143 179.02 129.867 179.658 129.745 179.719L129.319 179.901L129.38 180.357C129.532 181.208 129.38 181.907 128.955 182.393C128.104 183.427 126.341 183.488 126.128 183.518H125.763L125.611 183.852C124.943 185.099 123.605 185.706 121.539 185.706Z" fill="white"/>
<path d="M90.4763 143.398L108.804 152.699C111.053 154.249 113.181 155.647 115.035 156.863L115.065 156.893C117.223 158.322 119.107 159.537 120.414 160.54C122.116 161.817 122.329 162.303 122.359 162.394C122.694 163.701 121.66 164.066 121.326 164.157L118.621 165.13L121.205 166.406L128.742 170.145C130.049 170.783 131.508 171.816 131.234 173.032C131.113 173.61 130.657 174.126 130.505 174.248L129.624 174.977L130.292 175.889C130.839 176.619 131.022 177.287 130.87 177.804C130.687 178.473 129.897 179.02 129.472 179.202L128.651 179.597L128.803 180.509C128.925 181.178 128.803 181.694 128.499 182.059C127.952 182.728 126.706 182.941 126.128 182.971L125.399 183.001L125.065 183.64C124.274 185.19 122.238 185.19 121.569 185.19C117.314 185.19 110.172 182.485 99.7161 176.923C99.6553 176.892 93.4549 173.67 90.3243 171.816H90.294H90.2636L80.6591 166.619L90.4763 143.398ZM89.8684 141.696L79.0786 167.045L89.6557 172.759C92.8166 174.643 99.0474 177.865 99.1082 177.895C109.746 183.548 117.071 186.314 121.539 186.314C123.818 186.314 125.368 185.554 126.128 184.096C126.432 184.096 128.377 183.974 129.411 182.758C129.958 182.12 130.14 181.269 129.988 180.236C130.262 180.114 131.66 179.384 132.025 178.047C132.268 177.135 132.025 176.163 131.234 175.099C131.478 174.886 132.177 174.157 132.389 173.215C132.633 172.12 132.298 170.479 129.259 168.99L121.721 165.251C122.268 165.069 124.092 164.248 123.514 162.03C123.18 160.723 120.202 158.777 115.703 155.829C113.819 154.583 111.691 153.215 109.412 151.635L89.8684 141.696Z" fill="#333333"/>
<path d="M89.3513 183.548C88.7131 183.548 88.1052 183.457 87.5277 183.305H87.4973V183.275C87.4061 183.153 85.6129 180.296 89.6857 172.667L89.7161 172.607L99.2901 177.804L99.2597 177.865C99.1685 177.956 94.6095 183.548 89.3513 183.548Z" fill="#333333"/>
<path d="M87.4976 183.305C79.8079 178.381 72.7869 171.604 67.6808 164.188C62.3618 156.437 59.5656 148.535 59.8391 141.909C60.0519 136.499 62.1795 128.049 71.0241 118.506C79.8991 108.931 93.6371 100.208 111.873 92.5796H111.904L115.065 94.7679L91.236 139.234C97.1324 143.702 104.275 148.565 109.412 151.635L109.472 151.665L109.442 151.726C109.412 151.756 107.041 155.708 101.813 159.993C101.084 160.601 100.385 161.148 99.7463 161.665C95.8559 164.765 93.0292 167.014 89.8075 172.728C85.7347 180.144 87.4976 183.305 87.4976 183.305Z" fill="#B666D2"/>
<path d="M119.381 165.464C119.29 165.464 119.199 165.434 119.107 165.403L113.606 162.637C113.302 162.485 113.181 162.121 113.333 161.817C113.484 161.513 113.849 161.391 114.153 161.543L119.654 164.309C119.958 164.461 120.08 164.826 119.928 165.13C119.806 165.342 119.594 165.464 119.381 165.464Z" fill="#333333"/>
<path d="M130.201 175.707C130.14 175.707 130.08 175.707 130.019 175.676C124.548 174.035 117.983 170.996 114.579 169.324C114.275 169.172 114.153 168.807 114.305 168.504C114.457 168.2 114.822 168.078 115.126 168.23C118.5 169.871 124.973 172.911 130.384 174.522C130.718 174.613 130.9 174.947 130.779 175.281C130.718 175.525 130.475 175.707 130.201 175.707Z" fill="#333333"/>
<path d="M129.259 180.509C129.198 180.509 129.137 180.509 129.076 180.479C128.985 180.448 119.715 177.652 112.299 174.218C111.995 174.066 111.873 173.701 111.995 173.397C112.147 173.093 112.512 172.971 112.815 173.093C120.14 176.497 129.319 179.263 129.411 179.293C129.745 179.385 129.927 179.719 129.806 180.053C129.775 180.327 129.532 180.509 129.259 180.509Z" fill="#333333"/>
<path d="M125.46 184.035C125.429 184.035 125.399 184.035 125.338 184.035C125.095 184.004 119.259 182.88 110.415 178.564C110.111 178.412 109.989 178.047 110.141 177.743C110.293 177.439 110.658 177.318 110.962 177.47C119.654 181.695 125.52 182.819 125.581 182.819C125.916 182.88 126.128 183.184 126.067 183.518C126.007 183.822 125.733 184.035 125.46 184.035Z" fill="#333333"/>
<path d="M91.145 139.842C91.0539 139.842 90.9627 139.812 90.8715 139.781C90.5676 139.629 90.4764 139.265 90.6283 138.961L100.081 121.363C100.233 121.059 100.598 120.967 100.901 121.119C101.205 121.271 101.297 121.636 101.145 121.94L91.6921 139.508C91.5706 139.72 91.3578 139.842 91.145 139.842Z" fill="#333333"/>
<path d="M109.685 153.215C109.563 153.215 109.442 153.185 109.32 153.094L84.7621 135.617C84.4885 135.435 84.4277 135.04 84.6101 134.766C84.7925 134.493 85.1876 134.432 85.4611 134.614L110.019 152.091C110.293 152.273 110.354 152.668 110.171 152.942C110.05 153.124 109.867 153.215 109.685 153.215Z" fill="#333333"/>
<path d="M126.584 142.79C126.28 142.79 126.007 142.547 125.976 142.213L124.426 118.445C124.396 118.11 124.669 117.806 125.004 117.806C125.338 117.776 125.642 118.05 125.642 118.384L127.192 142.152C127.222 142.486 126.949 142.79 126.614 142.79H126.584Z" fill="#333333"/>
<path d="M125.155 119.387L102.36 97.1995C102.117 96.9563 102.117 96.5916 102.36 96.3484C102.603 96.1053 102.968 96.1053 103.211 96.3484L124.912 117.503L138.043 96.47C138.225 96.1965 138.59 96.1053 138.894 96.2876C139.197 96.47 139.258 96.8347 139.076 97.1387L125.155 119.387Z" fill="#333333"/>
<path d="M117.982 127.441C119.342 127.441 120.444 126.339 120.444 124.979C120.444 123.62 119.342 122.518 117.982 122.518C116.623 122.518 115.521 123.62 115.521 124.979C115.521 126.339 116.623 127.441 117.982 127.441Z" fill="#333333"/>
<path d="M117.982 137.259C119.342 137.259 120.444 136.156 120.444 134.797C120.444 133.437 119.342 132.335 117.982 132.335C116.623 132.335 115.521 133.437 115.521 134.797C115.521 136.156 116.623 137.259 117.982 137.259Z" fill="#333333"/>
<path d="M124.852 97.5642C121.205 97.5642 118.105 94.9504 116.099 90.2393C110.05 75.8934 112.451 70.4529 118.257 66.3193C118.287 66.2889 123.423 62.824 129.411 62.824C131.782 62.824 133.97 63.3711 135.946 64.4349C140.596 66.9576 141.325 76.0454 137.678 85.589C134.943 92.762 129.776 97.5642 124.852 97.5642Z" fill="white"/>
<path d="M129.411 63.4622C131.691 63.4622 133.788 63.9789 135.672 65.0123C137.678 66.1065 138.955 68.6596 139.32 72.246C139.684 76.1061 138.924 80.7563 137.131 85.4066C134.487 92.3364 129.533 96.9867 124.852 96.9867C121.478 96.9867 118.56 94.5248 116.676 90.0265C110.81 76.0757 113.059 70.8175 118.621 66.8663C118.834 66.684 123.727 63.4622 129.411 63.4622ZM129.411 62.2465C123.18 62.2465 117.922 65.8329 117.922 65.8329C111.418 70.4528 109.716 76.6532 115.551 90.4824C117.801 95.8013 121.235 98.172 124.852 98.172C129.897 98.172 135.308 93.5521 138.256 85.8321C142.085 75.8325 141.113 66.5624 136.25 63.9181C133.97 62.7024 131.63 62.2465 129.411 62.2465Z" fill="#333333"/>
<path d="M117.922 65.8329C112.269 69.8449 110.263 75.0423 113.636 85.4066C123.697 81.3946 123.332 67.5046 123.332 67.5046C131.721 74.0089 140.626 73.6138 140.626 73.6138C140.505 68.9939 138.985 65.4378 136.28 63.9485C127.587 59.2375 117.922 65.8329 117.922 65.8329Z" fill="#333333"/>
<path d="M131.933 84.6164C131.69 84.6164 131.477 84.4948 131.386 84.2516C131.264 83.9477 131.386 83.583 131.69 83.4614C132.055 83.3094 132.389 83.0055 132.602 82.6408C132.936 82.0633 132.997 80.6044 132.754 77.7473C132.723 77.413 132.966 77.1091 133.301 77.0787C133.635 77.0483 133.939 77.2914 133.969 77.6258C134.243 80.9083 134.152 82.3672 133.635 83.2486C133.301 83.8261 132.754 84.3124 132.176 84.5556C132.085 84.586 132.024 84.6164 131.933 84.6164Z" fill="#333333"/>
<path d="M128.377 79.9663C128.377 79.9663 128.347 79.9663 128.377 79.9663C128.012 79.9663 127.769 79.6624 127.769 79.328L127.799 78.5682C127.799 78.2339 128.103 77.9603 128.438 77.9907C128.772 77.9907 129.046 78.2947 129.015 78.629L128.985 79.3888C128.985 79.7232 128.711 79.9663 128.377 79.9663Z" fill="#333333"/>
<path d="M136.736 78.4465C136.736 78.4465 136.705 78.4465 136.736 78.4465C136.371 78.4465 136.128 78.1425 136.128 77.8082L136.158 77.0788C136.158 76.7444 136.462 76.4709 136.797 76.5013C137.131 76.5013 137.404 76.8052 137.374 77.1395L137.344 77.869C137.344 78.2033 137.07 78.4465 136.736 78.4465Z" fill="#333333"/>
<path d="M129.441 88.3548C127.739 88.3548 126.372 86.9871 126.372 85.3155C126.372 84.9811 126.645 84.7076 126.979 84.7076C127.314 84.7076 127.587 84.9811 127.587 85.3155C127.587 86.3185 128.408 87.1391 129.441 87.1391C129.502 87.1391 129.563 87.1391 129.624 87.1391C129.715 87.1391 129.806 87.1087 129.897 87.1087C130.232 87.1087 130.505 87.3822 130.505 87.7166C130.505 88.0509 130.232 88.3244 129.897 88.3244C129.836 88.3244 129.776 88.3244 129.715 88.3244C129.624 88.3548 129.533 88.3548 129.441 88.3548Z" fill="#333333"/>
<path d="M158.619 249.26C158.406 249.26 158.194 249.138 158.072 248.956C157.951 248.713 157.981 248.409 158.194 248.196L184.819 224.945C185.305 224.489 185.852 224.155 186.308 223.912C188.253 222.848 190.472 222.635 192.6 223.273C194.727 223.912 196.46 225.31 197.493 227.255L197.797 227.832C198.101 228.41 198.314 228.957 198.496 229.534C199.104 231.662 198.83 233.881 197.766 235.796C196.703 237.71 194.94 239.108 192.812 239.686L158.771 249.23C158.741 249.26 158.68 249.26 158.619 249.26ZM190.259 224.124C189.104 224.124 187.98 224.398 186.946 224.975C186.551 225.188 186.065 225.492 185.67 225.857L161.051 247.345L192.508 238.531C194.332 238.014 195.821 236.829 196.733 235.188C197.645 233.546 197.888 231.662 197.371 229.838C197.25 229.352 197.037 228.866 196.794 228.379L196.49 227.802C195.609 226.161 194.119 224.945 192.296 224.398C191.627 224.215 190.928 224.124 190.259 224.124Z" fill="#333333"/>
<path d="M186.946 260.597C186.703 260.597 186.46 260.445 186.369 260.171C184.241 253.971 178.983 250.233 170.746 249.108C164.759 248.287 159.288 249.23 158.802 249.321L151.021 251.783C150.686 251.874 150.352 251.691 150.261 251.388C150.17 251.084 150.352 250.719 150.656 250.628L158.467 248.166C158.498 248.166 158.528 248.166 158.528 248.135C158.771 248.105 164.424 247.041 170.868 247.923C179.5 249.078 185.244 253.181 187.524 259.776C187.645 260.08 187.463 260.445 187.159 260.536C187.068 260.597 187.007 260.597 186.946 260.597Z" fill="#333333"/>
<path d="M33.1533 246.646C33.0621 246.646 32.9405 246.616 32.8493 246.555L4.97815 230.78C2.69861 229.504 1.05734 227.407 0.358279 224.884C-0.34078 222.361 -0.00644703 219.717 1.2701 217.468C1.69561 216.708 2.27309 215.948 3.03294 215.219L3.64082 214.641C5.52524 212.848 7.98714 211.875 10.601 211.936C13.2149 211.997 15.6464 213.061 17.4396 214.945C18.0779 215.614 18.625 216.374 19.0809 217.225L33.67 245.734C33.7915 245.977 33.7308 246.251 33.5484 246.464C33.4572 246.585 33.3052 246.646 33.1533 246.646ZM10.3883 213.152C8.26069 213.152 6.13311 213.942 4.46145 215.523L3.85357 216.1C3.2153 216.708 2.69861 217.377 2.33388 218.045C1.20931 220.051 0.90537 222.361 1.54364 224.55C2.15152 226.738 3.58003 228.592 5.58603 229.717L31.6944 244.488L18.0171 217.772C17.622 217.012 17.1357 216.343 16.5582 215.766C14.8866 214.033 12.6678 213.152 10.3883 213.152Z" fill="#333333"/>
<path d="M31.6947 259.472C31.5123 259.472 31.3604 259.412 31.2388 259.26L25.6159 252.846C25.4032 252.603 25.4335 252.208 25.6767 251.995C25.9198 251.783 26.315 251.813 26.5277 252.056L32.1506 258.469C32.3633 258.712 32.333 259.108 32.0898 259.32C31.9682 259.412 31.8467 259.472 31.6947 259.472Z" fill="#333333"/>
<path d="M156.978 260.111C156.826 260.111 156.644 260.05 156.522 259.898C156.309 259.655 156.309 259.26 156.553 259.047L162.54 253.606C162.783 253.394 163.178 253.394 163.391 253.637C163.604 253.88 163.604 254.275 163.361 254.488L157.373 259.928C157.282 260.05 157.13 260.111 156.978 260.111Z" fill="#333333"/>
<path d="M39.9612 252.117C39.8396 252.117 39.6876 252.087 39.5964 251.996L33.0618 246.889C27.8948 248.47 23.2445 247.649 19.111 246.889C13.8528 245.947 9.29375 245.127 4.73467 249.199C4.49152 249.412 4.0964 249.412 3.88364 249.139C3.67088 248.895 3.67088 248.5 3.94443 248.288C8.95942 243.82 14.0048 244.731 19.3541 245.674C23.6093 246.433 27.986 247.224 33.0314 245.613C33.2137 245.552 33.4265 245.582 33.6088 245.704L40.3867 251.023C40.6602 251.236 40.6906 251.6 40.4779 251.874C40.3259 252.026 40.1435 252.117 39.9612 252.117Z" fill="#333333"/>
<path d="M54.3075 267.466C54.2467 267.466 54.1555 267.466 54.0947 267.436C53.7908 267.314 53.6084 266.98 53.73 266.645C56.5262 258.773 65.8571 251.722 76.5862 253.485C76.9205 253.546 77.1333 253.85 77.0725 254.184C77.0117 254.518 76.7077 254.731 76.3734 254.67C66.2826 252.999 57.4988 259.655 54.8546 267.04C54.7938 267.314 54.5506 267.466 54.3075 267.466Z" fill="#333333"/>
<path d="M137.313 267.466C137.04 267.466 136.797 267.284 136.706 266.98C135.459 261.387 131.873 258.226 129.046 256.524C125.034 254.093 120.019 253.211 116.251 254.245C115.916 254.336 115.582 254.153 115.491 253.819C115.399 253.485 115.582 253.15 115.916 253.059C119.959 251.935 125.369 252.907 129.654 255.491C132.663 257.284 136.523 260.719 137.861 266.706C137.921 267.04 137.739 267.344 137.405 267.436C137.405 267.466 137.344 267.466 137.313 267.466Z" fill="#333333"/>
<path d="M379.705 237.103C379.674 237.042 375.966 230.538 371.711 220.812V220.781L371.741 220.751C371.802 220.69 376.604 214.946 381.467 213.973C382.166 213.821 382.805 213.76 383.413 213.76C386.482 213.76 387.485 215.523 387.485 215.523C389.917 223.76 379.917 236.951 379.796 237.072L379.735 237.133L379.705 237.103Z" fill="#333333"/>
<path d="M263.965 238.957C250.257 232.27 251.929 223.608 251.959 223.547C251.989 223.486 252.719 222.149 255.545 222.149C255.88 222.149 256.214 222.149 256.579 222.179C260.834 222.483 265.18 225.006 265.211 225.036L265.241 225.067V225.097C265.089 229.717 264.664 234.367 264.025 238.926V239.018L263.965 238.957Z" fill="#333333"/>
<path d="M248.859 266.919V266.858C248.859 261.783 251.564 259.26 254.725 256.342C256.518 254.701 258.524 252.816 260.257 250.233C263.296 245.704 263.934 238.957 263.934 238.896C264.573 234.337 264.998 229.687 265.15 225.067V219.444L304.571 242.239L304.723 247.102C304.51 249.382 304.267 251.601 303.963 253.728V253.789H303.902C303.173 253.728 302.474 253.728 301.775 253.728C291.319 253.728 281.32 258.652 274.967 266.919L274.937 266.95H248.859V266.919Z" fill="#FF5573"/>
<path d="M284.055 266.919L282.505 259.564L282.535 259.533C288.189 255.643 294.814 253.576 301.714 253.576H301.775C302.474 253.576 303.173 253.607 303.902 253.637H303.963V253.698C302.747 262.421 301.228 266.798 301.197 266.858V266.889L284.055 266.919Z" fill="#333333"/>
<path d="M376.513 266.919C370.13 258.652 360.1 253.728 349.645 253.728C347.608 253.728 345.572 253.911 343.566 254.275H343.505L338.977 243.212L347.912 218.259L371.772 220.72V220.751C376.027 230.477 379.704 236.951 379.765 237.012C383.656 243.516 387.12 248.561 396.33 254.488C401.254 257.679 403.746 260.84 404.962 262.968C406.299 265.247 406.451 266.828 406.451 266.828V266.889H376.513V266.919Z" fill="#FF5573"/>
<path d="M348.702 266.919L343.475 254.154H343.535C345.541 253.789 347.608 253.607 349.645 253.607H349.705C355.602 253.607 361.437 255.157 366.544 258.105L366.574 258.135L365.814 266.95L348.702 266.919Z" fill="#333333"/>
<path d="M213.025 167.258C209.924 167.258 209.195 166.103 208.921 165.221L208.8 164.796H208.374C208.131 164.796 207.25 164.735 206.611 164.066C206.095 163.519 205.821 162.699 205.852 161.605V161.27L205.578 161.088C205.456 160.997 204.362 160.176 204.21 158.991C204.119 158.292 204.393 157.562 205.001 156.833L205.365 156.407L204.97 156.012C204.879 155.921 203.967 154.948 204.15 153.885C204.302 152.973 205.183 152.152 206.763 151.453C211.171 149.477 213.359 148.535 213.936 148.292L215.091 147.775L213.967 147.167C213.754 147.046 212.629 146.408 212.508 145.526C212.447 144.949 212.781 144.341 213.602 143.672C214.666 142.76 222.234 138.627 226.519 136.317C235.273 131.271 244.178 125.679 253.722 119.205C265.667 111.09 278.979 99.6922 288.158 91.4555L298.887 99.0236C300.528 107.139 299.951 120.056 299.86 121.88C287.459 133.186 268.615 145.283 257.491 150.511C236.063 160.602 220.319 167.258 213.025 167.258Z" fill="white"/>
<path d="M288.188 92.3064L298.34 99.449C299.859 107.169 299.373 119.144 299.252 121.667C286.912 132.882 268.25 144.857 257.217 150.024C235.911 159.994 220.228 166.65 213.024 166.65C210.015 166.65 209.65 165.464 209.499 165.039L209.225 164.218L208.344 164.188C208.192 164.188 207.493 164.158 207.006 163.641C206.611 163.215 206.398 162.547 206.429 161.604L206.459 160.966L205.942 160.601C205.912 160.571 204.939 159.872 204.818 158.93C204.757 158.383 204.97 157.836 205.456 157.258L206.155 156.407L205.395 155.617C205.365 155.586 204.605 154.796 204.727 154.036C204.848 153.368 205.638 152.669 206.976 152.061C211.383 150.085 213.571 149.143 214.149 148.9L216.489 147.897L214.24 146.711C213.723 146.438 213.146 145.952 213.085 145.526C213.055 145.192 213.359 144.705 213.966 144.219C214.878 143.459 221.261 139.903 226.793 136.955H226.823H226.853C235.607 131.94 244.512 126.317 254.086 119.813C265.849 111.759 279.009 100.513 288.188 92.3064ZM288.097 90.7563L288.067 90.7867C278.888 99.0235 265.423 110.573 253.357 118.779C243.813 125.253 234.938 130.846 226.215 135.861C225.729 136.104 214.605 142.092 213.176 143.277C212.204 144.098 211.778 144.888 211.9 145.678C212.052 146.833 213.298 147.562 213.693 147.775C213.176 147.988 211.018 148.93 206.52 150.936C204.757 151.726 203.754 152.699 203.572 153.824C203.359 155.131 204.332 156.255 204.575 156.468C203.845 157.319 203.541 158.231 203.663 159.112C203.845 160.51 205.091 161.452 205.274 161.604C205.243 162.881 205.547 163.854 206.186 164.522C207.006 165.343 208.07 165.434 208.374 165.434C208.891 167.075 210.441 167.896 213.055 167.896C220.471 167.896 236.306 161.209 257.764 151.149C269.01 145.891 288.067 133.642 300.467 122.275L300.498 122.244V122.214C300.498 122.062 301.318 107.473 299.495 98.7499V98.7195L288.097 90.7563Z" fill="#333333"/>
<path d="M215.121 148.535C214.878 148.535 214.665 148.383 214.574 148.17C214.452 147.866 214.574 147.502 214.878 147.38L222.537 144.067C222.841 143.946 223.206 144.067 223.327 144.371C223.449 144.675 223.327 145.04 223.023 145.161L215.364 148.474C215.273 148.505 215.212 148.535 215.121 148.535Z" fill="#333333"/>
<path d="M205.274 157.288C205.031 157.288 204.788 157.137 204.697 156.893C204.575 156.589 204.758 156.225 205.062 156.103C205.153 156.073 213.45 153.003 219.742 149.964C220.046 149.812 220.41 149.933 220.562 150.237C220.714 150.541 220.593 150.906 220.289 151.058C213.967 154.128 205.578 157.228 205.487 157.258C205.426 157.288 205.335 157.288 205.274 157.288Z" fill="#333333"/>
<path d="M205.911 162.06C205.668 162.06 205.455 161.908 205.364 161.696C205.243 161.392 205.395 161.027 205.699 160.905C205.79 160.875 215.881 156.62 221.595 153.945C221.898 153.793 222.263 153.945 222.415 154.249C222.567 154.553 222.415 154.918 222.111 155.07C216.367 157.744 206.276 162 206.154 162.03C206.063 162.06 206.003 162.06 205.911 162.06Z" fill="#333333"/>
<path d="M208.92 165.252C208.677 165.252 208.434 165.1 208.343 164.826C208.252 164.522 208.404 164.158 208.738 164.066C208.829 164.036 218.768 160.753 224.057 158.14C224.361 157.988 224.725 158.109 224.877 158.413C225.029 158.717 224.908 159.082 224.604 159.234C219.224 161.908 209.224 165.191 209.103 165.221C209.042 165.252 208.981 165.252 208.92 165.252Z" fill="#333333"/>
<path d="M225.273 161.118C225.06 161.118 224.847 160.997 224.726 160.784L218.799 149.416C218.647 149.113 218.769 148.748 219.042 148.596C219.346 148.444 219.711 148.565 219.863 148.839L225.79 160.206C225.942 160.51 225.82 160.875 225.547 161.027C225.455 161.088 225.364 161.118 225.273 161.118Z" fill="#333333"/>
<path d="M285.939 78.9331L259.253 101.941C259.801 104.555 261.503 106.804 263.873 108.081C266.882 109.722 268.159 110.543 269.101 112.701L266.031 117.928C266.031 117.928 268.797 127.138 280.468 125.922L290.498 91.3034L285.939 78.9331Z" fill="#FF5573"/>
<path d="M269.071 113.309C268.949 113.309 268.858 113.278 268.736 113.217C268.463 113.035 268.371 112.67 268.554 112.366L279.587 94.8595C279.769 94.5859 280.134 94.4947 280.438 94.6771C280.711 94.8595 280.803 95.2242 280.62 95.5281L269.587 113.035C269.466 113.217 269.283 113.309 269.071 113.309Z" fill="#333333"/>
<path d="M309.464 93.5221L289.525 90.9386V90.9994C289.525 90.9994 286.212 102.61 281.562 118.962L297.519 129.326L328.733 123.186C317.822 106.379 309.707 93.9172 309.464 93.5221Z" fill="white"/>
<path d="M321.834 249.807C307.64 249.807 292.382 243.759 275.149 231.267C271.988 229.018 268.675 226.982 265.24 225.188C255.21 220.447 251.898 223.638 251.928 223.547C253.387 218.137 259.77 195.615 270.863 156.589L272.353 151.362C276.517 136.651 280.589 122.366 283.72 111.394V111.363H283.811C284.693 111.363 292.595 111.667 297.002 122.092C301.956 111.85 312.017 110.33 317.609 110.33C319.342 110.33 320.436 110.482 320.466 110.482H320.497V110.512C340.344 141.089 386.573 212.514 387.485 215.584C384.871 213.001 378.762 213.791 371.741 220.933C371.345 221.359 369.066 223.76 366.27 226.708C356.057 237.437 341.772 249.807 321.834 249.807Z" fill="#F696BB"/>
<path d="M296.85 122.791C296.607 122.791 296.394 122.639 296.303 122.427C291.896 111.91 283.993 111.971 283.659 111.971C283.325 111.971 283.051 111.728 283.051 111.394C283.051 111.059 283.294 110.786 283.629 110.755C283.993 110.755 292.078 110.634 296.911 120.785C300.589 114.129 306.515 111.485 310.983 110.452C316.059 109.266 320.223 109.874 320.405 109.904C320.74 109.965 320.952 110.269 320.922 110.604C320.861 110.938 320.557 111.151 320.223 111.12C320.193 111.12 316.059 110.543 311.226 111.667C304.783 113.157 300.133 116.804 297.428 122.488C297.306 122.67 297.093 122.791 296.85 122.791Z" fill="#333333"/>
<path d="M299.07 185.494C296.76 185.494 295.18 184.917 294.42 183.762L294.237 183.488H293.933C293.204 183.458 291.806 183.214 291.107 182.363C290.681 181.847 290.529 181.178 290.681 180.327L290.742 179.871L290.317 179.689C290.165 179.628 288.919 178.99 288.615 177.896C288.402 177.166 288.645 176.345 289.283 175.464L289.587 175.039L289.192 174.674C289.07 174.552 288.037 173.58 288.189 172.425C288.311 171.391 289.283 170.419 291.046 169.568L299.86 165.191L298.493 164.705C297.794 164.461 296.669 163.793 297.094 162.212C297.368 161.149 300.59 159.021 304.632 156.346C306.517 155.1 308.644 153.732 310.924 152.152C316.334 148.93 327.336 141.636 332.898 137.441L333.354 137.107L306.304 94.0693L308.796 91.577C326.151 98.8715 339.798 107.777 349.402 118.08C359.189 128.566 360.952 136.438 361.256 138.596C362.259 145.526 361.317 154.857 345.208 165.404C334.692 172.394 310.346 185.494 299.07 185.494Z" fill="white"/>
<path d="M308.947 92.276C326.029 99.5098 339.493 108.294 348.976 118.476C358.641 128.84 360.374 136.56 360.678 138.687C361.103 141.666 361.316 145.708 359.158 150.359C356.818 155.343 352.046 160.237 344.903 164.917C340.314 167.987 331.591 173.124 322.138 177.592C311.926 182.394 303.933 184.947 299.1 184.947C297.003 184.947 295.605 184.461 294.966 183.488L294.632 182.971L294.024 182.941C293.447 182.911 292.2 182.728 291.653 182.029C291.349 181.664 291.258 181.148 291.349 180.479L291.501 179.567L290.681 179.172C290.255 178.959 289.495 178.443 289.283 177.774C289.131 177.257 289.343 176.589 289.86 175.859L290.498 174.978L289.708 174.248C289.678 174.218 288.796 173.397 288.888 172.516C289.009 171.513 290.316 170.662 291.41 170.115L298.948 166.376L301.531 165.1L298.826 164.127C298.492 164.006 297.459 163.641 297.793 162.364C297.823 162.273 298.036 161.787 299.738 160.51C301.045 159.507 302.93 158.292 305.087 156.863C306.972 155.647 309.069 154.249 311.349 152.669C316.789 149.417 327.792 142.152 333.354 137.928L334.235 137.259L333.627 136.317L307.124 94.1605L308.947 92.276ZM308.644 90.8171L305.513 93.9477L332.533 136.925C327.001 141.119 316.029 148.383 310.589 151.605C308.309 153.185 306.182 154.583 304.297 155.799C299.799 158.747 296.82 160.693 296.486 162C295.909 164.218 297.732 165.039 298.279 165.221L290.742 168.96C288.766 169.932 287.702 171.057 287.55 172.303C287.368 173.732 288.523 174.856 288.736 175.069C287.976 176.133 287.702 177.105 287.976 178.017C288.34 179.354 289.739 180.084 290.012 180.206C289.86 181.239 290.043 182.09 290.59 182.728C291.623 183.944 293.599 184.035 293.872 184.066C294.754 185.372 296.486 186.041 299.039 186.041C310.467 186.041 334.965 172.881 345.542 165.829C361.924 155.1 362.866 145.556 361.833 138.444C361.529 136.226 359.705 128.202 349.827 117.594C340.101 107.169 326.272 98.1421 308.674 90.8171H308.644Z" fill="#333333"/>
<path d="M300.65 165.464C300.437 165.464 300.225 165.343 300.103 165.13C299.951 164.826 300.073 164.461 300.377 164.309L305.878 161.544C306.182 161.392 306.547 161.513 306.698 161.817C306.85 162.121 306.729 162.486 306.425 162.638L300.924 165.404C300.832 165.434 300.741 165.464 300.65 165.464Z" fill="#333333"/>
<path d="M289.83 175.707C289.556 175.707 289.313 175.525 289.252 175.282C289.161 174.947 289.343 174.613 289.647 174.522C295.057 172.911 301.531 169.902 304.905 168.23C305.209 168.078 305.574 168.2 305.726 168.504C305.878 168.808 305.756 169.172 305.452 169.324C302.048 170.996 295.483 174.035 290.012 175.677C289.951 175.707 289.89 175.707 289.83 175.707Z" fill="#333333"/>
<path d="M290.772 180.51C290.499 180.51 290.256 180.327 290.195 180.084C290.104 179.75 290.286 179.415 290.59 179.324C290.681 179.294 299.86 176.528 307.185 173.124C307.489 172.972 307.854 173.124 308.006 173.428C308.158 173.732 308.006 174.096 307.702 174.248C300.316 177.683 291.016 180.479 290.924 180.51C290.894 180.51 290.833 180.51 290.772 180.51Z" fill="#333333"/>
<path d="M294.571 184.035C294.297 184.035 294.024 183.822 293.963 183.549C293.902 183.214 294.115 182.911 294.449 182.85C294.51 182.85 300.376 181.725 309.069 177.5C309.373 177.348 309.737 177.47 309.889 177.774C310.041 178.078 309.92 178.443 309.616 178.595C300.771 182.911 294.936 184.005 294.692 184.065C294.632 184.035 294.601 184.035 294.571 184.035Z" fill="#333333"/>
<path d="M293.325 168.595C293.112 168.595 292.899 168.473 292.778 168.291L285.453 155.009C285.301 154.705 285.392 154.34 285.696 154.188C286 154.036 286.364 154.127 286.516 154.431L293.841 167.714C293.993 168.017 293.902 168.382 293.598 168.534C293.537 168.565 293.416 168.595 293.325 168.595Z" fill="#333333"/>
<path d="M283.781 163.276C283.72 163.276 283.66 163.276 283.599 163.246C283.265 163.155 283.113 162.79 283.204 162.486L285.696 154.583C285.757 154.431 285.848 154.31 286 154.219C286.152 154.158 286.304 154.128 286.456 154.188L294.176 156.833C294.48 156.954 294.662 157.289 294.541 157.592C294.419 157.896 294.085 158.079 293.781 157.957L286.638 155.526L284.328 162.82C284.268 163.124 284.024 163.276 283.781 163.276Z" fill="#333333"/>
<path d="M285.116 155.41C291.088 152.567 293.7 145.581 290.95 139.807C288.201 134.032 281.131 131.656 275.16 134.499C269.188 137.342 266.576 144.328 269.325 150.103C272.075 155.877 279.145 158.254 285.116 155.41Z" fill="#FF5573"/>
<path d="M280.134 146.012C280.722 146.012 281.198 145.536 281.198 144.949C281.198 144.361 280.722 143.885 280.134 143.885C279.547 143.885 279.07 144.361 279.07 144.949C279.07 145.536 279.547 146.012 280.134 146.012Z" fill="#333333"/>
<path d="M306.212 76.4713L347.061 94.8899C344.812 97.5646 343.231 100.695 342.441 104.099C340.709 111.911 338.46 113.613 334.782 114.828L330.162 110.543C323.415 113.309 324.023 122.214 312.351 121.302L302.808 86.0149L306.212 76.4713Z" fill="#FF5573"/>
<path d="M261.412 249.26C261.351 249.26 261.29 249.26 261.26 249.23L227.218 239.686C222.842 238.44 220.258 233.881 221.504 229.504C221.656 228.927 221.9 228.38 222.203 227.802L222.507 227.225C224.665 223.213 229.711 221.723 233.692 223.881C234.179 224.155 234.726 224.489 235.212 224.945L261.837 248.196C262.05 248.379 262.111 248.683 261.959 248.956C261.837 249.139 261.624 249.26 261.412 249.26ZM229.772 224.125C227.279 224.125 224.848 225.462 223.571 227.833L223.267 228.41C222.994 228.896 222.811 229.383 222.69 229.869C221.626 233.607 223.814 237.498 227.553 238.531L259.01 247.345L234.422 225.857C233.996 225.462 233.54 225.188 233.115 224.945C232.051 224.398 230.896 224.125 229.772 224.125Z" fill="#333333"/>
<path d="M233.084 260.597C233.024 260.597 232.963 260.597 232.872 260.567C232.568 260.445 232.385 260.111 232.507 259.807C234.786 253.212 240.531 249.108 249.163 247.953C255.606 247.072 261.259 248.136 261.503 248.166C261.533 248.166 261.563 248.166 261.563 248.197L269.375 250.659C269.709 250.75 269.861 251.114 269.77 251.418C269.679 251.753 269.314 251.905 269.01 251.813L261.229 249.352C260.743 249.26 255.272 248.349 249.284 249.139C241.048 250.263 235.789 253.971 233.662 260.202C233.571 260.445 233.327 260.597 233.084 260.597Z" fill="#333333"/>
<path d="M386.877 246.647C386.725 246.647 386.573 246.586 386.452 246.464C386.27 246.282 386.209 245.978 386.33 245.735L400.919 217.225C401.375 216.344 401.953 215.584 402.561 214.915C406.299 211.025 412.469 210.903 416.359 214.611L416.967 215.189C417.697 215.888 418.305 216.648 418.73 217.438C420.007 219.687 420.341 222.331 419.642 224.854C418.943 227.377 417.302 229.474 415.022 230.751L387.151 246.525C387.09 246.616 386.969 246.647 386.877 246.647ZM409.642 213.153C407.393 213.153 405.144 214.034 403.472 215.766C402.925 216.344 402.439 217.043 402.014 217.803L388.367 244.489L414.475 229.717C416.451 228.593 417.91 226.769 418.517 224.55C419.125 222.362 418.852 220.052 417.727 218.046C417.362 217.377 416.846 216.709 416.208 216.101L415.6 215.523C413.898 213.943 411.77 213.153 409.642 213.153Z" fill="#333333"/>
<path d="M388.336 259.473C388.184 259.473 388.063 259.412 387.941 259.321C387.698 259.108 387.668 258.713 387.881 258.47L393.503 252.057C393.716 251.813 394.111 251.783 394.354 251.996C394.598 252.209 394.628 252.604 394.415 252.847L388.792 259.26C388.671 259.412 388.519 259.473 388.336 259.473Z" fill="#333333"/>
<path d="M263.052 260.111C262.9 260.111 262.748 260.05 262.657 259.959L256.669 254.518C256.426 254.306 256.396 253.911 256.639 253.667C256.852 253.424 257.247 253.394 257.49 253.637L263.478 259.078C263.721 259.29 263.751 259.685 263.508 259.929C263.387 260.05 263.204 260.111 263.052 260.111Z" fill="#333333"/>
<path d="M380.07 252.117C379.887 252.117 379.705 252.026 379.583 251.874C379.37 251.601 379.431 251.236 379.674 251.023L386.452 245.704C386.604 245.583 386.817 245.552 387.03 245.613C392.045 247.224 396.452 246.434 400.707 245.674C406.056 244.701 411.102 243.82 416.117 248.288C416.36 248.5 416.39 248.896 416.177 249.139C415.965 249.382 415.57 249.412 415.326 249.199C410.767 245.127 406.208 245.947 400.95 246.89C396.847 247.619 392.197 248.47 386.999 246.89L380.465 251.996C380.343 252.087 380.191 252.117 380.07 252.117Z" fill="#333333"/>
<path d="M301.774 65.1039C308.136 65.1039 313.293 59.9465 313.293 53.5846C313.293 47.2227 308.136 42.0653 301.774 42.0653C295.412 42.0653 290.255 47.2227 290.255 53.5846C290.255 59.9465 295.412 65.1039 301.774 65.1039Z" fill="#333333"/>
<path d="M308.339 96.0754C304.661 96.0754 301.652 93.0664 301.652 89.3887C301.652 85.7111 304.661 82.7021 308.339 82.7021C312.017 82.7021 315.026 85.7111 315.026 89.3887C315.026 93.0664 312.017 96.0754 308.339 96.0754Z" fill="white"/>
<path d="M308.339 83.2794C311.682 83.2794 314.418 86.0149 314.418 89.3582C314.418 92.7015 311.682 95.437 308.339 95.437C304.996 95.437 302.26 92.7015 302.26 89.3582C302.26 86.0149 304.996 83.2794 308.339 83.2794ZM308.339 82.0637C304.297 82.0637 301.044 85.3462 301.044 89.3582C301.044 93.3702 304.327 96.6527 308.339 96.6527C312.351 96.6527 315.633 93.3702 315.633 89.3582C315.633 85.3462 312.381 82.0637 308.339 82.0637Z" fill="#333333"/>
<path d="M309.464 90.878C309.373 90.878 309.312 90.878 309.221 90.8172L304.419 88.8416C304.115 88.72 303.963 88.3553 304.084 88.0514C304.206 87.7474 304.571 87.5954 304.875 87.717L309.677 89.6926C309.981 89.8142 310.133 90.1789 310.011 90.4829C309.92 90.726 309.707 90.878 309.464 90.878Z" fill="#333333"/>
<path d="M295.179 97.5645C290.255 97.5645 285.088 92.7622 282.322 85.6197C278.675 76.076 279.405 66.9882 284.055 64.4656C286.03 63.4018 288.219 62.8547 290.59 62.8547C296.577 62.8547 301.683 66.3196 301.744 66.35C305.118 68.7511 306.85 71.365 307.306 74.7995C307.823 78.6595 306.729 83.5529 303.902 90.2699C301.926 94.981 298.826 97.5645 295.179 97.5645Z" fill="white"/>
<path d="M290.62 62.2468V63.4626C296.304 63.4626 301.228 66.7147 301.441 66.8363C307.003 70.7875 309.282 76.0456 303.386 89.9964C301.501 94.4643 298.584 96.9566 295.21 96.9566C290.529 96.9566 285.575 92.3064 282.931 85.3766C281.137 80.7567 280.378 76.076 280.742 72.216C281.077 68.6295 282.384 66.0765 284.39 64.9823C286.274 63.9489 288.371 63.4322 290.651 63.4322L290.62 62.2468ZM290.62 62.2468C288.402 62.2468 286.061 62.7027 283.782 63.9489C278.919 66.5932 277.946 75.8329 281.776 85.8629C284.754 93.5829 290.134 98.2028 295.179 98.2028C298.796 98.2028 302.231 95.8321 304.48 90.5131C310.316 76.6839 308.613 70.4836 302.109 65.8637C302.109 65.8333 296.851 62.2468 290.62 62.2468Z" fill="#333333"/>
<path d="M302.109 65.8333C307.762 69.8453 309.768 75.0426 306.395 85.407C296.334 81.395 296.699 67.505 296.699 67.505C288.31 74.0093 279.405 73.6141 279.405 73.6141C279.526 68.9943 281.046 65.4382 283.751 63.9489C292.444 59.2378 302.109 65.8333 302.109 65.8333Z" fill="#333333"/>
<path d="M288.097 84.6167C288.006 84.6167 287.945 84.5863 287.854 84.5559C287.276 84.3128 286.729 83.8265 286.395 83.249C285.878 82.3676 285.818 80.9087 286.061 77.6261C286.091 77.2918 286.395 77.0486 286.729 77.079C287.064 77.1094 287.307 77.4134 287.276 77.7477C287.033 80.6047 287.094 82.0636 287.428 82.6411C287.641 83.0058 287.976 83.3098 288.34 83.4618C288.644 83.5833 288.796 83.9481 288.644 84.252C288.553 84.4951 288.34 84.6167 288.097 84.6167Z" fill="#333333"/>
<path d="M291.653 79.9664C291.319 79.9664 291.045 79.7233 291.045 79.389L291.015 78.6291C291.015 78.2948 291.258 78.0212 291.592 77.9908C291.926 77.9908 292.2 78.234 292.23 78.5683L292.261 79.3282C292.261 79.6625 292.018 79.9664 291.653 79.9664C291.683 79.9664 291.653 79.9664 291.653 79.9664Z" fill="#333333"/>
<path d="M283.295 78.4468C282.961 78.4468 282.687 78.2037 282.687 77.8694L282.657 77.1399C282.657 76.8056 282.9 76.532 283.234 76.5016C283.569 76.4712 283.842 76.7448 283.872 77.0791L283.903 77.8086C283.903 78.1429 283.66 78.4468 283.295 78.4468C283.325 78.4468 283.295 78.4468 283.295 78.4468Z" fill="#333333"/>
<path d="M290.59 88.3552C290.498 88.3552 290.407 88.3552 290.316 88.3248C290.255 88.3248 290.195 88.3248 290.134 88.3248C289.799 88.3248 289.526 88.0513 289.526 87.7169C289.526 87.3826 289.799 87.1091 290.134 87.1091C290.225 87.1091 290.316 87.1091 290.407 87.1395C290.468 87.1395 290.529 87.1395 290.59 87.1395C291.623 87.1395 292.444 86.3188 292.444 85.3158C292.444 84.9815 292.717 84.7079 293.052 84.7079C293.386 84.7079 293.659 84.9815 293.659 85.3158C293.659 86.9875 292.292 88.3552 290.59 88.3552Z" fill="#333333"/>
<path d="M329.889 111.303C329.737 111.303 329.585 111.242 329.463 111.12L316.789 99.0235C316.546 98.7804 316.546 98.4156 316.758 98.1725C317.002 97.9293 317.366 97.9293 317.61 98.1421L330.284 110.239C330.527 110.482 330.527 110.847 330.314 111.09C330.193 111.242 330.041 111.303 329.889 111.303Z" fill="#333333"/>
<path d="M333.141 100.513C333.05 100.513 332.959 100.482 332.867 100.452L314.753 90.9388C314.449 90.7868 314.327 90.4221 314.51 90.1181C314.692 89.8142 315.026 89.6926 315.33 89.875L333.445 99.3883C333.749 99.5402 333.87 99.905 333.688 100.209C333.566 100.391 333.354 100.513 333.141 100.513Z" fill="#333333"/>
<path d="M305.634 66.3196C303.658 66.3196 301.379 65.894 298.613 64.7695C298.309 64.6479 298.157 64.2832 298.279 63.9792C298.4 63.6753 298.765 63.5233 299.069 63.6449C304.935 66.0764 308.309 65.0126 311.834 63.8577C314.57 62.9762 317.427 62.034 321.5 62.6419C321.834 62.7027 322.077 63.0066 322.016 63.341C321.956 63.6753 321.652 63.9184 321.317 63.8577C317.518 63.3106 314.813 64.192 312.199 65.043C310.224 65.6509 308.157 66.3196 305.634 66.3196Z" fill="#333333"/>
<path d="M328.673 75.4985C328.552 75.4985 328.4 75.4681 328.278 75.377C323.78 71.6993 320.132 71.6081 316.242 71.4865C311.592 71.365 306.334 71.1826 299.009 64.8911C298.766 64.6783 298.735 64.2832 298.948 64.04C299.161 63.7969 299.556 63.7665 299.799 63.9793C306.79 70.0276 311.622 70.1492 316.272 70.3012C320.345 70.4227 324.205 70.5443 329.038 74.4651C329.311 74.6779 329.342 75.073 329.129 75.3162C329.038 75.4073 328.856 75.4985 328.673 75.4985Z" fill="#333333"/>
<path d="M336.514 248.136C336.302 248.136 336.119 248.044 335.998 247.832C333.566 243.789 325.117 241.844 325.025 241.814C324.721 241.753 324.539 241.479 324.539 241.175C324.57 240.872 324.782 240.628 325.086 240.598C325.208 240.598 337.548 239.413 340.861 234.337C341.742 233 341.894 231.541 341.317 229.869C340.982 228.866 340.314 228.167 339.28 227.681C334.022 225.249 321.925 229.96 321.804 229.991C321.561 230.082 321.287 230.021 321.105 229.808C320.953 229.595 320.922 229.322 321.074 229.079C321.165 228.957 329.98 215.857 327.822 209.383C327.335 207.894 326.302 206.922 324.691 206.374C322.837 205.767 321.105 205.919 319.403 206.891C312.625 210.751 309.373 225.887 309.312 226.039C309.251 226.313 309.038 226.495 308.765 226.526C308.491 226.556 308.248 226.404 308.157 226.161C308.096 226.039 302.929 214.003 297.276 212.271C296.03 211.876 294.905 212.028 293.781 212.757C292.322 213.669 291.562 214.854 291.41 216.374C290.863 222.119 299.464 230.264 299.555 230.325C299.738 230.507 299.798 230.811 299.677 231.054C299.555 231.297 299.282 231.419 299.008 231.389C289.829 229.656 284.328 231.085 282.2 235.765C282.048 236.069 281.714 236.191 281.38 236.069C281.076 235.917 280.954 235.583 281.076 235.249C284.146 228.562 292.717 229.139 297.337 229.869C294.814 227.194 289.708 221.146 290.164 216.283C290.346 214.398 291.319 212.848 293.112 211.754C294.51 210.873 296.03 210.66 297.61 211.146C302.534 212.666 306.819 220.629 308.522 224.125C309.616 219.9 312.898 209.262 318.764 205.888C320.74 204.764 322.867 204.551 325.025 205.28C327.001 205.949 328.308 207.226 328.946 209.049C330.861 214.763 325.39 224.52 323.05 228.288C326.697 227.042 335.268 224.52 339.797 226.617C341.134 227.225 342.046 228.228 342.471 229.535C343.14 231.541 342.958 233.395 341.864 235.036C339.28 239.018 332.107 240.75 328.065 241.449C330.952 242.422 335.268 244.276 337.031 247.224C337.213 247.497 337.122 247.893 336.818 248.044C336.727 248.105 336.636 248.136 336.514 248.136Z" fill="#333333"/>
<path d="M273.356 230.599C273.295 230.599 273.234 230.599 273.174 230.568C272.839 230.477 272.687 230.112 272.778 229.808C274.724 223.669 262.201 218.319 262.049 218.259C261.776 218.137 261.624 217.833 261.685 217.529C261.776 217.225 262.049 217.043 262.353 217.073C262.475 217.073 274.268 218.502 278.584 214.338C279.739 213.213 280.255 211.815 280.073 210.022C279.921 208.32 279.222 206.983 277.915 205.98C273.781 202.758 265.21 204.126 265.119 204.126C264.846 204.156 264.572 204.034 264.481 203.791C264.359 203.548 264.451 203.244 264.633 203.062C264.724 203.001 273.082 196.041 273.69 189.658C273.873 187.865 273.386 186.254 272.262 184.886C271.107 183.488 269.557 183.245 268.432 183.275C266.365 183.336 264.086 184.43 262.992 185.889C262.779 186.163 262.414 186.224 262.141 186.011C261.867 185.798 261.806 185.433 262.019 185.16C263.326 183.397 265.94 182.12 268.402 182.029C270.377 181.968 272.049 182.698 273.204 184.096C274.541 185.707 275.119 187.622 274.906 189.749C274.42 194.977 269.405 200.296 266.852 202.697C269.769 202.454 275.332 202.423 278.644 205.007C280.195 206.223 281.106 207.864 281.289 209.9C281.471 212.028 280.863 213.821 279.435 215.189C276.152 218.35 269.374 218.623 265.362 218.471C269.253 220.599 275.544 224.945 273.903 230.082C273.842 230.447 273.629 230.599 273.356 230.599Z" fill="#333333"/>
<path d="M354.112 238.288C353.96 238.288 353.808 238.227 353.687 238.106C351.103 235.613 350.009 232.878 350.374 229.96C351.134 224.094 357.699 219.201 360.525 217.347C355.754 216.161 341.164 211.845 342.411 203.852C342.745 201.785 343.778 200.205 345.511 199.11C349.979 196.314 357.972 197.652 362.106 198.594C357.851 194.795 348.915 185.646 352.988 178.686C353.687 177.5 356.453 173.823 363.382 176.315C363.686 176.437 363.869 176.771 363.747 177.105C363.626 177.409 363.291 177.592 362.957 177.47C358.884 175.981 355.541 176.68 354.021 179.294C349.432 187.226 364.781 199.262 364.932 199.384C365.176 199.566 365.236 199.87 365.084 200.144C364.963 200.417 364.659 200.539 364.355 200.448C364.233 200.417 351.711 196.618 346.119 200.144C344.69 201.056 343.87 202.332 343.596 204.034C342.958 208.229 347.942 211.359 352.258 213.274C357.091 215.402 362.167 216.465 362.197 216.496C362.44 216.557 362.623 216.739 362.683 216.982C362.714 217.225 362.592 217.468 362.379 217.59C362.288 217.651 352.41 223.334 351.559 230.082C351.225 232.604 352.228 235.006 354.507 237.194C354.751 237.437 354.751 237.802 354.507 238.045C354.416 238.227 354.264 238.288 354.112 238.288Z" fill="#333333"/>
<path d="M332.016 138.809C331.834 138.809 331.651 138.718 331.53 138.566C331.317 138.292 331.378 137.927 331.651 137.715L338.703 132.487C338.976 132.274 339.341 132.335 339.554 132.609C339.767 132.882 339.706 133.247 339.432 133.46L332.381 138.687C332.259 138.779 332.138 138.809 332.016 138.809Z" fill="#333333"/>
<path d="M209.985 46.8977C206.459 30.6674 183.451 34.801 191.384 53.8275C198.709 69.1156 208.04 86.6529 209.833 89.9962C209.894 90.1178 209.955 90.209 209.985 90.2698C210.015 90.1786 210.076 90.0874 210.137 89.9962C211.93 86.6529 221.261 69.1156 228.586 53.8275C236.488 34.801 213.511 30.6674 209.985 46.8977Z" fill="#FF5573"/>
<path d="M241.899 37.3844L225.638 13.6468C224.24 11.6104 225.942 8.81421 228.374 9.23972C229.346 9.39169 230.41 9.93879 231.504 11.1241C231.504 11.1241 234.969 7.90239 239.011 12.8262C239.011 12.8262 242.932 11.033 246.762 16.1087C250.288 20.759 251.807 23.0993 251.807 23.0993L241.899 37.3844Z" fill="#B666D2"/>
<path d="M245.394 31.8223C245.212 31.8223 244.999 31.7311 244.908 31.5487L231.018 11.3976C230.835 11.124 230.896 10.7289 231.17 10.5466C231.443 10.3642 231.838 10.425 232.021 10.6985L245.911 30.8497C246.093 31.1232 246.032 31.5183 245.759 31.7007C245.637 31.7919 245.516 31.8223 245.394 31.8223Z" fill="#333333"/>
<path d="M248.13 26.625C247.947 26.625 247.735 26.5338 247.643 26.3515L238.495 13.0693C238.313 12.7958 238.373 12.4007 238.647 12.2183C238.92 12.036 239.315 12.0967 239.498 12.3703L248.646 25.6524C248.829 25.926 248.768 26.3211 248.494 26.5034C248.373 26.5946 248.251 26.625 248.13 26.625Z" fill="#333333"/>
<path d="M236.793 43.2505C235.152 43.2505 233.663 42.2779 233.024 40.7582C232.204 38.7826 232.964 36.5638 234.848 35.5304L242.842 31.2145L245.486 2.64424C245.607 1.30691 246.762 0.577454 247.765 0.577454C248.191 0.577454 248.829 0.699032 249.346 1.30691C249.984 2.03636 250.349 3.06975 250.41 4.37669L250.44 4.98457L251.048 4.95417H251.109C251.777 4.95417 255.121 5.22772 255.121 10.4555V10.9114L255.577 11.0329C255.729 11.0633 259.254 12.1271 259.011 17.902C258.95 19.1481 258.889 20.3639 258.829 21.5188L258.768 22.613L273.813 14.5282C274.269 14.2851 274.785 14.1635 275.302 14.1635C276.153 14.1635 276.943 14.4979 277.521 15.0753L280.773 18.3275C281.077 18.6314 281.29 18.9961 281.351 19.4217C281.594 20.5766 280.834 21.7012 279.679 21.9443L269.679 23.92C268.16 24.2239 266.974 25.3485 266.579 26.8378C266.427 27.4152 266.275 28.0535 266.123 28.7526C265.242 32.7342 264.026 38.2355 258.494 41.2445C256.58 42.3083 254.209 42.8249 251.473 42.8249C249.012 42.8249 246.793 42.3994 245.334 42.0347C244.665 41.8523 243.997 41.7915 243.297 41.7915C242.477 41.7915 241.687 41.9131 240.896 42.1563L237.979 43.0377C237.614 43.1897 237.219 43.2505 236.793 43.2505Z" fill="white"/>
<path d="M247.795 1.21575C248.099 1.21575 248.555 1.30694 248.92 1.73245C249.467 2.37072 249.771 3.28254 249.832 4.43751L249.862 5.65326L251.078 5.59247H251.108C251.26 5.59247 252.142 5.62286 252.932 6.20035C253.965 6.96019 254.512 8.4191 254.512 10.4555V11.3977L255.424 11.6409C255.455 11.6409 258.646 12.5527 258.403 17.902C258.342 19.1481 258.281 20.3639 258.22 21.5189L258.099 23.6768L260.014 22.6434L274.086 15.0754C274.451 14.8626 274.876 14.7714 275.271 14.7714C275.94 14.7714 276.578 15.045 277.065 15.5009L280.317 18.753C280.53 18.9658 280.681 19.2393 280.742 19.5433C280.833 19.9384 280.742 20.3639 280.499 20.6982C280.256 21.0326 279.922 21.2757 279.526 21.3365L269.527 23.3121C267.794 23.6464 266.427 24.9534 265.94 26.6554C265.788 27.2329 265.637 27.9016 265.485 28.6006C264.634 32.491 263.448 37.81 258.16 40.6974C256.306 41.7004 254.056 42.2171 251.443 42.2171C249.072 42.2171 246.853 41.7916 245.455 41.4268C244.726 41.2445 243.996 41.1533 243.267 41.1533C242.385 41.1533 241.534 41.2749 240.683 41.5484L237.765 42.4298C237.431 42.521 237.097 42.5818 236.762 42.5818C235.364 42.5818 234.118 41.7612 233.541 40.4542C232.842 38.7826 233.51 36.8678 235.091 36.0167L242.811 31.8528L243.388 31.5488L243.449 30.9106L246.063 2.67466C246.215 1.73245 247.066 1.21575 247.795 1.21575ZM247.795 0C246.428 0 245.06 1.003 244.908 2.61387L242.294 30.8498L234.574 35.0137C232.446 36.1687 231.535 38.7522 232.477 41.0013C233.237 42.7642 234.969 43.8583 236.793 43.8583C237.249 43.8583 237.705 43.7976 238.16 43.6456L241.078 42.7642C241.808 42.5514 242.568 42.4298 243.297 42.4298C243.935 42.4298 244.574 42.521 245.181 42.673C246.701 43.0681 248.981 43.4936 251.473 43.4936C253.874 43.4936 256.488 43.0985 258.767 41.822C265.515 38.1139 266.123 30.8194 267.126 27.0505C267.46 25.8044 268.494 24.8318 269.77 24.5886L279.77 22.613C281.259 22.3091 282.232 20.8806 281.928 19.3913C281.836 18.8442 281.563 18.3579 281.168 17.9932L277.916 14.741C277.186 14.0116 276.244 13.6468 275.271 13.6468C274.663 13.6468 274.056 13.7988 273.509 14.1028L259.436 21.6708C259.497 20.6374 259.558 19.4217 259.619 18.0236C259.892 11.6409 255.728 10.5467 255.728 10.5467C255.728 4.68066 251.747 4.43751 251.108 4.43751C251.047 4.43751 251.017 4.43751 251.017 4.43751C250.926 2.82663 250.47 1.73245 249.832 1.003C249.285 0.30394 248.525 0 247.795 0Z" fill="#333333"/>
<path d="M249.042 22.9777C249.011 22.9777 249.011 22.9777 248.981 22.9777C248.646 22.9473 248.403 22.6434 248.434 22.309L249.923 4.74137C249.953 4.40703 250.257 4.16388 250.592 4.19428C250.926 4.22467 251.169 4.52861 251.139 4.86294L249.649 22.4306C249.619 22.7345 249.346 22.9777 249.042 22.9777Z" fill="#333333"/>
<path d="M254.33 20.5766C254.3 20.5766 254.3 20.5766 254.269 20.5766C253.935 20.5463 253.692 20.2423 253.722 19.908L254.543 10.6682C254.573 10.3339 254.877 10.0908 255.212 10.1212C255.546 10.1516 255.789 10.4555 255.759 10.7898L254.938 20.0296C254.908 20.3335 254.634 20.5766 254.33 20.5766Z" fill="#333333"/>
<path d="M230.258 46.0163C230.136 46.0163 230.045 45.9859 229.923 45.9251C229.65 45.7427 229.559 45.378 229.741 45.074L231.413 42.4906L227.34 43.4936C227.006 43.5847 226.671 43.372 226.611 43.0377C226.519 42.7033 226.732 42.369 227.066 42.3082L232.629 40.9405C232.872 40.8797 233.115 40.9709 233.267 41.1836C233.419 41.3964 233.419 41.6699 233.297 41.8523L230.805 45.7123C230.653 45.9251 230.471 46.0163 230.258 46.0163Z" fill="#333333"/>
<path d="M236.823 38.9954C236.58 38.9954 236.367 38.8435 236.245 38.6003L236.063 38.1444C235.941 37.8405 236.093 37.4757 236.397 37.3542C236.701 37.2326 237.066 37.3846 237.188 37.6885L237.37 38.1444C237.491 38.4483 237.34 38.8131 237.036 38.9346C236.975 38.9954 236.884 38.9954 236.823 38.9954Z" fill="#333333"/>
<path d="M258.403 28.7222H258.372C258.038 28.6918 257.795 28.4183 257.795 28.0839L258.19 22.2179C258.22 21.8836 258.494 21.6404 258.828 21.6404C259.163 21.6708 259.406 21.9444 259.406 22.2787L259.011 28.1447C258.98 28.4791 258.707 28.7222 258.403 28.7222Z" fill="#333333"/>
<path d="M273.782 19.1482C273.539 19.1482 273.295 18.9962 273.204 18.753C273.083 18.4491 273.235 18.0844 273.569 17.9628L278.675 16.0176C278.979 15.896 279.344 16.048 279.465 16.3823C279.587 16.6863 279.435 17.051 279.101 17.1726L273.994 19.1178C273.934 19.1482 273.842 19.1482 273.782 19.1482Z" fill="#333333"/>
<path d="M178.071 37.3844L194.332 13.6468C195.73 11.6104 194.028 8.81421 191.596 9.23972C190.624 9.39169 189.56 9.93879 188.466 11.1241C188.466 11.1241 185.001 7.90239 180.958 12.8262C180.958 12.8262 177.038 11.033 173.208 16.1087C169.682 20.759 168.163 23.0993 168.163 23.0993L178.071 37.3844Z" fill="#B666D2"/>
<path d="M174.576 31.8223C174.454 31.8223 174.333 31.7919 174.242 31.7007C173.968 31.5183 173.907 31.1232 174.09 30.8497L187.949 10.6985C188.132 10.425 188.527 10.3642 188.8 10.5466C189.074 10.7289 189.135 11.124 188.952 11.3976L175.062 31.5487C174.971 31.7311 174.758 31.8223 174.576 31.8223Z" fill="#333333"/>
<path d="M171.81 26.625C171.689 26.625 171.567 26.5946 171.476 26.5034C171.202 26.3211 171.142 25.926 171.324 25.6524L180.473 12.3703C180.655 12.0967 181.05 12.036 181.324 12.2183C181.597 12.4007 181.658 12.7958 181.476 13.0693L172.327 26.3515C172.205 26.5338 171.993 26.625 171.81 26.625Z" fill="#333333"/>
<path d="M183.147 43.2504C182.752 43.2504 182.357 43.1897 181.962 43.0681L179.044 42.1867C178.254 41.9435 177.464 41.8219 176.643 41.8219C175.944 41.8219 175.275 41.9131 174.607 42.0651C173.148 42.4298 170.898 42.8553 168.467 42.8553C165.732 42.8553 163.391 42.3082 161.446 41.2748C155.945 38.2659 154.729 32.7646 153.817 28.783C153.665 28.0839 153.513 27.4456 153.361 26.8682C152.966 25.3789 151.781 24.2543 150.261 23.9503L140.261 21.9747C139.106 21.7316 138.347 20.607 138.59 19.452C138.681 19.0265 138.863 18.6618 139.167 18.3579L142.419 15.1057C143.027 14.5282 143.787 14.1939 144.638 14.1939C145.155 14.1939 145.672 14.3155 146.127 14.5586L161.172 22.6434L161.112 21.5492C161.051 20.3943 160.99 19.1785 160.929 17.9324C160.686 12.1575 164.212 11.0937 164.364 11.0633L164.82 10.9418V10.4859C164.82 5.25811 168.163 4.98456 168.832 4.98456H168.892L169.5 5.01496L169.531 4.40708C169.592 3.10015 169.956 2.06675 170.595 1.3373C171.111 0.729423 171.75 0.607849 172.175 0.607849C173.178 0.607849 174.333 1.3373 174.455 2.67463L177.099 31.2449L185.092 35.5608C186.977 36.5638 187.767 38.8129 186.916 40.7582C186.278 42.2475 184.788 43.2504 183.147 43.2504Z" fill="white"/>
<path d="M172.144 1.21575C172.874 1.21575 173.725 1.73245 173.816 2.70505L176.43 30.941L176.49 31.5792L177.068 31.8832L184.788 36.0471C186.399 36.8982 187.068 38.813 186.338 40.4846C185.791 41.7612 184.514 42.6122 183.116 42.6122C182.782 42.6122 182.448 42.5514 182.113 42.4602L179.195 41.5788C178.344 41.3357 177.493 41.1837 176.612 41.1837C175.883 41.1837 175.153 41.2749 174.424 41.4572C172.995 41.822 170.807 42.2475 168.436 42.2475C165.822 42.2475 163.543 41.7308 161.719 40.7278C156.461 37.8404 155.276 32.5214 154.394 28.631C154.242 27.932 154.09 27.2633 153.938 26.6858C153.482 24.9534 152.115 23.6768 150.352 23.3425L140.352 21.3669C139.957 21.2757 139.592 21.063 139.38 20.7286C139.167 20.3943 139.076 19.9688 139.136 19.5737C139.197 19.2697 139.349 18.9962 139.562 18.7834L142.814 15.5313C143.3 15.045 143.939 14.8018 144.607 14.8018C145.033 14.8018 145.428 14.893 145.793 15.1058L159.865 22.6738L161.78 23.7072L161.658 21.5493C161.597 20.3943 161.537 19.1785 161.476 17.9324C161.385 15.6832 161.871 13.9508 162.904 12.7654C163.634 11.9448 164.363 11.7016 164.485 11.6712L165.366 11.4585V10.4859C165.366 5.9572 167.98 5.59247 168.77 5.59247L169.986 5.65326L170.047 4.43751C170.108 3.28254 170.412 2.37072 170.959 1.73245C171.415 1.30694 171.84 1.21575 172.144 1.21575ZM172.144 0C171.415 0 170.655 0.303941 170.108 0.942212C169.469 1.70206 168.983 2.79623 168.922 4.37672C168.922 4.37672 168.892 4.37672 168.831 4.37672C168.193 4.37672 164.211 4.61987 164.211 10.4859C164.211 10.4859 160.047 11.5801 160.321 17.9628C160.382 19.3609 160.442 20.5463 160.503 21.61L146.431 14.042C145.884 13.738 145.276 13.5861 144.668 13.5861C143.695 13.5861 142.753 13.9508 142.024 14.6802L138.741 17.9324C138.346 18.3275 138.103 18.8138 137.981 19.3305C137.677 20.8198 138.65 22.2483 140.139 22.5523L150.139 24.5279C151.416 24.771 152.449 25.7436 152.783 26.9898C153.817 30.7586 154.394 38.0835 161.142 41.7612C163.451 43.0073 166.035 43.4328 168.436 43.4328C170.928 43.4328 173.208 43.0073 174.728 42.6122C175.335 42.4602 175.974 42.3691 176.612 42.3691C177.372 42.3691 178.101 42.4906 178.831 42.7034L181.749 43.5848C182.204 43.7368 182.66 43.7976 183.116 43.7976C184.97 43.7976 186.703 42.7034 187.432 40.9405C188.374 38.6914 187.463 36.1079 185.335 34.953L177.615 30.789L175.001 2.55308C174.88 1.003 173.512 0 172.144 0Z" fill="#333333"/>
<path d="M170.898 22.9777C170.595 22.9777 170.321 22.7345 170.291 22.4306L168.832 4.86294C168.801 4.52861 169.044 4.22467 169.379 4.19428C169.713 4.16388 170.017 4.40703 170.047 4.74137L171.506 22.309C171.537 22.6434 171.294 22.9473 170.959 22.9777C170.929 22.9777 170.929 22.9777 170.898 22.9777Z" fill="#333333"/>
<path d="M165.64 20.5766C165.336 20.5766 165.063 20.3335 165.032 20.0296L164.181 10.7898C164.151 10.4555 164.394 10.1516 164.728 10.1212C165.063 10.0908 165.367 10.3339 165.397 10.6682L166.248 19.908C166.278 20.2423 166.035 20.5463 165.701 20.5766C165.671 20.5766 165.671 20.5766 165.64 20.5766Z" fill="#333333"/>
<path d="M189.712 46.0163C189.5 46.0163 189.317 45.9251 189.196 45.7428L186.703 41.8828C186.582 41.67 186.582 41.3965 186.734 41.2141C186.886 41.0013 187.129 40.9102 187.372 40.9709L192.904 42.3387C193.238 42.4298 193.42 42.7338 193.36 43.0681C193.299 43.4025 192.965 43.5848 192.63 43.524L188.588 42.521L190.26 45.1045C190.442 45.3781 190.351 45.7732 190.077 45.9555C189.925 45.9859 189.834 46.0163 189.712 46.0163Z" fill="#333333"/>
<path d="M183.147 38.9953C183.086 38.9953 182.995 38.9953 182.934 38.9649C182.63 38.8433 182.478 38.4786 182.6 38.1747L182.782 37.7188C182.904 37.4148 183.269 37.2629 183.573 37.3844C183.877 37.506 184.029 37.8707 183.907 38.1747L183.725 38.6306C183.603 38.8433 183.39 38.9953 183.147 38.9953Z" fill="#333333"/>
<path d="M161.537 28.7222C161.233 28.7222 160.959 28.4791 160.929 28.1447L160.534 22.2787C160.503 21.9444 160.777 21.6404 161.111 21.6404C161.445 21.61 161.749 21.8836 161.749 22.2179L162.144 28.0839C162.175 28.4183 161.901 28.7222 161.567 28.7222H161.537Z" fill="#333333"/>
<path d="M146.188 19.1481C146.127 19.1481 146.036 19.1481 145.975 19.1177L140.869 17.1725C140.565 17.051 140.383 16.7166 140.504 16.3823C140.626 16.0784 140.96 15.896 141.295 16.0176L146.401 17.9628C146.705 18.0844 146.887 18.4187 146.766 18.753C146.674 18.9962 146.431 19.1481 146.188 19.1481Z" fill="#333333"/>
</svg>
