<svg width="420" height="230" viewBox="0 0 420 230" fill="none" xmlns="http://www.w3.org/2000/svg">
<path d="M296.117 135.04H124.128C115.517 135.04 108.531 128.054 108.531 119.444V15.7846C108.531 7.17444 115.517 0.188232 124.128 0.188232H296.117C304.727 0.188232 311.714 7.17444 311.714 15.7846V119.444C311.714 128.054 304.727 135.04 296.117 135.04ZM124.128 1.41388C116.192 1.41388 109.757 7.84855 109.757 15.7846V119.444C109.757 127.38 116.192 133.815 124.128 133.815H296.117C304.053 133.815 310.488 127.38 310.488 119.444V15.7846C310.488 7.84855 304.053 1.41388 296.117 1.41388H124.128Z" fill="#333333"/>
<path d="M210.107 83.0421C197.698 83.0421 187.586 72.9305 187.586 60.5208C187.586 48.1111 197.698 37.9995 210.107 37.9995C222.517 37.9995 232.629 48.1111 232.629 60.5208C232.629 72.9305 222.517 83.0421 210.107 83.0421ZM210.107 39.2251C198.372 39.2251 188.812 48.7852 188.812 60.5208C188.812 72.2564 198.372 81.8165 210.107 81.8165C221.843 81.8165 231.403 72.2564 231.403 60.5208C231.403 48.7852 221.843 39.2251 210.107 39.2251Z" fill="#333333"/>
<path d="M207.656 68.9166C205.726 68.9166 204.132 67.3233 204.132 65.3929V55.7102C204.132 55.1281 204.286 54.5459 204.592 53.9637C205.542 52.2784 207.717 51.6962 209.403 52.6461L217.798 57.4874C218.35 57.7939 218.809 58.2535 219.116 58.805C219.576 59.6017 219.698 60.5516 219.453 61.4708C219.208 62.39 218.626 63.1254 217.798 63.585L209.403 68.4264C208.912 68.7634 208.3 68.9166 207.656 68.9166ZM207.656 53.3815C206.859 53.3815 206.093 53.7799 205.664 54.5152C205.45 54.9136 205.358 55.3119 205.358 55.6796V65.3622C205.358 66.6185 206.4 67.6603 207.656 67.6603C208.085 67.6603 208.453 67.5684 208.82 67.3539L217.216 62.5126C217.737 62.2062 218.135 61.7159 218.289 61.1337C218.442 60.5209 218.381 59.9081 218.074 59.3566C217.89 58.9889 217.584 58.7131 217.247 58.5292C217.247 58.5292 217.247 58.5292 217.216 58.5292L208.82 53.6879C208.453 53.5041 208.054 53.3815 207.656 53.3815Z" fill="#333333"/>
<path d="M388.286 95.5742H356.725V126.828H388.286V95.5742Z" fill="white"/>
<path d="M387.673 96.1872V126.216H357.338V96.1872H387.673ZM388.899 94.9615H356.113V127.441H388.899V94.9615Z" fill="#333333"/>
<path d="M372.505 111.508C381.221 111.508 388.286 104.442 388.286 95.7273C388.286 87.0121 381.221 79.947 372.505 79.947C363.79 79.947 356.725 87.0121 356.725 95.7273C356.725 104.442 363.79 111.508 372.505 111.508Z" fill="white"/>
<path d="M372.506 80.5599C380.871 80.5599 387.673 87.3622 387.673 95.7273C387.673 104.092 380.871 110.895 372.506 110.895C364.141 110.895 357.338 104.092 357.338 95.7273C357.338 87.3622 364.141 80.5599 372.506 80.5599ZM372.506 79.3342C363.467 79.3342 356.113 86.6881 356.113 95.7273C356.113 104.766 363.467 112.12 372.506 112.12C381.545 112.12 388.899 104.766 388.899 95.7273C388.899 86.6881 381.545 79.3342 372.506 79.3342Z" fill="#333333"/>
<path d="M380.933 127.135C380.596 127.135 380.32 126.859 380.32 126.522V109.363C380.32 109.026 380.596 108.75 380.933 108.75C381.27 108.75 381.545 109.026 381.545 109.363V126.522C381.545 126.859 381.27 127.135 380.933 127.135Z" fill="#333333"/>
<path d="M372.353 127.135C372.016 127.135 371.74 126.859 371.74 126.522V111.508C371.74 111.171 372.016 110.895 372.353 110.895C372.69 110.895 372.965 111.171 372.965 111.508V126.522C372.965 126.859 372.69 127.135 372.353 127.135Z" fill="#333333"/>
<path d="M364.386 127.135C364.049 127.135 363.773 126.859 363.773 126.522V109.363C363.773 109.026 364.049 108.75 364.386 108.75C364.723 108.75 364.999 109.026 364.999 109.363V126.522C364.999 126.859 364.723 127.135 364.386 127.135Z" fill="#333333"/>
<path d="M393.066 45.3838C383.26 38.3363 377.837 50.9299 386.662 55.0971C376.918 54.9745 376.244 68.6406 388.163 66.6182C397.876 64.4733 411.45 60.827 411.45 60.827C411.45 60.827 400.818 51.604 393.066 45.3838Z" fill="white"/>
<path d="M385.865 67.4455C382.311 67.4455 380.564 65.8828 379.768 64.8103C378.45 63.0025 378.297 60.5819 379.4 58.437C380.411 56.4453 382.341 55.0971 384.732 54.6681C382.801 53.228 381.667 51.175 381.606 48.9382C381.545 46.5482 382.74 44.4033 384.732 43.3615C386.141 42.6261 389.144 41.8294 393.434 44.8935C393.434 44.8935 393.464 44.8935 393.464 44.9242C401.125 51.0831 411.757 60.2754 411.88 60.3674C412.064 60.5206 412.125 60.7351 412.064 60.9802C412.002 61.2253 411.849 61.3785 411.635 61.4398C411.512 61.4704 397.938 65.1168 388.317 67.231C387.397 67.3536 386.601 67.4455 385.865 67.4455ZM386.539 55.7099C383.782 55.7099 381.575 56.9049 380.503 58.9885C379.614 60.7044 379.737 62.6348 380.779 64.075C382.127 65.9134 384.701 66.5875 388.071 66.0054C396.038 64.2588 406.732 61.4398 410.194 60.5206C407.498 58.1918 399.072 50.9605 392.729 45.874C389.971 43.8824 387.336 43.3615 385.344 44.4339C383.782 45.2612 382.832 46.9771 382.862 48.9075C382.924 51.2975 384.394 53.3505 386.968 54.5455C387.244 54.6681 387.367 54.9439 387.305 55.2503C387.244 55.526 386.999 55.7405 386.723 55.7405C386.601 55.7099 386.57 55.7099 386.539 55.7099Z" fill="#333333"/>
<path d="M411.421 61.4704C411.359 61.4704 411.329 61.4704 411.267 61.4398L386.479 55.6792C386.142 55.6179 385.958 55.2809 386.019 54.9438C386.08 54.6068 386.417 54.4229 386.754 54.4842L411.543 60.2448C411.88 60.306 412.064 60.6431 412.003 60.9802C411.942 61.2866 411.696 61.4704 411.421 61.4704Z" fill="#333333"/>
<path d="M372.353 96.4935C372.016 96.4935 371.74 96.2177 371.74 95.8807V18.3582C371.74 18.0212 372.016 17.7454 372.353 17.7454C372.69 17.7454 372.965 18.0212 372.965 18.3582V95.8807C372.965 96.2177 372.69 96.4935 372.353 96.4935Z" fill="#333333"/>
<path d="M359.177 74.5236C372.292 71.9804 366.286 58.0999 356.236 62.022C363.743 54.3004 353.263 43.3614 345.848 54.4536C340.21 63.8911 332.826 77.5571 332.826 77.5571C332.826 77.5571 348.3 76.0557 359.177 74.5236Z" fill="white"/>
<path d="M332.826 78.1701C332.611 78.1701 332.427 78.0782 332.305 77.8944C332.182 77.7105 332.182 77.4654 332.274 77.2509C332.335 77.1283 339.72 63.4623 345.297 54.1167C345.297 54.1167 345.297 54.0861 345.327 54.0861C348.545 49.2754 351.915 48.9384 353.662 49.1529C356.082 49.4593 358.135 51.2058 359.024 53.6878C359.851 56.0471 359.453 58.621 357.951 60.8885C360.617 60.3676 363.16 61.011 365.03 62.6963C366.96 64.4428 367.757 67.0167 367.113 69.3455C366.654 71.0307 364.999 74.0029 359.3 75.106H359.269C348.514 76.6074 333.04 78.1395 332.887 78.1395C332.856 78.1701 332.856 78.1701 332.826 78.1701ZM346.369 54.7909C341.681 62.635 335.736 73.5127 333.929 76.8526C337.728 76.4849 350.046 75.1979 359.085 73.9416C362.823 73.2063 365.244 71.4903 365.918 69.039C366.439 67.1393 365.796 65.0557 364.202 63.6155C362.241 61.8383 359.422 61.4706 356.481 62.6044C356.205 62.6963 355.898 62.6044 355.745 62.3592C355.592 62.1141 355.623 61.8077 355.807 61.5932C357.982 59.3258 358.748 56.5987 357.859 54.0861C357.155 52.0638 355.469 50.6236 353.508 50.3785C351.026 50.0721 348.483 51.6348 346.369 54.7909Z" fill="#333333"/>
<path d="M332.826 78.1702C332.642 78.1702 332.427 78.0783 332.305 77.8944C332.121 77.6187 332.182 77.2203 332.488 77.0365L355.898 61.5014C356.174 61.3175 356.572 61.3788 356.756 61.6852C356.94 61.961 356.879 62.3593 356.572 62.5432L333.163 78.0783C333.071 78.1396 332.948 78.1702 332.826 78.1702Z" fill="#333333"/>
<path d="M392.177 68.4261C385.283 55.4649 372.628 66.2506 379.951 75.5349C369.411 70.142 361.321 84.666 375.355 88.8945C387.091 91.7748 403.821 95.1147 403.821 95.1147C403.821 95.1147 397.294 79.3651 392.177 68.4261Z" fill="white"/>
<path d="M403.821 95.7275C403.791 95.7275 403.729 95.7275 403.699 95.7275C403.545 95.6968 386.815 92.357 375.202 89.5073H375.172C369.105 87.6688 367.665 84.2677 367.328 82.3679C366.868 79.7327 368.032 77.067 370.33 75.351C372.567 73.6964 375.447 73.3287 378.328 74.2173C376.888 71.5515 376.704 68.6406 377.899 66.128C379.124 63.5542 381.514 61.8995 384.18 61.8382C386.08 61.777 389.726 62.543 392.699 68.1503V68.181C397.754 78.9974 404.281 94.747 404.342 94.9002C404.434 95.1147 404.403 95.3598 404.25 95.513C404.189 95.6356 404.005 95.7275 403.821 95.7275ZM375.509 88.3123C385.345 90.733 398.857 93.4907 402.81 94.2873C401.247 90.5798 395.916 77.8636 391.626 68.7019C389.665 64.9943 387.03 63.0026 384.241 63.0639C382.035 63.1252 380.044 64.504 379.032 66.6489C377.776 69.3147 378.297 72.4095 380.442 75.1366C380.626 75.351 380.626 75.6881 380.442 75.9026C380.258 76.1171 379.952 76.1784 379.676 76.0558C376.581 74.4624 373.456 74.5544 371.066 76.3009C369.135 77.7104 368.185 79.9472 368.553 82.1228C369.043 84.9111 371.495 87.0867 375.509 88.3123Z" fill="#333333"/>
<path d="M403.852 95.7582C403.729 95.7582 403.576 95.7275 403.453 95.605L379.584 76.0252C379.308 75.8107 379.277 75.4124 379.492 75.1673C379.706 74.8915 380.105 74.8608 380.35 75.0753L404.219 94.6551C404.495 94.8696 404.526 95.2679 404.311 95.5131C404.219 95.6969 404.035 95.7582 403.852 95.7582Z" fill="#333333"/>
<path d="M362.762 36.7736C358.656 46.395 370.3 48.6011 372.169 40.3893L372.383 18.3582C372.353 18.3582 366.531 29.052 362.762 36.7736Z" fill="white"/>
<path d="M366.531 46.0583C364.968 46.0583 363.528 45.4148 362.548 44.2504C361.628 43.178 360.403 40.7573 362.21 36.5288V36.4982C364.202 32.4229 366.684 27.6735 368.431 24.3642C369.564 22.25 370.422 20.626 370.851 19.8293C371.985 17.7151 371.985 17.7151 372.383 17.7151C372.537 17.7151 372.69 17.7764 372.812 17.8989C372.935 18.0215 372.996 18.1747 372.996 18.3279L372.782 40.359C372.782 40.3896 372.782 40.4509 372.782 40.4816C372.138 43.2393 370.33 45.2616 367.94 45.8438C367.45 45.997 366.99 46.0583 366.531 46.0583ZM363.314 37.0191C362.18 39.7155 362.21 41.983 363.467 43.4538C364.447 44.5875 366.041 45.0777 367.634 44.6794C369.595 44.1891 371.005 42.5958 371.556 40.2977L371.74 20.7792C369.871 24.2723 366.071 31.3811 363.314 37.0191Z" fill="#333333"/>
<path d="M356.327 62.5737C356.143 62.5737 355.929 62.4818 355.806 62.2979C355.622 62.0221 355.683 61.6238 355.99 61.4399L360.831 58.2226C363.742 56.2616 367.603 56.4148 370.391 58.621L372.72 60.4594C372.996 60.6739 373.026 61.0416 372.812 61.3174C372.597 61.5932 372.23 61.6238 371.954 61.4093L369.625 59.5708C367.235 57.7017 363.987 57.5791 361.505 59.2338L356.664 62.4511C356.572 62.543 356.45 62.5737 356.327 62.5737Z" fill="#333333"/>
<path d="M372.353 57.2727C372.169 57.2727 371.985 57.1807 371.863 57.0275C371.648 56.7518 371.71 56.3841 371.985 56.1696L373.855 54.7907C375.969 53.1974 378.665 52.6458 381.239 53.2587L385.651 54.2698C385.989 54.3311 386.203 54.6681 386.111 55.0052C386.05 55.3423 385.713 55.5261 385.376 55.4648L380.963 54.4537C378.727 53.9328 376.398 54.423 374.559 55.8019L372.69 57.1807C372.598 57.242 372.476 57.2727 372.353 57.2727Z" fill="#333333"/>
<path d="M380.013 76.1171C379.89 76.1171 379.737 76.0865 379.614 75.9639L372.138 69.8663C371.862 69.6518 371.832 69.2534 372.046 69.0083C372.261 68.7325 372.659 68.7019 372.904 68.9164L380.38 75.014C380.656 75.2285 380.687 75.6268 380.472 75.872C380.38 76.0252 380.197 76.1171 380.013 76.1171Z" fill="#333333"/>
<path d="M399.623 127.441H345.388C345.051 127.441 344.775 127.166 344.775 126.828C344.775 126.491 345.051 126.216 345.388 126.216H399.623C399.96 126.216 400.236 126.491 400.236 126.828C400.236 127.166 399.96 127.441 399.623 127.441Z" fill="#333333"/>
<path d="M15.8422 211L9.86719 204.535L12.4411 195.067L17.8339 194.086C19.0596 193.994 20.2546 193.841 21.419 193.657C31.7451 191.88 37.4443 186.456 37.5056 186.395C37.5056 186.395 40.6617 183.546 47.2802 176.008L55.2469 171.167L69.8628 205.178C68.2695 206.894 66.768 208.61 65.6343 209.928C64.1635 211.674 63.6733 212.379 63.5813 212.808C54.4196 219.702 45.5643 225.126 37.2911 228.956L15.8422 211Z" fill="white"/>
<path d="M55.0014 172.024L69.1884 205.025C67.6869 206.649 66.9209 208.733 65.8485 209.989C64.7454 211.123 63.0907 212.379 63.0907 212.379C54.1435 219.089 45.5027 224.421 37.4134 228.19L16.2709 210.54L10.5716 204.351L12.9616 195.557L17.9562 194.668C19.1818 194.576 20.3768 194.423 21.5412 194.209C31.7141 192.462 37.5359 187.192 37.9343 186.824C38.1794 186.61 41.3354 183.699 47.7088 176.467L55.0014 172.024ZM55.553 170.247L46.9121 175.517C40.263 183.086 37.1376 185.905 37.1069 185.936C37.0457 185.997 31.4383 191.298 21.3267 193.014C20.193 193.198 18.998 193.351 17.7723 193.443L11.9505 194.484L9.16211 204.657L15.3823 211.429L37.1989 229.63L37.2295 229.599C45.7478 225.708 54.8176 220.131 64.2245 213.022L64.2858 212.992L64.1938 212.9C64.01 212.563 67.3192 208.733 70.5366 205.27L70.5672 205.24L55.553 170.247Z" fill="#333333"/>
<path d="M37.1067 185.997C37.0147 185.874 29.3238 172.3 35.7278 167.06L35.8197 166.999C35.8197 166.999 35.9423 166.907 36.0955 166.907C36.7083 166.907 38.7919 167.214 41.4884 169.113C44.5219 171.228 47.0038 175.517 47.0344 175.579L47.0651 175.609L47.0344 175.64C40.3546 183.208 37.2599 186.027 37.2292 186.058L37.168 186.119L37.1067 185.997Z" fill="#333333"/>
<path d="M64.1626 213.023C63.5498 212.41 58.1876 206.925 55.1847 199.479C53.5914 195.557 52.3657 191.267 51.2933 187.468C49.8838 182.504 48.6582 178.214 46.9729 175.64C41.7332 166.632 35.7275 167.061 35.7275 167.061C36.0646 166.785 36.4629 166.509 36.8613 166.295C42.9282 162.955 96.0908 138.656 96.6117 138.411L96.7037 138.381L91.4946 188.448C84.3552 196.384 74.213 205.577 64.3465 213.053L64.3158 213.084L64.1626 213.023Z" fill="#FFA8C9"/>
<path d="M91.372 195.833C91.2494 195.802 77.5528 191.512 74.2435 184.863C73.4162 183.178 73.2937 181.493 73.8758 179.807C73.9371 179.716 75.1628 178.398 78.3495 178.398C80.1879 178.398 82.3328 178.858 84.6922 179.777C87.3886 180.819 89.9625 182.167 92.3525 183.73L92.3832 183.76V183.791C92.3219 192.248 91.4639 195.741 91.4639 195.772L91.4333 195.833H91.372Z" fill="#333333"/>
<path d="M0 198.56C0.0612825 198.468 2.32874 193.596 14.7997 193.596C15.7803 193.596 16.7608 193.535 17.7719 193.443H17.8332L17.8639 193.535C19.2427 199.602 18.4154 205.944 15.5351 211.46L15.5045 211.521L0 198.56Z" fill="#FF5573"/>
<path d="M158.201 105.41L153.574 126.522H202.6C202.6 126.522 186.054 94.6554 183.909 92.5105C180.784 89.3851 158.201 105.41 158.201 105.41Z" fill="#333333"/>
<path d="M188.842 113.745C185.104 113.745 182.101 110.711 182.101 107.004C182.101 103.266 185.135 100.263 188.842 100.263C192.55 100.263 195.583 103.296 195.583 107.004C195.614 110.742 192.58 113.745 188.842 113.745Z" fill="white"/>
<path d="M188.842 100.876C192.243 100.876 194.97 103.633 194.97 107.004C194.97 110.374 192.213 113.132 188.842 113.132C185.472 113.132 182.714 110.374 182.714 107.004C182.714 103.633 185.472 100.876 188.842 100.876ZM188.842 99.6499C184.767 99.6499 181.488 102.959 181.488 107.004C181.488 111.048 184.798 114.358 188.842 114.358C192.887 114.358 196.196 111.048 196.196 107.004C196.196 102.959 192.917 99.6499 188.842 99.6499Z" fill="#333333"/>
<path d="M175.543 121.497C170.794 121.497 165.554 117.728 161.877 111.63C156.454 102.683 155.565 93.3989 159.794 89.9977C162.337 87.9448 165.524 86.9336 169.2 86.9336C173.981 86.9336 177.933 88.6801 177.964 88.7108C181.794 90.5186 184 92.8474 185.073 96.2179C186.268 100.017 186.084 105.165 184.46 112.427C183.204 118.188 179.956 121.497 175.543 121.497Z" fill="white"/>
<path d="M169.231 86.3206V87.5462C173.766 87.5462 177.566 89.1702 177.75 89.2621C184.092 92.2343 187.31 97.1369 183.908 112.274C182.652 117.82 179.68 120.884 175.574 120.884C171.039 120.884 166.014 117.207 162.429 111.324C159.794 106.973 158.17 102.407 157.863 98.4545C157.557 94.7775 158.415 91.9585 160.223 90.4878C162.674 88.5267 165.708 87.5462 169.262 87.5462L169.231 86.3206ZM169.231 86.3206C166.045 86.3206 162.521 87.0559 159.426 89.5379C155.014 93.0616 155.688 102.591 161.356 111.967C165.309 118.494 170.763 122.11 175.543 122.11C179.864 122.11 183.602 119.107 185.103 112.549C188.474 97.5659 185.655 91.6215 178.27 88.159C178.27 88.1284 174.195 86.3206 169.231 86.3206Z" fill="#333333"/>
<path d="M178.271 88.1285C185.196 91.4071 188.137 96.8306 185.655 109.914C175.053 105.379 174.134 90.9781 174.134 90.9781C174.134 90.9781 167.393 99.5577 156.669 99.0061C156.24 94.8083 157.159 91.3764 159.457 89.538C167.332 83.2259 178.271 88.1285 178.271 88.1285Z" fill="#333333"/>
<path d="M167.424 109.608C167.362 109.608 167.332 109.608 167.27 109.577C166.627 109.424 166.014 109.057 165.554 108.536C164.911 107.739 164.543 106.207 164.206 102.928C164.176 102.591 164.421 102.285 164.758 102.254C165.095 102.224 165.401 102.469 165.432 102.806C165.708 105.717 166.045 107.187 166.504 107.739C166.78 108.076 167.148 108.291 167.546 108.382C167.883 108.474 168.067 108.781 168.006 109.118C167.944 109.424 167.699 109.608 167.424 109.608Z" fill="#333333"/>
<path d="M170.151 104.246C169.875 104.246 169.599 104.062 169.538 103.756L169.385 103.02C169.324 102.683 169.538 102.377 169.875 102.285C170.212 102.224 170.519 102.438 170.611 102.775L170.764 103.51C170.825 103.847 170.611 104.154 170.274 104.246C170.243 104.246 170.182 104.246 170.151 104.246Z" fill="#333333"/>
<path d="M161.48 104.246C161.204 104.246 160.959 104.062 160.898 103.786L160.714 103.02C160.622 102.683 160.836 102.346 161.173 102.285C161.51 102.193 161.847 102.407 161.909 102.744L162.093 103.51C162.185 103.847 161.97 104.184 161.633 104.246C161.572 104.246 161.541 104.246 161.48 104.246Z" fill="#333333"/>
<path d="M170.182 112.948C169.845 112.948 169.569 112.672 169.569 112.335C169.569 111.998 169.845 111.723 170.182 111.723C170.304 111.723 170.427 111.723 170.519 111.692C171.53 111.508 172.235 110.497 172.051 109.486C171.99 109.149 172.204 108.842 172.541 108.781C172.878 108.72 173.185 108.934 173.246 109.271C173.552 110.956 172.419 112.58 170.733 112.887C170.549 112.948 170.366 112.948 170.182 112.948Z" fill="#333333"/>
<path d="M189.577 107.831C189.547 107.831 189.547 107.831 189.516 107.831L185.9 107.494C185.563 107.463 185.318 107.157 185.349 106.82C185.379 106.483 185.686 106.238 186.023 106.268L189.639 106.605C189.976 106.636 190.221 106.942 190.19 107.28C190.159 107.586 189.884 107.831 189.577 107.831Z" fill="#333333"/>
<path d="M84.1099 229.017C83.1294 226.229 81.536 217.956 81.2603 216.424L83.0681 213.85C86.4693 210.326 89.8705 205.699 91.9234 195.864C91.9234 195.802 92.8427 191.145 92.8427 183.76C92.8427 183.638 92.1992 173.955 91.9847 170.707L127.59 191.758L127.467 203.953C125.905 213.084 123.606 221.51 120.665 228.987L84.1099 229.017Z" fill="white"/>
<path d="M92.6892 171.84L126.977 192.125L126.854 203.922C125.322 212.838 123.116 221.081 120.236 228.404H84.5387C83.742 225.861 82.5163 219.978 81.8729 216.577L83.5275 214.279C86.9593 210.694 90.4524 205.975 92.5054 196.016C92.5054 195.955 93.4553 191.236 93.4553 183.821V183.79V183.76C93.4553 183.637 92.9344 175.793 92.6892 171.84ZM91.3104 169.604V169.726C91.3104 169.879 92.2296 183.668 92.2296 183.79C92.2296 191.083 91.3104 195.71 91.3104 195.771C89.2881 205.485 85.9175 210.019 82.5776 213.482L80.5859 216.301V216.332C80.6166 216.423 82.5776 226.933 83.6501 229.599L83.6807 229.63H121.094L121.124 229.599C124.158 222 126.517 213.39 128.111 204.044L128.233 191.451L91.3104 169.604Z" fill="#333333"/>
<path d="M71.4247 229.569C71.4247 229.538 71.1796 225.095 76.3579 219.61C77.4917 218.415 78.656 217.312 79.7591 216.24C80.7396 215.29 81.6895 214.401 82.6088 213.451L82.6394 213.39L82.67 213.451C86.9292 217.956 89.9627 223.502 91.4028 229.538V229.63L71.4247 229.599V229.569Z" fill="#FF5573"/>
<path d="M181.457 229.538C174.9 229.538 167.76 229.079 159.365 223.716C149.069 217.128 139.478 204.78 130.041 185.905C130.01 187.314 129.704 194.546 128.08 204.045V204.106H128.018C127.957 204.106 120.665 203.432 112.483 198.284C108.255 195.618 105.558 193.535 102.709 191.298C99.8592 189.092 96.9482 186.824 92.3521 183.913C79.2989 175.732 73.8447 179.807 73.8447 179.807C75.9283 173.894 83.0371 155.999 94.9872 130.475C97.7449 124.592 104.18 120.639 110.982 120.639C123.821 120.639 138.161 131.731 147.905 141.046C158.231 150.882 165.738 160.84 166.167 161.392H203.549V161.423C208.176 175.518 210.352 187.743 209.984 197.794C209.677 206.281 207.594 213.268 203.764 218.569C196.44 228.741 184.858 229.538 181.457 229.538Z" fill="#FFA8C9"/>
<path d="M129.98 186.273C129.98 186.273 129.95 186.273 129.98 186.273C129.613 186.273 129.367 185.966 129.367 185.629C129.98 171.749 127.56 155.969 127.529 155.815C127.468 155.478 127.713 155.172 128.05 155.111C128.387 155.049 128.693 155.295 128.755 155.632C128.785 155.785 131.206 171.688 130.593 185.691C130.593 186.028 130.317 186.273 129.98 186.273Z" fill="#333333"/>
<path d="M175.452 176.468C175.237 176.468 175.053 176.376 174.931 176.161C171.989 171.228 168.772 166.264 165.647 161.79C165.463 161.515 165.524 161.116 165.8 160.932C166.076 160.749 166.474 160.81 166.658 161.086C169.814 165.59 173.031 170.584 176.003 175.518C176.187 175.793 176.095 176.192 175.789 176.345C175.666 176.437 175.574 176.468 175.452 176.468Z" fill="#333333"/>
<path d="M70.5363 167.275L70.4137 167.214C68.8817 166.478 60.9456 162.618 54.3271 159.063C54.0207 158.879 53.6836 158.665 53.4078 158.45L53.3159 158.389L53.4078 158.358C57.5751 156.397 62.5083 154.099 68.085 151.525L68.1463 151.495V151.587C69.3413 158.45 70.3831 165.712 70.5669 167.122L70.5976 167.367L70.5363 167.275Z" fill="#FF5573"/>
<path d="M53.8369 195.863C52.979 193.32 52.2129 190.746 51.6001 188.54V188.509V188.479C53.4079 185.568 55.0319 182.963 56.4721 180.726C57.9122 178.735 59.6281 177.662 61.344 177.662C62.9986 177.662 64.4694 178.704 65.1129 180.328C65.4193 181.064 66.1547 183.576 63.7034 186.089C64.3775 185.874 65.021 185.782 65.6338 185.782C68.606 185.782 70.3832 187.927 70.5364 189.98C70.6896 191.972 69.3414 194.331 65.1435 194.975C61.9568 195.312 58.1573 195.618 53.8982 195.925H53.8675L53.8369 195.863Z" fill="#FF5573"/>
<path d="M174.073 201.471C172.571 201.471 171.162 200.582 170.396 199.203C169.507 197.579 169.599 195.618 170.672 193.749C169.66 194.362 168.588 194.699 167.546 194.699C165.309 194.699 163.41 193.228 162.981 191.206C162.521 188.939 164.053 186.824 167.117 185.537C174.195 182.963 182.622 180.328 184.246 179.838L184.491 179.746L184.43 179.991C183.939 181.615 181.427 190.072 178.975 197.212C177.872 199.908 176.095 201.471 174.073 201.471Z" fill="#FF5573"/>
<path d="M119.869 136.144C117.969 136.144 116.437 134.918 115.946 133.049C115.517 131.364 115.977 128.882 118.674 127.258C118.582 127.258 118.459 127.258 118.367 127.258C116.345 127.258 114.659 126.4 113.71 124.898C112.882 123.611 112.76 122.079 113.373 120.792L113.403 120.762H113.434C118.796 121.313 124.771 123.642 131.206 127.687L131.267 127.717L131.206 127.779C128.632 130.23 126.303 132.405 124.281 134.244C122.779 135.5 121.247 136.144 119.869 136.144Z" fill="#FF5573"/>
<path d="M198.862 207.661C195.583 207.661 194.082 205.638 194.051 203.616C193.99 201.318 195.737 198.897 199.168 198.621C196.319 197.365 195.43 194.883 195.798 192.953C196.196 190.93 197.79 189.643 199.843 189.643C201.099 189.643 202.447 190.103 203.887 191.022C205.726 192.309 207.779 193.841 210.046 195.496L210.077 195.527V195.557C210.107 198.683 209.832 201.839 209.311 204.933V204.964H209.28C206.247 205.914 203.489 206.741 201.068 207.415C200.272 207.569 199.536 207.661 198.862 207.661Z" fill="#FF5573"/>
<path d="M142.513 206.925C140.827 204.627 139.111 202.022 137.396 199.234V199.203C137.457 196.66 137.518 194.332 137.61 192.279C138.008 188.111 140.245 186.61 142.206 186.61C143.554 186.61 144.872 187.284 145.73 188.418C146.71 189.705 146.986 191.39 146.557 193.198C147.722 191.911 149.192 191.206 150.724 191.206C152.624 191.206 154.309 192.309 154.892 193.994C155.596 195.956 154.647 198.192 152.318 200.092C149.621 202.084 146.343 204.382 142.635 206.956L142.574 206.986L142.513 206.925Z" fill="#FF5573"/>
<path d="M107.674 195.036C105.866 193.719 104.303 192.554 102.679 191.267L101.882 190.655L101.913 190.624C103.69 186.579 105.314 183.025 106.754 180.022C108.072 177.632 109.818 176.314 111.688 176.314C113.25 176.314 114.69 177.264 115.395 178.766C116.222 180.512 115.947 182.596 114.598 184.373C115.487 183.975 116.345 183.76 117.203 183.76C119.562 183.76 121.615 185.384 121.922 187.56C122.32 190.409 119.746 192.217 117.203 192.953C114.476 193.596 111.32 194.301 107.735 195.036H107.674Z" fill="#FF5573"/>
<path d="M94.1605 167.582C92.4752 167.582 90.7593 166.509 89.3192 164.517C87.6645 162.005 85.7954 159.033 83.7118 155.662L83.6812 155.631V155.601C84.5391 153.609 85.4584 151.526 86.3776 149.411L86.4082 149.381H86.4389C90.7286 149.656 94.6814 149.963 97.8987 150.3C102.097 150.943 103.445 153.272 103.292 155.264C103.138 157.286 101.361 159.462 98.389 159.462C97.7761 159.462 97.1327 159.37 96.4586 159.155C98.9405 161.637 98.2051 164.18 97.8987 164.916C97.2859 166.54 95.7845 167.582 94.1605 167.582Z" fill="#FF5573"/>
<path d="M180.14 229.538C177.658 229.538 175.146 229.324 172.664 228.925H172.633V228.895C170.703 225.984 169.017 223.318 167.608 221.051C166.321 218.722 166.137 216.577 167.056 215.014C167.792 213.789 169.109 213.053 170.641 213.053C172.357 213.053 174.502 214.034 175.513 216.792C175.973 213.482 178.363 211.981 180.447 211.981C181.734 211.981 182.929 212.563 183.664 213.544C184.369 214.493 185.043 216.24 184.154 219.243C183.112 222.184 181.826 225.616 180.355 229.477L180.324 229.538H180.14Z" fill="#FF5573"/>
<path d="M74.0595 180.359C73.9983 180.359 73.937 180.359 73.8451 180.328C73.5386 180.206 73.3548 179.869 73.4774 179.532C75.8061 172.974 81.6892 158.604 89.564 141.199C89.7172 140.893 90.0543 140.74 90.3607 140.893C90.6671 141.046 90.8203 141.383 90.6671 141.69C82.8229 159.094 76.9398 173.434 74.6417 179.961C74.5498 180.206 74.3047 180.359 74.0595 180.359Z" fill="#333333"/>
<path d="M206.277 171.258H172.265C171.928 171.258 171.652 170.982 171.652 170.645C171.652 170.308 171.928 170.033 172.265 170.033H206.277C206.614 170.033 206.89 170.308 206.89 170.645C206.89 170.982 206.614 171.258 206.277 171.258Z" fill="#333333"/>
<path d="M115.978 163.782C113.159 161.79 110.156 159.676 107.03 157.868C97.225 152.108 93.8239 151.924 90.2082 151.679C89.197 151.618 88.1246 151.556 86.8989 151.342C85.3056 151.066 84.3251 150.545 83.9574 149.748C83.4365 148.676 84.2025 147.358 84.2025 147.328L84.417 146.96L84.1719 146.623C82.5172 144.478 84.5089 142.793 84.7234 142.609L85.1524 142.272L84.8766 141.812C84.4476 141.077 84.3251 140.403 84.5089 139.821C84.846 138.718 86.1329 138.105 86.1635 138.105L86.5312 137.952V137.553C86.5312 134.918 90.392 133.294 96.6429 133.294C100.841 133.294 105.651 134.029 110.585 135.378C114.2 136.389 119.072 138.074 125.109 140.403L137.518 146.409L126.641 169.481L115.978 163.782Z" fill="white"/>
<path d="M96.5808 133.907C100.717 133.907 105.467 134.612 110.339 135.99C113.924 137.002 118.796 138.656 124.801 140.985L136.629 146.715L126.364 168.654L116.283 163.261C113.464 161.27 110.461 159.155 107.305 157.347C97.3775 151.526 93.8844 151.311 90.2381 151.097C89.2269 151.035 88.1851 150.974 86.9901 150.76C86.0402 150.606 84.8452 150.269 84.5082 149.503C84.1405 148.737 84.7227 147.665 84.7227 147.665L85.1516 146.96L84.6614 146.286C84.1098 145.551 83.9873 144.876 84.3243 144.172C84.6001 143.559 85.121 143.13 85.121 143.13L85.979 142.456L85.4274 141.537C85.0904 140.954 84.9678 140.464 85.121 140.035C85.3355 139.33 86.1322 138.809 86.4386 138.687L87.1433 138.35V137.553C87.082 135.347 90.8203 133.907 96.5808 133.907ZM96.5808 132.681C90.2075 132.681 85.8564 134.366 85.8564 137.553C85.8564 137.553 82.4859 139.085 84.3243 142.149C84.3243 142.149 81.5666 144.294 83.6502 147.021C83.6502 147.021 81.2602 151.035 86.7756 151.955C92.2911 152.874 94.1295 151.035 106.692 158.389C109.757 160.197 112.698 162.219 115.64 164.303L126.916 170.339L138.253 146.133L125.292 139.851C119.991 137.798 114.751 135.96 110.676 134.795C105.559 133.355 100.656 132.681 96.5808 132.681Z" fill="#333333"/>
<path d="M147.721 178.367C147.292 178.367 146.833 178.367 146.404 178.336C134.3 177.632 125.353 171.289 116.743 165.161L115.579 164.333L125.292 139.759L125.353 139.79C136.66 144.141 148.395 149.35 149.284 149.748C149.621 149.013 153.451 141.169 159.365 130.812C165.8 119.566 170.457 115.767 177.811 115.767C181.457 115.767 185.778 116.594 194.694 126.522C204.071 136.971 209.678 145.795 210.046 150.759C210.352 155.202 208.575 157.899 207.043 159.4C205.358 160.993 203.58 161.545 203.58 161.545H173.889C173.337 162.311 163.195 178.367 147.721 178.367Z" fill="#FF5573"/>
<path d="M173.797 162.066C173.675 162.066 173.583 162.036 173.491 161.974C173.215 161.79 173.123 161.423 173.276 161.116C175.575 157.409 179.037 151.771 183.357 141.291C183.48 140.985 183.848 140.832 184.154 140.954C184.461 141.077 184.614 141.445 184.491 141.751C180.14 152.322 176.647 157.991 174.349 161.76C174.196 161.974 174.012 162.066 173.797 162.066Z" fill="#333333"/>
<path d="M105.497 139.085C105.436 139.085 105.405 139.085 105.344 139.055C105.252 139.024 94.7422 136.358 86.4078 138.748C86.0707 138.84 85.7337 138.656 85.6417 138.319C85.5498 137.982 85.7337 137.645 86.0707 137.553C94.7116 135.071 105.191 137.737 105.65 137.86C105.988 137.951 106.171 138.288 106.079 138.595C106.018 138.901 105.773 139.085 105.497 139.085Z" fill="#333333"/>
<path d="M104.027 143.682C103.966 143.682 103.935 143.682 103.874 143.651C103.782 143.62 94.6816 141.261 85.1522 143.038C84.8151 143.099 84.5087 142.885 84.4474 142.548C84.3862 142.211 84.6007 141.904 84.9377 141.843C94.7736 140.005 103.813 142.364 104.211 142.456C104.548 142.548 104.732 142.885 104.64 143.191C104.548 143.498 104.303 143.682 104.027 143.682Z" fill="#333333"/>
<path d="M102.495 148.278C102.465 148.278 102.434 148.278 102.403 148.278C92.8432 146.684 87.818 147.113 84.5394 147.665C84.2023 147.726 83.8959 147.481 83.8346 147.175C83.7734 146.838 84.0185 146.531 84.3249 146.47C87.7261 145.918 92.8738 145.459 102.618 147.083C102.955 147.144 103.169 147.45 103.108 147.787C103.047 148.063 102.802 148.278 102.495 148.278Z" fill="#333333"/>
<path d="M64.4082 46.6712C64.255 46.6712 64.1018 46.6099 63.9792 46.4873L53.1016 35.242L42.2239 46.4873C41.9788 46.7324 41.6111 46.7324 41.366 46.4873C41.1208 46.2422 41.1208 45.8745 41.366 45.6294L52.6726 33.9244C52.9177 33.6793 53.3161 33.6793 53.5612 33.9244L64.8678 45.6294C65.113 45.8745 65.0823 46.2728 64.8678 46.4873C64.7146 46.6099 64.5614 46.6712 64.4082 46.6712Z" fill="#333333"/>
<path d="M79.4524 45.2309H26.7188V103.848H79.4524V45.2309Z" fill="white"/>
<path d="M79.4529 104.46H26.7193C26.3822 104.46 26.1064 104.185 26.1064 103.848V45.2309C26.1064 44.8938 26.3822 44.618 26.7193 44.618H79.4529C79.79 44.618 80.0657 44.8938 80.0657 45.2309V103.848C80.0657 104.185 79.79 104.46 79.4529 104.46ZM27.3321 103.235H78.8401V45.8437H27.3321V103.235Z" fill="#333333"/>
<path d="M67.1656 58.1617C67.0124 58.1617 66.8591 58.1004 66.7366 57.9778C66.4915 57.7327 66.4915 57.365 66.7366 57.1199L78.1658 45.6907C78.4109 45.4456 78.7786 45.4456 79.0237 45.6907C79.2689 45.9358 79.2689 46.3035 79.0237 46.5486L67.5945 57.9778C67.472 58.1004 67.3188 58.1617 67.1656 58.1617Z" fill="#333333"/>
<path d="M39.0371 58.1617C38.8839 58.1617 38.7307 58.1004 38.6082 57.9778L27.179 46.5486C26.9338 46.3035 26.9338 45.9358 27.179 45.6907C27.4241 45.4456 27.7918 45.4456 28.0369 45.6907L39.4661 57.1199C39.7112 57.365 39.7112 57.7327 39.4661 57.9778C39.3436 58.1004 39.1903 58.1617 39.0371 58.1617Z" fill="#333333"/>
<path d="M53.1014 39.1027C55.1829 39.1027 56.8703 37.4153 56.8703 35.3338C56.8703 33.2523 55.1829 31.5649 53.1014 31.5649C51.0199 31.5649 49.3325 33.2523 49.3325 35.3338C49.3325 37.4153 51.0199 39.1027 53.1014 39.1027Z" fill="white"/>
<path d="M53.1014 39.7156C50.6808 39.7156 48.7197 37.7545 48.7197 35.3339C48.7197 32.9132 50.6808 30.9521 53.1014 30.9521C55.5221 30.9521 57.4831 32.9132 57.4831 35.3339C57.4831 37.7545 55.5221 39.7156 53.1014 39.7156ZM53.1014 32.1778C51.3549 32.1778 49.9454 33.5873 49.9454 35.3339C49.9454 37.0804 51.3549 38.4899 53.1014 38.4899C54.848 38.4899 56.2575 37.0804 56.2575 35.3339C56.2575 33.5873 54.848 32.1778 53.1014 32.1778Z" fill="#333333"/>
<path d="M27.6079 103.572C27.4547 103.572 27.3015 103.511 27.179 103.388C26.9338 103.143 26.9338 102.775 27.179 102.53L38.6082 91.1011C38.8533 90.856 39.221 90.856 39.4661 91.1011C39.7112 91.3462 39.7112 91.7139 39.4661 91.9591L28.0369 103.388C27.9144 103.511 27.7612 103.572 27.6079 103.572Z" fill="#333333"/>
<path d="M78.5948 103.572C78.4416 103.572 78.2883 103.511 78.1658 103.388L66.7366 91.9591C66.4915 91.7139 66.4915 91.3462 66.7366 91.1011C66.9817 90.856 67.3494 90.856 67.5945 91.1011L79.0237 102.53C79.2689 102.775 79.2689 103.143 79.0237 103.388C78.9012 103.511 78.748 103.572 78.5948 103.572Z" fill="#333333"/>
<path d="M67.1353 57.5792H39.0679V91.5297H67.1353V57.5792Z" fill="white"/>
<path d="M66.5225 58.1924V90.9173H39.6807V58.1924H66.5225ZM67.7481 56.9667H38.4551V92.1429H67.7481V56.9667Z" fill="#333333"/>
<path d="M384.333 167.06C383.996 166.784 383.598 166.509 383.199 166.294C377.132 162.954 324 138.656 323.449 138.411L323.357 138.38L328.566 188.448C335.675 196.384 345.848 205.607 355.714 213.053L355.837 213.083L355.898 213.022C356.48 212.44 361.842 206.925 364.876 199.479C366.469 195.526 367.695 191.236 368.767 187.467C370.177 182.503 371.402 178.214 373.088 175.64C377.163 168.929 381.912 167.06 384.333 167.06Z" fill="#B666D2"/>
<path d="M327.617 183.79L327.647 183.729C330.037 182.136 332.642 180.818 335.308 179.776C337.667 178.857 339.812 178.397 341.65 178.397C344.806 178.397 346.063 179.715 346.093 179.776C346.706 181.462 346.584 183.177 345.726 184.863C342.386 191.481 328.72 195.771 328.597 195.832L328.536 195.863C328.536 195.863 327.678 192.217 327.617 183.79Z" fill="#333333"/>
<path d="M382.802 185.997C382.771 185.966 379.646 183.147 372.996 175.579L372.966 175.548L372.996 175.517C373.027 175.487 375.509 171.534 378.205 169.389C380.994 167.152 383.66 167.06 384.181 167.06C384.242 167.06 384.272 167.06 384.272 167.06H384.334C390.738 172.3 382.986 185.874 382.924 185.997L382.894 186.058L382.802 185.997Z" fill="#333333"/>
<path d="M278.897 129.28H294.218L298.201 99.5576H274.914L278.897 129.28Z" fill="#B666D2"/>
<path d="M286.557 108.444C292.988 108.444 298.201 104.328 298.201 99.2513C298.201 94.1745 292.988 90.0589 286.557 90.0589C280.127 90.0589 274.914 94.1745 274.914 99.2513C274.914 104.328 280.127 108.444 286.557 108.444Z" fill="#DBB3E8"/>
<path d="M286.557 99.5574C286.22 99.5574 285.944 99.2817 285.944 98.9446V82.7047C285.944 82.3677 286.22 82.0919 286.557 82.0919C286.894 82.0919 287.17 82.3677 287.17 82.7047V98.9446C287.17 99.2817 286.894 99.5574 286.557 99.5574Z" fill="#333333"/>
<path d="M294.187 129.709C293.451 129.709 292.869 129.433 292.593 128.881C292.287 128.299 292.409 127.533 292.9 126.859L293.267 126.369L292.746 126.001C292.746 126.001 291.705 125.266 291.705 124.285C291.705 123.672 292.134 123.029 292.961 122.385L293.85 121.742L292.838 121.344C292.838 121.344 291.705 120.884 291.551 119.965C291.398 119.199 291.95 118.218 293.114 117.146L293.635 116.656L293.084 116.196C293.084 116.196 291.95 115.277 291.95 114.112C291.95 113.469 292.317 112.825 293.084 112.243C293.758 111.692 296.209 110.282 297.098 109.792L297.343 109.639L297.71 107.647C298.63 108.107 299.212 108.842 299.457 109.823C299.825 111.324 299.242 112.948 298.722 113.499L298.139 114.082L298.844 114.48C298.875 114.48 299.549 114.909 299.763 115.798C300.008 116.717 299.702 117.82 298.905 119.137L298.599 119.628L299.059 119.965C299.059 119.965 299.763 120.516 299.886 121.466C299.978 122.232 299.671 123.09 298.936 123.979L298.63 124.346L298.936 124.714C298.967 124.745 299.488 125.45 299.242 126.399C298.967 127.472 297.772 128.452 295.811 129.28C295.228 129.586 294.677 129.709 294.187 129.709Z" fill="white"/>
<path d="M298.139 108.75C298.476 109.087 298.721 109.516 298.844 110.006C299.15 111.324 298.63 112.703 298.262 113.101L297.128 114.235L298.538 115.032C298.538 115.032 298.997 115.338 299.181 115.951C299.365 116.686 299.12 117.697 298.415 118.831L297.772 119.781L298.721 120.424C298.783 120.455 299.12 120.761 299.242 121.252C299.457 121.926 299.212 122.723 298.507 123.58L297.833 124.347L298.507 125.113C298.568 125.204 298.875 125.664 298.721 126.277C298.476 127.135 297.404 127.993 295.627 128.728C295.106 128.943 294.616 129.065 294.217 129.065C293.911 129.065 293.39 129.004 293.175 128.575C292.992 128.207 293.084 127.686 293.421 127.196L294.156 126.185L293.145 125.48C292.93 125.327 292.348 124.806 292.348 124.255C292.348 123.734 292.9 123.213 293.359 122.845L295.106 121.528L293.053 120.731C292.93 120.67 292.226 120.302 292.134 119.812C292.042 119.291 292.532 118.463 293.512 117.544L294.554 116.594L293.451 115.706C293.206 115.491 292.532 114.786 292.532 114.112C292.532 113.653 292.838 113.193 293.421 112.703C294.003 112.243 296.148 110.987 297.343 110.313L297.864 110.037L297.955 109.455L298.139 108.75ZM297.22 106.85L296.791 109.302C296.791 109.302 293.543 111.109 292.685 111.814C289.621 114.266 292.685 116.717 292.685 116.717C288.702 120.394 292.593 121.926 292.593 121.926C289.315 124.377 292.379 126.522 292.379 126.522C291.153 128.238 291.98 130.322 294.156 130.322C294.707 130.322 295.351 130.199 296.056 129.893C301.878 127.441 299.426 124.377 299.426 124.377C301.878 121.313 299.426 119.475 299.426 119.475C301.878 115.491 299.12 113.959 299.12 113.959C300.345 112.733 301.265 108.137 297.22 106.85Z" fill="#333333"/>
<path d="M293.635 117.33C293.39 117.33 293.145 117.176 293.053 116.901C292.961 116.594 293.114 116.227 293.451 116.135C293.482 116.135 296.424 115.154 297.956 113.438C298.17 113.193 298.569 113.162 298.814 113.408C299.059 113.622 299.089 114.02 298.844 114.266C297.067 116.196 293.942 117.238 293.789 117.268C293.758 117.33 293.697 117.33 293.635 117.33Z" fill="#333333"/>
<path d="M293.298 122.539C293.022 122.539 292.777 122.355 292.716 122.079C292.624 121.742 292.808 121.405 293.145 121.313C294.279 120.976 297.435 119.904 298.354 118.77C298.568 118.494 298.967 118.463 299.212 118.678C299.488 118.892 299.518 119.26 299.304 119.536C297.986 121.16 293.942 122.355 293.482 122.508C293.421 122.539 293.359 122.539 293.298 122.539Z" fill="#333333"/>
<path d="M293.298 127.227C293.022 127.227 292.777 127.043 292.716 126.767C292.624 126.43 292.808 126.093 293.145 126.001C293.176 126.001 296.73 125.021 298.415 123.58C298.66 123.366 299.059 123.397 299.273 123.672C299.488 123.948 299.457 124.316 299.181 124.53C297.251 126.124 293.605 127.165 293.421 127.196C293.421 127.227 293.359 127.227 293.298 127.227Z" fill="#333333"/>
<path d="M366.868 220.866C363.191 218.507 359.453 215.872 355.715 213.084L355.653 213.053L355.745 212.961C356.358 212.348 361.69 206.863 364.692 199.448C366.286 195.526 367.511 191.236 368.584 187.467C370.024 182.473 371.25 178.122 372.966 175.548L372.996 175.487L373.058 175.548C379.707 183.116 382.832 185.935 382.863 185.966C382.955 186.058 390.983 193.596 405.2 193.596C411.696 193.596 415.373 194.944 417.304 196.047C419.418 197.273 419.939 198.468 419.969 198.529L420 198.56L395.977 218.63L395.947 218.599C392.208 215.596 387.49 213.941 382.679 213.941H382.618C376.673 213.941 370.943 216.454 366.96 220.866L366.929 220.897L366.868 220.866Z" fill="#DBB3E8"/>
<path d="M382.709 229.63C377.255 227.087 371.924 224.145 366.868 220.866L366.807 220.836L366.868 220.775C370.913 216.332 376.673 213.788 382.648 213.788C387.489 213.788 392.239 215.443 396.008 218.476L396.069 218.538L382.771 229.661L382.709 229.63Z" fill="#B666D2"/>
<path d="M316.432 229.63C313.92 220.376 305.493 213.942 295.933 213.911C295.32 213.911 294.677 213.942 294.003 214.003H293.972L293.942 213.942C293.145 210.724 292.471 207.384 291.889 204.045V204.014L291.919 203.983C297.864 200.613 327.433 183.729 327.678 183.729H327.739V183.791C327.739 191.083 328.658 195.71 328.658 195.771C330.681 205.485 334.051 210.02 337.391 213.482C338.31 214.463 339.26 215.351 340.271 216.27C341.374 217.312 342.539 218.415 343.672 219.641C348.851 225.126 348.606 229.538 348.606 229.599V229.661H316.432V229.63Z" fill="#DBB3E8"/>
<path d="M298.875 229.63C296.883 224.512 295.198 219.273 293.942 213.972L293.911 213.911H293.972C294.647 213.849 295.29 213.819 295.933 213.819C305.555 213.819 314.012 220.315 316.555 229.568L316.586 229.66H298.875V229.63Z" fill="#B666D2"/>
<path d="M254.997 175.548C248.685 175.548 243.445 171.718 239.033 163.813C234.743 156.152 231.863 145.673 229.84 137.4C229.289 135.102 229.411 133.386 230.269 132.313C231.066 131.302 232.567 130.781 234.712 130.781C242.403 130.781 255.518 137.4 255.64 137.492L256.161 137.737L256.467 137.247C260.604 130.322 266.395 122.386 271.941 115.951C278.345 108.566 281.992 105.931 283.187 105.931C283.248 105.931 283.279 105.931 283.309 105.962C283.646 106.084 283.861 106.299 283.983 106.605C284.32 107.555 283.861 109.424 282.696 111.845C281.777 113.806 280.705 115.43 280.705 115.461L280.582 115.675L280.613 115.92C280.613 115.982 281.593 122.14 278.131 126.461L277.978 126.675L278.376 129.923H290.908C288.518 136.113 272.83 175.548 254.997 175.548Z" fill="white"/>
<path d="M283.156 106.544C283.279 106.605 283.34 106.667 283.401 106.789C283.922 108.26 281.777 112.611 280.184 115.093L279.939 115.491L280 115.951C280 116.012 280.919 121.926 277.641 126.001L277.304 126.4L277.365 126.92L277.671 129.372L277.794 130.444H278.866H289.958C288.549 134.06 284.872 143.13 279.724 152.077C273.78 162.464 264.649 174.874 254.935 174.874C248.838 174.874 243.813 171.136 239.523 163.445C235.264 155.846 232.414 145.428 230.392 137.185C229.871 135.071 229.963 133.539 230.698 132.62C231.372 131.762 232.72 131.333 234.651 131.333C242.189 131.333 255.181 137.89 255.303 137.951L256.314 138.472L256.896 137.492C261.033 130.597 266.794 122.661 272.309 116.288C278.56 109.24 282.206 106.605 283.156 106.544ZM283.187 105.318C279.387 105.318 264.833 122.048 255.916 136.94C255.916 136.94 242.648 130.168 234.712 130.168C230.576 130.168 227.91 132.007 229.258 137.553C234.007 156.888 240.595 176.161 254.997 176.161C274.914 176.161 291.766 129.28 291.766 129.28H278.897L278.59 126.829C282.267 122.232 281.195 115.798 281.195 115.798C281.195 115.798 287.17 106.605 283.493 105.38C283.401 105.349 283.309 105.318 283.187 105.318Z" fill="#333333"/>
<path d="M231.127 113.744C227.389 113.744 224.386 110.711 224.386 107.003C224.386 103.265 227.42 100.262 231.127 100.262C234.866 100.262 237.868 103.296 237.868 107.003C237.868 110.741 234.835 113.744 231.127 113.744Z" fill="white"/>
<path d="M231.127 100.875C234.529 100.875 237.256 103.633 237.256 107.003C237.256 110.374 234.498 113.132 231.127 113.132C227.757 113.132 224.999 110.374 224.999 107.003C224.999 103.633 227.726 100.875 231.127 100.875ZM231.127 99.6494C227.052 99.6494 223.773 102.959 223.773 107.003C223.773 111.048 227.083 114.357 231.127 114.357C235.172 114.357 238.481 111.048 238.481 107.003C238.481 102.959 235.203 99.6494 231.127 99.6494Z" fill="#333333"/>
<path d="M244.426 121.497C240.044 121.497 236.765 118.188 235.478 112.397C231.985 96.8616 235.386 91.8058 241.974 88.6804C242.005 88.6804 245.958 86.9032 250.738 86.9032C254.445 86.9032 257.601 87.945 260.145 89.9673C264.373 93.3379 263.484 102.653 258.061 111.6C254.384 117.698 249.144 121.497 244.426 121.497Z" fill="white"/>
<path d="M250.738 87.5461C254.292 87.5461 257.326 88.5267 259.777 90.4877C261.615 91.9585 262.443 94.7775 262.136 98.4544C261.799 102.407 260.175 106.973 257.571 111.324C254.016 117.238 248.96 120.884 244.426 120.884C240.289 120.884 237.317 117.82 236.091 112.274C232.69 97.1369 235.907 92.2343 242.25 89.2621C242.403 89.1701 246.172 87.5461 250.738 87.5461ZM250.738 86.3205C245.774 86.3205 241.729 88.159 241.729 88.159C234.345 91.6214 231.526 97.5658 234.896 112.549C236.367 119.107 240.105 122.109 244.456 122.109C249.236 122.109 254.69 118.463 258.643 111.967C264.312 102.591 264.986 93.0922 260.573 89.5378C257.448 87.0559 253.894 86.3205 250.738 86.3205Z" fill="#333333"/>
<path d="M252.545 109.608C252.27 109.608 252.025 109.424 251.963 109.148C251.871 108.811 252.086 108.474 252.423 108.413C252.821 108.321 253.189 108.076 253.465 107.739C253.924 107.187 254.231 105.717 254.506 102.806C254.537 102.469 254.844 102.223 255.181 102.254C255.518 102.285 255.763 102.591 255.732 102.928C255.395 106.237 255.058 107.739 254.415 108.536C253.955 109.087 253.342 109.455 252.699 109.608C252.637 109.608 252.607 109.608 252.545 109.608Z" fill="#333333"/>
<path d="M249.818 104.246C249.788 104.246 249.726 104.246 249.696 104.246C249.359 104.184 249.144 103.847 249.236 103.51L249.389 102.775C249.451 102.438 249.788 102.223 250.125 102.284C250.462 102.346 250.676 102.683 250.584 103.02L250.431 103.755C250.37 104.062 250.094 104.246 249.818 104.246Z" fill="#333333"/>
<path d="M258.49 104.246C258.428 104.246 258.398 104.246 258.337 104.215C257.999 104.123 257.816 103.817 257.877 103.48L258.061 102.714C258.153 102.377 258.459 102.193 258.796 102.254C259.133 102.346 259.317 102.652 259.256 102.99L259.072 103.756C259.011 104.062 258.766 104.246 258.49 104.246Z" fill="#333333"/>
<path d="M249.787 112.948C249.604 112.948 249.42 112.948 249.205 112.917C247.52 112.611 246.386 110.987 246.693 109.302C246.754 108.965 247.06 108.75 247.397 108.811C247.734 108.873 247.949 109.179 247.888 109.516C247.796 110.006 247.918 110.497 248.194 110.926C248.5 111.355 248.929 111.63 249.42 111.722C249.512 111.753 249.634 111.753 249.757 111.753C250.094 111.753 250.37 112.029 250.37 112.366C250.37 112.703 250.124 112.948 249.787 112.948Z" fill="#333333"/>
<path d="M230.392 107.831C230.085 107.831 229.81 107.586 229.779 107.279C229.748 106.942 229.993 106.636 230.331 106.605L233.946 106.268C234.283 106.238 234.59 106.483 234.62 106.82C234.651 107.157 234.406 107.463 234.069 107.494L230.453 107.831C230.422 107.831 230.422 107.831 230.392 107.831Z" fill="#333333"/>
<path d="M270.93 87.3012C268.479 83.5017 260.635 83.0727 256.804 87.3931C249.604 84.6047 241.698 88.1285 241.698 88.1285C234.773 91.4071 231.832 96.8306 234.314 109.914C244.916 105.38 245.835 90.9781 245.835 90.9781C245.835 90.9781 252.27 99.1593 262.565 99.0061C262.596 99.0061 262.626 99.0061 262.626 99.0061C262.841 99.0061 263.055 99.0061 263.27 98.9755V98.9449C270.562 98.2401 274.209 92.357 270.93 87.3012Z" fill="#333333"/>
<path d="M238.512 229.538C235.141 229.538 223.528 228.741 216.174 218.569C212.344 213.298 210.26 206.312 209.954 197.794C209.586 187.743 211.762 175.518 216.389 161.423V161.392H253.771C254.2 160.84 261.707 150.851 272.033 141.046C281.777 131.731 296.117 120.639 308.956 120.639C315.758 120.639 322.193 124.592 324.951 130.475C336.901 155.999 344.009 173.924 346.093 179.807C346.093 179.807 340.179 175.732 327.586 183.913C323.02 186.824 320.079 189.122 317.229 191.298C314.349 193.535 311.652 195.618 307.454 198.284C299.273 203.432 291.981 204.106 291.919 204.106H291.858V204.045C290.234 194.546 289.958 187.314 289.897 185.905C280.46 204.749 270.838 217.128 260.573 223.716C252.178 229.078 245.069 229.538 238.512 229.538Z" fill="#B666D2"/>
<path d="M290.05 186.272C289.713 186.272 289.468 186.027 289.437 185.69C288.824 171.687 291.245 155.784 291.276 155.631C291.337 155.294 291.643 155.08 291.98 155.11C292.318 155.172 292.532 155.478 292.501 155.815C292.471 155.968 290.081 171.748 290.663 185.629C290.663 185.966 290.418 186.272 290.05 186.272C290.081 186.272 290.05 186.272 290.05 186.272Z" fill="#333333"/>
<path d="M244.579 176.467C244.487 176.467 244.364 176.437 244.272 176.376C243.996 176.192 243.874 175.824 244.058 175.548C246.999 170.615 250.247 165.62 253.403 161.116C253.587 160.84 253.985 160.779 254.261 160.963C254.537 161.147 254.598 161.545 254.414 161.821C251.289 166.295 248.072 171.258 245.13 176.192C244.977 176.376 244.793 176.467 244.579 176.467Z" fill="#333333"/>
<path d="M345.97 180.359C345.725 180.359 345.48 180.205 345.388 179.96C343.06 173.434 337.207 159.094 329.363 141.751C329.21 141.444 329.363 141.076 329.669 140.954C329.976 140.801 330.343 140.954 330.466 141.26C338.341 158.665 344.224 173.035 346.553 179.593C346.675 179.899 346.491 180.267 346.185 180.389C346.093 180.359 346.032 180.359 345.97 180.359Z" fill="#333333"/>
<path d="M247.643 171.258H213.631C213.294 171.258 213.018 170.982 213.018 170.645C213.018 170.308 213.294 170.033 213.631 170.033H247.643C247.98 170.033 248.256 170.308 248.256 170.645C248.256 170.982 247.98 171.258 247.643 171.258Z" fill="#333333"/>
<path d="M243.537 205.362C243.108 205.362 242.71 205.331 242.311 205.239C233.732 203.615 235.356 186.855 236.551 174.629C236.704 173.189 236.826 171.84 236.918 170.615C236.949 170.278 237.225 170.033 237.592 170.063C237.93 170.094 238.175 170.4 238.144 170.737C238.052 171.963 237.899 173.342 237.776 174.782C236.704 185.874 235.08 202.666 242.556 204.075C242.893 204.136 243.23 204.167 243.568 204.167C252.545 204.167 265.537 183.454 274.239 169.573C276.201 166.448 278.039 163.506 279.632 161.147C286.312 151.127 294.892 139.728 301.97 140.525C305.003 140.862 307.424 143.405 309.201 148.093C311.622 154.467 321.672 187.621 321.764 187.958C321.856 188.295 321.672 188.632 321.366 188.724C321.029 188.816 320.692 188.632 320.6 188.325C320.508 187.988 310.457 154.865 308.037 148.522C306.443 144.325 304.329 142.027 301.817 141.751C295.321 141.015 286.619 152.843 280.643 161.821C279.081 164.18 277.242 167.122 275.281 170.216C265.905 185.139 253.22 205.362 243.537 205.362Z" fill="#333333"/>
<path d="M368.369 188.724C368.247 188.724 368.124 188.693 368.002 188.601L341.957 170.216C341.681 170.033 341.619 169.634 341.803 169.358C341.987 169.083 342.386 169.021 342.661 169.205L368.706 187.59C368.982 187.774 369.043 188.172 368.86 188.448C368.737 188.632 368.553 188.724 368.369 188.724Z" fill="#333333"/>
<path d="M272.248 177.693C264.22 177.693 257.693 173.189 253.649 169.42C249.236 165.314 246.693 161.177 246.693 161.147C244.518 157.776 242.679 154.222 241.178 150.514L238.052 142.823L260.359 134.029L264.281 138.779C267.927 145.55 270.103 150.055 270.134 150.116L270.379 150.667L270.93 150.422C271.175 150.3 296.485 139.054 309.446 135.439C314.349 134.06 319.19 133.355 323.388 133.355C329.639 133.355 333.5 134.979 333.5 137.614V138.013L333.868 138.166C333.868 138.166 335.154 138.779 335.491 139.882C335.675 140.495 335.553 141.169 335.124 141.873L334.848 142.333L335.277 142.67C335.522 142.854 337.483 144.509 335.829 146.684L335.583 147.021L335.798 147.389C335.798 147.389 336.564 148.706 336.043 149.81C335.675 150.606 334.664 151.158 333.101 151.403C331.876 151.617 330.803 151.679 329.792 151.74C326.207 151.954 322.806 152.169 312.97 157.929C309.477 159.952 306.137 162.342 302.859 164.671C294.31 170.738 285.454 177.019 273.535 177.724C273.106 177.662 272.677 177.693 272.248 177.693Z" fill="white"/>
<path d="M323.388 133.907C329.149 133.907 332.887 135.347 332.887 137.553V138.35L333.592 138.687C333.898 138.84 334.695 139.33 334.909 140.035C335.032 140.464 334.94 140.954 334.603 141.536L334.051 142.455L334.909 143.13C334.909 143.13 335.43 143.559 335.706 144.171C336.043 144.876 335.92 145.55 335.369 146.286L334.848 146.929L335.277 147.634C335.277 147.634 335.859 148.706 335.491 149.472C335.124 150.238 333.929 150.575 333.009 150.729C331.814 150.943 330.773 151.004 329.761 151.066C326.084 151.28 322.622 151.495 312.694 157.316C309.201 159.369 305.8 161.759 302.552 164.088C294.064 170.125 285.301 176.345 273.565 177.019C273.167 177.049 272.738 177.049 272.309 177.049C264.495 177.049 258.153 172.668 254.169 168.991C249.788 164.946 247.275 160.84 247.275 160.779V160.748V160.718C245.13 157.408 243.292 153.854 241.821 150.208L238.91 143.068L260.206 134.642L263.821 138.993C267.437 145.703 269.613 150.208 269.613 150.238L270.133 151.311L271.237 150.821C271.482 150.698 296.73 139.483 309.661 135.868C314.471 134.611 319.221 133.907 323.388 133.907ZM323.388 132.681C319.313 132.681 314.41 133.355 309.293 134.795C296.117 138.472 270.685 149.809 270.685 149.809C270.685 149.809 268.509 145.274 264.802 138.411L260.543 133.263L237.255 142.455L240.626 150.729C242.127 154.467 243.996 158.052 246.172 161.453C246.172 161.453 256.345 178.306 272.278 178.306C272.707 178.306 273.136 178.306 273.596 178.275C290.265 177.295 300.744 165.773 313.307 158.42C325.87 151.066 327.708 152.904 333.224 151.985C338.739 151.066 336.349 147.052 336.349 147.052C338.433 144.325 335.675 142.18 335.675 142.18C337.514 139.116 334.143 137.584 334.143 137.584C334.112 134.366 329.761 132.681 323.388 132.681Z" fill="#333333"/>
<path d="M216.45 161.514C216.358 161.484 209.341 159.247 209.954 150.729C210.322 145.765 215.898 136.909 225.305 126.491C234.222 116.564 238.542 115.736 242.189 115.736C249.542 115.736 254.2 119.536 260.635 130.781C262.075 133.294 263.484 135.837 264.863 138.38L264.894 138.441L240.718 150.759C242.219 154.467 244.027 158.052 246.203 161.422L246.264 161.514H216.45Z" fill="#DBB3E8"/>
<path d="M314.502 139.085C314.226 139.085 313.981 138.901 313.919 138.625C313.827 138.288 314.042 137.951 314.348 137.89C314.777 137.767 325.257 135.132 333.928 137.583C334.265 137.675 334.449 138.012 334.357 138.349C334.265 138.686 333.928 138.87 333.591 138.778C325.257 136.388 314.777 139.054 314.655 139.085C314.594 139.085 314.563 139.085 314.502 139.085Z" fill="#333333"/>
<path d="M315.973 143.681C315.697 143.681 315.452 143.497 315.391 143.222C315.299 142.885 315.513 142.548 315.82 142.486C316.187 142.394 325.257 140.035 335.093 141.873C335.43 141.935 335.644 142.241 335.583 142.578C335.522 142.915 335.185 143.13 334.878 143.068C325.318 141.291 316.249 143.651 316.157 143.681C316.065 143.681 316.034 143.681 315.973 143.681Z" fill="#333333"/>
<path d="M317.505 148.277C317.198 148.277 316.953 148.063 316.892 147.757C316.83 147.419 317.076 147.113 317.382 147.052C327.126 145.428 332.274 145.887 335.675 146.439C336.012 146.5 336.226 146.807 336.165 147.144C336.104 147.481 335.797 147.695 335.46 147.634C332.151 147.082 327.126 146.653 317.597 148.247C317.566 148.277 317.535 148.277 317.505 148.277Z" fill="#333333"/>
<path d="M304.85 164.548C304.605 164.548 304.39 164.394 304.298 164.18L294.248 140.035C294.125 139.728 294.279 139.361 294.585 139.238C294.891 139.115 295.259 139.269 295.382 139.575L305.432 163.72C305.555 164.027 305.401 164.394 305.095 164.517C305.003 164.548 304.942 164.548 304.85 164.548Z" fill="#333333"/>
<path d="M241.514 151.678C241.269 151.678 241.055 151.556 240.963 151.311C239.645 148.369 237.868 144.141 236.979 141.751C236.857 141.444 237.01 141.076 237.347 140.954C237.654 140.831 238.021 140.984 238.144 141.322C239.032 143.681 240.81 147.879 242.127 150.82C242.25 151.127 242.127 151.494 241.821 151.617C241.668 151.648 241.606 151.678 241.514 151.678Z" fill="#333333"/>
<path d="M299.733 158.083C303.287 158.083 306.168 155.202 306.168 151.648C306.168 148.094 303.287 145.213 299.733 145.213C296.179 145.213 293.298 148.094 293.298 151.648C293.298 155.202 296.179 158.083 299.733 158.083Z" fill="white"/>
<path d="M299.733 158.695C295.842 158.695 292.686 155.539 292.686 151.648C292.686 147.756 295.842 144.6 299.733 144.6C303.624 144.6 306.781 147.756 306.781 151.648C306.781 155.539 303.624 158.695 299.733 158.695ZM299.733 145.826C296.516 145.826 293.911 148.43 293.911 151.648C293.911 154.865 296.516 157.469 299.733 157.469C302.95 157.469 305.555 154.865 305.555 151.648C305.555 148.43 302.95 145.826 299.733 145.826Z" fill="#333333"/>
<path d="M196.748 192.095C196.472 192.095 196.166 192.064 195.89 192.033C194.603 191.819 193.47 191.083 192.734 190.011C191.999 188.939 191.692 187.652 191.907 186.365C192.305 184.005 194.358 182.32 196.718 182.32C196.993 182.32 197.3 182.351 197.576 182.381L198.219 182.504L198.28 181.83C198.311 181.462 198.403 181.125 198.495 180.757C199.169 178.735 201.038 177.387 203.152 177.387C203.673 177.387 204.194 177.479 204.684 177.632L205.175 177.785L205.42 177.326C205.91 176.376 206.707 175.579 207.657 175.119C208.331 174.782 209.035 174.629 209.801 174.629C211.701 174.629 213.386 175.671 214.214 177.387L214.459 177.877L214.98 177.693C215.378 177.54 215.807 177.448 216.236 177.417C216.389 177.417 216.542 177.387 216.696 177.387C219.239 177.387 221.323 179.287 221.568 181.83L221.629 182.504L222.272 182.381C222.548 182.32 222.824 182.32 223.1 182.289C225.796 182.289 228.002 184.496 228.002 187.192C228.002 189.888 225.796 192.095 223.1 192.095H196.748Z" fill="white"/>
<path d="M209.801 175.242C211.456 175.242 212.927 176.161 213.662 177.663L214.152 178.674L215.194 178.275C215.531 178.153 215.899 178.061 216.297 178.03C216.42 178.03 216.573 178 216.695 178C218.902 178 220.74 179.654 220.955 181.891L221.077 183.209L222.395 182.963C222.64 182.933 222.885 182.902 223.13 182.902C225.489 182.902 227.42 184.833 227.42 187.192C227.42 189.551 225.489 191.482 223.13 191.482H196.779C196.533 191.482 196.288 191.451 196.043 191.42C194.909 191.237 193.929 190.593 193.285 189.674C192.642 188.724 192.366 187.59 192.581 186.457C192.948 184.404 194.726 182.902 196.809 182.902C197.054 182.902 197.3 182.933 197.545 182.963L198.862 183.178L198.985 181.86C199.015 181.554 199.077 181.248 199.169 180.941C199.751 179.164 201.375 178 203.244 178C203.704 178 204.133 178.061 204.561 178.214L205.573 178.551L206.032 177.601C206.461 176.774 207.135 176.069 207.993 175.671C208.514 175.395 209.127 175.242 209.801 175.242ZM209.801 174.016C209.004 174.016 208.177 174.2 207.411 174.568C206.339 175.089 205.45 175.977 204.899 177.05C204.316 176.866 203.765 176.774 203.183 176.774C200.854 176.774 198.709 178.245 197.943 180.573C197.82 180.972 197.728 181.37 197.698 181.768C197.391 181.707 197.054 181.677 196.748 181.677C194.113 181.677 191.784 183.576 191.324 186.242C190.804 189.245 192.795 192.095 195.798 192.615C196.104 192.677 196.442 192.707 196.748 192.707H223.099C226.133 192.707 228.615 190.225 228.615 187.192C228.615 184.158 226.133 181.677 223.099 181.677C222.793 181.677 222.456 181.707 222.15 181.768C221.874 178.919 219.484 176.774 216.665 176.774C216.481 176.774 216.328 176.774 216.144 176.805C215.654 176.835 215.194 176.958 214.734 177.111C213.785 175.15 211.823 174.016 209.801 174.016Z" fill="#333333"/>
<path d="M196.472 228.864L187.525 188.019H232.292L223.345 228.864H196.472Z" fill="white"/>
<path d="M231.526 188.632L222.854 228.251H196.932L188.26 188.632H231.526ZM233.058 187.406H186.79L195.982 229.477H223.865L233.058 187.406Z" fill="#333333"/>
<path d="M205.358 228.864L200.639 188.019H219.177L214.458 228.864H205.358Z" fill="white"/>
<path d="M218.503 188.632L213.907 228.251H205.94L201.344 188.632H218.503ZM219.882 187.406H199.965L204.837 229.477H215.01L219.882 187.406Z" fill="#333333"/>
</svg>
