<svg width="375" height="281" viewBox="0 0 375 281" fill="none" xmlns="http://www.w3.org/2000/svg">
<path d="M194.931 153.941C193.295 153.941 191.859 153.3 190.864 152.173C189.87 151.002 189.472 149.433 189.737 147.775L198.533 92.1718C199.086 88.68 202.356 85.8513 205.848 85.8513H290.314C291.949 85.8513 293.386 86.4922 294.38 87.6192C295.375 88.7905 295.772 90.3596 295.507 92.0171L286.711 147.642C286.159 151.134 282.888 153.963 279.396 153.963L194.931 153.941Z" fill="white"/>
<path d="M290.313 86.3151C291.816 86.3151 293.142 86.8897 294.026 87.9284C294.932 88.9892 295.308 90.4257 295.065 91.9727L286.269 147.554C285.761 150.825 282.667 153.499 279.396 153.499H194.93C193.428 153.499 192.102 152.924 191.218 151.885C190.312 150.825 189.936 149.388 190.179 147.841L198.975 92.26C199.483 88.9892 202.577 86.3151 205.848 86.3151H290.313ZM290.313 85.4311H205.848C202.157 85.4311 198.687 88.4367 198.091 92.1274L189.295 147.709C188.72 151.399 191.24 154.405 194.93 154.405H279.396C283.087 154.405 286.556 151.399 287.153 147.709L295.949 92.1274C296.546 88.4146 294.026 85.4311 290.313 85.4311Z" fill="#333333"/>
<path d="M286.203 99.1771C286.071 99.1771 285.96 99.1329 285.872 99.0224L281.319 93.4975C281.165 93.2986 281.187 93.0334 281.386 92.8787C281.584 92.724 281.85 92.7461 282.004 92.945L286.557 98.4699C286.712 98.6688 286.69 98.934 286.491 99.0887C286.402 99.155 286.292 99.1771 286.203 99.1771Z" fill="#333333"/>
<path d="M280.677 99.1773C280.545 99.1773 280.434 99.1331 280.346 99.0226C280.191 98.8458 280.213 98.5586 280.39 98.4039L286.887 92.8789C287.064 92.7242 287.351 92.7463 287.506 92.9231C287.661 93.0999 287.639 93.3872 287.462 93.5419L280.964 99.0668C280.876 99.1331 280.788 99.1773 280.677 99.1773Z" fill="#333333"/>
<path d="M212.499 169.411L208.72 238.694H212.499L218.223 198.008H255.528L278.114 238.694H282.18L251.373 169.411H212.499Z" fill="#B666D2"/>
<path d="M257.406 169.853H205.383C205.14 169.853 204.941 169.654 204.941 169.411C204.941 169.168 205.14 168.969 205.383 168.969H257.406C257.649 168.969 257.848 169.168 257.848 169.411C257.848 169.654 257.649 169.853 257.406 169.853Z" fill="#333333"/>
<path d="M218.223 198.449H210.93C210.687 198.449 210.488 198.25 210.488 198.007C210.488 197.764 210.687 197.565 210.93 197.565H218.223C218.466 197.565 218.665 197.764 218.665 198.007C218.665 198.25 218.466 198.449 218.223 198.449Z" fill="#333333"/>
<path d="M264.081 198.449H255.616C255.373 198.449 255.174 198.25 255.174 198.007C255.174 197.764 255.373 197.565 255.616 197.565H264.081C264.324 197.565 264.523 197.764 264.523 198.007C264.523 198.25 264.324 198.449 264.081 198.449Z" fill="#333333"/>
<path d="M233.45 186.449C234.878 186.449 236.036 185.292 236.036 183.864C236.036 182.436 234.878 181.278 233.45 181.278C232.022 181.278 230.864 182.436 230.864 183.864C230.864 185.292 232.022 186.449 233.45 186.449Z" fill="#333333"/>
<path d="M113.205 218.451C113.117 218.406 104.277 213.721 103.172 208.904C102.885 207.666 103.128 206.495 103.901 205.434C103.923 205.412 105.161 204.439 108.144 204.439C110.951 204.439 114.443 205.147 118.332 206.804L118.266 206.959L118.244 207.003C115.901 211.489 113.316 218.362 113.272 218.429L113.249 218.473L113.205 218.451Z" fill="#333333"/>
<path d="M181.162 212.152C181.162 212.13 180.786 209.213 180.742 201.809V201.787L180.764 200.351C183.394 198.98 186.554 197.235 191.439 197.588C194.289 197.787 195.461 199.776 195.483 199.798C196.013 201.124 195.969 202.45 195.328 203.754C192.742 208.97 181.339 212.152 181.228 212.196L181.184 212.218L181.162 212.152Z" fill="#333333"/>
<path d="M141.603 227.688C141.426 227.688 141.249 227.578 141.183 227.401C141.117 227.202 141.183 226.981 141.36 226.871L163.018 213.456C165.868 211.71 169.625 212.594 171.393 215.423C171.614 215.799 171.813 216.196 171.968 216.616C172.498 218.141 172.41 219.799 171.703 221.257C170.996 222.738 169.758 223.821 168.211 224.351C167.835 224.484 167.415 224.572 166.951 224.661L141.625 227.666C141.647 227.688 141.625 227.688 141.603 227.688ZM166.222 213.434C165.294 213.434 164.344 213.677 163.504 214.207L143.548 226.561L166.863 223.799C167.283 223.732 167.636 223.644 167.968 223.534C169.272 223.092 170.333 222.141 170.951 220.882C171.548 219.622 171.637 218.23 171.172 216.926C171.04 216.572 170.885 216.218 170.686 215.909C169.67 214.318 167.968 213.434 166.222 213.434Z" fill="#333333"/>
<path d="M158.333 235.688C158.2 235.688 158.09 235.644 158.001 235.534C154.598 231.688 151.902 231.268 149.051 230.848C146.62 230.495 144.122 230.119 141.272 227.511C141.095 227.357 141.073 227.069 141.25 226.893C141.426 226.716 141.692 226.694 141.868 226.87C144.52 229.279 146.774 229.611 149.183 229.986C152.078 230.406 155.062 230.87 158.664 234.959C158.819 235.136 158.819 235.423 158.62 235.578C158.532 235.644 158.443 235.688 158.333 235.688Z" fill="#333333"/>
<path d="M174.709 238.738C168.985 226.694 158.421 223.799 152.609 223.158H152.587V223.136C152.101 220.948 151.681 218.76 151.327 216.66V216.638L151.349 216.616C152.521 216.02 179.858 201.787 180.764 201.787C180.808 201.787 180.83 201.831 180.83 201.854C180.875 209.235 181.25 212.152 181.25 212.174C181.25 212.285 181.781 222.163 189.427 228.329C195.328 233.081 195.505 235.688 195.704 238.716V238.76H174.709V238.738Z" fill="#FF5573"/>
<path d="M157.228 238.738C155.35 233.655 153.781 228.396 152.609 223.114L152.587 223.047H152.654C156.61 223.489 162.378 224.926 167.549 229.191L167.571 229.213L167.24 238.738H157.228Z" fill="#333333"/>
<path d="M103.901 205.434C103.967 205.367 110.31 198.671 140.609 173.477C145.714 169.345 150.023 167.245 153.405 167.245C158.178 167.245 159.438 171.51 159.46 171.555L152.985 206.981C149.537 211.246 147.239 214.229 145.493 216.66L145.471 216.683H145.449C145.449 216.683 145.36 216.683 145.206 216.683C143.924 216.683 137.117 216.484 129.183 212.417C122.111 208.793 118.641 207.135 118.266 206.959C106.73 203.268 103.901 205.434 103.901 205.434Z" fill="#F696BB"/>
<path d="M97.8901 143.333L97.9122 143.267C98.3542 141.808 98.8625 140.239 99.3929 138.493C99.7686 137.322 100.144 136.085 100.564 134.759V134.736L129.648 134.626L130.863 143.355H97.8901V143.333Z" fill="#FF5573"/>
<path d="M151.328 216.638C147.703 195.157 150.753 178.582 150.952 177.521H114.819C107.526 177.521 101.846 175.466 98.3985 171.554C95.1056 167.82 93.8459 162.604 94.6636 156.04C95.0614 152.858 96.078 149.256 97.9123 143.289V143.267H130.841L131.062 144.902C131.88 144.968 146.178 146.272 157.449 148.239C163.173 149.234 167.77 150.405 171.593 152.814C175.483 155.267 178.312 158.869 180.787 164.46C184.102 171.93 189.715 185.477 195.461 199.864C194.422 199.002 189.384 197.411 180.698 201.92C177.803 203.445 175.836 204.859 173.759 206.34C171.24 208.13 168.632 209.986 164.146 212.218C160.101 214.273 155.792 215.798 151.35 216.704H151.306L151.328 216.638Z" fill="#F696BB"/>
<path d="M105.227 90.9347C110.585 90.9347 114.929 86.591 114.929 81.2329C114.929 75.8747 110.585 71.531 105.227 71.531C99.8686 71.531 95.5249 75.8747 95.5249 81.2329C95.5249 86.591 99.8686 90.9347 105.227 90.9347Z" fill="#333333"/>
<path d="M87.7018 83.2657C93.06 83.2657 97.4037 78.9221 97.4037 73.5639C97.4037 68.2057 93.06 63.8621 87.7018 63.8621C82.3437 63.8621 78 68.2057 78 73.5639C78 78.9221 82.3437 83.2657 87.7018 83.2657Z" fill="#333333"/>
<path d="M112.94 104.371C110.178 104.371 107.923 102.117 107.923 99.3541C107.923 96.5916 110.178 94.3374 112.94 94.3374C115.702 94.3374 117.957 96.5916 117.957 99.3541C117.957 102.117 115.702 104.371 112.94 104.371Z" fill="white"/>
<path d="M112.94 94.7795C115.459 94.7795 117.514 96.8348 117.514 99.3542C117.514 101.874 115.459 103.929 112.94 103.929C110.42 103.929 108.365 101.874 108.365 99.3542C108.365 96.8348 110.398 94.7795 112.94 94.7795ZM112.94 93.8955C109.912 93.8955 107.481 96.3486 107.481 99.3542C107.481 102.36 109.934 104.813 112.94 104.813C115.945 104.813 118.398 102.36 118.398 99.3542C118.398 96.3486 115.945 93.8955 112.94 93.8955Z" fill="#333333"/>
<path d="M112.255 100.636C112.122 100.636 111.967 100.57 111.879 100.437C111.746 100.238 111.791 99.951 111.99 99.8184L115.216 97.6526C115.415 97.52 115.702 97.5642 115.835 97.7631C115.967 97.962 115.923 98.2493 115.724 98.3819L112.498 100.548C112.432 100.614 112.343 100.636 112.255 100.636Z" fill="#333333"/>
<path d="M122.796 104.261C120.476 104.261 118.244 102.802 116.387 100.04C109.846 90.3824 110.818 86.0287 114.487 82.1391C114.531 82.0949 118.862 77.7413 124.277 77.7413C125.271 77.7413 126.266 77.896 127.216 78.1833C130.995 79.3545 132.874 85.9403 131.592 93.4763C130.487 99.819 126.862 104.261 122.796 104.261Z" fill="white"/>
<path d="M124.277 78.1827C125.227 78.1827 126.177 78.3153 127.083 78.6026C128.719 79.1109 130.045 80.8125 130.84 83.3982C131.68 86.1828 131.791 89.7188 131.15 93.3874C130.619 96.5034 129.47 99.1554 127.857 101.056C126.376 102.824 124.564 103.796 122.796 103.796C120.63 103.796 118.531 102.404 116.741 99.7742C110.376 90.3818 111.282 86.1607 114.796 82.4479C114.951 82.2932 119.127 78.1827 124.277 78.1827ZM124.277 77.2987C118.597 77.2987 114.155 81.8512 114.155 81.8512C110.066 86.1828 109.713 90.9785 116.011 100.283C118.089 103.332 120.475 104.68 122.796 104.68C126.973 104.68 130.862 100.283 132.012 93.5421C133.382 85.6303 131.304 78.9783 127.349 77.7628C126.288 77.4313 125.271 77.2987 124.277 77.2987Z" fill="#333333"/>
<path d="M114.156 81.8512C110.598 85.6082 109.868 89.7409 113.868 96.8349C120.653 92.415 118.377 82.2711 118.377 82.2711C125.471 85.8292 131.968 84.2159 131.968 84.2159C131.217 80.8567 129.581 78.4478 127.349 77.7628C120.3 75.5749 114.156 81.8512 114.156 81.8512Z" fill="#333333"/>
<path d="M127.106 93.6307C126.973 93.6307 126.841 93.5644 126.752 93.4539C126.598 93.255 126.62 92.9898 126.819 92.8351C127.084 92.6142 127.283 92.349 127.393 92.0617C127.548 91.5755 127.371 90.5147 126.797 88.4152C126.73 88.1721 126.863 87.929 127.106 87.8627C127.349 87.7964 127.592 87.929 127.659 88.1721C128.321 90.5368 128.476 91.6197 128.255 92.3489C128.1 92.813 127.791 93.2108 127.393 93.5202C127.305 93.6086 127.194 93.6307 127.106 93.6307Z" fill="#333333"/>
<path d="M123.814 90.6915C123.593 90.6915 123.416 90.5368 123.372 90.3158L123.283 89.7412C123.239 89.4981 123.416 89.2771 123.659 89.2329C123.902 89.1887 124.123 89.3655 124.167 89.6086L124.256 90.1832C124.3 90.4263 124.123 90.6473 123.88 90.6915C123.858 90.6915 123.836 90.6915 123.814 90.6915Z" fill="#333333"/>
<path d="M129.735 88.3489C129.514 88.3489 129.338 88.1942 129.293 87.9732L129.205 87.4207C129.161 87.1776 129.338 86.9566 129.581 86.9124C129.824 86.8682 130.045 87.045 130.089 87.2881L130.177 87.8406C130.222 88.0837 130.045 88.3047 129.802 88.3489C129.78 88.3489 129.758 88.3489 129.735 88.3489Z" fill="#333333"/>
<path d="M125.448 96.7463C125.006 96.7463 124.587 96.6137 124.211 96.3706C123.703 96.0391 123.349 95.5087 123.238 94.912C123.194 94.6689 123.349 94.4479 123.592 94.3816C123.835 94.3374 124.056 94.4921 124.122 94.7352C124.189 95.1109 124.41 95.4203 124.719 95.6192C125.029 95.8181 125.382 95.9065 125.736 95.8181C125.802 95.796 125.89 95.7739 126.001 95.7297C126.222 95.6413 126.487 95.7518 126.576 95.9728C126.664 96.1938 126.553 96.459 126.332 96.5474C126.222 96.5916 126.067 96.6579 125.913 96.68C125.736 96.7242 125.581 96.7463 125.448 96.7463Z" fill="#333333"/>
<path d="M140.122 151.179C135.128 151.179 131.702 149.587 129.691 148.261C127.525 146.825 126.509 145.344 126.509 145.322L126.487 145.3C126.442 145.234 121.514 139.002 117.779 129.278C117.779 129.278 117.779 129.255 117.757 129.255L114.133 121.521L132.431 112.504L138.266 120.924C139.194 122.891 140.387 125.543 140.41 125.565C140.476 125.72 140.608 125.808 140.763 125.83C140.785 125.83 140.785 125.83 140.807 125.83C140.962 125.83 141.095 125.764 141.183 125.631C141.316 125.432 155.084 105.277 161.67 98.9124C163.084 97.5643 164.034 97.277 164.587 97.277C165.493 97.277 165.913 98.0726 166.112 98.7356C166.156 98.8682 166.244 98.9566 166.355 99.0229C166.421 99.045 166.465 99.0671 166.532 99.0671C166.598 99.0671 166.664 99.045 166.73 99.0229C166.753 99.0008 169.736 97.5201 172.454 96.9013C172.764 96.835 173.029 96.7908 173.294 96.7908C174.952 96.7908 175.349 98.2273 175.372 98.2936C175.416 98.4704 175.548 98.5809 175.725 98.6251C176.454 98.7577 176.941 99.045 177.206 99.487C177.604 100.172 177.338 101.056 177.338 101.078C177.294 101.211 177.316 101.343 177.383 101.454C177.449 101.564 177.581 101.631 177.692 101.653C178.355 101.741 178.819 101.984 179.062 102.404C179.349 102.868 179.327 103.531 179.062 104.305C178.974 104.526 179.084 104.747 179.283 104.857C179.283 104.857 180.079 105.277 180.145 106.029C180.211 106.758 179.593 107.664 178.333 108.636C177.957 108.946 177.559 109.233 177.206 109.498C173.825 112.062 170.907 114.294 166.775 122.161C166.333 123.023 165.869 123.907 165.404 124.791C162.31 130.736 158.819 137.477 154.686 142.582C150.023 148.372 145.249 151.179 140.122 151.179Z" fill="white"/>
<path d="M173.294 97.2332C174.554 97.2332 174.885 98.2277 174.951 98.4045C175.018 98.7581 175.305 99.0012 175.659 99.0675C176.255 99.178 176.631 99.399 176.83 99.7084C177.095 100.128 176.985 100.747 176.918 100.946C176.83 101.189 176.874 101.476 177.007 101.697C177.139 101.918 177.382 102.073 177.648 102.095C178.001 102.139 178.487 102.272 178.708 102.626C178.907 102.979 178.907 103.51 178.664 104.128C178.509 104.548 178.686 105.012 179.084 105.233C179.084 105.233 179.681 105.543 179.725 106.051C179.769 106.626 179.172 107.421 178.09 108.283C177.714 108.593 177.316 108.88 176.962 109.145C173.537 111.753 170.576 114.007 166.421 121.941C165.979 122.803 165.515 123.687 165.051 124.571C161.979 130.493 158.487 137.212 154.376 142.295C149.78 147.974 145.139 150.737 140.144 150.737C135.282 150.737 131.945 149.212 130 147.908C127.879 146.516 126.906 145.079 126.884 145.079C126.862 145.057 126.862 145.035 126.84 145.013C126.796 144.947 121.89 138.759 118.199 129.123C118.199 129.101 118.177 129.079 118.177 129.057L114.729 121.72L132.299 113.057L137.89 121.145C138.818 123.112 139.989 125.72 140.012 125.764C140.144 126.051 140.431 126.25 140.741 126.272C140.763 126.272 140.785 126.272 140.829 126.272C141.117 126.272 141.404 126.14 141.559 125.897C141.691 125.698 155.437 105.587 162.001 99.2443C163.371 97.9183 164.211 97.7194 164.609 97.7194C164.808 97.7194 165.382 97.7194 165.714 98.8465C165.78 99.0896 165.979 99.3106 166.2 99.399C166.31 99.4432 166.421 99.4653 166.553 99.4653C166.686 99.4653 166.819 99.4432 166.951 99.3769C166.973 99.3548 169.913 97.8962 172.587 97.2995C172.83 97.2553 173.073 97.2332 173.294 97.2332ZM173.294 96.3492C173.007 96.3492 172.697 96.3934 172.344 96.4597C169.537 97.1006 166.509 98.6255 166.509 98.6255C166.178 97.4984 165.493 96.8575 164.542 96.8575C163.68 96.8575 162.575 97.41 161.316 98.6255C154.62 105.101 140.763 125.411 140.763 125.411C140.763 125.411 139.547 122.714 138.597 120.725L132.52 111.952L113.492 121.344L117.293 129.455C121.094 139.356 126.067 145.588 126.067 145.588C126.067 145.588 130.133 151.643 140.056 151.643C152.763 151.643 160.52 134.936 167.106 122.383C171.636 113.742 174.664 112.018 178.554 108.99C182.443 105.963 179.416 104.46 179.416 104.46C180.056 102.736 179.416 101.432 177.692 101.233C177.692 101.233 178.532 98.7139 175.747 98.2056C175.813 98.1835 175.349 96.3492 173.294 96.3492Z" fill="#333333"/>
<path d="M154.002 108.349C153.891 108.349 153.781 108.305 153.692 108.216C153.515 108.04 153.515 107.774 153.67 107.598C158.864 102.183 166.046 98.8902 166.112 98.8681C166.333 98.7576 166.598 98.8681 166.687 99.0891C166.797 99.3101 166.687 99.5753 166.466 99.6637C166.4 99.6858 159.372 102.912 154.289 108.216C154.245 108.305 154.112 108.349 154.002 108.349Z" fill="#333333"/>
<path d="M100.056 136.637C99.9896 136.615 95.4812 135.267 94.8403 130.338C94.332 126.405 95.2381 122.913 101.603 114.692C108.1 106.338 113.603 99.929 120.432 99.929C120.675 99.929 120.918 99.929 121.161 99.9511C126.156 100.305 130.09 103.288 132.874 108.857C135.084 113.255 137.029 117.255 138.709 120.769L138.731 120.813L117.404 129.477C118.332 131.885 119.415 134.294 120.609 136.593L120.653 136.659L100.056 136.637Z" fill="#FF5573"/>
<path d="M120.763 137.035H100.056C99.8127 137.035 99.6138 136.836 99.6138 136.593C99.6138 136.35 99.8127 136.151 100.056 136.151H120.763C121.006 136.151 121.205 136.35 121.205 136.593C121.205 136.836 121.006 137.035 120.763 137.035Z" fill="#333333"/>
<path d="M124.874 143.731H97.8898C97.6467 143.731 97.4478 143.532 97.4478 143.289C97.4478 143.046 97.6467 142.847 97.8898 142.847H124.874C125.117 142.847 125.316 143.046 125.316 143.289C125.316 143.532 125.117 143.731 124.874 143.731Z" fill="#333333"/>
<path d="M118.178 130.78C118.001 130.78 117.846 130.692 117.78 130.515C116.543 127.642 114.973 123.399 114.31 121.41C114.244 121.189 114.355 120.924 114.598 120.858C114.819 120.791 115.084 120.902 115.15 121.145C115.791 123.112 117.338 127.333 118.576 130.162C118.664 130.383 118.576 130.648 118.355 130.736C118.288 130.758 118.244 130.78 118.178 130.78Z" fill="#333333"/>
<path d="M103.04 143.731C103.018 143.731 102.996 143.731 102.973 143.731C102.73 143.687 102.576 143.466 102.62 143.223L103.725 136.526C103.769 136.283 103.99 136.129 104.233 136.173C104.476 136.217 104.631 136.438 104.587 136.681L103.482 143.377C103.438 143.576 103.261 143.731 103.04 143.731Z" fill="#333333"/>
<path d="M109.979 143.731H109.957C109.713 143.709 109.537 143.51 109.537 143.267L110.001 136.571C110.023 136.327 110.222 136.151 110.465 136.151C110.708 136.173 110.885 136.372 110.885 136.615L110.421 143.311C110.399 143.554 110.2 143.731 109.979 143.731Z" fill="#333333"/>
<path d="M117.161 143.731C116.918 143.731 116.719 143.532 116.719 143.289L116.652 136.593C116.652 136.35 116.851 136.151 117.094 136.151C117.337 136.151 117.536 136.35 117.536 136.593L117.603 143.289C117.603 143.532 117.404 143.731 117.161 143.731Z" fill="#333333"/>
<path d="M162.201 105.962C162.068 105.962 161.936 105.896 161.847 105.785C161.715 105.586 161.759 105.321 161.958 105.167C166.665 101.807 171.394 99.2659 175.24 97.9841C175.461 97.9178 175.726 98.0283 175.792 98.2714C175.859 98.5145 175.748 98.7576 175.505 98.8239C171.726 100.061 167.085 102.581 162.444 105.874C162.378 105.94 162.289 105.962 162.201 105.962Z" fill="#333333"/>
<path d="M164.809 108.969C164.676 108.969 164.544 108.902 164.455 108.792C164.323 108.593 164.367 108.328 164.566 108.173C169.781 104.394 174.091 101.919 177.008 100.991C177.251 100.924 177.494 101.035 177.56 101.278C177.627 101.521 177.516 101.764 177.273 101.83C174.444 102.736 170.245 105.167 165.096 108.88C164.986 108.946 164.897 108.969 164.809 108.969Z" fill="#333333"/>
<path d="M167.129 112.393C167.019 112.393 166.886 112.349 166.82 112.261C166.643 112.084 166.665 111.797 166.842 111.642C169.582 109.012 175.77 105.366 178.908 104.261C179.129 104.172 179.395 104.305 179.483 104.526C179.571 104.747 179.439 105.012 179.218 105.1C176.168 106.183 170.135 109.719 167.461 112.305C167.35 112.349 167.24 112.393 167.129 112.393Z" fill="#333333"/>
<path d="M142.575 130.78C142.399 130.78 142.244 130.691 142.178 130.514L140.233 126.205C140.122 125.984 140.233 125.719 140.454 125.63C140.675 125.52 140.94 125.63 141.028 125.851L142.973 130.161C143.084 130.382 142.973 130.647 142.752 130.735C142.708 130.758 142.642 130.78 142.575 130.78Z" fill="#333333"/>
<path d="M151.46 217.036C151.239 217.036 151.062 216.881 151.018 216.66C147.261 194.494 150.62 177.499 150.642 177.344C150.686 177.101 150.929 176.947 151.172 176.991C151.416 177.035 151.57 177.278 151.526 177.521C151.482 177.698 148.189 194.516 151.902 216.527C151.946 216.771 151.791 216.992 151.548 217.036C151.504 217.036 151.482 217.036 151.46 217.036Z" fill="#333333"/>
<path d="M158.332 177.897H135.879C135.636 177.897 135.437 177.698 135.437 177.455C135.437 177.212 135.636 177.013 135.879 177.013H158.332C158.576 177.013 158.774 177.212 158.774 177.455C158.774 177.698 158.576 177.897 158.332 177.897Z" fill="#333333"/>
<path d="M107.348 238.738V238.694C107.37 238.628 108.674 231.91 111.569 223.114L111.591 223.07H111.636C116.321 224.02 119.591 227.136 121.514 229.567L121.536 229.589L118.243 238.738H107.348Z" fill="#333333"/>
<path d="M125.603 238.738V238.694C125.205 235.887 123.592 232.396 121.426 229.633C119.525 227.202 116.277 224.108 111.614 223.158H111.569L111.591 223.114C112.078 221.633 112.63 220.042 113.205 218.406C113.227 218.318 116.453 209.942 118.177 206.959L118.199 206.937L145.515 216.594L145.471 216.638C143.04 220.042 141.758 222.384 141.537 223.799C141.117 226.561 141.935 228.55 144.763 231.755C146.332 233.523 146.929 235.313 147.128 236.506C147.349 237.788 147.194 238.694 147.194 238.694V238.738H125.603Z" fill="#FF5573"/>
<path d="M175.637 205.345C175.483 205.345 175.328 205.257 175.24 205.102C174.731 204.086 173.98 203.445 172.963 203.135C170.002 202.274 165.913 204.705 165.869 204.727C165.692 204.837 165.494 204.815 165.339 204.66C165.184 204.528 165.162 204.307 165.25 204.13C165.317 204.019 170.996 192.726 169.538 188.351C169.317 187.71 168.985 187.29 168.477 187.025C167.77 186.671 167.041 186.649 166.245 186.98C164.322 187.776 162.134 190.583 159.946 195.113C158.267 198.583 157.162 201.854 157.14 201.898C157.073 202.097 156.875 202.229 156.654 202.185C156.433 202.163 156.278 201.986 156.278 201.765C156.278 201.655 155.836 189.92 152.212 186.914C151.549 186.362 150.863 186.163 150.068 186.273C149.825 186.317 149.604 186.141 149.56 185.898C149.515 185.654 149.692 185.433 149.935 185.389C150.974 185.235 151.924 185.522 152.764 186.207C155.725 188.66 156.698 195.953 157.007 199.599C158.466 195.798 161.958 187.754 165.891 186.141C166.908 185.721 167.925 185.743 168.853 186.207C169.56 186.561 170.068 187.179 170.355 188.041C171.637 191.931 168.057 200.174 166.599 203.29C168.146 202.561 170.886 201.566 173.184 202.229C174.444 202.605 175.394 203.401 176.013 204.638C176.124 204.859 176.035 205.124 175.814 205.235C175.77 205.323 175.704 205.345 175.637 205.345Z" fill="#333333"/>
<path d="M156.034 215.865C155.857 215.865 155.681 215.754 155.614 215.555C155.172 214.207 155.393 212.594 156.145 211.356C156.764 210.362 157.67 209.721 158.686 209.544C160.079 209.301 160.963 209.876 161.449 210.384C162.289 211.246 162.576 212.528 162.399 213.301C162.355 213.544 162.112 213.699 161.869 213.633C161.626 213.588 161.471 213.345 161.515 213.102C161.603 212.638 161.405 211.622 160.786 210.981C160.277 210.45 159.614 210.251 158.797 210.406C158.023 210.539 157.338 211.025 156.852 211.798C156.211 212.837 156.034 214.163 156.41 215.268C156.476 215.511 156.366 215.754 156.123 215.821C156.123 215.865 156.078 215.865 156.034 215.865Z" fill="#333333"/>
<path d="M192.632 193.301C192.61 193.301 192.588 193.301 192.566 193.301C191.505 193.146 187.77 192.572 183.77 191.29C180.035 190.075 177.56 188.704 176.455 187.202C175.902 186.45 175.681 185.677 175.792 184.881C175.969 183.798 176.698 182.87 177.958 182.207C180.742 180.748 185.472 180.815 188.742 182.384C188.963 182.494 189.052 182.76 188.941 182.981C188.831 183.202 188.565 183.29 188.345 183.179C185.361 181.743 180.875 181.677 178.355 183.003C177.67 183.356 176.808 184.019 176.654 185.014C176.565 185.566 176.742 186.119 177.162 186.671C179.35 189.588 187.858 191.754 192.676 192.417C192.919 192.461 193.096 192.682 193.052 192.925C193.03 193.146 192.853 193.301 192.632 193.301Z" fill="#333333"/>
<path d="M164.212 175.024C163.726 175.024 163.24 174.958 162.754 174.825C161.693 174.516 160.897 173.853 160.433 172.814C158.776 169.212 161.405 162.096 162.599 159.245C159.416 160.947 150.665 165.19 147.46 161.985C146.576 161.101 146.223 159.93 146.466 158.604C146.797 156.615 148.764 152.615 158.179 148.04C158.4 147.93 158.665 148.018 158.776 148.239C158.886 148.46 158.798 148.725 158.577 148.836C151.969 152.04 147.88 155.665 147.35 158.737C147.173 159.775 147.438 160.681 148.101 161.367C150.908 164.173 160.035 159.775 163.328 157.853C163.505 157.764 163.704 157.786 163.859 157.897C163.991 158.03 164.035 158.228 163.969 158.405C163.925 158.494 159.416 168.35 161.295 172.439C161.671 173.234 162.245 173.742 163.063 173.963C168.632 175.555 171.77 165.72 171.792 165.61C171.859 165.433 172.035 165.3 172.212 165.3C172.411 165.3 172.588 165.433 172.632 165.632C172.632 165.676 173.759 169.544 176.831 170.87C178.643 171.643 180.787 171.4 183.24 170.118C183.461 170.008 183.726 170.096 183.837 170.295C183.947 170.516 183.859 170.781 183.66 170.892C180.964 172.306 178.555 172.571 176.478 171.665C174.135 170.649 172.831 168.416 172.234 167.024C171.837 168.019 171.174 169.521 170.223 170.958C168.389 173.632 166.356 175.024 164.212 175.024Z" fill="#333333"/>
<path d="M142.863 177.853C142.752 177.853 142.642 177.809 142.553 177.721C142.377 177.544 142.377 177.279 142.553 177.102C142.575 177.08 145.448 174.03 143.747 171.312C141.095 166.98 131.194 171.467 131.084 171.511C130.907 171.599 130.686 171.555 130.553 171.4C130.421 171.246 130.421 171.025 130.531 170.87C130.597 170.781 136.719 161.5 135.15 156.991C134.796 155.975 134.067 155.289 132.94 154.914C131.636 154.494 130.42 154.626 129.249 155.312C124.52 158.074 122.31 168.726 122.288 168.837C122.244 169.013 122.089 169.168 121.912 169.19C121.713 169.212 121.536 169.102 121.47 168.947C121.426 168.859 116.873 159.135 112.586 158.03C111.724 157.809 110.973 157.964 110.243 158.494C109.337 159.179 108.851 160.019 108.807 161.102C108.586 165.522 115.415 171.798 115.481 171.864C115.636 171.997 115.658 172.218 115.569 172.395C115.481 172.572 115.282 172.66 115.105 172.638L114.73 172.572C111.039 171.931 105.448 170.936 103.525 175.246C103.414 175.467 103.171 175.577 102.95 175.467C102.729 175.356 102.619 175.113 102.729 174.892C104.74 170.406 110.111 170.914 113.868 171.533C111.879 169.5 107.746 164.837 107.945 161.08C108.011 159.732 108.608 158.627 109.735 157.809C110.663 157.124 111.702 156.903 112.829 157.19C116.63 158.162 120.365 164.77 121.735 167.466C122.487 164.483 124.719 156.991 128.829 154.582C130.222 153.765 131.702 153.61 133.249 154.096C134.642 154.538 135.592 155.422 136.034 156.726C137.404 160.682 133.713 167.466 132.056 170.207C134.995 169.08 142.089 166.892 144.542 170.892C146.598 174.185 143.371 177.61 143.216 177.743C143.084 177.809 142.973 177.853 142.863 177.853Z" fill="#333333"/>
<path d="M118.863 154.25C118.133 154.25 117.426 154.029 116.741 153.587C114.531 152.129 112.829 148.195 112.343 143.333C112.321 143.09 112.498 142.869 112.741 142.847C112.984 142.825 113.205 143.001 113.227 143.244C113.691 147.863 115.238 151.532 117.227 152.858C118.023 153.388 118.885 153.499 119.769 153.234C120.365 153.057 120.785 152.659 121.095 152.062C122.443 149.344 120.365 143.488 120.365 143.443C120.277 143.222 120.41 142.957 120.631 142.869C120.852 142.78 121.117 142.913 121.205 143.134C121.294 143.377 123.415 149.388 121.912 152.46C121.515 153.278 120.896 153.808 120.078 154.073C119.636 154.206 119.238 154.25 118.863 154.25Z" fill="#333333"/>
<path d="M95.5692 155.621C95.3261 155.621 95.0609 155.621 94.8178 155.599C94.5747 155.577 94.3979 155.378 94.3979 155.135C94.42 154.892 94.6189 154.715 94.862 154.715C98.5085 154.936 103.724 153.389 103.923 150.383C103.967 149.565 103.68 148.902 103.039 148.438C101.691 147.444 99.061 147.378 96.7405 148.239C96.5195 148.328 96.2543 148.217 96.1659 147.974C96.0775 147.753 96.188 147.488 96.4311 147.4C99.0389 146.405 101.978 146.538 103.547 147.709C104.431 148.372 104.873 149.3 104.807 150.427C104.696 152.173 103.415 153.588 101.072 154.56C99.4809 155.223 97.4256 155.621 95.5692 155.621Z" fill="#333333"/>
<path d="M98.7522 167.245C97.0947 167.245 95.371 166.605 95.2605 166.56C95.0395 166.472 94.9069 166.229 94.9953 165.986C95.0837 165.765 95.3268 165.632 95.5699 165.721C96.4318 166.052 98.9511 166.737 100.189 166.052C100.587 165.831 100.808 165.5 100.896 165.013C101.294 162.825 98.3986 160.24 94.3323 159.135C94.0892 159.068 93.9566 158.825 94.0229 158.582C94.0892 158.339 94.3323 158.207 94.5754 158.273C99.15 159.51 102.244 162.472 101.758 165.168C101.625 165.919 101.25 166.472 100.609 166.826C100.122 167.135 99.4373 167.245 98.7522 167.245Z" fill="#333333"/>
<path d="M173.317 157.322C171.748 157.322 170.422 156.504 169.626 155.444C168.609 154.073 168.632 152.504 169.648 151.554C169.825 151.377 170.112 151.399 170.267 151.576C170.444 151.753 170.422 152.04 170.245 152.195C169.449 152.924 169.714 154.096 170.333 154.913C171.703 156.77 173.935 156.681 175.416 155.819C175.637 155.687 175.902 155.775 176.013 155.974C176.123 156.173 176.057 156.46 175.858 156.571C174.996 157.101 174.134 157.322 173.317 157.322Z" fill="#333333"/>
<path d="M120.586 177.897H120.564C120.321 177.875 120.144 177.676 120.144 177.433C120.277 175.576 122.111 174.471 123.724 174.538C125.338 174.604 126.398 175.731 126.398 177.433C126.398 177.676 126.199 177.875 125.956 177.875C125.713 177.875 125.514 177.676 125.514 177.433C125.514 175.687 124.255 175.444 123.702 175.422C122.487 175.377 121.116 176.195 121.028 177.499C121.006 177.72 120.807 177.897 120.586 177.897Z" fill="#333333"/>
<path d="M150.333 182.804C150.289 182.804 150.222 182.804 150.178 182.782C147.084 181.522 141.382 181.942 141.316 181.942C141.095 181.964 140.896 181.809 140.852 181.61C140.808 181.411 140.896 181.19 141.095 181.102C141.139 181.08 144.432 179.621 145.736 177.566C145.869 177.367 146.134 177.301 146.355 177.433C146.554 177.566 146.62 177.831 146.487 178.052C145.692 179.312 144.3 180.329 143.195 181.014C145.228 180.992 148.388 181.124 150.51 181.986C150.731 182.074 150.841 182.34 150.753 182.561C150.664 182.693 150.51 182.804 150.333 182.804Z" fill="#333333"/>
<path d="M136.057 204.55C134.819 204.55 133.692 204.174 132.675 203.423C129.36 200.992 128.167 195.312 127.813 192.947C126.951 193.964 125.294 195.776 123.15 197.301C118.907 200.329 114.841 200.815 111.371 198.671C111.172 198.539 111.106 198.273 111.216 198.052C111.349 197.853 111.614 197.787 111.835 197.898C119.482 202.627 127.681 191.688 127.747 191.577C127.858 191.422 128.034 191.356 128.211 191.422C128.388 191.467 128.521 191.621 128.543 191.798C128.543 191.886 129.36 199.887 133.184 202.693C134.377 203.555 135.747 203.842 137.294 203.511C138.421 203.268 139.195 202.693 139.637 201.721C141.582 197.632 137.029 188.505 136.985 188.417C136.896 188.218 136.941 187.975 137.117 187.864C137.294 187.732 137.537 187.754 137.692 187.908C137.714 187.931 139.195 189.455 141.427 190.804C143.438 192.019 146.51 193.345 149.604 192.726C149.847 192.682 150.068 192.837 150.134 193.08C150.2 193.323 150.024 193.544 149.781 193.61C147.106 194.163 144.057 193.456 140.963 191.577C140.057 191.025 139.283 190.45 138.664 189.964C139.946 192.991 142.024 198.826 140.454 202.141C139.88 203.334 138.885 204.108 137.493 204.417C137.007 204.483 136.521 204.55 136.057 204.55Z" fill="#333333"/>
<path d="M139.681 215.069C139.614 215.069 139.526 215.047 139.46 215.003C139.239 214.87 139.172 214.605 139.305 214.406C139.327 214.384 140.542 212.285 140.012 210.649C139.791 209.964 139.305 209.456 138.531 209.124C135.062 207.577 130.819 209.633 128.631 211.003C128.432 211.136 128.144 211.069 128.012 210.848C127.879 210.649 127.946 210.362 128.167 210.229C130.531 208.771 135.04 206.605 138.907 208.307C139.924 208.749 140.587 209.456 140.874 210.384C141.515 212.395 140.145 214.76 140.101 214.87C139.99 214.981 139.835 215.069 139.681 215.069Z" fill="#333333"/>
<path d="M128.277 186.583C127.592 186.583 126.929 186.317 126.421 185.721C126.266 185.522 126.288 185.257 126.487 185.102C126.686 184.947 126.951 184.969 127.106 185.168C127.747 185.942 128.763 185.809 129.449 185.345C130.178 184.859 130.775 183.82 130.089 182.516C129.979 182.295 130.067 182.03 130.266 181.919C130.487 181.809 130.752 181.897 130.863 182.096C131.769 183.82 131.04 185.345 129.913 186.074C129.449 186.384 128.874 186.583 128.277 186.583Z" fill="#333333"/>
<path d="M141.714 223.555H135.438C135.195 223.555 134.996 223.357 134.996 223.113C134.996 222.87 135.195 222.671 135.438 222.671H141.714C141.958 222.671 142.156 222.87 142.156 223.113C142.156 223.357 141.958 223.555 141.714 223.555Z" fill="#333333"/>
<path d="M136.322 230.296C136.167 230.296 136.012 230.208 135.924 230.053C135.814 229.832 135.902 229.567 136.123 229.456L141.515 226.782C141.736 226.672 142.001 226.76 142.112 226.981C142.222 227.202 142.134 227.467 141.913 227.578L136.521 230.252C136.454 230.274 136.388 230.296 136.322 230.296Z" fill="#333333"/>
<path d="M176.786 219.246C176.588 219.246 176.389 219.092 176.344 218.893C176.3 218.65 176.455 218.429 176.698 218.385L182.333 217.346C182.577 217.302 182.798 217.456 182.842 217.699C182.886 217.943 182.731 218.164 182.488 218.208L176.853 219.246C176.831 219.246 176.809 219.246 176.786 219.246Z" fill="#333333"/>
<path d="M179.482 225.744C179.327 225.744 179.173 225.655 179.084 225.501C178.974 225.28 179.062 225.014 179.283 224.904L184.454 222.318C184.675 222.208 184.941 222.296 185.051 222.517C185.162 222.738 185.073 223.003 184.852 223.114L179.681 225.7C179.615 225.722 179.548 225.744 179.482 225.744Z" fill="#333333"/>
<path d="M184.565 223.269C184.41 223.269 184.256 223.18 184.189 223.048C184.079 222.871 184.123 222.65 184.278 222.495L203.063 205.301C203.394 204.992 203.748 204.727 204.145 204.506C205.538 203.688 207.173 203.467 208.764 203.887C210.333 204.307 211.637 205.301 212.455 206.716C212.654 207.069 212.831 207.467 212.985 207.931C213.472 209.478 213.317 211.136 212.566 212.572C211.814 214.009 210.554 215.069 209.007 215.556L184.72 223.224C184.653 223.268 184.609 223.269 184.565 223.269ZM207.173 204.572C206.267 204.572 205.383 204.815 204.587 205.279C204.256 205.456 203.947 205.699 203.681 205.942L186.377 221.788L208.764 214.716C210.09 214.296 211.173 213.39 211.814 212.152C212.455 210.915 212.588 209.5 212.168 208.196C212.035 207.799 211.88 207.445 211.726 207.158C211.019 205.964 209.914 205.102 208.565 204.749C208.057 204.638 207.615 204.572 207.173 204.572Z" fill="#333333"/>
<path d="M199.66 228.992C199.196 228.992 198.731 228.903 198.289 228.726L184.389 223.268C184.19 223.202 184.079 223.003 184.123 222.782C184.146 222.583 184.322 222.428 184.543 222.406L199.439 221.478H199.461C199.726 221.478 199.991 221.478 200.278 221.522C201.273 221.677 202.135 222.207 202.732 223.003C203.328 223.82 203.571 224.793 203.395 225.787C203.35 225.986 203.284 226.273 203.174 226.561C202.82 227.489 202.113 228.218 201.185 228.638C200.698 228.903 200.19 228.992 199.66 228.992ZM186.577 223.179L198.621 227.909C199.328 228.196 200.124 228.174 200.809 227.865C201.516 227.555 202.046 227.003 202.334 226.273C202.422 226.052 202.488 225.809 202.511 225.655C202.621 224.903 202.444 224.152 202.002 223.533C201.56 222.914 200.875 222.516 200.124 222.384C199.925 222.34 199.704 222.34 199.483 222.34L186.577 223.179Z" fill="#333333"/>
<path d="M184.566 223.312C184.345 223.312 184.146 223.135 184.124 222.892C183.881 219.312 185.074 216.594 186.223 213.964C187.571 210.87 188.853 207.953 187.704 203.842C187.637 203.599 187.77 203.356 188.013 203.29C188.256 203.223 188.499 203.356 188.566 203.599C189.781 207.997 188.389 211.202 187.041 214.295C185.936 216.837 184.787 219.467 185.03 222.826C185.052 223.069 184.853 223.29 184.61 223.29C184.588 223.312 184.566 223.312 184.566 223.312Z" fill="#333333"/>
<path d="M187.085 113.807C185.936 113.807 185.494 113.122 185.494 113.1V113.078C184.212 108.37 191.483 100.392 191.549 100.304L191.615 100.238L191.638 100.326C191.66 100.392 193.273 106.978 194.422 110.824V110.846L194.4 110.868C192.919 111.973 191.196 113.188 189.383 113.586C188.433 113.785 188.323 113.807 187.637 113.807H187.085Z" fill="#333333"/>
<path d="M194.776 110.691C193.627 106.867 192.014 100.304 191.992 100.237C190.688 94.8008 187.329 80.1928 187.682 77.9607C187.881 76.7452 188.411 76.1043 189.318 76.1043C189.561 76.1043 189.715 76.1485 189.715 76.1485C189.76 76.1706 189.804 76.1706 189.848 76.1706C189.958 76.1706 190.047 76.1264 190.135 76.0601C190.246 75.9717 190.312 75.817 190.29 75.6623C190.003 73.5849 190.378 72.6567 190.732 72.2589C191.041 71.9053 191.417 71.839 191.638 71.839C191.682 71.839 191.726 71.839 191.726 71.839C191.749 71.839 191.771 71.839 191.793 71.839C192.014 71.839 192.191 71.6843 192.235 71.4633C192.478 69.9606 193.251 69.6512 193.87 69.6512C194.003 69.6512 194.091 69.6733 194.091 69.6733C194.113 69.6733 194.157 69.6733 194.18 69.6733C194.378 69.6733 194.555 69.5407 194.599 69.3639C194.82 68.6346 195.24 68.2589 195.815 68.2589C196.39 68.2589 196.986 68.6567 197.229 69.1871C197.87 70.6677 200.014 76.6568 200.036 76.7231C200.102 76.8999 200.279 77.0104 200.456 77.0104C200.478 77.0104 200.522 77.0104 200.544 77.0104C200.677 76.9883 200.809 76.9662 200.942 76.9662C202.356 76.9662 203.461 78.8668 204.81 81.9387C205.384 83.2205 207.241 87.6183 210.357 94.9555L213.34 103.84L197.428 118.293L194.776 110.691Z" fill="white"/>
<path d="M195.793 68.7232C196.19 68.7232 196.632 69.0105 196.787 69.3862C197.406 70.8448 199.55 76.8339 199.572 76.9002C199.704 77.2538 200.036 77.4969 200.411 77.4969C200.478 77.4969 200.544 77.4969 200.61 77.4748C200.721 77.4527 200.809 77.4306 200.898 77.4306C202.135 77.4306 203.284 79.6848 204.345 82.1379C204.898 83.4196 206.776 87.7954 209.892 95.1547L212.787 103.752L197.583 117.564L195.196 110.558C194.047 106.735 192.433 100.193 192.433 100.127C190.621 92.5911 187.837 79.95 188.124 78.0273C188.345 76.5687 189.074 76.5466 189.317 76.5466C189.45 76.5466 189.56 76.5687 189.583 76.5687C189.671 76.5908 189.759 76.6129 189.848 76.6129C190.047 76.6129 190.246 76.5466 190.4 76.414C190.643 76.2151 190.732 75.9057 190.71 75.6184C190.444 73.6073 190.798 72.8338 191.041 72.5465C191.24 72.3255 191.461 72.2813 191.594 72.2813C191.616 72.2813 191.616 72.2813 191.616 72.2813C191.682 72.3034 191.726 72.3034 191.793 72.3034C191.969 72.3034 192.124 72.2592 192.279 72.1487C192.478 72.0161 192.588 71.7951 192.632 71.552C192.787 70.6017 193.185 70.1155 193.826 70.1155C193.892 70.1155 193.936 70.1155 193.958 70.1155C194.025 70.1376 194.091 70.1376 194.179 70.1376C194.555 70.1376 194.887 69.8724 194.997 69.4967C195.174 68.9884 195.439 68.7232 195.793 68.7232ZM195.793 67.8392C195.13 67.8392 194.467 68.237 194.157 69.2536C194.157 69.2536 194.047 69.2315 193.848 69.2315C193.273 69.2315 192.102 69.4746 191.793 71.4194C191.793 71.4194 191.726 71.4194 191.638 71.4194C191.085 71.4194 189.317 71.7288 189.848 75.751C189.848 75.751 189.627 75.6847 189.317 75.6847C188.654 75.6847 187.549 75.9941 187.24 77.9168C186.798 80.7235 191.549 100.37 191.549 100.37C191.549 100.37 193.163 106.978 194.334 110.868L197.163 119.155L213.782 104.039L210.732 94.8232C208.235 88.9446 205.848 83.287 205.185 81.7843C203.793 78.624 202.599 76.5466 200.92 76.5466C200.765 76.5466 200.61 76.5687 200.434 76.5908C200.434 76.5908 198.268 70.5575 197.627 69.0326C197.318 68.3475 196.544 67.8392 195.793 67.8392Z" fill="#333333"/>
<path d="M211.24 138.382C207.328 138.382 201.229 136.725 194.422 128.857C189.715 123.421 186.532 117.012 185.472 113.1C185.472 113.1 189.03 114.912 194.356 110.779C196.632 108.813 198.024 107.022 199.638 104.945C200.765 103.486 202.047 101.851 203.815 99.9063C208.036 95.2653 210.666 94.8233 210.688 94.8012H210.732L210.754 94.8233C213.804 102.028 217.008 109.586 217.273 110.227L246.511 95.3095L248.699 97.8068L233.473 130.161C233.406 130.249 226.798 137.741 211.859 138.382C211.66 138.382 211.461 138.382 211.24 138.382Z" fill="#B666D2"/>
<path d="M196.08 96.4589C195.859 96.4589 195.66 96.2821 195.638 96.039C195.262 90.3372 198.798 86.9117 199.704 86.1382C199.66 85.8951 199.616 85.652 199.571 85.3868C198.997 82.0719 198.179 77.5414 200.234 76.6353C200.455 76.5469 200.721 76.6353 200.809 76.8563C200.897 77.0773 200.809 77.3425 200.588 77.4309C199.196 78.0497 200.036 82.8896 200.455 85.21C200.522 85.5857 200.588 85.9393 200.632 86.2266C200.654 86.3813 200.588 86.5581 200.455 86.6465C200.411 86.6686 196.124 90.0278 196.522 95.9727C196.544 96.2158 196.345 96.4368 196.102 96.4368C196.102 96.4589 196.08 96.4589 196.08 96.4589Z" fill="#333333"/>
<path d="M197.185 82.2267C197.008 82.2267 196.831 82.1162 196.765 81.9173C196.434 80.8565 193.494 71.5745 194.179 69.3424C194.246 69.0993 194.489 68.9888 194.732 69.0551C194.975 69.1214 195.108 69.3645 195.019 69.6076C194.555 71.0883 196.323 77.6299 197.605 81.6521C197.671 81.8952 197.561 82.1383 197.317 82.2046C197.273 82.2267 197.229 82.2267 197.185 82.2267Z" fill="#333333"/>
<path d="M194.797 83.951C194.599 83.951 194.444 83.8405 194.378 83.6416C192.013 76.1276 191.792 71.8403 191.77 71.6635C191.748 71.4204 191.947 71.2215 192.19 71.1994C192.433 71.1994 192.632 71.3762 192.654 71.6193C192.654 71.6635 192.897 75.9729 195.217 83.3764C195.284 83.6195 195.151 83.8626 194.93 83.9289C194.886 83.951 194.842 83.951 194.797 83.951Z" fill="#333333"/>
<path d="M192.433 86.0944C192.234 86.0944 192.057 85.9618 192.013 85.7629C190.709 81.0777 189.847 76.061 189.847 76.0168C189.803 75.7737 189.958 75.5527 190.201 75.5085C190.444 75.4643 190.665 75.619 190.709 75.8621C190.709 75.9063 191.593 80.8788 192.875 85.5198C192.941 85.7629 192.809 86.006 192.566 86.0723C192.521 86.0944 192.477 86.0944 192.433 86.0944Z" fill="#333333"/>
<path d="M191.13 87.177C190.997 87.177 190.865 87.1107 190.776 87.0002C190.621 86.8013 190.666 86.5361 190.865 86.3814L197.561 81.21C197.76 81.0553 198.025 81.0995 198.18 81.2984C198.334 81.4973 198.29 81.7625 198.091 81.9172L191.395 87.0886C191.329 87.1549 191.218 87.177 191.13 87.177Z" fill="#333333"/>
<path d="M219.196 115.465C219.019 115.465 218.864 115.354 218.776 115.199L216.831 110.448C216.743 110.227 216.853 109.962 217.074 109.873C217.295 109.785 217.561 109.895 217.649 110.116L219.594 114.868C219.682 115.089 219.572 115.354 219.351 115.442C219.306 115.465 219.262 115.465 219.196 115.465Z" fill="#333333"/>
<path d="M192.654 124.636C191.969 124.636 191.328 124.57 190.754 124.437C190.511 124.393 190.356 124.15 190.422 123.907C190.466 123.664 190.709 123.509 190.953 123.575C193.958 124.216 198.621 123.443 203.638 116.061C207.439 110.514 212.146 106.138 215.351 105.188C215.594 105.122 215.837 105.254 215.903 105.497C215.97 105.741 215.837 105.984 215.594 106.05C212.566 106.934 208.058 111.177 204.367 116.569C199.991 122.956 195.814 124.636 192.654 124.636Z" fill="#333333"/>
<path d="M219.351 154.338L248.522 95.1107L261.34 94.3814L280.125 154.338H219.351Z" fill="#B666D2"/>
<path d="M245.539 140.504C245.517 140.504 245.495 140.504 245.451 140.504C245.208 140.46 245.053 140.216 245.097 139.995L251.772 104.591C251.816 104.348 252.059 104.194 252.28 104.238C252.523 104.282 252.678 104.525 252.633 104.746L245.959 140.15C245.937 140.349 245.738 140.504 245.539 140.504Z" fill="#333333"/>
<path d="M229.893 133.476C229.826 133.476 229.76 133.454 229.694 133.432C229.473 133.321 229.384 133.056 229.495 132.835L246.202 99.0667C246.313 98.8457 246.578 98.7573 246.799 98.8678C247.02 98.9783 247.108 99.2435 246.998 99.4645L230.29 133.233C230.202 133.388 230.047 133.476 229.893 133.476Z" fill="#333333"/>
<path d="M210.135 108.99C209.959 108.99 209.804 108.901 209.738 108.724L205.207 98.3153C205.119 98.0943 205.207 97.8291 205.428 97.7407C205.649 97.6523 205.914 97.7407 206.003 97.9617L210.533 108.371C210.622 108.592 210.533 108.857 210.312 108.945C210.246 108.967 210.202 108.99 210.135 108.99Z" fill="#333333"/>
<path d="M203.505 117.388C203.35 117.388 203.196 117.299 203.107 117.144L198.002 106.78C197.892 106.559 197.98 106.293 198.201 106.183C198.422 106.072 198.687 106.161 198.798 106.382L203.903 116.747C204.013 116.968 203.925 117.233 203.704 117.343C203.638 117.365 203.571 117.388 203.505 117.388Z" fill="#333333"/>
<path d="M196.102 123.664C195.947 123.664 195.814 123.598 195.726 123.443L195.66 123.332C193.958 120.548 191.814 117.078 190.091 112.791C190.002 112.57 190.113 112.305 190.334 112.216C190.555 112.128 190.82 112.238 190.908 112.459C192.61 116.68 194.732 120.106 196.411 122.868L196.477 122.979C196.61 123.178 196.544 123.465 196.323 123.598C196.256 123.642 196.19 123.664 196.102 123.664Z" fill="#333333"/>
<path d="M266.026 179.002C264.523 179.002 262.689 177.455 261.407 176.151C259.993 174.693 258.49 172.748 257.584 171.157L257.562 171.112L257.606 171.09C257.65 171.068 261.849 169.455 266.048 167.51L266.092 167.488L266.114 167.532C266.136 167.576 268.855 171.356 268.634 175.002C268.435 178.229 266.534 178.958 266.468 178.958C266.335 178.98 266.18 179.002 266.026 179.002Z" fill="#333333"/>
<path d="M251.13 139.068C234.202 137.322 210.776 147.576 206.466 149.941C204.676 150.913 203.439 152.217 203.792 154.383H223.572C221.052 159.731 220.323 164.173 223.837 164.416C228.434 164.726 233.141 158.272 235.55 154.383H264.943C264.965 154.383 267.97 140.791 251.13 139.068Z" fill="#DBB3E8"/>
<path d="M225.428 130.824H233.295C233.295 130.824 239.793 124.548 241.384 125.874C244.08 128.128 238.909 149.499 223.394 147.93C209.074 146.471 218.665 123.885 222.488 124.327C224.301 124.526 225.428 130.824 225.428 130.824Z" fill="#DBB3E8"/>
<path d="M224.964 148.438C224.433 148.438 223.903 148.416 223.351 148.35C220.699 148.085 218.688 147.112 217.317 145.433C217.163 145.234 217.185 144.969 217.384 144.814C217.583 144.659 217.848 144.681 218.002 144.88C219.196 146.361 221.03 147.245 223.417 147.488C227.594 147.908 233.517 146.847 238.113 139.333C238.246 139.134 238.511 139.068 238.732 139.179C238.931 139.311 238.997 139.576 238.887 139.797C235.439 145.411 230.555 148.438 224.964 148.438Z" fill="#333333"/>
<path d="M226.886 138.913H224.3C224.057 138.913 223.858 138.714 223.858 138.471C223.858 138.228 224.057 138.029 224.3 138.029H226.886C227.129 138.029 227.328 138.228 227.328 138.471C227.328 138.714 227.129 138.913 226.886 138.913Z" fill="#333333"/>
<path d="M224.963 142.051C224.941 142.051 224.897 142.051 224.875 142.051C224.632 142.007 224.477 141.764 224.521 141.543L225.14 138.405C225.184 138.162 225.427 138.007 225.648 138.051C225.891 138.095 226.046 138.338 226.002 138.559L225.383 141.698C225.361 141.897 225.162 142.051 224.963 142.051Z" fill="#333333"/>
<path d="M225.162 142.272C223.991 142.272 222.864 141.83 222.157 140.99C222.002 140.814 222.024 140.526 222.223 140.372C222.4 140.217 222.687 140.239 222.842 140.438C223.748 141.521 225.936 141.852 227.637 140.593C227.836 140.438 228.102 140.482 228.256 140.681C228.411 140.88 228.367 141.145 228.168 141.3C227.262 141.941 226.179 142.272 225.162 142.272Z" fill="#333333"/>
<path d="M231.947 137.786C231.881 137.786 231.815 137.764 231.748 137.742C231.527 137.631 231.439 137.366 231.55 137.145L231.771 136.681C231.881 136.46 232.146 136.372 232.367 136.482C232.588 136.593 232.677 136.858 232.566 137.079L232.345 137.543C232.279 137.698 232.102 137.786 231.947 137.786Z" fill="#333333"/>
<path d="M237.561 132.614C237.494 132.614 237.406 132.592 237.34 132.548C237.119 132.438 237.052 132.15 237.163 131.951L238.29 129.918C238.4 129.697 238.688 129.631 238.887 129.741C239.108 129.852 239.174 130.139 239.063 130.338L237.936 132.371C237.87 132.526 237.715 132.614 237.561 132.614Z" fill="#333333"/>
<path d="M221.605 132.151C221.361 132.151 221.163 131.952 221.163 131.709V129.477C221.163 129.234 221.361 129.035 221.605 129.035C221.848 129.035 222.047 129.234 222.047 129.477V131.709C222.047 131.952 221.848 132.151 221.605 132.151Z" fill="#333333"/>
<path d="M220.92 137.786C220.854 137.786 220.787 137.764 220.721 137.742C220.5 137.631 220.412 137.366 220.522 137.145L220.743 136.681C220.854 136.46 221.119 136.372 221.34 136.482C221.561 136.593 221.649 136.858 221.539 137.079L221.318 137.543C221.251 137.698 221.075 137.786 220.92 137.786Z" fill="#333333"/>
<path d="M235.571 154.825C235.505 154.825 235.439 154.803 235.35 154.781C235.129 154.671 235.063 154.406 235.174 154.185L236.279 152.151C236.389 151.93 236.654 151.864 236.875 151.975C237.096 152.085 237.163 152.35 237.052 152.571L235.947 154.604C235.881 154.737 235.726 154.825 235.571 154.825Z" fill="#333333"/>
<path d="M223.572 154.825C223.505 154.825 223.439 154.803 223.373 154.781C223.152 154.671 223.086 154.405 223.196 154.184L225.075 150.648C225.185 150.427 225.45 150.361 225.671 150.472C225.892 150.582 225.959 150.847 225.848 151.068L223.97 154.604C223.881 154.737 223.726 154.825 223.572 154.825Z" fill="#333333"/>
<path d="M222.644 164.24C222.401 164.24 222.202 164.041 222.202 163.798C222.202 163.068 222.356 162.361 222.688 161.676C222.798 161.455 223.064 161.367 223.285 161.455C223.506 161.566 223.594 161.831 223.506 162.052C223.24 162.626 223.108 163.223 223.108 163.82C223.086 164.041 222.887 164.24 222.644 164.24Z" fill="#333333"/>
<path d="M224.809 164.682C224.566 164.682 224.367 164.483 224.367 164.24C224.367 163.511 224.521 162.804 224.853 162.119C224.963 161.898 225.229 161.809 225.45 161.898C225.671 162.008 225.759 162.273 225.671 162.494C225.405 163.069 225.273 163.666 225.273 164.262C225.251 164.483 225.052 164.682 224.809 164.682Z" fill="#333333"/>
<path d="M206.091 154.826C205.87 154.826 205.671 154.649 205.649 154.406C205.649 154.362 205.582 153.301 206.068 152.549C206.201 152.351 206.466 152.284 206.687 152.417C206.886 152.549 206.952 152.815 206.82 153.036C206.555 153.455 206.533 154.141 206.533 154.362C206.555 154.605 206.356 154.826 206.113 154.826H206.091Z" fill="#333333"/>
<path d="M208.256 154.826C208.035 154.826 207.836 154.649 207.814 154.406C207.814 154.362 207.748 153.301 208.234 152.549C208.367 152.351 208.632 152.284 208.853 152.417C209.052 152.549 209.118 152.815 208.985 153.036C208.72 153.455 208.698 154.141 208.698 154.362C208.72 154.605 208.521 154.826 208.278 154.826H208.256Z" fill="#333333"/>
<path d="M243.152 174.207C239.948 174.207 239.484 172.947 239.484 172.947C239.439 172.748 239.263 172.638 239.064 172.638C239.042 172.638 237.495 172.615 236.721 171.776C236.367 171.4 236.235 170.914 236.279 170.317C236.301 170.14 236.191 169.964 236.036 169.897C236.036 169.897 235.108 169.411 234.931 168.593C234.82 168.085 235.019 167.51 235.528 166.892C235.594 166.803 235.638 166.671 235.616 166.56C235.594 166.45 235.55 166.339 235.439 166.251C235.439 166.251 234.71 165.676 234.71 164.836C234.732 164.129 235.262 163.4 236.279 162.648C237.738 161.61 242.865 159.046 242.909 159.024C243.064 158.958 243.152 158.781 243.152 158.604C243.152 158.427 243.042 158.273 242.887 158.206C242.887 158.206 241.959 157.809 241.738 157.035C241.605 156.571 241.76 156.018 242.202 155.422C243.108 154.162 246.18 152.505 250.423 150.206C251.462 149.632 252.567 149.035 253.738 148.394L265.583 143.024L273.672 162.118L265.849 167.157C261.65 169.102 257.495 170.715 257.451 170.715C257.384 170.737 251.616 173.013 246.091 173.919C245.009 174.118 244.014 174.207 243.152 174.207Z" fill="white"/>
<path d="M265.363 143.599L273.142 161.941L265.65 166.759C261.473 168.682 257.34 170.273 257.296 170.295C257.23 170.317 251.506 172.571 246.047 173.478C244.964 173.654 244.014 173.743 243.152 173.743C240.611 173.743 239.992 172.947 239.904 172.792C239.837 172.373 239.484 172.174 239.064 172.174C238.688 172.174 237.561 172.041 237.031 171.444C236.765 171.157 236.677 170.803 236.699 170.317C236.721 169.964 236.544 169.632 236.213 169.455C236.014 169.345 235.439 168.969 235.351 168.461C235.285 168.085 235.439 167.643 235.859 167.135C236.014 166.958 236.08 166.715 236.058 166.472C236.036 166.229 235.903 166.03 235.727 165.875C235.727 165.875 235.152 165.411 235.174 164.814C235.196 164.262 235.66 163.621 236.566 162.98C238.003 161.964 243.086 159.4 243.13 159.378C243.44 159.223 243.638 158.914 243.616 158.56C243.594 158.207 243.395 157.919 243.086 157.787C242.887 157.698 242.312 157.367 242.202 156.903C242.114 156.571 242.246 156.151 242.6 155.665C243.462 154.494 246.644 152.77 250.666 150.582C251.727 150.007 252.81 149.411 253.981 148.77L265.363 143.599ZM265.827 142.427L253.561 147.996C247.528 151.333 243.086 153.499 241.87 155.157C240.147 157.521 242.732 158.604 242.732 158.604C242.732 158.604 237.561 161.19 236.036 162.273C232.655 164.682 235.174 166.582 235.174 166.582C233.229 168.947 235.815 170.251 235.815 170.251C235.594 173.058 239.042 173.058 239.042 173.058C239.042 173.058 239.462 174.627 243.13 174.627C243.97 174.627 244.964 174.538 246.158 174.339C251.793 173.389 257.606 171.113 257.606 171.113C257.606 171.113 261.782 169.5 266.048 167.533L274.225 162.273L265.827 142.427Z" fill="#333333"/>
<path d="M294.579 135.289C293.783 130.36 291.573 125.056 287.971 119.554C285.098 115.156 281.341 110.603 276.832 106.028C269.12 98.2493 261.76 93.0337 261.672 92.9674L261.628 92.9453L256.92 99.0228L272.037 136.349C265.318 141.256 258.909 144.968 253.539 147.93L253.517 147.952V147.974C253.517 148.018 254.379 151.51 256.523 154.516C257.871 156.394 259.108 157.919 260.302 159.377C262.269 161.808 264.125 164.085 266.026 167.488C269.363 173.919 268.213 178.273 266.49 178.914C267.794 178.582 275.639 173.124 282.799 164.947C286.866 160.306 289.96 155.643 292.015 151.112C294.49 145.587 295.352 140.261 294.579 135.289Z" fill="#B666D2"/>
<path d="M272.081 136.836C271.904 136.836 271.75 136.725 271.661 136.548L262.755 114.515C262.667 114.294 262.777 114.029 262.998 113.94C263.219 113.852 263.484 113.962 263.573 114.183L272.479 136.217C272.567 136.438 272.457 136.703 272.236 136.791C272.192 136.836 272.148 136.836 272.081 136.836Z" fill="#333333"/>
<path d="M261.694 143.731C261.54 143.731 261.407 143.665 261.319 143.51C261.186 143.311 261.252 143.024 261.473 142.913C265.319 140.571 268.7 138.316 271.816 136.04L274.623 133.874C274.822 133.72 275.087 133.764 275.241 133.963C275.396 134.162 275.352 134.427 275.153 134.582L272.346 136.747C269.208 139.046 265.805 141.3 261.937 143.665C261.849 143.709 261.783 143.731 261.694 143.731Z" fill="#333333"/>
<path d="M278.998 169.3C278.998 169.3 278.976 169.3 278.998 169.3C278.733 169.278 278.534 169.079 278.556 168.836C278.623 167.267 278.291 165.477 277.518 163.532C276.523 160.99 274.136 157.919 271.595 154.67C268.302 150.427 264.876 146.051 263.904 142.051C263.838 141.808 263.992 141.565 264.236 141.52C264.479 141.454 264.722 141.609 264.766 141.852C265.694 145.653 269.053 149.963 272.302 154.139C274.866 157.432 277.319 160.571 278.335 163.223C279.131 165.3 279.507 167.2 279.418 168.88C279.418 169.123 279.241 169.3 278.998 169.3Z" fill="#333333"/>
<path d="M240.633 113.057C241.952 113.057 243.02 111.988 243.02 110.67C243.02 109.352 241.952 108.283 240.633 108.283C239.315 108.283 238.247 109.352 238.247 110.67C238.247 111.988 239.315 113.057 240.633 113.057Z" fill="#333333"/>
<path d="M243.219 116.946C244.537 116.946 245.606 115.877 245.606 114.559C245.606 113.241 244.537 112.172 243.219 112.172C241.901 112.172 240.832 113.241 240.832 114.559C240.832 115.877 241.901 116.946 243.219 116.946Z" fill="#333333"/>
<path d="M246.799 119.885C248.118 119.885 249.186 118.816 249.186 117.498C249.186 116.18 248.118 115.111 246.799 115.111C245.481 115.111 244.413 116.18 244.413 117.498C244.413 118.816 245.481 119.885 246.799 119.885Z" fill="#333333"/>
<path d="M251.33 120.814C252.648 120.814 253.716 119.745 253.716 118.427C253.716 117.109 252.648 116.04 251.33 116.04C250.011 116.04 248.943 117.109 248.943 118.427C248.943 119.745 250.011 120.814 251.33 120.814Z" fill="#333333"/>
<path d="M255.882 120.129C257.2 120.129 258.269 119.06 258.269 117.742C258.269 116.424 257.2 115.355 255.882 115.355C254.564 115.355 253.495 116.424 253.495 117.742C253.495 119.06 254.564 120.129 255.882 120.129Z" fill="#333333"/>
<path d="M260.014 118.493C261.332 118.493 262.401 117.424 262.401 116.106C262.401 114.788 261.332 113.719 260.014 113.719C258.696 113.719 257.627 114.788 257.627 116.106C257.627 117.424 258.696 118.493 260.014 118.493Z" fill="#333333"/>
<path d="M264.059 116.328C265.377 116.328 266.446 115.259 266.446 113.941C266.446 112.623 265.377 111.554 264.059 111.554C262.741 111.554 261.672 112.623 261.672 113.941C261.672 115.259 262.741 116.328 264.059 116.328Z" fill="#333333"/>
<path d="M267.639 113.366C268.957 113.366 270.026 112.297 270.026 110.979C270.026 109.661 268.957 108.592 267.639 108.592C266.321 108.592 265.252 109.661 265.252 110.979C265.252 112.297 266.321 113.366 267.639 113.366Z" fill="#333333"/>
<path d="M270.689 109.984C272.007 109.984 273.076 108.916 273.076 107.598C273.076 106.279 272.007 105.211 270.689 105.211C269.371 105.211 268.302 106.279 268.302 107.598C268.302 108.916 269.371 109.984 270.689 109.984Z" fill="#333333"/>
<path d="M273.849 106.802C275.167 106.802 276.236 105.733 276.236 104.415C276.236 103.097 275.167 102.028 273.849 102.028C272.531 102.028 271.462 103.097 271.462 104.415C271.462 105.733 272.531 106.802 273.849 106.802Z" fill="#333333"/>
<path d="M256.545 154.958C256.39 154.958 256.236 154.869 256.169 154.737C256.037 154.516 256.125 154.25 256.324 154.14L267.109 147.886C267.33 147.753 267.595 147.841 267.706 148.04C267.838 148.261 267.75 148.526 267.551 148.637L256.766 154.891C256.7 154.935 256.611 154.958 256.545 154.958Z" fill="#333333"/>
<path d="M262.976 163.333C262.821 163.333 262.689 163.267 262.6 163.134C262.468 162.935 262.534 162.648 262.733 162.515L273.164 155.974C273.363 155.841 273.65 155.907 273.783 156.106C273.915 156.305 273.849 156.592 273.65 156.725L263.219 163.267C263.131 163.311 263.064 163.333 262.976 163.333Z" fill="#333333"/>
<path d="M267.551 172.66C267.396 172.66 267.263 172.594 267.175 172.461C267.042 172.262 267.109 171.975 267.308 171.842C271.462 169.234 277.23 164.704 277.805 164.129C277.982 163.953 278.247 163.953 278.424 164.129C278.601 164.306 278.601 164.571 278.424 164.748C277.694 165.477 271.86 170.008 267.772 172.594C267.705 172.638 267.639 172.66 267.551 172.66Z" fill="#333333"/>
<path d="M243.152 159.267C242.975 159.267 242.821 159.179 242.754 159.024C242.644 158.803 242.754 158.538 242.975 158.427L250.312 154.98C250.533 154.869 250.799 154.98 250.909 155.201C251.02 155.422 250.909 155.687 250.688 155.797L243.351 159.245C243.285 159.245 243.218 159.267 243.152 159.267Z" fill="#333333"/>
<path d="M235.572 166.957C235.373 166.957 235.196 166.825 235.152 166.626C235.085 166.383 235.24 166.14 235.461 166.095C235.505 166.073 240.964 164.637 249.892 160.593C250.113 160.482 250.379 160.593 250.467 160.814C250.577 161.035 250.467 161.3 250.246 161.388C241.251 165.477 235.726 166.913 235.682 166.935C235.638 166.957 235.616 166.957 235.572 166.957Z" fill="#333333"/>
<path d="M236.456 170.494C236.257 170.494 236.058 170.339 236.014 170.14C235.97 169.897 236.124 169.676 236.367 169.61C243.572 168.129 251.948 164.284 252.036 164.239C252.257 164.129 252.522 164.239 252.633 164.46C252.743 164.681 252.633 164.947 252.412 165.057C252.324 165.101 243.859 168.991 236.566 170.472C236.522 170.494 236.478 170.494 236.456 170.494Z" fill="#333333"/>
<path d="M239.705 173.079C239.484 173.079 239.307 172.925 239.263 172.704C239.218 172.461 239.395 172.24 239.638 172.196C239.683 172.196 245.097 171.289 254.092 167.798C254.313 167.709 254.578 167.82 254.666 168.041C254.755 168.262 254.644 168.527 254.423 168.615C245.34 172.151 239.837 173.057 239.793 173.057C239.749 173.08 239.727 173.079 239.705 173.079Z" fill="#333333"/>
<path d="M269.054 82.2929C267.949 82.2929 266.954 82.2045 266.136 82.094C263.418 81.6962 260.987 80.768 259.506 79.5525C259.241 79.3315 258.976 79.1326 258.689 78.9116C256.169 76.9668 253.009 74.5358 252.434 67.1545C252.412 66.9114 252.589 66.6904 252.832 66.6683C253.075 66.6462 253.296 66.823 253.318 67.0661C253.871 74.0496 256.722 76.2596 259.241 78.2044C259.529 78.4254 259.794 78.6464 260.081 78.8674C262.799 81.1216 269.186 82.3813 274.777 80.5249C275.021 80.4586 275.264 80.5691 275.33 80.8122C275.396 81.0332 275.286 81.2984 275.043 81.3647C272.899 82.0498 270.822 82.2929 269.054 82.2929Z" fill="#333333"/>
<path d="M265.848 101.277C268.79 101.277 271.174 98.892 271.174 95.9505C271.174 93.009 268.79 90.6244 265.848 90.6244C262.907 90.6244 260.522 93.009 260.522 95.9505C260.522 98.892 262.907 101.277 265.848 101.277Z" fill="white"/>
<path d="M265.849 91.0665C268.545 91.0665 270.733 93.2544 270.733 95.9506C270.733 98.6468 268.545 100.835 265.849 100.835C263.152 100.835 260.965 98.6468 260.965 95.9506C260.965 93.2544 263.152 91.0665 265.849 91.0665ZM265.849 90.1825C262.666 90.1825 260.081 92.7682 260.081 95.9506C260.081 99.133 262.666 101.719 265.849 101.719C269.031 101.719 271.617 99.133 271.617 95.9506C271.617 92.7682 269.053 90.1825 265.849 90.1825Z" fill="#333333"/>
<path d="M254.202 104.547C254.091 104.547 253.981 104.547 253.87 104.547C249.76 104.326 245.914 99.9728 244.345 93.7406C242.334 85.7847 243.793 78.6022 247.771 77.011C249.03 76.5027 250.356 76.2596 251.727 76.2596C257.141 76.2596 261.671 80.1492 261.716 80.1934C264.191 82.4255 265.318 84.6797 265.34 87.4864C265.384 90.6024 264.058 94.4257 261.163 99.4866C259.307 102.802 256.898 104.547 254.202 104.547Z" fill="white"/>
<path d="M251.749 76.7017C256.92 76.7017 261.296 80.3924 261.45 80.525C265.539 84.2378 266.843 88.6578 260.81 99.2657C258.997 102.426 256.721 104.106 254.224 104.106C254.135 104.106 254.025 104.106 253.936 104.106C250.003 103.885 246.356 99.6856 244.809 93.6302C243.837 89.7628 243.66 85.9616 244.323 82.9118C244.942 80.0609 246.246 78.1161 247.97 77.431C249.141 76.9448 250.423 76.7017 251.749 76.7017ZM251.749 75.8177C250.423 75.8177 249.03 76.0387 247.616 76.5912C243.483 78.2266 241.826 85.4975 243.925 93.8291C245.605 100.481 249.671 104.746 253.848 104.967C253.959 104.967 254.069 104.967 254.202 104.967C256.832 104.967 259.484 103.354 261.561 99.6856C267.506 89.2324 266.754 84.1273 262.025 79.8399C262.025 79.862 257.406 75.8177 251.749 75.8177Z" fill="#333333"/>
<path d="M262.025 79.8627C266.379 83.7965 267.373 88.4153 262.887 97.2553C256.522 90.2054 258.688 80.4815 258.688 80.4815C258.688 80.4815 250.71 87.1778 243.307 83.3766C243.903 79.9732 245.406 77.4759 247.616 76.5919C254.953 73.6748 262.025 79.8627 262.025 79.8627Z" fill="#333333"/>
<path d="M249.141 93.4532C249.052 93.4532 248.986 93.4311 248.898 93.3869C248.456 93.0996 248.102 92.7018 247.903 92.2156C247.771 91.8841 247.704 91.42 247.726 90.7791C247.726 90.536 247.947 90.3371 248.19 90.3592C248.434 90.3592 248.632 90.5802 248.61 90.8233C248.588 91.3095 248.632 91.6631 248.699 91.8841C248.831 92.1935 249.074 92.4587 249.362 92.6576C249.561 92.7902 249.627 93.0554 249.494 93.2764C249.428 93.3869 249.295 93.4532 249.141 93.4532Z" fill="#333333"/>
<path d="M252.854 89.6306H252.832C252.589 89.6085 252.412 89.4096 252.434 89.1665L252.479 88.5698C252.501 88.3267 252.7 88.1499 252.943 88.172C253.186 88.1941 253.363 88.393 253.341 88.6361L253.296 89.2328C253.274 89.4538 253.075 89.6306 252.854 89.6306Z" fill="#333333"/>
<path d="M245.473 88.5038H245.45C245.207 88.4817 245.031 88.2828 245.053 88.0397L245.097 87.443C245.119 87.1999 245.318 87.0231 245.561 87.0452C245.804 87.0673 245.981 87.2662 245.959 87.5093L245.915 88.106C245.892 88.327 245.694 88.5038 245.473 88.5038Z" fill="#333333"/>
<path d="M251.352 98.2275C250.578 98.2275 249.672 97.7634 249.208 96.3712C249.164 96.2607 249.186 96.1281 249.23 96.0397C249.274 95.9292 249.385 95.8629 249.495 95.8187L252.943 94.7358C253.076 94.6916 253.208 94.7137 253.319 94.8021C253.429 94.8905 253.496 95.001 253.518 95.1336C253.672 96.9679 252.678 98.0065 251.705 98.2054C251.595 98.2054 251.462 98.2275 251.352 98.2275ZM250.225 96.5259C250.534 97.1226 251.02 97.4319 251.529 97.3435C252.037 97.2331 252.545 96.7027 252.634 95.7745L250.225 96.5259Z" fill="#333333"/>
<path d="M266.755 97.1001C266.689 97.1001 266.644 97.078 266.578 97.0559L263.462 95.7299C263.241 95.6415 263.131 95.3763 263.219 95.1553C263.307 94.9343 263.573 94.8238 263.794 94.9122L266.91 96.2382C267.131 96.3266 267.241 96.5918 267.153 96.8128C267.086 96.9896 266.932 97.1001 266.755 97.1001Z" fill="#333333"/>
<path d="M264.633 80.8127C269.552 80.8127 273.539 76.8252 273.539 71.9065C273.539 66.9877 269.552 63.0002 264.633 63.0002C259.714 63.0002 255.727 66.9877 255.727 71.9065C255.727 76.8252 259.714 80.8127 264.633 80.8127Z" fill="#333333"/>
<path d="M248.919 86.152C249.131 82.8391 247.171 80.0164 244.54 79.8474C241.91 79.6785 239.604 82.2271 239.392 85.54C239.179 88.8529 241.139 91.6756 243.77 91.8445C246.401 92.0135 248.706 89.4649 248.919 86.152Z" stroke="#333333" stroke-width="3.48436" stroke-miterlimit="3.9998" stroke-linecap="round" stroke-linejoin="round"/>
<path d="M259.927 87.0884C260.14 83.7755 258.18 80.9529 255.549 80.7839C252.918 80.6149 250.613 83.1636 250.4 86.4765C250.188 89.7894 252.148 92.612 254.779 92.7809C257.41 92.9499 259.715 90.4013 259.927 87.0884Z" stroke="#333333" stroke-width="3.48436" stroke-miterlimit="3.9998" stroke-linecap="round" stroke-linejoin="round"/>
</svg>
