<svg width="375" height="295" viewBox="0 0 375 295" fill="none" xmlns="http://www.w3.org/2000/svg">
<path d="M-70.6294 177.518C-88.8584 206.976 -73.8372 176.315 -47 205.473C-20.1628 234.631 9.27484 303.708 67 294.089C124.725 284.47 175.462 278.668 214.958 275.361C254.454 272.055 298.51 295.759 337.5 286.14C376.49 276.521 398.008 229.52 411.68 205.473C425.351 181.426 451.176 154.673 489.153 125.214C527.13 95.7563 517.762 73.0615 461.05 57.13C404.337 41.1986 429.793 61.958 406.5 32.4999C383.207 3.04168 359.5 -5 301 3.0002C238.5 17.5 161.5 20.3398 119.34 20.3398C68 20.3398 16.2116 14.1452 -34.9309 24.666C-86.0734 35.1867 -100.252 55.9277 -77.4653 86.8888C-54.679 117.85 -52.4004 148.06 -70.6294 177.518Z" fill="#F8F0FB"/>
<path d="M254.548 174.992H120.642C113.939 174.992 108.499 169.553 108.499 162.849V82.1429C108.499 75.4393 113.939 70 120.642 70H254.548C261.252 70 266.691 75.4393 266.691 82.1429V162.849C266.691 169.553 261.252 174.992 254.548 174.992ZM120.642 70.9543C114.463 70.9543 109.454 75.9641 109.454 82.1429V162.849C109.454 169.028 114.463 174.038 120.642 174.038H254.548C260.727 174.038 265.737 169.028 265.737 162.849V82.1429C265.737 75.9641 260.727 70.9543 254.548 70.9543H120.642Z" fill="#333333"/>
<path d="M187.583 134.508C177.922 134.508 170.049 126.635 170.049 116.973C170.049 107.311 177.922 99.4387 187.583 99.4387C197.245 99.4387 205.118 107.311 205.118 116.973C205.118 126.635 197.245 134.508 187.583 134.508ZM187.583 100.393C178.446 100.393 171.003 107.836 171.003 116.973C171.003 126.11 178.446 133.553 187.583 133.553C196.72 133.553 204.164 126.11 204.164 116.973C204.164 107.836 196.72 100.393 187.583 100.393Z" fill="#333333"/>
<path d="M185.675 123.51C184.172 123.51 182.931 122.269 182.931 120.766V113.228C182.931 112.774 183.051 112.321 183.289 111.868C184.029 110.556 185.723 110.103 187.035 110.842L193.571 114.611C194.001 114.85 194.359 115.208 194.597 115.637C194.955 116.258 195.051 116.997 194.86 117.713C194.669 118.428 194.216 119.001 193.571 119.359L187.035 123.128C186.653 123.391 186.176 123.51 185.675 123.51ZM185.675 111.415C185.055 111.415 184.458 111.725 184.124 112.297C183.957 112.607 183.886 112.918 183.886 113.204V120.743C183.886 121.721 184.697 122.532 185.675 122.532C186.009 122.532 186.295 122.46 186.581 122.293L193.118 118.524C193.524 118.285 193.834 117.904 193.953 117.45C194.072 116.973 194.025 116.496 193.786 116.067C193.643 115.78 193.404 115.566 193.142 115.423C193.142 115.423 193.142 115.423 193.118 115.423L186.581 111.653C186.295 111.51 185.985 111.415 185.675 111.415Z" fill="#333333"/>
<path d="M326.309 144.265H301.736V168.598H326.309V144.265Z" fill="white"/>
<path d="M325.831 144.742V168.121H302.214V144.742H325.831ZM326.786 143.788H301.259V169.075H326.786V143.788Z" fill="#333333"/>
<path d="M314.023 156.67C320.808 156.67 326.309 151.169 326.309 144.384C326.309 137.599 320.808 132.098 314.023 132.098C307.237 132.098 301.736 137.599 301.736 144.384C301.736 151.169 307.237 156.67 314.023 156.67Z" fill="white"/>
<path d="M314.022 132.575C320.535 132.575 325.831 137.871 325.831 144.384C325.831 150.897 320.535 156.193 314.022 156.193C307.51 156.193 302.214 150.897 302.214 144.384C302.214 137.871 307.51 132.575 314.022 132.575ZM314.022 131.621C306.985 131.621 301.259 137.346 301.259 144.384C301.259 151.422 306.985 157.147 314.022 157.147C321.06 157.147 326.786 151.422 326.786 144.384C326.786 137.346 321.06 131.621 314.022 131.621Z" fill="#333333"/>
<path d="M320.583 168.837C320.321 168.837 320.106 168.622 320.106 168.36V155C320.106 154.738 320.321 154.523 320.583 154.523C320.845 154.523 321.06 154.738 321.06 155V168.36C321.06 168.622 320.845 168.837 320.583 168.837Z" fill="#333333"/>
<path d="M313.903 168.837C313.641 168.837 313.426 168.622 313.426 168.36V156.67C313.426 156.408 313.641 156.193 313.903 156.193C314.166 156.193 314.38 156.408 314.38 156.67V168.36C314.38 168.622 314.166 168.837 313.903 168.837Z" fill="#333333"/>
<path d="M307.701 168.837C307.438 168.837 307.223 168.622 307.223 168.36V155C307.223 154.738 307.438 154.523 307.701 154.523C307.963 154.523 308.178 154.738 308.178 155V168.36C308.178 168.622 307.963 168.837 307.701 168.837Z" fill="#333333"/>
<path d="M330.03 105.188C322.396 99.7011 318.173 109.506 325.044 112.751C317.458 112.655 316.933 123.295 326.213 121.721C333.775 120.051 344.344 117.212 344.344 117.212C344.344 117.212 336.066 110.031 330.03 105.188Z" fill="white"/>
<path d="M324.424 122.365C321.656 122.365 320.297 121.148 319.676 120.313C318.651 118.905 318.531 117.021 319.39 115.351C320.177 113.8 321.68 112.751 323.541 112.417C322.038 111.295 321.156 109.697 321.108 107.955C321.06 106.095 321.99 104.425 323.541 103.614C324.639 103.041 326.976 102.421 330.316 104.806C330.316 104.806 330.34 104.806 330.34 104.83C336.304 109.625 344.583 116.782 344.678 116.854C344.821 116.973 344.869 117.14 344.821 117.331C344.773 117.522 344.654 117.641 344.487 117.689C344.392 117.713 333.823 120.552 326.332 122.198C325.617 122.293 324.996 122.365 324.424 122.365ZM324.949 113.228C322.802 113.228 321.084 114.158 320.249 115.78C319.557 117.116 319.653 118.619 320.464 119.74C321.513 121.172 323.517 121.697 326.141 121.243C332.344 119.884 340.67 117.689 343.366 116.973C341.266 115.16 334.706 109.53 329.768 105.57C327.621 104.019 325.569 103.614 324.018 104.448C322.802 105.093 322.062 106.429 322.086 107.932C322.134 109.792 323.279 111.391 325.283 112.321C325.497 112.417 325.593 112.631 325.545 112.87C325.497 113.085 325.307 113.252 325.092 113.252C324.996 113.228 324.973 113.228 324.949 113.228Z" fill="#333333"/>
<path d="M344.32 117.713C344.272 117.713 344.249 117.713 344.201 117.689L324.901 113.204C324.639 113.156 324.495 112.894 324.543 112.631C324.591 112.369 324.853 112.226 325.116 112.273L344.416 116.758C344.678 116.806 344.821 117.068 344.773 117.331C344.726 117.569 344.535 117.713 344.32 117.713Z" fill="#333333"/>
<path d="M313.903 144.98C313.641 144.98 313.426 144.766 313.426 144.503V84.1466C313.426 83.8841 313.641 83.6694 313.903 83.6694C314.166 83.6694 314.38 83.8841 314.38 84.1466V144.503C314.38 144.766 314.166 144.98 313.903 144.98Z" fill="#333333"/>
<path d="M303.645 127.875C313.855 125.895 309.18 115.088 301.355 118.142C307.2 112.13 299.041 103.613 293.267 112.249C288.878 119.597 283.128 130.237 283.128 130.237C283.128 130.237 295.176 129.068 303.645 127.875Z" fill="white"/>
<path d="M283.128 130.714C282.961 130.714 282.818 130.643 282.723 130.5C282.627 130.357 282.627 130.166 282.699 129.999C282.747 129.903 288.496 119.263 292.838 111.987C292.838 111.987 292.838 111.963 292.862 111.963C295.367 108.218 297.991 107.955 299.351 108.122C301.235 108.361 302.834 109.721 303.526 111.653C304.17 113.49 303.86 115.494 302.691 117.259C304.766 116.854 306.746 117.355 308.201 118.667C309.704 120.027 310.325 122.031 309.824 123.844C309.466 125.156 308.178 127.47 303.74 128.329H303.716C295.343 129.498 283.295 130.691 283.176 130.691C283.152 130.714 283.152 130.714 283.128 130.714ZM293.673 112.512C290.023 118.619 285.395 127.088 283.987 129.689C286.945 129.402 296.536 128.4 303.573 127.422C306.484 126.85 308.368 125.514 308.893 123.605C309.299 122.126 308.798 120.504 307.557 119.383C306.031 117.999 303.836 117.713 301.546 118.595C301.331 118.667 301.092 118.595 300.973 118.404C300.854 118.214 300.878 117.975 301.021 117.808C302.715 116.043 303.311 113.919 302.619 111.963C302.07 110.389 300.758 109.267 299.231 109.077C297.299 108.838 295.319 110.055 293.673 112.512Z" fill="#333333"/>
<path d="M283.128 130.714C282.985 130.714 282.818 130.643 282.723 130.5C282.58 130.285 282.627 129.975 282.866 129.832L301.092 117.737C301.307 117.593 301.617 117.641 301.76 117.88C301.903 118.094 301.856 118.404 301.617 118.548L283.391 130.643C283.319 130.691 283.224 130.714 283.128 130.714Z" fill="#333333"/>
<path d="M329.338 123.128C323.971 113.037 314.118 121.434 319.819 128.663C311.613 124.464 305.315 135.772 316.241 139.064C325.378 141.307 338.404 143.907 338.404 143.907C338.404 143.907 333.322 131.645 329.338 123.128Z" fill="white"/>
<path d="M338.404 144.384C338.38 144.384 338.332 144.384 338.308 144.384C338.189 144.36 325.163 141.76 316.122 139.541H316.098C311.374 138.11 310.253 135.462 309.991 133.983C309.633 131.931 310.539 129.855 312.329 128.52C314.07 127.231 316.313 126.945 318.555 127.637C317.434 125.561 317.291 123.295 318.221 121.339C319.175 119.335 321.036 118.047 323.112 117.999C324.591 117.951 327.43 118.548 329.744 122.913V122.937C333.68 131.358 338.762 143.621 338.809 143.74C338.881 143.907 338.857 144.098 338.738 144.217C338.69 144.312 338.547 144.384 338.404 144.384ZM316.36 138.611C324.018 140.495 334.539 142.643 337.617 143.263C336.4 140.376 332.249 130.476 328.909 123.343C327.382 120.456 325.33 118.905 323.16 118.953C321.442 119.001 319.891 120.074 319.104 121.744C318.126 123.82 318.531 126.229 320.201 128.353C320.344 128.52 320.344 128.782 320.201 128.949C320.058 129.116 319.82 129.164 319.605 129.068C317.195 127.828 314.762 127.899 312.901 129.259C311.398 130.356 310.659 132.098 310.945 133.792C311.327 135.963 313.235 137.657 316.36 138.611Z" fill="#333333"/>
<path d="M338.427 144.408C338.332 144.408 338.213 144.384 338.117 144.289L319.533 129.044C319.319 128.877 319.295 128.567 319.462 128.376C319.629 128.162 319.939 128.138 320.13 128.305L338.714 143.549C338.928 143.716 338.952 144.026 338.785 144.217C338.714 144.36 338.571 144.408 338.427 144.408Z" fill="#333333"/>
<path d="M306.436 98.4844C303.239 105.975 312.305 107.693 313.76 101.299L313.927 84.1467C313.903 84.1467 309.371 92.4726 306.436 98.4844Z" fill="white"/>
<path d="M309.37 105.713C308.154 105.713 307.033 105.212 306.269 104.305C305.553 103.47 304.599 101.586 306.007 98.2936V98.2697C307.557 95.0968 309.49 91.3991 310.85 88.8226C311.732 87.1765 312.4 85.9121 312.734 85.2918C313.617 83.6458 313.617 83.6458 313.927 83.6458C314.046 83.6458 314.166 83.6935 314.261 83.7889C314.356 83.8843 314.404 84.0036 314.404 84.1229L314.237 101.276C314.237 101.299 314.237 101.347 314.237 101.371C313.736 103.518 312.329 105.093 310.468 105.546C310.086 105.665 309.728 105.713 309.37 105.713ZM306.866 98.6753C305.983 100.775 306.007 102.54 306.985 103.685C307.748 104.568 308.989 104.95 310.229 104.639C311.756 104.258 312.853 103.017 313.283 101.228L313.426 86.0314C311.971 88.751 309.013 94.2857 306.866 98.6753Z" fill="#333333"/>
<path d="M301.426 118.571C301.283 118.571 301.116 118.5 301.021 118.357C300.877 118.142 300.925 117.832 301.164 117.689L304.933 115.184C307.199 113.657 310.205 113.776 312.376 115.494L314.189 116.925C314.404 117.092 314.428 117.379 314.261 117.593C314.094 117.808 313.808 117.832 313.593 117.665L311.78 116.234C309.919 114.778 307.39 114.683 305.458 115.971L301.689 118.476C301.617 118.548 301.522 118.571 301.426 118.571Z" fill="#333333"/>
<path d="M313.903 114.444C313.76 114.444 313.617 114.373 313.521 114.253C313.354 114.039 313.402 113.752 313.617 113.585L315.072 112.512C316.718 111.271 318.818 110.842 320.822 111.319L324.257 112.106C324.519 112.154 324.686 112.416 324.615 112.679C324.567 112.941 324.305 113.084 324.042 113.037L320.607 112.249C318.865 111.844 317.052 112.226 315.621 113.299L314.166 114.373C314.094 114.42 313.999 114.444 313.903 114.444Z" fill="#333333"/>
<path d="M319.867 129.116C319.772 129.116 319.653 129.092 319.557 128.997L313.736 124.249C313.521 124.082 313.498 123.772 313.665 123.581C313.832 123.367 314.142 123.343 314.333 123.51L320.154 128.257C320.368 128.424 320.392 128.734 320.225 128.925C320.154 129.044 320.01 129.116 319.867 129.116Z" fill="#333333"/>
<path d="M335.135 169.076H292.91C292.647 169.076 292.432 168.861 292.432 168.598C292.432 168.336 292.647 168.121 292.91 168.121H335.135C335.398 168.121 335.612 168.336 335.612 168.598C335.612 168.861 335.398 169.076 335.135 169.076Z" fill="#333333"/>
<path d="M36.3336 234.132L31.6816 229.099L33.6856 221.727L37.8843 220.963C38.8386 220.892 39.769 220.773 40.6755 220.629C48.7151 219.246 53.1524 215.023 53.2001 214.976C53.2001 214.976 55.6573 212.757 60.8103 206.888L67.013 203.119L78.3925 229.6C77.152 230.935 75.983 232.271 75.1003 233.297C73.9552 234.657 73.5735 235.206 73.5019 235.54C66.3689 240.907 59.4744 245.13 53.0331 248.112L36.3336 234.132Z" fill="white"/>
<path d="M66.8223 203.787L77.8678 229.48C76.6988 230.744 76.1024 232.367 75.2674 233.345C74.4086 234.228 73.1203 235.206 73.1203 235.206C66.1543 240.43 59.4268 244.581 53.1287 247.516L36.6677 233.774L32.2304 228.955L34.0913 222.108L37.9798 221.417C38.9341 221.345 39.8645 221.226 40.771 221.059C48.6914 219.699 53.2241 215.596 53.5342 215.309C53.7251 215.142 56.1823 212.876 61.1444 207.246L66.8223 203.787ZM67.2517 202.403L60.5242 206.506C55.3473 212.399 52.914 214.594 52.8901 214.618C52.8424 214.665 48.4767 218.792 40.6041 220.128C39.7214 220.272 38.791 220.391 37.8367 220.462L33.304 221.273L31.1331 229.194L35.9759 234.466L52.9617 248.637L52.9855 248.613C59.6176 245.583 66.6791 241.241 74.003 235.707L74.0507 235.683L73.9792 235.611C73.836 235.349 76.4125 232.367 78.9175 229.671L78.9413 229.647L67.2517 202.403Z" fill="#333333"/>
<path d="M52.8901 214.665C52.8185 214.57 46.8306 204.001 51.8166 199.922L51.8881 199.874C51.8881 199.874 51.9836 199.803 52.1028 199.803C52.58 199.803 54.2022 200.041 56.3016 201.52C58.6634 203.166 60.5957 206.506 60.6196 206.554L60.6434 206.578L60.6196 206.602C55.4189 212.494 53.0094 214.689 52.9855 214.713L52.9378 214.761L52.8901 214.665Z" fill="#333333"/>
<path d="M73.9553 235.707C73.4782 235.23 69.3033 230.959 66.9654 225.162C65.7249 222.109 64.7706 218.769 63.9357 215.81C62.8383 211.946 61.884 208.606 60.5719 206.602C56.4924 199.588 51.8166 199.922 51.8166 199.922C52.079 199.707 52.3891 199.493 52.6993 199.326C57.4228 196.725 98.8137 177.807 99.2193 177.616L99.2909 177.593L95.2353 216.574C89.6767 222.753 81.7803 229.91 74.0985 235.731L74.0746 235.754L73.9553 235.707Z" fill="#FFA8C9"/>
<path d="M95.1397 222.323C95.0442 222.299 84.3804 218.96 81.8039 213.783C81.1598 212.471 81.0644 211.159 81.5176 209.846C81.5654 209.775 82.5196 208.749 85.0007 208.749C86.4321 208.749 88.102 209.107 89.939 209.823C92.0383 210.634 94.0423 211.683 95.9031 212.9L95.9269 212.924V212.948C95.8792 219.532 95.2112 222.252 95.2112 222.276L95.1874 222.323H95.1397V222.323Z" fill="#333333"/>
<path d="M24 224.446C24.0477 224.375 25.8131 220.582 35.5227 220.582C36.2861 220.582 37.0495 220.534 37.8367 220.462H37.8844L37.9083 220.534C38.9818 225.258 38.3377 230.196 36.0952 234.49L36.0713 234.538L24 224.446Z" fill="#FF5573"/>
<path d="M147.171 151.923L143.568 168.36H181.739C181.739 168.36 168.856 143.549 167.186 141.879C164.753 139.446 147.171 151.923 147.171 151.923Z" fill="#333333"/>
<path d="M171.027 158.412C168.117 158.412 165.779 156.05 165.779 153.163C165.779 150.253 168.141 147.915 171.027 147.915C173.914 147.915 176.276 150.277 176.276 153.163C176.299 156.074 173.938 158.412 171.027 158.412Z" fill="white"/>
<path d="M171.027 148.392C173.675 148.392 175.799 150.539 175.799 153.164C175.799 155.788 173.652 157.935 171.027 157.935C168.403 157.935 166.256 155.788 166.256 153.164C166.256 150.539 168.403 148.392 171.027 148.392ZM171.027 147.438C167.854 147.438 165.302 150.014 165.302 153.164C165.302 156.313 167.878 158.889 171.027 158.889C174.176 158.889 176.753 156.313 176.753 153.164C176.753 150.014 174.2 147.438 171.027 147.438Z" fill="#333333"/>
<path d="M160.673 164.447C156.976 164.447 152.896 161.513 150.033 156.766C145.811 149.8 145.119 142.571 148.411 139.923C150.391 138.325 152.872 137.537 155.735 137.537C159.457 137.537 162.534 138.897 162.558 138.921C165.54 140.329 167.258 142.142 168.093 144.766C169.023 147.724 168.88 151.732 167.616 157.386C166.638 161.871 164.109 164.447 160.673 164.447Z" fill="white"/>
<path d="M155.759 137.06V138.015C159.29 138.015 162.248 139.279 162.391 139.351C167.329 141.665 169.834 145.482 167.186 157.267C166.208 161.585 163.894 163.97 160.697 163.97C157.167 163.97 153.254 161.108 150.463 156.527C148.411 153.14 147.147 149.585 146.908 146.507C146.67 143.645 147.338 141.45 148.745 140.305C150.654 138.778 153.015 138.015 155.783 138.015L155.759 137.06ZM155.759 137.06C153.278 137.06 150.534 137.633 148.125 139.565C144.69 142.309 145.214 149.728 149.628 157.028C152.705 162.11 156.952 164.925 160.673 164.925C164.037 164.925 166.948 162.587 168.117 157.481C170.741 145.816 168.546 141.187 162.797 138.492C162.797 138.468 159.624 137.06 155.759 137.06Z" fill="#333333"/>
<path d="M162.797 138.468C168.188 141.021 170.478 145.243 168.546 155.43C160.292 151.899 159.576 140.687 159.576 140.687C159.576 140.687 154.328 147.366 145.978 146.937C145.644 143.669 146.359 140.997 148.149 139.565C154.28 134.651 162.797 138.468 162.797 138.468Z" fill="#333333"/>
<path d="M154.351 155.191C154.304 155.191 154.28 155.191 154.232 155.167C153.731 155.048 153.254 154.762 152.896 154.356C152.395 153.736 152.109 152.543 151.846 149.99C151.823 149.728 152.013 149.489 152.276 149.466C152.538 149.442 152.777 149.633 152.801 149.895C153.015 152.161 153.278 153.307 153.636 153.736C153.85 153.998 154.137 154.165 154.447 154.237C154.709 154.308 154.852 154.547 154.805 154.809C154.757 155.048 154.566 155.191 154.351 155.191Z" fill="#333333"/>
<path d="M156.475 151.016C156.26 151.016 156.045 150.873 155.998 150.635L155.878 150.062C155.831 149.8 155.998 149.561 156.26 149.49C156.522 149.442 156.761 149.609 156.832 149.871L156.952 150.444C156.999 150.706 156.833 150.945 156.57 151.016C156.546 151.016 156.499 151.016 156.475 151.016Z" fill="#333333"/>
<path d="M149.723 151.016C149.509 151.016 149.318 150.873 149.27 150.658L149.127 150.062C149.055 149.8 149.222 149.537 149.485 149.49C149.747 149.418 150.01 149.585 150.057 149.847L150.201 150.444C150.272 150.706 150.105 150.969 149.843 151.016C149.795 151.016 149.771 151.016 149.723 151.016Z" fill="#333333"/>
<path d="M156.498 157.792C156.236 157.792 156.021 157.577 156.021 157.315C156.021 157.052 156.236 156.837 156.498 156.837C156.594 156.837 156.689 156.837 156.761 156.814C157.548 156.67 158.097 155.883 157.954 155.096C157.906 154.833 158.073 154.595 158.335 154.547C158.598 154.499 158.836 154.666 158.884 154.929C159.123 156.241 158.24 157.505 156.928 157.744C156.785 157.792 156.642 157.792 156.498 157.792Z" fill="#333333"/>
<path d="M171.6 153.808C171.576 153.808 171.576 153.808 171.552 153.808L168.737 153.545C168.475 153.521 168.284 153.283 168.308 153.02C168.331 152.758 168.57 152.567 168.832 152.591L171.647 152.853C171.91 152.877 172.101 153.116 172.077 153.378C172.053 153.617 171.838 153.808 171.6 153.808Z" fill="#333333"/>
<path d="M89.4859 248.16C88.7225 245.989 87.482 239.548 87.2673 238.355L88.6748 236.351C91.3229 233.607 93.9709 230.005 95.5693 222.347C95.5693 222.299 96.285 218.673 96.285 212.924C96.285 212.828 95.784 205.29 95.617 202.761L123.338 219.15L123.243 228.645C122.026 235.754 120.237 242.315 117.947 248.136L89.4859 248.16Z" fill="white"/>
<path d="M96.1657 203.644L122.861 219.437L122.766 228.621C121.573 235.564 119.855 241.981 117.613 247.683H89.8198C89.1996 245.702 88.2453 241.122 87.7443 238.474L89.0326 236.685C91.7045 233.894 94.4241 230.22 96.0225 222.466C96.0225 222.419 96.7621 218.745 96.7621 212.971V212.948V212.924C96.7621 212.828 96.3565 206.721 96.1657 203.644ZM95.0921 201.902V201.998C95.0921 202.117 95.8078 212.852 95.8078 212.948C95.8078 218.625 95.0921 222.228 95.0921 222.275C93.5176 229.838 90.8934 233.369 88.293 236.064L86.7424 238.259V238.283C86.7662 238.355 88.293 246.537 89.128 248.613L89.1519 248.637H118.281L118.304 248.613C120.666 242.697 122.503 235.993 123.744 228.717L123.839 218.912L95.0921 201.902Z" fill="#333333"/>
<path d="M79.6093 248.589C79.6093 248.565 79.4184 245.106 83.4502 240.836C84.3328 239.905 85.2394 239.047 86.0982 238.212C86.8616 237.472 87.6012 236.78 88.3169 236.041L88.3407 235.993L88.3646 236.041C91.6806 239.548 94.0424 243.866 95.1637 248.565V248.637L79.6093 248.613V248.589V248.589Z" fill="#FF5573"/>
<path d="M165.278 248.565C160.172 248.565 154.614 248.207 148.077 244.033C140.061 238.903 132.594 229.289 125.247 214.594C125.223 215.691 124.984 221.321 123.72 228.717V228.764H123.672C123.624 228.764 117.946 228.24 111.577 224.232C108.285 222.156 106.185 220.534 103.967 218.792C101.748 217.075 99.4816 215.309 95.9032 213.043C85.7403 206.673 81.4939 209.846 81.4939 209.846C83.1161 205.242 88.6508 191.31 97.9548 171.437C100.102 166.857 105.112 163.78 110.408 163.78C120.404 163.78 131.569 172.416 139.155 179.668C147.194 187.326 153.039 195.079 153.373 195.509H182.478V195.532C186.08 206.506 187.774 216.025 187.488 223.85C187.249 230.458 185.627 235.897 182.645 240.025C176.943 247.945 167.926 248.565 165.278 248.565Z" fill="#FFA8C9"/>
<path d="M125.199 214.88C125.199 214.88 125.175 214.88 125.199 214.88C124.913 214.88 124.722 214.642 124.722 214.379C125.199 203.572 123.314 191.286 123.291 191.167C123.243 190.904 123.434 190.666 123.696 190.618C123.959 190.57 124.197 190.761 124.245 191.024C124.269 191.143 126.153 203.524 125.676 214.427C125.676 214.689 125.461 214.88 125.199 214.88Z" fill="#333333"/>
<path d="M160.602 207.246C160.435 207.246 160.292 207.175 160.196 207.008C157.906 203.167 155.401 199.302 152.968 195.819C152.824 195.604 152.872 195.294 153.087 195.151C153.302 195.008 153.612 195.055 153.755 195.27C156.212 198.777 158.717 202.666 161.031 206.507C161.174 206.721 161.103 207.031 160.864 207.151C160.769 207.222 160.697 207.246 160.602 207.246Z" fill="#333333"/>
<path d="M78.9176 200.089L78.8221 200.041C77.6293 199.469 71.4505 196.463 66.2975 193.696C66.0589 193.552 65.7965 193.385 65.5818 193.218L65.5103 193.171L65.5818 193.147C68.8263 191.62 72.6672 189.831 77.009 187.827L77.0568 187.803V187.875C77.9872 193.218 78.7983 198.872 78.9414 199.97L78.9653 200.161L78.9176 200.089Z" fill="#FF5573"/>
<path d="M65.9156 222.347C65.2477 220.367 64.6513 218.363 64.1741 216.645V216.621V216.598C65.5817 214.331 66.8461 212.303 67.9673 210.562C69.0886 209.011 70.4245 208.176 71.7605 208.176C73.0487 208.176 74.1938 208.987 74.6948 210.252C74.9334 210.824 75.5059 212.781 73.5974 214.737C74.1223 214.57 74.6232 214.498 75.1004 214.498C77.4144 214.498 78.7981 216.168 78.9174 217.767C79.0367 219.317 77.987 221.154 74.7187 221.655C72.2376 221.918 69.2794 222.156 65.9634 222.395H65.9395L65.9156 222.347Z" fill="#FF5573"/>
<path d="M159.528 226.713C158.359 226.713 157.262 226.021 156.666 224.947C155.974 223.683 156.045 222.156 156.88 220.701C156.093 221.178 155.258 221.441 154.447 221.441C152.705 221.441 151.226 220.295 150.892 218.721C150.534 216.956 151.727 215.309 154.113 214.307C159.624 212.303 166.184 210.252 167.449 209.87L167.639 209.799L167.592 209.989C167.21 211.254 165.254 217.838 163.345 223.397C162.486 225.496 161.103 226.713 159.528 226.713Z" fill="#FF5573"/>
<path d="M117.326 175.851C115.847 175.851 114.655 174.897 114.273 173.441C113.939 172.129 114.297 170.197 116.396 168.933C116.324 168.933 116.229 168.933 116.157 168.933C114.583 168.933 113.271 168.265 112.531 167.096C111.887 166.094 111.792 164.901 112.269 163.899L112.293 163.875H112.317C116.491 164.304 121.143 166.117 126.153 169.267L126.201 169.29L126.153 169.338C124.149 171.247 122.336 172.94 120.762 174.372C119.593 175.35 118.4 175.851 117.326 175.851Z" fill="#FF5573"/>
<path d="M178.828 231.532C176.276 231.532 175.107 229.957 175.083 228.383C175.035 226.594 176.395 224.709 179.067 224.494C176.848 223.516 176.156 221.584 176.443 220.081C176.753 218.506 177.993 217.504 179.592 217.504C180.57 217.504 181.619 217.862 182.741 218.578C184.172 219.58 185.77 220.773 187.536 222.061L187.56 222.085V222.109C187.584 224.542 187.369 226.999 186.963 229.409V229.433H186.939C184.578 230.172 182.431 230.816 180.546 231.341C179.926 231.46 179.353 231.532 178.828 231.532Z" fill="#FF5573"/>
<path d="M134.956 230.959C133.644 229.17 132.308 227.142 130.972 224.971V224.948C131.02 222.967 131.067 221.154 131.139 219.556C131.449 216.312 133.191 215.143 134.718 215.143C135.767 215.143 136.793 215.667 137.461 216.55C138.224 217.552 138.439 218.864 138.105 220.272C139.012 219.27 140.157 218.721 141.35 218.721C142.829 218.721 144.141 219.58 144.594 220.892C145.143 222.419 144.403 224.16 142.59 225.639C140.491 227.19 137.938 228.979 135.052 230.983L135.004 231.007L134.956 230.959Z" fill="#FF5573"/>
<path d="M107.831 221.703C106.424 220.677 105.207 219.771 103.943 218.769L103.323 218.292L103.346 218.268C104.73 215.119 105.995 212.351 107.116 210.013C108.142 208.153 109.501 207.127 110.957 207.127C112.173 207.127 113.295 207.866 113.843 209.035C114.487 210.395 114.273 212.017 113.223 213.401C113.915 213.091 114.583 212.924 115.251 212.924C117.088 212.924 118.686 214.188 118.925 215.882C119.235 218.101 117.231 219.508 115.251 220.081C113.128 220.582 110.67 221.13 107.879 221.703H107.831Z" fill="#FF5573"/>
<path d="M97.3108 200.328C95.9987 200.328 94.6627 199.493 93.5414 197.942C92.2532 195.986 90.7979 193.672 89.1757 191.048L89.1519 191.024V191C89.8198 189.449 90.5355 187.827 91.2512 186.181L91.2751 186.157H91.2989C94.6388 186.372 97.7163 186.61 100.221 186.873C103.49 187.374 104.539 189.187 104.42 190.737C104.301 192.312 102.917 194.006 100.603 194.006C100.126 194.006 99.6248 193.934 99.1 193.767C101.032 195.7 100.46 197.68 100.221 198.252C99.7441 199.517 98.5751 200.328 97.3108 200.328Z" fill="#FF5573"/>
<path d="M164.252 248.565C162.319 248.565 160.363 248.398 158.431 248.088H158.407V248.064C156.904 245.798 155.592 243.722 154.495 241.957C153.493 240.144 153.349 238.474 154.065 237.257C154.638 236.303 155.664 235.73 156.856 235.73C158.192 235.73 159.862 236.494 160.65 238.641C161.007 236.064 162.868 234.896 164.49 234.896C165.492 234.896 166.423 235.349 166.995 236.112C167.544 236.852 168.069 238.212 167.377 240.549C166.566 242.84 165.564 245.512 164.419 248.518L164.395 248.565H164.252Z" fill="#FF5573"/>
<path d="M81.661 210.276C81.6132 210.276 81.5655 210.276 81.494 210.252C81.2554 210.157 81.1123 209.894 81.2077 209.632C83.0208 204.526 87.6012 193.338 93.7323 179.787C93.8516 179.549 94.114 179.429 94.3526 179.549C94.5911 179.668 94.7104 179.93 94.5911 180.169C88.4839 193.719 83.9035 204.884 82.1142 209.966C82.0427 210.157 81.8518 210.276 81.661 210.276Z" fill="#333333"/>
<path d="M184.601 203.19H158.121C157.858 203.19 157.644 202.976 157.644 202.713C157.644 202.451 157.858 202.236 158.121 202.236H184.601C184.864 202.236 185.079 202.451 185.079 202.713C185.079 202.976 184.864 203.19 184.601 203.19Z" fill="#333333"/>
<path d="M114.297 197.369C112.102 195.819 109.764 194.173 107.331 192.765C99.6966 188.28 97.0486 188.137 94.2335 187.946C93.4463 187.898 92.6113 187.851 91.657 187.684C90.4165 187.469 89.6531 187.063 89.3668 186.443C88.9613 185.608 89.5577 184.582 89.5577 184.559L89.7247 184.272L89.5338 184.01C88.2456 182.34 89.7962 181.028 89.9632 180.885L90.2972 180.622L90.0825 180.264C89.7485 179.692 89.6531 179.167 89.7962 178.714C90.0587 177.855 91.0606 177.378 91.0845 177.378L91.3708 177.259V176.948C91.3708 174.897 94.3767 173.632 99.2434 173.632C102.512 173.632 106.257 174.205 110.098 175.255C112.913 176.042 116.706 177.354 121.406 179.167L131.068 183.843L122.599 201.807L114.297 197.369Z" fill="white"/>
<path d="M99.1953 174.11C102.416 174.11 106.114 174.658 109.907 175.732C112.698 176.519 116.491 177.807 121.167 179.62L130.376 184.082L122.384 201.163L114.535 196.964C112.34 195.413 110.002 193.767 107.545 192.36C99.8156 187.827 97.0959 187.66 94.257 187.493C93.4698 187.445 92.6586 187.398 91.7282 187.231C90.9887 187.111 90.0583 186.849 89.7959 186.252C89.5096 185.656 89.9629 184.821 89.9629 184.821L90.2969 184.272L89.9152 183.748C89.4857 183.175 89.3903 182.65 89.6527 182.101C89.8674 181.624 90.273 181.29 90.273 181.29L90.941 180.765L90.5116 180.05C90.2491 179.597 90.1537 179.215 90.273 178.881C90.44 178.332 91.0603 177.927 91.2988 177.831L91.8475 177.569V176.948C91.7998 175.231 94.7103 174.11 99.1953 174.11ZM99.1953 173.155C94.2332 173.155 90.8456 174.467 90.8456 176.948C90.8456 176.948 88.2213 178.141 89.6527 180.527C89.6527 180.527 87.5057 182.197 89.1279 184.32C89.1279 184.32 87.2671 187.445 91.5612 188.161C95.8554 188.877 97.2868 187.445 107.068 193.171C109.454 194.578 111.744 196.153 114.034 197.775L122.813 202.475L131.64 183.628L121.549 178.738C117.422 177.139 113.342 175.708 110.169 174.801C106.185 173.68 102.368 173.155 99.1953 173.155Z" fill="#333333"/>
<path d="M139.012 208.725C138.678 208.725 138.32 208.725 137.986 208.701C128.563 208.152 121.597 203.214 114.893 198.443L113.986 197.799L121.549 178.666L121.597 178.69C130.4 182.077 139.537 186.133 140.229 186.443C140.491 185.871 143.473 179.763 148.077 171.7C153.087 162.945 156.713 159.986 162.439 159.986C165.278 159.986 168.642 160.63 175.584 168.36C182.884 176.495 187.25 183.366 187.536 187.23C187.774 190.69 186.391 192.789 185.198 193.958C183.886 195.198 182.502 195.628 182.502 195.628H159.385C158.956 196.224 151.059 208.725 139.012 208.725Z" fill="#FF5573"/>
<path d="M159.314 196.033C159.218 196.033 159.147 196.01 159.075 195.962C158.86 195.819 158.789 195.533 158.908 195.294C160.697 192.407 163.393 188.018 166.757 179.859C166.852 179.62 167.139 179.501 167.377 179.596C167.616 179.692 167.735 179.978 167.639 180.217C164.252 188.447 161.532 192.861 159.743 195.795C159.624 195.962 159.481 196.033 159.314 196.033Z" fill="#333333"/>
<path d="M106.137 178.141C106.09 178.141 106.066 178.141 106.018 178.117C105.947 178.093 97.7639 176.018 91.2749 177.879C91.0125 177.95 90.7501 177.807 90.6785 177.545C90.6069 177.282 90.7501 177.02 91.0125 176.948C97.74 175.016 105.899 177.092 106.257 177.187C106.519 177.259 106.662 177.521 106.591 177.759C106.543 177.998 106.352 178.141 106.137 178.141Z" fill="#333333"/>
<path d="M104.993 181.72C104.945 181.72 104.921 181.72 104.873 181.696C104.802 181.672 97.7163 179.835 90.297 181.219C90.0346 181.266 89.796 181.099 89.7483 180.837C89.7006 180.575 89.8676 180.336 90.13 180.288C97.7879 178.857 104.826 180.694 105.136 180.765C105.398 180.837 105.541 181.099 105.47 181.338C105.398 181.577 105.207 181.72 104.993 181.72Z" fill="#333333"/>
<path d="M103.8 185.298C103.776 185.298 103.752 185.298 103.728 185.298C96.2848 184.058 92.3724 184.392 89.8197 184.821C89.5573 184.869 89.3187 184.678 89.271 184.439C89.2233 184.177 89.4142 183.938 89.6527 183.891C92.3008 183.461 96.3087 183.103 103.895 184.368C104.157 184.415 104.324 184.654 104.277 184.916C104.229 185.131 104.038 185.298 103.8 185.298Z" fill="#333333"/>
<path d="M74.1462 106.19C74.0269 106.19 73.9077 106.142 73.8122 106.047L65.3432 97.2918L56.8742 106.047C56.6833 106.238 56.397 106.238 56.2062 106.047C56.0153 105.856 56.0153 105.57 56.2062 105.379L65.0092 96.2659C65.2001 96.0751 65.5102 96.0751 65.701 96.2659L74.5041 105.379C74.6949 105.57 74.6711 105.88 74.5041 106.047C74.3848 106.142 74.2655 106.19 74.1462 106.19Z" fill="#333333"/>
<path d="M85.8598 105.069H44.8029V150.706H85.8598V105.069Z" fill="white"/>
<path d="M85.8597 151.183H44.8028C44.5404 151.183 44.3257 150.969 44.3257 150.706V105.069C44.3257 104.807 44.5404 104.592 44.8028 104.592H85.8597C86.1221 104.592 86.3368 104.807 86.3368 105.069V150.706C86.3368 150.969 86.1221 151.183 85.8597 151.183ZM45.2799 150.229H85.3826V105.546H45.2799V150.229Z" fill="#333333"/>
<path d="M76.2933 115.136C76.1741 115.136 76.0548 115.089 75.9594 114.993C75.7685 114.802 75.7685 114.516 75.9594 114.325L84.8578 105.427C85.0487 105.236 85.3349 105.236 85.5258 105.427C85.7166 105.618 85.7166 105.904 85.5258 106.095L76.6273 114.993C76.5319 115.089 76.4126 115.136 76.2933 115.136Z" fill="#333333"/>
<path d="M54.3932 115.136C54.2739 115.136 54.1546 115.089 54.0592 114.993L45.1607 106.095C44.9699 105.904 44.9699 105.618 45.1607 105.427C45.3516 105.236 45.6378 105.236 45.8287 105.427L54.7271 114.325C54.918 114.516 54.918 114.802 54.7271 114.993C54.6317 115.089 54.5124 115.136 54.3932 115.136Z" fill="#333333"/>
<path d="M65.3433 100.298C66.9639 100.298 68.2776 98.9839 68.2776 97.3633C68.2776 95.7427 66.9639 94.429 65.3433 94.429C63.7227 94.429 62.4089 95.7427 62.4089 97.3633C62.4089 98.9839 63.7227 100.298 65.3433 100.298Z" fill="white"/>
<path d="M65.3433 100.775C63.4587 100.775 61.9319 99.248 61.9319 97.3634C61.9319 95.4787 63.4587 93.9519 65.3433 93.9519C67.228 93.9519 68.7548 95.4787 68.7548 97.3634C68.7548 99.248 67.228 100.775 65.3433 100.775ZM65.3433 94.9062C63.9835 94.9062 62.8861 96.0036 62.8861 97.3634C62.8861 98.7232 63.9835 99.8206 65.3433 99.8206C66.7032 99.8206 67.8006 98.7232 67.8006 97.3634C67.8006 96.0036 66.7032 94.9062 65.3433 94.9062Z" fill="#333333"/>
<path d="M45.4947 150.492C45.3754 150.492 45.2561 150.444 45.1607 150.348C44.9699 150.158 44.9699 149.871 45.1607 149.681L54.0592 140.782C54.25 140.591 54.5363 140.591 54.7271 140.782C54.918 140.973 54.918 141.259 54.7271 141.45L45.8287 150.348C45.7333 150.444 45.614 150.492 45.4947 150.492Z" fill="#333333"/>
<path d="M85.1918 150.492C85.0725 150.492 84.9532 150.444 84.8578 150.348L75.9594 141.45C75.7685 141.259 75.7685 140.973 75.9594 140.782C76.1502 140.591 76.4365 140.591 76.6273 140.782L85.5258 149.681C85.7166 149.871 85.7166 150.158 85.5258 150.348C85.4304 150.444 85.3111 150.492 85.1918 150.492Z" fill="#333333"/>
<path d="M76.2696 114.683H54.4171V141.116H76.2696V114.683Z" fill="white"/>
<path d="M75.7925 115.16V140.639H54.8943V115.16H75.7925ZM76.7467 114.206H53.94V141.593H76.7467V114.206Z" fill="#333333"/>
<path d="M323.231 199.922C322.969 199.707 322.659 199.492 322.348 199.325C317.625 196.725 276.258 177.807 275.828 177.616L275.757 177.592L279.812 216.574C285.347 222.752 293.267 229.933 300.949 235.73L301.045 235.754L301.092 235.707C301.546 235.253 305.72 230.959 308.082 225.162C309.323 222.084 310.277 218.745 311.112 215.81C312.209 211.946 313.164 208.606 314.476 206.602C317.649 201.377 321.346 199.922 323.231 199.922Z" fill="#B666D2"/>
<path d="M279.073 212.948L279.097 212.9C280.958 211.659 282.985 210.633 285.061 209.822C286.898 209.107 288.568 208.749 289.999 208.749C292.456 208.749 293.434 209.775 293.458 209.822C293.935 211.134 293.84 212.47 293.172 213.782C290.572 218.935 279.932 222.275 279.836 222.323L279.789 222.347C279.789 222.347 279.121 219.508 279.073 212.948Z" fill="#333333"/>
<path d="M322.038 214.665C322.014 214.641 319.581 212.446 314.404 206.554L314.38 206.53L314.404 206.506C314.428 206.482 316.36 203.405 318.46 201.735C320.631 199.993 322.706 199.922 323.112 199.922C323.16 199.922 323.183 199.922 323.183 199.922H323.231C328.217 204.001 322.181 214.57 322.134 214.665L322.11 214.713L322.038 214.665Z" fill="#333333"/>
<path d="M241.141 170.507H253.069L256.171 147.366H238.04L241.141 170.507Z" fill="#B666D2"/>
<path d="M247.105 154.285C252.112 154.285 256.171 151.08 256.171 147.128C256.171 143.175 252.112 139.971 247.105 139.971C242.099 139.971 238.04 143.175 238.04 147.128C238.04 151.08 242.099 154.285 247.105 154.285Z" fill="#DBB3E8"/>
<path d="M247.105 147.366C246.843 147.366 246.628 147.152 246.628 146.889V134.245C246.628 133.983 246.843 133.768 247.105 133.768C247.368 133.768 247.582 133.983 247.582 134.245V146.889C247.582 147.152 247.368 147.366 247.105 147.366Z" fill="#333333"/>
<path d="M253.046 170.841C252.473 170.841 252.02 170.626 251.805 170.197C251.566 169.744 251.662 169.147 252.044 168.622L252.33 168.241L251.924 167.954C251.924 167.954 251.113 167.382 251.113 166.618C251.113 166.141 251.447 165.64 252.091 165.139L252.783 164.638L251.996 164.328C251.996 164.328 251.113 163.97 250.994 163.255C250.875 162.658 251.304 161.895 252.211 161.06L252.616 160.678L252.187 160.32C252.187 160.32 251.304 159.605 251.304 158.698C251.304 158.197 251.59 157.696 252.187 157.243C252.712 156.813 254.62 155.716 255.312 155.334L255.503 155.215L255.789 153.664C256.505 154.022 256.958 154.595 257.149 155.358C257.435 156.527 256.982 157.791 256.576 158.221L256.123 158.674L256.672 158.984C256.696 158.984 257.22 159.318 257.387 160.01C257.578 160.726 257.34 161.585 256.719 162.61L256.481 162.992L256.839 163.255C256.839 163.255 257.387 163.684 257.483 164.424C257.554 165.02 257.316 165.688 256.743 166.38L256.505 166.666L256.743 166.952C256.767 166.976 257.173 167.525 256.982 168.264C256.767 169.099 255.837 169.863 254.31 170.507C253.857 170.746 253.427 170.841 253.046 170.841Z" fill="white"/>
<path d="M256.123 154.523C256.385 154.785 256.576 155.119 256.672 155.501C256.91 156.527 256.505 157.601 256.218 157.911L255.336 158.793L256.433 159.414C256.433 159.414 256.791 159.652 256.934 160.129C257.077 160.702 256.886 161.489 256.338 162.372L255.837 163.111L256.576 163.612C256.624 163.636 256.886 163.875 256.982 164.256C257.149 164.781 256.958 165.402 256.409 166.07L255.884 166.666L256.409 167.262C256.457 167.334 256.696 167.692 256.576 168.169C256.385 168.837 255.55 169.505 254.167 170.077C253.761 170.244 253.38 170.34 253.069 170.34C252.831 170.34 252.425 170.292 252.258 169.958C252.115 169.672 252.187 169.266 252.449 168.885L253.022 168.097L252.234 167.549C252.067 167.429 251.614 167.024 251.614 166.594C251.614 166.189 252.044 165.783 252.401 165.497L253.761 164.471L252.163 163.851C252.067 163.803 251.519 163.517 251.447 163.135C251.376 162.73 251.757 162.086 252.521 161.37L253.332 160.63L252.473 159.938C252.282 159.771 251.757 159.223 251.757 158.698C251.757 158.34 251.996 157.982 252.449 157.601C252.902 157.243 254.572 156.265 255.503 155.74L255.908 155.525L255.98 155.072L256.123 154.523ZM255.407 153.044L255.073 154.952C255.073 154.952 252.545 156.36 251.877 156.909C249.491 158.817 251.877 160.726 251.877 160.726C248.775 163.588 251.805 164.781 251.805 164.781C249.252 166.69 251.638 168.36 251.638 168.36C250.684 169.696 251.328 171.318 253.022 171.318C253.451 171.318 253.952 171.223 254.501 170.984C259.033 169.075 257.125 166.69 257.125 166.69C259.033 164.304 257.125 162.873 257.125 162.873C259.033 159.771 256.886 158.579 256.886 158.579C257.841 157.624 258.556 154.046 255.407 153.044Z" fill="#333333"/>
<path d="M252.616 161.203C252.425 161.203 252.234 161.084 252.163 160.869C252.091 160.63 252.211 160.344 252.473 160.273C252.497 160.273 254.787 159.509 255.98 158.173C256.147 157.982 256.457 157.958 256.648 158.149C256.839 158.316 256.863 158.626 256.672 158.817C255.288 160.32 252.855 161.131 252.735 161.155C252.712 161.203 252.664 161.203 252.616 161.203Z" fill="#333333"/>
<path d="M252.354 165.259C252.139 165.259 251.948 165.115 251.9 164.901C251.829 164.638 251.972 164.376 252.234 164.304C253.117 164.042 255.574 163.207 256.29 162.324C256.457 162.11 256.767 162.086 256.958 162.253C257.173 162.42 257.197 162.706 257.03 162.921C256.004 164.185 252.855 165.115 252.497 165.235C252.449 165.259 252.401 165.259 252.354 165.259Z" fill="#333333"/>
<path d="M252.354 168.908C252.139 168.908 251.948 168.765 251.9 168.551C251.829 168.288 251.972 168.026 252.234 167.954C252.258 167.954 255.026 167.191 256.338 166.07C256.529 165.903 256.839 165.926 257.006 166.141C257.173 166.356 257.149 166.642 256.934 166.809C255.431 168.05 252.592 168.861 252.449 168.885C252.449 168.908 252.401 168.908 252.354 168.908Z" fill="#333333"/>
<path d="M309.633 241.814C306.77 239.977 303.86 237.925 300.949 235.754L300.902 235.73L300.973 235.659C301.45 235.182 305.601 230.911 307.939 225.138C309.18 222.085 310.134 218.745 310.969 215.81C312.09 211.922 313.045 208.534 314.38 206.53L314.404 206.482L314.452 206.53C319.629 212.423 322.062 214.617 322.086 214.641C322.158 214.713 328.408 220.582 339.477 220.582C344.535 220.582 347.398 221.631 348.901 222.49C350.547 223.444 350.952 224.375 350.976 224.422L351 224.446L332.297 240.072L332.273 240.048C329.362 237.71 325.688 236.422 321.943 236.422H321.895C317.267 236.422 312.806 238.378 309.705 241.814L309.681 241.838L309.633 241.814Z" fill="#DBB3E8"/>
<path d="M321.967 248.637C317.72 246.657 313.569 244.366 309.633 241.814L309.585 241.79L309.633 241.742C312.782 238.283 317.267 236.303 321.919 236.303C325.688 236.303 329.386 237.591 332.32 239.953L332.368 240.001L322.014 248.661L321.967 248.637Z" fill="#B666D2"/>
<path d="M270.365 248.637C268.409 241.432 261.849 236.422 254.405 236.398C253.928 236.398 253.427 236.422 252.902 236.47H252.879L252.855 236.422C252.234 233.917 251.71 231.317 251.256 228.717V228.693L251.28 228.669C255.908 226.045 278.93 212.9 279.121 212.9H279.168V212.948C279.168 218.625 279.884 222.228 279.884 222.275C281.459 229.838 284.083 233.369 286.683 236.064C287.399 236.828 288.138 237.52 288.926 238.235C289.784 239.047 290.691 239.905 291.574 240.86C295.605 245.13 295.415 248.565 295.415 248.613V248.661H270.365V248.637Z" fill="#DBB3E8"/>
<path d="M256.696 248.637C255.145 244.653 253.833 240.573 252.855 236.446L252.831 236.398H252.879C253.403 236.351 253.904 236.327 254.405 236.327C261.896 236.327 268.481 241.384 270.461 248.589L270.485 248.66H256.696V248.637V248.637Z" fill="#B666D2"/>
<path d="M222.533 206.53C217.619 206.53 213.539 203.548 210.104 197.393C206.764 191.429 204.522 183.27 202.947 176.829C202.518 175.04 202.613 173.704 203.281 172.869C203.901 172.081 205.07 171.676 206.74 171.676C212.728 171.676 222.939 176.829 223.034 176.9L223.44 177.091L223.678 176.71C226.899 171.318 231.408 165.139 235.726 160.129C240.712 154.38 243.551 152.328 244.481 152.328C244.529 152.328 244.553 152.328 244.577 152.352C244.839 152.448 245.006 152.615 245.101 152.853C245.364 153.593 245.006 155.048 244.099 156.933C243.384 158.459 242.549 159.724 242.549 159.748L242.453 159.915L242.477 160.106C242.477 160.153 243.241 164.948 240.545 168.312L240.426 168.479L240.736 171.008H250.493C248.632 175.827 236.418 206.53 222.533 206.53Z" fill="white"/>
<path d="M244.457 152.806C244.553 152.853 244.6 152.901 244.648 152.996C245.054 154.142 243.384 157.529 242.143 159.462L241.952 159.772L242 160.129C242 160.177 242.716 164.781 240.163 167.954L239.901 168.265L239.948 168.67L240.187 170.579L240.282 171.414H241.117H249.753C248.656 174.229 245.793 181.29 241.785 188.256C237.157 196.344 230.048 206.005 222.485 206.005C217.738 206.005 213.826 203.095 210.486 197.107C207.17 191.191 204.951 183.079 203.376 176.662C202.971 175.016 203.042 173.823 203.615 173.107C204.14 172.439 205.19 172.105 206.692 172.105C212.561 172.105 222.676 177.211 222.772 177.258L223.559 177.664L224.012 176.901C227.233 171.533 231.718 165.354 236.012 160.392C240.879 154.905 243.718 152.853 244.457 152.806ZM244.481 151.851C241.523 151.851 230.191 164.877 223.249 176.471C223.249 176.471 212.919 171.199 206.74 171.199C203.52 171.199 201.444 172.63 202.494 176.948C206.192 192.002 211.321 207.007 222.533 207.007C238.04 207.007 251.161 170.507 251.161 170.507H241.141L240.903 168.599C243.765 165.02 242.93 160.01 242.93 160.01C242.93 160.01 247.582 152.853 244.72 151.899C244.648 151.875 244.576 151.851 244.481 151.851Z" fill="#333333"/>
<path d="M203.949 158.412C201.039 158.412 198.701 156.05 198.701 153.163C198.701 150.253 201.062 147.915 203.949 147.915C206.86 147.915 209.198 150.277 209.198 153.163C209.198 156.074 206.836 158.412 203.949 158.412Z" fill="white"/>
<path d="M203.949 148.392C206.597 148.392 208.72 150.539 208.72 153.163C208.72 155.787 206.573 157.935 203.949 157.935C201.325 157.935 199.178 155.787 199.178 153.163C199.178 150.539 201.301 148.392 203.949 148.392ZM203.949 147.438C200.776 147.438 198.224 150.014 198.224 153.163C198.224 156.312 200.8 158.889 203.949 158.889C207.098 158.889 209.675 156.312 209.675 153.163C209.675 150.014 207.122 147.438 203.949 147.438Z" fill="#333333"/>
<path d="M214.303 164.448C210.891 164.448 208.339 161.871 207.337 157.362C204.617 145.267 207.265 141.331 212.394 138.897C212.418 138.897 215.496 137.514 219.217 137.514C222.104 137.514 224.561 138.325 226.541 139.899C229.833 142.524 229.141 149.776 224.919 156.742C222.056 161.489 217.977 164.448 214.303 164.448Z" fill="white"/>
<path d="M219.217 138.015C221.984 138.015 224.346 138.778 226.255 140.305C227.686 141.45 228.33 143.645 228.092 146.507C227.829 149.585 226.565 153.14 224.537 156.527C221.77 161.131 217.833 163.97 214.303 163.97C211.082 163.97 208.768 161.585 207.814 157.267C205.166 145.482 207.671 141.665 212.609 139.351C212.728 139.279 215.662 138.015 219.217 138.015ZM219.217 137.06C215.352 137.06 212.203 138.492 212.203 138.492C206.454 141.187 204.259 145.816 206.883 157.481C208.028 162.587 210.939 164.925 214.327 164.925C218.048 164.925 222.295 162.086 225.372 157.028C229.785 149.728 230.31 142.333 226.875 139.565C224.442 137.633 221.674 137.06 219.217 137.06Z" fill="#333333"/>
<path d="M220.625 155.191C220.41 155.191 220.219 155.048 220.171 154.833C220.1 154.571 220.267 154.308 220.529 154.261C220.839 154.189 221.126 153.998 221.34 153.736C221.698 153.307 221.937 152.161 222.151 149.895C222.175 149.633 222.414 149.442 222.676 149.466C222.939 149.489 223.13 149.728 223.106 149.99C222.843 152.567 222.581 153.736 222.08 154.356C221.722 154.786 221.245 155.072 220.744 155.191C220.696 155.191 220.672 155.191 220.625 155.191Z" fill="#333333"/>
<path d="M218.501 151.016C218.478 151.016 218.43 151.016 218.406 151.016C218.144 150.968 217.977 150.706 218.048 150.444L218.167 149.871C218.215 149.609 218.478 149.442 218.74 149.489C219.002 149.537 219.169 149.799 219.098 150.062L218.979 150.634C218.931 150.873 218.716 151.016 218.501 151.016Z" fill="#333333"/>
<path d="M225.253 151.016C225.205 151.016 225.181 151.016 225.134 150.992C224.871 150.921 224.728 150.682 224.776 150.42L224.919 149.823C224.99 149.561 225.229 149.418 225.491 149.466C225.754 149.537 225.897 149.776 225.849 150.038L225.706 150.635C225.658 150.873 225.468 151.016 225.253 151.016Z" fill="#333333"/>
<path d="M218.478 157.791C218.334 157.791 218.191 157.791 218.024 157.768C216.712 157.529 215.829 156.265 216.068 154.953C216.116 154.69 216.354 154.523 216.617 154.571C216.879 154.619 217.046 154.857 216.998 155.12C216.927 155.501 217.022 155.883 217.237 156.217C217.476 156.551 217.81 156.766 218.191 156.837C218.263 156.861 218.358 156.861 218.454 156.861C218.716 156.861 218.931 157.076 218.931 157.338C218.931 157.601 218.74 157.791 218.478 157.791Z" fill="#333333"/>
<path d="M203.377 153.808C203.138 153.808 202.923 153.617 202.9 153.378C202.876 153.116 203.067 152.877 203.329 152.853L206.144 152.591C206.406 152.567 206.645 152.758 206.669 153.02C206.693 153.283 206.502 153.521 206.239 153.545L203.424 153.808C203.401 153.808 203.401 153.808 203.377 153.808Z" fill="#333333"/>
<path d="M234.939 137.824C233.03 134.866 226.923 134.532 223.941 137.895C218.334 135.724 212.18 138.468 212.18 138.468C206.788 141.021 204.498 145.243 206.43 155.43C214.684 151.899 215.4 140.687 215.4 140.687C215.4 140.687 220.41 147.056 228.426 146.937C228.45 146.937 228.473 146.937 228.473 146.937C228.64 146.937 228.807 146.937 228.974 146.913V146.889C234.652 146.341 237.491 141.76 234.939 137.824Z" fill="#333333"/>
<path d="M209.698 248.565C207.074 248.565 198.033 247.945 192.307 240.025C189.325 235.921 187.703 230.482 187.464 223.85C187.178 216.025 188.872 206.506 192.474 195.532V195.509H221.579C221.913 195.079 227.758 187.302 235.797 179.668C243.384 172.416 254.549 163.78 264.544 163.78C269.84 163.78 274.85 166.857 276.997 171.437C286.301 191.31 291.836 205.266 293.458 209.846C293.458 209.846 288.854 206.673 279.049 213.043C275.494 215.309 273.204 217.099 270.986 218.792C268.743 220.534 266.644 222.156 263.375 224.232C257.006 228.24 251.328 228.764 251.28 228.764H251.232V228.717C249.968 221.321 249.753 215.691 249.706 214.594C242.358 229.265 234.867 238.903 226.875 244.033C220.338 248.207 214.804 248.565 209.698 248.565Z" fill="#B666D2"/>
<path d="M249.825 214.88C249.562 214.88 249.372 214.689 249.348 214.427C248.871 203.524 250.755 191.143 250.779 191.024C250.827 190.761 251.065 190.594 251.328 190.618C251.59 190.666 251.757 190.904 251.733 191.167C251.71 191.286 249.849 203.572 250.302 214.379C250.302 214.641 250.111 214.88 249.825 214.88C249.825 214.88 249.849 214.88 249.825 214.88Z" fill="#333333"/>
<path d="M214.422 207.246C214.35 207.246 214.255 207.222 214.183 207.174C213.969 207.031 213.873 206.745 214.016 206.53C216.307 202.689 218.835 198.801 221.293 195.294C221.436 195.079 221.746 195.031 221.961 195.175C222.175 195.318 222.223 195.628 222.08 195.843C219.647 199.326 217.142 203.19 214.851 207.031C214.732 207.174 214.589 207.246 214.422 207.246Z" fill="#333333"/>
<path d="M293.363 210.275C293.172 210.275 292.981 210.156 292.91 209.965C291.096 204.884 286.54 193.719 280.433 180.216C280.313 179.978 280.433 179.692 280.671 179.596C280.91 179.477 281.196 179.596 281.291 179.835C287.423 193.385 292.003 204.574 293.816 209.679C293.912 209.918 293.768 210.204 293.53 210.299C293.458 210.275 293.411 210.275 293.363 210.275Z" fill="#333333"/>
<path d="M216.808 203.19H190.327C190.065 203.19 189.85 202.976 189.85 202.713C189.85 202.451 190.065 202.236 190.327 202.236H216.808C217.07 202.236 217.285 202.451 217.285 202.713C217.285 202.976 217.07 203.19 216.808 203.19Z" fill="#333333"/>
<path d="M213.611 229.742C213.277 229.742 212.967 229.719 212.657 229.647C205.977 228.383 207.241 215.333 208.172 205.814C208.291 204.693 208.386 203.643 208.458 202.689C208.482 202.427 208.696 202.236 208.983 202.26C209.245 202.284 209.436 202.522 209.412 202.785C209.341 203.739 209.221 204.812 209.126 205.934C208.291 214.57 207.026 227.643 212.847 228.74C213.11 228.788 213.372 228.812 213.635 228.812C220.625 228.812 230.74 212.685 237.515 201.878C239.042 199.445 240.473 197.155 241.714 195.318C246.914 187.517 253.594 178.642 259.105 179.262C261.467 179.525 263.351 181.505 264.735 185.155C266.62 190.117 274.445 215.93 274.516 216.192C274.588 216.454 274.445 216.717 274.206 216.788C273.944 216.86 273.681 216.717 273.61 216.478C273.538 216.216 265.713 190.427 263.829 185.489C262.588 182.22 260.942 180.431 258.986 180.216C253.928 179.644 247.153 188.852 242.501 195.842C241.284 197.679 239.853 199.97 238.326 202.379C231.026 213.997 221.149 229.742 213.611 229.742Z" fill="#333333"/>
<path d="M310.802 216.788C310.707 216.788 310.611 216.765 310.516 216.693L290.238 202.379C290.023 202.236 289.975 201.926 290.118 201.711C290.262 201.496 290.572 201.449 290.786 201.592L311.064 215.906C311.279 216.049 311.327 216.359 311.184 216.574C311.088 216.717 310.945 216.788 310.802 216.788Z" fill="#333333"/>
<path d="M235.964 208.2C229.714 208.2 224.633 204.693 221.484 201.759C218.048 198.562 216.068 195.342 216.068 195.318C214.374 192.693 212.943 189.926 211.774 187.04L209.341 181.052L226.708 174.205L229.762 177.903C232.601 183.175 234.295 186.682 234.318 186.729L234.509 187.159L234.939 186.968C235.129 186.873 254.835 178.117 264.926 175.302C268.743 174.229 272.512 173.68 275.781 173.68C280.648 173.68 283.653 174.944 283.653 176.996V177.306L283.94 177.425C283.94 177.425 284.942 177.903 285.204 178.761C285.347 179.238 285.252 179.763 284.918 180.312L284.703 180.67L285.037 180.932C285.228 181.075 286.755 182.364 285.467 184.057L285.276 184.32L285.443 184.606C285.443 184.606 286.039 185.632 285.634 186.491C285.347 187.111 284.56 187.541 283.343 187.731C282.389 187.898 281.554 187.946 280.767 187.994C277.976 188.161 275.328 188.328 267.67 192.813C264.95 194.387 262.35 196.248 259.797 198.061C253.141 202.785 246.247 207.675 236.966 208.224C236.632 208.176 236.298 208.2 235.964 208.2Z" fill="white"/>
<path d="M275.781 174.109C280.266 174.109 283.176 175.231 283.176 176.948V177.568L283.725 177.831C283.963 177.95 284.584 178.332 284.751 178.881C284.846 179.215 284.775 179.596 284.512 180.05L284.083 180.765L284.751 181.29C284.751 181.29 285.156 181.624 285.371 182.101C285.633 182.65 285.538 183.175 285.109 183.747L284.703 184.248L285.037 184.797C285.037 184.797 285.49 185.632 285.204 186.228C284.918 186.825 283.987 187.087 283.272 187.206C282.341 187.373 281.53 187.421 280.743 187.469C277.88 187.636 275.184 187.803 267.455 192.336C264.735 193.934 262.087 195.795 259.558 197.608C252.95 202.308 246.127 207.15 236.99 207.675C236.68 207.699 236.346 207.699 236.012 207.699C229.929 207.699 224.99 204.288 221.889 201.425C218.478 198.276 216.521 195.079 216.521 195.031V195.008V194.984C214.851 192.407 213.42 189.64 212.275 186.801L210.009 181.242L226.589 174.682L229.404 178.069C232.219 183.294 233.913 186.801 233.913 186.825L234.318 187.66L235.177 187.278C235.368 187.183 255.026 178.451 265.093 175.636C268.839 174.658 272.536 174.109 275.781 174.109ZM275.781 173.155C272.608 173.155 268.791 173.68 264.807 174.801C254.549 177.664 234.748 186.491 234.748 186.491C234.748 186.491 233.054 182.96 230.167 177.616L226.851 173.608L208.72 180.765L211.345 187.206C212.514 190.117 213.969 192.908 215.663 195.556C215.663 195.556 223.583 208.677 235.988 208.677C236.322 208.677 236.656 208.677 237.014 208.653C249.992 207.89 258.151 198.92 267.932 193.194C277.713 187.469 279.144 188.9 283.439 188.185C287.733 187.469 285.872 184.344 285.872 184.344C287.494 182.22 285.347 180.551 285.347 180.551C286.779 178.165 284.154 176.972 284.154 176.972C284.13 174.467 280.743 173.155 275.781 173.155Z" fill="#333333"/>
<path d="M192.522 195.604C192.45 195.58 186.987 193.839 187.464 187.206C187.75 183.342 192.092 176.447 199.416 168.336C206.358 160.607 209.722 159.962 212.561 159.962C218.287 159.962 221.913 162.921 226.923 171.676C228.044 173.632 229.141 175.612 230.215 177.592L230.239 177.64L211.416 187.23C212.585 190.117 213.993 192.908 215.686 195.532L215.734 195.604H192.522V195.604Z" fill="#DBB3E8"/>
<path d="M268.862 178.141C268.648 178.141 268.457 177.998 268.409 177.783C268.337 177.521 268.504 177.258 268.743 177.211C269.077 177.115 277.236 175.063 283.987 176.972C284.25 177.044 284.393 177.306 284.321 177.568C284.25 177.831 283.987 177.974 283.725 177.902C277.236 176.042 269.077 178.117 268.982 178.141C268.934 178.141 268.91 178.141 268.862 178.141Z" fill="#333333"/>
<path d="M270.007 181.72C269.793 181.72 269.602 181.576 269.554 181.362C269.483 181.099 269.65 180.837 269.888 180.789C270.174 180.718 277.236 178.881 284.894 180.312C285.156 180.36 285.323 180.598 285.275 180.861C285.228 181.123 284.965 181.29 284.727 181.242C277.284 179.859 270.222 181.696 270.15 181.72C270.079 181.72 270.055 181.72 270.007 181.72Z" fill="#333333"/>
<path d="M271.2 185.298C270.962 185.298 270.771 185.131 270.723 184.892C270.675 184.63 270.866 184.391 271.105 184.344C278.691 183.079 282.699 183.437 285.347 183.867C285.61 183.914 285.777 184.153 285.729 184.415C285.681 184.678 285.443 184.845 285.18 184.797C282.604 184.368 278.691 184.034 271.272 185.274C271.248 185.298 271.224 185.298 271.2 185.298Z" fill="#333333"/>
<path d="M261.348 197.966C261.157 197.966 260.99 197.846 260.918 197.679L253.093 178.88C252.998 178.642 253.117 178.356 253.356 178.26C253.594 178.165 253.88 178.284 253.976 178.523L261.801 197.322C261.896 197.56 261.777 197.846 261.538 197.942C261.467 197.966 261.419 197.966 261.348 197.966Z" fill="#333333"/>
<path d="M212.036 187.946C211.845 187.946 211.678 187.85 211.607 187.66C210.581 185.369 209.197 182.077 208.506 180.216C208.41 179.978 208.529 179.692 208.792 179.596C209.03 179.501 209.317 179.62 209.412 179.882C210.104 181.719 211.488 184.988 212.513 187.278C212.609 187.516 212.513 187.803 212.275 187.898C212.156 187.922 212.108 187.946 212.036 187.946Z" fill="#333333"/>
<path d="M257.363 192.932C260.13 192.932 262.373 190.689 262.373 187.922C262.373 185.155 260.13 182.912 257.363 182.912C254.597 182.912 252.354 185.155 252.354 187.922C252.354 190.689 254.597 192.932 257.363 192.932Z" fill="white"/>
<path d="M257.364 193.409C254.334 193.409 251.877 190.952 251.877 187.922C251.877 184.892 254.334 182.435 257.364 182.435C260.393 182.435 262.851 184.892 262.851 187.922C262.851 190.952 260.393 193.409 257.364 193.409ZM257.364 183.389C254.859 183.389 252.831 185.417 252.831 187.922C252.831 190.427 254.859 192.455 257.364 192.455C259.868 192.455 261.896 190.427 261.896 187.922C261.896 185.417 259.868 183.389 257.364 183.389Z" fill="#333333"/>
<path d="M177.182 219.413C176.968 219.413 176.729 219.389 176.514 219.365C175.512 219.198 174.63 218.625 174.057 217.79C173.485 216.955 173.246 215.953 173.413 214.951C173.723 213.115 175.322 211.802 177.158 211.802C177.373 211.802 177.612 211.826 177.826 211.85L178.327 211.946L178.375 211.421C178.399 211.134 178.471 210.872 178.542 210.586C179.067 209.011 180.522 207.962 182.168 207.962C182.574 207.962 182.979 208.033 183.361 208.152L183.743 208.272L183.934 207.914C184.315 207.174 184.936 206.554 185.675 206.196C186.2 205.934 186.749 205.814 187.345 205.814C188.824 205.814 190.136 206.626 190.78 207.962L190.971 208.343L191.377 208.2C191.687 208.081 192.021 208.009 192.355 207.985C192.474 207.985 192.594 207.962 192.713 207.962C194.693 207.962 196.315 209.441 196.506 211.421L196.554 211.946L197.055 211.85C197.269 211.802 197.484 211.802 197.699 211.779C199.798 211.779 201.516 213.496 201.516 215.596C201.516 217.695 199.798 219.413 197.699 219.413H177.182V219.413Z" fill="white"/>
<path d="M187.345 206.292C188.633 206.292 189.779 207.007 190.351 208.176L190.733 208.964L191.544 208.653C191.806 208.558 192.093 208.486 192.403 208.463C192.498 208.463 192.617 208.439 192.713 208.439C194.431 208.439 195.862 209.727 196.029 211.469L196.124 212.494L197.15 212.303C197.341 212.28 197.532 212.256 197.723 212.256C199.56 212.256 201.063 213.759 201.063 215.596C201.063 217.433 199.56 218.936 197.723 218.936H177.206C177.015 218.936 176.824 218.912 176.634 218.888C175.751 218.745 174.988 218.244 174.487 217.528C173.986 216.788 173.771 215.906 173.938 215.023C174.224 213.425 175.608 212.256 177.23 212.256C177.421 212.256 177.612 212.28 177.803 212.303L178.828 212.47L178.924 211.445C178.948 211.206 178.995 210.968 179.067 210.729C179.52 209.345 180.785 208.439 182.24 208.439C182.598 208.439 182.932 208.486 183.266 208.606L184.053 208.868L184.411 208.129C184.745 207.484 185.27 206.936 185.938 206.626C186.343 206.411 186.82 206.292 187.345 206.292ZM187.345 205.337C186.725 205.337 186.081 205.481 185.484 205.767C184.649 206.172 183.958 206.864 183.528 207.699C183.075 207.556 182.645 207.484 182.192 207.484C180.379 207.484 178.709 208.63 178.113 210.443C178.017 210.753 177.946 211.063 177.922 211.373C177.683 211.325 177.421 211.302 177.182 211.302C175.131 211.302 173.318 212.781 172.96 214.856C172.554 217.194 174.105 219.413 176.443 219.818C176.681 219.866 176.944 219.89 177.182 219.89H197.699C200.061 219.89 201.993 217.957 201.993 215.596C201.993 213.234 200.061 211.302 197.699 211.302C197.46 211.302 197.198 211.325 196.959 211.373C196.745 209.154 194.884 207.484 192.689 207.484C192.546 207.484 192.427 207.484 192.283 207.508C191.902 207.532 191.544 207.628 191.186 207.747C190.447 206.22 188.92 205.337 187.345 205.337Z" fill="#333333"/>
<path d="M176.968 248.04L170.002 216.24H204.856L197.89 248.04H176.968Z" fill="white"/>
<path d="M204.259 216.717L197.508 247.563H177.325L170.574 216.717H204.259V216.717ZM205.452 215.763H169.429L176.586 248.518H198.295L205.452 215.763Z" fill="#333333"/>
<path d="M183.886 248.04L180.212 216.24H194.645L190.971 248.04H183.886Z" fill="white"/>
<path d="M194.12 216.717L190.542 247.563H184.339L180.761 216.717H194.12V216.717ZM195.194 215.763H179.687L183.48 248.518H191.401L195.194 215.763Z" fill="#333333"/>
</svg>
