<svg width="375" height="318" viewBox="0 0 375 318" fill="none" xmlns="http://www.w3.org/2000/svg">
<path d="M118 306C80 303 52.7481 300.049 22.5 287C-7.74815 273.951 -18.3617 235.742 -22.5628 210.266C-26.764 184.79 -29.9148 159.469 -32.0154 134.304C-34.1159 109.138 -32.8556 79.6234 -28.2343 45.759C-23.6131 11.8945 2.22385 -3.17361 49.2765 0.55459C96.3292 4.28279 136.45 5.8362 169.639 5.21484C202.828 4.59347 241.898 3.50609 286.851 1.95267C331.803 0.399261 365.412 13.6033 387.678 41.5648C409.944 69.5262 429.689 99.8178 446.914 132.44C464.138 165.061 453.845 193.023 416.035 216.324C378.225 239.625 397.186 258.335 374.5 283.5C351.814 308.665 285 320.5 230.135 316.985C189.384 310.461 118 306 118 306Z" fill="#F8F0FB"/>
<path d="M162.878 176.08C162.618 176.08 162.357 176.056 162.121 176.032H162.097L162.073 176.009C162.073 176.009 161.008 174.849 161.292 172.625C161.6 170.4 163.067 168.294 163.091 168.271L163.114 168.223L163.162 168.247C164.984 169.478 169.717 171.631 169.764 171.655L169.811 171.678L169.788 171.726C169.764 171.773 166.924 176.08 162.878 176.08Z" fill="#333333"/>
<path d="M145.461 232.021C144.964 228.472 144.633 224.851 144.515 221.254V221.23L144.538 221.207C144.562 221.183 147.78 219.148 151.093 218.911C151.377 218.888 151.661 218.888 151.898 218.888C154.122 218.888 154.832 220 154.856 220.024C154.879 220.118 156.181 226.839 145.509 232.045L145.461 232.068V232.021Z" fill="#333333"/>
<path d="M55.3258 230.601C55.2548 230.507 47.4458 220.236 49.3389 213.824V213.8H49.3625C49.3862 213.776 50.2381 213.256 51.7999 213.256C52.4862 213.256 53.1961 213.35 53.9296 213.563C58.1891 214.746 61.573 217.846 61.5967 217.87L61.6204 217.894L61.5967 217.917C58.2838 225.49 55.3968 230.554 55.3731 230.601L55.3495 230.672L55.3258 230.601Z" fill="#333333"/>
<path d="M34.549 253.815V253.768C34.549 253.744 34.6673 252.538 35.7085 250.763C36.6551 249.13 38.5955 246.645 42.429 244.161C49.5992 239.546 52.2968 235.594 55.3258 230.554C55.3495 230.507 58.2364 225.443 61.5494 217.894L61.573 217.846L85.7101 238.718L79.5575 253.815H34.549Z" fill="#DBB3E8"/>
<path d="M116.544 253.815C116.52 253.744 114.746 248.609 113.799 238.41L113.917 234.624L144.609 216.876V221.254C144.728 224.827 145.059 228.448 145.556 231.997C145.556 232.045 146.053 237.298 148.419 240.824C149.744 242.812 151.33 244.279 152.702 245.58C155.14 247.852 157.269 249.816 157.269 253.768V253.815H116.544Z" fill="#DBB3E8"/>
<path d="M85.6156 238.765C85.5683 238.765 81.5691 237.984 75.8898 233.725C73.2394 231.737 70.3051 228.069 67.7258 224.827C67.0632 223.999 66.4479 223.218 65.8327 222.461C64.5312 220.875 63.0877 219.361 61.5732 217.965C61.5732 217.965 55.113 211.646 49.3153 213.8C50.2146 210.723 86.9644 169.619 88.5263 167.868L121.324 149.671L140.09 167.868V167.892C148.727 198.276 153.673 215.811 154.809 220.023C154.832 220.094 152.158 217.255 144.444 221.301C142.219 222.555 140.066 223.999 138.055 225.561L137.629 225.892C133.393 229.229 129.725 232.116 123.478 235.121C120.401 236.588 117.136 237.677 113.799 238.386H113.752V238.339C112.995 230.199 112.947 221.136 113.634 211.386C115.195 188.858 113.184 173.429 112.947 171.631L85.6629 238.789L85.6156 238.765Z" fill="#DBB3E8"/>
<path d="M79.2262 236.304C79.1552 236.304 79.0842 236.28 79.0132 236.257C78.7766 236.139 78.6819 235.855 78.7766 235.618L115.432 157.93C115.55 157.693 115.834 157.598 116.071 157.693C116.307 157.811 116.402 158.095 116.307 158.332L79.6521 236.044C79.5811 236.209 79.3918 236.304 79.2262 236.304Z" fill="#333333"/>
<path d="M68.5776 226.129C68.5066 226.129 68.4119 226.105 68.3409 226.058C68.1043 225.94 68.0333 225.632 68.1516 225.419L104.452 160.059C104.57 159.823 104.878 159.752 105.091 159.87C105.327 159.988 105.398 160.296 105.28 160.509L68.9799 225.892C68.9089 226.034 68.7432 226.129 68.5776 226.129Z" fill="#333333"/>
<path d="M57.5267 215.48C57.432 215.48 57.3374 215.456 57.2427 215.385C57.0298 215.22 56.9824 214.936 57.1481 214.723L98.2521 160.485C98.4177 160.272 98.7017 160.225 98.9147 160.391C99.1276 160.556 99.175 160.84 99.0093 161.053L57.9053 215.291C57.8107 215.409 57.6687 215.48 57.5267 215.48Z" fill="#333333"/>
<path d="M147.638 220.52C147.425 220.52 147.236 220.378 147.165 220.142L134.742 163.254C134.694 162.994 134.836 162.757 135.097 162.686C135.357 162.639 135.593 162.781 135.664 163.041L148.088 219.929C148.135 220.189 147.993 220.426 147.733 220.497C147.709 220.52 147.662 220.52 147.638 220.52Z" fill="#333333"/>
<path d="M135.452 227.951C135.215 227.951 135.002 227.762 134.978 227.525L128.045 158.19C128.021 157.93 128.21 157.693 128.471 157.669C128.731 157.646 128.968 157.835 128.991 158.095L135.925 227.43C135.948 227.691 135.759 227.927 135.499 227.951C135.475 227.951 135.475 227.951 135.452 227.951Z" fill="#333333"/>
<path d="M123.501 235.594C123.241 235.594 123.028 235.381 123.028 235.145L120.449 153.434C120.449 153.173 120.638 152.96 120.898 152.937C121.158 152.913 121.371 153.126 121.395 153.386L123.974 235.097C123.974 235.358 123.785 235.594 123.501 235.594Z" fill="#333333"/>
<path d="M185.524 176.34C181.856 176.34 175.869 173.926 169.93 171.3C169.882 171.276 165.173 169.146 163.375 167.939L163.351 167.916L152.182 161.763L160.322 145.956L174.686 152.179C177.195 153.528 183.844 157.149 184.743 157.882C185.359 158.403 185.643 158.9 185.595 159.326C185.501 160.012 184.625 160.509 184.459 160.604L183.584 161.077L184.483 161.479C184.933 161.669 186.613 162.402 190.068 163.94C191.298 164.485 191.984 165.123 192.103 165.833C192.245 166.638 191.582 167.348 191.464 167.49L191.156 167.797L191.44 168.129C191.913 168.697 192.126 169.265 192.055 169.809C191.937 170.708 191.085 171.371 190.991 171.442L190.778 171.584V171.844C190.801 172.696 190.612 173.335 190.186 173.761C189.665 174.305 188.955 174.329 188.813 174.329H188.435L188.364 174.707C188.293 175.11 188.033 176.34 185.524 176.34Z" fill="white"/>
<path d="M160.559 146.571L174.497 152.605C177.952 154.451 183.678 157.622 184.459 158.261C184.933 158.663 185.169 159.018 185.146 159.279C185.098 159.61 184.649 159.988 184.246 160.201L182.495 161.124L184.317 161.905C184.767 162.095 186.447 162.828 189.902 164.366C190.943 164.84 191.582 165.384 191.653 165.904C191.748 166.496 191.156 167.111 191.132 167.135L190.541 167.75L191.085 168.413C191.487 168.886 191.653 169.312 191.582 169.714C191.487 170.448 190.73 170.992 190.706 171.016L190.304 171.3L190.328 171.797C190.352 172.507 190.186 173.051 189.878 173.382C189.476 173.784 188.908 173.808 188.837 173.808H188.08L187.938 174.565C187.867 174.92 187.678 175.82 185.548 175.82C181.975 175.82 176.035 173.43 170.166 170.827C170.119 170.803 165.434 168.673 163.682 167.49L163.635 167.466L163.588 167.443L152.844 161.527L160.559 146.571ZM160.109 145.364L151.543 161.976L163.115 168.342C164.96 169.596 169.693 171.726 169.74 171.749C175.727 174.376 181.762 176.813 185.524 176.813C187.465 176.813 188.577 176.127 188.837 174.778C189.05 174.778 189.902 174.731 190.541 174.068C191.038 173.548 191.274 172.791 191.251 171.797C191.416 171.678 192.363 170.945 192.505 169.856C192.6 169.17 192.363 168.484 191.795 167.798C191.961 167.632 192.742 166.756 192.576 165.739C192.434 164.863 191.653 164.106 190.281 163.491C186.778 161.929 185.075 161.195 184.696 161.03C185.004 160.864 185.974 160.296 186.092 159.397C186.163 158.782 185.832 158.143 185.075 157.527C183.962 156.605 175.301 151.943 174.923 151.753L160.109 145.364Z" fill="#333333"/>
<path d="M162.121 176.032C158.287 175.512 129.228 156.036 118.201 141.625C112.119 133.674 112.498 124.138 113.894 117.559V117.535L126.743 116.684L126.767 116.707C133.913 123.12 144.396 132.112 153.791 138.502C161.221 143.542 168.131 147.896 174.923 151.801L174.946 151.824V151.848C174.852 152.937 173.148 158.072 168.841 162.047C165.22 165.36 163.469 167.963 163.233 168.318C160.133 173.524 162.121 176.032 162.121 176.032Z" fill="#B666D2"/>
<path d="M183.536 161.645C183.465 161.645 183.418 161.621 183.347 161.598L177.384 159.018C177.147 158.924 177.029 158.64 177.147 158.403C177.242 158.166 177.526 158.048 177.762 158.166L183.726 160.746C183.962 160.84 184.081 161.124 183.962 161.361C183.891 161.527 183.726 161.645 183.536 161.645Z" fill="#333333"/>
<path d="M191.203 168.46C191.156 168.46 191.085 168.46 191.038 168.436C190.967 168.413 184.459 165.999 179.513 163.609C179.277 163.491 179.182 163.207 179.3 162.97C179.419 162.733 179.703 162.639 179.939 162.757C184.838 165.123 191.298 167.513 191.369 167.537C191.606 167.632 191.748 167.892 191.653 168.152C191.582 168.342 191.393 168.46 191.203 168.46Z" fill="#333333"/>
<path d="M190.706 172.175C190.635 172.175 190.588 172.152 190.517 172.128C190.446 172.104 182.566 168.791 178.094 166.709C177.857 166.591 177.762 166.307 177.857 166.07C177.975 165.833 178.259 165.739 178.496 165.833C182.945 167.916 190.801 171.205 190.872 171.252C191.109 171.347 191.227 171.631 191.132 171.868C191.061 172.057 190.896 172.175 190.706 172.175Z" fill="#333333"/>
<path d="M188.364 174.66C188.316 174.66 188.269 174.66 188.222 174.636C188.151 174.613 180.365 172.057 176.153 169.975C175.917 169.856 175.822 169.572 175.94 169.336C176.059 169.099 176.343 169.004 176.579 169.123C180.72 171.158 188.435 173.713 188.506 173.737C188.742 173.808 188.884 174.092 188.813 174.329C188.742 174.542 188.553 174.66 188.364 174.66Z" fill="#333333"/>
<path d="M175.633 171.442C175.562 171.442 175.491 171.418 175.42 171.394C175.183 171.276 175.088 170.992 175.23 170.755L179.845 161.905C179.963 161.669 180.247 161.574 180.484 161.716C180.72 161.834 180.815 162.118 180.673 162.355L176.059 171.181C175.964 171.347 175.798 171.442 175.633 171.442Z" fill="#333333"/>
<path d="M122.531 156.746L88.5024 168.01L110.084 118.79L125.584 116.778V116.826C125.584 116.826 132.067 139.59 138.954 163.846L140.137 168.034L122.531 156.746Z" fill="#B666D2"/>
<path d="M121.348 148.322L127.098 142.903L122.91 124.919H119.762L115.598 142.903L121.348 148.322Z" fill="#333333"/>
<path d="M118.65 121.795L119.762 124.919H122.91L124.022 121.795H118.65Z" fill="#333333"/>
<path d="M122.531 156.747L88.5024 168.011L107.528 124.658L121.348 138.218L128.447 126.741L128.471 126.836C131.003 135.733 134.931 149.529 139.001 163.846L140.184 168.034L122.531 156.747Z" fill="#B666D2"/>
<path d="M88.5734 168.436C88.3841 168.436 88.1948 168.318 88.1238 168.105C88.0528 167.868 88.1711 167.584 88.4314 167.513L122.389 156.273C122.531 156.226 122.673 156.249 122.791 156.32L140.35 167.561C140.563 167.703 140.634 167.987 140.492 168.223C140.35 168.436 140.066 168.507 139.829 168.365L122.46 157.243L88.7154 168.413C88.6681 168.436 88.6207 168.436 88.5734 168.436Z" fill="#333333"/>
<path d="M137.913 160.698C137.7 160.698 137.51 160.556 137.463 160.343L131.902 140.821C131.831 140.56 131.973 140.3 132.233 140.229C132.494 140.158 132.754 140.3 132.825 140.56L138.386 160.083C138.457 160.343 138.315 160.604 138.055 160.675C138.007 160.698 137.96 160.698 137.913 160.698Z" fill="#333333"/>
<path d="M118.627 190.586C115.243 190.586 109.611 188.456 101.399 184.102C101.352 184.078 96.5011 181.57 94.0637 180.103L86.1837 175.843L94.2057 156.983L108.948 164.461C110.723 165.691 112.356 166.756 113.799 167.703L113.823 167.727C116.994 169.809 119.502 171.442 119.715 172.294C119.857 172.838 119.881 173.784 118.627 174.234L117.562 174.613L124.424 178.02C125.584 178.588 126.909 179.535 126.625 180.789C126.483 181.404 126.01 181.901 125.892 181.996L125.56 182.28L125.821 182.635C126.317 183.345 126.507 183.984 126.341 184.528C126.104 185.38 125.111 185.877 125.016 185.924L124.685 186.066L124.732 186.421C124.85 187.084 124.732 187.628 124.401 188.006C123.738 188.811 122.366 188.858 122.2 188.882H121.916L121.798 189.142C121.277 190.112 120.236 190.586 118.627 190.586Z" fill="white"/>
<path d="M94.4421 157.646L108.711 164.887C110.462 166.094 112.119 167.182 113.562 168.129L113.586 168.152C115.266 169.265 116.733 170.211 117.751 170.992C119.076 171.986 119.242 172.365 119.265 172.436C119.526 173.453 118.721 173.737 118.461 173.808L116.355 174.565L118.366 175.559L124.235 178.47C125.252 178.967 126.388 179.771 126.175 180.718C126.081 181.168 125.726 181.57 125.607 181.664L124.921 182.232L125.442 182.942C125.868 183.51 126.01 184.031 125.891 184.433C125.749 184.954 125.134 185.38 124.803 185.522L124.164 185.829L124.282 186.539C124.377 187.06 124.282 187.462 124.046 187.746C123.62 188.267 122.649 188.432 122.2 188.456L121.632 188.48L121.372 188.977C120.756 190.183 119.171 190.183 118.65 190.183C115.337 190.183 109.776 188.077 101.636 183.747C101.589 183.723 96.7612 181.215 94.3238 179.771H94.3001H94.2765L86.7987 175.725L94.4421 157.646ZM93.9688 156.321L85.5682 176.056L93.8032 180.505C96.2642 181.972 101.115 184.48 101.163 184.504C109.445 188.906 115.148 191.059 118.627 191.059C120.401 191.059 121.608 190.467 122.2 189.332C122.436 189.332 123.951 189.237 124.755 188.29C125.181 187.793 125.323 187.131 125.205 186.326C125.418 186.232 126.507 185.664 126.791 184.622C126.98 183.913 126.791 183.155 126.175 182.327C126.365 182.161 126.909 181.593 127.074 180.86C127.264 180.008 127.003 178.73 124.637 177.571L118.768 174.66C119.194 174.518 120.614 173.879 120.165 172.152C119.904 171.134 117.585 169.62 114.083 167.324C112.616 166.354 110.959 165.289 109.185 164.059L93.9688 156.321Z" fill="#333333"/>
<path d="M93.5664 188.906C93.0695 188.906 92.5962 188.835 92.1466 188.716H92.1229V188.693C92.0519 188.598 90.6558 186.374 93.8267 180.434L93.8504 180.387L101.304 184.433L101.281 184.481C101.21 184.552 97.6603 188.906 93.5664 188.906Z" fill="#333333"/>
<path d="M92.123 188.716C86.1361 184.883 80.6698 179.606 76.6942 173.832C72.5531 167.797 70.376 161.645 70.589 156.486C70.7546 152.274 72.4111 145.695 79.2973 138.265C86.2071 130.811 96.9031 124.019 111.101 118.08H111.125L113.586 119.784L95.0337 154.404C99.6245 157.882 105.185 161.669 109.185 164.059L109.232 164.082L109.208 164.13C109.185 164.153 107.339 167.23 103.269 170.566C102.701 171.039 102.156 171.465 101.66 171.868C98.6306 174.281 96.4299 176.032 93.9215 180.481C90.7505 186.255 92.123 188.716 92.123 188.716Z" fill="#B666D2"/>
<path d="M116.946 174.826C116.875 174.826 116.804 174.802 116.733 174.778L112.45 172.625C112.214 172.507 112.119 172.223 112.237 171.986C112.356 171.749 112.64 171.655 112.876 171.773L117.159 173.927C117.396 174.045 117.491 174.329 117.372 174.565C117.278 174.731 117.112 174.826 116.946 174.826Z" fill="#333333"/>
<path d="M125.371 182.8C125.323 182.8 125.276 182.8 125.229 182.777C120.969 181.499 115.858 179.132 113.208 177.831C112.971 177.712 112.876 177.429 112.995 177.192C113.113 176.955 113.397 176.861 113.634 176.979C116.26 178.257 121.301 180.623 125.513 181.877C125.773 181.948 125.915 182.209 125.82 182.469C125.773 182.658 125.584 182.8 125.371 182.8Z" fill="#333333"/>
<path d="M124.637 186.539C124.59 186.539 124.542 186.539 124.495 186.516C124.424 186.492 117.207 184.315 111.433 181.641C111.196 181.523 111.101 181.239 111.196 181.002C111.314 180.765 111.598 180.671 111.835 180.765C117.538 183.416 124.684 185.569 124.755 185.593C125.016 185.664 125.158 185.924 125.063 186.184C125.039 186.397 124.85 186.539 124.637 186.539Z" fill="#333333"/>
<path d="M121.679 189.284C121.656 189.284 121.632 189.284 121.585 189.284C121.395 189.26 116.852 188.385 109.966 185.025C109.729 184.906 109.634 184.622 109.753 184.386C109.871 184.149 110.155 184.054 110.392 184.173C117.159 187.462 121.727 188.338 121.774 188.338C122.034 188.385 122.2 188.622 122.153 188.882C122.105 189.118 121.892 189.284 121.679 189.284Z" fill="#333333"/>
<path d="M94.9627 154.877C94.8917 154.877 94.8207 154.853 94.7497 154.83C94.5131 154.711 94.4421 154.427 94.5604 154.191L101.92 140.489C102.038 140.253 102.322 140.182 102.559 140.3C102.795 140.418 102.866 140.702 102.748 140.939L95.3887 154.617C95.294 154.782 95.1283 154.877 94.9627 154.877Z" fill="#333333"/>
<path d="M109.398 165.289C109.303 165.289 109.208 165.266 109.114 165.195L89.9934 151.588C89.7804 151.446 89.7331 151.138 89.875 150.925C90.017 150.712 90.3247 150.665 90.5376 150.807L109.658 164.414C109.871 164.556 109.918 164.863 109.776 165.076C109.682 165.218 109.54 165.289 109.398 165.289Z" fill="#333333"/>
<path d="M122.555 157.172C122.318 157.172 122.105 156.983 122.081 156.723L120.875 138.218C120.851 137.957 121.064 137.721 121.324 137.721C121.585 137.697 121.821 137.91 121.821 138.17L123.028 156.676C123.052 156.936 122.839 157.172 122.578 157.172H122.555Z" fill="#333333"/>
<path d="M121.443 138.951L103.695 121.677C103.505 121.487 103.505 121.203 103.695 121.014C103.884 120.825 104.168 120.825 104.357 121.014L121.253 137.484L131.476 121.109C131.618 120.896 131.902 120.825 132.139 120.967C132.375 121.109 132.423 121.393 132.281 121.629L121.443 138.951Z" fill="#333333"/>
<path d="M115.858 145.222C116.916 145.222 117.775 144.364 117.775 143.305C117.775 142.247 116.916 141.389 115.858 141.389C114.799 141.389 113.941 142.247 113.941 143.305C113.941 144.364 114.799 145.222 115.858 145.222Z" fill="#333333"/>
<path d="M115.858 152.866C116.916 152.866 117.775 152.008 117.775 150.949C117.775 149.89 116.916 149.032 115.858 149.032C114.799 149.032 113.941 149.89 113.941 150.949C113.941 152.008 114.799 152.866 115.858 152.866Z" fill="#333333"/>
<path d="M121.206 121.961C118.367 121.961 115.953 119.926 114.391 116.258C109.682 105.089 111.551 100.853 116.071 97.6344C116.095 97.6108 120.094 94.9131 124.756 94.9131C126.602 94.9131 128.305 95.339 129.843 96.1673C133.464 98.1314 134.032 105.207 131.192 112.637C129.063 118.222 125.04 121.961 121.206 121.961Z" fill="white"/>
<path d="M124.756 95.4099C126.53 95.4099 128.163 95.8122 129.63 96.6168C131.192 97.4687 132.186 99.4564 132.47 102.249C132.754 105.254 132.162 108.875 130.766 112.495C128.707 117.891 124.85 121.511 121.206 121.511C118.579 121.511 116.308 119.594 114.84 116.092C110.273 105.23 112.024 101.137 116.355 98.0603C116.521 97.9183 120.33 95.4099 124.756 95.4099ZM124.756 94.4634C119.905 94.4634 115.811 97.2557 115.811 97.2557C110.747 100.853 109.421 105.68 113.965 116.447C115.716 120.588 118.39 122.434 121.206 122.434C125.134 122.434 129.346 118.837 131.642 112.826C134.623 105.041 133.866 97.8236 130.08 95.7649C128.305 94.8183 126.483 94.4634 124.756 94.4634Z" fill="#333333"/>
<path d="M115.811 97.2558C111.409 100.379 109.847 104.426 112.474 112.495C120.307 109.372 120.023 98.5573 120.023 98.5573C126.554 103.621 133.487 103.314 133.487 103.314C133.393 99.7168 132.21 96.9481 130.103 95.7886C123.336 92.1207 115.811 97.2558 115.811 97.2558Z" fill="#333333"/>
<path d="M126.72 111.88C126.53 111.88 126.365 111.785 126.294 111.596C126.199 111.359 126.294 111.075 126.53 110.981C126.814 110.862 127.075 110.626 127.24 110.342C127.5 109.892 127.548 108.756 127.358 106.532C127.335 106.272 127.524 106.035 127.784 106.011C128.045 105.988 128.281 106.177 128.305 106.437C128.518 108.993 128.447 110.129 128.045 110.815C127.784 111.265 127.358 111.643 126.909 111.833C126.838 111.856 126.791 111.88 126.72 111.88Z" fill="#333333"/>
<path d="M123.951 108.259C123.951 108.259 123.927 108.259 123.951 108.259C123.667 108.259 123.478 108.023 123.478 107.762L123.501 107.171C123.501 106.911 123.738 106.698 123.998 106.721C124.259 106.721 124.472 106.958 124.448 107.218L124.424 107.81C124.424 108.07 124.211 108.259 123.951 108.259Z" fill="#333333"/>
<path d="M130.458 107.076C130.458 107.076 130.435 107.076 130.458 107.076C130.174 107.076 129.985 106.839 129.985 106.579L130.009 106.011C130.009 105.751 130.245 105.538 130.506 105.562C130.766 105.562 130.979 105.798 130.955 106.059L130.932 106.626C130.932 106.887 130.719 107.076 130.458 107.076Z" fill="#333333"/>
<path d="M124.779 114.791C123.454 114.791 122.389 113.726 122.389 112.424C122.389 112.164 122.602 111.951 122.862 111.951C123.123 111.951 123.336 112.164 123.336 112.424C123.336 113.205 123.975 113.844 124.779 113.844C124.827 113.844 124.874 113.844 124.921 113.844C124.992 113.844 125.063 113.82 125.134 113.82C125.394 113.82 125.607 114.033 125.607 114.294C125.607 114.554 125.394 114.767 125.134 114.767C125.087 114.767 125.04 114.767 124.992 114.767C124.921 114.791 124.85 114.791 124.779 114.791Z" fill="#333333"/>
<path d="M147.496 240.067C147.331 240.067 147.165 239.972 147.07 239.83C146.976 239.641 147 239.404 147.165 239.239L167.895 221.136C168.273 220.781 168.699 220.52 169.054 220.331C170.569 219.503 172.296 219.337 173.953 219.834C175.609 220.331 176.958 221.42 177.762 222.934L177.999 223.384C178.236 223.833 178.401 224.259 178.543 224.709C179.017 226.365 178.804 228.093 177.975 229.584C177.147 231.075 175.775 232.163 174.118 232.613L147.615 240.043C147.591 240.067 147.544 240.067 147.496 240.067ZM172.13 220.497C171.231 220.497 170.356 220.71 169.551 221.159C169.243 221.325 168.865 221.562 168.557 221.846L149.39 238.576L173.882 231.713C175.301 231.311 176.461 230.388 177.171 229.11C177.881 227.833 178.07 226.365 177.668 224.946C177.573 224.567 177.407 224.188 177.218 223.81L176.982 223.36C176.295 222.082 175.136 221.136 173.716 220.71C173.195 220.568 172.651 220.497 172.13 220.497Z" fill="#333333"/>
<path d="M169.551 248.893C169.362 248.893 169.172 248.775 169.101 248.562C167.445 243.734 163.351 240.824 156.938 239.948C152.276 239.309 148.017 240.043 147.638 240.114L141.58 242.031C141.32 242.102 141.06 241.96 140.989 241.723C140.918 241.486 141.06 241.202 141.296 241.131L147.378 239.215C147.402 239.215 147.425 239.215 147.425 239.191C147.615 239.167 152.016 238.339 157.033 239.025C163.753 239.925 168.226 243.119 170.001 248.254C170.095 248.491 169.953 248.775 169.717 248.846C169.646 248.893 169.598 248.893 169.551 248.893Z" fill="#333333"/>
<path d="M49.8122 238.032C49.7412 238.032 49.6465 238.008 49.5756 237.961L27.8758 225.679C26.1011 224.685 24.8232 223.052 24.2789 221.088C23.7347 219.124 23.995 217.065 24.9889 215.314C25.3202 214.723 25.7698 214.131 26.3614 213.563L26.8346 213.114C28.3018 211.717 30.2186 210.96 32.2536 211.007C34.2887 211.055 36.1818 211.883 37.578 213.35C38.0749 213.871 38.5009 214.462 38.8558 215.125L50.2145 237.322C50.3091 237.511 50.2618 237.724 50.1198 237.89C50.0488 237.984 49.9305 238.032 49.8122 238.032ZM32.088 211.954C30.4315 211.954 28.7751 212.569 27.4736 213.8L27.0003 214.249C26.5033 214.723 26.1011 215.243 25.8171 215.764C24.9415 217.326 24.7049 219.124 25.2018 220.828C25.6751 222.532 26.7873 223.975 28.3491 224.851L48.6763 236.351L38.0276 215.551C37.72 214.959 37.3414 214.439 36.8918 213.989C35.5902 212.64 33.8628 211.954 32.088 211.954Z" fill="#333333"/>
<path d="M48.6764 248.018C48.5344 248.018 48.4161 247.97 48.3215 247.852L43.9437 242.859C43.778 242.67 43.8017 242.362 43.991 242.196C44.1803 242.031 44.4879 242.054 44.6536 242.244L49.0314 247.237C49.197 247.426 49.1734 247.734 48.984 247.899C48.8894 247.97 48.7947 248.018 48.6764 248.018Z" fill="#333333"/>
<path d="M146.219 248.515C146.1 248.515 145.958 248.467 145.864 248.349C145.698 248.16 145.698 247.852 145.887 247.687L150.549 243.451C150.738 243.285 151.046 243.285 151.212 243.474C151.377 243.664 151.377 243.971 151.188 244.137L146.526 248.373C146.455 248.467 146.337 248.515 146.219 248.515Z" fill="#333333"/>
<path d="M55.1128 242.291C55.0181 242.291 54.8998 242.267 54.8288 242.196L49.7411 238.221C45.7183 239.451 42.0977 238.812 38.8794 238.221C34.7856 237.487 31.236 236.848 27.6865 240.019C27.4971 240.185 27.1895 240.185 27.0239 239.972C26.8582 239.783 26.8582 239.475 27.0712 239.309C30.9757 235.831 34.9039 236.541 39.0687 237.274C42.3817 237.866 45.7893 238.481 49.7175 237.227C49.8594 237.18 50.0251 237.203 50.1671 237.298L55.4441 241.439C55.6571 241.605 55.6807 241.889 55.5151 242.102C55.3968 242.22 55.2548 242.291 55.1128 242.291Z" fill="#333333"/>
<path d="M66.2822 254.241C66.2348 254.241 66.1638 254.241 66.1165 254.218C65.8799 254.123 65.7379 253.863 65.8325 253.603C68.0096 247.474 75.2744 241.984 83.6277 243.356C83.888 243.403 84.0537 243.64 84.0063 243.9C83.959 244.161 83.7224 244.326 83.4621 244.279C75.6057 242.978 68.7668 248.16 66.7081 253.91C66.6608 254.123 66.4715 254.241 66.2822 254.241Z" fill="#333333"/>
<path d="M130.908 254.241C130.695 254.241 130.506 254.099 130.435 253.863C129.465 249.508 126.672 247.047 124.472 245.722C121.348 243.829 117.443 243.143 114.509 243.947C114.249 244.018 113.989 243.876 113.918 243.616C113.847 243.356 113.989 243.096 114.249 243.025C117.396 242.149 121.608 242.906 124.945 244.918C127.288 246.314 130.293 248.988 131.334 253.65C131.381 253.91 131.239 254.147 130.979 254.218C130.979 254.241 130.932 254.241 130.908 254.241Z" fill="#333333"/>
<path d="M319.627 230.601C319.603 230.554 316.716 225.49 313.403 217.917V217.894L313.427 217.87C313.474 217.823 317.213 213.35 320.999 212.593C321.543 212.475 322.04 212.427 322.514 212.427C324.904 212.427 325.685 213.8 325.685 213.8C327.578 220.213 319.792 230.483 319.698 230.578L319.65 230.625L319.627 230.601Z" fill="#333333"/>
<path d="M229.515 232.045C218.843 226.839 220.144 220.095 220.168 220.047C220.192 220 220.759 218.959 222.96 218.959C223.22 218.959 223.481 218.959 223.765 218.982C227.078 219.219 230.462 221.183 230.485 221.207L230.509 221.23V221.254C230.391 224.851 230.059 228.472 229.562 232.021V232.092L229.515 232.045Z" fill="#333333"/>
<path d="M217.754 253.816V253.768C217.754 249.816 219.86 247.852 222.321 245.581C223.717 244.303 225.279 242.836 226.628 240.824C228.994 237.298 229.491 232.045 229.491 231.998C229.988 228.448 230.32 224.827 230.438 221.231V216.853L261.13 234.601L261.248 238.387C261.082 240.162 260.893 241.889 260.656 243.546V243.593H260.609C260.041 243.546 259.497 243.546 258.953 243.546C250.812 243.546 243.027 247.379 238.081 253.816L238.058 253.839H217.754V253.816V253.816Z" fill="#FF5573"/>
<path d="M245.157 253.816L243.95 248.089L243.974 248.065C248.375 245.036 253.534 243.427 258.905 243.427H258.953C259.497 243.427 260.041 243.451 260.609 243.475H260.657V243.522C259.71 250.313 258.527 253.721 258.503 253.768V253.792L245.157 253.816Z" fill="#333333"/>
<path d="M317.142 253.815C312.173 247.379 304.364 243.545 296.223 243.545C294.638 243.545 293.052 243.687 291.49 243.971H291.443L287.917 235.358L294.874 215.93L313.45 217.846V217.87C316.763 225.443 319.627 230.483 319.674 230.53C322.703 235.594 325.401 239.522 332.571 244.137C336.404 246.622 338.345 249.083 339.291 250.739C340.333 252.514 340.451 253.744 340.451 253.744V253.792H317.142V253.815Z" fill="#FF5573"/>
<path d="M295.49 253.815L291.42 243.877H291.467C293.029 243.593 294.638 243.451 296.223 243.451H296.271C300.861 243.451 305.405 244.658 309.38 246.953L309.404 246.977L308.812 253.839L295.49 253.815Z" fill="#333333"/>
<path d="M189.854 176.222C187.441 176.222 186.873 175.323 186.66 174.636L186.565 174.305H186.234C186.045 174.305 185.358 174.258 184.861 173.737C184.459 173.311 184.246 172.672 184.27 171.82V171.56L184.057 171.418C183.962 171.347 183.11 170.708 182.992 169.785C182.921 169.241 183.134 168.673 183.607 168.105L183.891 167.774L183.584 167.466C183.513 167.395 182.803 166.638 182.945 165.81C183.063 165.1 183.749 164.461 184.98 163.917C188.411 162.379 190.115 161.645 190.564 161.456L191.464 161.053L190.588 160.58C190.422 160.485 189.547 159.988 189.452 159.302C189.405 158.853 189.665 158.379 190.304 157.859C191.132 157.149 197.025 153.931 200.361 152.132C207.176 148.204 214.11 143.85 221.54 138.809C230.84 132.491 241.205 123.617 248.351 117.204L256.705 123.097C257.983 129.415 257.533 139.472 257.462 140.892C247.807 149.695 233.136 159.113 224.475 163.183C207.792 171.039 195.534 176.222 189.854 176.222Z" fill="white"/>
<path d="M248.375 117.867L256.279 123.428C257.462 129.439 257.083 138.762 256.989 140.726C247.381 149.458 232.852 158.782 224.262 162.805C207.673 170.566 195.463 175.749 189.854 175.749C187.512 175.749 187.228 174.826 187.109 174.494L186.896 173.856L186.21 173.832C186.092 173.832 185.548 173.808 185.169 173.406C184.861 173.075 184.696 172.554 184.719 171.82L184.743 171.324L184.341 171.04C184.317 171.016 183.56 170.472 183.465 169.738C183.418 169.312 183.584 168.886 183.962 168.437L184.506 167.774L183.915 167.159C183.891 167.135 183.3 166.52 183.394 165.928C183.489 165.408 184.104 164.863 185.145 164.39C188.577 162.852 190.28 162.118 190.73 161.929L192.552 161.148L190.801 160.225C190.399 160.012 189.949 159.634 189.902 159.302C189.878 159.042 190.115 158.663 190.588 158.285C191.298 157.693 196.267 154.925 200.574 152.629H200.598H200.621C207.437 148.725 214.37 144.347 221.824 139.283C230.982 133.012 241.229 124.256 248.375 117.867ZM248.304 116.66L248.28 116.684C241.134 123.097 230.651 132.089 221.256 138.478C213.826 143.519 206.916 147.873 200.125 151.777C199.746 151.967 191.085 156.628 189.973 157.551C189.216 158.19 188.884 158.805 188.979 159.421C189.097 160.32 190.067 160.888 190.375 161.053C189.973 161.219 188.293 161.953 184.79 163.514C183.418 164.13 182.637 164.887 182.495 165.763C182.329 166.78 183.087 167.656 183.276 167.821C182.708 168.484 182.471 169.194 182.566 169.88C182.708 170.969 183.678 171.702 183.82 171.82C183.797 172.814 184.033 173.572 184.53 174.092C185.169 174.731 185.997 174.802 186.234 174.802C186.636 176.08 187.843 176.719 189.878 176.719C195.652 176.719 207.981 171.513 224.688 163.68C233.443 159.586 248.28 150.05 257.935 141.2L257.959 141.176V141.152C257.959 141.034 258.598 129.675 257.178 122.884V122.86L248.304 116.66Z" fill="#333333"/>
<path d="M191.487 161.645C191.298 161.645 191.132 161.527 191.061 161.361C190.967 161.124 191.061 160.84 191.298 160.746L197.261 158.166C197.498 158.072 197.782 158.166 197.876 158.403C197.971 158.64 197.876 158.924 197.64 159.018L191.676 161.598C191.605 161.621 191.558 161.645 191.487 161.645Z" fill="#333333"/>
<path d="M183.82 168.46C183.631 168.46 183.442 168.342 183.371 168.153C183.276 167.916 183.418 167.632 183.655 167.537C183.726 167.514 190.186 165.124 195.084 162.757C195.321 162.639 195.605 162.734 195.723 162.97C195.841 163.207 195.747 163.491 195.51 163.609C190.588 165.999 184.057 168.413 183.986 168.437C183.939 168.46 183.868 168.46 183.82 168.46Z" fill="#333333"/>
<path d="M184.317 172.175C184.128 172.175 183.962 172.057 183.891 171.891C183.796 171.655 183.915 171.371 184.151 171.276C184.222 171.253 192.079 167.94 196.528 165.857C196.764 165.739 197.048 165.857 197.166 166.094C197.285 166.33 197.166 166.614 196.93 166.733C192.457 168.815 184.601 172.128 184.506 172.152C184.435 172.175 184.388 172.175 184.317 172.175Z" fill="#333333"/>
<path d="M186.66 174.66C186.47 174.66 186.281 174.542 186.21 174.329C186.139 174.092 186.257 173.808 186.518 173.737C186.589 173.713 194.327 171.158 198.444 169.123C198.681 169.004 198.965 169.099 199.083 169.336C199.202 169.572 199.107 169.856 198.87 169.975C194.682 172.057 186.896 174.613 186.802 174.636C186.754 174.66 186.707 174.66 186.66 174.66Z" fill="#333333"/>
<path d="M199.391 171.442C199.225 171.442 199.06 171.347 198.965 171.182L194.351 162.331C194.232 162.095 194.327 161.811 194.54 161.692C194.777 161.574 195.061 161.669 195.179 161.882L199.793 170.732C199.912 170.969 199.817 171.253 199.604 171.371C199.533 171.418 199.462 171.442 199.391 171.442Z" fill="#333333"/>
<path d="M246.624 107.455L225.847 125.368C226.273 127.403 227.598 129.155 229.444 130.148C231.787 131.426 232.781 132.065 233.514 133.745L231.124 137.815C231.124 137.815 233.277 144.986 242.364 144.039L250.173 117.086L246.624 107.455Z" fill="#FF5573"/>
<path d="M233.49 134.219C233.396 134.219 233.325 134.195 233.23 134.148C233.017 134.006 232.946 133.722 233.088 133.485L241.678 119.855C241.82 119.642 242.104 119.571 242.341 119.713C242.554 119.855 242.625 120.139 242.483 120.375L233.893 134.006C233.798 134.148 233.656 134.219 233.49 134.219Z" fill="#333333"/>
<path d="M264.94 118.814L249.416 116.802V116.85C249.416 116.85 246.837 125.889 243.216 138.62L255.64 146.69L279.943 141.91C271.447 128.823 265.129 119.121 264.94 118.814Z" fill="white"/>
<path d="M274.571 240.493C263.52 240.493 251.641 235.784 238.223 226.058C235.762 224.307 233.183 222.721 230.509 221.325C222.7 217.634 220.12 220.118 220.144 220.047C221.28 215.835 226.249 198.3 234.887 167.916L236.046 163.846C239.288 152.393 242.459 141.271 244.896 132.728V132.704H244.967C245.654 132.704 251.806 132.941 255.237 141.058C259.095 133.083 266.927 131.9 271.282 131.9C272.63 131.9 273.482 132.018 273.506 132.018H273.53V132.042C288.982 155.847 324.975 211.457 325.685 213.847C323.65 211.836 318.893 212.451 313.427 218.012C313.119 218.344 311.344 220.213 309.167 222.508C301.216 230.862 290.094 240.493 274.571 240.493Z" fill="#F696BB"/>
<path d="M255.119 141.602C254.93 141.602 254.764 141.484 254.693 141.318C251.262 133.13 245.109 133.178 244.849 133.178C244.589 133.178 244.376 132.988 244.376 132.728C244.376 132.468 244.565 132.255 244.825 132.231C245.109 132.231 251.404 132.136 255.167 140.04C258.03 134.858 262.644 132.799 266.123 131.994C270.075 131.072 273.317 131.545 273.459 131.568C273.719 131.616 273.885 131.852 273.861 132.113C273.814 132.373 273.577 132.539 273.317 132.515C273.293 132.515 270.075 132.065 266.312 132.941C261.295 134.101 257.675 136.94 255.569 141.365C255.474 141.507 255.309 141.602 255.119 141.602Z" fill="#333333"/>
<path d="M256.847 190.42C255.048 190.42 253.818 189.971 253.226 189.071L253.084 188.858H252.848C252.28 188.835 251.191 188.645 250.647 187.983C250.316 187.581 250.197 187.06 250.316 186.397L250.363 186.042L250.032 185.9C249.913 185.853 248.943 185.356 248.706 184.504C248.541 183.936 248.73 183.297 249.227 182.611L249.464 182.28L249.156 181.996C249.061 181.901 248.257 181.144 248.375 180.245C248.47 179.44 249.227 178.683 250.599 178.02L257.462 174.613L256.397 174.234C255.853 174.045 254.977 173.524 255.309 172.294C255.522 171.466 258.03 169.809 261.177 167.727C262.644 166.756 264.301 165.692 266.076 164.461C270.288 161.953 278.854 156.273 283.185 153.008L283.539 152.747L262.479 119.24L264.419 117.299C277.931 122.978 288.556 129.912 296.034 137.934C303.654 146.098 305.026 152.227 305.263 153.907C306.044 159.302 305.31 166.567 292.768 174.778C284.581 180.221 265.626 190.42 256.847 190.42Z" fill="white"/>
<path d="M264.537 117.843C277.836 123.475 288.32 130.314 295.703 138.242C303.228 146.311 304.577 152.322 304.813 153.978C305.145 156.297 305.31 159.444 303.63 163.065C301.808 166.946 298.093 170.756 292.532 174.4C288.958 176.79 282.167 180.789 274.808 184.268C266.856 188.007 260.633 189.994 256.87 189.994C255.238 189.994 254.149 189.616 253.652 188.858L253.392 188.456L252.919 188.433C252.469 188.409 251.499 188.267 251.073 187.723C250.836 187.439 250.765 187.036 250.836 186.516L250.954 185.806L250.315 185.498C249.984 185.333 249.393 184.93 249.227 184.41C249.109 184.007 249.274 183.487 249.677 182.919L250.174 182.233L249.558 181.665C249.535 181.641 248.848 181.002 248.919 180.316C249.014 179.535 250.032 178.872 250.883 178.446L256.752 175.536L258.763 174.542L256.657 173.785C256.397 173.69 255.593 173.406 255.853 172.412C255.876 172.341 256.042 171.962 257.367 170.969C258.385 170.188 259.852 169.241 261.532 168.129C262.999 167.182 264.632 166.094 266.407 164.863C270.643 162.331 279.209 156.676 283.539 153.386L284.226 152.866L283.752 152.132L263.118 119.311L264.537 117.843ZM264.301 116.708L261.863 119.145L282.901 152.606C278.594 155.871 270.051 161.527 265.815 164.035C264.041 165.266 262.384 166.354 260.917 167.301C257.415 169.596 255.096 171.111 254.835 172.128C254.386 173.856 255.805 174.495 256.231 174.636L250.363 177.547C248.825 178.304 247.996 179.18 247.878 180.15C247.736 181.262 248.635 182.138 248.801 182.304C248.209 183.132 247.996 183.889 248.209 184.599C248.493 185.64 249.582 186.208 249.795 186.303C249.677 187.107 249.819 187.77 250.244 188.267C251.049 189.213 252.587 189.284 252.8 189.308C253.486 190.326 254.835 190.846 256.823 190.846C265.721 190.846 284.794 180.6 293.029 175.11C305.783 166.756 306.517 159.326 305.712 153.789C305.476 152.061 304.056 145.814 296.365 137.555C288.793 129.439 278.026 122.41 264.324 116.708H264.301Z" fill="#333333"/>
<path d="M258.077 174.826C257.912 174.826 257.746 174.731 257.651 174.565C257.533 174.329 257.628 174.045 257.864 173.927L262.147 171.773C262.384 171.655 262.668 171.749 262.786 171.986C262.905 172.223 262.81 172.507 262.573 172.625L258.29 174.778C258.219 174.802 258.148 174.826 258.077 174.826Z" fill="#333333"/>
<path d="M249.653 182.8C249.44 182.8 249.251 182.658 249.203 182.469C249.132 182.209 249.274 181.949 249.511 181.878C253.723 180.623 258.764 178.281 261.39 176.979C261.627 176.861 261.911 176.956 262.029 177.192C262.147 177.429 262.053 177.713 261.816 177.831C259.166 179.133 254.054 181.499 249.795 182.777C249.748 182.8 249.7 182.8 249.653 182.8Z" fill="#333333"/>
<path d="M250.387 186.539C250.174 186.539 249.984 186.397 249.937 186.208C249.866 185.948 250.008 185.688 250.245 185.617C250.316 185.593 257.462 183.439 263.165 180.789C263.402 180.671 263.686 180.789 263.804 181.026C263.922 181.262 263.804 181.546 263.567 181.665C257.817 184.339 250.576 186.516 250.505 186.539C250.481 186.539 250.434 186.539 250.387 186.539Z" fill="#333333"/>
<path d="M253.344 189.284C253.132 189.284 252.919 189.119 252.871 188.906C252.824 188.645 252.99 188.409 253.25 188.362C253.297 188.362 257.864 187.486 264.632 184.197C264.869 184.078 265.153 184.173 265.271 184.41C265.389 184.646 265.295 184.93 265.058 185.049C258.172 188.409 253.628 189.261 253.439 189.308C253.392 189.284 253.368 189.284 253.344 189.284Z" fill="#333333"/>
<path d="M252.374 177.263C252.209 177.263 252.043 177.168 251.948 177.026L246.245 166.685C246.127 166.449 246.198 166.165 246.435 166.046C246.671 165.928 246.955 165.999 247.073 166.236L252.776 176.577C252.895 176.813 252.824 177.097 252.587 177.216C252.54 177.239 252.445 177.263 252.374 177.263Z" fill="#333333"/>
<path d="M244.944 173.122C244.896 173.122 244.849 173.122 244.802 173.098C244.541 173.027 244.423 172.743 244.494 172.507L246.435 166.354C246.482 166.236 246.553 166.141 246.671 166.07C246.789 166.023 246.908 165.999 247.026 166.047L253.037 168.105C253.273 168.2 253.415 168.46 253.321 168.697C253.226 168.934 252.966 169.076 252.729 168.981L247.168 167.088L245.37 172.767C245.322 173.004 245.133 173.122 244.944 173.122Z" fill="#333333"/>
<path d="M245.983 166.998C250.632 164.784 252.666 159.345 250.525 154.849C248.385 150.353 242.881 148.503 238.231 150.717C233.582 152.931 231.548 158.37 233.689 162.866C235.83 167.361 241.334 169.212 245.983 166.998Z" fill="#FF5573"/>
<path d="M242.104 159.681C242.562 159.681 242.932 159.31 242.932 158.853C242.932 158.395 242.562 158.024 242.104 158.024C241.647 158.024 241.276 158.395 241.276 158.853C241.276 159.31 241.647 159.681 242.104 159.681Z" fill="#333333"/>
<path d="M262.408 105.538L294.212 119.878C292.461 121.961 291.23 124.398 290.615 127.048C289.266 133.13 287.515 134.455 284.652 135.402L281.055 132.065C275.801 134.219 276.275 141.152 267.188 140.442L259.757 112.969L262.408 105.538Z" fill="#FF5573"/>
<path d="M227.527 240.067C227.48 240.067 227.433 240.067 227.409 240.043L200.905 232.613C197.498 231.642 195.486 228.093 196.457 224.685C196.575 224.236 196.764 223.81 197.001 223.36L197.238 222.911C198.918 219.787 202.846 218.627 205.946 220.308C206.324 220.521 206.75 220.781 207.129 221.136L227.859 239.239C228.024 239.381 228.072 239.617 227.953 239.83C227.859 239.972 227.693 240.067 227.527 240.067ZM202.893 220.497C200.953 220.497 199.06 221.538 198.066 223.384L197.829 223.833C197.616 224.212 197.474 224.591 197.38 224.969C196.551 227.88 198.255 230.909 201.166 231.713L225.658 238.576L206.514 221.846C206.183 221.538 205.828 221.325 205.496 221.136C204.668 220.71 203.769 220.497 202.893 220.497Z" fill="#333333"/>
<path d="M205.473 248.893C205.425 248.893 205.378 248.893 205.307 248.87C205.07 248.775 204.928 248.515 205.023 248.278C206.798 243.143 211.27 239.949 217.991 239.049C223.007 238.363 227.409 239.191 227.598 239.215C227.622 239.215 227.646 239.215 227.646 239.239L233.727 241.155C233.987 241.226 234.106 241.51 234.035 241.747C233.964 242.007 233.68 242.126 233.443 242.055L227.385 240.138C227.007 240.067 222.747 239.357 218.085 239.972C211.673 240.848 207.579 243.735 205.922 248.586C205.851 248.775 205.662 248.893 205.473 248.893Z" fill="#333333"/>
<path d="M325.211 238.032C325.093 238.032 324.975 237.985 324.88 237.89C324.738 237.748 324.691 237.511 324.785 237.322L336.144 215.125C336.499 214.439 336.949 213.847 337.422 213.327C340.333 210.298 345.136 210.203 348.165 213.09L348.639 213.54C349.206 214.084 349.68 214.676 350.011 215.291C351.005 217.042 351.265 219.101 350.721 221.065C350.177 223.029 348.899 224.662 347.124 225.656L325.424 237.937C325.377 238.008 325.282 238.032 325.211 238.032ZM342.936 211.954C341.184 211.954 339.433 212.641 338.132 213.989C337.706 214.439 337.327 214.983 336.996 215.575L326.371 236.352L346.698 224.851C348.236 223.976 349.372 222.556 349.845 220.828C350.319 219.124 350.106 217.326 349.23 215.764C348.946 215.244 348.544 214.723 348.047 214.25L347.574 213.8C346.248 212.57 344.592 211.954 342.936 211.954Z" fill="#333333"/>
<path d="M326.347 248.018C326.229 248.018 326.134 247.971 326.04 247.9C325.85 247.734 325.827 247.426 325.992 247.237L330.37 242.244C330.536 242.055 330.843 242.031 331.033 242.197C331.222 242.362 331.246 242.67 331.08 242.859L326.702 247.852C326.608 247.971 326.489 248.018 326.347 248.018Z" fill="#333333"/>
<path d="M228.805 248.515C228.687 248.515 228.568 248.468 228.497 248.397L223.836 244.161C223.646 243.995 223.623 243.687 223.812 243.498C223.978 243.309 224.285 243.285 224.475 243.474L229.136 247.71C229.326 247.876 229.349 248.184 229.16 248.373C229.065 248.468 228.923 248.515 228.805 248.515Z" fill="#333333"/>
<path d="M319.911 242.291C319.769 242.291 319.627 242.22 319.532 242.102C319.366 241.889 319.414 241.605 319.603 241.439L324.88 237.298C324.998 237.204 325.164 237.18 325.33 237.227C329.234 238.481 332.666 237.866 335.978 237.275C340.143 236.517 344.071 235.831 347.976 239.31C348.165 239.475 348.189 239.783 348.023 239.972C347.858 240.162 347.55 240.185 347.361 240.02C343.811 236.849 340.262 237.488 336.168 238.221C332.973 238.789 329.353 239.452 325.306 238.221L320.218 242.197C320.124 242.268 320.005 242.291 319.911 242.291Z" fill="#333333"/>
<path d="M258.953 96.6879C263.906 96.6879 267.921 92.6725 267.921 87.7193C267.921 82.7661 263.906 78.7507 258.953 78.7507C254 78.7507 249.984 82.7661 249.984 87.7193C249.984 92.6725 254 96.6879 258.953 96.6879Z" fill="#333333"/>
<path d="M264.064 120.801C261.201 120.801 258.858 118.459 258.858 115.595C258.858 112.732 261.201 110.389 264.064 110.389C266.927 110.389 269.27 112.732 269.27 115.595C269.27 118.459 266.927 120.801 264.064 120.801Z" fill="white"/>
<path d="M264.064 110.839C266.667 110.839 268.797 112.969 268.797 115.572C268.797 118.175 266.667 120.304 264.064 120.304C261.461 120.304 259.331 118.175 259.331 115.572C259.331 112.969 261.461 110.839 264.064 110.839ZM264.064 109.892C260.917 109.892 258.385 112.448 258.385 115.572C258.385 118.695 260.94 121.251 264.064 121.251C267.188 121.251 269.743 118.695 269.743 115.572C269.743 112.448 267.211 109.892 264.064 109.892Z" fill="#333333"/>
<path d="M264.94 116.755C264.869 116.755 264.821 116.755 264.75 116.708L261.012 115.169C260.775 115.075 260.657 114.791 260.751 114.554C260.846 114.318 261.13 114.199 261.366 114.294L265.105 115.832C265.342 115.927 265.46 116.211 265.366 116.447C265.295 116.637 265.129 116.755 264.94 116.755Z" fill="#333333"/>
<path d="M253.818 121.961C249.984 121.961 245.962 118.222 243.808 112.661C240.968 105.231 241.536 98.1553 245.157 96.1912C246.695 95.363 248.399 94.937 250.245 94.937C254.906 94.937 258.882 97.6347 258.929 97.6583C261.556 99.5278 262.905 101.563 263.26 104.237C263.662 107.242 262.81 111.052 260.609 116.282C259.071 119.95 256.658 121.961 253.818 121.961Z" fill="white"/>
<path d="M250.268 94.4636V95.4102C254.693 95.4102 258.527 97.9422 258.693 98.0369C263.023 101.113 264.798 105.207 260.207 116.069C258.74 119.547 256.468 121.488 253.842 121.488C250.197 121.488 246.34 117.867 244.281 112.472C242.885 108.875 242.294 105.231 242.578 102.225C242.838 99.433 243.855 97.4453 245.417 96.5934C246.884 95.7888 248.517 95.3865 250.292 95.3865L250.268 94.4636ZM250.268 94.4636C248.541 94.4636 246.719 94.8186 244.944 95.7888C241.158 97.8475 240.401 105.041 243.382 112.85C245.701 118.861 249.89 122.458 253.818 122.458C256.634 122.458 259.308 120.612 261.059 116.471C265.603 105.704 264.277 100.877 259.213 97.2796C259.213 97.256 255.119 94.4636 250.268 94.4636Z" fill="#333333"/>
<path d="M259.213 97.2558C263.615 100.379 265.176 104.426 262.55 112.495C254.717 109.372 255.001 98.5573 255.001 98.5573C248.47 103.621 241.536 103.314 241.536 103.314C241.631 99.7168 242.814 96.9481 244.92 95.7886C251.688 92.1207 259.213 97.2558 259.213 97.2558Z" fill="#333333"/>
<path d="M248.304 111.88C248.233 111.88 248.186 111.856 248.115 111.833C247.665 111.644 247.239 111.265 246.979 110.815C246.577 110.129 246.529 108.993 246.719 106.437C246.742 106.177 246.979 105.988 247.239 106.012C247.499 106.035 247.689 106.272 247.665 106.532C247.476 108.757 247.523 109.892 247.783 110.342C247.949 110.626 248.209 110.863 248.493 110.981C248.73 111.076 248.848 111.36 248.73 111.596C248.659 111.785 248.493 111.88 248.304 111.88Z" fill="#333333"/>
<path d="M251.073 108.26C250.812 108.26 250.599 108.07 250.599 107.81L250.576 107.218C250.576 106.958 250.765 106.745 251.025 106.721C251.286 106.721 251.499 106.911 251.522 107.171L251.546 107.763C251.546 108.023 251.357 108.26 251.073 108.26C251.073 108.26 251.096 108.26 251.073 108.26Z" fill="#333333"/>
<path d="M244.565 107.076C244.305 107.076 244.092 106.887 244.092 106.627L244.068 106.059C244.068 105.798 244.257 105.586 244.518 105.562C244.778 105.538 244.991 105.751 245.015 106.011L245.038 106.579C245.038 106.84 244.849 107.076 244.565 107.076C244.565 107.076 244.589 107.076 244.565 107.076Z" fill="#333333"/>
<path d="M250.245 114.791C250.174 114.791 250.103 114.791 250.032 114.767C249.984 114.767 249.937 114.767 249.89 114.767C249.629 114.767 249.416 114.554 249.416 114.294C249.416 114.034 249.629 113.821 249.89 113.821C249.961 113.821 250.032 113.821 250.103 113.844C250.15 113.844 250.197 113.844 250.245 113.844C251.049 113.844 251.688 113.205 251.688 112.424C251.688 112.164 251.901 111.951 252.161 111.951C252.422 111.951 252.635 112.164 252.635 112.424C252.635 113.726 251.57 114.791 250.245 114.791Z" fill="#333333"/>
<path d="M280.842 132.657C280.723 132.657 280.605 132.61 280.511 132.515L270.643 123.097C270.453 122.907 270.453 122.623 270.619 122.434C270.808 122.245 271.092 122.245 271.282 122.41L281.149 131.829C281.339 132.018 281.339 132.302 281.173 132.491C281.078 132.61 280.96 132.657 280.842 132.657Z" fill="#333333"/>
<path d="M283.374 124.256C283.303 124.256 283.232 124.233 283.161 124.209L269.057 116.802C268.821 116.684 268.726 116.4 268.868 116.163C269.01 115.927 269.27 115.832 269.507 115.974L283.61 123.381C283.847 123.499 283.942 123.783 283.8 124.02C283.705 124.162 283.539 124.256 283.374 124.256Z" fill="#333333"/>
<path d="M261.958 97.6344C260.42 97.6344 258.645 97.3031 256.492 96.4276C256.255 96.3329 256.137 96.0489 256.231 95.8123C256.326 95.5757 256.61 95.4573 256.847 95.552C261.414 97.4451 264.041 96.6169 266.786 95.7176C268.915 95.0314 271.14 94.2978 274.311 94.7711C274.571 94.8184 274.76 95.0551 274.713 95.3154C274.666 95.5757 274.429 95.765 274.169 95.7176C271.211 95.2917 269.105 95.9779 267.069 96.6405C265.531 97.1138 263.922 97.6344 261.958 97.6344Z" fill="#333333"/>
<path d="M279.895 104.781C279.801 104.781 279.682 104.757 279.588 104.686C276.085 101.823 273.246 101.752 270.217 101.657C266.596 101.563 262.502 101.421 256.799 96.5223C256.61 96.3567 256.586 96.0491 256.752 95.8598C256.918 95.6705 257.225 95.6468 257.415 95.8124C262.857 100.522 266.62 100.616 270.24 100.734C273.411 100.829 276.417 100.924 280.179 103.976C280.392 104.142 280.416 104.45 280.25 104.639C280.179 104.71 280.037 104.781 279.895 104.781Z" fill="#333333"/>
<path d="M286 239.191C285.835 239.191 285.693 239.12 285.598 238.955C283.705 235.807 277.127 234.293 277.056 234.269C276.819 234.222 276.677 234.009 276.677 233.772C276.701 233.536 276.866 233.346 277.103 233.323C277.197 233.323 286.805 232.4 289.384 228.448C290.071 227.407 290.189 226.271 289.739 224.969C289.479 224.188 288.958 223.644 288.154 223.266C284.06 221.372 274.642 225.04 274.547 225.064C274.358 225.135 274.145 225.088 274.003 224.922C273.885 224.756 273.861 224.543 273.979 224.354C274.05 224.259 280.913 214.06 279.233 209.02C278.854 207.86 278.049 207.103 276.795 206.677C275.352 206.204 274.003 206.322 272.678 207.079C267.401 210.085 264.869 221.869 264.821 221.988C264.774 222.201 264.608 222.343 264.395 222.366C264.182 222.39 263.993 222.272 263.922 222.082C263.875 221.988 259.852 212.617 255.45 211.268C254.48 210.96 253.605 211.079 252.729 211.647C251.593 212.356 251.002 213.279 250.883 214.463C250.457 218.935 257.154 225.277 257.225 225.324C257.367 225.466 257.415 225.703 257.32 225.892C257.225 226.082 257.012 226.176 256.799 226.152C249.653 224.804 245.37 225.916 243.713 229.56C243.595 229.797 243.335 229.891 243.074 229.797C242.838 229.678 242.743 229.418 242.838 229.158C245.228 223.952 251.901 224.401 255.498 224.969C253.534 222.887 249.558 218.178 249.913 214.392C250.055 212.924 250.812 211.718 252.209 210.866C253.297 210.179 254.48 210.014 255.711 210.392C259.544 211.576 262.881 217.776 264.206 220.497C265.058 217.208 267.614 208.925 272.181 206.299C273.719 205.423 275.375 205.257 277.056 205.825C278.594 206.346 279.611 207.34 280.108 208.76C281.599 213.208 277.339 220.804 275.517 223.739C278.357 222.769 285.03 220.804 288.556 222.437C289.597 222.911 290.307 223.691 290.639 224.709C291.159 226.271 291.017 227.714 290.165 228.992C288.154 232.092 282.569 233.441 279.422 233.985C281.67 234.742 285.03 236.186 286.403 238.481C286.545 238.694 286.474 239.002 286.237 239.12C286.166 239.168 286.095 239.191 286 239.191Z" fill="#333333"/>
<path d="M236.827 225.537C236.78 225.537 236.732 225.537 236.685 225.514C236.425 225.443 236.307 225.159 236.378 224.922C237.892 220.142 228.143 215.977 228.024 215.93C227.811 215.835 227.693 215.598 227.74 215.362C227.811 215.125 228.024 214.983 228.261 215.007C228.355 215.007 237.537 216.119 240.897 212.877C241.797 212.002 242.199 210.913 242.057 209.517C241.938 208.192 241.394 207.15 240.377 206.37C237.158 203.861 230.485 204.926 230.414 204.926C230.201 204.95 229.988 204.855 229.917 204.666C229.823 204.476 229.894 204.24 230.036 204.098C230.107 204.05 236.614 198.631 237.087 193.662C237.229 192.266 236.851 191.012 235.975 189.947C235.076 188.858 233.869 188.669 232.994 188.693C231.384 188.74 229.61 189.592 228.758 190.728C228.592 190.941 228.308 190.988 228.095 190.822C227.882 190.657 227.835 190.373 228.001 190.16C229.018 188.787 231.053 187.793 232.97 187.722C234.508 187.675 235.81 188.243 236.709 189.332C237.75 190.586 238.2 192.077 238.034 193.733C237.655 197.803 233.751 201.944 231.763 203.814C234.035 203.625 238.365 203.601 240.945 205.612C242.151 206.559 242.861 207.837 243.003 209.422C243.145 211.079 242.672 212.475 241.56 213.54C239.004 216.001 233.727 216.214 230.604 216.095C233.632 217.752 238.531 221.136 237.253 225.135C237.206 225.419 237.04 225.537 236.827 225.537Z" fill="#333333"/>
<path d="M299.702 231.524C299.583 231.524 299.465 231.477 299.37 231.382C297.359 229.442 296.507 227.312 296.791 225.04C297.383 220.473 302.494 216.663 304.695 215.22C300.98 214.297 289.621 210.937 290.591 204.713C290.851 203.104 291.656 201.873 293.005 201.022C296.483 198.844 302.707 199.886 305.925 200.619C302.612 197.661 295.655 190.538 298.826 185.119C299.37 184.197 301.524 181.333 306.919 183.274C307.156 183.368 307.298 183.629 307.203 183.889C307.109 184.126 306.848 184.268 306.588 184.173C303.417 183.013 300.814 183.558 299.631 185.593C296.058 191.769 308.008 201.14 308.126 201.234C308.315 201.376 308.363 201.613 308.244 201.826C308.15 202.039 307.913 202.134 307.676 202.063C307.582 202.039 297.832 199.081 293.478 201.826C292.366 202.536 291.727 203.53 291.514 204.855C291.017 208.121 294.898 210.558 298.258 212.049C302.021 213.705 305.973 214.534 305.996 214.557C306.186 214.605 306.328 214.747 306.375 214.936C306.399 215.125 306.304 215.314 306.138 215.409C306.067 215.456 298.377 219.882 297.714 225.135C297.454 227.099 298.235 228.968 300.009 230.672C300.199 230.862 300.199 231.146 300.009 231.335C299.938 231.477 299.82 231.524 299.702 231.524Z" fill="#333333"/>
<path d="M282.498 154.073C282.356 154.073 282.214 154.002 282.12 153.883C281.954 153.67 282.001 153.386 282.214 153.221L287.704 149.151C287.917 148.985 288.201 149.032 288.367 149.245C288.533 149.458 288.485 149.742 288.272 149.908L282.782 153.978C282.688 154.049 282.593 154.073 282.498 154.073Z" fill="#333333"/>
<path d="M187.488 82.5132C184.743 69.8768 166.83 73.095 173.006 87.9086C178.709 99.8115 185.974 113.465 187.37 116.068C187.417 116.163 187.465 116.234 187.488 116.281C187.512 116.21 187.559 116.139 187.607 116.068C189.003 113.465 196.268 99.8115 201.971 87.9086C208.123 73.095 190.233 69.8768 187.488 82.5132Z" fill="#FF5573"/>
<path d="M212.336 75.1064L199.675 56.6249C198.587 55.0395 199.912 52.8624 201.805 53.1937C202.562 53.312 203.391 53.738 204.243 54.6608C204.243 54.6608 206.94 52.1525 210.088 55.986C210.088 55.986 213.14 54.5898 216.122 58.5417C218.867 62.1623 220.05 63.9844 220.05 63.9844L212.336 75.1064Z" fill="#B666D2"/>
<path d="M215.057 70.776C214.915 70.776 214.749 70.705 214.678 70.563L203.864 54.8739C203.722 54.6609 203.769 54.3533 203.982 54.2113C204.195 54.0693 204.503 54.1166 204.645 54.3296L215.459 70.0187C215.601 70.2317 215.554 70.5393 215.341 70.6813C215.246 70.7523 215.152 70.776 215.057 70.776Z" fill="#333333"/>
<path d="M217.187 66.7294C217.045 66.7294 216.879 66.6584 216.808 66.5165L209.685 56.1754C209.543 55.9624 209.591 55.6548 209.804 55.5128C210.017 55.3708 210.324 55.4181 210.466 55.6311L217.589 65.9722C217.731 66.1852 217.684 66.4928 217.471 66.6348C217.376 66.7058 217.281 66.7294 217.187 66.7294Z" fill="#333333"/>
<path d="M208.36 79.6737C207.082 79.6737 205.923 78.9164 205.426 77.7333C204.787 76.1951 205.379 74.4676 206.846 73.6631L213.069 70.3028L215.128 48.0588C215.223 47.0176 216.122 46.4497 216.903 46.4497C217.234 46.4497 217.731 46.5444 218.133 47.0176C218.63 47.5856 218.914 48.3901 218.962 49.4077L218.985 49.881L219.459 49.8573H219.506C220.026 49.8573 222.629 50.0703 222.629 54.1404V54.4954L222.984 54.5901C223.103 54.6137 225.848 55.442 225.658 59.9381C225.611 60.9083 225.564 61.8548 225.516 62.7541L225.469 63.606L237.183 57.3114C237.538 57.1221 237.94 57.0274 238.342 57.0274C239.005 57.0274 239.62 57.2877 240.07 57.7373L242.602 60.2694C242.838 60.506 243.004 60.79 243.051 61.1213C243.241 62.0205 242.649 62.896 241.75 63.0854L233.964 64.6235C232.781 64.8601 231.858 65.7357 231.551 66.8952C231.432 67.3448 231.314 67.8418 231.196 68.3861C230.509 71.486 229.563 75.7692 225.256 78.1119C223.765 78.9401 221.92 79.3424 219.79 79.3424C217.873 79.3424 216.146 79.0111 215.01 78.7271C214.489 78.5851 213.969 78.5378 213.424 78.5378C212.785 78.5378 212.17 78.6325 211.555 78.8218L209.283 79.508C208.999 79.6264 208.691 79.6737 208.36 79.6737Z" fill="white"/>
<path d="M216.926 46.9466C217.163 46.9466 217.518 47.0175 217.802 47.3488C218.228 47.8458 218.465 48.5557 218.512 49.4549L218.536 50.4015L219.482 50.3541H219.506C219.624 50.3541 220.31 50.3778 220.926 50.8274C221.73 51.419 222.156 52.5549 222.156 54.1403V54.8739L222.866 55.0632C222.89 55.0632 225.374 55.7731 225.185 59.938C225.138 60.9082 225.09 61.8547 225.043 62.754L224.948 64.4341L226.439 63.6295L237.396 57.7372C237.68 57.5716 238.011 57.5006 238.318 57.5006C238.839 57.5006 239.336 57.7136 239.715 58.0685L242.247 60.6006C242.412 60.7662 242.531 60.9792 242.578 61.2158C242.649 61.5235 242.578 61.8547 242.389 62.115C242.199 62.3753 241.939 62.5647 241.631 62.612L233.846 64.1501C232.497 64.4104 231.432 65.428 231.054 66.7532C230.935 67.2028 230.817 67.7234 230.699 68.2676C230.036 71.2966 229.113 75.4378 224.996 77.6858C223.552 78.4667 221.801 78.869 219.766 78.869C217.92 78.869 216.193 78.5377 215.104 78.2538C214.536 78.1118 213.968 78.0408 213.4 78.0408C212.714 78.0408 212.052 78.1354 211.389 78.3484L209.117 79.0347C208.857 79.1057 208.597 79.153 208.336 79.153C207.248 79.153 206.278 78.5141 205.828 77.4965C205.284 76.195 205.804 74.7042 207.035 74.0416L213.046 70.7997L213.495 70.563L213.542 70.0661L215.578 48.0824C215.696 47.3488 216.358 46.9466 216.926 46.9466ZM216.926 46C215.862 46 214.797 46.7809 214.678 48.0351L212.643 70.0188L206.633 73.2607C204.976 74.1599 204.266 76.1713 205 77.9225C205.591 79.295 206.94 80.1469 208.36 80.1469C208.715 80.1469 209.07 80.0995 209.425 79.9812L211.697 79.295C212.265 79.1293 212.856 79.0347 213.424 79.0347C213.921 79.0347 214.418 79.1057 214.891 79.224C216.074 79.5316 217.849 79.8629 219.79 79.8629C221.659 79.8629 223.694 79.5553 225.469 78.5614C230.722 75.6744 231.196 69.9951 231.977 67.0608C232.237 66.0906 233.041 65.3333 234.035 65.144L241.821 63.6059C242.98 63.3692 243.737 62.257 243.501 61.0975C243.43 60.6716 243.217 60.2929 242.909 60.009L240.377 57.4769C239.809 56.909 239.076 56.625 238.318 56.625C237.845 56.625 237.372 56.7434 236.946 56.98L225.99 62.8723C226.037 62.0677 226.084 61.1212 226.132 60.0326C226.345 55.0632 223.103 54.2113 223.103 54.2113C223.103 49.6442 220.003 49.4549 219.506 49.4549C219.458 49.4549 219.435 49.4549 219.435 49.4549C219.364 48.2007 219.009 47.3488 218.512 46.7809C218.086 46.2366 217.494 46 216.926 46Z" fill="#333333"/>
<path d="M217.897 63.8899C217.873 63.8899 217.873 63.8899 217.849 63.8899C217.589 63.8662 217.4 63.6296 217.423 63.3693L218.583 49.6916C218.607 49.4313 218.843 49.242 219.104 49.2657C219.364 49.2893 219.553 49.526 219.529 49.7863L218.37 63.4639C218.346 63.7006 218.133 63.8899 217.897 63.8899Z" fill="#333333"/>
<path d="M222.014 62.0203C221.99 62.0203 221.99 62.0203 221.967 62.0203C221.706 61.9966 221.517 61.76 221.541 61.4997L222.18 54.3059C222.203 54.0456 222.44 53.8563 222.7 53.8799C222.961 53.9036 223.15 54.1402 223.126 54.4005L222.487 61.5943C222.464 61.831 222.251 62.0203 222.014 62.0203Z" fill="#333333"/>
<path d="M203.272 81.8271C203.178 81.8271 203.107 81.8034 203.012 81.7561C202.799 81.6141 202.728 81.3301 202.87 81.0935L204.172 79.0821L201.001 79.863C200.74 79.934 200.48 79.7683 200.433 79.508C200.362 79.2477 200.527 78.9874 200.788 78.9401L205.118 77.8752C205.308 77.8279 205.497 77.8989 205.615 78.0645C205.733 78.2302 205.733 78.4432 205.639 78.5851L203.698 81.5904C203.58 81.7561 203.438 81.8271 203.272 81.8271Z" fill="#333333"/>
<path d="M208.384 76.3606C208.194 76.3606 208.029 76.2423 207.934 76.0529L207.792 75.698C207.698 75.4613 207.816 75.1774 208.052 75.0827C208.289 74.9881 208.573 75.1064 208.668 75.343L208.81 75.698C208.904 75.9346 208.786 76.2186 208.549 76.3132C208.502 76.3606 208.431 76.3606 208.384 76.3606Z" fill="#333333"/>
<path d="M225.185 68.3623H225.161C224.901 68.3386 224.712 68.1257 224.712 67.8654L225.019 63.2982C225.043 63.0379 225.256 62.8486 225.516 62.8486C225.777 62.8723 225.966 63.0853 225.966 63.3456L225.658 67.9127C225.635 68.173 225.422 68.3623 225.185 68.3623Z" fill="#333333"/>
<path d="M237.159 60.9082C236.97 60.9082 236.78 60.7899 236.709 60.6006C236.615 60.364 236.733 60.08 236.993 59.9853L240.969 58.4709C241.205 58.3762 241.489 58.4945 241.584 58.7548C241.679 58.9915 241.56 59.2754 241.3 59.3701L237.325 60.8846C237.277 60.9082 237.206 60.9082 237.159 60.9082Z" fill="#333333"/>
<path d="M162.641 75.1064L175.301 56.6249C176.39 55.0395 175.065 52.8624 173.172 53.1937C172.414 53.312 171.586 53.738 170.734 54.6608C170.734 54.6608 168.037 52.1525 164.889 55.986C164.889 55.986 161.837 54.5898 158.855 58.5417C156.11 62.1623 154.927 63.9844 154.927 63.9844L162.641 75.1064Z" fill="#B666D2"/>
<path d="M159.92 70.776C159.825 70.776 159.731 70.7523 159.66 70.6813C159.447 70.5393 159.399 70.2317 159.541 70.0187L170.332 54.3296C170.474 54.1166 170.782 54.0693 170.995 54.2113C171.208 54.3533 171.255 54.6609 171.113 54.8739L160.298 70.563C160.227 70.705 160.062 70.776 159.92 70.776Z" fill="#333333"/>
<path d="M157.767 66.7294C157.672 66.7294 157.577 66.7058 157.506 66.6348C157.293 66.4928 157.246 66.1852 157.388 65.9722L164.511 55.6311C164.653 55.4181 164.961 55.3708 165.173 55.5128C165.386 55.6548 165.434 55.9624 165.292 56.1754L158.169 66.5165C158.074 66.6584 157.909 66.7294 157.767 66.7294Z" fill="#333333"/>
<path d="M166.593 79.6735C166.286 79.6735 165.978 79.6261 165.67 79.5315L163.399 78.8452C162.783 78.6559 162.168 78.5613 161.529 78.5613C160.985 78.5613 160.464 78.6322 159.944 78.7506C158.808 79.0345 157.057 79.3658 155.164 79.3658C153.034 79.3658 151.212 78.9399 149.697 78.1353C145.414 75.7926 144.468 71.5094 143.758 68.4095C143.639 67.8652 143.521 67.3683 143.403 66.9187C143.095 65.7591 142.172 64.8836 140.989 64.6469L133.204 63.1088C132.304 62.9195 131.713 62.0439 131.902 61.1447C131.973 60.8134 132.115 60.5294 132.352 60.2928L134.884 57.7608C135.357 57.3112 135.949 57.0509 136.611 57.0509C137.014 57.0509 137.416 57.1455 137.771 57.3348L149.484 63.6294L149.437 62.7775C149.39 61.8783 149.342 60.9317 149.295 59.9615C149.106 55.4654 151.851 54.6372 151.969 54.6135L152.324 54.5188V54.1639C152.324 50.0937 154.927 49.8807 155.448 49.8807H155.495L155.968 49.9044L155.992 49.4311C156.039 48.4136 156.323 47.609 156.82 47.0411C157.222 46.5678 157.719 46.4731 158.051 46.4731C158.832 46.4731 159.731 47.0411 159.825 48.0823L161.884 70.3263L168.108 73.6865C169.575 74.4674 170.19 76.2185 169.528 77.733C169.031 78.8926 167.871 79.6735 166.593 79.6735Z" fill="white"/>
<path d="M158.027 46.9466C158.595 46.9466 159.257 47.3488 159.328 48.1061L161.363 70.0897L161.411 70.5867L161.86 70.8233L167.871 74.0653C169.125 74.7279 169.646 76.2187 169.078 77.5202C168.652 78.5141 167.658 79.1766 166.569 79.1766C166.309 79.1766 166.049 79.1293 165.789 79.0583L163.517 78.3721C162.854 78.1828 162.192 78.0644 161.505 78.0644C160.938 78.0644 160.37 78.1354 159.802 78.2774C158.689 78.5614 156.986 78.8927 155.14 78.8927C153.105 78.8927 151.33 78.4904 149.91 77.7095C145.816 75.4614 144.893 71.3203 144.207 68.2913C144.089 67.747 143.971 67.2264 143.852 66.7768C143.497 65.428 142.432 64.4341 141.06 64.1738L133.275 62.6357C132.967 62.5647 132.683 62.399 132.517 62.1387C132.352 61.8784 132.281 61.5471 132.328 61.2395C132.375 61.0028 132.494 60.7899 132.659 60.6242L135.191 58.0922C135.57 57.7136 136.067 57.5243 136.587 57.5243C136.919 57.5243 137.226 57.5953 137.51 57.7609L148.467 63.6532L149.958 64.4578L149.863 62.7776C149.816 61.8784 149.768 60.9319 149.721 59.9616C149.65 58.2105 150.028 56.8617 150.833 55.9388C151.401 55.2999 151.969 55.1106 152.064 55.0869L152.75 54.9213V54.164C152.75 50.6381 154.785 50.3541 155.4 50.3541L156.347 50.4015L156.394 49.4549C156.441 48.5557 156.678 47.8458 157.104 47.3488C157.459 47.0175 157.79 46.9466 158.027 46.9466ZM158.027 46C157.459 46 156.867 46.2366 156.441 46.7336C155.944 47.3252 155.566 48.1771 155.518 49.4076C155.518 49.4076 155.495 49.4076 155.448 49.4076C154.951 49.4076 151.851 49.5969 151.851 54.164C151.851 54.164 148.609 55.0159 148.822 59.9853C148.869 61.0738 148.916 61.9967 148.964 62.825L138.007 56.9327C137.581 56.696 137.108 56.5777 136.635 56.5777C135.878 56.5777 135.144 56.8617 134.576 57.4296L132.02 59.9616C131.713 60.2693 131.523 60.6479 131.429 61.0502C131.192 62.2097 131.949 63.3219 133.109 63.5585L140.894 65.0967C141.888 65.286 142.693 66.0432 142.953 67.0135C143.758 69.9478 144.207 75.6507 149.461 78.5141C151.259 79.4843 153.27 79.8156 155.14 79.8156C157.08 79.8156 158.855 79.4843 160.038 79.1766C160.512 79.0583 161.008 78.9873 161.505 78.9873C162.097 78.9873 162.665 79.082 163.233 79.2476L165.505 79.9339C165.86 80.0522 166.215 80.0995 166.569 80.0995C168.013 80.0995 169.362 79.2476 169.93 77.8751C170.663 76.124 169.953 74.1126 168.297 73.2134L162.286 69.9714L160.251 47.9878C160.157 46.7809 159.092 46 158.027 46Z" fill="#333333"/>
<path d="M157.057 63.8899C156.82 63.8899 156.607 63.7006 156.583 63.4639L155.448 49.7863C155.424 49.526 155.613 49.2893 155.874 49.2657C156.134 49.242 156.371 49.4313 156.394 49.6916L157.53 63.3693C157.554 63.6296 157.364 63.8662 157.104 63.8899C157.08 63.8899 157.08 63.8899 157.057 63.8899Z" fill="#333333"/>
<path d="M152.963 62.0203C152.726 62.0203 152.513 61.831 152.49 61.5943L151.827 54.4005C151.803 54.1402 151.993 53.9036 152.253 53.8799C152.513 53.8563 152.75 54.0456 152.774 54.3059L153.436 61.4997C153.46 61.76 153.271 61.9966 153.01 62.0203C152.987 62.0203 152.987 62.0203 152.963 62.0203Z" fill="#333333"/>
<path d="M171.705 81.8269C171.539 81.8269 171.397 81.7559 171.302 81.6139L169.362 78.6086C169.267 78.4429 169.267 78.23 169.386 78.088C169.504 77.9223 169.693 77.8513 169.883 77.8987L174.189 78.9635C174.45 79.0345 174.592 79.2712 174.544 79.5315C174.497 79.7918 174.237 79.9338 173.976 79.8864L170.829 79.1055L172.131 81.1169C172.273 81.3299 172.202 81.6376 171.989 81.7795C171.87 81.8032 171.799 81.8269 171.705 81.8269Z" fill="#333333"/>
<path d="M166.593 76.3606C166.546 76.3606 166.475 76.3606 166.428 76.3369C166.191 76.2423 166.073 75.9583 166.167 75.7217L166.309 75.3667C166.404 75.1301 166.688 75.0118 166.925 75.1064C167.161 75.2011 167.279 75.485 167.185 75.7217L167.043 76.0766C166.948 76.2423 166.783 76.3606 166.593 76.3606Z" fill="#333333"/>
<path d="M149.768 68.3624C149.532 68.3624 149.319 68.1731 149.295 67.9128L148.987 63.3457C148.964 63.0854 149.177 62.8487 149.437 62.8487C149.697 62.8251 149.934 63.038 149.934 63.2983L150.242 67.8654C150.265 68.1257 150.052 68.3624 149.792 68.3624H149.768Z" fill="#333333"/>
<path d="M137.818 60.9082C137.771 60.9082 137.7 60.9082 137.652 60.8845L133.677 59.37C133.44 59.2754 133.298 59.0151 133.393 58.7548C133.488 58.5181 133.748 58.3762 134.008 58.4708L137.984 59.9853C138.22 60.08 138.362 60.3403 138.268 60.6006C138.197 60.7899 138.007 60.9082 137.818 60.9082Z" fill="#333333"/>
</svg>
